<?xml version="1.0" encoding="utf-8"?>
<!-- Generator: Adobe Illustrator 23.0.1, SVG Export Plug-In . SVG Version: 6.00 Build 0)  -->
<svg xmlns="http://www.w3.org/2000/svg" xmlns:xlink="http://www.w3.org/1999/xlink" x="0px" y="0px"
	 viewBox="0 0 155 152.9" style="enable-background:new 0 0 155 152.9;" xml:space="preserve">
<style type="text/css">
	.account-creation-0{fill:#FFC107;}
	.account-creation-1{fill:none;stroke:#377DFF;}
	.account-creation-2{fill:none;stroke:#FFC107;}
	.account-creation-3{fill:none;stroke:#FFFFFF;}
	.account-creation-4{fill:#FFFFFF;}
</style>
<g>
	<path class="account-creation-0 fill-warning" d="M60.6,100.9c5.2,4.7,10.7,8.8,16.4,12.3c13.9-6,27.4-15,39.3-27c24.6-24.6,36.9-55.9,35.8-83.8
		c-27.9-1.1-59.1,11.2-83.8,35.8c-12,12-20.9,25.5-27,39.3C44.9,83.3,49,88.9,53.7,94"/>
	<path class="account-creation-0 fill-warning" d="M121.8,6.3c3.3,5.5,7.1,10.4,11.7,14.9c4.6,4.6,9.5,8.4,14.9,11.6"/>
</g>
<g opacity=".5">
	<line class="account-creation-1 fill-none stroke-primary" stroke-width="4" stroke-linecap="round" stroke-linejoin="round" stroke-miterlimit="10" x1="9.7" y1="128.4" x2="2.8" y2="135.2"/>
</g>
<line class="account-creation-1 fill-none stroke-primary" stroke-width="4" stroke-linecap="round" stroke-linejoin="round" stroke-miterlimit="10" opacity=".5" x1="13.1" y1="141.6" x2="10.1" y2="144.5"/>
<circle class="account-creation-4 fill-white" cx="108.6" cy="46.1" r="21.8"/>
<path class="account-creation-1 fill-none stroke-primary" stroke-width="4" stroke-linecap="round" stroke-linejoin="round" stroke-miterlimit="10" d="M105.1,32c2.5-0.6,5.2-0.5,7.8,0.3"/>
<path class="account-creation-1 fill-none stroke-primary" stroke-width="4" stroke-linecap="round" stroke-linejoin="round" stroke-miterlimit="10" d="M98.3,56.4c-5.7-5.7-5.7-14.9,0-20.6"/>
<g>
	<path class="account-creation-2 fill-none stroke-warning" stroke-width="4" stroke-linecap="round" stroke-linejoin="round" stroke-miterlimit="10" d="M55.3,53.8c-12.5-2-25.7,1.8-35.4,11.5C16,69,13.2,73.4,11.2,78c8.9-1.7,19.2-1.9,30.3-0.5
		C45.1,69.3,49.7,61.3,55.3,53.8z"/>
	<path class="account-creation-2 fill-none stroke-warning" stroke-width="4" stroke-linecap="round" stroke-linejoin="round" stroke-miterlimit="10" d="M78,135.5c-0.1,0.6-0.8,5.1-0.9,5.6c-0.1,0.8-0.3,1.7-0.4,2.4c4.6-2,9-4.8,12.7-8.7
		c9.7-9.7,13.5-22.8,11.5-35.4c-7.6,5.6-15.5,10.2-23.7,13.6c0.8,6,1,11.7,0.9,17.2"/>
</g>
<g>
	<path class="account-creation-3 fill-none stroke-white" stroke-width="4" stroke-linecap="round" stroke-linejoin="round" stroke-miterlimit="10" d="M67.5,94c6.1,5.6,12.6,10.2,19.6,14.1"/>
	<path class="account-creation-3 fill-none stroke-white" stroke-width="4" stroke-linecap="round" stroke-linejoin="round" stroke-miterlimit="10" d="M46.6,67.5c3.8,6.9,8.5,13.5,14.1,19.6"/>
</g>
<path class="account-creation-3 fill-none stroke-white" stroke-width="4" stroke-linecap="round" stroke-linejoin="round" stroke-miterlimit="10" d="M44.4,110.3L44.4,110.3c-1.9-1.9-1.9-5,0-6.9L69.9,78c1.9-1.9,5-1.9,6.9,0l0,0c1.9,1.9,1.9,5,0,6.9l-25.5,25.5
	C49.4,112.2,46.3,112.2,44.4,110.3z"/>
<path class="account-creation-1 fill-none stroke-primary" stroke-width="4" stroke-linecap="round" stroke-linejoin="round" stroke-miterlimit="10" opacity=".5" d="M72.2,119.6c-4.3-2.7-8.7-5.9-12.9-9.4l-4.2,4.2c-3.9,3.9-10.4,3.9-14.4,0l0,0c-3.9-3.9-3.9-10.4,0-14.4
	l4.2-4.2c-3.7-4.3-7-8.9-9.9-13.5c-3.7,2-7.4,4.7-10.7,8.1c-9.5,9.5-14,21.6-12.2,30.7c1.9,0.4,3.9,0.5,6.1,0.4
	c-1.8,5.7-2.2,11.2-1.1,16c4.8,1,10.4,0.5,16-1.1c-0.1,2.2-0.1,4.2,0.4,6.1c9,1.9,21.1-2.5,30.7-12.2
	C67.5,127.1,70.1,123.4,72.2,119.6z"/>
<line class="account-creation-1 fill-none stroke-primary" stroke-width="4" stroke-linecap="round" stroke-linejoin="round" stroke-miterlimit="10" opacity=".5" x1="25.8" y1="70.1" x2="14" y2="81.9"/>
<line class="account-creation-2 fill-none stroke-warning" stroke-width="4" stroke-linecap="round" stroke-linejoin="round" stroke-miterlimit="10" x1="21.9" y1="83.8" x2="13.1" y2="92.6"/>
<line class="account-creation-2 fill-none stroke-warning" stroke-width="4" stroke-linecap="round" stroke-linejoin="round" stroke-miterlimit="10" x1="8.2" y1="87.8" x2="6.2" y2="89.7"/>
<line class="account-creation-1 fill-none stroke-primary" stroke-width="4" stroke-linecap="round" stroke-linejoin="round" stroke-miterlimit="10" opacity=".5" x1="84.5" y1="128.9" x2="65.7" y2="147.8"/>
<line class="account-creation-2 fill-none stroke-warning" stroke-width="4" stroke-linecap="round" stroke-linejoin="round" stroke-miterlimit="10" x1="70.9" y1="132.8" x2="62" y2="141.6"/>
<line class="account-creation-2 fill-none stroke-warning" stroke-width="4" stroke-linecap="round" stroke-linejoin="round" stroke-miterlimit="10" x1="56.1" y1="147.5" x2="53.2" y2="150.5"/>
</svg>
