<?xml version="1.0" encoding="utf-8"?>
<!-- Generator: Adobe Illustrator 23.0.3, SVG Export Plug-In . SVG Version: 6.00 Build 0)  -->
<svg version="1.1" id="ps_x5F_cc_x5F_app_x5F_RGB.svg"
	 xmlns="http://www.w3.org/2000/svg" xmlns:xlink="http://www.w3.org/1999/xlink" x="0px" y="0px" viewBox="0 0 106.2 103.5"
	 style="enable-background:new 0 0 106.2 103.5;" xml:space="preserve">
<style type="text/css">
	.st0{fill:#FF26BE;}
	.st1{fill:#2E001F;}
	.st2{fill:#FFD9F2;}
</style>
<path class="st0" d="M87.4,103.5H18.8C8.4,103.5,0,95.1,0,84.7V18.8C0,8.4,8.4,0,18.8,0h68.6c10.4,0,18.8,8.4,18.8,18.8v65.9
	C106.2,95.1,97.8,103.5,87.4,103.5z"/>
<path class="st1" d="M85.7,99.1H20.5c-8.9,0-16.1-7.2-16.1-16.1V20.5c0-8.9,7.2-16.1,16.1-16.1h65.2c8.9,0,16.1,7.2,16.1,16.1V83
	C101.8,91.9,94.6,99.1,85.7,99.1z"/>
<path class="st2" d="M42,48.5l12.4,23.8c0.2,0.4,0.1,0.7-0.3,0.7h-7.7c-0.5,0-0.7-0.1-0.9-0.6c-2.8-5.8-5.7-11.7-8.7-18h-0.1
	c-2.7,5.9-5.6,12.2-8.4,18c-0.2,0.4-0.4,0.5-0.8,0.5h-7.3c-0.4,0-0.5-0.4-0.3-0.6l12.1-23.1L20.4,25.8c-0.3-0.4,0-0.6,0.3-0.6h7.6
	c0.4,0,0.6,0.1,0.8,0.5c2.8,5.8,5.6,11.9,8.3,17.7h0.1c2.6-5.8,5.4-11.9,8.1-17.7c0.2-0.4,0.4-0.6,0.8-0.6h7.1
	c0.4,0,0.5,0.3,0.3,0.6L42,48.5z M56.6,55.7c0-10.3,6.9-18.4,17.7-18.4c0.9,0,1.4,0,2.3,0.1V25.7c0-0.3,0.2-0.4,0.4-0.4h7
	c0.4,0,0.4,0.1,0.4,0.4v40.6c0,1.2,0,2.7,0.2,4.3c0,0.3-0.1,0.4-0.4,0.5c-3.7,1.8-7.6,2.6-11.3,2.6C63.4,73.6,56.6,67.7,56.6,55.7z
	 M76.6,44.3c-0.6-0.3-1.5-0.4-2.6-0.4c-5.6,0-9.5,4.3-9.5,11.4c0,8.1,4,11.4,9,11.4c1.1,0,2.2-0.1,3.1-0.5V44.3z"/>
</svg>
