<?xml version="1.0" encoding="utf-8"?>
<!-- Generator: Adobe Illustrator 24.0.1, SVG Export Plug-In . SVG Version: 6.00 Build 0)  -->
<svg version="1.1" id="Layer_1" xmlns="http://www.w3.org/2000/svg" xmlns:xlink="http://www.w3.org/1999/xlink" x="0px" y="0px"
	 viewBox="0 0 135 70" style="enable-background:new 0 0 135 70;" xml:space="preserve">
<style type="text/css">
	.st0{fill-rule:evenodd;clip-rule:evenodd;fill:#1E2022;}
	.st1{fill:#1E2022;}
</style>
<g id="Group">
	<g id="Group-12" transform="translate(109.285714, 0.000000)">
		<path id="Path" class="st0" d="M24.1,25.3c-0.5,0.6-1,1.3-1.4,2c-0.4,0.8-0.6,1.7-0.6,2.6c-0.1,1.1,0.1,2.2,0,3.3
			c0.8-0.8,1.5-1.7,2-2.7c0.3-0.5,0.6-1,0.7-1.5c0.2-0.6,0.2-1.2,0.2-1.8c0-0.3,0-0.6,0-0.8c0-0.3,0.3-0.6,0.3-1
			c0.1-0.4,0-0.8,0.2-1.2c-0.5,0.2-0.9,0.6-1.2,0.9C24.2,25.2,24.1,25.2,24.1,25.3L24.1,25.3z"/>
		<path id="Path_1_" class="st0" d="M25.2,35.7c-0.1,0.7-0.4,1.3-0.7,1.9c-0.2,0.3-0.4,0.6-0.7,0.9c-0.3,0.3-0.7,0.6-1,0.8
			c-0.3,0.2-0.5,0.3-0.8,0.4c-0.2,0.1-0.4,0.2-0.6,0.3c0.1-0.2,0.1-0.5,0.1-0.7c0-0.3,0.1-0.6,0.2-1c0.1-0.6,0.2-1.1,0.5-1.6
			c0.2-0.5,0.5-1,0.7-1.5c0.3-0.5,0.7-0.9,1.1-1.3c0.3-0.3,0.6-0.6,1-0.8c0.3-0.2,0.6-0.4,0.8-0.7c-0.3,0.4-0.2,1.2-0.2,1.7
			C25.4,34.6,25.3,35.2,25.2,35.7L25.2,35.7z"/>
		<path id="Path_2_" class="st0" d="M11.8,56c0.2-1.1,0.6-2.2,0.5-3.3c-0.1-1.3-0.9-2.3-1.1-3.6c-0.1-0.4-0.1-0.7,0.1-1.1
			c-0.2,0.2-0.4,0.3-0.6,0.6c-0.2,0.2-0.3,0.5-0.5,0.8c-0.2,0.5-0.3,1-0.4,1.5C9.6,52,9.6,53.4,10,54.4C10.3,55.1,10.9,56.1,11.8,56
			c0-0.2,0.1-0.4,0.1-0.6"/>
		<path id="Path_3_" class="st0" d="M6.3,59.3c0.2,0.6,0.5,1.1,0.9,1.5c0.1,0.1,0.2,0.2,0.3,0.4c0.1-0.1,0-0.3,0.1-0.5
			c0.1-0.3,0.3-0.6,0.6-0.8c0.3-0.5,0.5-1.1,0.6-1.7c0.1-0.7,0-1.3-0.1-2c-0.2-0.6-0.4-1.2-0.7-1.8c-0.2-0.5-0.3-0.9-0.4-1.4
			c-0.1,0.5-0.4,0.9-0.6,1.3c-0.2,0.5-0.4,1-0.6,1.5C6,57,5.9,58.2,6.3,59.3L6.3,59.3z"/>
		<path id="Path_4_" class="st0" d="M15.4,11.8c-0.3,0.1-0.4-0.7-0.5-0.9c-0.3-0.5-0.7-0.8-0.9-1.2c-0.5-0.9-0.8-1.8-0.9-2.8
			C13,6.4,13,5.9,13,5.4C13,5,13,4.3,13.4,4c0.3-0.3,0.6,0.5,0.7,0.8c0.2,0.5,0.4,0.9,0.6,1.4C15,6.6,15.3,7,15.5,7.5
			c0.2,0.5,0.4,1,0.5,1.6c0.1,0.5,0.1,1,0,1.5C15.9,10.9,15.8,11.7,15.4,11.8L15.4,11.8z"/>
		<path id="Path_5_" class="st0" d="M19.8,17.6c-0.2,0.3-0.4,0.8-0.7,0.9c-0.5,0.2-0.9-0.5-1.1-0.9c-0.3-0.6-0.4-1.2-0.5-1.9
			c-0.1-0.6,0-1.1,0-1.7c0-0.6,0.1-1.2,0.2-1.8c0.1-0.6,0.3-1.2,0.5-1.8c0.1-0.2,0.2-0.5,0.2-0.7c0.1-0.2,0-0.4,0.2-0.6
			c0.3,0.4,0.4,1,0.6,1.4c0.3,0.5,0.5,1,0.7,1.6c0.3,1.2,0.6,2.4,0.3,3.7C20.2,16.5,20.1,17.1,19.8,17.6L19.8,17.6z"/>
		<path id="Path_6_" class="st0" d="M7,7.2c0.4,0,1,0.2,1.4,0.4C9,7.8,9.7,8,10.3,8.3c0.5,0.3,1,0.6,1.4,1c0.4,0.4,0.8,1,1,1.5
			c-0.4,0.1-0.8,0-1.2,0c-0.4,0-0.8-0.1-1.2-0.3c-0.5-0.2-1-0.6-1.4-1C8.3,8.9,7.6,8.1,7,7.2z"/>
		<path id="Path_7_" class="st0" d="M13.5,13.7c1,0.7,1.8,1.7,2.2,2.9c-0.3,0.2-0.7,0.3-1.1,0.3c-1.1,0-2.1-0.8-2.7-1.7
			c-0.3-0.5-0.6-1.1-0.9-1.6c-0.2-0.5-0.4-1-0.6-1.5c0.5,0.2,1,0.5,1.5,0.7C12.4,13.1,12.9,13.4,13.5,13.7L13.5,13.7z"/>
		<path id="Path_8_" class="st0" d="M22.9,21.9c-0.2,0.8-0.5,1.7-0.9,2.4c-0.3,0.5-0.7,1-1.1,1.4c0-0.4-0.2-0.9-0.3-1.2
			c0-0.2-0.1-0.5-0.1-0.7c0-0.3,0-0.6,0-1c-0.1-1.1,0.1-2.1,0.4-3.1c0.2-0.6,0.5-1.1,0.8-1.6c0.2-0.3,0.3-0.6,0.5-0.9
			c0.1-0.1,0.5-0.6,0.6-0.7c0.2,0,0.2,0.6,0.2,0.7c0.1,0.7,0.1,1.3,0.1,2C23.2,20.1,23.1,21,22.9,21.9L22.9,21.9z"/>
		<path id="Path_9_" class="st0" d="M16.3,34.3c-0.1-0.6-0.1-1.1-0.1-1.7c0-0.5,0-1.1,0.1-1.5c0.1,0.2,0.1,0.3,0.2,0.5
			c0.3,0.6,0.9,1,1.4,1.5c0.4,0.4,0.8,0.9,1,1.5c0.2,0.5,0.4,1.1,0.4,1.7c0.1,0.5,0.1,1.1,0.1,1.6c-0.5,0-1-0.6-1.4-0.9
			C17.1,36.4,16.5,35.4,16.3,34.3L16.3,34.3z"/>
		<path id="Path_10_" class="st0" d="M15.5,49.7c-0.2,0.6-0.6,0.5-1,0.2c-0.3-0.2-0.6-0.6-0.6-1c-0.1-0.5-0.1-1-0.1-1.4
			c0-0.5,0-1.1,0-1.7c0-0.5,0.1-1.1,0.2-1.6c0-0.5,0-1.1,0.1-1.5c0.1,0.3,0.3,0.5,0.5,0.7c0.2,0.3,0.5,0.7,0.7,1.1
			c0.6,0.9,0.9,2,0.9,3.1c0,0.5,0,1-0.2,1.6C15.7,49.2,15.6,49.4,15.5,49.7L15.5,49.7z"/>
		<path id="Path_11_" class="st0" d="M11.9,62.7c1.4-0.1,2.9,0,4.3-0.1c-0.3,0.2-0.4,0.5-0.7,0.7c-0.3,0.2-0.7,0.5-1,0.7
			c-0.6,0.4-1.3,0.8-2,1c-0.6,0.2-1.3,0.3-1.9,0.3c-0.5,0-1.2-0.2-1.6-0.6c-0.2-0.3-0.2-0.8,0.1-1.1C9.7,62.7,10.9,62.7,11.9,62.7
			L11.9,62.7z"/>
		<path id="Path_12_" class="st0" d="M17.8,44.3c-0.4-0.3-1-0.5-1.3-0.9c-0.8-0.9-1.2-2-1.3-3.2c-0.1-0.6,0-1.2,0.1-1.7
			c0-0.5,0-1.1,0.1-1.5c0.3,0.5,0.7,0.9,1.1,1.3c0.5,0.5,1,1,1.4,1.6c0.5,1,0.7,2.1,0.5,3.2C18.2,43.4,18.1,43.9,17.8,44.3z"/>
		<path id="Path_13_" class="st0" d="M21.4,46.3c-0.5,0.4-1.1,0.5-1.7,0.8c0.1-0.8,0.3-1.6,0.7-2.2c0.3-0.5,0.6-1.1,0.9-1.6
			c0.3-0.6,0.8-1.1,1.3-1.6c0.5-0.4,1-0.7,1.4-1.1c0.3-0.3,0.7-0.5,1.1-0.6c-0.1,0.3-0.3,0.7-0.4,1c-0.1,0.4-0.2,0.7-0.4,1.1
			c-0.4,1.1-0.8,2.1-1.6,3C22.4,45.6,21.9,46,21.4,46.3L21.4,46.3z"/>
		<path id="Path_14_" class="st0" d="M19.8,37c0-2.3-0.1-4.7-0.4-7c-0.8,0.4-2.1,0-2.7-0.6c-0.4-0.5-0.7-1-0.9-1.6
			c-0.2-0.5-0.3-1.1-0.4-1.7c-0.1-0.4-0.4-1.1-0.1-1.5c0.3,0.2,0.6,0.5,0.8,0.8c0.4,0.3,0.8,0.6,1.1,1c0.4,0.3,0.8,0.6,1.1,1
			c0.2,0.2,0.5,0.4,0.7,0.6c-0.2-1.5-0.5-2.8-0.8-4.2c-0.1,0-0.2,0-0.2,0c-1.3-0.2-2.5-1.1-3.3-2.2c-0.4-0.5-0.8-1.1-1.1-1.8
			c-0.1-0.3-0.2-0.5-0.2-0.8c-0.1-0.2-0.2-0.6-0.2-0.8c0.4,0.2,0.8,0.4,1.2,0.6c0.6,0.3,1.1,0.6,1.6,1c0.4,0.3,0.8,0.6,1.1,0.9
			c0.1,0.1,0.3,0.2,0.4,0.3C15.4,13.5,12.2,8.7,10.9,7c-0.1,0-0.9-0.7-1-0.8C9.3,5.7,8.6,5.4,8,5.1C7.5,4.8,7,4.5,6.6,4.1
			C6.2,3.7,6,3.3,5.6,2.9C5,2.1,4.6,1.1,4.2,0.2C4.9,0.6,5.6,1,6.4,1.3c0.7,0.3,1.4,0.6,2.1,1c0.6,0.4,1.2,0.9,1.7,1.4
			c0.4,0.4,0.7,1,0.9,1.5c0.1,0.3,0.4,0.9,0.4,1c1.4,1.9,9.4,13.7,9.4,30.4c0,4.9-1.1,9.7-3.3,14.1c0.6-0.7,1.6-1.2,2.5-1.4
			c0.5-0.2,1-0.2,1.4-0.4c0.5-0.1,1-0.3,1.6-0.4c-0.2,0-0.4,0.3-0.5,0.5c-0.2,0.3-0.5,0.6-0.7,0.9c-0.6,0.9-1,1.9-1.7,2.7
			c-0.4,0.5-0.9,0.9-1.5,1.1c-0.4,0.2-1.1,0.3-1.5,0.1c-0.5-0.3-0.5-0.8-0.4-1.4c-0.9,1.6-1.8,3.2-2.9,4.6c0.4-0.2,0.9-0.4,1.4-0.5
			c0.8-0.1,1.6-0.2,2.4-0.2c0.8-0.1,1.5-0.2,2.3-0.3c-0.7,0.6-1.3,1.3-1.9,2c-0.4,0.4-0.8,0.7-1.3,1c-0.4,0.3-0.9,0.6-1.4,0.8
			c-0.5,0.2-1.4,0.3-1.9,0.1c-0.4-0.2-0.7-0.9-0.6-1.3c0,0,0,0,0-0.1C7,65.8,0.3,69.8,0.3,69.8v-2.6C0.3,67.2,19.8,55.2,19.8,37
			L19.8,37z"/>
	</g>
	<g id="Group-13">
		<path id="Path_15_" class="st0" d="M5.9,37c0-2.3,0.1-4.7,0.4-7c0.8,0.4,2.1,0,2.7-0.6c0.4-0.5,0.7-1,0.9-1.6
			c0.2-0.5,0.3-1.1,0.4-1.7c0.1-0.4,0.4-1.1,0.1-1.5c-0.3,0.2-0.6,0.5-0.8,0.8c-0.4,0.3-0.8,0.6-1.1,1c-0.4,0.3-0.8,0.6-1.1,1
			c-0.2,0.2-0.5,0.4-0.7,0.6c0.2-1.5,0.5-2.8,0.8-4.2c0.1,0,0.2,0,0.2,0c1.3-0.2,2.5-1.1,3.3-2.2c0.4-0.5,0.8-1.1,1.1-1.8
			c0.1-0.3,0.2-0.5,0.2-0.8c0.1-0.2,0.2-0.6,0.2-0.8c-0.4,0.2-0.8,0.4-1.2,0.6c-0.6,0.3-1.1,0.6-1.6,1c-0.4,0.3-0.8,0.6-1.1,0.9
			c-0.1,0.1-0.3,0.2-0.4,0.3c2.2-7.6,5.4-12.4,6.7-14.1c0.1,0,0.9-0.7,1-0.8c0.6-0.4,1.3-0.7,1.9-1.1c0.5-0.2,1-0.6,1.4-0.9
			c0.4-0.4,0.6-0.9,1-1.3c0.7-0.8,1.1-1.8,1.4-2.7c-0.7,0.5-1.4,0.9-2.2,1.2c-0.7,0.3-1.4,0.6-2.1,1c-0.6,0.4-1.2,0.9-1.7,1.4
			c-0.4,0.4-0.7,1-0.9,1.5c-0.1,0.3-0.4,0.9-0.4,1c-1.4,1.9-9.4,13.7-9.4,30.4c0,4.9,1.1,9.7,3.3,14.1c-0.6-0.7-1.6-1.2-2.5-1.4
			c-0.5-0.2-1-0.2-1.4-0.4c-0.5-0.1-1-0.3-1.6-0.4c0.2,0,0.4,0.3,0.5,0.5c0.2,0.3,0.5,0.6,0.7,0.9c0.6,0.9,1,1.9,1.7,2.7
			c0.4,0.5,0.9,0.9,1.5,1.1c0.4,0.2,1.1,0.3,1.5,0.1C9.1,53.5,9.1,53,9,52.4c0.9,1.6,1.8,3.2,2.9,4.6c-0.4-0.2-0.9-0.4-1.4-0.5
			c-0.8-0.1-1.6-0.2-2.4-0.2c-0.8-0.1-1.5-0.2-2.3-0.3c0.7,0.6,1.3,1.3,1.9,2c0.4,0.4,0.8,0.7,1.3,1c0.4,0.3,0.9,0.6,1.4,0.8
			c0.5,0.2,1.4,0.3,1.9,0.1c0.4-0.2,0.7-0.9,0.6-1.3c0,0,0,0,0-0.1c5.7,7.3,12.4,11.4,12.4,11.4v-2.6C25.4,67.2,5.9,55.2,5.9,37z"/>
		<path id="Path_16_" class="st0" d="M7.9,44.3c0.5-0.3,1-0.5,1.3-0.9c0.8-0.9,1.2-2,1.3-3.2c0.1-0.6,0-1.2-0.1-1.7
			c0-0.5,0-1.1-0.1-1.5c-0.3,0.5-0.7,0.9-1.1,1.3c-0.5,0.5-1,1-1.4,1.6c-0.3,0.5-0.4,1-0.5,1.5c-0.1,0.5-0.1,1.1,0,1.6
			C7.5,43.4,7.7,43.9,7.9,44.3z"/>
		<path id="Path_17_" class="st0" d="M13.9,56c-0.2-1.1-0.6-2.2-0.5-3.3c0.1-1.3,0.9-2.3,1.1-3.6c0.1-0.4,0.1-0.7-0.1-1.1
			c0.2,0.2,0.4,0.3,0.6,0.6c0.2,0.2,0.3,0.5,0.5,0.8c0.2,0.5,0.3,1,0.4,1.5c0.2,1.1,0.2,2.4-0.2,3.4C15.4,55.1,14.8,56.1,13.9,56
			c0-0.2-0.1-0.4-0.1-0.6"/>
		<path id="Path_18_" class="st0" d="M1.7,25.3c0.6,0.6,1,1.3,1.4,2c0.4,0.8,0.6,1.7,0.6,2.6c0.1,1.1-0.1,2.2,0,3.3
			c-0.8-0.8-1.5-1.7-2-2.7c-0.3-0.5-0.6-1-0.7-1.5c-0.2-0.6-0.2-1.2-0.2-1.8c0-0.3,0-0.6,0-0.8c0-0.3-0.3-0.6-0.3-1
			c-0.1-0.4,0-0.8-0.2-1.2c0.5,0.2,0.9,0.6,1.2,0.9C1.5,25.2,1.6,25.2,1.7,25.3z"/>
		<path id="Path_19_" class="st0" d="M10.3,11.8c0.3,0.1,0.4-0.7,0.5-0.9c0.3-0.5,0.7-0.8,0.9-1.2c0.5-0.9,0.8-1.8,0.9-2.8
			c0.1-0.5,0.1-1,0.1-1.4c0-0.4,0-1.1-0.3-1.4c-0.3-0.3-0.6,0.5-0.7,0.8c-0.2,0.5-0.4,0.9-0.6,1.4c-0.3,0.4-0.6,0.9-0.8,1.3
			C10,8,9.8,8.5,9.7,9.1c-0.1,0.5-0.1,1,0,1.5C9.8,10.9,10,11.7,10.3,11.8z"/>
		<path id="Path_20_" class="st0" d="M0.5,35.7c0.1,0.7,0.4,1.3,0.7,1.9c0.2,0.3,0.4,0.6,0.7,0.9c0.3,0.3,0.7,0.6,1,0.8
			c0.3,0.2,0.5,0.3,0.8,0.4C4,39.9,4.2,40,4.4,40.1c-0.1-0.2-0.1-0.5-0.1-0.7c0-0.3-0.1-0.6-0.2-1c-0.1-0.6-0.2-1.1-0.4-1.6
			c-0.2-0.5-0.5-1-0.7-1.5c-0.3-0.5-0.7-0.9-1.1-1.3c-0.3-0.3-0.6-0.6-1-0.8c-0.3-0.2-0.6-0.4-0.8-0.7c0.3,0.4,0.2,1.2,0.2,1.7
			C0.3,34.6,0.4,35.2,0.5,35.7z"/>
		<path id="Path_21_" class="st0" d="M18.8,7.2c-0.4,0-1,0.2-1.4,0.4c-0.7,0.2-1.3,0.4-2,0.7c-0.5,0.3-1,0.6-1.4,1
			c-0.4,0.4-0.8,1-1,1.5c0.4,0.1,0.8,0,1.2,0c0.4,0,0.8-0.1,1.2-0.3c0.5-0.2,1-0.6,1.4-1C17.5,8.9,18.1,8.1,18.8,7.2z"/>
		<path id="Path_22_" class="st0" d="M12.3,13.7c-1,0.7-1.8,1.7-2.2,2.9c0.3,0.2,0.7,0.3,1.1,0.3c1.1,0,2.1-0.8,2.7-1.7
			c0.3-0.5,0.6-1.1,0.9-1.6c0.2-0.5,0.5-1,0.6-1.5c-0.5,0.2-1,0.5-1.5,0.7C13.4,13.1,12.8,13.4,12.3,13.7z"/>
		<path id="Path_23_" class="st0" d="M5.9,17.6c0.2,0.3,0.4,0.8,0.7,0.9c0.5,0.2,0.9-0.5,1.1-0.9c0.3-0.6,0.4-1.2,0.5-1.9
			c0.1-0.6,0-1.1,0-1.7c0-0.6-0.1-1.2-0.2-1.8c-0.1-0.6-0.3-1.2-0.5-1.8c-0.1-0.2-0.2-0.5-0.2-0.7C7.1,9.6,7.1,9.4,7,9.2
			c-0.3,0.4-0.4,1-0.6,1.4c-0.3,0.5-0.5,1-0.7,1.6c-0.3,1.2-0.6,2.4-0.3,3.7C5.5,16.5,5.6,17.1,5.9,17.6z"/>
		<path id="Path_24_" class="st0" d="M2.8,21.9c0.2,0.9,0.5,1.7,0.9,2.4c0.3,0.5,0.7,1,1.1,1.4c0-0.4,0.2-0.9,0.3-1.2
			c0-0.2,0.1-0.5,0.1-0.7c0-0.3,0-0.6,0-1c0.1-1.1-0.1-2.1-0.4-3.1c-0.2-0.6-0.5-1.1-0.8-1.6c-0.2-0.3-0.3-0.6-0.5-0.9
			C3.4,17,3,16.5,2.8,16.5c-0.2,0-0.2,0.6-0.2,0.7c-0.1,0.7-0.1,1.3-0.1,2C2.5,20.1,2.6,21,2.8,21.9z"/>
		<path id="Path_25_" class="st0" d="M9.4,34.3c0.1-0.6,0.1-1.1,0.1-1.7c0-0.5,0-1.1-0.1-1.5c-0.1,0.2-0.1,0.3-0.2,0.5
			c-0.3,0.6-0.9,1-1.4,1.5c-0.4,0.4-0.8,0.9-1,1.5c-0.2,0.5-0.4,1.1-0.4,1.7c-0.1,0.5-0.1,1.1-0.1,1.6c0.5,0,1-0.6,1.4-0.9
			C8.6,36.4,9.2,35.4,9.4,34.3z"/>
		<path id="Path_26_" class="st0" d="M4.3,46.3c0.5,0.4,1.1,0.5,1.7,0.8c-0.1-0.8-0.3-1.6-0.7-2.2c-0.3-0.5-0.6-1.1-0.9-1.6
			c-0.3-0.6-0.8-1.1-1.3-1.6c-0.5-0.4-1-0.7-1.4-1.1c-0.3-0.3-0.7-0.5-1.1-0.6c0.1,0.3,0.3,0.7,0.4,1c0.1,0.4,0.2,0.7,0.4,1.1
			c0.4,1.1,0.8,2.1,1.6,3C3.3,45.6,3.8,46,4.3,46.3z"/>
		<path id="Path_27_" class="st0" d="M10.2,49.7c0.2,0.6,0.6,0.5,1,0.2c0.3-0.2,0.6-0.6,0.6-1c0.1-0.5,0.1-1,0.1-1.4
			c0-0.5,0-1.1,0-1.7c0-0.5-0.1-1.1-0.1-1.6c0-0.5,0-1.1-0.1-1.5c-0.1,0.3-0.3,0.5-0.5,0.7c-0.2,0.3-0.5,0.7-0.7,1.1
			c-0.6,0.9-0.9,2-0.9,3.1c0,0.5,0,1,0.2,1.6C10,49.3,10.1,49.4,10.2,49.7z"/>
		<path id="Path_28_" class="st0" d="M13.8,62.7c-1.4-0.1-2.9,0-4.3-0.1c0.3,0.2,0.4,0.5,0.7,0.7c0.3,0.2,0.7,0.5,1,0.7
			c0.6,0.4,1.3,0.8,2,1c0.6,0.2,1.3,0.3,1.9,0.3c0.5,0,1.3-0.2,1.6-0.6c0.2-0.3,0.2-0.8-0.1-1.1C16.1,62.8,14.8,62.7,13.8,62.7z"/>
		<path id="Path_29_" class="st0" d="M20.3,59.8c-0.2,0.6-0.5,1.1-0.9,1.5c-0.1,0.1-0.2,0.2-0.2,0.4c-0.1-0.1,0-0.3-0.1-0.5
			c-0.1-0.3-0.3-0.6-0.6-0.8c-0.3-0.5-0.5-1.1-0.6-1.7c-0.1-0.7,0-1.3,0.1-2c0.2-0.6,0.4-1.2,0.7-1.8c0.2-0.5,0.3-0.9,0.4-1.4
			c0.1,0.5,0.4,0.9,0.6,1.3c0.2,0.5,0.4,1,0.6,1.5C20.6,57.5,20.7,58.7,20.3,59.8z"/>
	</g>
</g>
<g>
	<path class="st1" d="M58.4,58.5c1.6-1.4,3.3-2.6,3.3-3.9c0-0.6-0.3-1.1-1-1.1c-0.7,0-1,0.5-1,1.2h-1.3c0-1.6,1.1-2.4,2.4-2.4
		c1.5,0,2.3,0.9,2.3,2.2c0,1.7-1.6,2.9-2.7,3.9h2.9v1.1h-4.8V58.5z"/>
	<path class="st1" d="M66.7,52.4c2,0,2.6,1.5,2.6,3.6c0,2.1-0.6,3.6-2.6,3.6c-2,0-2.6-1.6-2.6-3.6C64.1,53.9,64.7,52.4,66.7,52.4z
		 M66.7,53.7c-1.2,0-1.3,1.1-1.3,2.3c0,1.3,0.1,2.4,1.3,2.4c1.2,0,1.3-1.1,1.3-2.4C68,54.8,67.9,53.7,66.7,53.7z"/>
	<path class="st1" d="M71.2,53.8h-1v-1.3h2.4v7.1h-1.4V53.8z"/>
	<path class="st1" d="M75.6,57.7c0.1,0.6,0.5,0.9,1.1,0.9c0.8,0,1.2-0.6,1.2-2.2c-0.3,0.4-0.9,0.7-1.5,0.7c-1.2,0-2.2-0.8-2.2-2.3
		c0-1.4,0.9-2.4,2.4-2.4c1.9,0,2.5,1.3,2.5,3.6c0,2.4-0.5,3.7-2.4,3.7c-1.5,0-2.2-1-2.3-2H75.6z M77.7,54.7c0-0.8-0.5-1.2-1.1-1.2
		c-0.7,0-1.1,0.5-1.1,1.2c0,0.6,0.4,1.2,1.2,1.2C77.3,55.9,77.7,55.4,77.7,54.7z"/>
</g>
<g>
	<path class="st1" d="M32.4,29.1h-3v-7h2.9c1.5,0,2.3,0.8,2.3,1.8c0,0.8-0.5,1.4-1.2,1.6c0.8,0.1,1.3,0.9,1.3,1.7
		C34.7,28.3,33.9,29.1,32.4,29.1z M32.1,23.3h-1.3V25h1.3c0.7,0,1-0.3,1-0.9C33.1,23.6,32.8,23.3,32.1,23.3z M32.2,26.1h-1.4V28h1.4
		c0.7,0,1.1-0.3,1.1-0.9C33.3,26.5,32.9,26.1,32.2,26.1z"/>
	<path class="st1" d="M39.9,23.3h-2.6V25h2.3v1.1h-2.3V28h2.6v1.1h-4v-7h4V23.3z"/>
	<path class="st1" d="M43.6,29.2c-1.4,0-2.6-0.8-2.6-2.1h1.5c0,0.6,0.4,0.9,1.1,0.9c0.7,0,1-0.3,1-0.8c0-1.5-3.6-0.6-3.6-3.1
		c0-1.3,1-2,2.5-2c1.4,0,2.4,0.7,2.5,2h-1.5c0-0.5-0.4-0.8-1-0.8c-0.5,0-1,0.3-1,0.8c0,1.4,3.6,0.6,3.6,3.1
		C46.1,28.2,45.2,29.2,43.6,29.2z"/>
	<path class="st1" d="M46.9,22.1H52v1.1h-1.9v5.8h-1.4v-5.8h-1.9V22.1z"/>
	<path class="st1" d="M61.9,24.2h-1.6c-0.3-0.6-0.9-0.9-1.6-0.9c-1.2,0-2.1,0.9-2.1,2.3c0,1.4,0.9,2.3,2.2,2.3c1.1,0,1.8-0.6,2-1.6
		h-2.4v-1.1h3.8v1.2c-0.3,1.4-1.5,2.7-3.4,2.7c-2,0-3.6-1.5-3.6-3.6s1.5-3.6,3.6-3.6C60.2,22.1,61.4,22.8,61.9,24.2z"/>
	<path class="st1" d="M63.1,22.1h1.4v4.3c0,1,0.5,1.5,1.4,1.5c0.9,0,1.4-0.5,1.4-1.5v-4.3h1.4v4.3c0,1.8-1.3,2.7-2.8,2.7
		s-2.8-0.9-2.8-2.7V22.1z"/>
	<path class="st1" d="M70.1,22.1h1.4v7h-1.4V22.1z"/>
	<path class="st1" d="M76.9,23.3h-2.6V25h2.3v1.1h-2.3V28h2.6v1.1h-4v-7h4V23.3z"/>
	<path class="st1" d="M84.3,25.6c0,2.1-1.4,3.5-3.7,3.5h-2.4v-7h2.4C82.8,22.1,84.3,23.5,84.3,25.6z M80.6,27.9
		c1.5,0,2.3-0.8,2.3-2.3s-0.8-2.3-2.3-2.3h-1v4.6H80.6z"/>
	<path class="st1" d="M87.7,29.2c-1.4,0-2.6-0.8-2.6-2.1h1.5c0,0.6,0.4,0.9,1.1,0.9c0.7,0,1-0.3,1-0.8c0-1.5-3.6-0.6-3.6-3.1
		c0-1.3,1-2,2.5-2c1.4,0,2.4,0.7,2.5,2h-1.5c0-0.5-0.4-0.8-1-0.8c-0.5,0-1,0.3-1,0.8c0,1.4,3.6,0.6,3.6,3.1
		C90.2,28.2,89.3,29.2,87.7,29.2z"/>
	<path class="st1" d="M97,29.2c-2,0-3.6-1.5-3.6-3.6c0-2.1,1.6-3.6,3.6-3.6c2,0,3.6,1.5,3.6,3.6C100.6,27.7,99,29.2,97,29.2z
		 M97,27.9c1.3,0,2.1-0.9,2.1-2.3c0-1.4-0.9-2.3-2.1-2.3c-1.3,0-2.1,0.9-2.1,2.3C94.9,27,95.8,27.9,97,27.9z"/>
	<path class="st1" d="M101.7,22.1h4.3v1.1h-2.9v1.8h2.2v1.1h-2.2v2.9h-1.4V22.1z"/>
	<path class="st1" d="M44.9,36.2H50v1.1h-1.9v5.8h-1.4v-5.8h-1.9V36.2z"/>
	<path class="st1" d="M55.4,40.2h-3v3H51v-7h1.4V39h3v-2.9h1.4v7h-1.4V40.2z"/>
	<path class="st1" d="M62.2,37.3h-2.6V39h2.3v1.1h-2.3V42h2.6v1.1h-4v-7h4V37.3z"/>
	<path class="st1" d="M65.3,36.2h1.6l1.5,3.2l1.5-3.2h1.6l-2.4,4.5v2.4h-1.4v-2.4L65.3,36.2z"/>
	<path class="st1" d="M76.3,37.3h-2.6V39H76v1.1h-2.3V42h2.6v1.1h-4v-7h4V37.3z"/>
	<path class="st1" d="M81.8,41.8h-2.8l-0.5,1.3h-1.5l2.5-7h1.6l2.5,7h-1.5L81.8,41.8z M80.5,37.8l-1,2.9h2L80.5,37.8z"/>
	<path class="st1" d="M87.3,36.2c1.7,0,2.5,1,2.5,2.1c0,0.8-0.5,1.7-1.6,2l1.7,2.8h-1.6l-1.5-2.7h-0.7v2.7h-1.4v-7H87.3z M87.3,37.3
		h-1.2v2h1.2c0.8,0,1.1-0.4,1.1-1C88.4,37.7,88.1,37.3,87.3,37.3z"/>
</g>
<path class="st1" d="M67.7,5.7l1.2,2.5C69,8.3,69,8.3,69.1,8.3l2.8,0.4C72,8.7,72.1,8.9,72,9l-2,2c-0.1,0.1-0.1,0.1-0.1,0.2l0.5,2.8
	c0.1,0.2-0.2,0.3-0.3,0.2l-2.5-1.2c-0.1,0-0.1,0-0.2,0l-2.5,1.3c-0.2,0.1-0.3-0.1-0.3-0.2l0.5-2.8c0-0.1,0-0.1-0.1-0.2L63,9
	c-0.1-0.1-0.1-0.3,0.1-0.3l2.8-0.4c0.1,0,0.1-0.1,0.2-0.1l1.2-2.6C67.4,5.5,67.6,5.5,67.7,5.7z"/>
<path class="st1" d="M78.5,7.3l0.8,1.6c0,0,0.1,0.1,0.1,0.1l1.7,0.2c0.1,0,0.1,0.1,0.1,0.2l-1.2,1.2c0,0,0,0.1,0,0.1l0.3,1.7
	c0,0.1-0.1,0.2-0.2,0.1l-1.6-0.8c0,0-0.1,0-0.1,0l-1.5,0.8c-0.1,0-0.2,0-0.2-0.1l0.3-1.7c0,0,0-0.1,0-0.1l-1.3-1.2
	c-0.1-0.1,0-0.2,0.1-0.2L77.4,9c0,0,0.1,0,0.1-0.1l0.8-1.6C78.4,7.2,78.5,7.2,78.5,7.3z"/>
<path class="st1" d="M56.5,7.3l0.8,1.6c0,0,0.1,0.1,0.1,0.1l1.7,0.2c0.1,0,0.1,0.1,0.1,0.2l-1.2,1.2c0,0,0,0.1,0,0.1l0.3,1.7
	c0,0.1-0.1,0.2-0.2,0.1l-1.6-0.8c0,0-0.1,0-0.1,0l-1.5,0.8c-0.1,0-0.2,0-0.2-0.1l0.3-1.7c0,0,0-0.1,0-0.1l-1.3-1.2
	c-0.1-0.1,0-0.2,0.1-0.2L55.4,9c0,0,0.1,0,0.1-0.1l0.8-1.6C56.4,7.2,56.5,7.2,56.5,7.3z"/>
</svg>
