<?xml version="1.0" encoding="utf-8"?>
<!-- Generator: Adobe Illustrator 24.0.1, SVG Export Plug-In . SVG Version: 6.00 Build 0)  -->
<svg version="1.1" id="Layer_1" xmlns="http://www.w3.org/2000/svg" xmlns:xlink="http://www.w3.org/1999/xlink" x="0px" y="0px"
	 viewBox="0 0 128 126" style="enable-background:new 0 0 128 126;" xml:space="preserve">
<style type="text/css">
	.st0{opacity:0.3;fill:#BDC5D1;}
	.st1{fill:#FFFFFF;}
	.st2{fill:#2684FF;}
	.st3{fill:url(#SVGID_1_);}
	.st4{fill:url(#SVGID_2_);}
	.st5{fill:#95BF47;}
	.st6{fill:#5E8E3E;}
	.st7{fill:url(#b_1_);}
	.st8{fill:url(#e_1_);}
	.st9{fill:url(#h_1_);}
	.st10{fill-rule:evenodd;clip-rule:evenodd;fill:#EA6C00;}
	.st11{fill-rule:evenodd;clip-rule:evenodd;fill:#FDAD00;}
	.st12{fill-rule:evenodd;clip-rule:evenodd;fill:#FDD231;}
	.st13{fill-rule:evenodd;clip-rule:evenodd;fill:#FEEEB7;}
</style>
<path class="st0" d="M75.3,67.8L33.2,50.3c-3-1.2-4.4-4.7-3.2-7.7l17.5-42c1.2-3,4.7-4.4,7.7-3.2l42.1,17.4c3,1.2,4.4,4.7,3.2,7.7
	L83,64.6C81.8,67.6,78.3,69,75.3,67.8z"/>
<path class="st1" d="M73.4,63.4L31.3,45.9c-3-1.2-4.4-4.7-3.2-7.7l17.5-42c1.2-3,4.7-4.4,7.7-3.2l42.1,17.4c3,1.2,4.4,4.7,3.2,7.7
	L81.1,60.2C79.9,63.2,76.4,64.6,73.4,63.4z"/>
<path class="st2" d="M81,20l-13.2-5.5c-1.4,3.3,0.2,7.1,3.5,8.4l2.4,1l-1,2.3c-1.4,3.3,0.2,7.1,3.5,8.4l5.4-13.1
	C81.9,21,81.6,20.2,81,20z"/>
<linearGradient id="SVGID_1_" gradientUnits="userSpaceOnUse" x1="-1162.4835" y1="423.0362" x2="-1162.4888" y2="423.0308" gradientTransform="matrix(1079.1891 447.1534 444.5365 -1072.8733 1066557.125 973696.75)">
	<stop  offset="0.18" style="stop-color:#0052CC"/>
	<stop  offset="1" style="stop-color:#2684FF"/>
</linearGradient>
<path class="st3" d="M71.7,23.8l-13.2-5.5c-1.4,3.3,0.2,7.1,3.5,8.4l2.4,1l-1,2.3c-1.4,3.3,0.2,7.1,3.5,8.4l5.4-13.1
	C72.7,24.8,72.4,24.1,71.7,23.8L71.7,23.8z"/>
<linearGradient id="SVGID_2_" gradientUnits="userSpaceOnUse" x1="-1162.0336" y1="423.4908" x2="-1162.0396" y2="423.485" gradientTransform="matrix(1079.1971 447.1567 444.5364 -1072.8732 1065869.875 973991.3125)">
	<stop  offset="0.18" style="stop-color:#0052CC"/>
	<stop  offset="1" style="stop-color:#2684FF"/>
</linearGradient>
<path class="st4" d="M62.5,27.7l-13.2-5.5c-1.4,3.3,0.2,7.1,3.5,8.4l2.4,1l-1,2.3c-1.4,3.3,0.2,7,3.5,8.4l5.4-13.1
	C63.4,28.7,63.1,28,62.5,27.7L62.5,27.7z"/>
<path class="st0" d="M48.2,134.7L6.1,117.3c-3-1.2-4.4-4.7-3.2-7.7l17.4-42.1c1.2-3,4.7-4.4,7.7-3.2l42.2,17.5
	c3,1.2,4.4,4.7,3.2,7.7L56,131.6C54.6,134.5,51.2,136,48.2,134.7z"/>
<path class="st1" d="M46,129.5L3.9,112.1c-3-1.2-4.4-4.7-3.2-7.7l17.4-42.1c1.2-3,4.7-4.4,7.7-3.2L68,76.6c3,1.2,4.4,4.7,3.2,7.7
	l-17.4,42.1C52.4,129.3,49,130.8,46,129.5z"/>
<path class="st5" d="M49.7,89.7c0.1-0.1-0.1-0.3-0.1-0.4c-0.1,0-2.2-1.1-2.2-1.1s-0.9-2.1-1-2.3c-0.1-0.2-0.5-0.3-0.6-0.3
	c0,0-0.4,0-0.9-0.1c0.1-1.6-0.2-3.3-1.8-3.9L43,81.5c-0.2-0.8-0.6-1.3-1.1-1.4c-3.6-1.5-7.1,2.3-8.6,4.4c-1.6-0.1-2.7-0.2-2.8-0.3
	c-0.8-0.1-0.9-0.1-1.3,0.6c-0.4,0.6-8.9,15.5-8.9,15.5l14.6,9.6l9.4,1.7C44.2,111.5,49.7,89.8,49.7,89.7z M44,85.4
	c-0.5,0-0.9-0.1-1.5-0.2l0.1-0.3c0.4-0.9,0.5-1.7,0.6-2.3C43.8,83.2,44,84.3,44,85.4z M42.1,82.5c0,0.6-0.2,1.5-0.6,2.5l-0.1,0.1
	c-0.9-0.1-2.1-0.2-3.1-0.3C39.6,83.1,41,82.5,42.1,82.5z M41.4,81c0.1,0.1,0.3,0.2,0.4,0.3c-1.4,0.1-3.2,0.9-4.8,3.4
	c-0.8-0.1-1.7-0.2-2.5-0.2C36,82.8,38.9,80,41.4,81z"/>
<path class="st6" d="M49.6,89.4c-0.1,0-2.2-1.1-2.2-1.1s-0.9-2.1-1-2.3c0-0.1-0.1-0.2-0.2-0.2l-11.4,24l9.4,1.7
	c0,0,5.4-21.7,5.5-21.8C49.8,89.5,49.7,89.4,49.6,89.4z"/>
<path class="st1" d="M39.4,90.7L37,93.4c0,0-0.7-0.9-1.9-1.4c-1.7-0.7-2.2,0.3-2.3,0.6c-0.6,1.4,2.9,3.5,1.5,6.9
	c-1.1,2.6-3.5,3.7-5.7,2.7c-2.7-1.1-3.4-3.4-3.4-3.4l1.7-2.1c0,0,0.9,1.8,2.1,2.3c0.8,0.3,1.4-0.2,1.5-0.6c0.8-1.9-2.3-3.3-1-6.4
	c1.1-2.6,4-4.3,7.7-2.8C38.9,90,39.4,90.7,39.4,90.7z"/>
<path class="st0" d="M124.4,137.8l-42.1-17.4c-3-1.2-4.4-4.7-3.2-7.7l17.4-42.1c1.2-3,4.7-4.4,7.7-3.2l42.1,17.4
	c3,1.2,4.4,4.7,3.2,7.7l-17.4,42.1C130.8,137.6,127.4,139,124.4,137.8z"/>
<path class="st1" d="M122.5,134l-42.1-17.4c-3-1.2-4.4-4.7-3.2-7.7l17.4-42.1c1.2-3,4.7-4.4,7.7-3.2L144.4,81c3,1.2,4.4,4.7,3.2,7.7
	l-17.4,42.1C128.9,133.8,125.5,135.2,122.5,134z"/>
<g>
	<g transform="translate(75 23)">
		<g>
			<path id="b_4_" d="M37.5,69.1l-12.4,2.5c-1.7,0.3-2.3,1.8-1.3,3.3l7,10.5c1,1.4,3.1,2.4,4.8,2L48,84.9c1.7-0.3,2.3-1.8,1.3-3.3
				l-7-10.5C41.4,69.6,39.2,68.7,37.5,69.1L37.5,69.1z"/>
		</g>
		<g>
			
				<linearGradient id="b_1_" gradientUnits="userSpaceOnUse" x1="-412.0885" y1="-42.4729" x2="-412.0885" y2="-42.4078" gradientTransform="matrix(402.5218 166.7817 -112.0828 270.508 161154.3281 80287.5078)">
				<stop  offset="0" style="stop-color:#5C24AE"/>
				<stop  offset="1" style="stop-color:#30135A"/>
			</linearGradient>
			<path id="b_3_" class="st7" d="M37.5,69.1l-12.4,2.5c-1.7,0.3-2.3,1.8-1.3,3.3l7,10.5c1,1.4,3.1,2.4,4.8,2L48,84.9
				c1.7-0.3,2.3-1.8,1.3-3.3l-7-10.5C41.4,69.6,39.2,68.7,37.5,69.1L37.5,69.1z"/>
		</g>
	</g>
	<g transform="translate(75 23)">
		<g>
			<path id="e_4_" d="M38.8,65.8l-12.4,2.5c-1.7,0.3-2.3,1.8-1.3,3.3l7,10.5c1,1.4,3.1,2.4,4.8,2l12.4-2.5c1.7-0.3,2.3-1.8,1.3-3.3
				l-7-10.5C42.7,66.3,40.5,65.4,38.8,65.8L38.8,65.8z"/>
		</g>
		<g>
			
				<linearGradient id="e_1_" gradientUnits="userSpaceOnUse" x1="-412.0887" y1="-42.3086" x2="-412.0887" y2="-42.2322" gradientTransform="matrix(402.5218 166.7817 -112.0828 270.5079 161175.3906 80236.7188)">
				<stop  offset="0" style="stop-color:#7331D4"/>
				<stop  offset="1" style="stop-color:#461B84"/>
			</linearGradient>
			<path id="e_3_" class="st8" d="M38.8,65.8l-12.4,2.5c-1.7,0.3-2.3,1.8-1.3,3.3l7,10.5c1,1.4,3.1,2.4,4.8,2l12.4-2.5
				c1.7-0.3,2.3-1.8,1.3-3.3l-7-10.5C42.7,66.3,40.5,65.4,38.8,65.8L38.8,65.8z"/>
		</g>
	</g>
	<g transform="translate(75 23)">
		<g>
			<path id="h_4_" d="M40.2,62.5L27.8,65c-1.7,0.3-2.3,1.8-1.3,3.3l7,10.5c1,1.4,3.1,2.4,4.8,2l12.4-2.5C52.4,78,53,76.5,52,75
				l-7-10.5C44.1,63,41.9,62.1,40.2,62.5L40.2,62.5z"/>
		</g>
		<g>
			
				<linearGradient id="h_1_" gradientUnits="userSpaceOnUse" x1="-412.0886" y1="-42.1217" x2="-412.0886" y2="-42.0566" gradientTransform="matrix(402.5218 166.7817 -112.0828 270.5079 161196.4375 80185.9063)">
				<stop  offset="0" style="stop-color:#905BDD"/>
				<stop  offset="1" style="stop-color:#5521A0"/>
			</linearGradient>
			<path id="h_3_" class="st9" d="M40.2,62.5L27.8,65c-1.7,0.3-2.3,1.8-1.3,3.3l7,10.5c1,1.4,3.1,2.4,4.8,2l12.4-2.5
				C52.4,78,53,76.5,52,75l-7-10.5C44.1,63,41.9,62.1,40.2,62.5L40.2,62.5z"/>
		</g>
	</g>
	<path class="st1" d="M114,99.1l-5.4-8.2l3.8-0.8c1.6-0.3,3.3,0.3,4.1,1.5c0.6,0.9,0.4,1.8-0.5,2.1l0,0c1.4-0.1,2.8,0.5,3.5,1.6
		c1,1.4,0.3,2.5-1.7,3L114,99.1L114,99.1z M112.1,94.2l1.9-0.4c1.4-0.3,1.9-0.9,1.3-1.8c-0.5-0.8-1.5-1.1-2.7-0.9l-2.3,0.5
		L112.1,94.2z M117,97.5c1.4-0.3,1.9-0.9,1.2-1.9c-0.6-0.9-1.7-1.3-3.3-1l-2.3,0.5l1.9,2.9L117,97.5L117,97.5z"/>
</g>
<path class="st0" d="M152.1,72.2L110,54.8c-3-1.2-4.4-4.7-3.2-7.7L124.2,5c1.2-3,4.7-4.4,7.7-3.2L174,19.2c3,1.2,4.4,4.7,3.2,7.7
	L159.8,69C158.5,72,155.1,73.4,152.1,72.2z"/>
<path class="st1" d="M149.9,67.8l-42.1-17.4c-3-1.2-4.4-4.7-3.2-7.7L122,0.6c1.2-3,4.7-4.4,7.7-3.2l42.1,17.4c3,1.2,4.4,4.7,3.2,7.7
	l-17.4,42.1C156.3,67.6,152.9,69,149.9,67.8z"/>
<path id="a" class="st10" d="M133.2,26l1.5,18.2L128,23.8L133.2,26z"/>
<path id="b" class="st10" d="M148.5,32.4l-13.9,11.8l19.1-9.7C153.7,34.5,148.5,32.4,148.5,32.4z"/>
<path id="c" class="st11" d="M133.2,26l15.3,6.4l-13.9,11.8L133.2,26z"/>
<path id="d" class="st12" d="M144.3,20.9l-7.6-2.2l-3.5,7.4L144.3,20.9z"/>
<path id="e" class="st12" d="M144.3,20.9l6.9,3.8l-2.7,7.7L144.3,20.9z"/>
<path id="f" class="st11" d="M153.7,34.5l-2.5-9.9l-2.7,7.7L153.7,34.5z"/>
<path id="g" class="st11" d="M128,23.8l8.8-5.2l-3.5,7.4L128,23.8z"/>
<path id="h" class="st13" d="M144.3,20.9L133.2,26l15.3,6.4L144.3,20.9z"/>
</svg>
