<?xml version="1.0" encoding="utf-8"?>
<!-- Generator: Adobe Illustrator 23.0.3, SVG Export Plug-In . SVG Version: 6.00 Build 0)  -->
<svg xmlns="http://www.w3.org/2000/svg" xmlns:xlink="http://www.w3.org/1999/xlink" x="0px" y="0px"
	 viewBox="0 0 501.8 402.8" style="enable-background:new 0 0 501.8 402.8;" xml:space="preserve">
<style type="text/css">
	.business-woman-0{fill:#E7EAF3;}
	.business-woman-1{fill:none;stroke:#FFC107;}
	.business-woman-2{fill:none;stroke:#1E2022;}
	.business-woman-3{fill:#1E2022;}
	.business-woman-4{fill:#FFFFFF;}
	.business-woman-5{fill:#377DFF;}
	.business-woman-6{fill:none;stroke:#377DFF;}
	.business-woman-7{fill:none;stroke:#00C9A7;}
</style>
<g id="Shadows">
	<path class="business-woman-0 fill-gray-300" d="M394.8,255.9c-3.9-5-11-40.4-1-58.7c-3,2.6-3.5,2.5-3.5,2.5l-1.2-0.5l-3.9-1.5l-4.7,5.5l-0.9,3.3l-1.1,6.9
		l-0.9,6.5l-0.9,6.3l-0.7,7l-0.2,7.4v5.5l1,2.5l4.6,2.7l6,1.7L394.8,255.9z"/>
	<path class="business-woman-0 fill-gray-300" d="M442.4,223.8c-0.3-2.2-0.5-13.9,10-24.7c-0.6-2.8-1.6-6.6-1.6-6.6l1.7-1.5l-0.3-2l-2.1-5.7l-2.9-5.4l-4.1-6
		l-3.1-3.5l-3.1-4.5l-2.6-1.4l1.4,2.2l3.5,10l1.6,12.1l-0.4,10.4l-0.8,10.8l-1.6,10l1.1,1.9L442.4,223.8z"/>
</g>
<path class="business-woman-0 fill-gray-300" d="M7,0.4h240c3.9,0,7,3.1,7,7v240c0,3.9-3.1,7-7,7H7c-3.9,0-7-3.1-7-7V7.4C0,3.5,3.1,0.4,7,0.4z"/>
<path class="business-woman-1 fill-none stroke-warning" stroke-width="3" stroke-linecap="round" stroke-linejoin="round" d="M158,63.6c1.2,0,5-11.2,12.7-11.2c6.8,0,3.4,23.4,17.4,23.4c11.2,0,14.2-15.3,18.5-15.3c2.3,0,2.1,1.7,4.4,1.7
	c5.5,0,6.3-22.2,14.2-22.2"/>
<polyline class="business-woman-1 fill-none stroke-warning" stroke-width="3" stroke-linecap="round" stroke-linejoin="round" points="158,28.5 158,99.3 234,99.3 "/>
<polyline class="business-woman-2 fill-none stroke-dark" stroke-width="1" stroke-linecap="round" stroke-linejoin="round" points="453.1,391.5 453.1,400.7 480.8,400.7 480.8,396.7 461.9,391 "/>
<polyline class="business-woman-2 fill-none stroke-dark" stroke-width="1" stroke-linecap="round" stroke-linejoin="round" points="336.5,388.3 336.5,394.1 339.5,397.3 346.7,397.3 349.4,401.5 330.9,401.5 323.9,390.2 328.4,384.1
	"/>
<path class="business-woman-3 fill-dark" d="M429.5,253c0,0,34.7,51.9,37.7,63.1s-4.4,75.5-4.4,75.5h-10.2c0,0-7.7-46.3-5.5-62.6c-7.7-4.7-41.2-26-44-37"/>
<path class="business-woman-3 fill-dark" d="M375.9,247.2l-8.2,74.1l-39.9,62.5l8.7,5.7l59-64.4c0,0,30.7-64.1,33.9-72C423.3,255.1,387,258.8,375.9,247.2z"
	/>
<path class="business-woman-4 fill-white" opacity=".05" d="M375.9,247.2l-8.2,74.1l-39.9,62.5l8.7,5.7l59-64.4c0,0,30.7-64.1,33.9-72C423.3,255.1,387,258.8,375.9,247.2z"
	/>
<rect x="294.1" y="279.1" class="business-woman-5 fill-primary" width="82" height="43.8"/>
<path class="business-woman-6 fill-none stroke-primary" stroke-width="6" stroke-miterlimit="10" d="M342.1,269.2c5.7,3.8,7.2,11.5,3.4,17.2c-3.8,5.7-11.5,7.2-17.2,3.4s-7.2-11.5-3.4-17.2c1.3-1.9,3-3.4,5.1-4.4"
	/>
<path class="business-woman-2 fill-none stroke-dark" stroke-width="1.15" stroke-miterlimit="10" d="M369.2,186.2c-4.8,5.2-19.2,20.5-23.5,29.6c-4.9,10.6-6.6,23.3-8.3,29.2c-2.2,7.6-7.9,16.5-7.9,21.3
	c0,2.6,3,6.7,5.2,6.7s7.6-0.4,8.8-8.2c1.9-12.3,9.9-31.9,13.2-36c2.8-3.4,21.6-23.4,28.5-31.1"/>
<path class="business-woman-2 fill-none stroke-dark" stroke-width="1.15" stroke-miterlimit="10" d="M432.1,160.2c9.7,6.3,22.6,28.8,19.8,31.4c-1.5,1.4-6.5,3.8-11.7,5.7"/>
<path class="business-woman-2 fill-none stroke-dark" stroke-width="1.15" stroke-linecap="round" stroke-miterlimit="10" d="M426.2,155.3c27.3,14.9,7.9,82.3,3.4,97.7c-8.7,3.9-50.2,2.4-53.6-5.9c-0.6-4.6,0.1-24,4.3-44"/>
<path class="business-woman-2 fill-none stroke-dark" stroke-width="1.15" stroke-miterlimit="10" d="M399.9,159.1c3.7-3.4,7.8-5.6,12.6-6.3"/>
<path class="business-woman-2 fill-none stroke-dark" stroke-width="1.15" stroke-linecap="round" stroke-linejoin="round" d="M420.6,150.2c0.5,0.1,1.1,0.2,1.7,0.2c7.4,0,13.5-9.4,13.5-21.1c0-2.2-0.2-4.4-0.7-6.6"/>
<path class="business-woman-2 fill-none stroke-dark" stroke-width="1.15" stroke-linecap="round" stroke-linejoin="round" d="M431.5,120.9c1-1,1.6-2.3,1.7-3.8c0.7,1.2,1.7,4.6,1.9,5.7c0.8-1,2.4-2.8,2.4-5.9c0-6.3-5-11.7-15.7-11.7
	c-4.6,0-15.6,3.7-20.2,3.7c-12.9,0-12.6-4.6-25.7-4.6c-6.9,0-14.6,4.5-23.4,8.3c-9.1,3.9-21.1,3.3-21.1,19.7
	c0,5.5,1.7,23.4,20.7,23.4c13.8,0,27.2-12.4,40-12.4c5.3,0,9.3,1.4,13.8,1.4c2.8,0,6-0.5,6.9-1.4v-7.8c0,0-0.6,0.5-2.8,0.5
	c-0.8,0-1.5-0.6-1.8-1.9"/>
<path class="business-woman-2 fill-none stroke-dark" stroke-width="1.15" stroke-miterlimit="10" d="M400.7,159.4c8.2,5-5.4,41.1-9.9,40.4c-4.6-0.7-22.5-11.3-22.5-15.8C368.2,179.6,392.1,154.2,400.7,159.4z"/>
<path class="business-woman-2 fill-none stroke-dark" stroke-width="1.15" stroke-miterlimit="10" d="M437.9,217.8c1.1,2.2,2.4,4.3,3.6,5.2c14.5,11.6,41.8,24.5,43.7,25.3c1.2,0.5,3.2,2,4.5,3.1
	c1,2.9,4.3,4.4,7.2,3.4c2.9-1,4.4-4.3,3.4-7.2c-0.8-2.2-2.8-3.6-5.1-3.7c-0.9-0.3-2.7-0.8-6.1-2.6s-30.3-23.8-35-26.3
	c0.1-7-2.2-18.8-3.3-22.5"/>
<path class="business-woman-5 fill-primary" d="M97.8,31.3c23,14.2,30.2,44.3,16,67.4c-14.2,23-44.3,30.2-67.4,16c-23-14.2-30.2-44.3-16-67.4
	C39.4,32.8,55.2,24,72.2,24v48.9L97.8,31.3z"/>
<polyline class="business-woman-7 fill-none stroke-success" stroke-width="3" stroke-linecap="round" stroke-linejoin="round" points="28.4,231.3 56.8,203 71.7,218 130.3,159.5 141.3,170.5 172.8,139.1 194.2,160.5 232.6,122.1 "/>
<path class="business-woman-2 fill-none stroke-dark" stroke-width="1.15" stroke-linecap="round" stroke-linejoin="round" d="M412.5,152.8v8.4c0,0.9,3.9,1.3,5.6,1.3"/>
<path class="business-woman-2 fill-none stroke-dark" stroke-width="1.15" stroke-linecap="round" stroke-linejoin="round" d="M412.5,143.3v9.5"/>
<line class="business-woman-2 fill-none stroke-dark" stroke-width="1.15" stroke-linecap="round" stroke-miterlimit="10" x1="426" y1="149.8" x2="426" y2="155.2"/>
<ellipse transform="matrix(0.1669 -0.986 0.986 0.1669 227.9099 526.6791)" class="business-woman-3 fill-dark" cx="425.6" cy="128.5" rx="1.3" ry="1.1"/>
<path class="business-woman-2 fill-none stroke-dark" stroke-width="1.15" stroke-linecap="round" stroke-linejoin="round" d="M425,138.8c0.4,1.1,1.3,1.9,2.4,2.2"/>
</svg>
