<?xml version="1.0" encoding="utf-8"?>
<!-- Generator: Adobe Illustrator 22.1.0, SVG Export Plug-In . SVG Version: 6.00 Build 0)  -->
<svg xmlns="http://www.w3.org/2000/svg" xmlns:xlink="http://www.w3.org/1999/xlink" x="0px" y="0px"
	 viewBox="0 0 149.5 116.1" style="enable-background:new 0 0 149.5 116.1;" xml:space="preserve">
<style type="text/css">
	.buyer-0{fill:#F8FAFD;}
	.buyer-1{fill:#19A0FF;}
	.buyer-2{fill:#FFFFFF;}
	.buyer-3{fill:none;stroke:#377DFF;}
</style>
<path class="buyer-0 fill-gray-200" d="M74.8,0.4C33.5,0.4,0,33.9,0,75.1c0,15,4.5,29,12.1,40.8h125.3c7.6-11.7,12.1-25.7,12.1-40.8
	C149.5,33.9,116,0.4,74.8,0.4z"/>
<g id="XMLID_by142_">
	<path id="XMLID_by198_" class="buyer-1 fill-primary-lighter" opacity=".15" d="M119.7,20.5L119.7,20.5c-0.6-1.7-2.2-3-4.1-3c-0.8,0-1.6,0.2-2.2,0.7
		c-0.4-2.7-2.7-4.8-5.6-4.8c-2.5,0-4.7,1.7-5.4,4c-0.3-0.1-0.7-0.1-1-0.1c-1.9,0-3.5,1.4-3.8,3.3H97c-1.6,0-2.9,1.3-2.9,2.9v0.2
		c0,1.6,1.3,2.9,2.9,2.9h22.7c1.6,0,2.9-1.3,2.9-2.9v-0.2C122.6,21.8,121.3,20.5,119.7,20.5z"/>
	<path id="XMLID_by192_" class="buyer-1 fill-primary-lighter" opacity=".15" d="M101,26.4h-4c-1.6,0-2.9-1.3-2.9-2.9v-0.2c0-1.6,1.3-2.9,2.9-2.9h0.6
		c0.3-1.8,1.9-3.3,3.8-3.3c0.3,0,0.7,0.1,1,0.1c0.7-2.3,2.9-4,5.4-4c2.8,0,5.1,2.1,5.6,4.8c0.6-0.4,1.4-0.7,2.2-0.7
		c1.9,0,3.5,1.3,4,3h0.1c1.6,0,2.9,1.3,2.9,2.9v0.2c0,1.6-1.3,2.9-2.9,2.9h-4.4H101V26.4z"/>
</g>
<g id="XMLID_by179_">
	<path id="XMLID_by181_" class="buyer-1 fill-primary-lighter" opacity=".15" d="M65.8,5.1L65.8,5.1C65.4,3.9,64.2,3,62.9,3c-0.6,0-1.1,0.2-1.6,0.5c-0.3-1.9-2-3.4-4-3.4
		c-1.8,0-3.3,1.2-3.8,2.8c-0.2-0.1-0.5-0.1-0.7-0.1c-1.4,0-2.5,1-2.7,2.3h-0.5c-1.1,0-2.1,0.9-2.1,2.1v0.2c0,1.1,0.9,2.1,2.1,2.1
		h16.2c1.1,0,2.1-0.9,2.1-2.1V7.1C67.9,6,67,5.1,65.8,5.1z"/>
	<path id="XMLID_by180_" class="buyer-1 fill-primary-lighter" opacity=".15" d="M52.5,9.3h-2.9c-1.1,0-2.1-0.9-2.1-2.1V7.1C47.5,6,48.4,5,49.6,5h0.5
		c0.2-1.3,1.3-2.3,2.7-2.3c0.2,0,0.5,0,0.7,0.1C54,1.2,55.5,0,57.4,0c2,0,3.7,1.5,4,3.4c0.5-0.3,1-0.5,1.6-0.5
		c1.3,0,2.5,0.9,2.8,2.1h0.1C67,5,68,5.9,68,7.1v0.2c0,1.1-0.9,2.1-2.1,2.1h-3.1L52.5,9.3L52.5,9.3z"/>
</g>
<g id="XMLID_by176_">
	<path id="XMLID_by178_" class="buyer-1 fill-primary-lighter" opacity=".15" d="M147.8,33.5L147.8,33.5c-0.3-0.8-1-1.3-1.8-1.3c-0.4,0-0.7,0.1-1,0.3
		c-0.2-1.2-1.2-2.2-2.5-2.2c-1.1,0-2.1,0.8-2.4,1.8c-0.1,0-0.3-0.1-0.5-0.1c-0.9,0-1.6,0.6-1.7,1.5h-0.3c-0.7,0-1.3,0.6-1.3,1.3v0.1
		c0,0.7,0.6,1.3,1.3,1.3h10.3c0.7,0,1.3-0.6,1.3-1.3v-0.1C149.1,34.1,148.5,33.5,147.8,33.5z"/>
	<path id="XMLID_by177_" class="buyer-1 fill-primary-lighter" opacity=".15" d="M139.3,36.3h-1.8c-0.7,0-1.3-0.6-1.3-1.3v-0.1c0-0.7,0.6-1.3,1.3-1.3h0.3
		c0.1-0.8,0.9-1.5,1.7-1.5c0.2,0,0.3,0,0.5,0.1c0.3-1,1.3-1.8,2.4-1.8c1.3,0,2.3,0.9,2.5,2.2c0.3-0.2,0.6-0.3,1-0.3
		c0.9,0,1.6,0.6,1.8,1.3h0.1c0.7,0,1.3,0.6,1.3,1.3V35c0,0.7-0.6,1.3-1.3,1.3h-2H139.3z"/>
</g>
<g id="XMLID_by399_">
	<rect id="XMLID_by654_" x="87.7" y="39.5" class="buyer-2 fill-white" width="27" height="75.4"/>
	<rect id="XMLID_by653_" x="87.7" y="39.5" class="buyer-2 fill-white" width="27" height="14.7"/>
	<polyline id="XMLID_by59_" class="buyer-3 fill-none stroke-primary" stroke-width="1.5" stroke-miterlimit="10" points="90,39.5 114.7,39.5 114.7,114.8 87.7,114.8 	"/>
	<g id="XMLID_by650_">
		<line id="XMLID_by651_" class="buyer-3 fill-none stroke-primary" stroke-width="1.5" stroke-miterlimit="10" x1="90" y1="54.2" x2="114.7" y2="54.2"/>
	</g>
	<line id="XMLID_by645_" class="buyer-3 fill-none stroke-primary" stroke-width="1.5" stroke-miterlimit="10" x1="90" y1="58.8" x2="112.1" y2="58.8"/>
	<line id="XMLID_by86_" class="buyer-3 fill-none stroke-primary" stroke-width="1.5" stroke-miterlimit="10" x1="90" y1="63" x2="112.1" y2="63"/>
	<line id="XMLID_by107_" class="buyer-3 fill-none stroke-primary" stroke-width="1.5" stroke-miterlimit="10" x1="90" y1="67.3" x2="112.1" y2="67.3"/>
	<line id="XMLID_by108_" class="buyer-3 fill-none stroke-primary" stroke-width="1.5" stroke-miterlimit="10" x1="90" y1="71.5" x2="112.1" y2="71.5"/>
	<line id="XMLID_by110_" class="buyer-3 fill-none stroke-primary" stroke-width="1.5" stroke-miterlimit="10" x1="90" y1="75.8" x2="112.1" y2="75.8"/>
	<line id="XMLID_by111_" class="buyer-3 fill-none stroke-primary" stroke-width="1.5" stroke-miterlimit="10" x1="90" y1="80" x2="112.1" y2="80"/>
	<line id="XMLID_by113_" class="buyer-3 fill-none stroke-primary" stroke-width="1.5" stroke-miterlimit="10" x1="90" y1="84.3" x2="112.1" y2="84.3"/>
	<line id="XMLID_by114_" class="buyer-3 fill-none stroke-primary" stroke-width="1.5" stroke-miterlimit="10" x1="90" y1="88.5" x2="112.1" y2="88.5"/>
	<line id="XMLID_by115_" class="buyer-3 fill-none stroke-primary" stroke-width="1.5" stroke-miterlimit="10" x1="90" y1="92.8" x2="112.1" y2="92.8"/>
	<line id="XMLID_by117_" class="buyer-3 fill-none stroke-primary" stroke-width="1.5" stroke-miterlimit="10" x1="90" y1="97" x2="112.1" y2="97"/>
	<line id="XMLID_by118_" class="buyer-3 fill-none stroke-primary" stroke-width="1.5" stroke-miterlimit="10" x1="90" y1="101.3" x2="112.1" y2="101.3"/>
	<line id="XMLID_by119_" class="buyer-3 fill-none stroke-primary" stroke-width="1.5" stroke-miterlimit="10" x1="90" y1="105.5" x2="112.1" y2="105.5"/>
	<line id="XMLID_by121_" class="buyer-3 fill-none stroke-primary" stroke-width="1.5" stroke-miterlimit="10" x1="90" y1="109.8" x2="112.1" y2="109.8"/>
	<g id="XMLID_by405_">
		<line id="XMLID_by422_" class="buyer-3 fill-none stroke-primary" stroke-width="1.5" stroke-miterlimit="10" x1="91.3" y1="41.5" x2="91.3" y2="51.8"/>
		<line id="XMLID_by421_" class="buyer-3 fill-none stroke-primary" stroke-width="1.5" stroke-miterlimit="10" x1="94.3" y1="41.5" x2="94.3" y2="51.8"/>
		<line id="XMLID_by420_" class="buyer-3 fill-none stroke-primary" stroke-width="1.5" stroke-miterlimit="10" x1="97.2" y1="41.5" x2="97.2" y2="51.8"/>
		<line id="XMLID_by419_" class="buyer-3 fill-none stroke-primary" stroke-width="1.5" stroke-miterlimit="10" x1="100.2" y1="41.5" x2="100.2" y2="51.8"/>
		<line id="XMLID_by410_" class="buyer-3 fill-none stroke-primary" stroke-width="1.5" stroke-miterlimit="10" x1="103.2" y1="41.5" x2="103.2" y2="51.8"/>
		<line id="XMLID_by408_" class="buyer-3 fill-none stroke-primary" stroke-width="1.5" stroke-miterlimit="10" x1="106.1" y1="41.5" x2="106.1" y2="51.8"/>
		<line id="XMLID_by407_" class="buyer-3 fill-none stroke-primary" stroke-width="1.5" stroke-miterlimit="10" x1="109.1" y1="41.5" x2="109.1" y2="51.8"/>
		<line id="XMLID_by406_" class="buyer-3 fill-none stroke-primary" stroke-width="1.5" stroke-miterlimit="10" x1="112" y1="41.5" x2="112" y2="51.8"/>
	</g>
</g>
<g id="XMLID_by891_">
	<rect id="XMLID_by972_" x="68.6" y="22" class="buyer-2 fill-white" width="16.5" height="7.6"/>
	<rect id="XMLID_by970_" x="68.6" y="22" class="buyer-3 fill-none stroke-primary" stroke-width="1.5" stroke-miterlimit="10" width="16.5" height="7.6"/>
	<rect id="XMLID_by969_" x="65.2" y="27.2" class="buyer-2 fill-white" width="23.3" height="87.4"/>
	<line id="XMLID_by967_" class="buyer-3 fill-none stroke-primary" stroke-width="1.5" stroke-miterlimit="10" x1="68.6" y1="8.2" x2="68.6" y2="22.7"/>
	<line id="XMLID_by966_" class="buyer-3 fill-none stroke-primary" stroke-width="1.5" stroke-miterlimit="10" x1="85.1" y1="8.2" x2="85.1" y2="22.7"/>
	<line id="XMLID_by965_" class="buyer-3 fill-none stroke-primary" stroke-width="1.5" stroke-miterlimit="10" x1="76.8" y1="12.5" x2="76.8" y2="22"/>
	<polyline id="XMLID_by652_" class="buyer-3 fill-none stroke-primary" stroke-width="1.5" stroke-miterlimit="10" points="65.2,42 65.2,27.2 88.5,27.2 88.5,114.6 	"/>
	<line id="XMLID_by893_" class="buyer-3 fill-none stroke-primary" stroke-width="1.5" stroke-miterlimit="10" x1="70" y1="27.2" x2="70" y2="43.8"/>
	<line id="XMLID_by892_" class="buyer-3 fill-none stroke-primary" stroke-width="1.5" stroke-miterlimit="10" x1="83.2" y1="27.2" x2="83.2" y2="114.3"/>
</g>
<g id="XMLID_by655_">
	<polygon id="XMLID_by890_" class="buyer-2 fill-white" points="36.1,114.8 59,114.8 59,34.6 40,34.6 40,67.6 36.1,67.6 	"/>
	<polyline id="XMLID_by428_" class="buyer-3 fill-none stroke-primary" stroke-width="1.5" stroke-miterlimit="10" points="59,34.6 40,34.6 40,67.4 36.1,67.4 36.1,114.8 	"/>
	<polygon id="XMLID_by888_" class="buyer-1 fill-primary-lighter" opacity=".5" points="62.3,114.8 58.9,114.8 58.9,29.8 62.3,27.5 	"/>
	<polyline id="XMLID_by427_" class="buyer-3 fill-none stroke-primary" stroke-width="1.5" stroke-miterlimit="10" points="58.9,42.8 58.9,29.8 62.3,27.5 62.3,42.5 	"/>
	<line id="XMLID_by886_" class="buyer-3 fill-none stroke-primary" stroke-width="1.5" stroke-miterlimit="10" x1="62.3" y1="10.4" x2="62.3" y2="28.6"/>
	<line id="XMLID_by841_" class="buyer-3 fill-none stroke-primary" stroke-width="1.5" stroke-miterlimit="10" x1="39.9" y1="37.2" x2="58.7" y2="37.2"/>
	<line id="XMLID_by840_" class="buyer-3 fill-none stroke-primary" stroke-width="1.5" stroke-miterlimit="10" x1="39.9" y1="40.3" x2="58.7" y2="40.3"/>
	<line id="XMLID_by839_" class="buyer-3 fill-none stroke-primary" stroke-width="1.5" stroke-miterlimit="10" x1="39.9" y1="43.4" x2="58.7" y2="43.4"/>
	<line id="XMLID_by838_" class="buyer-3 fill-none stroke-primary" stroke-width="1.5" stroke-miterlimit="10" x1="39.9" y1="46.5" x2="58.7" y2="46.5"/>
	<line id="XMLID_by837_" class="buyer-3 fill-none stroke-primary" stroke-width="1.5" stroke-miterlimit="10" x1="39.9" y1="49.7" x2="58.7" y2="49.7"/>
	<line id="XMLID_by836_" class="buyer-3 fill-none stroke-primary" stroke-width="1.5" stroke-miterlimit="10" x1="39.9" y1="52.8" x2="51.2" y2="52.8"/>
	<line id="XMLID_by835_" class="buyer-3 fill-none stroke-primary" stroke-width="1.5" stroke-miterlimit="10" x1="39.9" y1="55.9" x2="51.2" y2="55.9"/>
	<line id="XMLID_by834_" class="buyer-3 fill-none stroke-primary" stroke-width="1.5" stroke-miterlimit="10" x1="39.9" y1="59" x2="49.2" y2="59"/>
	<line id="XMLID_by833_" class="buyer-3 fill-none stroke-primary" stroke-width="1.5" stroke-miterlimit="10" x1="39.9" y1="62.1" x2="48.2" y2="62.1"/>
	<line id="XMLID_by828_" class="buyer-3 fill-none stroke-primary" stroke-width="1.5" stroke-miterlimit="10" x1="39.9" y1="65.2" x2="58.7" y2="65.2"/>
	<line id="XMLID_by827_" class="buyer-3 fill-none stroke-primary" stroke-width="1.5" stroke-miterlimit="10" x1="39.9" y1="67.4" x2="58.7" y2="67.4"/>
	<g id="XMLID_by815_">
		<line id="XMLID_by826_" class="buyer-3 fill-none stroke-primary" stroke-width="1.5" stroke-miterlimit="10" x1="37.7" y1="69.1" x2="37.7" y2="70.6"/>
		<line id="XMLID_by825_" class="buyer-3 fill-none stroke-primary" stroke-width="1.5" stroke-miterlimit="10" x1="39.9" y1="69.1" x2="39.9" y2="70.6"/>
		<line id="XMLID_by824_" class="buyer-3 fill-none stroke-primary" stroke-width="1.5" stroke-miterlimit="10" x1="42.1" y1="69.1" x2="42.1" y2="70.6"/>
		<line id="XMLID_by823_" class="buyer-3 fill-none stroke-primary" stroke-width="1.5" stroke-miterlimit="10" x1="44.3" y1="69.1" x2="44.3" y2="70.6"/>
		<line id="XMLID_by822_" class="buyer-3 fill-none stroke-primary" stroke-width="1.5" stroke-miterlimit="10" x1="46.6" y1="69.1" x2="46.6" y2="70.6"/>
		<line id="XMLID_by821_" class="buyer-3 fill-none stroke-primary" stroke-width="1.5" stroke-miterlimit="10" x1="48.8" y1="69.1" x2="48.8" y2="70.6"/>
		<line id="XMLID_by820_" class="buyer-3 fill-none stroke-primary" stroke-width="1.5" stroke-miterlimit="10" x1="51" y1="69.1" x2="51" y2="70.6"/>
		<line id="XMLID_by819_" class="buyer-3 fill-none stroke-primary" stroke-width="1.5" stroke-miterlimit="10" x1="53.2" y1="69.1" x2="53.2" y2="70.6"/>
		<line id="XMLID_by818_" class="buyer-3 fill-none stroke-primary" stroke-width="1.5" stroke-miterlimit="10" x1="55.4" y1="69.1" x2="55.4" y2="70.6"/>
		<line id="XMLID_by816_" class="buyer-3 fill-none stroke-primary" stroke-width="1.5" stroke-miterlimit="10" x1="57.6" y1="69.1" x2="57.6" y2="70.6"/>
	</g>
	<g id="XMLID_by804_">
		<line id="XMLID_by814_" class="buyer-3 fill-none stroke-primary" stroke-width="1.5" stroke-miterlimit="10" x1="37.7" y1="72.2" x2="37.7" y2="73.7"/>
		<line id="XMLID_by813_" class="buyer-3 fill-none stroke-primary" stroke-width="1.5" stroke-miterlimit="10" x1="39.9" y1="72.2" x2="39.9" y2="73.7"/>
		<line id="XMLID_by812_" class="buyer-3 fill-none stroke-primary" stroke-width="1.5" stroke-miterlimit="10" x1="42.1" y1="72.2" x2="42.1" y2="73.7"/>
		<line id="XMLID_by811_" class="buyer-3 fill-none stroke-primary" stroke-width="1.5" stroke-miterlimit="10" x1="44.3" y1="72.2" x2="44.3" y2="73.7"/>
		<line id="XMLID_by810_" class="buyer-3 fill-none stroke-primary" stroke-width="1.5" stroke-miterlimit="10" x1="46.6" y1="72.2" x2="46.6" y2="73.7"/>
		<line id="XMLID_by809_" class="buyer-3 fill-none stroke-primary" stroke-width="1.5" stroke-miterlimit="10" x1="48.8" y1="72.2" x2="48.8" y2="73.7"/>
		<line id="XMLID_by808_" class="buyer-3 fill-none stroke-primary" stroke-width="1.5" stroke-miterlimit="10" x1="51" y1="72.2" x2="51" y2="73.7"/>
		<line id="XMLID_by807_" class="buyer-3 fill-none stroke-primary" stroke-width="1.5" stroke-miterlimit="10" x1="53.2" y1="72.2" x2="53.2" y2="73.7"/>
		<line id="XMLID_by806_" class="buyer-3 fill-none stroke-primary" stroke-width="1.5" stroke-miterlimit="10" x1="55.4" y1="72.2" x2="55.4" y2="73.7"/>
		<line id="XMLID_by805_" class="buyer-3 fill-none stroke-primary" stroke-width="1.5" stroke-miterlimit="10" x1="57.6" y1="72.2" x2="57.6" y2="73.7"/>
	</g>
	<g id="XMLID_by791_">
		<line id="XMLID_by802_" class="buyer-3 fill-none stroke-primary" stroke-width="1.5" stroke-miterlimit="10" x1="37.7" y1="75.3" x2="37.7" y2="76.8"/>
		<line id="XMLID_by801_" class="buyer-3 fill-none stroke-primary" stroke-width="1.5" stroke-miterlimit="10" x1="39.9" y1="75.3" x2="39.9" y2="76.8"/>
		<line id="XMLID_by800_" class="buyer-3 fill-none stroke-primary" stroke-width="1.5" stroke-miterlimit="10" x1="42.1" y1="75.3" x2="42.1" y2="76.8"/>
		<line id="XMLID_by799_" class="buyer-3 fill-none stroke-primary" stroke-width="1.5" stroke-miterlimit="10" x1="44.3" y1="75.3" x2="44.3" y2="76.8"/>
		<line id="XMLID_by798_" class="buyer-3 fill-none stroke-primary" stroke-width="1.5" stroke-miterlimit="10" x1="46.6" y1="75.3" x2="46.6" y2="76.8"/>
		<line id="XMLID_by797_" class="buyer-3 fill-none stroke-primary" stroke-width="1.5" stroke-miterlimit="10" x1="48.8" y1="75.3" x2="48.8" y2="76.8"/>
		<line id="XMLID_by796_" class="buyer-3 fill-none stroke-primary" stroke-width="1.5" stroke-miterlimit="10" x1="51" y1="75.3" x2="51" y2="76.8"/>
		<line id="XMLID_by795_" class="buyer-3 fill-none stroke-primary" stroke-width="1.5" stroke-miterlimit="10" x1="53.2" y1="75.3" x2="53.2" y2="76.8"/>
		<line id="XMLID_by794_" class="buyer-3 fill-none stroke-primary" stroke-width="1.5" stroke-miterlimit="10" x1="55.4" y1="75.3" x2="55.4" y2="76.8"/>
		<line id="XMLID_by793_" class="buyer-3 fill-none stroke-primary" stroke-width="1.5" stroke-miterlimit="10" x1="57.6" y1="75.3" x2="57.6" y2="76.8"/>
	</g>
	<g id="XMLID_by780_">
		<line id="XMLID_by790_" class="buyer-3 fill-none stroke-primary" stroke-width="1.5" stroke-miterlimit="10" x1="37.7" y1="78.4" x2="37.7" y2="79.9"/>
		<line id="XMLID_by789_" class="buyer-3 fill-none stroke-primary" stroke-width="1.5" stroke-miterlimit="10" x1="39.9" y1="78.4" x2="39.9" y2="79.9"/>
		<line id="XMLID_by788_" class="buyer-3 fill-none stroke-primary" stroke-width="1.5" stroke-miterlimit="10" x1="42.1" y1="78.4" x2="42.1" y2="79.9"/>
		<line id="XMLID_by787_" class="buyer-3 fill-none stroke-primary" stroke-width="1.5" stroke-miterlimit="10" x1="44.3" y1="78.4" x2="44.3" y2="79.9"/>
		<line id="XMLID_by786_" class="buyer-3 fill-none stroke-primary" stroke-width="1.5" stroke-miterlimit="10" x1="46.6" y1="78.4" x2="46.6" y2="79.9"/>
		<line id="XMLID_by785_" class="buyer-3 fill-none stroke-primary" stroke-width="1.5" stroke-miterlimit="10" x1="48.8" y1="78.4" x2="48.8" y2="79.9"/>
		<line id="XMLID_by784_" class="buyer-3 fill-none stroke-primary" stroke-width="1.5" stroke-miterlimit="10" x1="51" y1="78.4" x2="51" y2="79.9"/>
		<line id="XMLID_by783_" class="buyer-3 fill-none stroke-primary" stroke-width="1.5" stroke-miterlimit="10" x1="53.2" y1="78.4" x2="53.2" y2="79.9"/>
		<line id="XMLID_by782_" class="buyer-3 fill-none stroke-primary" stroke-width="1.5" stroke-miterlimit="10" x1="55.4" y1="78.4" x2="55.4" y2="79.9"/>
		<line id="XMLID_by781_" class="buyer-3 fill-none stroke-primary" stroke-width="1.5" stroke-miterlimit="10" x1="57.6" y1="78.4" x2="57.6" y2="79.9"/>
	</g>
	<g id="XMLID_by768_">
		<line id="XMLID_by779_" class="buyer-3 fill-none stroke-primary" stroke-width="1.5" stroke-miterlimit="10" x1="37.7" y1="81.5" x2="37.7" y2="83"/>
		<line id="XMLID_by777_" class="buyer-3 fill-none stroke-primary" stroke-width="1.5" stroke-miterlimit="10" x1="39.9" y1="81.5" x2="39.9" y2="83"/>
		<line id="XMLID_by776_" class="buyer-3 fill-none stroke-primary" stroke-width="1.5" stroke-miterlimit="10" x1="42.1" y1="81.5" x2="42.1" y2="83"/>
		<line id="XMLID_by775_" class="buyer-3 fill-none stroke-primary" stroke-width="1.5" stroke-miterlimit="10" x1="44.3" y1="81.5" x2="44.3" y2="83"/>
		<line id="XMLID_by774_" class="buyer-3 fill-none stroke-primary" stroke-width="1.5" stroke-miterlimit="10" x1="46.6" y1="81.5" x2="46.6" y2="83"/>
		<line id="XMLID_by773_" class="buyer-3 fill-none stroke-primary" stroke-width="1.5" stroke-miterlimit="10" x1="48.8" y1="81.5" x2="48.8" y2="83"/>
		<line id="XMLID_by772_" class="buyer-3 fill-none stroke-primary" stroke-width="1.5" stroke-miterlimit="10" x1="51" y1="81.5" x2="51" y2="83"/>
		<line id="XMLID_by771_" class="buyer-3 fill-none stroke-primary" stroke-width="1.5" stroke-miterlimit="10" x1="53.2" y1="81.5" x2="53.2" y2="83"/>
		<line id="XMLID_by770_" class="buyer-3 fill-none stroke-primary" stroke-width="1.5" stroke-miterlimit="10" x1="55.4" y1="81.5" x2="55.4" y2="83"/>
		<line id="XMLID_by769_" class="buyer-3 fill-none stroke-primary" stroke-width="1.5" stroke-miterlimit="10" x1="57.6" y1="81.5" x2="57.6" y2="83"/>
	</g>
	<g id="XMLID_by757_">
		<line id="XMLID_by767_" class="buyer-3 fill-none stroke-primary" stroke-width="1.5" stroke-miterlimit="10" x1="37.7" y1="84.6" x2="37.7" y2="86.1"/>
		<line id="XMLID_by766_" class="buyer-3 fill-none stroke-primary" stroke-width="1.5" stroke-miterlimit="10" x1="39.9" y1="84.6" x2="39.9" y2="86.1"/>
		<line id="XMLID_by765_" class="buyer-3 fill-none stroke-primary" stroke-width="1.5" stroke-miterlimit="10" x1="42.1" y1="84.6" x2="42.1" y2="86.1"/>
		<line id="XMLID_by764_" class="buyer-3 fill-none stroke-primary" stroke-width="1.5" stroke-miterlimit="10" x1="44.3" y1="84.6" x2="44.3" y2="86.1"/>
		<line id="XMLID_by763_" class="buyer-3 fill-none stroke-primary" stroke-width="1.5" stroke-miterlimit="10" x1="46.6" y1="84.6" x2="46.6" y2="86.1"/>
		<line id="XMLID_by762_" class="buyer-3 fill-none stroke-primary" stroke-width="1.5" stroke-miterlimit="10" x1="48.8" y1="84.6" x2="48.8" y2="86.1"/>
		<line id="XMLID_by761_" class="buyer-3 fill-none stroke-primary" stroke-width="1.5" stroke-miterlimit="10" x1="51" y1="84.6" x2="51" y2="86.1"/>
		<line id="XMLID_by760_" class="buyer-3 fill-none stroke-primary" stroke-width="1.5" stroke-miterlimit="10" x1="53.2" y1="84.6" x2="53.2" y2="86.1"/>
		<line id="XMLID_by759_" class="buyer-3 fill-none stroke-primary" stroke-width="1.5" stroke-miterlimit="10" x1="55.4" y1="84.6" x2="55.4" y2="86.1"/>
		<line id="XMLID_by758_" class="buyer-3 fill-none stroke-primary" stroke-width="1.5" stroke-miterlimit="10" x1="57.6" y1="84.6" x2="57.6" y2="86.1"/>
	</g>
	<g id="XMLID_by746_">
		<line id="XMLID_by756_" class="buyer-3 fill-none stroke-primary" stroke-width="1.5" stroke-miterlimit="10" x1="37.7" y1="87.7" x2="37.7" y2="89.2"/>
		<line id="XMLID_by755_" class="buyer-3 fill-none stroke-primary" stroke-width="1.5" stroke-miterlimit="10" x1="39.9" y1="87.7" x2="39.9" y2="89.2"/>
		<line id="XMLID_by754_" class="buyer-3 fill-none stroke-primary" stroke-width="1.5" stroke-miterlimit="10" x1="42.1" y1="87.7" x2="42.1" y2="89.2"/>
		<line id="XMLID_by753_" class="buyer-3 fill-none stroke-primary" stroke-width="1.5" stroke-miterlimit="10" x1="44.3" y1="87.7" x2="44.3" y2="89.2"/>
		<line id="XMLID_by752_" class="buyer-3 fill-none stroke-primary" stroke-width="1.5" stroke-miterlimit="10" x1="46.6" y1="87.7" x2="46.6" y2="89.2"/>
		<line id="XMLID_by751_" class="buyer-3 fill-none stroke-primary" stroke-width="1.5" stroke-miterlimit="10" x1="48.8" y1="87.7" x2="48.8" y2="89.2"/>
		<line id="XMLID_by750_" class="buyer-3 fill-none stroke-primary" stroke-width="1.5" stroke-miterlimit="10" x1="51" y1="87.7" x2="51" y2="89.2"/>
		<line id="XMLID_by749_" class="buyer-3 fill-none stroke-primary" stroke-width="1.5" stroke-miterlimit="10" x1="53.2" y1="87.7" x2="53.2" y2="89.2"/>
		<line id="XMLID_by748_" class="buyer-3 fill-none stroke-primary" stroke-width="1.5" stroke-miterlimit="10" x1="55.4" y1="87.7" x2="55.4" y2="89.2"/>
		<line id="XMLID_by747_" class="buyer-3 fill-none stroke-primary" stroke-width="1.5" stroke-miterlimit="10" x1="57.6" y1="87.7" x2="57.6" y2="89.2"/>
	</g>
	<g id="XMLID_by735_">
		<line id="XMLID_by745_" class="buyer-3 fill-none stroke-primary" stroke-width="1.5" stroke-miterlimit="10" x1="37.7" y1="90.8" x2="37.7" y2="92.3"/>
		<line id="XMLID_by744_" class="buyer-3 fill-none stroke-primary" stroke-width="1.5" stroke-miterlimit="10" x1="39.9" y1="90.8" x2="39.9" y2="92.3"/>
		<line id="XMLID_by743_" class="buyer-3 fill-none stroke-primary" stroke-width="1.5" stroke-miterlimit="10" x1="42.1" y1="90.8" x2="42.1" y2="92.3"/>
		<line id="XMLID_by742_" class="buyer-3 fill-none stroke-primary" stroke-width="1.5" stroke-miterlimit="10" x1="44.3" y1="90.8" x2="44.3" y2="92.3"/>
		<line id="XMLID_by741_" class="buyer-3 fill-none stroke-primary" stroke-width="1.5" stroke-miterlimit="10" x1="46.6" y1="90.8" x2="46.6" y2="92.3"/>
		<line id="XMLID_by740_" class="buyer-3 fill-none stroke-primary" stroke-width="1.5" stroke-miterlimit="10" x1="48.8" y1="90.8" x2="48.8" y2="92.3"/>
		<line id="XMLID_by739_" class="buyer-3 fill-none stroke-primary" stroke-width="1.5" stroke-miterlimit="10" x1="51" y1="90.8" x2="51" y2="92.3"/>
		<line id="XMLID_by738_" class="buyer-3 fill-none stroke-primary" stroke-width="1.5" stroke-miterlimit="10" x1="53.2" y1="90.8" x2="53.2" y2="92.3"/>
		<line id="XMLID_by737_" class="buyer-3 fill-none stroke-primary" stroke-width="1.5" stroke-miterlimit="10" x1="55.4" y1="90.8" x2="55.4" y2="92.3"/>
		<line id="XMLID_by736_" class="buyer-3 fill-none stroke-primary" stroke-width="1.5" stroke-miterlimit="10" x1="57.6" y1="90.8" x2="57.6" y2="92.3"/>
	</g>
	<g id="XMLID_by724_">
		<line id="XMLID_by734_" class="buyer-3 fill-none stroke-primary" stroke-width="1.5" stroke-miterlimit="10" x1="37.7" y1="93.9" x2="37.7" y2="95.4"/>
		<line id="XMLID_by733_" class="buyer-3 fill-none stroke-primary" stroke-width="1.5" stroke-miterlimit="10" x1="39.9" y1="93.9" x2="39.9" y2="95.4"/>
		<line id="XMLID_by732_" class="buyer-3 fill-none stroke-primary" stroke-width="1.5" stroke-miterlimit="10" x1="42.1" y1="93.9" x2="42.1" y2="95.4"/>
		<line id="XMLID_by731_" class="buyer-3 fill-none stroke-primary" stroke-width="1.5" stroke-miterlimit="10" x1="44.3" y1="93.9" x2="44.3" y2="95.4"/>
		<line id="XMLID_by730_" class="buyer-3 fill-none stroke-primary" stroke-width="1.5" stroke-miterlimit="10" x1="46.6" y1="93.9" x2="46.6" y2="95.4"/>
		<line id="XMLID_by729_" class="buyer-3 fill-none stroke-primary" stroke-width="1.5" stroke-miterlimit="10" x1="48.8" y1="93.9" x2="48.8" y2="95.4"/>
		<line id="XMLID_by728_" class="buyer-3 fill-none stroke-primary" stroke-width="1.5" stroke-miterlimit="10" x1="51" y1="93.9" x2="51" y2="95.4"/>
		<line id="XMLID_by727_" class="buyer-3 fill-none stroke-primary" stroke-width="1.5" stroke-miterlimit="10" x1="53.2" y1="93.9" x2="53.2" y2="95.4"/>
		<line id="XMLID_by726_" class="buyer-3 fill-none stroke-primary" stroke-width="1.5" stroke-miterlimit="10" x1="55.4" y1="93.9" x2="55.4" y2="95.4"/>
		<line id="XMLID_by725_" class="buyer-3 fill-none stroke-primary" stroke-width="1.5" stroke-miterlimit="10" x1="57.6" y1="93.9" x2="57.6" y2="95.4"/>
	</g>
	<g id="XMLID_by713_">
		<line id="XMLID_by723_" class="buyer-3 fill-none stroke-primary" stroke-width="1.5" stroke-miterlimit="10" x1="37.7" y1="97" x2="37.7" y2="98.5"/>
		<line id="XMLID_by722_" class="buyer-3 fill-none stroke-primary" stroke-width="1.5" stroke-miterlimit="10" x1="39.9" y1="97" x2="39.9" y2="98.5"/>
		<line id="XMLID_by721_" class="buyer-3 fill-none stroke-primary" stroke-width="1.5" stroke-miterlimit="10" x1="42.1" y1="97" x2="42.1" y2="98.5"/>
		<line id="XMLID_by720_" class="buyer-3 fill-none stroke-primary" stroke-width="1.5" stroke-miterlimit="10" x1="44.3" y1="97" x2="44.3" y2="98.5"/>
		<line id="XMLID_by719_" class="buyer-3 fill-none stroke-primary" stroke-width="1.5" stroke-miterlimit="10" x1="46.6" y1="97" x2="46.6" y2="98.5"/>
		<line id="XMLID_by718_" class="buyer-3 fill-none stroke-primary" stroke-width="1.5" stroke-miterlimit="10" x1="48.8" y1="97" x2="48.8" y2="98.5"/>
		<line id="XMLID_by717_" class="buyer-3 fill-none stroke-primary" stroke-width="1.5" stroke-miterlimit="10" x1="51" y1="97" x2="51" y2="98.5"/>
		<line id="XMLID_by716_" class="buyer-3 fill-none stroke-primary" stroke-width="1.5" stroke-miterlimit="10" x1="53.2" y1="97" x2="53.2" y2="98.5"/>
		<line id="XMLID_by715_" class="buyer-3 fill-none stroke-primary" stroke-width="1.5" stroke-miterlimit="10" x1="55.4" y1="97" x2="55.4" y2="98.5"/>
		<line id="XMLID_by714_" class="buyer-3 fill-none stroke-primary" stroke-width="1.5" stroke-miterlimit="10" x1="57.6" y1="97" x2="57.6" y2="98.5"/>
	</g>
	<g id="XMLID_by700_">
		<line id="XMLID_by712_" class="buyer-3 fill-none stroke-primary" stroke-width="1.5" stroke-miterlimit="10" x1="37.7" y1="100.1" x2="37.7" y2="101.6"/>
		<line id="XMLID_by711_" class="buyer-3 fill-none stroke-primary" stroke-width="1.5" stroke-miterlimit="10" x1="39.9" y1="100.1" x2="39.9" y2="101.6"/>
		<line id="XMLID_by709_" class="buyer-3 fill-none stroke-primary" stroke-width="1.5" stroke-miterlimit="10" x1="42.1" y1="100.1" x2="42.1" y2="101.6"/>
		<line id="XMLID_by708_" class="buyer-3 fill-none stroke-primary" stroke-width="1.5" stroke-miterlimit="10" x1="44.3" y1="100.1" x2="44.3" y2="101.6"/>
		<line id="XMLID_by707_" class="buyer-3 fill-none stroke-primary" stroke-width="1.5" stroke-miterlimit="10" x1="46.6" y1="100.1" x2="46.6" y2="101.6"/>
		<line id="XMLID_by706_" class="buyer-3 fill-none stroke-primary" stroke-width="1.5" stroke-miterlimit="10" x1="48.8" y1="100.1" x2="48.8" y2="101.6"/>
		<line id="XMLID_by705_" class="buyer-3 fill-none stroke-primary" stroke-width="1.5" stroke-miterlimit="10" x1="51" y1="100.1" x2="51" y2="101.6"/>
		<line id="XMLID_by703_" class="buyer-3 fill-none stroke-primary" stroke-width="1.5" stroke-miterlimit="10" x1="53.2" y1="100.1" x2="53.2" y2="101.6"/>
		<line id="XMLID_by702_" class="buyer-3 fill-none stroke-primary" stroke-width="1.5" stroke-miterlimit="10" x1="55.4" y1="100.1" x2="55.4" y2="101.6"/>
		<line id="XMLID_by701_" class="buyer-3 fill-none stroke-primary" stroke-width="1.5" stroke-miterlimit="10" x1="57.6" y1="100.1" x2="57.6" y2="101.6"/>
	</g>
	<g id="XMLID_by689_">
		<line id="XMLID_by699_" class="buyer-3 fill-none stroke-primary" stroke-width="1.5" stroke-miterlimit="10" x1="37.7" y1="103.2" x2="37.7" y2="104.7"/>
		<line id="XMLID_by698_" class="buyer-3 fill-none stroke-primary" stroke-width="1.5" stroke-miterlimit="10" x1="39.9" y1="103.2" x2="39.9" y2="104.7"/>
		<line id="XMLID_by697_" class="buyer-3 fill-none stroke-primary" stroke-width="1.5" stroke-miterlimit="10" x1="42.1" y1="103.2" x2="42.1" y2="104.7"/>
		<line id="XMLID_by696_" class="buyer-3 fill-none stroke-primary" stroke-width="1.5" stroke-miterlimit="10" x1="44.3" y1="103.2" x2="44.3" y2="104.7"/>
		<line id="XMLID_by695_" class="buyer-3 fill-none stroke-primary" stroke-width="1.5" stroke-miterlimit="10" x1="46.6" y1="103.2" x2="46.6" y2="104.7"/>
		<line id="XMLID_by694_" class="buyer-3 fill-none stroke-primary" stroke-width="1.5" stroke-miterlimit="10" x1="48.8" y1="103.2" x2="48.8" y2="104.7"/>
		<line id="XMLID_by693_" class="buyer-3 fill-none stroke-primary" stroke-width="1.5" stroke-miterlimit="10" x1="51" y1="103.2" x2="51" y2="104.7"/>
		<line id="XMLID_by692_" class="buyer-3 fill-none stroke-primary" stroke-width="1.5" stroke-miterlimit="10" x1="53.2" y1="103.2" x2="53.2" y2="104.7"/>
		<line id="XMLID_by691_" class="buyer-3 fill-none stroke-primary" stroke-width="1.5" stroke-miterlimit="10" x1="55.4" y1="103.2" x2="55.4" y2="104.7"/>
		<line id="XMLID_by690_" class="buyer-3 fill-none stroke-primary" stroke-width="1.5" stroke-miterlimit="10" x1="57.6" y1="103.2" x2="57.6" y2="104.7"/>
	</g>
	<g id="XMLID_by678_">
		<line id="XMLID_by688_" class="buyer-3 fill-none stroke-primary" stroke-width="1.5" stroke-miterlimit="10" x1="37.7" y1="106.3" x2="37.7" y2="107.8"/>
		<line id="XMLID_by687_" class="buyer-3 fill-none stroke-primary" stroke-width="1.5" stroke-miterlimit="10" x1="39.9" y1="106.3" x2="39.9" y2="107.8"/>
		<line id="XMLID_by686_" class="buyer-3 fill-none stroke-primary" stroke-width="1.5" stroke-miterlimit="10" x1="42.1" y1="106.3" x2="42.1" y2="107.8"/>
		<line id="XMLID_by685_" class="buyer-3 fill-none stroke-primary" stroke-width="1.5" stroke-miterlimit="10" x1="44.3" y1="106.3" x2="44.3" y2="107.8"/>
		<line id="XMLID_by684_" class="buyer-3 fill-none stroke-primary" stroke-width="1.5" stroke-miterlimit="10" x1="46.6" y1="106.3" x2="46.6" y2="107.8"/>
		<line id="XMLID_by683_" class="buyer-3 fill-none stroke-primary" stroke-width="1.5" stroke-miterlimit="10" x1="48.8" y1="106.3" x2="48.8" y2="107.8"/>
		<line id="XMLID_by682_" class="buyer-3 fill-none stroke-primary" stroke-width="1.5" stroke-miterlimit="10" x1="51" y1="106.3" x2="51" y2="107.8"/>
		<line id="XMLID_by681_" class="buyer-3 fill-none stroke-primary" stroke-width="1.5" stroke-miterlimit="10" x1="53.2" y1="106.3" x2="53.2" y2="107.8"/>
		<line id="XMLID_by680_" class="buyer-3 fill-none stroke-primary" stroke-width="1.5" stroke-miterlimit="10" x1="55.4" y1="106.3" x2="55.4" y2="107.8"/>
		<line id="XMLID_by679_" class="buyer-3 fill-none stroke-primary" stroke-width="1.5" stroke-miterlimit="10" x1="57.6" y1="106.3" x2="57.6" y2="107.8"/>
	</g>
	<g id="XMLID_by667_">
		<line id="XMLID_by677_" class="buyer-3 fill-none stroke-primary" stroke-width="1.5" stroke-miterlimit="10" x1="37.7" y1="109.4" x2="37.7" y2="110.9"/>
		<line id="XMLID_by676_" class="buyer-3 fill-none stroke-primary" stroke-width="1.5" stroke-miterlimit="10" x1="39.9" y1="109.4" x2="39.9" y2="110.9"/>
		<line id="XMLID_by675_" class="buyer-3 fill-none stroke-primary" stroke-width="1.5" stroke-miterlimit="10" x1="42.1" y1="109.4" x2="42.1" y2="110.9"/>
		<line id="XMLID_by674_" class="buyer-3 fill-none stroke-primary" stroke-width="1.5" stroke-miterlimit="10" x1="44.3" y1="109.4" x2="44.3" y2="110.9"/>
		<line id="XMLID_by673_" class="buyer-3 fill-none stroke-primary" stroke-width="1.5" stroke-miterlimit="10" x1="46.6" y1="109.4" x2="46.6" y2="110.9"/>
		<line id="XMLID_by672_" class="buyer-3 fill-none stroke-primary" stroke-width="1.5" stroke-miterlimit="10" x1="48.8" y1="109.4" x2="48.8" y2="110.9"/>
		<line id="XMLID_by671_" class="buyer-3 fill-none stroke-primary" stroke-width="1.5" stroke-miterlimit="10" x1="51" y1="109.4" x2="51" y2="110.9"/>
		<line id="XMLID_by670_" class="buyer-3 fill-none stroke-primary" stroke-width="1.5" stroke-miterlimit="10" x1="53.2" y1="109.4" x2="53.2" y2="110.9"/>
		<line id="XMLID_by669_" class="buyer-3 fill-none stroke-primary" stroke-width="1.5" stroke-miterlimit="10" x1="55.4" y1="109.4" x2="55.4" y2="110.9"/>
		<line id="XMLID_by668_" class="buyer-3 fill-none stroke-primary" stroke-width="1.5" stroke-miterlimit="10" x1="57.6" y1="109.4" x2="57.6" y2="110.9"/>
	</g>
	<g id="XMLID_by656_">
		<line id="XMLID_by666_" class="buyer-3 fill-none stroke-primary" stroke-width="1.5" stroke-miterlimit="10" x1="37.7" y1="112.5" x2="37.7" y2="114"/>
		<line id="XMLID_by665_" class="buyer-3 fill-none stroke-primary" stroke-width="1.5" stroke-miterlimit="10" x1="39.9" y1="112.5" x2="39.9" y2="114"/>
		<line id="XMLID_by664_" class="buyer-3 fill-none stroke-primary" stroke-width="1.5" stroke-miterlimit="10" x1="42.1" y1="112.5" x2="42.1" y2="114"/>
		<line id="XMLID_by663_" class="buyer-3 fill-none stroke-primary" stroke-width="1.5" stroke-miterlimit="10" x1="44.3" y1="112.5" x2="44.3" y2="114"/>
		<line id="XMLID_by662_" class="buyer-3 fill-none stroke-primary" stroke-width="1.5" stroke-miterlimit="10" x1="46.6" y1="112.5" x2="46.6" y2="114"/>
		<line id="XMLID_by661_" class="buyer-3 fill-none stroke-primary" stroke-width="1.5" stroke-miterlimit="10" x1="48.8" y1="112.5" x2="48.8" y2="114"/>
		<line id="XMLID_by660_" class="buyer-3 fill-none stroke-primary" stroke-width="1.5" stroke-miterlimit="10" x1="51" y1="112.5" x2="51" y2="114"/>
		<line id="XMLID_by659_" class="buyer-3 fill-none stroke-primary" stroke-width="1.5" stroke-miterlimit="10" x1="53.2" y1="112.5" x2="53.2" y2="114"/>
		<line id="XMLID_by658_" class="buyer-3 fill-none stroke-primary" stroke-width="1.5" stroke-miterlimit="10" x1="55.4" y1="112.5" x2="55.4" y2="114"/>
		<line id="XMLID_by657_" class="buyer-3 fill-none stroke-primary" stroke-width="1.5" stroke-miterlimit="10" x1="57.6" y1="112.5" x2="57.6" y2="114"/>
	</g>
</g>
<g id="XMLID_by435_">
	<circle id="XMLID_by842_" class="buyer-2 fill-white" opacity=".3" cx="62.6" cy="78.5" r="19"/>
	<line id="XMLID_by512_" class="buyer-3 fill-none stroke-primary" stroke-width="1.5" stroke-miterlimit="10" x1="62.5" y1="99.1" x2="62.5" y2="108.1"/>
	<path id="XMLID_by509_" class="buyer-1 fill-primary-lighter" d="M62.5,56.8c-12,0-21.7,9.7-21.7,21.7s9.7,21.7,21.7,21.7s21.7-9.7,21.7-21.7
		S74.5,56.8,62.5,56.8z M62.5,95C53.4,95,46,87.6,46,78.5S53.4,62,62.5,62S79,69.4,79,78.5C78.9,87.6,71.6,95,62.5,95z"/>
	<path id="XMLID_by57_" class="buyer-3 fill-none stroke-primary" stroke-width="1.5" stroke-miterlimit="10" d="M46,64.4c-3.2,3.8-5.2,8.7-5.2,14.1c0,12,9.7,21.7,21.7,21.7s21.7-9.7,21.7-21.7
		c0-5.4-2-10.3-5.2-14.1"/>
	<rect id="XMLID_by506_" x="58.2" y="105.4" class="buyer-2 fill-white" width="8.6" height="9.4"/>
	<polyline id="XMLID_by56_" class="buyer-3 fill-none stroke-primary" stroke-width="1.5" stroke-miterlimit="10" points="66.8,114.7 66.8,105.4 58.2,105.4 58.2,114.7 	"/>
	<line id="XMLID_by54_" class="buyer-3 fill-none stroke-primary" stroke-width="1.5" stroke-miterlimit="10" x1="58" y1="111.6" x2="67" y2="111.6"/>
	<path id="XMLID_by412_" class="buyer-1 fill-primary-lighter" d="M62.6,43.8c-8.3,0-15,6.7-15,15s15,25.3,15,25.3s15-17,15-25.3S70.9,43.8,62.6,43.8z
		 M62.6,66.1c-4.8,0-8.7-3.9-8.7-8.7s3.9-8.7,8.7-8.7s8.7,3.9,8.7,8.7C71.3,62.2,67.4,66.1,62.6,66.1z"/>
	<path id="XMLID_by45_" class="buyer-3 fill-none stroke-primary" stroke-width="1.5" stroke-miterlimit="10" d="M49.8,50.9c-1.4,2.3-2.3,5-2.3,7.9c0,8.3,15,25.3,15,25.3s15-17,15-25.3s-6.7-15-15-15
		c-1.9,0-3.7,0.4-5.4,1 M53.1,47.1c-0.4,0.3-0.8,0.7-1.2,1.1 M62.6,66.1c-4.8,0-8.7-3.9-8.7-8.7s3.9-8.7,8.7-8.7s8.7,3.9,8.7,8.7
		C71.3,62.2,67.4,66.1,62.6,66.1z"/>
</g>
</svg>
