<?xml version="1.0" encoding="utf-8"?>
<!-- Generator: Adobe Illustrator 24.0.1, SVG Export Plug-In . SVG Version: 6.00 Build 0)  -->
<svg version="1.1" id="Layer_1" xmlns="http://www.w3.org/2000/svg" xmlns:xlink="http://www.w3.org/1999/xlink" x="0px" y="0px"
	 viewBox="0 0 128 126" style="enable-background:new 0 0 128 126;" xml:space="preserve">
<style type="text/css">
	.st0{opacity:0.3;fill:#BDC5D1;}
	.st1{fill:#FFFFFF;}
	.st2{fill:#E7EAF3;}
	.st3{fill:#DE4437;}
	.st4{fill:#FFC107;}
	.st5{fill:#377DFF;}
	.st6{fill:#00C9A7;}
</style>
<path class="st0" d="M2.6,105.3L42.8-3.2c0.5-1.4,2.1-2.1,3.5-1.6L139,29.6c1.4,0.5,2.1,2.1,1.6,3.5l-40.1,108.4
	c-0.5,1.4-2.1,2.1-3.5,1.6L4.2,108.8C2.8,108.2,2.1,106.7,2.6,105.3z"/>
<path class="st1" d="M0.6,100.4L39.8-5.4c0.5-1.4,2.1-2.1,3.5-1.6l90.4,33.5c1.4,0.5,2.1,2.1,1.6,3.5L96.2,135.8
	c-0.5,1.4-2.1,2.1-3.5,1.6L2.2,103.9C0.8,103.4,0.1,101.8,0.6,100.4z"/>
<rect x="52.6" y="-0.7" transform="matrix(0.3472 -0.9378 0.9378 0.3472 23.5683 58.2474)" class="st0" width="2.1" height="25.8"/>
<rect x="59.3" y="-1.9" transform="matrix(0.3472 -0.9378 0.9378 0.3472 20.5927 69.7113)" class="st0" width="2.1" height="44"/>
<rect x="108.5" y="31.5" transform="matrix(0.3472 -0.9378 0.9378 0.3472 37.8573 135.7124)" class="st1" width="15.7" height="18.3"/>
<path class="st2" d="M127.6,36.5l-5.4,14.7l-17-6.2l5.4-14.7L127.6,36.5 M127.8,36.4L110.6,30L105,44.9l17.3,6.4L127.8,36.4z"/>
<rect x="91.2" y="25.2" transform="matrix(0.3472 -0.9378 0.9378 0.3472 32.4949 115.3003)" class="st1" width="15.7" height="18.3"/>
<path class="st2" d="M110.3,30.1l-5.4,14.7l-17-6.2l5.4-14.7L110.3,30.1 M110.6,30l-17.3-6.4l-5.5,14.9l17.3,6.4L110.6,30z"/>
<rect x="103" y="46.6" transform="matrix(0.3472 -0.9378 0.9378 0.3472 20.152 140.3681)" class="st1" width="15.7" height="18.3"/>
<path class="st2" d="M122,51.4l-5.4,14.7l-17-6.2l5.4-14.7L122,51.4 M122.3,51.3L105,44.9l-5.6,15l17.3,6.4L122.3,51.3z"/>
<rect x="85.7" y="40.1" transform="matrix(0.3472 -0.9378 0.9378 0.3472 14.8897 119.9301)" class="st1" width="15.7" height="18.3"/>
<path class="st2" d="M104.8,45.1l-5.4,14.7l-17-6.2l5.4-14.7L104.8,45.1 M105,44.9l-17.3-6.4l-5.5,14.9l17.3,6.4L105,44.9z"/>
<rect x="68.4" y="33.7" transform="matrix(0.3472 -0.9378 0.9378 0.3472 9.6273 99.4921)" class="st1" width="15.7" height="18.3"/>
<path class="st2" d="M87.5,38.7l-5.4,14.7l-17-6.2l5.4-14.7L87.5,38.7 M87.7,38.6l-17.3-6.4l-5.5,14.9l17.3,6.4L87.7,38.6z"/>
<rect x="51.1" y="27.3" transform="matrix(0.3472 -0.9378 0.9378 0.3472 4.365 79.0541)" class="st1" width="15.7" height="18.3"/>
<path class="st2" d="M70.1,32.2l-5.4,14.7l-17-6.2L53.1,26L70.1,32.2 M70.4,32.2l-17.3-6.4l-5.5,14.9l17.3,6.4L70.4,32.2z"/>
<rect x="33.8" y="20.9" transform="matrix(0.3472 -0.9378 0.9378 0.3472 -0.9973 58.642)" class="st1" width="15.7" height="18.3"/>
<path class="st2" d="M52.8,25.8l-5.4,14.7l-17-6.2l5.4-14.7L52.8,25.8 M53.1,25.7l-17.3-6.4l-5.6,15l17.3,6.4L53.1,25.7z"/>
<rect x="97.5" y="61.5" transform="matrix(0.3472 -0.9378 0.9378 0.3472 2.5208 144.8978)" class="st1" width="15.7" height="18.3"/>
<path class="st2" d="M116.5,66.4l-5.4,14.7l-17-6.2l5.4-14.7L116.5,66.4 M116.7,66.4l-17.3-6.4l-5.5,14.9l17.3,6.4L116.7,66.4z"/>
<rect x="80.2" y="55.1" transform="matrix(0.3472 -0.9378 0.9378 0.3472 -2.7415 124.4598)" class="st1" width="15.7" height="18.3"/>
<path class="st2" d="M99.3,60l-5.4,14.7l-17-6.2l5.4-14.7L99.3,60 M99.4,59.9l-17.3-6.4l-5.5,14.9l17.3,6.4L99.4,59.9z"/>
<rect x="62.8" y="48.6" transform="matrix(0.3472 -0.9378 0.9378 0.3472 -8.0038 104.0218)" class="st1" width="15.7" height="18.3"/>
<path class="st2" d="M81.9,53.6l-5.4,14.7l-17-6.2l5.4-14.7L81.9,53.6 M82.2,53.5l-17.3-6.4L59.4,62l17.3,6.4L82.2,53.5z"/>
<rect x="45.6" y="42.3" transform="matrix(0.3472 -0.9378 0.9378 0.3472 -13.3403 83.7097)" class="st1" width="15.7" height="18.3"/>
<path class="st2" d="M64.6,47.2l-5.4,14.7l-17-6.2l5.4-14.7L64.6,47.2 M64.9,47.1l-17.3-6.4l-5.6,15l17.3,6.4L64.9,47.1z"/>
<rect x="28.3" y="35.9" transform="matrix(0.3472 -0.9378 0.9378 0.3472 -18.6025 63.2717)" class="st1" width="15.7" height="18.3"/>
<path class="st2" d="M47.3,40.8l-5.4,14.7l-17-6.2l5.4-14.7L47.3,40.8 M47.5,40.7l-17.3-6.3l-5.5,14.9L42,55.7L47.5,40.7z"/>
<rect x="91.9" y="76.4" transform="matrix(0.3472 -0.9378 0.9378 0.3472 -15.1103 149.4276)" class="st1" width="15.7" height="18.3"/>
<path class="st2" d="M111,81.4L105.6,96l-17-6.2L94,75.1L111,81.4 M111.2,81.3l-17.3-6.4l-5.5,14.9l17.3,6.4L111.2,81.3z"/>
<rect x="74.7" y="70" transform="matrix(0.3472 -0.9378 0.9378 0.3472 -20.3468 129.0896)" class="st1" width="15.7" height="18.3"/>
<path class="st2" d="M93.6,74.9l-5.4,14.7l-17-6.2l5.4-14.7L93.6,74.9 M93.9,74.9l-17.3-6.4l-5.6,15l17.3,6.4L93.9,74.9z"/>
<rect x="57.3" y="63.7" transform="matrix(0.3472 -0.9378 0.9378 0.3472 -25.7091 108.6775)" class="st1" width="15.7" height="18.3"/>
<path class="st2" d="M76.4,68.6l-5.4,14.7l-17-6.2l5.4-14.7L76.4,68.6 M76.6,68.4L59.4,62l-5.6,15l17.4,6.4L76.6,68.4z"/>
<rect x="40" y="57.2" transform="matrix(0.3472 -0.9378 0.9378 0.3472 -30.9714 88.2395)" class="st1" width="15.7" height="18.3"/>
<path class="st2" d="M59.1,62.2l-5.4,14.7l-17-6.2L42.1,56L59.1,62.2 M59.4,62.1L42,55.7l-5.5,14.9L53.7,77L59.4,62.1z"/>
<rect x="22.7" y="50.8" transform="matrix(0.3472 -0.9378 0.9378 0.3472 -36.2337 67.8015)" class="st1" width="15.7" height="18.3"/>
<path class="st2" d="M41.8,55.8l-5.4,14.7l-17-6.3l5.4-14.7L41.8,55.8 M42,55.7l-17.3-6.4l-5.5,14.9l17.3,6.4L42,55.7z"/>
<rect x="86.4" y="91.4" transform="matrix(0.3472 -0.9378 0.9378 0.3472 -32.6974 154.0729)" class="st1" width="15.7" height="18.3"/>
<path class="st2" d="M105.5,96.3l-5.4,14.7l-17-6.2l5.4-14.7L105.5,96.3 M105.7,96.2l-17.3-6.4l-5.5,14.9l17.3,6.4L105.7,96.2z"/>
<rect x="69.1" y="84.9" transform="matrix(0.3472 -0.9378 0.9378 0.3472 -37.9598 133.6348)" class="st1" width="15.7" height="18.3"/>
<path class="st2" d="M88.1,90l-5.4,14.7l-17-6.2l5.4-14.7L88.1,90 M88.4,89.8L71,83.5l-5.5,14.9l17.3,6.4L88.4,89.8z"/>
<rect x="51.8" y="78.6" transform="matrix(0.3472 -0.9378 0.9378 0.3472 -43.3222 113.2227)" class="st1" width="15.7" height="18.3"/>
<path class="st2" d="M70.8,83.5l-5.4,14.7l-17-6.2l5.4-14.7L70.8,83.5 M71.1,83.5L53.7,77L48.2,92l17.3,6.4L71.1,83.5z"/>
<rect x="34.5" y="72.2" transform="matrix(0.3472 -0.9378 0.9378 0.3472 -48.5845 92.7848)" class="st1" width="15.7" height="18.3"/>
<path class="st2" d="M53.6,77.1l-5.4,14.7l-17-6.3l5.4-14.7L53.6,77.1 M53.7,77l-17.3-6.4L31,85.5L48.2,92L53.7,77z"/>
<rect x="17.2" y="65.7" transform="matrix(0.3472 -0.9378 0.9378 0.3472 -53.8468 72.3468)" class="st1" width="15.7" height="18.3"/>
<path class="st2" d="M36.2,70.7l-5.4,14.7l-17-6.2l5.4-14.7L36.2,70.7 M36.5,70.6l-17.3-6.4l-5.5,14.9L31,85.5L36.5,70.6z"/>
<rect x="80.9" y="106.3" transform="matrix(0.3472 -0.9378 0.9378 0.3472 -50.3287 158.6026)" class="st1" width="15.7" height="18.3"/>
<path class="st2" d="M99.9,111.3L94.5,126l-16.9-6.3L83,105L99.9,111.3 M100.2,111.2l-17.3-6.4l-5.6,14.9l17.3,6.4L100.2,111.2z"/>
<rect x="63.5" y="100" transform="matrix(0.3472 -0.9378 0.9378 0.3472 -55.691 138.1905)" class="st1" width="15.7" height="18.3"/>
<path class="st2" d="M82.6,104.9l-5.4,14.7l-17-6.2l5.4-14.7L82.6,104.9 M82.9,104.8l-17.4-6.4L60,113.3l17.3,6.4L82.9,104.8z"/>
<rect x="46.2" y="93.5" transform="matrix(0.3472 -0.9378 0.9378 0.3472 -60.9533 117.7525)" class="st1" width="15.7" height="18.3"/>
<path class="st2" d="M65.3,98.5l-5.4,14.7l-17-6.2l5.4-14.7L65.3,98.5 M65.5,98.4L48.2,92l-5.5,14.9l17.3,6.4L65.5,98.4z"/>
<rect x="28.9" y="87.1" transform="matrix(0.3472 -0.9378 0.9378 0.3472 -66.2157 97.3144)" class="st1" width="15.7" height="18.3"/>
<path class="st2" d="M48,92l-5.4,14.7l-17-6.2L31,85.8L48,92 M48.2,92L31,85.5l-5.5,14.9l17.3,6.4L48.2,92z"/>
<rect x="11.7" y="80.8" transform="matrix(0.3472 -0.9378 0.9378 0.3472 -71.5521 77.0024)" class="st1" width="15.7" height="18.3"/>
<path class="st2" d="M30.7,85.6l-5.4,14.7L8.2,94l5.4-14.7L30.7,85.6 M31,85.5l-17.3-6.4L8.2,94l17.3,6.4L31,85.5z"/>
<circle class="st3" cx="37.3" cy="22.6" r="1.1"/>
<circle class="st4" cx="39.7" cy="23.5" r="1.1"/>
<circle class="st5" cx="66.4" cy="49.8" r="1.1"/>
<circle class="st5" cx="68.9" cy="50.7" r="1.1"/>
<circle class="st5" cx="106.8" cy="48.3" r="1.1"/>
<circle class="st5" cx="109.2" cy="49.2" r="1.1"/>
<circle class="st5" cx="111.6" cy="50.1" r="1.1"/>
<circle class="st5" cx="114.1" cy="51" r="1.1"/>
<circle class="st5" cx="95.5" cy="78.5" r="1.1"/>
<circle class="st5" cx="98" cy="79.4" r="1.1"/>
<circle class="st5" cx="100.4" cy="80.3" r="1.1"/>
<circle class="st5" cx="102.9" cy="81.2" r="1.1"/>
<circle class="st4" cx="49.1" cy="43.4" r="1.1"/>
<circle class="st3" cx="26.4" cy="51.8" r="1.1"/>
<circle class="st6" cx="32.5" cy="88" r="1.1"/>
</svg>
