<?xml version="1.0" encoding="utf-8"?>
<!-- Generator: Adobe Illustrator 23.0.3, SVG Export Plug-In . SVG Version: 6.00 Build 0)  -->
<svg xmlns="http://www.w3.org/2000/svg" xmlns:xlink="http://www.w3.org/1999/xlink" x="0px" y="0px"
	 viewBox="0 0 393 1113.5" style="enable-background:new 0 0 393 1113.5;" xml:space="preserve">
<style type="text/css">
	.chatting-man-0{fill:#E7EAF3;}
	.chatting-man-1{fill:#1E2022;}
	.chatting-man-2{fill:none;stroke:#1E2022;}
	.chatting-man-3{fill:#377DFF;}
	.chatting-man-4{fill:#FFFFFF;}
</style>
<path class="chatting-man-0 fill-gray-300" d="M233.6,395.5l-2.1,64c0,0,22.1-16.7,27.7-21.5c3.9-20-1-52.1-3.8-56.2L233.6,395.5z"/>
<path class="chatting-man-0 fill-gray-300" d="M132.5,568.3c14.3,0.5,29.1,0.5,42-0.2c-55.3-62.9-36-220.9-36-229.4l-10.1,3.4c-2.3,22.7-9.9,73.4-20,100.3
	C111.5,458.7,124.5,527,132.5,568.3z"/>
<path class="chatting-man-1 fill-dark" opacity=".2" d="M66.8,504.5l-5.5-11.8l2,26.1l2.7,21.8l1.5,4.4l3,3.3l0.8,4.5l0.8,11.6c0,0,8.8,0.9,21.9,1.9
	c-9.2-20.3-19.2-42.8-27.2-61.9V504.5z"/>
<path class="chatting-man-1 fill-dark" d="M101.8,937.3c0,0-54.2,44.7-54.2,50.6s17.5,39.9,21.8,39.9c4.2,0,232-186.1,232-191.8s-81.6-284.4-81.6-284.4
	L101.8,937.3z"/>
<path class="chatting-man-2 fill-none stroke-dark" stroke-width="2.5" stroke-linecap="round" stroke-linejoin="round" d="M231.5,459.5c26.1-15.9,89.2-79.8,93.3-84.8c49.6-12.9,51.8-33.8,51.8-36.9s1.5-13.6-16.3-13.6
	c-15.2,0-97.3,52.9-126.7,71.4"/>
<path class="chatting-man-2 fill-none stroke-dark" stroke-width="2.5" stroke-linecap="round" stroke-linejoin="round" d="M127.4,183.1c-15.1,4.2-27.1,16.1-36.5,33.2"/>
<path class="chatting-man-2 fill-none stroke-dark" stroke-width="2.5" stroke-linecap="round" stroke-linejoin="round" d="M61,490.3c1.8,28.6,4.2,48.6,5.4,52.4c1.9,6,10.6,10.3,22.9,13.2"/>
<path class="chatting-man-2 fill-none stroke-dark" stroke-width="2.5" stroke-linecap="round" stroke-linejoin="round" d="M131,560.7c40,1.5,84.5-3.2,88.7-9c6.7-9.4,46.4-307.8-47.6-361.9"/>
<polygon class="chatting-man-3 fill-primary" points="303.3,338.5 360.8,302.3 393,320 334,358.5 "/>
<path class="chatting-man-2 fill-none stroke-dark" stroke-width="2.5" stroke-linecap="round" stroke-linejoin="round" d="M56.5,334c-2.4,25.9-8,109.2-5.1,128.1c3.3,21.9,69.2,161.7,69.2,161.7l18-23.3c0,0-25.6-134.3-30.3-158.3
	c10.2-26.9,17.8-77.6,20-100.3"/>
<path class="chatting-man-2 fill-none stroke-dark" stroke-width="2.5" stroke-linecap="round" stroke-linejoin="round" d="M141.4,320.8c-0.1,9.3-1.2,15.9-2.9,17.9c-8.1,9-79.7,1.8-86.5-7.7s4.5-116.2,44.7-115.4
	c7.8,0.2,14.4,4.1,19.9,10.5"/>
<path class="chatting-man-2 fill-none stroke-dark" stroke-width="2.5" stroke-linecap="round" stroke-linejoin="round" d="M127.4,137.8V199c0,4.2,11.2,6.5,22.4,6.5"/>
<path class="chatting-man-2 fill-none stroke-dark" stroke-width="2.5" stroke-linecap="round" stroke-linejoin="round" d="M172,189.8v-23.1"/>
<path class="chatting-man-2 fill-none stroke-dark" stroke-width="2.5" stroke-linecap="round" stroke-linejoin="round" d="M202.4,94.3c1.8,35.1-11.2,65.1-30.3,72.4"/>
<path class="chatting-man-2 fill-none stroke-dark" stroke-width="2.5" stroke-linecap="round" stroke-linejoin="round" d="M127.4,137.9c-0.5-1.2-1-2.4-1.5-3.6"/>
<path class="chatting-man-2 fill-none stroke-dark" stroke-width="2.5" stroke-linecap="round" stroke-linejoin="round" d="M108.8,118.6c-11.5-6-22.5-21.1-22.5-34.4c0-18,23-19,23-36c0-4,4-39,32-39c9,0,16,4,32,4c27,0,31-12,48-12
	c9,0,26,8,26,25c0,10-3,18-3,25c0,8,4,16,4,23c0,17-25,23-30,23"/>
<path class="chatting-man-2 fill-none stroke-dark" stroke-width="2.5" stroke-linecap="round" stroke-linejoin="round" d="M125.7,134.3c-5.8,0-10.5-4.7-10.5-10.5s4.7-10.5,10.5-10.5"/>
<path class="chatting-man-2 fill-none stroke-dark" stroke-width="2.5" stroke-linecap="round" stroke-linejoin="round" d="M190.9,119.9c-2.7-3.3-3.6-10.8-3.6-14.9"/>
<path class="chatting-man-2 fill-none stroke-dark" stroke-width="2.5" stroke-linecap="round" stroke-linejoin="round" d="M179,134.1c-5.3,0-7.7-5.9-7.7-8.9"/>
<ellipse cx="176.7" cy="105.1" rx="1.9" ry="3.2"/>
<path class="chatting-man-1 fill-dark" d="M89,555c-9.7-2.7-16.5-5.6-19.7-7.9l25.4,504.9l0.2,2.7h43.8c0,0,75.6-458.7,81-503
	c-28.8,8.1-58.7,11.4-88.5,9.8l7.5,39.1l-18,23.3C120.7,623.8,105.3,591.3,89,555z"/>
<path class="chatting-man-4 fill-white" opacity=".05" d="M89,555c-9.7-2.7-16.5-5.6-19.7-7.9l25.4,504.9l0.2,2.7h43.8c0,0,75.6-458.7,81-503
	c-28.8,8.1-58.7,11.4-88.5,9.8l7.5,39.1l-18,23.3C120.7,623.8,105.3,591.3,89,555z"/>
<polyline class="chatting-man-2 fill-none stroke-dark" stroke-width="2.5" stroke-linecap="round" stroke-linejoin="round" points="123.9,1052.7 123.9,1084.9 184.7,1112.3 100.5,1112.3 100.5,1054.7 "/>
<polyline class="chatting-man-2 fill-none stroke-dark" stroke-width="2.5" stroke-linecap="round" stroke-linejoin="round" points="64.4,1010.9 36.8,1027.6 44.9,1093.8 1.3,1021.8 50.5,991.8 "/>
</svg>
