<?xml version="1.0" encoding="utf-8"?>
<!-- Generator: Adobe Illustrator 24.0.1, SVG Export Plug-In . SVG Version: 6.00 Build 0)  -->
<svg version="1.1" id="Layer_1" xmlns="http://www.w3.org/2000/svg" xmlns:xlink="http://www.w3.org/1999/xlink" x="0px" y="0px"
	 viewBox="0 0 128 126" style="enable-background:new 0 0 128 126;" xml:space="preserve">
<style type="text/css">
	.st0{opacity:0.5;fill:#BDC5D1;enable-background:new    ;}
	.st1{fill:#F4B20C;}
	.st2{fill:#FFC107;}
	.st3{fill:#FFFFFF;}
	
		.st4{opacity:0.5;fill:none;stroke:#BDC5D1;stroke-width:1.7303;stroke-linecap:round;stroke-linejoin:round;stroke-miterlimit:10;enable-background:new    ;}
	.st5{opacity:0.3;fill:#BDC5D1;enable-background:new    ;}
	
		.st6{opacity:0.5;fill:none;stroke:#377DFF;stroke-width:1.7303;stroke-linecap:round;stroke-linejoin:round;stroke-miterlimit:10;enable-background:new    ;}
	.st7{fill:none;stroke:#377DFF;stroke-width:1.7303;stroke-linecap:round;stroke-linejoin:round;stroke-miterlimit:10;}
</style>
<g>
	<path class="st0" d="M61.5,49.9c4.9-10.5,0.4-23-10.2-27.9s-23-0.4-27.9,10.2c-1.5,3.3-2.2,6.7-1.9,10c-0.2,12.8,8.6,26.6,8.6,26.6
		l3.5-7.4l0.5-1.1C44.5,64.8,56.7,60.3,61.5,49.9z"/>
	<path class="st1" d="M31.2,60.3l-3.5,7.4c0,0-12.8-20.1-7.2-34.2l19,8.9L31.2,60.3z"/>
	<circle class="st2" cx="40.1" cy="40" r="21"/>
	<path class="st3" d="M44.5,30.6L44.5,30.6c-1.4-0.7-3,0-3.6,1.5l-4.1,12.6c-0.3,1.1,1.1,1.7,1.7,0.8l7-11.2
		C46.4,33,45.9,31.2,44.5,30.6L44.5,30.6z"/>
	<circle class="st3" cx="36.2" cy="48.3" r="1.1"/>
</g>
<g>
	<path class="st4" d="M116.9,72.8c0.2,1.5,0,3-0.2,4.5"/>
	<path class="st4" d="M97.8,49.9c8.9,2.4,15.5,9,17.9,17.2"/>
	<path class="st5" d="M94.7,51.1c17,4.4,27.4,21.7,23,38.6c-2.3,8.7-7.9,15.8-15.2,19.9l-1.7,14.7l-11.5-10.7
		c-3.3,0.2-6.9,0-10.3-0.9c-17-4.4-27.4-21.7-23-38.6C60.3,57.1,77.7,46.9,94.7,51.1z"/>
	<path class="st3" d="M99.5,43.1c17,4.4,27.4,21.7,23,38.6c-2.3,8.7-7.9,15.8-15.2,19.9l-1.7,14.7l-11.5-10.7
		c-3.3,0.2-6.9,0-10.3-0.9c-17-4.4-27.4-21.7-23-38.6C65.1,49,82.6,38.7,99.5,43.1z"/>
	<circle class="st6" cx="102.7" cy="79.4" r="2.6"/>
	<circle class="st6" cx="91.6" cy="74.2" r="2.6"/>
	<circle class="st7" cx="80.5" cy="69" r="2.6"/>
</g>
<g>
</g>
<g>
</g>
<g>
</g>
<g>
</g>
<g>
</g>
<g>
</g>
<g>
</g>
<g>
</g>
<g>
</g>
<g>
</g>
<g>
</g>
<g>
</g>
<g>
</g>
<g>
</g>
<g>
</g>
</svg>
