<?xml version="1.0" encoding="utf-8"?>
<!-- Generator: Adobe Illustrator 23.0.3, SVG Export Plug-In . SVG Version: 6.00 Build 0)  -->
<svg xmlns="http://www.w3.org/2000/svg" xmlns:xlink="http://www.w3.org/1999/xlink" x="0px" y="0px"
	 viewBox="0 0 1312.5 838.9" style="enable-background:new 0 0 1312.5 838.9;" xml:space="preserve">
<style type="text/css">
	.communicating-men-0{fill:#E7EAF3;}
	.communicating-men-1{fill:#377DFF;}
	.communicating-men-2{fill:none;stroke:#1E2022;}
	.communicating-men-3{fill:#FFFFFF;}
	.communicating-men-4{fill:#1E2022;}
</style>
<path class="communicating-men-0 fill-gray-300" d="M195.8,170c3.5,5.8,24.4,42.6,23,72.1c-6.6-2.5-33.4-14.8-33.4-14.8l-1.7-10l-7.3-28.2l-4.1-10.8l-6.9-14.2
	l-4.5-6.2l12,2.8L195.8,170z"/>
<path class="communicating-men-0 fill-gray-300" d="M92.5,211.2c0-8.4,3,111.9,40.3,127c-20.1,5.8-52.8,1.3-52.8,1.3l-10.5-9.9l-3.1-7.5l-1.9-26.8v-9.5l0.1-15.8
	l1.5-22.9l1.3-8.1l4.6-10.5l1.9-3.7c0,0,5.3,1.6,7.3,1.6S92.5,214.9,92.5,211.2z"/>
<path class="communicating-men-4 fill-dark" d="M182.9,329c10,0,90.2,11.3,125.3,29.4c-4.8,23.5-36.4,162-36.4,162h-19.7c0,0-7.4-116.6-9-115.6
	c-10.6,5.5-52.8,19.3-97.9,19.9"/>
<path class="communicating-men-2 fill-none stroke-dark" stroke-width="2.5" stroke-linecap="round" stroke-linejoin="round" d="M205.3,184.8c6.9,4.9,17.5,14.3,19.9,18.2c27.2-33.8,71.9-67.9,75.6-71.8s4.8-25.9,4.8-30.7s6.6-17.6,13-17.6
	v57.5c0,0-74.9,105.1-87.2,105.1c-6.4,0-32.7-11-45.9-18.1"/>
<path class="communicating-men-2 fill-none stroke-dark" stroke-width="2.5" stroke-linecap="round" stroke-miterlimit="10" d="M160.5,158c20,2.9,46.3,15.9,46.3,21.1c0.1,6-12.9,28.9-23.1,38.3"/>
<path class="communicating-men-2 fill-none stroke-dark" stroke-width="2.5" stroke-linecap="round" stroke-miterlimit="10" d="M179.5,57.2c1.3-2.1,1.9-4.5,1.9-7c0-9-7.6-10.2-11-13c-3.7-3-2.1-12.1-12-12.1c-8.9,0-13.3,9.3-18.9,12.9
	c-6.9,4.4-20.4,0.9-29.2,10c-4.3,4.4-5.3,15.4-8,19.4c-3.7,5.4-10,7-10,15.3c0,5,3.5,12.9,8.2,16.3"/>
<path class="communicating-men-2 fill-none stroke-dark" stroke-width="2.5" stroke-linecap="round" stroke-miterlimit="10" d="M143.9,143.7c53.8,27.3,49.5,177.3,39,185.3c-11.5,8.8-105.5,13.1-114.1,0c-4-6.1-6.9-47.6-1.8-90.2"/>
<path class="communicating-men-2 fill-none stroke-dark" stroke-width="2.5" stroke-linecap="round" stroke-miterlimit="10" d="M92.4,158.2c6.2-8.4,13.8-14.5,22.7-17.2"/>
<path class="communicating-men-2 fill-none stroke-dark" stroke-width="2.5" stroke-linecap="round" stroke-miterlimit="10" d="M39.2,203.2c-15.1,17.3-37.9,61.5-37.9,69.4c0,20,67.5,108.1,76.1,108.1c3.6-6.2,9.3-19.1,9.3-19.1
	S46,286,38.6,276.2c6.4-6,29.8-37.5,33.6-47.2c0.5-1.3,0.9-2.7,1.2-4.1"/>
<path class="communicating-men-2 fill-none stroke-dark" stroke-width="2.5" stroke-linecap="round" stroke-miterlimit="10" d="M80.8,226.6c-7.6,0.5-43.9-18.9-43.9-28.4c0-7.6,39.7-48.8,56.8-39.4c2.4,1.3,4,3.8,5,6.9"/>
<path class="communicating-men-2 fill-none stroke-dark" stroke-width="2.5" stroke-linecap="round" stroke-miterlimit="10" d="M143.9,143.7v-12.6"/>
<path class="communicating-men-2 fill-none stroke-dark" stroke-width="2.5" stroke-linecap="round" stroke-miterlimit="10" d="M115.1,108.8v35.9c0,5.1,7.2,7.6,14.4,7.7"/>
<path class="communicating-men-2 fill-none stroke-dark" stroke-width="2.5" stroke-linecap="round" stroke-miterlimit="10" d="M143.9,131.1c1.1-0.1,2.3-0.2,3.4-0.5c14.8-3.5,22.7-23.8,17.6-45.5c-0.9-3.9-2.2-7.7-3.9-11.4"/>
<path class="communicating-men-2 fill-none stroke-dark" stroke-width="2.5" stroke-linecap="round" stroke-miterlimit="10" d="M110,88.5c-5,1.4-7.9,6.7-6.4,11.7c1.2,4,4.8,6.8,9,6.8c0.6,0,1.2-0.1,1.7-0.2c0.3,0.7,0.6,1.3,0.9,2"/>
<path class="communicating-men-4 fill-dark" d="M69.4,329v0.6c9.4,17.3,17.3,32,17.3,32s-5.7,12.9-9.3,19.1c-1.4,0-4.2-2.2-8-6v304.1h17.3L182.9,329
	C176.8,334.1,91.8,346.1,69.4,329z"/>
<path class="communicating-men-4 fill-dark" opacity=".1" d="M69.4,329v0.6c9.4,17.3,17.3,32,17.3,32s-5.7,12.9-9.3,19.1c-1.4,0-4.2-2.2-8-6v304.1h17.3L182.9,329
	C176.8,334.1,91.8,346.1,69.4,329z"/>
<polyline class="communicating-men-2 fill-none stroke-dark" stroke-width="2.5" stroke-linecap="round" stroke-linejoin="round" points="71.9,678.3 71.9,698.8 108.8,698.8 83.8,687.2 83.8,677.8 "/>
<polyline class="communicating-men-2 fill-none stroke-dark" stroke-width="2.5" stroke-linecap="round" stroke-linejoin="round" points="253.9,518.8 253.9,539.3 290.8,539.3 265.9,527.7 265.9,518.3 "/>
<path class="communicating-men-1 fill-primary" d="M539.6,0H418.3c-21.9,0-39.7,17.7-39.7,39.7c0,11.5,4.9,21.8,12.7,29.1v26.6l17.2-17.2c3.1,0.8,6.4,1.2,9.8,1.2
	h121.3c21.9,0,39.7-17.8,39.7-39.7S561.5,0,539.6,0z"/>
<circle class="communicating-men-3 fill-white" cx="438" cy="40.9" r="10"/>
<circle class="communicating-men-3 fill-white" cx="478.9" cy="40.9" r="10"/>
<circle class="communicating-men-3 fill-white" cx="519.9" cy="40.9" r="10"/>
<path class="communicating-men-2 fill-none stroke-dark" stroke-width="2" stroke-miterlimit="10" d="M980.9,152.3c0-22-17.8-39.7-39.7-39.7H819.9c-21.9,0-39.7,17.8-39.7,39.7S798,192,819.9,192h121.3
	c3.4,0,6.6-0.4,9.7-1.2l17.2,17.2v-26.5C976,174.2,980.9,163.8,980.9,152.3z"/>
<circle class="communicating-men-2 fill-none stroke-dark" stroke-width="3" stroke-miterlimit="10" cx="921.5" cy="153.6" r="10"/>
<circle class="communicating-men-2 fill-none stroke-dark" stroke-width="3" stroke-miterlimit="10" cx="880.5" cy="153.6" r="10"/>
<circle class="communicating-men-2 fill-none stroke-dark" stroke-width="3" stroke-miterlimit="10" cx="839.6" cy="153.6" r="10"/>
<path class="communicating-men-0 fill-gray-300" d="M1108.1,225.8c0,8.4-7.7,98.4-26.7,106.2c14.4-7.7,36.4-19.3,43.7-28.5c0.5-5.8,2.5-29.8,3.5-33.2
	c1-3.4,5-31.5,10.1-42.2c5-10.7,6.2-15,6.2-15l3.5-6.8l3.9-6.3l3.9-5.8l1.4-2l-1.8-0.4l-3.5-0.1l-4.5,1l-5.8,2.8l-6.9,4.2l-4.9,3.5
	l-4.7,3.9l-4.9,4.8l-5,5.5l-7.1,8.2"/>
<path class="communicating-men-0 fill-gray-300" d="M1239.8,292.4c0,3.4-22,112.5-58.7,112.5c41.4,3.8,62-1.6,62-1.6l7.3-6.5l2.5-7.3c0,0,2-20.4,2-22.3
	c0.1-2.9,0.5-9.6,0.5-9.6l0.6-12.6l1.6-31.5l-6.5-10.6l-4.4-10.8L1239.8,292.4z"/>
<path class="communicating-men-2 fill-none stroke-dark" stroke-width="2.5" stroke-linecap="round" stroke-miterlimit="10" d="M1255,202.1c-8.6-11.3-22.8-21.7-42.6-25.8"/>
<path class="communicating-men-2 fill-none stroke-dark" stroke-width="2.5" stroke-linecap="round" stroke-miterlimit="10" d="M1252.3,392.8c2.5-10.7,3.4-41.6,5.5-79.2"/>
<path class="communicating-men-2 fill-none stroke-dark" stroke-width="2.5" stroke-linecap="round" stroke-miterlimit="10" d="M1180.6,176.6c-71.3,29.7-55.5,207.2-50.6,219.6c8.3,21.2,111.2,6,120.4,0.4"/>
<path class="communicating-men-2 fill-none stroke-dark" stroke-width="2.5" stroke-linecap="round" stroke-miterlimit="10" d="M1225.2,140.1c-8.2,10.1-13.9,41.1-14,44.6c-1.3,2.1-7.4,2.8-13.6,2.9"/>
<path class="communicating-men-2 fill-none stroke-dark" stroke-width="2.5" stroke-linecap="round" stroke-miterlimit="10" d="M1100.8,253.3c-11.6,10.1-34.4,35.8-36.3,39c-5.8-2.8-66.1-34.5-70.7-36.5c-4.5-2-14.1-18-17.4-18
	c-1.9,0-3.7,3.7-3.7,6.2c0,4.3,2,7.6,3.3,8.9c-4.3-0.6-42.1-3.5-42.1-1c0,6.5,42.3,15.2,45.6,17s72.2,65.5,96.1,65.5
	c9.3,0,50.1-28,50.1-31"/>
<polyline class="communicating-men-2 fill-none stroke-dark" stroke-width="2.5" stroke-linecap="round" stroke-miterlimit="10" points="1244.6,816.7 1244.6,837.7 1191.4,837.7 1225.3,816.7 "/>
<line class="communicating-men-2 fill-none stroke-dark" stroke-width="2.5" stroke-linecap="round" stroke-miterlimit="10" x1="1244.6" y1="816.7" x2="1244.6" y2="787.5"/>
<line class="communicating-men-2 fill-none stroke-dark" stroke-width="2.5" stroke-linecap="round" stroke-miterlimit="10" x1="1225.6" y1="816.7" x2="1225.6" y2="787.5"/>
<polyline class="communicating-men-2 fill-none stroke-dark" stroke-width="2.5" stroke-linecap="round" stroke-miterlimit="10" points="1016.6,693.3 1016.6,714.2 963.6,714.2 997.4,693.3 "/>
<line class="communicating-men-2 fill-none stroke-dark" stroke-width="2.5" stroke-linecap="round" stroke-miterlimit="10" x1="1016.6" y1="700.9" x2="1016.6" y2="671.7"/>
<line class="communicating-men-2 fill-none stroke-dark" stroke-width="2.5" stroke-linecap="round" stroke-miterlimit="10" x1="997.7" y1="693.3" x2="997.7" y2="669.3"/>
<polyline class="communicating-men-2 fill-none stroke-dark" stroke-width="2" stroke-linecap="round" stroke-miterlimit="10" points="918.3,837.7 918.3,715.5 1057.7,715.5 1057.7,837.7 "/>
<path class="communicating-men-2 fill-none stroke-dark" stroke-width="2.5" stroke-linecap="round" stroke-miterlimit="10" d="M1247,293c1.1,6.9,27.6,48.6,30.7,52.3c-6.7,5.8-43.8,87-46.7,92.3c0,3,9.1,13,12.3,16.2
	c5.5,0,67.9-80.2,67.9-89.3s1-68.3-15.7-93.8"/>
<path class="communicating-men-2 fill-none stroke-dark" stroke-width="2.5" stroke-linecap="round" stroke-miterlimit="10" d="M1239.5,291.7c9.1,3.9,53.1-9.3,56.7-22.7c3.8-19.8-25.9-76.7-52.4-66"/>
<path class="communicating-men-1 fill-primary" d="M1243.2,453.9c-3.3-3.3-12.3-13.2-12.3-16.2c1.4-2.4,9.9-21,19.5-40.8c-23.7,6.4-82.6,11.2-104.2,6.3
	c-5.8-1.3-11.6-4-16.2-6.8c-5.7,3.7-89,62-127.6,119.1c-2,4.5-5,154-5,154l30.6,2.6l27.3-127.3c4.4,0,64-22.8,106.7-50l50.6,292.9
	h32.9l7.2-342.3C1247.9,450.5,1244.3,453.9,1243.2,453.9z"/>
<path class="communicating-men-2 fill-none stroke-dark" stroke-width="2.5" stroke-linecap="round" stroke-miterlimit="10" d="M1155.9,47.1c0,34,85.9,25.2,85.9,68.8c0,18.9-10.3,23.4-16.4,23.4"/>
<path class="communicating-men-2 fill-none stroke-dark" stroke-width="2.5" stroke-linecap="round" stroke-miterlimit="10" d="M1151.4,57.4c0,3.8,4.8,14.4,18.6,27.5"/>
<path class="communicating-men-2 fill-none stroke-dark" stroke-width="2.5" stroke-linecap="round" stroke-miterlimit="10" d="M1179.1,93.2c-1.5,5-15.4,29.5-15.4,32.5s6.9,6.9,6.9,9.1c0,2.1-2.8,13.3,11.1,22.5c-0.6,4.2-1.1,19.3-1.1,19.3
	"/>
<circle cx="1183.7" cy="112.4" r="1.9"/>
<circle cx="145.2" cy="88.5" r="1.9"/>
<path class="communicating-men-2 fill-none stroke-dark" stroke-width="2.5" stroke-linecap="round" stroke-miterlimit="10" d="M1179.1,140.9c-2.5,1.1-5.2,1.9-7.9,2.3"/>
<path class="communicating-men-2 fill-none stroke-dark" stroke-width="2.5" stroke-linecap="round" stroke-miterlimit="10" d="M158,114.2c-2.8-0.4-5.4-1.1-7.9-2.3"/>
<path class="communicating-men-2 fill-none stroke-dark" stroke-width="2.5" stroke-linecap="round" stroke-miterlimit="10" d="M1158.8,192.5c-18.1-6.9-60.2,38.4-61,56c3.3,8.7,20.4,19.5,31.6,25.4"/>
<polyline class="communicating-men-2 fill-none stroke-dark" stroke-width="2.5" stroke-linecap="round" stroke-miterlimit="10" points="346,835.8 346,540.2 202.3,540.2 202.3,835.8 "/>
<polyline class="communicating-men-2 fill-none stroke-dark" stroke-width="2.5" stroke-linecap="round" stroke-miterlimit="10" points="160.3,835.8 160.3,698.8 16.5,698.8 16.5,835.8 "/>
</svg>
