<?xml version="1.0" encoding="utf-8"?>
<!-- Generator: Adobe Illustrator 23.0.3, SVG Export Plug-In . SVG Version: 6.00 Build 0)  -->
<svg version="1.1" id="Layer_1" xmlns="http://www.w3.org/2000/svg" xmlns:xlink="http://www.w3.org/1999/xlink" x="0px" y="0px"
	 viewBox="0 0 1070.4 548.5" style="enable-background:new 0 0 1070.4 548.5;" xml:space="preserve">
<style type="text/css">
	.st0{fill:#DDE3E9;}
	.st1{fill:none;stroke:#1E2022;stroke-width:2;stroke-miterlimit:10;}
	.st2{fill:#FF9B21;}
	.st3{fill:#89C5CC;}
	.st4{fill:#2B44FF;}
	.st5{fill:#FFFFFF;enable-background:new    ;}
	.st6{fill:#FFFFFF;}
	.st7{fill:#B28B67;}
	.st8{fill:#191847;}
	.st9{fill:#997659;}
	.st10{fill:#E4E4E4;}
	.st11{fill:#69A1AC;}
	.st12{fill:#EFA02E;}
	.st13{opacity:0.2;enable-background:new    ;}
	.st14{opacity:0.2;fill:#FFFFFF;enable-background:new    ;}
	.st15{fill:#2F3676;}
	.st16{fill:#C1DEE2;}
</style>
<g>
	<circle class="st0" cx="532.9" cy="269.3" r="47.9"/>
	<circle class="st1" cx="542.8" cy="255" r="47.9"/>
	<path class="st2" d="M476.2,179.5l-38.6-64.6c10.5-13.4,8.2-32.7-5.1-43.3c-13.4-10.5-32.7-8.2-43.3,5.1
		c-10.5,13.4-8.2,32.7,5.1,43.3c8.7,6.8,20.3,8.5,30.6,4.4L476.2,179.5z"/>
	<path class="st3" d="M599.9,172.1l53.4-53.1c15.5,7,33.7,0.1,40.7-15.4s0.1-33.7-15.4-40.7c-15.5-7-33.7-0.1-40.7,15.4
		c-4.5,10.1-3.3,21.8,3.2,30.7L599.9,172.1z"/>
	<path class="st2" d="M637.1,290.3l64.4,38.9c-3,16.7,8.1,32.8,24.8,35.8s32.8-8.1,35.8-24.8c3-16.7-8.1-32.8-24.8-35.8
		c-10.9-2-22,2-29.1,10.5L637.1,290.3z"/>
	<path class="st3" d="M531.4,355l-22.2,71.9c-17,1.1-29.8,15.8-28.7,32.8c1.1,17,15.8,29.8,32.8,28.7c17-1.1,29.8-15.8,28.7-32.8
		c-0.7-11-7.3-20.8-17.2-25.7L531.4,355z"/>
	<path class="st4" d="M443.1,268l-75.1-4.2c-5.2-16.2-22.5-25.1-38.7-19.9s-25.1,22.5-19.9,38.7c5.2,16.2,22.5,25.1,38.7,19.9
		c10.5-3.4,18.4-12.1,20.7-22.9L443.1,268z"/>
	<path class="st5" d="M679.8,92.3c-0.4-1.1-1.2-1.9-2.2-2.5c-0.6-0.4-1.3-0.6-2-0.8c0.5-0.2,0.9-0.5,1.3-0.9c0.6-0.5,1-1.2,1.2-1.9
		c0.2-0.7,0.3-1.5,0.3-2.3c0-1.3-0.4-2.6-1-3.7c-0.8-1-1.8-1.8-3-2.2c-1.1-0.4-2.4-0.7-3.6-0.7v-5.2l-3.2,2v3.2h-2.5V74l-3.2-1.9
		v5.2H655l2.2,3.9c0.5,0,0.9,0,1.4,0.2c0.2,0.1,0.4,0.3,0.5,0.5c0.1,0.5,0.2,0.9,0.1,1.4v14.1c0,0.5,0,1-0.1,1.4
		c-0.1,0.2-0.2,0.4-0.4,0.5c-0.2,0.1-0.3,0.1-0.9,0.1h0l-2.8,3.9h6.9v5.2h3.2v-5.2h2.5v5.2h3.2v-5.3c1.6,0,3.2-0.3,4.7-0.8
		c1.4-0.5,2.6-1.4,3.5-2.6c0.8-1.3,1.2-2.7,1.2-4.2C680.3,94.6,680.1,93.4,679.8,92.3z M665.1,81.7L665.1,81.7l0-0.1h2.2
		c1.2,0,5.4-0.4,5.4,3.1c0.1,3.5-5.4,3.3-5.4,3.3h-2.2v-0.3h0V81.7z M665.1,91.7h2.5c0.5,0,2.3,0.1,2.9,0.1c0.3,0,0.5,0.1,0.8,0.1
		c0.1,0,0.2,0.1,0.3,0.1c0.4,0.1,0.8,0.3,1.1,0.6c0.2,0.1,0.4,0.3,0.6,0.5c0.2,0.3,0.4,0.7,0.5,1.1c0.1,0.3,0.1,0.6,0.1,0.9
		c0,0.6-0.1,1.1-0.4,1.6c-0.4,0.6-1,1.2-1.7,1.5c-1.3,0.5-2.7,0.8-4.1,0.8h-2.5L665.1,91.7z"/>
	<path class="st5" d="M354.4,263.1v20.4c0,1.5-1.3,2.6-2.6,2.6h-27c-1.5,0-2.6-1.3-2.6-2.6v-20.4c0-1.5,1.3-2.6,2.6-2.6h27
		C352.9,260.4,354.4,261.5,354.4,263.1z M324,263.1v3.9h28.1v-3.9c0-0.3-0.3-0.6-0.6-0.6h-27C324.3,262.5,324,262.8,324,263.1z
		 M352.1,283.8v-10.4H324v10.4c0,0.3,0.3,0.6,0.6,0.6h27C351.8,284.5,352.1,284,352.1,283.8z M326.4,280h4.4v2.1h-4.4V280z
		 M332.9,280h6.5v2.1h-6.5V280z"/>
	<path class="st6" d="M743.9,327.7l-13.2,27.8c0,0.4-0.4,0.4-0.9,0.4c0,0,0,0-0.4,0s-0.9-0.4-0.9-1.3l4.6-19.2l-9.9,2.4
		c0,0,0,0-0.4,0c-0.4,0-0.4,0-0.9-0.4s-0.4-0.4-0.4-0.9l4.6-19.6c0-0.4,0.4-0.9,0.9-0.9h7.9c0.4,0,0.9,0.4,0.9,0.9v0.4l-4.2,11.2
		l9.5-2.4c0,0,0,0,0.4,0c0.4,0,0.4,0,0.9,0.4C743.9,326.8,743.9,327.2,743.9,327.7z"/>
	<path class="st6" d="M520.8,472.2c0,0.4,0,0.8-0.4,0.8c0,0-2.2,0.8-4.7,0.8c-6.9,0-13-4.3-14.6-10.8h-2.2c-0.4,0-0.8-0.4-0.8-0.8
		v-2.6c0-0.4,0.4-0.8,0.8-0.8h1.2c0-0.8,0-1.8,0-2.6h-1.8c-0.4,0-0.8-0.4-0.8-0.8v-2.6c0-0.4,0.4-0.8,0.8-0.8h2.2
		c2.2-6.5,7.7-10.4,14.6-10.4c2.2,0,4.3,0.4,4.3,0.4s0.4,0,0.4,0.4v0.4l-0.8,3.5c0,0.4-0.4,0.4-0.8,0.4c0,0-1.8-0.4-3.1-0.4
		c-3.9,0-6.9,2.2-8.7,5.7h10.8c0.4,0,0.4,0,0.4,0.4v0.4l-0.4,2.6c0,0.4-0.4,0.4-0.8,0.4h-11.2c0,0.8,0,1.2,0,2.6h10.4
		c0.4,0,0.4,0,0.4,0.4v0.4l-0.4,2.6c0,0.4-0.4,0.4-0.8,0.4h-8.7c1.2,3.5,4.7,5.7,8.7,5.7c2.2,0,3.5-0.4,3.5-0.4h0.4l0.4,0.4
		L520.8,472.2z"/>
	<path class="st6" d="M416.5,110.4v3.8c0,0.4-0.4,0.8-0.8,0.8h-3c-0.4,0-0.8-0.4-0.8-0.8v-3.8c-5.2-0.8-8-3.8-8.6-4.2
		s-0.4-0.8,0-0.8l2.6-3l0.4-0.4h0.4c0,0,3.4,3,7.2,3c2.2,0,4.6-1.2,4.6-3.8c0-2.2-2.6-3.4-6-4.6c-4.2-1.8-9.4-3.8-9.4-9.4
		c0-4.2,3.4-7.6,8-8.6v-4.2c0-0.4,0.4-0.8,0.8-0.8h3c0.4,0,0.8,0.4,0.8,0.8v3.8c4.6,0.4,7.2,3,7.2,3c0.4,0.4,0.4,0.4,0,0.8l-1.8,3.4
		l-0.4,0.4c-0.4,0-0.4,0-0.4,0s-3-2.6-6.4-2.6c-3,0-4.6,1.2-4.6,3.4c0,2.6,3,3.4,6,4.6c4.2,1.8,9,3.4,9,9
		C424.7,105.8,421.3,109.6,416.5,110.4z"/>
</g>
<g>
	<g id="Head-5" transform="translate(60.75 -34.875)">
		<path id="Head-6" class="st7" d="M913.8,277.9l-7.8-36.1c4.3-5.1,7.3-11.3,6.8-18.3c-1.4-20.1-29.4-15.7-34.8-5.5
			c-5.4,10.1-4.8,35.8,2.2,37.7c2.8,0.7,8.8-1,14.8-4.7l-3.8,27h22.6V277.9z"/>
	</g>
	<path id="Hair" class="st8" d="M955.7,214.9c1.5-4.6,2.1-17.7,2.2-21.6c0.2,0,0.4,0,0.7,0c3.1,0,5.6,2.5,5.6,5.6c0,1.5-0.6,3-1.7,4
		c1.3,1.8,2.8,3.8,4.4,5.7c6.3-3.8,11-14.8,4.8-25.4c-1.7-5.2-5.5-8-10.1-9.3c-3.4-1.5-7.2-1.7-10.7-0.8c-6.3,0.5-12,2.5-13.6,3.6
		c0,6,1.2,7.8,11.1,7.6c2.4,1.3,4.3,3.5,6.3,6.4c0,0.2-1.3,18-6.8,18s-10.3-3.5-12.7-3.5c-1.8,0-1.4,2.2-0.2,3.9
		c1,1.4,5.7,2.7,5.7,4.8c0,1.2-1.2,1.2-2.2,1.2c-0.8,0-1.5,0-1.5,0.5c0,2.1-0.7,6,2.9,6C943.5,221.6,953.9,220.3,955.7,214.9z"/>
	<path id="Leg-4" class="st9" d="M994.3,324.1L959,439.6l-17.1,98.2h-13.4l18-213.7L994.3,324.1L994.3,324.1z"/>
	<path id="Leg-5" class="st7" d="M1006.9,324.1c-2.4,63.4,0.4,96.1,1,101.9c0.5,5.8,7.9,43.1,25.3,113.8l-14.3-4.9
		c-27.5-64.8-36.8-98.5-40-107c-3.1-8.5-11.5-43.1-25.1-103.8L1006.9,324.1L1006.9,324.1z"/>
	<path id="shoe-3" class="st10" d="M1030.4,533.5c1-0.3,2,0.2,2.3,1.2v0.1l1.8,6.3c-0.1,2.5-0.4,5-0.8,7.4h-52.3c0,0-2-6.8,2.4-7.4
		s7.3-1,7.3-1l24.3-11c0.5-0.2,1,0,1.2,0.5l0,0l1.6,3.8c0,0,4.1,1.9,6.6,1.9L1030.4,533.5z"/>
	<path id="shoe-4" class="st10" d="M942.3,533.5c1-0.3,2,0.2,2.3,1.2v0.1l1.8,6.3c-0.1,2.5-0.4,5-0.8,7.4h-52.3c0,0-2-6.8,2.4-7.4
		s7.3-1,7.3-1l24.3-11c0.5-0.2,1,0,1.2,0.5l0,0l1.6,3.8c0,0,4.1,1.9,6.6,1.9L942.3,533.5z"/>
	<path id="Bottom-3" class="st11" d="M999,324.1l-15,58.8h-45.8l6.8-58.8H999z"/>
	<path id="Bottom-4" class="st3" d="M1007.4,324.1c7.4,22.2,2.8,58.8,2.8,58.8h-46.7l-12.9-58.8H1007.4z"/>
	<path id="Skin-3" class="st7" d="M1069.6,379.6c0.9-0.8,1.7-3.3-1.3-4.8c-7.5-3.7-18.5-10.5-20.2-13c-3.5-5.1-20.3-57.6-20.3-57.6
		l-19.4,2.8c0,0,26.1,55.4,28.1,58.8c2.9,5-0.5,13.8-1.8,18.4c3.3,0.9,4.4-1,5.8-3c1.4-2.1,3-4.2,7.4-2.9c5.6,1.7,10.5,5,15.7,4.3
		C1065.8,382.2,1067.9,381.2,1069.6,379.6z M896.2,350.8l25.1-20l-10.9-13.9l-22.7,29.3c-7.2,4.3-13,8.8-17.3,13.4
		c-0.9,1.5-1.8,4.2,3.3,2.3c5-1.9,10.4-3.6,11.6-2.1s-1.3,4.5,0.8,6.5c0.2,0.2,0.4,0.2,0.6,0.2C888.3,366.5,891.5,361.2,896.2,350.8
		z"/>
	<path id="Coat_Back" class="st12" d="M961.2,230.6l-8.2-0.2c-9,36.4-28.7,71.2-59.3,104.2l30.5,27.9
		C953,317.5,968.5,273.1,961.2,230.6z"/>
	<path id="Shirt" class="st0" d="M1010.4,326.5l-71.6,10c0,0,16.4-63.9,10.5-106l21.1-6.2C991.2,249.1,1000.7,282,1010.4,326.5z"/>
	<path id="Coat_Front" class="st12" d="M1047.2,352.5c-20.2-87-76.3-128.3-76.3-128.3l0,0l0,0l-1.4,0.2c-2.5,0.4-7.7,1.4-7.7,1.4
		l-3.1,15.6c3,27.3,5.7,111,5.7,111l46.8-6.6c0.5,3.8,0.8,7.6,1.1,11.6L1047.2,352.5z"/>
	<path id="Shade-3" class="st13" d="M998.3,348.1l13-1.8c-1.8-15.4-5.2-30.6-10-45.4c0.6,8.7,0.8,17.4,0.5,26.1
		C1001.4,336.4,1000.2,343.5,998.3,348.1L998.3,348.1z"/>
	<path id="Light-3" class="st14" d="M996.9,318.9l-24.6-7.5l1.5,10.7L996.9,318.9z"/>
</g>
<g>
	<g>
		<path id="Hair_Back" class="st8" d="M74.7,249c9.8,0,13.4-11.8,19-18.2c4-4.6,10.8-3.2,12.8-9.7c5.1-16.3-8.5-27.7-26.2-27.7
			s-29.7,10-32.2,25.1C45.4,233.6,57,249,74.7,249z"/>
		<path id="Head-2" class="st7" d="M68.7,271.6l7.1-33.1c-4-4.7-6.6-10.4-6.2-16.7c1.3-18.4,26.9-14.4,31.9-5.1
			c5,9.3,4.4,32.8-2,34.5c-2.6,0.7-8-1-13.6-4.3l3.5,24.7H68.7z"/>
		<path id="Hair_1_" class="st8" d="M75.3,240.8L75.3,240.8c-1.1,0-3-1.1-4.8-2.9c-2.2-2.1-3.9-4.7-5-7.5c-1.4-3.2-1.8-6.7-1.1-10.2
			c0.8-4,3-7.9,6.6-11.4c3.4-3.5,8.1-5.5,13-5.5c6.1,0,11.3,2.9,13.8,4.6c3.5,2.4,6.1,5.4,6.3,7.3c0.1,0.7-0.4,1.4-1.1,1.5
			c0,0-0.1,0-0.1,0c-4.2,0.8-12.1,4.7-18.2,9.9c-0.8-0.4-1.6-0.6-2.5-0.6c-2.9,0-5.3,2.3-5.3,5.2c0,1.1,0.4,2.2,1.1,3.1
			C76.5,236.3,75.6,238.5,75.3,240.8z"/>
	</g>
	<path id="Leg" class="st9" d="M61.8,343l32.4,105.8l15.7,90h12.3L105.5,343H61.8z"/>
	<path id="Leg-2" class="st7" d="M50.2,343c2.2,58.1-0.4,88-0.9,93.3s-7.2,39.5-23.2,104.2l13.1-4.5c25.2-59.3,33.8-90.2,36.7-98
		c2.9-7.8,10.6-39.5,23-95H50.2z"/>
	<path id="shoe" class="st10" d="M28.6,534.8c-0.9-0.3-1.9,0.2-2.2,1.1c0,0,0,0.1,0,0.1l-1.6,5.8c0.1,2.3,0.4,4.5,0.8,6.8h48.5
		c0,0,1.9-6.2-2.2-6.7c-4.1-0.5-6.8-0.9-6.8-0.9l-22.5-10c-0.4-0.2-0.9,0-1.1,0.4c0,0,0,0,0,0l-1.4,3.5c0,0-3.8,1.8-6.1,1.8
		L28.6,534.8z"/>
	<path id="shoe-2" class="st10" d="M109.5,534.8c-0.9-0.3-1.9,0.2-2.2,1.1c0,0,0,0.1,0,0.1l-1.6,5.8c0.1,2.3,0.4,4.5,0.8,6.8h48.5
		c0,0,1.9-6.2-2.2-6.7c-4.1-0.5-6.8-0.9-6.8-0.9l-22.5-10c-0.4-0.2-0.9,0-1.1,0.4c0,0,0,0,0,0l-1.4,3.5c0,0-3.8,1.8-6.1,1.8
		L109.5,534.8z"/>
	<path id="Bottom" class="st11" d="M57.5,343l13.8,53.9h42L107,343H57.5z"/>
	<path id="Bottom-2" class="st3" d="M49.7,343c-6.8,20.4-2.6,53.9-2.6,53.9H90l11.8-53.9H49.7z"/>
	<g>
		<path id="Skin" class="st7" d="M1.1,406.6c-1-0.6-2-2.8,0.5-4.6c6.3-4.3,15.4-11.9,16.7-14.4c2.5-5.1,11.1-54.9,11.1-54.9l18,0.1
			c0,0-16.6,53.7-18,57c-2,4.9,2.2,12.4,4,16.5c-2.8,1.3-4.2-0.4-5.6-2c-1.5-1.7-3.2-3.5-7-1.7c-4.9,2.3-8.9,5.9-13.7,5.9
			C4.9,408.4,2.8,407.8,1.1,406.6z M154.7,358.3l-25.3-14.9l8.1-14l24.4,23.8c6.2,2.5,12.1,5.9,17.4,10c1,1.2,2.1,3.6-2.7,2.5
			c-4.8-1.1-9.9-1.9-10.8-0.4c-0.9,1.6,1.8,3.9,0.1,6c-0.1,0.2-0.3,0.2-0.5,0.2C163.9,371.5,160.3,367.1,154.7,358.3L154.7,358.3z"
			/>
		<path id="Coat_Back_1_" class="st8" d="M80.4,257.3l7.4-1.3c12.8,32,35.2,61,67.1,87.1l-24.1,29.3
			C98.9,335.2,79.3,296.9,80.4,257.3z"/>
		<path id="Shirt_1_" class="st0" d="M48,350.7h66.2c0,0-23-55.9-23-95.1l-20-3C55.5,277.9,51.1,309,48,350.7z"/>
		<path id="Coat_Front_1_" class="st15" d="M17.9,379.1c7.2-81.7,52.9-126.4,52.9-126.4l0,0l0,0h1.3c2.3,0.1,7.1,0.3,7.1,0.3
			l4.8,13.8C84.9,292,93,368.5,93,368.5H49.7c0.1,3.5,0.2,7.1,0.5,10.7L17.9,379.1z"/>
		<path id="Shade" class="st8" d="M61.8,368.8H49.7c-0.3-14.3,0.8-28.5,3.3-42.6c0.6,8,1.5,15.9,2.9,23.8
			C57.5,358.6,59.4,364.9,61.8,368.8L61.8,368.8z"/>
		<path id="Light_1_" class="st8" d="M59.3,342.1l21.4-9.9v9.9H59.3z"/>
	</g>
</g>
<g id="Corner_Plants-3" transform="translate(1254 720) rotate(180)">
	<path id="Fill_10" class="st11" d="M261.4,719.6c-2,0.3-4,0.5-6,0.4c-10.6-0.2-20.7-5-27.6-13c-5.7-6.8-7.3-15.2-8.4-23.7
		c-0.1-0.8-0.2-1.7-0.2-2.5c0-0.2,0-0.3-0.1-0.5c-0.4-0.4-0.7-0.9-0.4-1.4c-1-2.1-1.8-4.3-2.5-6.6c-2.1-6.7-4.2-13.4-2.9-20.4
		c0.3,3.9,0.9,7.8,1.7,11.6c0,0.2,0.1,0.4,0.1,0.6c0,0,0,0,0,0.1c0.3,1.2,0.6,2.3,1.1,3.4c0,0,0,0,0,0c0.1,0.1,0.1,0.3,0.2,0.4
		c0.1,0.3,0.3,0.6,0.4,0.9c0,0.1,0.1,0.2,0.1,0.3c0.6,1.5,0.9,3.3,1.5,4.9c0.1,0.4,0.3,0.7,0.4,1.1l0,0.1c0.4,1,0.8,1.9,1.3,2.9
		c0.3,0.3,0.5,0.7,0.6,1.1c0.2,0.3,0.4,0.6,0.5,1c0.3,0.5,0.5,1.1,0.8,1.6l0,0c0.3,0.5,0.5,1,0.8,1.5l0.2,0.3l0.3,0.5
		c0.9,1.6,1.9,3.3,2.9,4.8c0.4,0.6,1.2,1.4,1.4,2c0,0,0,0,0,0.1c2.2,3.1,4.8,5.9,7.8,8.2c-0.4-0.4-1.2-1.7-1.4-2
		c-0.6-0.8-1.3-1.6-2-2.3c-1.2-1.4-2.4-2.8-3.5-4.3c-1.9-2.7-3.7-5.6-5.2-8.6c0,0,0,0,0-0.1c-0.8-1-1.3-2.5-1.9-3.6
		c2.3,1.1,4.8,1.7,7.2,2.7c2.3,0.9,4.6,2,6.8,3.2c3,1.6,5.9,3.5,8.7,5.5c3.2,2,5.8,4.6,8.2,7.5c2.8,3.3,5.3,6.7,6.9,10.8
		c0.8,2,1.4,4.1,1.7,6.2c0,0.1,0,0.2,0.1,0.3c0.4,0.7,0.7,1.5,1,2.2C262.3,717.9,263.3,719.2,261.4,719.6"/>
	<path id="Fill_1" class="st16" d="M316.5,671.3c0.4-1.4,0.1-2.6-1.6-2.3c-0.5,0.1-1,0.3-1.5,0.4c-2.8,0.8-5.5,1.6-8.3,2.4
		c-5.3,1.4-10.8,2.1-16.2,2.7c-4.3,0.5-8.6,0.7-13,0.6c-5.3-0.2-10.5-1.3-15.7-2.5c-5.4-1.2-10.7-2.8-15.9-4.7
		c-5.7-2.3-11.3-5-16.5-8.3c-13.1-8-24.9-17.9-35.1-29.3c-1.5-1.6-2.9-3.3-4.4-4.9c-1.1-1.2-2.1-2.5-3.2-3.8c-0.9-1-2-0.4-1.3,0.8
		c0.8,1.4,2.2,2.6,3.2,3.9c0.9,1.1,1.9,2.2,2.8,3.2c1.1,1.3,2.2,2.5,3.3,3.8c5.2,5.8,10.8,11.2,16.7,16.3c4.5,3.8,9.3,7.3,14.3,10.4
		c5.7,3.7,11.8,7.5,18.3,9.7c0.1,0.1,0.2,0.2,0.2,0.3c-1.3,1.1,2.6,5,3.3,5.8c1.8,1.9,3.7,3.7,5.8,5.4c1.6,1.4,3.4,2.6,5.4,3.5
		c2.9,1.4,6,2.3,9.1,2.8c5.5,1,11.2,1.4,16.8,1c10.2-0.8,20.3-4,28.4-10.6C313.7,676,315.8,673.8,316.5,671.3z"/>
	<path id="Fill_20" class="st3" d="M235.5,660.5c4.2,0,8-0.6,11.9-2.2c3.3-1.5,6.5-3.3,9.4-5.5c4.2-3,7.5-6.4,9.8-10.9
		c1.4-2.7,2.4-6.6,1.5-9.5c-1.1-3.5-4.1-6.4-8.1-5.8c-2.4,0.4-4.7,2-6.5,3.5c-2.2,1.8-4,4-5.5,6.5c-2.4,4-3.8,8.5-5.8,12.6
		c-1,2-1.9,4-3.1,5.8c-0.5,1-1.2,1.8-2.1,2.5c-0.5,0.4-2.4,1-1.7,1.8c-11-0.1-20.7-8.6-22.9-19.1c-0.2-1-0.4-2-0.5-2.9
		c-0.1-0.6-0.1-2.9-0.6-3.3c-1.2-0.9-0.7,1.8-0.7,2.2c0.1,1,0.3,2,0.4,3c0.8,5.4,3.3,10.4,7.2,14.2
		C222.9,657.7,229.1,660.5,235.5,660.5z"/>
</g>
<g id="Corner_Plants-4" transform="translate(-58 240)">
	<path id="Fill_10-2" class="st11" d="M101.6-143.3c-1.6,0.3-3.3,0.3-5,0.3c-8.8-0.2-17-4.1-22.7-10.7c-4.7-5.6-6-12.5-6.9-19.5
		c-0.1-0.7-0.1-1.4-0.2-2.1c0-0.1,0-0.3,0-0.4c-0.4-0.3-0.6-0.7-0.3-1.1c-0.8-1.8-1.5-3.6-2.1-5.4c-1.7-5.5-3.5-11.1-2.4-16.8
		c0.3,3.2,0.8,6.4,1.4,9.5c0,0.2,0.1,0.4,0.1,0.5c0,0,0,0,0,0.1c0.2,1,0.5,1.9,0.9,2.8c0,0,0,0,0,0c0,0.1,0.1,0.2,0.1,0.4
		c0.1,0.2,0.2,0.5,0.3,0.7c0,0.1,0.1,0.2,0.1,0.3c0.5,1.3,0.7,2.7,1.2,4c0.1,0.3,0.2,0.6,0.3,0.9l0,0.1c0.3,0.8,0.7,1.6,1.1,2.4
		c0.2,0.3,0.4,0.6,0.5,0.9c0.2,0.3,0.3,0.5,0.4,0.8c0.2,0.4,0.5,0.9,0.7,1.3l0,0c0.2,0.4,0.5,0.8,0.7,1.2l0.2,0.3l0.2,0.4
		c0.8,1.4,1.6,2.7,2.4,4c0.3,0.5,1,1.1,1.1,1.7c0,0,0,0,0,0.1c1.8,2.6,3.9,4.8,6.4,6.7c-0.3-0.3-0.9-1.4-1.1-1.7
		c-0.5-0.7-1.1-1.3-1.7-1.9c-1-1.1-2-2.3-2.9-3.5c-1.6-2.3-3-4.6-4.3-7.1c0,0,0,0,0,0c-0.7-0.8-1.1-2-1.6-3c1.9,0.9,4,1.4,5.9,2.2
		c1.9,0.8,3.8,1.6,5.6,2.6c2.5,1.4,4.9,2.9,7.2,4.6c2.6,1.6,4.8,3.8,6.7,6.1c2.3,2.8,4.4,5.5,5.7,8.9c0.6,1.6,1.1,3.3,1.4,5.1
		c0,0.1,0,0.2,0,0.2c0.3,0.6,0.6,1.2,0.8,1.8C102.3-144.7,103.2-143.6,101.6-143.3"/>
	<path id="Fill_1-2" class="st16" d="M121.6-180.4c-1.5,1.6-3.8,2.5-6,3c-8.4,1.9-16.9,0.6-24.8-2.4c-4.3-1.7-8.4-4.1-12.1-6.8
		c-2.2-1.5-4.1-3.3-5.7-5.4c-1.1-1.4-2-2.9-2.7-4.5c-0.9-2-1.7-4-2.3-6c-0.2-0.8-1.7-5.1-0.4-5.5c0-0.1-0.1-0.2-0.1-0.3
		c-4.1-4-7.2-9-10.1-13.8c-2.6-4.1-4.8-8.4-6.8-12.8c-2.5-5.9-4.7-11.9-6.5-18c-0.4-1.3-0.7-2.6-1.1-4c-0.3-1.1-0.6-2.3-0.9-3.4
		c-0.3-1.3-0.9-2.7-1-4c-0.1-1.1,0.9-1.2,1.2-0.1c0.4,1.3,0.7,2.7,1,4c0.5,1.7,1,3.5,1.5,5.2c3.4,12.1,8.5,23.7,15.3,34.3
		c2.7,4.3,5.8,8.3,9.2,12.1c3.1,3.3,6.5,6.4,10,9.2c3.4,2.7,6.9,5.4,10.7,7.5c3.2,1.7,6.4,3.1,9.8,4.2c4.3,1.5,8.5,3,13,3.8
		c2.3,0.5,4.7,0.8,7,1.2c0.4,0.1,0.9,0.1,1.3,0.2C122.6-182.4,122.4-181.3,121.6-180.4"/>
	<path id="Fill_20-2" class="st3" d="M80.2-210.8c3.5,0,6.6-0.5,9.8-1.8c2.7-1.2,5.3-2.7,7.8-4.5c3.5-2.4,6.2-5.3,8.1-9
		c1.1-2.2,2-5.4,1.2-7.9c-0.9-2.9-3.4-5.3-6.6-4.8c-2,0.3-3.9,1.6-5.4,2.9c-1.8,1.5-3.3,3.3-4.5,5.3c-2,3.3-3.1,7-4.8,10.4
		c-0.8,1.6-1.6,3.3-2.5,4.8c-0.4,0.8-1,1.5-1.7,2.1c-0.4,0.3-2,0.8-1.4,1.5c-9-0.1-17.1-7.1-18.8-15.7c-0.2-0.8-0.3-1.6-0.4-2.4
		c-0.1-0.5-0.1-2.4-0.5-2.7c-1-0.7-0.6,1.5-0.5,1.8c0.1,0.8,0.2,1.6,0.4,2.4c0.6,4.4,2.7,8.5,5.9,11.7
		C69.8-213.2,74.9-210.8,80.2-210.8z"/>
</g>
</svg>
