<?xml version="1.0" encoding="utf-8"?>
<!-- Generator: Adobe Illustrator 23.0.3, SVG Export Plug-In . SVG Version: 6.00 Build 0)  -->
<svg xmlns="http://www.w3.org/2000/svg" xmlns:xlink="http://www.w3.org/1999/xlink" x="0px" y="0px"
	 viewBox="0 0 1070.4 548.5" style="enable-background:new 0 0 1070.4 548.5;" xml:space="preserve">
<style type="text/css">
	.digital-currency-0{fill:#F2F2F2;}
	.digital-currency-1{fill:#DDE3E9;}
	.digital-currency-2{opacity:0.7;}
	.digital-currency-3{fill:#89C5CC;}
	.digital-currency-4{fill:#FFFFFF;enable-background:new    ;}
	.digital-currency-5{fill:none;stroke:#FF9B21;stroke-width:2;stroke-miterlimit:10;}
	.digital-currency-6{fill:#FF9B21;}
	.digital-currency-7{fill:#2B44FF;}
	.digital-currency-8{fill:none;stroke:#C5CFD6;stroke-width:2;stroke-miterlimit:10;}
	.digital-currency-9{opacity:0.1;enable-background:new    ;}
	.digital-currency-10{fill:#377DFF;}
	.digital-currency-11{opacity:0.2;fill:none;stroke:#FFFFFF;stroke-width:2;stroke-miterlimit:10;}
	.digital-currency-12{fill:#B28B67;}
	.digital-currency-13{fill:#191847;}
	.digital-currency-14{fill:#997659;}
	.digital-currency-15{fill:#E4E4E4;}
	.digital-currency-16{fill:#121A84;}
	.digital-currency-17{fill:#2026A2;}
	.digital-currency-18{fill:#E8861A;}
	.digital-currency-19{fill:#C5CFD6;}
	.digital-currency-20{opacity:0.2;}
	.digital-currency-21{fill:#FFFFFF;}
</style>
<g id="Hanging_Lamp" transform="translate(35.569)">
	<g id="Light" transform="translate(0 187.208)">
		<ellipse id="Hanging_Lamp_Light" class="digital-currency-0" cx="944.4" cy="34.5" rx="42.5" ry="22.5"/>
		<path id="Hanging_Lamp-2" class="digital-currency-1" d="M993.9,50c0-27.6-22.2-50-49.5-50c-27.3,0-49.5,22.4-49.5,50"/>
	</g>
	<rect id="Wire" x="941.9" class="digital-currency-1" width="5" height="194.5"/>
</g>
<g id="Hanging_Lamp-3" transform="translate(161.794)" class="digital-currency-2">
	<g id="Light-2" transform="translate(0 139.188)">
		<ellipse id="Hanging_Lamp_Light-2" class="digital-currency-0" cx="1.4" cy="27.8" rx="31.8" ry="18.2"/>
		<path id="Hanging_Lamp-4" class="digital-currency-1" d="M38.4,40.4C38.4,18.1,21.8,0,1.4,0s-37,18.1-37,40.4"/>
	</g>
	<rect id="Wire-2" x="-0.6" class="digital-currency-1" width="5" height="162.2"/>
</g>
<path class="digital-currency-1" d="M672,347.1c-5-11.5-12.7-21.6-28.1-30.1c-8-4.5-16.5-7.9-25.4-10c6-2.8,11.5-6.5,16.3-11
	c7.1-6.3,12.4-14.3,15.6-23.3c2.9-9.1,4.1-18.7,3.5-28.2c-1.1-16.8-4.4-33.1-13.2-44.8s-21.2-20.7-37.6-27
	c-12.6-4.8-25.5-7.8-45.5-8.9V99.9l-40,25v39h-32v-41l-41-23v64h-87.1l28,48c8.7,0,14.5,0.8,17.5,2.3c2.8,1.2,5.1,3.3,6.5,6
	c1.3,2.5,1.9,8.4,1.9,17.5v173.2c0,9-0.6,14.8-1.9,17.4s-2,4.9-5.1,6.3s-3.2,1.3-11.8,1.3h-0.1l-35,48h87v64h41v-64h32v64h40v-64.4
	c26-1.3,44.5-4.7,59.4-10.3c19.3-7.2,34.1-17.7,44.7-31.5s14.9-34.9,15.8-51.2C678.1,376,676.5,357.3,672,347.1z M485.5,217.9
	L485.5,217.9l0-1.3h28c15.7,0,68.2-5.2,69,37.6c0.9,42.8-69,41.1-69,41.1h-28v-3.3h0V217.9z M485.5,339.9h32c6.5,0,28.9,1,37,1.4
	c3.3,0.1,6.6,0.7,9.8,1.7c1.2,0.4,2.2,0.8,3.4,1.3c4.9,1.6,9.6,3.9,13.8,7c2.7,1.8,5.2,4.1,7.1,6.7c0.9,1.2,1.6,2.4,2.4,3.7
	c1.9,3.2,3.3,6.7,4.2,10.3c1,3.5,1.4,7.1,1.5,10.7c0,7.8-1.4,14.2-5,19.7c-4.8,8.1-12.7,13.8-21.6,17.8c-23,10.4-52.5,9.7-52.5,9.7
	h-32L485.5,339.9z"/>
<g>
	<path id="appDevelopment_132_" class="digital-currency-3" d="M758.4,75.2c-5.6,16.2-23.6,24.9-39.8,19.1c-16.2-5.6-24.9-23.6-19.1-39.8
		c5.6-16.2,23.3-24.9,39.8-19.1C755.7,41.3,764,59,758.4,75.2z"/>
	<path class="digital-currency-4" d="M741.1,66.8c-0.4-1.1-1.2-1.9-2.2-2.5c-0.6-0.4-1.3-0.6-2-0.8c0.5-0.2,0.9-0.5,1.3-0.9c0.6-0.5,1-1.2,1.2-1.9
		c0.2-0.7,0.3-1.5,0.3-2.3c0-1.3-0.4-2.6-1-3.7c-0.8-1-1.8-1.8-3-2.2c-1.1-0.4-2.4-0.7-3.6-0.7v-5.2l-3.2,2v3.2h-2.5v-3.3l-3.2-1.9
		v5.2h-6.9l2.2,3.9c0.5,0,0.9,0,1.4,0.2c0.2,0.1,0.4,0.3,0.5,0.5c0.1,0.5,0.2,0.9,0.1,1.4V72c0,0.5,0,1-0.1,1.4
		c-0.1,0.2-0.2,0.4-0.4,0.5s-0.3,0.1-0.9,0.1h0l-2.8,3.9h6.9v5.2h3.2v-5.2h2.5v5.2h3.2v-5.3c1.6,0,3.2-0.3,4.7-0.8
		c1.4-0.5,2.6-1.4,3.5-2.6c0.8-1.3,1.2-2.7,1.2-4.2C741.6,69.1,741.5,67.9,741.1,66.8z M726.4,56.2L726.4,56.2l0-0.1h2.2
		c1.2,0,5.4-0.4,5.4,3.1c0.1,3.5-5.4,3.3-5.4,3.3h-2.2v-0.3h0V56.2z M726.4,66.2h2.5c0.5,0,2.3,0.1,2.9,0.1c0.3,0,0.5,0.1,0.8,0.1
		c0.1,0,0.2,0.1,0.3,0.1c0.4,0.1,0.8,0.3,1.1,0.6c0.2,0.1,0.4,0.3,0.6,0.5c0.2,0.3,0.4,0.7,0.5,1.1c0.1,0.3,0.1,0.6,0.1,0.9
		c0,0.6-0.1,1.1-0.4,1.6c-0.4,0.6-1,1.2-1.7,1.5c-1.3,0.5-2.7,0.8-4.1,0.8h-2.5L726.4,66.2z"/>
</g>
<g>
	<path id="appDevelopment_1_" class="digital-currency-3" d="M45.6,343.9c-4.2,12.2-17.8,18.7-29.9,14.4C3.6,354.1-3,340.6,1.3,328.4
		c4.2-12.2,17.5-18.7,29.9-14.4C43.6,318.5,49.9,331.8,45.6,343.9z"/>
	<path class="digital-currency-4" d="M32.6,337.6c-0.3-0.8-0.9-1.4-1.7-1.8c-0.5-0.3-1-0.5-1.5-0.6c0.4-0.2,0.7-0.4,1-0.7c0.4-0.4,0.7-0.9,0.9-1.4
		c0.2-0.6,0.2-1.1,0.2-1.7c0-1-0.3-1.9-0.8-2.7c-0.6-0.8-1.3-1.3-2.2-1.7c-0.9-0.3-1.8-0.5-2.7-0.5v-3.9l-2.4,1.5v2.4h-1.9v-2.5
		l-2.4-1.4v3.9H14l1.7,2.9c0.4,0,0.7,0,1,0.1c0.2,0.1,0.3,0.2,0.4,0.4c0.1,0.3,0.1,0.7,0.1,1.1v10.6c0,0.4,0,0.7-0.1,1.1
		c-0.1,0.2-0.1,0.3-0.3,0.4c-0.2,0.1-0.2,0.1-0.7,0.1h0L14,346h5.2v3.9h2.4V346h1.9v3.9h2.4v-4c1.2,0,2.4-0.2,3.5-0.6
		c1.1-0.4,2-1,2.6-1.9c0.6-0.9,0.9-2,0.9-3.1C33,339.4,32.9,338.5,32.6,337.6z M21.6,329.7L21.6,329.7L21.6,329.7l1.7-0.1
		c0.9,0,4-0.3,4.1,2.3c0.1,2.6-4.1,2.5-4.1,2.5h-1.7v-0.2h0V329.7z M21.6,337.2h1.9c0.4,0,1.7,0.1,2.2,0.1c0.2,0,0.4,0,0.6,0.1
		c0.1,0,0.1,0.1,0.2,0.1c0.3,0.1,0.6,0.2,0.8,0.4c0.2,0.1,0.3,0.3,0.4,0.4c0.2,0.3,0.3,0.6,0.4,0.9c0.1,0.2,0.1,0.4,0.1,0.7
		c0,0.4-0.1,0.8-0.3,1.2c-0.3,0.5-0.8,0.9-1.3,1.1c-1,0.4-2,0.6-3.1,0.6h-1.9L21.6,337.2z"/>
</g>
<g>
	<circle class="digital-currency-3" cx="960.6" cy="414.1" r="9.5"/>
	<line class="digital-currency-5" x1="1035.7" y1="517.8" x2="1035.7" y2="409.4"/>
	<circle class="digital-currency-6" cx="1035.7" cy="409.4" r="15.3"/>
	<path class="digital-currency-7" d="M1005.5,470.1c-22.1,34-16.1,77.2-16.1,77.2s42-11.9,64.1-45.8c22.1-34,16.1-77.2,16.1-77.2
		S1027.6,436.1,1005.5,470.1z"/>
	<path class="digital-currency-7" d="M989.3,546.8c0,0-0.5-0.1-1.5-0.3c-0.8-0.2-1.9-0.4-3.2-0.7c-11.9-2.8-43.5-12.3-64.2-37.2
		c-25.9-31.2-24.8-74.8-24.8-74.8s39.6,6.4,65.6,34.5c1.1,1.2,2.2,2.5,3.3,3.7c22.5,27.2,24.6,63.7,24.8,72.7
		C989.3,546.1,989.3,546.8,989.3,546.8z"/>
	<path class="digital-currency-8" d="M973.3,470.1c22.1,34,16.1,77.2,16.1,77.2s-42-11.9-64.1-45.8s-16.1-77.2-16.1-77.2S951.2,436.1,973.3,470.1z"
		/>
	<path class="digital-currency-9" d="M989.3,544.8c-0.6,0.7-1.1,1.3-1.5,1.8c-0.9,1.1-1.5,1.6-1.5,1.6s-0.6-0.8-1.7-2.3c-6-8.3-25.2-38-23.7-72.2
		c0.1-1.8,0.2-3.6,0.4-5.3c1.1,1.2,2.2,2.5,3.3,3.7C987,499.2,989.1,535.7,989.3,544.8z"/>
	<path class="digital-currency-10" d="M1022.1,476.1c-1.8,40.5-31.8,72.1-31.8,72.1s-27.2-34.1-25.5-74.6s31.8-72.1,31.8-72.1
		S1023.9,435.6,1022.1,476.1z"/>
	<line class="digital-currency-11" x1="990.3" y1="547" x2="996.9" y2="403.2"/>
</g>
<g>
	<g id="Head" transform="translate(48.06 27.507)">
		<path id="Head-2" class="digital-currency-12" d="M132.8,283.4l2.1-29.4c-4-3.5-7-8.1-7.4-13.6c-1.1-16,21.5-15.6,26.9-8.2
			c5.4,7.4,7.7,27.7,2.4,30c-2.1,0.8-7.1,0.2-12.3-2.1l6,20.9L132.8,283.4z"/>
	</g>
	<path id="hair" class="digital-currency-13" d="M194.2,252c-2.5-0.3-5-0.3-7.6,0.3c0.6-2.2,0.6-4.5,0-6.6c-0.7-2-1.7-3.9-2.9-5.6
		c-0.5-0.8-1.1-1.6-1.9-2.2c-0.8-0.6-1.8-0.9-2.7-1c-1-0.1-1.9,0.1-2.9,0.4c-0.4,0.2-0.8,0.4-1.2,0.6c-0.4,0.2-0.7-0.1-1-0.3
		c-0.9-0.5-1.9-0.8-2.9-0.7c-1.1,0-2.1,0.3-3.1,0.8c-0.9,0.5-1.8,1.2-2.4,2c-0.3,0.4-0.5,0.8-0.6,1.3c-0.1,0.2-0.1,0.3-0.3,0.4
		c-0.2,0.1-0.3,0.1-0.5,0.2c-1.6,0.8-2.9,2.3-3.4,4c-0.3,1.5-0.3,3.1,0,4.7c0.3,1.9,2.8,6.6,4.6,8.2c1.8,1.3,3.9,2.2,6.1,2.4
		c-1.1,1.8-1.9,3.8-2.2,5.9c-0.4,2.3-0.6,4.5-0.4,6.8c0.1,2.2,0.5,4.4,1.3,6.5c0.7,1.9,2,3.4,3.9,4.2c0.8,0.3,1.7,0.6,2.6,0.8
		c0.8,0.3,1.8,0.3,2.6,0.4c1.7,0.1,3.5-0.3,4.6-1.7c0.4-0.6,0.8-1.2,1.1-1.9c0.1-0.3,0.2-0.3,0-0.6c-0.3-0.2-0.5-0.3-0.8-0.5
		c-1.4-0.8-2.4-2.3-2.9-3.9c-0.4-1.7-0.3-4,1.3-5c1.9-1.3,4.4-0.5,6.4,0.3c0.3-2.9,1.8-5.5,4-7.2c2.6-1.8,5.8-2.4,8.5-4
		c0.8-0.4,1.3-0.9,1.9-1.6c0.3-0.3,0.4-0.7,0.4-1.1c0-0.4-0.3-0.8-0.6-1.2C202,255.7,196.8,252.5,194.2,252z"/>
	<path id="Leg_1_" class="digital-currency-14" d="M183.6,369.8l53.6,92.7l40.2,78.4h8.7l-67.3-171.1H183.6z"/>
	<path id="shoe" class="digital-currency-15" d="M274.1,536.2c-0.8-0.3-1.6,0.2-1.9,0.9v0.1l-1.3,4.9c0.1,1.9,0.3,3.9,0.7,5.8h40.6
		c0,0,1.6-5.3-1.9-5.7s-5.6-0.8-5.6-0.8l-18.9-8.5c-0.3-0.2-0.8,0-0.9,0.3l0,0l-1.2,2.9c0,0-3.2,1.5-5.1,1.5L274.1,536.2z"/>
	<path id="Pant" class="digital-currency-16" d="M266.2,528.4l16.7-5.2c0,0-10.9-33.9-26.9-74.7s-34.2-78.7-34.2-78.7h-47.1c0,0,20.3,48,43.1,87.2
		C232.4,481.8,248.5,505.6,266.2,528.4z"/>
	<path id="Leg-2_1_" class="digital-currency-12" d="M180.1,369.8c-5,32.6-14.8,74.2-15.7,75.6c-0.6,0.8-22.7,8.5-66.3,23l1.9,7.9
		c52-7.7,79.3-13.8,82.1-18.1c4.2-6.4,25.2-57.1,33.2-88.4H180.1L180.1,369.8z"/>
	<path id="Pant-2" class="digital-currency-17" d="M113.4,461.4l3.3,12.7c38.9,3.5,62.7,1,71.4-7.7s18.8-40.9,30-96.8h-44.9
		c-7.1,45.8-11.1,69.6-11.9,71.5C160.3,443.2,144.4,449.9,113.4,461.4z"/>
	<path id="shoe-2" class="digital-currency-15" d="M101.5,466.9c0.2-0.8-0.4-1.6-1.3-1.7c0,0,0,0-0.1,0l-5-0.5c-1.9,0.4-3.7,1-5.5,1.7l7.1,41.5
		c0,0,5.5,0.7,5.2-2.9c-0.3-3.5-0.3-5.9-0.3-5.9l5-20.8c0.1-0.4-0.2-0.8-0.5-0.9l0,0l-3.1-0.7c0,0-2-2.9-2.4-5L101.5,466.9z"/>
	<path id="Skin" class="digital-currency-14" d="M257.9,327.9l10.4-7.7c0,0,1.1-9.3,4.4-9.8c0.8-0.5,0.7,1.3,0.8,3c0.1,1.7,0.4,3.4,2,2.9
		c3.1-1.1,10.1-8,11.6-7.1c2.3,1.4,1.2,7.1-0.5,10c-3.2,5.6-6.2,7.7-14,11c-6.1,2.6-12.6,8.9-12.6,8.9L257.9,327.9z M215.9,321.6
		l23.7-17.7c3-5,6.7-9.6,10.9-13.5c1.2-0.7,3.4-1.3,1.8,2.6c-1.5,4-3,8.2-1.8,9.2c0.5,0.4,1.3,0.3,2.1,0.2c1-0.2,2.2-0.3,3,0.6
		c1,1.1-3.2,3.8-12.6,7.8l-16.2,19.7L215.9,321.6z"/>
	<path id="Sleeve" class="digital-currency-18" d="M203,320.3c11.9-1.8,23.2-6.9,32.4-14.9l6.6,10.5c-7.6,10-19,18.9-29.9,20.2
		C203.4,337,197.6,327.3,203,320.3z"/>
	<path id="Clothes" class="digital-currency-6" d="M190.8,400.4c-9.2,0.1-17.8,0.1-22.6,1.8c-12.2-26,2.4-39.3,0-56.7c-2.7-19,8.5-50.5,10.8-50.8
		l20.5-2.9c3.2,14.4,11.1,29.6,18,44.8c15.4,1.3,46.9-15.1,46.9-15.1s10.8,16.2,11.2,23.6c-17.8,12.8-33.8,19.6-47.4,21.8
		c1.6,8,1.7,15.8-0.7,23.3c-1.8,5.6-8.3,8.2-16.7,9.3C204.8,400.2,197.6,400.3,190.8,400.4z"/>
	<path id="Fill_35" class="digital-currency-19" d="M286,293L286,293L286,293"/>
	<path id="Fill_37" class="digital-currency-19" d="M286,293L286,293L286,293"/>
	<path id="Fill_39" class="digital-currency-19" d="M286.1,292.9C286.1,292.9,286,292.9,286.1,292.9L286.1,292.9C286,293.2,286,293,286.1,292.9"/>
	<path id="Fill_41" class="digital-currency-19" d="M286,292.9L286,292.9C286,293,286,292.9,286,292.9"/>
	<path id="Fill_43" class="digital-currency-19" d="M286,293"/>
	<path id="Fill_45" class="digital-currency-19" d="M286,293L286,293"/>
	<path id="Fill_47" class="digital-currency-19" d="M286,293C286,293,286.1,292.9,286,293"/>
	<path id="Fill_49" class="digital-currency-19" d="M286,293L286,293L286,293"/>
	<path id="Photo_Background" class="digital-currency-7" d="M237.4,258.5l75.1-18.8c1.8-0.4,3.6,0.7,4,2.4l11.8,47.4c0.4,1.8-0.7,3.6-2.4,4
		l-75.1,18.8c-1.8,0.4-3.6-0.7-4-2.4L235,262.6C234.5,260.8,235.6,258.9,237.4,258.5z"/>
	<g id="icons8-night_landscape" transform="translate(9.058 20.093)" class="digital-currency-20">
		<path id="Mountains" d="M259.8,247.3l-14,44.3l47.1-11.8L259.8,247.3z"/>
		<path id="Mountains-2" d="M286.6,251.5l-13.8,33.3l41.7-10.3L286.6,251.5z"/>
	</g>
	<circle id="Sun" class="digital-currency-21" cx="302.8" cy="262" r="8"/>
</g>
</svg>
