<?xml version="1.0" encoding="utf-8"?>
<!-- Generator: Adobe Illustrator 24.1.2, SVG Export Plug-In . SVG Version: 6.00 Build 0)  -->
<svg version="1.1" id="Layer_1" xmlns="http://www.w3.org/2000/svg" xmlns:xlink="http://www.w3.org/1999/xlink" x="0px" y="0px"
	 viewBox="0 0 1609.2 892.4" style="enable-background:new 0 0 1609.2 892.4;" xml:space="preserve">
<style type="text/css">
	.st0{opacity:0.1;fill:#BBCFF2;enable-background:new    ;}
	.st1{opacity:0.5;}
	.st2{fill:#BDC5D1;}
	.st3{fill:#97A4AF;}
	.st4{opacity:0.4;}
	.st5{opacity:0.2;fill:#BBCFF2;enable-background:new    ;}
	.st6{fill:url(#Ellipse_2-3_1_);}
	.st7{fill:url(#Ellipse_1-3_1_);}
	.st8{fill:url(#Shape_2-5_1_);}
	.st9{clip-path:url(#SVGID_2_);}
	.st10{opacity:0.5;stroke:#489C71;stroke-width:3;stroke-miterlimit:10;enable-background:new    ;}
	.st11{fill:url(#Shape_2-8_1_);}
	.st12{clip-path:url(#SVGID_4_);}
	.st13{fill:url(#Shape_2-11_1_);}
	.st14{clip-path:url(#SVGID_6_);}
	.st15{fill-rule:evenodd;clip-rule:evenodd;fill:#B2C1D6;}
	.st16{fill-rule:evenodd;clip-rule:evenodd;fill:#D6E3F8;}
	.st17{fill-rule:evenodd;clip-rule:evenodd;fill:#D0D8EA;}
	.st18{fill-rule:evenodd;clip-rule:evenodd;fill:#E7EAF3;}
	.st19{fill-rule:evenodd;clip-rule:evenodd;fill:#E8F0FC;}
	.st20{fill-rule:evenodd;clip-rule:evenodd;fill:#E0B78D;}
	.st21{fill-rule:evenodd;clip-rule:evenodd;fill:#1D68D6;}
	.st22{opacity:0.5;fill:none;stroke:#1E2022;stroke-linecap:round;stroke-linejoin:round;enable-background:new    ;}
	.st23{fill-rule:evenodd;clip-rule:evenodd;fill:#1E2022;}
	.st24{fill:none;stroke:#F3EDF7;stroke-linecap:round;}
	.st25{fill-rule:evenodd;clip-rule:evenodd;fill:#377DFF;}
	.st26{fill:none;stroke:#1E2022;stroke-linecap:round;stroke-linejoin:round;}
	.st27{fill-rule:evenodd;clip-rule:evenodd;fill:#A37569;}
	.st28{clip-path:url(#SVGID_9_);}
	.st29{clip-path:url(#SVGID_10_);fill-rule:evenodd;clip-rule:evenodd;fill:#C18A6F;}
	.st30{fill:none;stroke:#A37569;stroke-linecap:round;stroke-linejoin:round;}
	.st31{fill-rule:evenodd;clip-rule:evenodd;fill:#A0614B;}
	.st32{fill:none;stroke:#A0614B;stroke-linecap:round;}
	.st33{fill-rule:evenodd;clip-rule:evenodd;fill:#FFC9AE;}
	.st34{fill-rule:evenodd;clip-rule:evenodd;fill:#FB9B73;}
	.st35{fill-rule:evenodd;clip-rule:evenodd;fill:url(#Fill-104_2_);}
	.st36{fill-rule:evenodd;clip-rule:evenodd;fill:url(#Fill-104_3_);}
	.st37{fill-rule:evenodd;clip-rule:evenodd;fill:url(#Fill-107_2_);}
	.st38{fill-rule:evenodd;clip-rule:evenodd;fill:url(#Fill-107_3_);}
	.st39{fill-rule:evenodd;clip-rule:evenodd;fill:#D0DAEF;}
	.st40{fill-rule:evenodd;clip-rule:evenodd;fill:#B6C2D8;}
	.st41{fill-rule:evenodd;clip-rule:evenodd;fill:#FFFFFF;}
	.st42{fill-rule:evenodd;clip-rule:evenodd;fill:#DCE5F4;}
	.st43{fill-rule:evenodd;clip-rule:evenodd;fill:#C1CDE0;}
	.st44{fill-rule:evenodd;clip-rule:evenodd;fill:url(#Fill-120_2_);}
	.st45{fill:none;stroke:#FB9B73;stroke-linecap:round;}
	.st46{fill-rule:evenodd;clip-rule:evenodd;fill:#FD9E28;}
	.st47{fill-rule:evenodd;clip-rule:evenodd;}
	.st48{fill-rule:evenodd;clip-rule:evenodd;fill:#111111;}
	.st49{fill:none;stroke:#FB9B73;stroke-linecap:round;stroke-linejoin:round;}
	.st50{fill-rule:evenodd;clip-rule:evenodd;fill:#BAD0F7;}
	.st51{fill-rule:evenodd;clip-rule:evenodd;fill:#D32F62;}
	.st52{fill-rule:evenodd;clip-rule:evenodd;fill:#ED4C78;}
	.st53{fill:none;stroke:#ED4C78;stroke-linecap:round;stroke-linejoin:round;}
	.st54{fill-rule:evenodd;clip-rule:evenodd;fill:#FEB991;}
	.st55{fill:none;stroke:#000000;stroke-linecap:round;stroke-linejoin:round;}
</style>
<path id="shadow-2_1_" class="st0" d="M811,792.1c281.1,0,508.5,22.3,508.5,50.2s-227.4,50.2-508.5,50.2s-508.5-22.3-508.5-50.2
	S530.6,792.1,811,792.1z"/>
<g>
	<g id="Cells" transform="translate(100.086 99.66)" class="st1">
		<path id="Fill_5" class="st2" d="M-8.9-61.4c-1.6,1.6-1,7.2-1,9.2c-0.1,3.2,0.1,6.4,0.4,9.6c0.2,2.1,1.2,22.6,4,21
			c1.6-0.9,0.6-6.8,0.6-8.7c0-4.2-0.2-8.3-0.5-12.5c-0.2-3.7-0.3-7.6-0.2-11.4C-5.6-55.2-4.7-65.7-8.9-61.4"/>
		<path id="Fill_7" class="st2" d="M59.6-63.9c-13.5,0.1-27,0.8-40.5,1.2c-6.5,0.2-13,0.4-19.5,0.8c-2.2,0.1-7-0.6-8.8,0.5
			c-4.1,2.6,2.5,3.2,4.3,3.2c26.7-1,53.5-2.2,80.2-2.3c13.1,0,26.2,0.3,39.4,0.3c5,0,10.6-2.2,11.8,3.6c1.4,6.6-0.2,13.9-0.7,20.5
			c-0.2,4.4-0.2,8.8,0,13.2c0.1,2.8-0.2,6,0.3,8.8c0.5,2.7,2.4,4.3,4.2,1.3c1.1-1.8,0.5-6.2,0.6-8.3c0.1-2.8,0-5.6,0-8.4
			c0-6.8,1-13.6,0.8-20.4c-0.1-4.4-0.3-12.4-5.9-13.4c-6.1-1.2-13.6,0-19.9-0.1C90.5-63.6,75.1-64.1,59.6-63.9"/>
		<path id="Fill_9" class="st2" d="M22.4-21.3c-5.1,0-10.2,0-15.3,0.1C2.7-21.1-4.2-22-8.2-20.5c-2.8,1.1-3.5,4.2,0,5
			c3.8,0.9,9.6-0.5,13.6-0.6c20.2-0.4,40.5-0.8,60.7,0.5c18.9,1.2,38.1,2.4,57,1.1c1.6-0.1,9.7-0.4,6-3.5
			c-2.2-1.8-10.9-0.6-13.7-0.7c-9.9-0.3-19.8-0.4-29.7-0.7c-9.8-0.4-19.5-1.5-29.2-1.7C45.1-21.5,33.7-21.3,22.4-21.3"/>
		<path id="face" class="st2" d="M18.2-27.2L18.2-27.2c-6.9,0-14.4-3.3-15.7-10.7c-0.1-0.4-0.1-0.9,0-1.3c0-0.5,0-0.9-0.1-1.4
			c-0.1-0.3-0.2-0.6-0.4-0.8c-0.3-0.3-0.4-0.7-0.5-1.1c0-2,1.2-3.1,2.5-4.4c0.5-0.5,1-1,1.5-1.5c2.7-3.1,4.4-4.7,8-6.1
			c1.1-0.4,2.3-0.6,3.4-0.6c3.7,0.2,7.2,1.5,10,3.9c3.1,2.4,5.3,5.5,6,8.4c0.7,3.1,0.1,6.4-1.7,9.1c-2,3.1-5.1,5.2-8.7,6
			C21.1-27.3,19.6-27.2,18.2-27.2z M7.4-43.1L7.4-43.1c-1,2.5-0.8,5.3,0.8,7.5c2,2.9,6,4.7,10.1,4.7c2.4,0,4.7-0.6,6.7-2
			c2.8-1.8,4.1-5.3,3-8.5c-1.4-4.7-6.2-8.7-10.8-8.9c-0.3,0.3-0.6,0.4-1,0.5c-0.1,0-0.3,0-0.4-0.1l0,0C15.7-50,15.5-50,15.4-50
			s-0.2,0-0.3,0c-1.2,0.5-2.4,1.2-3.4,2l-0.2,0.2l-0.3,0.2c-1.1,0.7-2,1.6-2.9,2.5c0,0-0.1,0.2-0.2,0.5C7.8-44,7.4-43.1,7.4-43.1
			L7.4-43.1L7.4-43.1z"/>
		<path id="Fill_13" class="st2" d="M10.1-42c0,3.2,5.1,3.2,5.1,0C15.2-45.1,10.1-45.3,10.1-42"/>
		<path id="Fill_15" class="st2" d="M16.5-42.6c0,2.6,4,2.6,4,0C20.5-45.1,16.5-45.2,16.5-42.6"/>
		<path id="Fill_17" class="st2" d="M17.7-37.3c-1.3,0.5-2.9-0.5-4,0.1c-1.9,1.2,0,2.3,1,2.8C19.3-32.2,20.1-38.2,17.7-37.3"/>
		<path id="Fill_19" class="st2" d="M42.2-38.2c-0.2,0-0.4,0-0.6-0.1c-1.1-0.3-1.6-0.9-1.4-1.8c0.2-1.2,1.6-3,3.7-4.7
			c2.1-1.6,4.2-2.6,5.6-2.6c0.1,0,0.2,0,0.3,0c1.3,0.3,2.6,0.9,3.7,1.7c1.1,0.9,2.4,1.5,3.8,1.7c0.2,0,0.5,0,0.7,0
			c1.9-0.2,3.8-0.8,5.4-1.9c1.2-0.7,2.5-1.3,3.9-1.7c0.6-0.1,1.3-0.2,2-0.2c2.5,0,4.7,1.1,6.7,2.1l0,0c2.1,1,4.2,2.1,6.6,2.1
			c1,0,2-0.2,3-0.5c0.3-0.1,0.7-0.3,1.1-0.5l0,0c0.4-0.2,0.8-0.4,1.2-0.6c1.4-0.8,2.9-1.3,4.4-1.6c0.1,0,0.3,0,0.4,0
			c2.1,0,4,1.2,5.7,2.3c0.7,0.4,1.4,0.9,2.1,1.3c0.3,0.2,0.7,0.3,1.1,0.3c0.8,0.2,1.6,0.4,1.8,1.4c0.1,0.4,0,0.8-0.2,1.1
			c-0.3,0.3-0.7,0.4-1.1,0.4c-0.3,0-0.7,0-1-0.1c-0.1,0-0.3,0-0.4,0c-1.4-0.3-2.8-0.9-3.9-1.8s-2.4-1.5-3.8-1.7c-0.1,0-0.3,0-0.4,0
			c-1.8,0.2-3.5,0.8-5,1.7c-1.2,0.7-2.5,1.2-3.8,1.5c-0.6,0.1-1.2,0.2-1.8,0.2c-2.2-0.1-4.4-0.7-6.3-1.9L75-42.4
			c-2-1.1-3.6-1.9-5.6-1.9c-1.1,0-2.1,0.2-3.1,0.7c-0.9,0.4-1.7,0.8-2.5,1.2c-2.1,1-4,1.9-6.3,1.9c-0.5,0-1,0-1.5-0.1
			c-1.1-0.3-2.1-0.7-3.1-1.3c-1.1-0.7-2.4-1.2-3.7-1.4c-0.1,0-0.2,0-0.3,0c-1.2,0.1-2.2,1.3-3.1,2.5C44.7-39.5,43.6-38.2,42.2-38.2z
			"/>
		<path id="Fill_21" class="st3" d="M73.3-1C59.4-0.9,45.5-0.7,31.6,0.4C28.3,0.7-5.2,3.8-5.1,4.1C-5,4.5-0.7,5.2-0.7,5.3
			c-0.3-0.7-1-1-2-0.9c31.8,0,63.5-2.8,95.3-2.3c8,0.1,16,0.1,24,0.3c2,0.1,6.9,1.5,8.5,0.6c4.1-2.4-3.4-2.6-4.6-2.7
			C104.9-1,89-1.1,73.3-1"/>
		<path id="Fill_23" class="st3" d="M-9.2,5.8c-2.1,2.1-0.2,9.6-0.1,12.4c0.1,4.1,0,8.2,0.4,12.2c0.3,4.7,1.1,9.5,2.3,14.1
			c0.7,2.5,3,6.4,4,1.9c0.7-3.2-0.3-7.5-0.7-10.8c-0.4-4.4-0.6-8.7-0.6-13.1c0-3.8-0.1-7.7-0.4-11.5C-4.6,9-5.6,2.1-9.2,5.8"/>
		<path id="Fill_25" class="st3" d="M43,43.9c-9.9,0.2-19.7,0.4-29.6,1c-4,0.3-8.1,0.6-12.1,1.1c-0.8,0.1-9.9,0.5-5.8,3.8
			c1.8,1.5,9.4-0.6,11.8-0.8c4.2-0.4,8.4-0.6,12.6-0.8c9.7-0.4,19.5-0.8,29.2-0.6c17.8,0.3,35.4,0.4,53.2,0.1
			c2.5-0.1,22.3,0.5,23-2.2c0.5-2.1-6.5-1.1-7.8-1.1c-4.7,0.1-9.5,0.1-14.2,0.1C83.2,44.4,63,43.6,43,43.9"/>
		<path id="Fill_27" class="st3" d="M121.9,2.2c0.3,8.8,1.8,17.5,2.3,26.3c0.2,4,0.5,8,0.7,12.1c0.1,1.3-0.5,4.4,1.1,5.2
			c2.1,1,2.4-1,2.8-2.4c1.1-4,0.4-9.3,0.3-13.4c-0.1-4-0.1-8-0.4-12c-0.3-4.1-1.1-8.1-1.5-12.2c-0.2-1.7,0.4-4.6-1.4-5.7
			c-1.2-0.7-2.7-0.3-3.4,0.9C122,1.4,121.9,1.8,121.9,2.2"/>
		<path id="face-2" class="st3" d="M20.5,39.2h-0.1c-2.6,0-7.7-0.4-11.8-2.4s-6.2-5.2-6.3-9.3c0.1-4.1,1.6-8.1,4.2-11.3
			c1.3-1.6,2.9-3,4.6-4.1c1.7-1,3.7-1.7,5.7-1.8c0.2,0,0.5,0,0.7,0c1.9,0,3.9,0.4,5.7,1.1c1.9,0.7,3.6,1.7,5.2,3
			c1.6,1.2,3,2.7,4.1,4.4c1.1,1.6,1.9,3.4,2.4,5.2c0.9,3.4,0.2,7-2,9.8c-1.5,1.8-3.3,3.2-5.4,4C25.3,38.7,23,39.2,20.5,39.2
			L20.5,39.2L20.5,39.2z M16.7,14.2c-3,0.1-5.9,1.6-7.8,3.9c-2,2.3-3.1,5.3-3.2,8.3c-0.2,2,0.6,4.1,2,5.5c1.6,1.5,3.6,2.5,5.8,3
			s4.5,0.8,6.8,0.7h0.5c3.9,0,7.5-1.6,9.4-4.1c1.5-2,1.9-4.5,1.1-6.9c-0.5-1.6-1.2-3-2.3-4.3c-1-1.3-2.2-2.4-3.5-3.4
			c-1.7-1.3-3.8-2-5.9-2.2C18.5,14.7,17.6,14.5,16.7,14.2z"/>
		<path id="Fill_31" class="st3" d="M8.7,22.7c0,2.6,4.1,2.6,4.1,0C12.8,20.2,8.7,20.1,8.7,22.7"/>
		<path id="Fill_33" class="st3" d="M17.3,21.6c0,2.6,4.1,2.6,4.1,0S17.3,18.9,17.3,21.6"/>
		<path id="Fill_35" class="st3" d="M12.6,27.5c-2.7,2.7,6.7,7.3,8.9,3.6c1.8-3-2.1-2-3.5-2.2C16.4,28.7,13.8,26.3,12.6,27.5"/>
		<path id="Fill_37" class="st3" d="M42.6,26.5L42.6,26.5c-0.5,0-1.1-0.2-1.5-0.5c-0.4-0.6-0.6-1.3-0.6-2c0.1-3.2,8.9-6.2,11.7-6.7
			c0.5-0.1,1-0.1,1.4-0.1c2.1,0.1,4.1,0.8,5.9,1.9l0,0c1.8,1.1,3.9,1.7,6,1.9c0.6,0,1.2-0.1,1.8-0.2c1.1-0.3,2.2-0.6,3.2-1.1
			c1.4-0.6,2.9-1.1,4.5-1.3c0.3,0,0.5,0,0.7,0c1.6,0,3.2,0.6,4.5,1.6c0.8,0.5,1.6,1,2.5,1.4c0.6,0.2,1.2,0.4,1.8,0.4
			c0.4,0,0.9,0,1.3-0.1l0,0c0.5-0.1,0.9-0.1,1.4-0.1c0.1,0,0.3,0,0.4,0c1.3,0.1,2.2,0.5,2.3,1.2c0.2,0.8-0.6,1.6-1.9,2.3
			c-0.9,0.5-1.8,0.7-2.8,0.7c-1.6-0.1-3.1-0.7-4.4-1.6s-2.8-1.5-4.4-1.8c-0.2,0-0.5,0-0.7,0c-2,0.1-3.9,0.7-5.7,1.6h-0.1
			C68,24.9,66,25.5,64,25.6c-0.1,0-0.2,0-0.3,0c-1.9-0.2-3.7-0.7-5.4-1.6c-1.5-0.8-3.1-1.3-4.8-1.4c-0.9,0-1.9,0.2-2.8,0.6
			c-0.3,0.1-0.9,0.4-1.5,0.8C47.4,24.9,44.5,26.5,42.6,26.5z"/>
		<path id="point" class="st3" d="M107.6,28.4L107.6,28.4c-1.6-0.1-3-0.8-4.1-1.9c-1.2-1.2-2-2.6-2.4-4.2c-0.7-2.5,0.6-5.1,3-6.1
			c0.4-0.2,0.8-0.3,1.3-0.2c2.1,0.2,4.2,1.1,5.8,2.5c1.1,1.1,1.8,2.6,1.7,4.2c0,1.8-0.8,3.4-2.1,4.6C109.9,28,108.8,28.4,107.6,28.4
			z M105.7,19.9c-0.6,0.8-0.7,1.9-0.2,2.7c0.4,1,1.2,1.7,1.9,1.7c0.1,0,0.2,0,0.3,0c0.8-0.2,1.2-0.5,1.3-0.9
			C109,22.2,106.2,20.2,105.7,19.9L105.7,19.9z"/>
		<path id="Fill_41" class="st2" d="M31.7,65.8c-9.6,0-19.3-0.2-28.9,0.4C1.2,66.3-5,66-5.8,67.7c-1.5,3.1,4.8,1.6,5.7,1.5
			C19,67.3,39,68.4,58.2,68.9c15.7,0.4,31.3,0.7,47,1.5c4.1,0.2,8.2,0.4,12.4,0.7c1.3,0.1,4.7,1,5-1.2c0.3-2-4-1.5-5-1.6
			c-8.4-0.4-16.7-0.9-25.1-1.4C72.3,65.8,51.9,65.8,31.7,65.8"/>
		<path id="Fill_43" class="st2" d="M-6.2,69.3c-1.8,1.8-1,8.6-1,10.9C-7.3,84.1-7.5,88-7.6,92c-0.1,4.1,0,8.3,0.3,12.4
			c0.1,1.7,1.5,10.1,3.8,5.3c1-2.1,0-8.1,0-10.5c0-4.4,0.3-8.8,0.5-13.2c0.2-3.8,0.2-7.6,0.4-11.3C-2.6,73.4-2.5,65.5-6.2,69.3"/>
		<path id="Fill_45" class="st2" d="M124.2,104.5c-9.4,1-18.9,0.5-28.3,1.2c-8.1,0.6-16.2,0.9-24.3,1c-18.4,0.4-36.8,0.8-55.2,2.3
			c-4.2,0.3-8.4,0.7-12.5,0.9C1.8,110-7,109-7.6,111.2c-1.1,3.8,8.3,2.3,10.3,2.2c4.5-0.1,8.9-0.5,13.4-0.8
			c18.7-1.4,37.5-1.9,56.2-2.4c10.2-0.3,20.3-1.1,30.5-1.7c5.1-0.3,10.2-0.3,15.2-0.7c1.3-0.1,6,0.1,7-1
			C125.5,106.1,125.7,104.4,124.2,104.5"/>
		<path id="Fill_47" class="st2" d="M121,69.9c0.3,9,0.8,18,1.1,26.9c0.1,2.7-0.7,7.5,0.8,9.9c2.4,3.8,4.3-0.2,4.7-2.6
			c1.4-7.5-0.1-15.9-0.5-23.4c-0.1-2.9,0.7-9.3-0.6-11.9C125.2,66.3,120.9,66.6,121,69.9"/>
		<path id="hola_:_" class="st2" d="M105.3,95.3c-0.8,0-1.7-0.2-2.4-0.4c-1-0.4-2-1-2.7-1.8s-1.3-1.8-1.6-2.8
			c-0.4-1.5-0.2-3.1,0.6-4.4c0.4-0.8,0.7-1.7,0.8-2.6c0-0.3,0-0.6-0.1-0.9c-0.2-0.7-0.2-1.4,0.1-2.1c0.3-0.4,1.1-0.6,2.4-0.6
			c0.5,0,0.9,0,1.3,0c0.2,0,0.4,0,0.6,0c0.4-0.1,0.8-0.1,1.2-0.1c1.7,0,3.4,1,4.2,2.5c1,1.6,1.5,3.5,1.5,5.4
			c0.1,2.3-0.7,4.6-2.2,6.4C108,94.8,106.7,95.3,105.3,95.3z M105.3,82.7L105.3,82.7c-2.2,1-4,5-3.4,7.4c0.2,1.3,1.4,2.1,2.7,2
			c0.3,0,0.5,0,0.8-0.1c1.9-0.3,2.7-2.2,2.8-3.9c0.1-1.2-0.1-2.4-0.6-3.4C107.1,83.8,106.3,83,105.3,82.7z"/>
		<path id="Fill_51" class="st2" d="M15.1,99.5L15.1,99.5c-4.7,0-9.1-2.4-11.7-6.4C1.2,89.5,1.1,85,3.1,81.3
			c-0.2,0.2-0.5,0.3-0.8,0.4c-0.7,0-1.1-1-1.2-1.6c-0.2-0.9,1.2-2.5,2.2-3.6c0.2-0.2,0.4-0.5,0.5-0.6c2.1-2.5,4.5-4.9,8.2-5
			c0.1,0,0.3,0,0.4,0c3.2,0.1,6.2,1.2,8.6,3.3c2.5,2.1,4.4,4.7,5.6,7.8c1,2.4,1.3,5,0.9,7.6s-1.7,5-3.8,6.7
			C21.3,98.4,18.3,99.5,15.1,99.5z M11.7,77.5c-0.3,0-0.6,0-0.9,0.1c-1.4,0.5-2.7,1.5-3.5,2.8c-0.9,1.2-1.6,2.6-2,4.1
			C4.5,87,4.8,89.6,6,91.9c1.3,2.1,3.5,3.7,5.9,4.2c1,0.3,2,0.4,3.1,0.4c1.9,0,3.8-0.5,5.4-1.5c1.6-1.1,2.8-2.8,3.3-4.7
			c0.9-3,0.4-6.3-1.4-8.9s-4.3-4.6-7.2-5.8c0,0.1,0,0.2,0,0.3l0,0V76l0,0v0.1l0,0l0.1,0.5c-0.2,0.9-1.2,1-2.1,1c-0.2,0-0.5,0-0.8,0
			h0.1C12.2,77.5,12,77.5,11.7,77.5z M11.9,74.3c-1.5,0-2.9,0.6-4.1,1.5C9,75,10.5,74.4,11.9,74.3L11.9,74.3z"/>
		<path id="Fill_53" class="st2" d="M8.7,82.9c0,0.7,0.6,1.3,1.4,1.3c0.7,0,1.3-0.6,1.3-1.3s-0.6-1.3-1.4-1.3
			C9.3,81.7,8.7,82.2,8.7,82.9"/>
		<path id="Fill_55" class="st2" d="M13.2,83.2c0,0.8,0.7,1.3,1.4,1.3s1.3-0.6,1.3-1.3c0-0.8-0.7-1.3-1.4-1.3
			C13.8,82,13.3,82.5,13.2,83.2"/>
		<path id="Fill_57" class="st2" d="M15.3,89.4c-1.3,0.1-5.9-0.3-6.7,0.8c-1.4,1.9,0.8,1.9,1.9,2.1c1,0.2,5.2,0.1,5.8-0.8
			C16.7,90.8,16.6,89.3,15.3,89.4"/>
		<path id="Fill_59" class="st2" d="M30.3,92.6L30.3,92.6c-0.7,0-1.2-0.5-1.6-1.4c-0.8-2,2.2-4.6,3.2-5.4c1.2-1.1,2.7-1.8,4.4-1.8
			c0.9,0,1.8,0.2,2.6,0.5c0.7,0.2,1.4,0.5,2,0.8c1,0.5,2.2,0.8,3.3,0.9c0.5,0,1.1-0.1,1.6-0.2c1.1-0.3,2.2-0.7,3.3-1.1
			c1.5-0.7,3.1-1.2,4.8-1.4c0.2,0,0.4,0,0.6,0c1.8,0.1,3.6,0.5,5.3,1.3c1.2,0.5,2.3,0.8,3.5,1.1c0.8,0.2,1.6,0.2,2.4,0.2
			c1.9,0,3.8-0.5,5.5-1.2s3.4-1.1,5.2-1.2c1.2,0,2.4,0.2,3.6,0.6c0.2,0.1,0.5,0.1,0.9,0.3c2.1,0.6,6.4,1.8,6.6,2.5
			c0.2,0.4,0.1,1-0.1,1.4c-0.3,0.4-0.8,0.5-1.3,0.5c-1.3-0.1-2.5-0.4-3.7-0.8l0,0l-0.2-0.1c-0.5-0.2-1-0.3-1.4-0.5
			c-1.6-0.7-3.3-1.1-5-1.2c-0.8,0-1.6,0.1-2.3,0.3c-0.9,0.3-1.7,0.5-2.5,0.8c-2,0.8-4.2,1.2-6.4,1.3c-0.6,0-1.2,0-1.8-0.1
			c-1.2-0.2-2.3-0.5-3.4-0.9c-1.5-0.6-3-0.9-4.5-1h-0.1c-1.9,0.1-3.8,0.7-5.4,1.5c-1.2,0.6-2.5,1-3.7,1.3c-0.4,0.1-0.8,0.1-1.3,0.1
			c-1.2-0.1-2.5-0.3-3.6-0.8h-0.1c-1.1-0.4-2.2-0.7-3.3-0.7c-0.3,0-0.5,0-0.8,0.1c-1,0.4-1.8,1.1-2.5,1.9
			C32.8,91.2,31.5,92.6,30.3,92.6z"/>
	</g>
	<g id="Big_Cards" transform="translate(491.163 0)" class="st4">
		<path id="Fill_67" class="st3" d="M-151.5,236.9L-151.5,236.9c-0.7,0-1.4,0-2.1-0.1c-1.4-0.2-2.3-0.5-2.6-1s-0.1-1.3,0.2-2.2
			c0.2-0.5,0.4-1.1,0.5-1.7c0.5-2.4,0.1-5.4-0.3-8.4c-0.2-1.6-0.4-3.1-0.5-4.4c-0.7-18.3-0.4-36.7,0-52.5c0.1-3.8,0.2-7.7,0.3-11.4
			c0-0.8,0-1.7,0.1-2.5c0-0.3,0-0.6,0-0.9c0.1-1.6,0.1-3.3-0.1-5c-0.1-0.4-0.2-0.8-0.3-1.1c-0.3-0.6-0.4-1,0.3-2.1
			c1-1.3,3.6-1.5,5.8-1.5c0.7,0,1.4,0,2.1,0h0.1c0.6,0,1.2,0,1.7,0s0.8,0,1.1,0c4.2-0.4,8.2-0.7,12-0.9c12.2-0.6,24.5-1.4,36.3-2.2
			c25.8-1.7,52.5-3.5,78.9-3.5h2.3c4.7-0.2,9.3,0.2,13.9,1.1c1,0.2,1.9,0.4,2.9,0.5c0.1,0,0.3,0,0.4,0c0.2,0,0.4,0,0.5,0l0,0
			c0.2,0,0.3,0,0.5,0c0.4,0,0.7,0.1,1,0.2c1.2,0.5,2.1,1.6,2.3,3c0.5,1.8,0,4.2-0.4,6.6c-0.2,1.2-0.4,2.3-0.5,3.2
			c-0.3,4-0.5,8.4-0.5,13.4c0,0.5,0,1,0,1.6c-0.1,7.6,0.2,15.1,1,22.7c0.2,1.9,0.5,3.8,0.8,5.6c0.7,4.9,1.4,10,1.7,15.2
			c0.1,1.7,0.1,3.5,0.2,5.2l0,0c0.1,2.4,0.2,4.9,0.3,7.4c0,0.4,0,0.9,0,1.3c0,0.9,0,1.8,0.2,2.7c0.1,0.4,0.4,0.8,0.7,1
			c0.2,0.1,0.3,0.3,0.4,0.6c0.3,1.2,0.4,2,0,2.6c-0.4,0.5-1.1,0.8-2.5,1.2c-5.4,1.5-11.5,1.7-17.3,1.7c-1.2,0-2.3,0-3.4,0h-0.3
			c-1,0-2,0-3,0h0.1c-19.8,0-37.7,0.1-55.6,0.5c-5.4,0.1-11,0.2-16.3,0.3c-12.8,0.2-25.9,0.4-38.8,1.5c-3,0.3-6.1,0.6-9.1,0.8
			c-1.2,0.1-2.4,0.2-3.5,0.3c-1.3,0.1-2.6,0.3-4.1,0.5C-146.6,236.6-149.1,236.8-151.5,236.9z M-97.8,168.6c4.1,0,8.4,1.4,13.3,4.4
			c4.1,2.6,7.9,5.5,11.5,8.6l0.6,0.5c1.3,1.1,2.6,2.2,3.9,3.3c2.9,2.4,5.9,4.9,8.9,7.3l0.6,0.5l0.1,0.1c2.6,2,5.2,4,8,5.8
			c1,0.8,2.3,1.3,3.6,1.4c1.4,0,2.6-0.8,4.6-2.1c0.7-0.5,1.4-0.9,2-1.4c5.6-3.8,10.8-7.3,17.7-7.9c0.6-0.1,1.3-0.1,2-0.1
			c7.6,0,15.3,3.4,20.4,6.3c-2.7-14.2-3.5-28.7-2.4-43.2c0.2-2.5,0.4-5,0.7-7.3c0-0.2,0.1-0.6,0.2-1c0.3-0.9,0.4-1.8,0.3-2.8
			c-0.5-1-2.4-1.1-3.9-1.1c-0.4,0-0.8,0-1.3,0h-0.1c-0.4,0-0.8,0-1.1,0c-0.1,0-0.3,0-0.4,0c-1.9-0.1-3.9-0.1-6-0.1
			c-4.8,0-9.8,0.2-14.5,0.3c-2.2,0.1-4.4,0.1-6.6,0.2c-19.5,0.5-40,1.6-60.8,3.3c-7.7,0.6-15.6,1.1-23.3,1.5
			c-8.9,0.5-18.1,1-27.1,1.8c-3.4,0.3-3.4,0.6-3.4,3.3c0,0.3,0,0.7,0,1.1c0,0.9,0,1.8-0.1,2.7l0,0v0.5c-0.1,4.7-0.3,9.7-0.4,14.8
			c-0.2,6.4-0.6,12.8-0.9,19c-0.2,3.6-0.4,7.3-0.6,10.9c5.1-3.1,10-6.7,14.7-10.1c4.6-3.3,9.3-6.7,14.2-9.7c7-4.4,14-8.4,21.6-10.3
			C-100.5,168.7-99.1,168.6-97.8,168.6z"/>
		<path id="Fill_69" class="st2" d="M0.7,84.6c0,2.8-0.4,6.9,0.8,9.5c1.6,3.3,3.7,2.3,4.2-0.8C6,91.5,6,86.2,5.4,84.6
			C4.6,82.3,0.7,80.8,0.7,84.6"/>
		<path id="Fill_71" class="st2" d="M5.3,85.7c-2.6,0.1-10.2-0.5-12,1.6c-3,3.6,2.3,4.2,4.5,4c2.6-0.2,10.7,0.3,12.5-1.8
			C13.3,86,7.4,85.6,5.3,85.7"/>
		<path id="Fill_73" class="st2" d="M-136.1,269.8L-136.1,269.8c-3.2-0.1-6.4-1.1-9-2.9c-2.7-1.7-4.7-4.2-5.9-7.1
			c-1.2-3.4-0.8-7.1,1.1-10.1c0.9-1.6,2.2-3,3.7-4.1s3.3-1.9,5.2-2.2c1-0.2,2-0.2,2.9-0.2c2.9,0,5.7,0.7,8.1,2.1
			c2.5,1.4,4.4,3.7,5.4,6.4c1.1,3.4,0.9,7.1-0.5,10.3c-0.7,1.6-1.6,3.1-2.9,4.4c-1.2,1.3-2.7,2.2-4.3,2.8
			C-133.5,269.6-134.8,269.8-136.1,269.8z M-137.1,248.8c-3.5,0-7.9,1.8-9.4,5.2c-0.6,1.3-0.6,2.9,0,4.2c1.2,2.8,4.5,5.1,7.3,6.1
			c1,0.4,2.1,0.6,3.1,0.6c4.3,0,6.6-3.7,6.9-7.1c0.5-4.4-2.6-8.5-7.1-9C-136.5,248.8-136.8,248.8-137.1,248.8L-137.1,248.8z"/>
		<path id="Fill_75" class="st2" d="M-71,250.9c-2.9,0.2-5.3,2.2-8.2,2.6c-2.7,0.3-4.9-0.6-7.5-1.3c-2.9-1-6-1.2-9-0.5
			c-2.4,0.6-4.7,2.2-7.2,2.4c-4.9,0.4-10.5-5.2-14.3,1.1c-1.8,3,0.8,5,3.5,3.5c2.8-1.5,1.5-2,5-1.1c2.9,0.7,5.3,1.1,8.3,0.1
			c2.7-0.9,5-2.6,7.9-2.8c2.8-0.2,5.3,1.1,8,1.7c3.2,0.6,6.4,0.3,9.5-0.9c3-1,4.2-1.5,7.2-0.7c1.9,0.6,6.1,2.3,8,0.9
			c3.2-2.5-1.1-2.9-2.8-3.2C-65.3,252.2-68.2,250.6-71,250.9"/>
		<path id="Fill_77" class="st2" d="M-5.3,262.7L-5.3,262.7c-2.8,0-5.5-1.1-7.5-3c-1.9-1.8-3.1-4.2-3.4-6.8
			c-0.3-2.2,0.1-4.4,1.2-6.3c1.4-2.1,3.6-3.7,6.1-4.3c0.2,0,0.4-0.1,0.6-0.1c1.8,0,5.1,1.6,6.5,2.4c2,1.2,3.5,3,4.3,5.2
			c1.1,2.9,0.9,6.2-0.6,8.9c-1.1,2-3,3.4-5.3,3.7C-3.9,262.7-4.6,262.7-5.3,262.7z M-8.3,248.6c-1.6,0.3-2.6,1.8-2.3,3.4
			c0.3,1.3,0.9,2.4,1.9,3.3c0.9,0.9,2.1,1.5,3.4,1.5c0.1,0,0.1,0,0.2,0c1.6-0.1,2.6-0.8,2.6-2.1c-0.1-1.4-0.8-2.8-1.8-3.8
			C-5.3,249.6-6.7,248.8-8.3,248.6z"/>
	</g>
	<g class="st1">
		<path id="Image_Border" class="st3" d="M722.4,105.1c-0.9-2.3,0.4-3.3,2.3-3.8c-0.2-1.7-0.3-3.3-0.2-5c-0.1-2.9-0.1-5.8-0.2-8.6
			c-0.3-6.8-0.4-13.7-1-20.6c-0.5-6.5-1.8-12.9-1.8-19.4c0-4.5-1.3-15.7,2.6-18.8c6.7-3.9,4.1,9.9,3.9,12.3
			c-0.2,7.1,0,14.2,0.8,21.2c0.7,6.5-0.1,13.1-0.4,19.6c-0.1,3.5-0.2,7-0.5,10.4c-0.1,1.1,0,6-0.5,8.6c0.9,0,1.7,0,2.4,0
			c0.5,0,0.9,0,1.2,0c5.4-0.2,10.9-0.3,16.3-0.5c20.9-0.8,41.8-0.4,62.6-1.4c19.7-0.9,39.5-1.1,59.3-1.4c1.1,0,2,1,1.9,2.1
			c0,0.5-0.2,0.9-0.5,1.3c-1.1,1.4-6.1,1.1-7.7,1.2c-5.6,0.4-11.1,0.6-16.7,0.7c-11.8,0.1-23.5,0.6-35.2,1.3
			c-20.8,1.2-41.7,1.1-62.6,1.9c-5.1,0.2-10.1,0.4-15.2,0.5c-1.4,0-3.8,0.5-6.1,0.5C725,107.1,723,106.7,722.4,105.1z M873.1,86.8
			c-0.4-7.6-1-15.2-1.7-22.8c-1.1-12.3-2.1-24.2-2.1-36.5c0-2.9,3.5-3.5,5.1-1.5c1.5,1.9,0.5,7.7,0.6,9.9c0.1,7.5,0.8,14.9,1.5,22.4
			c0.7,7.4,1.1,14.8,1.7,22.2c0.2,3.4,2.9,17.1-1,19.1c-0.4,0.2-0.8,0.3-1.2,0.3C872.5,99.9,873.2,88.9,873.1,86.8L873.1,86.8z
			 M724.2,28c-1.3-0.5-2.3-1.2-1.6-2.7c0.6-1.2,2.6-1.1,4.1-1c0.5,0,0.9,0.1,1.2,0.1c4.9-0.1,9.8-0.4,14.8-0.7
			c11.2-0.7,22.3-1.5,33.5-1.7c21.3-0.4,42.6-1.5,63.9-1.7c6.3-0.1,12.6,0.1,18.9,0.4c2.8,0.2,5.6,0.3,8.4,0.4c0.5,0,1.2,0,2-0.1
			c1.7-0.1,3.7-0.2,4.7,0.3c5.6,2.9-5.8,3.3-7.2,3.2c-5.8-0.1-11.6-0.5-17.3-0.7c-21.3-0.5-42.7,0.8-64,1.6
			c-10.2,0.4-20.4,0.5-30.7,1.1c-5.6,0.3-11.2,0.7-16.8,1c-2.6,0.1-5.2,0.3-7.7,0.3c-1.1,0-3,0.3-4.5,0.3
			C725.4,28.2,724.8,28.2,724.2,28z"/>
		<path id="Image_X" class="st2" d="M749.6,88.3c-1.4,0-2.3-0.3-2.4-2c-0.2-2.1,3.2-3,4.6-3.7c4.7-2.4,9.4-4.7,14.2-6.9
			c9.4-4.5,18.9-8.8,28.5-13l0.2-0.1c-5.3-1.8-10.6-3.5-15.9-5.3c-3-1-24.4-6.2-23.6-9.1c0.9-3.2,19.7,4.3,22.7,5.2
			c7.1,2.3,14.3,4.6,21.4,7.1c17-7.6,34.2-15.8,52-21.4c1.1-0.3,1.8,0.8,1.6,1.8c-0.3,1.3-4.3,2.3-5.4,2.8c-4.4,2-8.8,3.9-13.1,5.8
			c-9.5,4.3-19.1,8.5-28.6,12.7l-0.6,0.3c6.7,2.4,13.4,4.9,20,7.4c3.5,1.4,7.1,2.8,10.6,4.2c1.8,0.7,9.1,2.4,9.6,4.2
			c0.6,2.5-7.3-0.6-8.5-1c-3.5-1.1-7-2.4-10.5-3.6c-7.8-2.8-15.6-5.7-23.4-8.4l-2.2-0.8c-8.3,3.7-16.6,7.5-24.9,11.3
			c-4.4,2.1-8.8,4.1-13.2,6.3C759.1,83.8,753.3,88.3,749.6,88.3L749.6,88.3z"/>
		<path id="Fill_117" class="st2" d="M738.4,136.8c-2.9,0.1-5.7-0.8-8-2.5c-1.4-1.1-2.4-2.5-2.9-4.2c-0.3-1.3-0.4-2.6-0.2-4
			c-0.1,0-0.3,0-0.4,0c-0.6,0-1.2-0.3-1.6-0.9c-0.3-3.7,3.1-6.9,5.1-8.5c2.8-2.2,6-3.7,9.5-4.4c0.4-0.1,0.8-0.1,1.2-0.1
			c2.9,0.1,5.7,1.3,7.6,3.5c2.3,2.5,3.6,5.7,3.5,9.1c-0.1,3.1-1.4,6-3.7,8.2c-2.3,2.1-5.2,3.4-8.2,3.7
			C739.7,136.8,739.1,136.8,738.4,136.8z M741.3,116.1c-0.9-0.1-1.7,0.3-2.1,1.1c-0.3,0.7-0.9,1.2-1.6,1.5c-0.4,0.1-0.8,0.2-1.1,0.2
			c-0.5,0-1,0-1.4,0.2c-1.1,0.7-2,1.7-2.6,2.9l-0.1,0.1c-1.6,2.7-2,5.5-1,7.6c0.9,1.9,2.8,3.1,5.5,3.5c0.6,0.1,1.2,0.1,1.8,0.1
			c4.5,0,9.5-2.5,10.1-8c0.4-4.4-2.6-8.5-6.9-9.3C741.7,116.1,741.5,116.1,741.3,116.1z"/>
		<path id="Fill_119" class="st2" d="M765.7,120.3c-2.4,1.3-6.2,3.2-7.5,5.6c-1.5,2.5,0.1,5.3,3.2,4.1c2.5-1,4-4,6.7-4.9
			c2.3-0.9,3.3-0.4,5.7,0.4c2.5,0.9,4.7,1.7,7.5,1.5c3.4-0.3,6.4-2.3,9.8-2.7c2.8-0.4,5.2,0.7,7.9,1.2c3.1,0.5,5.2-0.7,8.2-1.3
			c2-0.4,5.5,1.3,7,0.7c3.3-1.4-0.2-3.2-2-3.8c-3.1-1-5-0.1-7.9,0.7c-3.2,0.9-4.5,0.2-7.6-0.6c-6.1-1.6-10.9,2.3-16.7,1.6
			C774.6,122.1,771.3,117.3,765.7,120.3"/>
		<path id="Fill_121" class="st2" d="M862.6,131.6L862.6,131.6c-3.1,0.1-6.1-1.1-8.4-3.2c-1.4-1.5-2.1-3.5-1.8-5.5
			c0.1-2.8,1.5-5.3,3.7-7c2.2-1.6,4.8-2.6,7.5-3c0.5-0.1,1.1-0.2,1.6-0.2c2,0,3.9,0.9,5.1,2.5s1.9,3.6,1.9,5.7c0.1,2.5-0.6,4.9-2,7
			c-1.5,2.2-4,3.5-6.7,3.7C863.3,131.5,863,131.6,862.6,131.6z M865.2,117.3c-2.5,0-5.7,0.8-7.1,2.7c-0.9,1-1.3,2.3-1.2,3.7
			c0.2,1.1,0.8,2,1.8,2.6c1.1,0.8,2.5,1.3,3.9,1.3c2.3,0,4.4-1.4,5.2-3.5c0.9-2.3,0.2-4.8-1.9-6.7
			C865.6,117.4,865.4,117.3,865.2,117.3z"/>
	</g>
	<g id="Cards" transform="translate(0 448.49)" class="st1">
		<path id="Fill_173" class="st2" d="M54.9-49.2c-8.5,0.1-16.9,0.4-25.3,0.9c-8,0.5-16.7,0.1-24.5,1.7c-2.2,0.4-5.3,2.4-2.3,4.7
			c2.1,1.6,9.7-0.2,12.2-0.4c9.2-0.6,18.4-1.2,27.6-1.6c8.7-0.3,17.4-0.4,26.1-0.5c1.3,0,3.5-0.4,4.9-0.1c1.9,0.6,1.5,0.7,1.6,3.1
			c0.3,4.4,0.2,8.8,0.1,13.1c-0.1,4.2-0.2,8.5-0.2,12.7c0,3-1,9,0.6,11.7c2.2,3.8,4.4-0.3,4.6-2.8c0.3-4.8,0.2-9.7,0.2-14.5
			c0-4.5,0-9-0.1-13.5c-0.1-3.3,0.4-9-1.4-11.9c-1.8-3-6.1-2.4-9.2-2.5C64.7-49.3,59.8-49.3,54.9-49.2"/>
		<path id="Fill_171" class="st2" d="M1.3-43.8c0,8.5-1,16.9-1.2,25.4c-0.1,3.9-0.4,8.2,0.6,12c1,3.9,4.2,4.7,4.5,0.4
			c0.7-8.7,0.5-17.8,1.1-26.6c0.2-3.1,1.5-8.8,0.3-11.7C5.5-46.9,1.3-47.4,1.3-43.8"/>
		<path id="Fill_175" class="st2" d="M80.3-6.4C65.7-4.5,50.4-5.2,35.6-4.9c-7.1,0.1-14.1,0.2-21.2,0.2c-2.5,0-8.7-0.9-10.9,0.5
			C0.1-2,3.8-0.3,6-0.2C20,0.1,34.1-0.5,48-1c6.3-0.2,12.6-0.3,18.8-0.8c4-0.2,7.9-0.8,11.8-1.7c0.8-0.2,2.5-0.2,2.7-1.3
			C81.5-5.4,81.3-6.5,80.3-6.4"/>
		<path id="Fill_177" class="st2" d="M19.4,5.9C15.3,5.9,3.1,4,1.4,8c-2.2,5.3,6.5,4.1,8.9,4c5.3-0.1,10.7-0.2,16-0.2
			s10.5,0,15.7-0.2c1.5,0,5.1,0.6,5.9-1.2c0.6-1.1,0.2-2.5-0.9-3.1c-0.1,0-0.1-0.1-0.2-0.1c-3-1.8-10.6-0.7-14.1-0.9
			C28.4,6.2,23.9,5.9,19.4,5.9"/>
		<path id="Fill_179" class="st2" d="M68.9,6.9c-2.3,0.1-7-0.8-9.1,0.2c-2.4,1.2-1.5,3.1,0.5,3.9c1.4,0.6,7.2,0.3,8.6-0.4
			C70.3,10,72,6.7,68.9,6.9"/>
		<path id="Fill_181" class="st2" d="M94.4-43c-2.5,0.7-1.7,14.8-1.8,17c-0.2,6.1-0.9,13.8,1.2,19.7c1.3,3.8,3.8,3.2,3.4-0.7
			c-0.4-3.5-1-6.9-1.3-10.4c-0.7-7.9-1.5-16.3-1-24.2c0.3,0.5,2.6,4.7,3.2,4.4C97.9-37.1,95.4-43.2,94.4-43"/>
		<path id="Fill_183" class="st2" d="M122.3-48.1c-5,0.1-10,0.2-15.1,0.3c-4,0.1-10.3-0.5-13.9,1.1c-4.4,2-2.3,6.5,1.8,6.5
			c3.6,0.1,7.5-0.7,11.1-0.9c9.9-0.3,19.8-0.4,29.6-0.5c8.9-0.1,18.2,0.9,27.1-0.5c1.3,11.7-2.2,23.4-1,35.2
			c0.2,1.8,0.1,4.4,2.4,4.8c2.9,0.5,3.1-2.4,3.2-4.5c0.3-6,0.1-11.9,0.6-17.9c0.4-5.5,1.2-11.2,0.5-16.7c-0.8-6.8-4.1-6.3-9.9-6.6
			C146.6-48.2,134.5-48.3,122.3-48.1"/>
		<path id="Fill_185" class="st2" d="M105.5-6.7c-2.6,0.1-6.8-0.7-8.4,1.7c-1.7,2.6,0.3,4.8,2.8,5.3c2.9,0.6,6.8-0.2,9.8-0.2
			c3.2,0,6.3,0,9.5,0c13.6,0.1,27.3,0.3,40.9-0.3c1.9-0.1,7.3,0.6,8.6-1.3c1.2-1.6,0.4-3.1-1.2-3.9c-2.5-1.3-7.7-0.8-10.5-0.9
			c-3.5-0.1-6.9-0.2-10.4-0.2C132.9-6.7,119.1-7.1,105.5-6.7"/>
		<path id="Fill_187" class="st2" d="M117,5.1c-5.1,0.1-10.5-0.1-15.6,0.6c-4.4,0.7-5,5-0.2,5.5c4.4,0.5,9.7-0.4,14.1-0.7
			c1.6-0.1,3.4,0,4.1-1.7c0.5-1.4-0.2-3-1.7-3.6C117.5,5.1,117.3,5.1,117,5.1"/>
		<path id="Fill_189" class="st2" d="M155.5,5.5c-2.7,0.1-10.7-1.1-12,2c-2.2,5.2,8.5,3.2,10.6,3.1c2.6-0.1,12.7,1.4,12.7-2.7
			C166.8,3.9,158,5.5,155.5,5.5"/>
		<path id="Fill_191" class="st3" d="M0.8,31.2c0,9.4-0.6,18.9,0.3,28.3c0.4,3.9,0.3,11.3,2.5,14.6c1.6,2.3,3.8,2.2,4.7-0.6
			c0.6-1.9-0.3-5.6-0.5-7.6c-0.1-1.9-0.2-3.8-0.3-5.8c-0.2-5-0.2-9.9-0.1-14.9c0.1-4.3,1.1-9.9,0.1-14C6.6,27.4,0.8,26.5,0.8,31.2"
			/>
		<path id="Fill_193" class="st3" d="M95.3,22.9c-16.3,0.4-32.7,0-49,0.9c-8,0.4-16,1.3-24,2.1c-3.9,0.4-7.9,0.9-11.8,1.4
			c-1.2,0.1-11,0.5-7.3,4.3c1.6,1.6,6.8-0.1,8.8-0.3c3.9-0.5,7.9-0.9,11.8-1.3c7.5-0.8,15-1.5,22.6-2c17.7-1,35.6-0.7,53.3-1.3
			c4.8-0.2,9.6-0.3,14.4-0.1c1.3,0.1,10.5,0.5,6.5-2.9c-1.9-1.6-9.1-0.8-11.5-0.8C104.6,22.7,100,22.8,95.3,22.9"/>
		<path id="Wireframy_Stuff" class="st3" d="M4.8,77.8c-0.4-5.3,13-5.3,16.9-5.7c16.5-1.5,33.2-1.2,49.7-1c8,0.1,16,0.4,23.9-0.1
			s16.2-0.4,24.1-1.2c-1-4-0.9-8.9-1.2-12.9c-0.7-10.4-0.5-20.8-1-31.1c-0.2-4.6,6-5.3,7.9-1.6s0.7,11.2,0.8,15.3
			c0.3,9.6,2.1,20.3,0.2,29.8c-0.7,3.3-3.4,5-5.3,3.2l0,0c-0.7,1-2.9,1-4.5,1c-0.4,0-0.8,0-1.1,0c-4.4,0.3-8.7,0.8-13,1.4
			c-8.6,1.3-17.3,2.1-26,2.3c-17.3,0.4-34.6,0-51.9,1.2c-3.8,0.2-7.6,0.7-11.3,1.4c-1.6,0.4-3.2,0.7-4.8,0.8
			C6.4,80.8,4.9,80.1,4.8,77.8z"/>
		<path id="Fill_199" class="st3" d="M130.8,29.1c-2.2,0.3-4,2.2-3.1,4.6c1.2,3,4.9,1.8,7.4,1.6c7.8-0.6,15.8,0.6,23.5-0.3
			c2.1-0.3,5.1-1.4,3.2-4.2c-1.4-2.1-6.6-1.7-8.7-1.9C145.7,28.2,138.2,28.3,130.8,29.1"/>
		<path id="Fill_201" class="st3" d="M143.9,42.2c-3,0.2-10,0-11.3,3.5c-2.3,6.1,6.6,4,9.3,3.6c3.1-0.4,10.6,0.7,12.2-2.4
			C157.2,41.5,146.5,42.1,143.9,42.2"/>
		<path id="Fill_203" class="st3" d="M136.1,55.7c-1.4,1.5-1.4,3.9,0,5.4c1.7,1.7,5.6,1.4,7.9,1.5c3.2,0.2,12.4,1.9,14-1.9
			c2.1-5.1-6.2-5-8.9-5.3C145.9,55.1,138.8,53.1,136.1,55.7"/>
		<path id="Fill_205" class="st2" d="M23.8-31.4c0,5.5,8.5,5.5,8.5,0S23.8-37,23.8-31.4"/>
		<path id="Fill_207" class="st2" d="M40-31.4c0,6.3,9.7,6.2,9.7,0S40-37.7,40-31.4"/>
		<path id="Fill_209" class="st2" d="M30.2-23.1c-4.7,1.3-0.4,5.3,1.8,6.2c3.5,1.5,8.3,2.5,11.8,0.3c1.4-0.9,2.5-2,1.5-3.7
			c-1.1-1.8-2.6-1-4.2-0.8c-1.9,0.3-3.9,0.1-5.8-0.5C33.7-22,31.9-23.5,30.2-23.1"/>
		<path id="Fill_211" class="st2" d="M116.1-31.1c0,3.7,5.7,3.7,5.7,0S116.1-34.8,116.1-31.1"/>
		<path id="Fill_213" class="st2" d="M128.8-30.5c0,4.1,6.4,4.1,6.4,0S128.8-34.6,128.8-30.5"/>
		<path id="Fill_215" class="st2" d="M128.3-21.6c-3.4,0.4-13.1,1.4-13.6,5.6c-0.8,6.4,9.8,1.2,12.2,0.7c3-0.5,6-0.6,8.9-0.3
			c1.7,0.1,3.9,0.3,3.8-2.2C139.3-22.2,131.2-22,128.3-21.6"/>
		<path id="Fill_217" class="st3" d="M44,37.2c-2.4,0.6-5.6,4.9-3.9,7.4c2.7,4.2,4-2.3,5.1-2.9c2.1-1.1,3.8,3,6,0.8
			C54.5,39.2,46.1,36.6,44,37.2"/>
		<path id="Fill_221" class="st3" d="M49.7,51.4c-4.6,2.7,3,8.5,5.6,9.2c4,1.1,12-0.9,12.9-5.8c0.4-1.9-0.8-3.7-3-3.3
			c-1.8,0.3-2.9,2.5-4.5,3.3c-1.9,1.2-4.4,0.9-6-0.6C53.3,52.8,52.4,49.8,49.7,51.4"/>
		<path id="Fill_223" class="st3" d="M53.1,91.3c-4.1,0.9-8.3,0.3-12.4,1.1c-4.2,0.8-6.7,2.4-10.7,0.8L29.4,93
			c-3-1.3-6.2-1.7-9.4,0.4c-1.9,1.2-7.6,5.5-6.9,8.1c1.5,5.6,7.9-3.2,9.6-4.1c3.1-1.6,5.3,0.5,8.5,1c3.9,0.7,7-1.3,10.6-2.1
			c4.2-0.9,9-1.3,13.3-1.8c1.7-0.2,8.2,1.1,8.8-1C64.8,89.9,54.7,90.9,53.1,91.3"/>
		<path id="Fill_225" class="st3" d="M93.2,107.6L93.2,107.6c-3.1,0-5.5-0.1-7.7-0.3c-1.5-0.1-3-0.4-4.4-1c-1.3-0.7-2.2-2-2.5-3.5
			c-0.6-2.1-1.1-4.3-1.4-6.6c-0.4-3.3,0-5.2,1.1-5.8c0.4-0.2,0.8-0.2,1.2-0.2c0.2,0,0.5,0,0.7,0l0,0c0.2,0,0.4,0,0.6,0
			c0.1,0,0.3,0,0.4,0c1-0.2,2-0.4,3.1-0.7c1.4-0.4,2.8-0.7,4.3-0.9c4.1-0.5,8.5-0.9,13.5-1.1h0.1c0.8,0,1.7-0.1,2.7-0.1
			c1.9-0.1,3.8,0.2,5.6,0.7c1.7,0.4,3.1,1.6,3.9,3.2c1.4,3.2-0.3,9.8-2,12.8c-1.8,3.1-5.2,3.6-8.8,3.6c-0.7,0-1.3,0-1.9,0l0,0
			c-0.6,0-1.2,0-1.8,0h-0.4h-1.7l0,0C96.1,107.6,94.6,107.6,93.2,107.6z M81.4,92.6L81.4,92.6c0.1,0.5,0.1,1.4,0.2,2.5l0,0
			c0.2,2.8,0.4,6.5,1.2,7.5c0.8,0.9,3.6,0.9,5.2,0.9l0,0c0.4,0,0.7,0,1,0c2.6,0.2,5.2,0.2,7.8,0.3h0.1c1,0,2.2,0.1,3.3,0.1
			c0.6,0,1.4,0.1,2.2,0.2l0,0c1.2,0.2,2.4,0.3,3.7,0.3c0.8,0,1.5-0.1,2.2-0.4c1-0.5,2.2-2.6,2.9-5.4c0.7-2.3,1.1-5.5,0.2-6.9
			c-0.8-1.3-2.9-1.9-6.2-1.9c-2.9,0.1-5.7,0.4-8.5,0.8l0,0c-1,0.1-1.8,0.3-2.4,0.3c-1.3,0.2-2.6,0.4-4,0.7l0,0
			c-2.2,0.6-4.5,0.9-6.8,1C82.8,92.9,82.1,92.8,81.4,92.6z"/>
		<path id="quare" class="st2" d="M144.5,109.4L144.5,109.4c-4.7,0-9.4-0.2-14.1-0.7c-2.9-0.3-4.6-0.9-5.9-2c-1.4-1.2-2.1-3-2.4-5.7
			c-0.1-0.6-0.2-1.4-0.3-2.2c-0.6-4.1-1.4-10.4,1.8-12.4c2.4-1.5,7.2-1.7,10.8-1.8c0.8,0,1.6-0.1,2.3-0.1c0.4,0,0.8,0,1.2,0
			c2.2,0.1,4.4,0.2,6.6,0.6c1.8,0.2,3.6,0.5,5.4,0.5c3.1,0.1,5,0.4,6.4,1.3s2.3,2.5,2.9,5.4c0.1,0.4,0.2,0.7,0.4,1.1
			c0.3,0.5,0.4,1.1,0.5,1.7c-0.1,1.5-0.3,3-0.7,4.4c-0.2,0.7-0.3,1.3-0.4,1.9c-0.5,2.9-1.5,4.9-3.2,6.1c-1.5,1.2-3.6,1.7-6.6,1.8
			C147.6,109.4,146,109.4,144.5,109.4z M148.7,102.4c-1.7,0.3-3.6,0.7-6,1.1l-0.3,0.1l0,0l-0.6,0.1h-0.2c0.7,0.1,1.3,0.1,1.9,0.2
			c0.7,0.1,1.3,0.2,2,0.2C146.8,104.2,148,103.5,148.7,102.4L148.7,102.4z M134.7,102.1L134.7,102.1l-0.3,0.1l0,0l-1.2,0.4l0,0h-0.1
			H133l-0.2,0.1l-0.4,0.1c0.9,0.1,1.8,0.2,2.6,0.3C134.8,102.8,134.7,102.4,134.7,102.1L134.7,102.1z M129.2,99
			c-0.1,0-0.3,0-0.4,0.1c-0.1,0.1-0.1,0.2-0.1,0.3c0,0.2,0,0.3,0.1,0.5c0,0.1,0.1,0.1,0.2,0.1c0.3,0,0.7-0.3,1.3-0.8l0,0l0,0
			c-0.2,0-0.3,0-0.5-0.1l0,0l0,0l0,0l0,0l0,0l0,0C129.6,99,129.4,99,129.2,99z M144.8,91.3c-0.1,0-0.2,0.1-0.2,0.1
			c-0.2,0.1-0.3,0.2-0.2,0.3l0,0c0.2,0,0.4-0.1,0.6-0.2l0,0l0,0l0,0h0.1C145,91.4,144.9,91.4,144.8,91.3z M153.2,89.9
			c0.8,1.2,1.3,1.3,1.4,1.3c0.1,0,0.1-0.1,0.1-0.1l0,0C154.7,90.7,154.2,90,153.2,89.9z"/>
	</g>
	<g id="Profile" transform="translate(541.767 418.288)" class="st1">
		<path id="face-3" class="st2" d="M509.6-163.8L509.6-163.8c-4.1,0-8.2-1.1-11.7-3.1c-3.5-1.9-6.4-4.7-8.4-8.2
			c-1.4-2.5-2.1-5.3-2.1-8.1c0.1-3.2,1.1-6.3,2.8-9c-1.1-0.2-1.7-0.6-1.8-1.2c-0.2-1.6,3.5-3.9,4.4-4.4l0.3-0.2
			c3.2-1.7,6.5-3.5,10-4c1.5-0.2,3-0.3,4.5-0.3c4,0,8,0.8,11.6,2.4c3.6,1.6,6.7,4.3,8.6,7.8c1.1,2,1.8,4.2,1.9,6.5
			c0.2,2.2-0.1,4.5-0.7,6.7c-0.6,2.2-1.6,4.3-2.8,6.2s-2.8,3.6-4.5,5C518.3-165.2,514-163.8,509.6-163.8z M507.2-197.7
			c-4.7,0-9.3,1.9-12.5,5.4c-2.6,2.9-3.7,6.7-3.2,10.6c1,7.8,8.9,14.4,17.2,14.4c0.4,0,0.7,0,1.1,0c7.9-0.7,14.3-6.7,15.5-14.6
			c0.6-3.4-0.4-7-2.7-9.6c-3.1-3.6-8.9-6-15.1-6.1C507.5-197.7,507.3-197.7,507.2-197.7L507.2-197.7z"/>
		<path id="Fill_231" class="st2" d="M501-185.9c0,3.5,5.5,3.5,5.5,0S501-189.4,501-185.9"/>
		<path id="Fill_233" class="st2" d="M511.2-185.3c0,3.8,6,3.8,6,0S511.2-189.2,511.2-185.3"/>
		<path id="Fill_235" class="st2" d="M504.3-177.7c-0.8,2.9,8.3,4.4,8.7,1C513.1-178.3,504.9-179.8,504.3-177.7"/>
		<path id="Fill_237" class="st2" d="M531.1-179.5c10.5-1.3,21.4-0.7,32-0.4c2.6,0.1,5.3,0.2,7.9,0.2c1.7,0,5.3,0.8,6.8,0
			c6-3.2-5.8-4.8-7.5-4.9c-12.4-0.9-24.9-1.1-37.3-0.8C529.9-185.2,529.3-179.3,531.1-179.5"/>
		<path id="Fill_241" class="st2" d="M527.1-159c-4.1,0.3-7.8,2.3-11.9,2.3c-3.4,0-6.8-1-10.3-0.9c-4.1,0.2-6.3,2.8-9.8,3.7
			c-2.8,0.7-4.6-1.5-7.1-2.4c-3.1-1.2-5.5-0.6-8.1,1.2c-2,1.3-6.6,4.4-6.5,7.1c0.1,8.2,9.7-3.1,11.6-3.3c2.6-0.2,5.4,2.7,8.2,2.9
			c3.6,0.2,5.9-2.1,9.3-3s7,0.2,10.4,0.5c3.9,0.4,7.2-0.5,10.9-1.4c3.4-0.9,6.9-0.9,10.4-0.1c2.5,0.5,8.6,3.4,9.7-0.3
			C545.3-157.8,529.9-159.3,527.1-159"/>
		<path id="Fill_243" class="st2" d="M528.3-143.3c-8.3,0.8-16.7,1.5-25,1.7c-3.6,0.1-17.5-1.5-16.3,3.1c1.1,3.9,20,1.5,23.8,1.2
			c4.3-0.3,8.5-0.8,12.7-1.3c1.5-0.2,5.1,0,6.2-1.3C530.8-141.1,530.3-143.5,528.3-143.3"/>
		<path id="have_a_nice_day_:_" class="st2" d="M473.6-108.9c-2.6,0-5.1-1.3-6.7-3.3s-2.5-4.5-2.6-7.1c-0.1-3.9,2.1-8.2,8.4-8.4h0.1
			c0.5,0,0.9,0.2,1.2,0.5c0.2,0.2,0.5,0.4,0.8,0.5l0,0c0.2-0.1,0.5-0.2,0.6-0.3l0.1-0.1c0.3-0.2,0.6-0.3,0.9-0.4l0,0
			c2.7,0.2,4.4,0.7,5.9,2.9c0.7,1.2,1.1,2.5,1.2,3.9c0,1.5-0.2,3-0.7,4.4c-1.1,3.3-3.4,5.9-5.9,6.8
			C475.9-109.1,474.8-108.9,473.6-108.9z M475.5-123.2c-0.3,0-0.7,0.1-1,0.3l0,0c-0.5,0.3-1.1,0.5-1.7,0.5c-2.2,0-3.4,1.2-3.4,3.1
			c0.1,1.3,0.6,2.6,1.4,3.6c0.8,1.1,2,1.7,3.3,1.8c1.1,0,2.1-0.5,2.8-1.3c0.9-1,1.5-2.1,1.7-3.4c0.2-0.9,0.5-2.6-0.4-3.7
			c-0.5-0.6-0.7-0.6-1.1-0.7l0,0c-0.2,0-0.5-0.1-0.7-0.1C476.1-123.1,475.8-123.2,475.5-123.2z"/>
		<path id="espero" class="st2" d="M508.4-110.8L508.4-110.8h-0.2c-2.1,0-4.1-1-5.5-2.6c-1.6-1.9-2.3-4.4-2-6.8
			c0.5-4.4,3.3-6.8,8.6-7.5c0.3,0,0.7-0.1,1-0.1c1.6,0,3.1,0.6,4.2,1.8c1.5,1.9,2.3,4.3,2,6.7c-0.1,2.1-0.9,4.2-2.3,5.8
			C512.8-111.7,510.7-110.7,508.4-110.8z M507.2-121.7L507.2-121.7L507.2-121.7c-1,0.7-1.4,2.1-1,3.3c0.2,1.2,1.2,2,2.4,2.1
			c0.3,0,0.6-0.1,0.9-0.2c1-0.6,1.7-1.6,2-2.7c0.2-0.6,0.1-1.2-0.3-1.7v0.1c0,0-0.1,0-0.2,0c-0.8-0.1-1.5-0.2-2.2-0.4
			c-0.7-0.2-1.3-0.3-1.5-0.4L507.2-121.7z"/>
		<path id="hola" class="st2" d="M556.3-111.6L556.3-111.6c-1.8,0-3.6-0.7-4.9-2c-1.2-1.2-1.9-2.8-2-4.6c-0.2-1.9,0.2-3.8,1.3-5.3
			c1.2-1.8,3.1-3,5.2-3.4c-1.2-0.7-1.7-2.2-1-3.4c0.4-0.8,1.2-1.4,2.1-1.5c3,0,6.5,7,6.8,8.8c0.4,2.3,0.3,4.6-0.5,6.8
			c-0.8,2.2-2.6,3.9-4.9,4.3C557.6-111.7,556.9-111.7,556.3-111.6z M558.4-121.5L558.4-121.5c-3.1,0.3-3.4,1.6-3.4,2.1
			c0.1,0.9,0.8,1.7,1.8,1.7c0.4,0,0.7-0.2,0.9-0.4C558.2-118.5,558.6-119.4,558.4-121.5L558.4-121.5z"/>
	</g>
	<g id="List" transform="translate(1028.138 481.083)" class="st1">
		<path id="Fill_253" class="st3" d="M470-137.7c0,5.7-0.3,11.5,0.8,17.1c0.3,1.7,0.6,5,2.4,5.8c1.3,0.7,3,0.2,3.7-1.1
			c0.1-0.3,0.2-0.5,0.3-0.8c0.5-2.1-0.6-5.4-0.7-7.6c-0.2-3.1-0.2-6.2-0.2-9.2c0-2.2,0.7-5.8-1.9-7c-1.8-0.7-3.6,0.1-4.2,1.8
			C470-138.4,470-138,470-137.7"/>
		<path id="Fill_257" class="st2" d="M566.7-114.8c-16.3,1.5-33.1,0-49.5,0.6c-8.6,0.3-17.2,0.8-25.8,1.1c-3.7,0.1-7.4,0.1-11.2,0.2
			c-1.8,0-9.9,1.1-4.9,4.6c2.2,1.6,9.3,0.3,11.8,0.3c3.8,0,7.6-0.2,11.5-0.4c8.9-0.3,17.7-0.8,26.6-1.1c8.5-0.2,16.9-0.3,25.4-0.5
			c4.2,0,8.5-0.3,12.7-0.9c0.9-0.1,4-0.2,4.7-1.3C568.6-113.2,568.2-115,566.7-114.8"/>
		<path id="Fill_259" class="st3" d="M490.5-117.6L490.5-117.6c-2.4,0-4.8-0.9-6.5-2.6c-1.6-1.6-2.5-3.6-2.7-5.8
			c-0.2-2,0.4-4,1.6-5.7c1.6-1.9,3.8-3.1,6.3-3.5c0.1,0,0.3,0,0.4,0c0.5,0,0.9,0.2,1.3,0.4c0.3,0.2,0.7,0.3,1.1,0.4
			c0.1,0,0.2,0,0.3,0c0.3,0,0.7,0,1-0.1s0.7-0.1,1-0.1s0.5,0,0.8,0.1c2.3,0.7,3.8,3,4.5,4.9c0.4,1.2,0.6,2.6,0.5,3.9
			c-0.2,2.5-1.5,4.8-3.5,6.3c-1.1,0.8-2.3,1.3-3.6,1.6C492.1-117.7,491.3-117.6,490.5-117.6z M493.1-129.3L493.1-129.3
			c-2.1,0-5.9,0.5-6.6,2.1c-0.3,0.7,0,1.6,1,2.6c0.8,0.9,1.9,1.4,3.1,1.4c1.5,0,2.9-0.9,3.6-2.3
			C494.6-126.8,494.2-128.3,493.1-129.3L493.1-129.3z"/>
		<path id="Fill_261" class="st3" d="M539.3-130.2c-7.9,0-15.8,0.4-23.8,0.5c-2.4,0-8.7-1-8.7,2.8c0,4.1,6.9,2.6,9.3,2.5
			c7.9-0.2,15.7-0.5,23.6-1.3c2-0.2,8.8,0.1,8.8-2.6C548.5-131.1,540.9-130.2,539.3-130.2"/>
		<path id="Fill_263" class="st2" d="M558.2-103.5c-19.5,0.5-39.1,0.7-58.7,1.7c-7.3,0.4-14.6,0.7-22,0.7c-1.4,0-4.3-0.5-5.6,0.3
			c-3.6,2.4,0.5,4.5,2.9,4.6c16.1,0.9,32.4-1.3,48.5-1.8c9.4-0.3,18.8-0.4,28.2-0.9c2.6-0.1,5.1-0.3,7.7-0.5
			c1.5-0.1,5.4,0.2,6.6-0.7C571-103.8,560-103.6,558.2-103.5"/>
		<path id="Fill_265" class="st2" d="M468.4-94c-0.3,5-0.1,10.1,0.5,15.1c0.3,2,0.4,4.2,2.7,4.7c2.1,0.5,3.2-1.1,3.6-2.9
			c1.1-4.3,0.1-10.6,0.1-15.1c0-2.2,0-4.7-2.8-5.2c-1.9-0.4-3.7,0.9-4.1,2.8C468.4-94.3,468.4-94.1,468.4-94"/>
		<path id="Fill_267" class="st2" d="M579-81.7c-31.7,1.7-63.4,3.2-95.1,4.5c-2.5,0.1-21.7-0.1-15,6.6c2.1,2.1,7.4,0.7,10.1,0.5
			c4-0.2,8.1-0.3,12.1-0.6c16-0.8,32-1,48-1.9c8.8-0.5,17.6-1.3,26.3-2.3c4.2-0.5,9.3-0.4,13.2-2.1C580.7-77.8,582.9-81.9,579-81.7"
			/>
		<path id="Fill_269" class="st2" d="M560.8-107.5c-2.4,2.4-1.2,7.1-1,10.1c0.3,4.1,0.6,8.2,1.1,12.2c0.3,2.6,0.2,6.7,1.6,9
			c1.1,1.8,3.5,2.4,5.4,1.3c0.6-0.4,1.1-0.9,1.4-1.5c1.3-2.3,0.7-7.1,0.6-9.6c0-3.5-0.3-7-0.5-10.5c-0.2-2.9,0.5-7.6-1.1-10.1
			c-1.4-2.3-4.3-3-6.6-1.7C561.3-107.9,561-107.7,560.8-107.5"/>
		<path id="Fill_271" class="st2" d="M490.9-80.1L490.9-80.1c-0.5,0-1.1,0-1.6-0.1c-2.7-0.4-5-2.1-6.4-4.4c-1-1.8-1-4,0-5.9
			c0.9-1.6,2.4-2.8,4.2-3.2c1.8-0.5,3.7-0.8,5.6-0.8h0.5c0.2,0,0.4,0,0.5,0c2.1,0,4,0.9,5.5,2.4c1.3,1.3,1.9,3.1,1.8,4.9
			c-0.2,2.3-1.5,4.3-3.5,5.4S493.2-80.1,490.9-80.1z M488.4-88.8c-0.1,0-0.3,0.1-0.4,0.2c-0.5,0.6-0.6,1.5,0,2
			c0.6,1,1.7,1.5,2.8,1.5c2.3,0,4.7-1.7,4.8-3c0-0.5-0.2-1.1-1.7-1.4h-0.1c-1.5,0.2-2.9,0.5-4.2,1.1c-0.1,0-0.1,0-0.2,0
			c-0.2,0-0.4-0.1-0.5-0.2C488.8-88.7,488.6-88.7,488.4-88.8z"/>
		<path id="Fill_273" class="st2" d="M523.2-92c-3.7,0.1-11-1-14.3,0.8c-3.2,1.8-1.8,5,1.1,5.7c1.9,0.5,5.1-0.3,7.1-0.4
			c2.6-0.1,5.3-0.1,7.9-0.2c4.4-0.1,8.9,0,13.3,0c4.5,0,9.2,0.1,13.7-0.2c5.7-0.4,5.6-4.7,0-5.3C542.6-92.5,532.7-92.2,523.2-92"/>
		<path id="Fill_275" class="st2" d="M513.7-43.9c0,2,1.8,0,1.8,0S513.7-45.9,513.7-43.9"/>
		<path id="Fill_277" class="st2" d="M472.7-60.3c0.1,5.9,0.2,11.9,0.4,17.8c0.1,1.9-0.5,5.5,1.8,6.5c2.5,1.1,3.3-1.6,3.6-3.4
			c0.9-5.7,0-12.2-0.1-18c0-1.9,0.4-4.6-1.8-5.6c-1.4-0.5-3.1,0.2-3.7,1.7C472.8-61,472.7-60.6,472.7-60.3"/>
		<path id="Fill_279" class="st2" d="M573.2-43.9L573.2-43.9c-1-0.1-1.9-0.7-2.3-1.6c-0.9-1.4-0.5-4-0.1-6.4
			c0.2-1.3,0.4-2.6,0.3-3.9c0-0.2,0-0.5-0.1-0.7c-0.1-1.7-0.2-3.2-1.7-3.8c-0.7-0.2-1.4-0.4-2.1-0.3c-0.8,0-1.8,0.1-2.6,0.2
			c-0.7,0.1-1.4,0.1-1.9,0.1c-4.5,0-9.1,0-13.5,0c-13.6,0-27.7,0.1-41.6,0.4c-8.2,0.2-14.5,0.4-20.3,0.7c-3.1,0.1-6.2,0.5-9.3,1.1
			c-1.3,0.3-2.5,0.4-3.8,0.4c-1.6,0-2.5-0.3-2.8-0.9s0-1.4,0.9-2.5c1.5-1.9,6.7-2.3,9.9-2.5c0.6,0,1.1-0.1,1.5-0.1
			c3.4-0.3,6.9-0.5,10.2-0.6l1.5-0.1c8.1-0.3,16.4-0.5,24.4-0.6h3c4.8-0.1,9.8-0.1,15.2-0.1c4,0,8.2,0,12.8,0.1
			c5.3,0,10.7,0.3,16.5,0.8c2.3,0.2,4,0.3,5.3,1s2.1,2,2.8,4.4c1,3.4,2.1,7.7,1.4,11.4C576.3-45.8,574.8-43.9,573.2-43.9z"/>
		<path id="Fill_281" class="st2" d="M558.6-40.5c-19.8,2.3-40.1,0.9-60,1c-4.8,0-9.7,0.1-14.5,0.3c-2.5,0.1-8.6-0.6-10.3,1.4
			c-3.7,4.1,3,4.8,5.4,4.6c4.9-0.3,9.8-0.5,14.7-0.5c17.3-0.1,34.7,0.7,52-0.2c7.2-0.5,14.4-1.5,21.4-3c1.6-0.3,12.3-2.4,6.2-4.8
			C569.8-43.2,562.4-41,558.6-40.5"/>
		<path id="Fill_284" class="st2" d="M498.2-41L498.2-41c-2.7,0.1-5.4-1-7.3-3c-3.3-3.8-1.1-7.6,1.5-10.9c0.6-0.7,1.4-1,2.3-0.9
			c0.9,0,1.8,0.2,2.7,0.4c0.5,0.1,0.9,0.2,1.3,0.3c0.3,0,0.5,0.1,0.8,0.1c2.1,0.3,3.3,0.4,4.9,2.2c1.5,1.7,2.3,4.1,2,6.4
			c-0.3,1.7-1.3,3.2-2.8,4C502-41.5,500.1-41,498.2-41z M498.9-49.8c-0.8-0.1-1.5,0.1-2.1,0.6c-0.1,0.1-0.2,0.3-0.2,0.5
			c0.1,0.5,0.9,1.1,2.2,1.1c0.5,0,1.1-0.1,1.6-0.2c-0.2-0.7-0.5-1.4-1-1.9C499.3-49.8,499.1-49.8,498.9-49.8z"/>
		<path id="Fill_286" class="st2" d="M519.9-48.8c0,4.4,19,2.5,22.4,2.5c2.8,0,19.9,1.6,18.7-3c-1-3.7-17.9-1.9-21.4-1.9
			C536.4-51.1,519.9-53.2,519.9-48.8"/>
	</g>
	<g id="Checkmark_" transform="translate(572.212 644.498)" class="st1">
		<path id="Fill_292" class="st2" d="M49.4-316.5L49.4-316.5c-2,0-3.9-0.3-5.8-0.9c-2-0.6-3.9-1.5-5.7-2.6c-4.2-2.5-7.6-6.1-10-10.4
			c-2.4-4.2-3.5-9.1-3.1-14c-0.5,0.4-1.1,0.6-1.7,0.6c-0.5,0-1-0.3-1.3-0.8c-0.6-1.5-0.6-3.1,0.1-4.5c1.1-1.8,2.3-3.6,3.7-5.1
			c0.2-0.3,0.5-0.6,0.7-0.9c1.9-2.5,4.3-4.4,7.1-5.8c2.8-1.3,5.9-2,9.1-1.9h0.4c5,0,9.9,1,14.5,2.8c2.3,0.9,4.4,2.2,6.4,3.8
			c3.9,3.1,6.5,7.5,7.2,12.5c0.4,2.5,0.3,5-0.1,7.4c-0.8,4.9-3.1,9.5-6.5,13.1C60.5-319,55.1-316.6,49.4-316.5z M42.7-357.1
			c-4.5,0-7.7,1.4-9.8,4.4c-2.6,3.7-3.7,8.2-3.1,12.7c1.1,8.3,9.5,18.3,18.6,18.8c0.3,0,0.5,0,0.8,0c9.7,0,17-9.9,17.1-18.7
			c0.1-12.3-12.1-15.9-19.3-16.9C45.6-356.9,44.2-357,42.7-357.1z"/>
		<path id="Fill_294" class="st2" d="M63.2-365.4c-4.4,3.4-8.4,7.3-11.8,11.8c-3.3,4.2-5.4,9.5-9.3,13.1c-2-2.2-4.3-8-8.2-5.7
			c-3.3,1.9-1.2,5.2,0.4,7.4c4.1,5.6,8.7,7.8,14,2.3c4.8-5,7.5-11.7,12-17c2-2.3,5-4.6,6.6-7.2C68.3-363,66.5-367.8,63.2-365.4"/>
	</g>
	<g id="Whiteboard_Stuff" transform="translate(911.03 120.696)" class="st1">
		<path id="Wireframy_Stuff-2" class="st2" d="M378.6-72.7c-2.2-1-2.1-2.1-1.3-3c-0.5-1.2-0.5-3.2-0.6-4.1
			c-0.5-3.9-0.8-7.9-0.8-11.8c0-7.8,0-15.9,2.2-23.4c-0.8-0.2-1.3-0.9-1.4-1.7c0-3.9,12-3.8,18.1-3.7c1.3,0,2.3,0,2.9,0
			c4.4-0.1,8.7-0.1,13.1-0.1c1,0,2-0.1,3.1-0.1c2.2-0.2,4.4-0.2,6.5,0.2c5.6,1.3,5.2,10.9,5.3,15.5c0.2,8.4,0,16.9-0.6,25.3
			c-0.2,2.9-2.3,6.5-4.7,2.5c-1.3-2.2-0.7-7.3-0.7-9.8c0-8.6,1.3-17.5,0.1-26.1c-0.4-2.8-0.3-3-3.2-2.9c-2.3,0-4.5,0.1-6.8,0.2
			c-4.5,0-9.1,0.1-13.8,0.3c-1.8,0.1-8.1,1.2-13,1.2v0.1c0.1,3.3-1.6,7.4-1.8,10.9c-0.5,8.4,0.2,17-0.6,25.4c0,0.3,0,0.5-0.1,0.8
			c0.1,0,0.3,0,0.4,0c3.7-0.2,7.4-0.1,11.1-0.2c2.3-0.1,4.7-0.1,7.1,0c5.3,0.1,10.5-0.1,15.7-0.6c1.5-0.2,2.1,1.8,1.4,2.8
			c-0.8,1.1-3.2,1.1-4.4,1.2c-3.3,0.4-6.7,0.7-10,0.8c-3.5,0.2-7,0.3-10.6,0.4c-2,0.1-5.8,0.6-8.8,0.6
			C381.1-72,379.8-72.2,378.6-72.7z"/>
		<path id="Wireframy_Stuff-3" class="st2" d="M446.5-73.7c0-0.3,0.1-0.7,0.3-0.9c-0.7-0.7-1.1-1.6-1.4-2.5c-1.2-3.8-1.3-8-1.4-12
			c-0.2-8.5-0.1-17.1-0.1-25.6c-0.8-1-0.3-2.2,0.7-3.1c2.6-2.2,10.1-1.7,13.4-1.8c4.8-0.3,9.5-0.3,14.3-0.3c5,0,10.1,0.1,15.1,0.2
			c1.9,0.1,14.9,0.4,9.1,3.5c-0.4,0.2-0.7,0.3-1.1,0.5c0.2,1.2,0.3,2.4,0.2,3.6c-0.2,4.5-0.4,9.1-0.6,13.6
			c-0.2,5.1-0.4,10.1-0.6,15.2c-0.1,2.7,0.8,8.9-1.3,10.8c-0.5,0.5-1.1,0.8-1.8,0.9c-0.5,0-1-0.3-1.3-0.7
			c-3.6,1.1-10.7,0.9-15.2,0.7c-1.8-0.1-3.1-0.2-3.7-0.1c-2,0-8.7,0.7-14.6,0.7C451.2-71,446.5-71.6,446.5-73.7z M466.7-115.5
			c-5.3,0-10.5,0.3-15.8,0.9c-0.3,0-0.6,0.1-1,0.2c0.8,3.2-0.2,8.6-0.2,11.7c0,8.6,0.3,17.2,0.5,25.8c0,0.3,0,0.5,0,0.8
			c4.1-0.9,10.8-0.7,15.1-0.5c1.7,0.1,3.1,0.1,3.8,0.1c4.2,0,8.5,0,12.7,0.2c0.5,0,1.2,0,2.1,0c1.7-0.1,3.3,0,5,0.1
			c0-0.2,0-0.4,0-0.6c-0.2-4.6,0-9.2,0.2-13.7c0.1-4.6,0.4-9.2,0.6-13.8c0.1-2.4-0.5-7.3,0.1-10.7c-3.1-0.1-6.3-0.4-8.4-0.4
			c-2.6,0-5.2,0-7.8,0C471.2-115.6,468.9-115.6,466.7-115.5z"/>
		<path id="Fill_135" class="st3" d="M398-72.9c-3.1,1.8-1.4,9.1-0.4,11.7c1.8,4.2,5.4,7.4,9.3,9.6c7.9,4.4,19.2,3.2,25.2,10.8
			c0.1,0.1,2.1,2.1,2.6-0.5c0.4-2.2-3.5-5.5-5-6.6c-4.2-3.1-9.7-4.1-14.6-5.6c-5.2-1.6-11-4.7-13.2-10.1
			C401.3-65.7,402.7-75.7,398-72.9"/>
		<path id="Fill_137" class="st3" d="M469.5-69.4c-2.9,0.8-1,4.7-1,6.7c0,2.5-0.8,5-2.3,7c-3.9,5-11.4,5.7-17,7.2
			c-4.1,1-13.9,3.3-14.3,8.8c-0.4,6.2,8.2-1.3,9-1.7c8.1-3,18.6-3.5,24.8-10.1c2.6-2.7,4.1-6.3,4.3-10
			C473.1-63.6,473.2-70.4,469.5-69.4"/>
		<path id="Fill_139" class="st2" d="M433.9,5.3L433.9,5.3c-2.8,0-5.6-0.5-8.3-1.4s-5.3-2.3-7.6-4c-2.3-1.7-4.1-3.8-5.6-6.2
			c-1.4-2.5-2.2-5.2-2.2-8.1c0-2.7,0.6-5.4,1.8-7.8c1.2-2.3,2.9-4.4,4.8-6.1c4.1-3.4,9-5.9,14.2-7.2c1.7-0.4,3.4-0.7,5.1-0.7
			c4.8,0,9.4,1.8,12.9,5.1c3.6,3.4,5.9,7.9,6.4,12.8c0.7,5.7-1,11.5-4.7,15.9c-1.9,2.3-4.3,4.1-7,5.4c-2.8,1.4-5.9,2.1-9,2.2
			C434.5,5.2,434.2,5.3,433.9,5.3z M417.5-21.7c-2.4,4.2-2.6,8.4-0.4,12.2c3.1,5.3,10.3,9,17.6,9c2.4,0,4.8-0.5,7.1-1.4
			c7.3-3.4,9.3-11.3,8-17.3c-1.1-5.2-5.1-10.7-12.9-10.8c0.5,0.6,0.7,1.3,0.7,2.1c-0.1,0.4-0.4,0.8-0.7,1c-0.3,0.2-0.6,0.3-0.9,0.3
			c-0.7,0-1.2-0.7-1.6-1.3c-0.3-0.6-0.8-1-1.4-1.3c-0.2,0-0.4-0.1-0.5-0.1c-1.4,0-3.2,1.1-4.5,2.1c-0.7,0.6-1.4,1.3-2,2
			c-1.9,2.1-4.4,4.9-6.4,4.9C418.7-20.3,417.9-20.9,417.5-21.7z"/>
		<path id="Fill_141" class="st2" d="M426-18.3c0,2.6,4.2,2.6,4.2,0C430.1-20.9,426-21,426-18.3"/>
		<path id="Fill_143" class="st2" d="M433.3-18.8c0,3.2,5.1,3.2,5.1,0S433.3-22.1,433.3-18.8"/>
		<path id="Fill_145" class="st2" d="M428.1-11.3c-4.2,2.5,7.7,7.3,8.2,2.3c0.2-2.1-1.9-1.6-3.3-1.7C431.7-10.8,429.3-12,428.1-11.3
			"/>
		<path id="Fill_147" class="st3" d="M426.3,6.1c0.2,6.3,0.1,12.5,1.3,18.7c0.2,1.2,0.4,5.4,1.3,6.3c2.3,2.1,2.3-2,2.4-3.5
			c0.3-5.6-0.3-11.4-0.4-17.1c0-1.2,0.3-3.7-0.3-4.9C429.7,3.7,426.2,3.1,426.3,6.1"/>
		<path id="Fill_149" class="st3" d="M421.8,1c-9.1,10.3-21.7,9.5-34.4,10.4c-6.7,0.5-13.5,1.4-18.9,5.8c-2.5,2-4.6,4.5-6.1,7.4
			c-0.6,1.3-3.6,8.5,0.9,6.8c1.6-0.6,3.2-5.4,4.2-6.8c1.9-2.7,4.5-4.9,7.5-6.4c5.8-2.8,12.8-2.7,19.2-3.1c6.6-0.4,13.7-0.7,19.8-3.6
			c2.9-1.3,5.5-3.1,7.9-5.2c0.8-0.8,2.6-2.1,2.7-3.3C424.8,1.6,423.5-0.9,421.8,1"/>
		<path id="Fill_151" class="st2" d="M375.7,32.5c-8.6,0.3-17.1,0.6-25.7,1.2c-1.8,0.1-7.6-0.2-6.1,3.4c1.2,2.9,8.3,1,10.7,0.8
			c8.9-0.5,17.9-0.7,26.8-1.5c2-0.2,11-0.1,7.3-3.7C386.9,31,378.2,32.4,375.7,32.5"/>
		<path id="Fill_153" class="st2" d="M338.4,36.6c-2.7,3.6-1.5,12.2-1.3,16.5c0.2,4.1-0.6,11.7,4.8,12.3c-1.7-0.2,1.3,0.1,1.8,0.1
			c1.1,0.1,2.2,0.1,3.3,0.1c2.5,0,5.1,0,7.6-0.1c5.7-0.1,11.5-0.3,17.2-0.6c2.4-0.1,15.5,0,16-2.5c0.7-3.2-11.9-1.4-14.1-1.3
			c-5.5,0.3-10.9,0.3-16.4,0.4c-2.7,0-5.4,0.1-8.1,0c-1.1,0-5.6,0.4-6.2-0.3c-0.6-0.6-0.1-6.5-0.1-7.4c0-2.9,0-5.8,0.1-8.8
			c0.1-2,1.1-5.7,0.3-7.5c-0.7-1.5-2.5-2.2-4-1.5C338.9,36.2,338.7,36.4,338.4,36.6"/>
		<path id="Fill_155" class="st2" d="M382.6,36.8c0.2,6.5,0.2,13.1,1.7,19.5c0.5,2.1,1.2,6.5,3.4,7.6c2.2,1.1,4.2-0.5,4.3-2.7
			c0.2-2.8-1.3-6.4-1.6-9.3c-0.4-3.3-0.6-6.7-0.7-10c-0.1-2.5,0.7-6.3-1.7-7.9c-1.6-1.1-3.7-0.6-4.8,1
			C382.8,35.5,382.6,36.1,382.6,36.8"/>
		<path id="Wireframy_Stuff-4" class="st2" d="M405.6,63.1c-2-0.1-4.2-0.8-3.7-3.4c0.5-2.3,2.8-2.4,4.7-2.6
			c5.8-0.6,11.6-0.8,17.4-0.8c12.2,0,24.5,0,36.7-0.1c0.5,0,1,0.2,1.4,0.5c-0.6-0.8-0.3-1.9-0.5-3c-0.3-3-0.5-6-1.1-9
			c-0.5-2.4-0.8-6.5-3-8.1c-1.9-1.3-5.6-1.2-8.6-1.2c-0.8,0-1.6,0-2.2,0c-7.9-0.1-15.8,0.3-23.6,1.1c-3.6,0.3-7.2,0.6-10.7,1.2
			c-2,0.4-7.7,3.2-9.3,1.5c-3.8-4.3,12.8-6,15.1-6.3c8-0.8,16-1.4,24.1-1.5c5.4,0,14.8-0.5,18.8,4c2.4,2.7,3.2,7.1,4.2,10.4
			c0.7,2.6,2.7,7.2,1.3,9.9c-0.6,1.2-1.6,2.2-3.2,1.8c-0.3-0.1-0.6-0.2-0.9-0.4c0.6,0.6,0.8,1.6,0.5,2.4c-0.9,2.1-4.3,1.7-6.1,1.8
			c-6.1,0.5-12.3,0.9-18.4,0.9c-2.9,0-5.8,0-8.8,0s-6-0.1-9,0c-4.5,0-9.2,0.9-13.6,0.9C406.5,63.2,406,63.2,405.6,63.1z"/>
		<path id="Line" class="st3" d="M507.6,27.9L507.6,27.9c-1.5,0-3-2.5-4-4.2c-0.3-0.5-0.5-0.9-0.9-1.3c-1.7-2.4-4.1-4.1-6.8-5.1
			c-5.2-1.8-11-2.4-16.5-3.1c-1.9-0.2-3.9-0.4-5.7-0.7c-1-0.1-2-0.3-3-0.4c-5-0.6-10.7-1.4-15-3.8c-1.9-1.1-7.8-6.5-7.9-10.1
			c0-1,0.5-1.9,1.4-2.4c0.4-0.3,1-0.4,1.5-0.5c1.4,0,2.2,1.6,2.9,2.9c0.2,0.4,0.4,0.9,0.7,1.2c1.6,2.6,4.2,4.5,7.2,5.2
			c4.6,1.2,9.2,2.1,13.9,2.7c1.2,0.2,2.4,0.4,3.7,0.6c1,0.2,2,0.3,3,0.5c5.5,0.8,11.2,1.7,16.2,3.9c2.3,1.4,4.4,3.1,6.2,5.1
			c1.7,1.8,4.6,5.1,4.8,7.4c0.1,0.8-0.3,1.5-1,1.8C508.1,27.9,507.8,27.9,507.6,27.9z"/>
		<path id="Wireframy_Stuff-5" class="st2" d="M479.1,62.2c-2.1-0.2-4.3-0.9-3.8-3.6c-1.5-2.8-2.1-8.2-2.3-9.2
			c-0.5-4.5-0.7-9.1-0.5-13.7c0-1.7,1.4-3,3.1-2.9c0.6,0,1.2,0.2,1.7,0.6c2.5-1,6.7-1.2,9-1.4c3.7-0.4,7.5-0.5,11.2-0.7
			c8.7-0.5,17.5-1.5,26.2-1.7c2.6-0.1,6.1-0.3,8.2,1.6c2.4,2.2,2.9,7.7,3.6,10.6c0.9,3.2,1.6,6.4,2,9.7c0.2,1.1,0.2,2.2,0.2,3.3
			c1.1,0.2,1.8,1.3,1.6,2.4c-0.2,2.1-3.2,2.4-4.9,2.8c-5.8,1.1-12,0.9-17.8,1c-9.5,0.3-19.5,1.5-29.2,1.5
			C484.7,62.6,481.9,62.5,479.1,62.2z M480.3,56.1c0.3,0,0.5,0,0.8,0c6.2-0.1,12.3-0.3,18.5-0.5c6.3-0.2,12.6-0.5,18.9-0.6
			c2.2,0,4.4,0,6.6,0.1c2.9,0.1,5.7,0.2,8.5,0.1c-1.1-2.8-0.9-7.3-1.5-10.2s-0.8-6.4-2-9.1c-1.3-3.1-2.5-2.4-5.9-2.1
			c-3.5,0.2-7.1,0.6-10.6,0.9c-7.8,0.6-15.5,1-23.3,1.6c-4,0.3-7.9,1.4-11.8,1.9c-0.1,1.4-0.3,2.8-0.2,3.8c0.1,3,0.4,6,0.6,9
			c0.1,1.2,0.6,3.3,0.7,5.2L480.3,56.1L480.3,56.1z"/>
	</g>
</g>
<g id="Plant" transform="translate(178 613)">
	<g id="Pot" transform="translate(41 181)">
		<path id="shadow-2" class="st5" d="M11.1-59.8c21.5,0,38.9,4.9,38.9,11s-17.4,11-38.9,11s-38.9-4.9-38.9-11S-10.4-59.8,11.1-59.8z
			"/>
		<g id="Ellipse_2-2" transform="translate(2 11)">
			
				<linearGradient id="Ellipse_2-3_1_" gradientUnits="userSpaceOnUse" x1="815.2257" y1="-110.4366" x2="814.8363" y2="-110.1666" gradientTransform="matrix(144 0 0 -88 -117333.9609 -9783.6035)">
				<stop  offset="0" style="stop-color:#CEE0FB"/>
				<stop  offset="1" style="stop-color:#E4EDFB"/>
			</linearGradient>
			<path id="Ellipse_2-3" class="st6" d="M45.3-103.6c2.5,4.3,3.8,9.2,3.8,14.1c0,18-17.4,32.7-38.9,32.7s-38.9-14.6-38.9-32.7
				c0-5.2,1.5-10.4,4.3-14.9C-7.2-101.6,27.1-101.8,45.3-103.6z"/>
		</g>
		<g id="Ellipse_1-2" transform="translate(8)">
			
				<linearGradient id="Ellipse_1-3_1_" gradientUnits="userSpaceOnUse" x1="795.8188" y1="-74.7748" x2="795.8188" y2="-75.3149" gradientTransform="matrix(131 0 0 -31 -104247.8672 -2417.8486)">
				<stop  offset="0" style="stop-color:#99BAE9"/>
				<stop  offset="1" style="stop-color:#BCD0F2"/>
			</linearGradient>
			<path id="Ellipse_1-3" class="st7" d="M4.4-99.8c19.6,0,35.4,3.7,35.4,8.4C39.8-86.8,24-83,4.4-83S-31-86.8-31-91.4
				C-31-96.1-15.1-99.8,4.4-99.8z"/>
		</g>
	</g>
	<g id="leaves">
		<g id="leaves-2">
			<g id="leaf" transform="translate(47)">
				<g id="Shape_2-4">
					
						<linearGradient id="Shape_2-5_1_" gradientUnits="userSpaceOnUse" x1="793.6149" y1="74.6183" x2="793.8548" y2="74.1052" gradientTransform="matrix(76.9467 0 0 -183 -61080.8672 13641.8037)">
						<stop  offset="0" style="stop-color:#B1FFBE"/>
						<stop  offset="0.444" style="stop-color:#5CDB8E"/>
						<stop  offset="1" style="stop-color:#149654"/>
					</linearGradient>
					<path id="Shape_2-5" class="st8" d="M3.5,82.3c-2-13.4-7.3-32.7-23.3-53.5c-9.4-12.3-9.5-42.1-10.8-45.4
						C-23.2-14-9.9-7.5,3.5,11C17.5,30.3,8.6,69.7,3.5,82.3z"/>
					<g>
						<g>
							<g>
								<defs>
									<path id="SVGID_1_" d="M3.5,82.3c-2-13.4-7.3-32.7-23.3-53.5c-9.4-12.3-9.5-42.1-10.8-45.4C-23.2-14-9.9-7.5,3.5,11
										C17.5,30.3,8.6,69.7,3.5,82.3z"/>
								</defs>
								<clipPath id="SVGID_2_">
									<use xlink:href="#SVGID_1_"  style="overflow:visible;"/>
								</clipPath>
								<g id="Shape_2-6" class="st9">
									<path id="Shape_3" class="st10" d="M2.9,82.3c1.5-32.5-2.6-53-15.3-72.4"/>
								</g>
							</g>
						</g>
					</g>
				</g>
			</g>
			<g id="leaf-2" transform="translate(0 89)">
				<g id="Shape_2-7">
					
						<linearGradient id="Shape_2-8_1_" gradientUnits="userSpaceOnUse" x1="940.7231" y1="-10.7927" x2="940.7867" y2="-11.3225" gradientTransform="matrix(109.591 0 0 -118.6618 -103077.7266 -1341.0343)">
						<stop  offset="0" style="stop-color:#B1FFBE"/>
						<stop  offset="0.444" style="stop-color:#5CDB8E"/>
						<stop  offset="1" style="stop-color:#149654"/>
					</linearGradient>
					<path id="Shape_2-8" class="st11" d="M50.5,7c-6-9.6-16.5-22.5-35.7-33C3.5-32.2-6.5-54.9-8.7-57c6.5-0.5,18.8,0,35.2,9.6
						C43.8-37.3,50.2-4.2,50.5,7z"/>
					<g>
						<g>
							<g>
								<defs>
									<path id="SVGID_3_" d="M50.5,7c-6-9.6-16.5-22.5-35.7-33C3.5-32.2-6.5-54.9-8.7-57c6.5-0.5,18.8,0,35.2,9.6
										C43.8-37.3,50.2-4.2,50.5,7z"/>
								</defs>
								<clipPath id="SVGID_4_">
									<use xlink:href="#SVGID_3_"  style="overflow:visible;"/>
								</clipPath>
								<g id="Shape_2-9" class="st12">
									<path id="Shape_3-2" class="st10" d="M50.1,7.2c-9.8-25.3-19.8-39.5-36-50.1"/>
								</g>
							</g>
						</g>
					</g>
				</g>
			</g>
			<g id="leaf-3" transform="translate(115 78)">
				<g id="Shape_2-10">
					
						<linearGradient id="Shape_2-11_1_" gradientUnits="userSpaceOnUse" x1="592.8624" y1="-0.85" x2="593.1022" y2="-1.3631" gradientTransform="matrix(94.2947 0 0 -132.014 -55948.9023 -159.3072)">
						<stop  offset="0" style="stop-color:#B1FFBE"/>
						<stop  offset="0.444" style="stop-color:#5CDB8E"/>
						<stop  offset="1" style="stop-color:#149654"/>
					</linearGradient>
					<path id="Shape_2-11" class="st13" d="M-60.2,19.3C-55.5,9-46.6-5.2-28.9-18.1C-18.5-25.8-11.4-49.7-9.5-52
						c-6.5,0.3-18.7,2.4-33.9,14.1C-59.2-25.7-61.4,8.1-60.2,19.3z"/>
					<g>
						<g>
							<g>
								<defs>
									<path id="SVGID_5_" d="M-60.2,19.3C-55.5,9-46.6-5.2-28.9-18.1C-18.5-25.8-11.4-49.7-9.5-52c-6.5,0.3-18.7,2.4-33.9,14.1
										C-59.2-25.7-61.4,8.1-60.2,19.3z"/>
								</defs>
								<clipPath id="SVGID_6_">
									<use xlink:href="#SVGID_5_"  style="overflow:visible;"/>
								</clipPath>
								<g id="Shape_2-12" class="st14">
									<path id="Shape_3-3" class="st10" d="M-61.6,19.2c6.5-26.4,14.6-42,29.4-54.5"/>
								</g>
							</g>
						</g>
					</g>
				</g>
			</g>
		</g>
	</g>
</g>
<g>
	<path id="Fill-1" class="st15" d="M1051.5,693.6h96.5l23.9-147.1c1.9-10.7,11.3-18.6,22.2-18.6h80.1l-32.3,195.9h-217.2
		C1024.6,707.1,1036.6,693.6,1051.5,693.6"/>
	<polygon id="Fill-3" class="st16" points="1084.3,723.9 1095.5,723.9 1193.6,723.9 1193.6,846.1 1188.5,846.1 1183.7,846.1 
		1177.3,846.1 1177.3,735.1 1095.5,735.1 1095.5,846.1 1084.3,846.1 1084.3,735.1 1041,735.1 1041,846.1 1035.8,846.1 1031,846.1 
		1024.6,846.1 1024.6,735.1 1024.6,723.9 	"/>
	<path id="Fill-5" class="st17" d="M1117.5,693.6h97.4l23.9-147.1c1.9-10.7,11.3-18.6,22.2-18.6h17.8l-32.5,195.9h-155.6
		C1090.7,707.1,1102.7,693.6,1117.5,693.6"/>
	<polygon id="Fill-7" class="st16" points="1186.9,846.1 1198.1,846.1 1198.1,723.9 1186.9,723.9 	"/>
	<polygon id="Fill-9" class="st18" points="1100.6,723.9 1100.6,723.9 1241.8,723.9 1274.1,527.9 1285.3,527.9 1253.3,722.1 
		1253.3,846.1 1243.3,846.1 1243.3,735.1 1100.6,735.1 1100.6,846.1 1090.7,846.1 1090.7,735.1 1090.7,723.9 	"/>
	<path id="Fill-45" class="st15" d="M739,688.7h31.3l14.4-138c1.2-10.1,6.8-17.4,13.4-17.4h117L895,717.2h-23.7h-144
		C727.4,701.4,729.6,688.7,739,688.7"/>
	<polygon id="Fill-46" class="st16" points="892,717.1 892,831.8 881.4,831.8 881.4,727.6 861,727.6 861,831.8 845.7,831.8 
		845.7,727.6 778.6,727.6 778.6,831.8 763.2,831.8 763.2,727.6 742.8,727.6 742.8,831.8 727.4,831.8 727.4,717.1 	"/>
	<polygon id="Fill-47" class="st19" points="771.6,831.8 778.6,831.8 778.6,727.6 771.6,727.6 	"/>
	<polygon id="Fill-48" class="st19" points="735.8,831.8 742.8,831.8 742.8,727.6 735.8,727.6 	"/>
	<polygon id="Fill-49" class="st18" points="861,717.1 889.8,717.1 896.8,717.1 896.8,727.6 896.8,831.8 889.8,831.8 889.8,727.6 
		861,727.6 861,831.8 854.1,831.8 854.1,727.6 854.1,717.1 	"/>
	<path id="Fill-50" class="st17" d="M865.7,688.7h15.1l14.4-138c1.2-10.1,6.8-17.4,13.4-17.4h7.5L896.8,716v1.2h-42.7
		C854.1,701.4,856.2,688.7,865.7,688.7"/>
	<path id="Fill-51" class="st20" d="M747.1,780.9c2.5,11.5,4.4,14.1,5.9,18c7.4,19.5-23.9,27.4-27.9,4.1c-3.2-18-5-17-7.2-21.8
		C710,763.6,740.9,752.6,747.1,780.9"/>
	<path id="Fill-52" class="st21" d="M753.2,795c4.2,1.2,4.3,18.5,4.3,33.3c0,1.9-1.6,3.5-3.5,3.5h-65.5c-2.1,0-3.7-1.8-3.5-3.9
		c0.5-4.4,2.5-11.3,9.6-14.5c10.8-4.8,18-9.8,21.2-16.5c3.4-7.1,15.5-5.9,17.9-0.6c4.3-2.8,6.3,1.7,11.5,1.7
		C750.3,797.9,750.4,794.3,753.2,795"/>
	<path id="Stroke-53" class="st22" d="M756.7,804.5c-6.6,5.1-21,1.8-24.2-1.1c-10.2,12-24.1,16.1-24.1,16.1s1.8,2.3,2.4,6.7"/>
	<path id="Stroke-54" class="st22" d="M703.1,833c-3.9-5.8-8.4-8.2-10-8.7"/>
	<line id="Stroke-55" class="st22" x1="685.3" y1="826.3" x2="757.5" y2="826.3"/>
	<path id="Fill-56" class="st23" d="M761.8,617.1l0.3,10.1l-73.4-0.2c-14.9,0.1-26.3,13.9-24.2,29.2l0,0c0,0.1,0,0.2,0.1,0.4
		c0.2,2.5,0.9,5,1.9,7.5L716,789.7l38.7-0.8c-9.2-37.4-17.6-75.1-27-106.1l54.9,6l51.3,0.1c21.6,1.6,41.7-11.4,43.6-33.8l0.7-38
		L761.8,617.1L761.8,617.1z"/>
	<line id="Stroke-57" class="st24" x1="727.7" y1="682.8" x2="710" y2="663.8"/>
	<path id="Fill-58" class="st25" d="M892.6,495.1c-7.4-3.1-18.5-7.2-33.7-10.3c-4.1-8.5-19.2-14.8-37.1-14.8
		c-18.4,0-33.8,6.6-37.4,15.5c-14,3.4-23.8,7.7-30.5,10.5c-1.9,0.8-3,2.9-2.6,4.9c9.5,48.9,10.9,126.3,10.9,126.3
		c6.4,4.4,11.9,6.4,16.7,6.9c4.9-6.3,12.7-10.2,21.2-9.7v-0.1l21.6,2c12.7,1.2,25.1,5.2,36,11.7c6.3,3.7,11.9,7.5,16.4,9.8
		c3.9,2,8.5-0.8,8.6-5.1v-0.1c0.6-31.9,5.3-90.7,14.5-139.2C897.8,500,895.9,496.5,892.6,495.1"/>
	<path id="Fill-59" class="st25" d="M734.8,607.1L734.8,607.1c11.5,3.2,23.3-3.5,26.5-14.9l22.4-70.5c3.2-11.6-3.5-23.6-15.1-26.8
		c-11.6-3.2-23.6,3.5-26.8,15.1l-22,70.6C716.7,592,723.4,603.9,734.8,607.1"/>
	<line id="Stroke-60" class="st26" x1="756.9" y1="521.6" x2="759.4" y2="574.1"/>
	<path id="Fill-61" class="st20" d="M824.6,504L824.6,504c-10.9,1.7-21.1-5.4-22.7-15.6l-2.8-38.3l35.4-6.1l6.1,38.4
		C842.2,492.5,835.5,502.3,824.6,504"/>
	<path id="Fill-62" class="st27" d="M834.3,441.6l-35.4,6.1l2.4,33.1c18.2,0,29.3-16,34.2-30.7L834.3,441.6z"/>
	<path id="Fill-63" class="st23" d="M842.1,422.9c0-16.5-12.5-27.8-28-27.8s-29.2,11.1-28,27.8c1.2,16.5,20.2,45.6,35.7,45.6
		C830.2,462.1,842.1,445.3,842.1,422.9"/>
	<path id="Fill-64" class="st20" d="M786.1,425.9l1.8,26.9c0.8,11.7,10.9,20.6,22.7,19.8c9.3-0.6,16.8-7.1,19.1-15.6l7.1-26
		c3.8-13.8-4.3-28-18.1-31.8s-28,4.3-31.8,18.1C786.2,420.1,785.9,423.1,786.1,425.9"/>
	<path id="Fill-65" class="st23" d="M796.5,432.3c-0.8-0.2-1.5-0.3-2.3-0.4c-0.7-0.1-1.5-0.2-2.2-0.2s-1.4-0.1-2.1,0.1
		c-0.3,0.1-0.7,0.2-1,0.3c-0.3,0.1-0.6,0.3-0.7,0.4c-0.4,0.3-0.9,0.3-1.2-0.1c-0.2-0.2-0.2-0.5-0.2-0.8l0.2-0.8
		c0.3-1.3,1.1-2.1,1.9-2.6c0.4-0.3,0.9-0.4,1.4-0.6c0.5-0.1,0.9-0.3,1.4-0.3c0.9-0.1,1.8-0.2,2.6-0.1s1.6,0.2,2.4,0.5l1,0.4
		c1.1,0.4,1.7,1.7,1.3,2.8C798.6,431.9,797.5,432.5,796.5,432.3"/>
	<path id="Fill-66" class="st23" d="M811.8,427.7c0.9-0.3,1.9-0.5,2.8-0.5c1-0.1,1.9-0.1,2.9,0c0.5,0,1,0.1,1.5,0.2s1.1,0.2,1.7,0.4
		c1.1,0.5,2,1.3,2.5,2.8l0.2,0.8c0.1,0.5-0.1,1-0.6,1.1c-0.3,0.1-0.6,0-0.8-0.2c-0.2-0.1-0.6-0.4-0.9-0.5c-0.4-0.1-0.8-0.2-1.2-0.3
		c-0.7-0.1-1.6,0-2.5,0c-0.9,0.1-1.8,0.2-2.7,0.3c-0.9,0.1-1.8,0.3-2.7,0.5c-1.2,0.2-2.4-0.6-2.6-1.8c-0.2-1.1,0.5-2.2,1.5-2.5
		L811.8,427.7z"/>
	<path id="Fill-67" class="st23" d="M815.9,435c0,1.1-0.9,2-2,2s-2-0.9-2-2s0.9-2,2-2S815.9,433.9,815.9,435"/>
	<path id="Fill-68" class="st23" d="M794.8,434.9c0,1.1-0.9,2-2,2s-2-0.9-2-2s0.9-2,2-2C793.9,432.8,794.8,433.7,794.8,434.9"/>
	<path id="Fill-69" class="st23" d="M831.6,407.4L831.6,407.4c-2-2.4-4.5-4.4-7.3-6c0,0-0.1,0-0.1-0.1c-1.1-0.6-2.2-1.1-3.3-1.5
		c-0.1,0-0.2-0.1-0.4-0.1c-0.6-0.2-1.1-0.4-1.7-0.5l0,0l0,0c-0.5-0.1-1-0.3-1.5-0.4c-0.2,0-0.3-0.1-0.5-0.1
		c-0.4-0.1-0.7-0.1-1.1-0.2c-0.2,0-0.3,0-0.5-0.1c-0.4-0.1-0.8-0.1-1.2-0.1c-0.1,0-0.2,0-0.3,0c-0.5,0-1-0.1-1.6-0.1H812
		c-0.5,0-1,0-1.4,0c-0.1,0-0.2,0-0.2,0c-0.5,0-1,0.1-1.4,0.1h-0.1c-5.3,0.6-10.3,2.9-14.3,6.5l0,0c-1.1,1-3.9,3.2-4.8,4.3
		c3,2.2,6.5,3,14.2,3.7c5.5,0.6,14.7,0.5,19.7-1.1c5.2,7-0.1,15.2,5.7,19.4c-2.7,14.8-10.1,18.8-24.7,18.8
		c-10.1,0-15.4-3.3-17.7-10.8l0.9,13.5c0.2,3.7,1.4,7.1,3.2,10c0.7,1.2,1.6,2.2,2.5,3.2c2.3,2.5,5.3,4.4,8.5,5.5
		c2,0.7,4,1.1,6.2,1.1c0.7,0,1.4,0,2.2,0c0.6,0,1.2-0.1,1.7-0.2c0.6-0.1,1.1-0.2,1.7-0.3c1.6-0.4,3.2-1,4.7-1.7
		c0.5-0.2,1-0.5,1.4-0.8c1.9-1.1,3.5-2.5,5-4.1c0.7-0.8,1.4-1.7,2-2.6c1.2-1.8,2.1-3.8,2.7-5.9l4-14.6l3.1-11.5
		C839.2,422.4,836.9,413.7,831.6,407.4"/>
	<path id="Fill-70" class="st20" d="M833.9,444.8c0.1,2.1,2.2,3.4,4.2,2.7c4.2-1.5,6.8-5,6.6-8.9c-0.3-5-3.6-8.9-7.5-8.6
		S833.9,444.8,833.9,444.8"/>
	<path id="Fill-71" class="st20" d="M805.4,454.8c-4.5,0-10.1-1.8-10.1,2.4c0,1.8,0.8,3.5,2.3,4.8c2.3,2.1,6.1,0.5,6.2-2.6v-0.1l0,0
		h1.7h1.7l0,0c0,0,0,0,0,0.1c0,3.1,3.9,4.7,6.2,2.6c1.4-1.3,2.3-3,2.3-4.8C815.5,452.9,809.9,454.8,805.4,454.8"/>
	<g>
		<defs>
			<polygon id="SVGID_7_" points="1,1 2,1 1,2 			"/>
		</defs>
		<defs>
			<polygon id="SVGID_8_" points="-1,-1 -2,-1 -1,-2 			"/>
		</defs>
		<clipPath id="SVGID_9_">
			<use xlink:href="#SVGID_7_"  style="overflow:visible;"/>
		</clipPath>
		<clipPath id="SVGID_10_" class="st28">
			<use xlink:href="#SVGID_8_"  style="overflow:visible;"/>
		</clipPath>
		<path id="Fill-72" class="st29" d="M815.8,464.4L815.8,464.4L815.8,464.4L815.8,464.4"/>
	</g>
	<path id="Stroke-73" class="st26" d="M797.5,456.1c5.1,1.9,10.6,1.9,15.7,0"/>
	<path id="Stroke-74" class="st30" d="M800.1,448.1c2.7,1.2,5.5,1.2,8.2,0"/>
	<path id="Fill-75" class="st25" d="M898,607.1L898,607.1c-11.7,2.1-22.9-5.7-25-17.4l-11.7-71.4c-2.1-11.8,5.8-23.1,17.6-25.2
		s23.1,5.8,25.2,17.6l11.3,71.4C917.6,593.8,909.8,605,898,607.1"/>
	<line id="Stroke-76" class="st26" x1="871.1" y1="577.3" x2="861.9" y2="521.7"/>
	<path id="Fill-77" class="st20" d="M842.1,584.2l46.3-15.4c10.6-2,20.9,4.9,22.9,15.6c2,10.6-4.9,20.9-15.6,22.9l-50.3-0.1
		c-9.5,0.7-14.4-4.3-13.2-10.3C833.4,590.8,837.4,585.6,842.1,584.2"/>
	<path id="Stroke-78" class="st26" d="M784.2,486.1c-2.8,11.2,12.2,17,12.2,17"/>
	<path id="Stroke-79" class="st26" d="M858.7,485c2.8,11.2-12.2,17-12.2,17"/>
	<path id="Fill-80" class="st20" d="M845.5,601.9l-22.5-6.8l-30-7.7l-47.1-18.6c-10.6-2-20.9,4.9-22.9,15.6
		c-2,10.6,4.9,20.9,15.6,22.9l50.2-0.1c0.5,0.1,0.9,0.1,1.4,0.1h54.6c1.4,0,2.6-1.1,2.7-2.5C847.6,603.4,846.8,602.2,845.5,601.9"/>
	<path id="Fill-81" class="st31" d="M845.5,601.9l-22.5-6.8l-22.1-5.7L770,607.2h18.7c0.5,0.1,0.9,0.1,1.4,0.1h54.6
		c1.4,0,2.6-1.1,2.7-2.5C847.6,603.4,846.8,602.2,845.5,601.9"/>
	<path id="Stroke-82" class="st32" d="M856.9,599.9c-1.7,3.9-5.6,6.7-10.1,6.7"/>
	<path id="Fill-83" class="st20" d="M848.4,584.7l-28.2-3.9c-1.4-0.2-2.7,0-3.9,0.5c-0.5,0.1-0.9,0.3-1.4,0.5l-2.4,1.7
		c-0.7-0.1-1.4,0-2.1,0.3l-12.7,5.7c-0.3,0.1-0.7,0.2-1,0.4c-0.5,0.2-0.9,0.6-1.3,1c-0.2,0.2-0.3,0.3-0.5,0.5l-8.1,10.5
		c-0.9,1.6-1.7,2.7-0.5,3.9c0.8,0.8,3.3,1.7,6.2-0.6c0.1,0.2,0.2,0.4,0.4,0.6c0.8,0.8,3.4,1.7,6.3-0.6c0.8-0.6,1.9-1.6,3.1-2.6
		l-0.1,0.2c-0.5,1.6-1.1,2.7,0.2,3.6c0.9,0.6,3.4,1,5.6-1.6c1.1-1.3,2.9-3.6,4.5-5.7l-1.2,4.3c-0.2,1.6-0.5,2.7,0.9,3.2
		c0.7,0.3,2.5,0.3,3.9-1.3c0.3-0.3,2.8-3,3.5-4.4c6.1,3.1,12.3,5.8,15.5,5.8h11.7c6.1,0,11-4.9,11-11
		C857.8,590.1,853.8,585.5,848.4,584.7"/>
	<polyline id="Stroke-84" class="st32" points="827.3,599.3 821.8,598.3 819.1,602.9 	"/>
	<polyline id="Stroke-85" class="st32" points="792.3,603.3 799.9,591.8 810,585.2 	"/>
	<polyline id="Stroke-86" class="st32" points="800.6,605.2 808.8,589.7 819.1,585.2 	"/>
	<path id="Stroke-87" class="st32" d="M810.5,604.1l4-11.7c0.7-1.9,2.5-3.1,4.5-3l7.7,0.4"/>
	<path id="Fill-88" class="st20" d="M804.5,774.4c-1.1,11.8-1.5,24.3-1.9,28.4c-1.4,15.2-29.7,10.9-27.3-7.3
		c1.5-11.4,0.6-21.2,1-26.5C777.4,753.7,806.7,750.8,804.5,774.4"/>
	<path id="Fill-89" class="st23" d="M809.2,788.5c7.9-48.9,14.6-105.9,14.5-139.2c0-12.4-9.3-23-21.6-24.7
		c-14.9-2.1-28.3,9.3-28.6,24.4l-2.9,139.5H809.2z"/>
	<line id="Stroke-90" class="st24" x1="821.8" y1="689.5" x2="823.1" y2="671.2"/>
	<path id="Stroke-91" class="st24" d="M778.8,634.1c-3.2,4.1-5.1,9.2-5.3,14.9l-0.8,38.7"/>
	<path id="Fill-92" class="st25" d="M805,795c4.4,1.3,4.3,20.1,4.3,35.2c0,0.9-0.7,1.6-1.6,1.6H753c-0.8,0-1.5-0.6-1.6-1.5
		c-0.3-3.2,0-10.9,6.9-16.9c5.7-5,6.1-9.8,9.3-16.5c3.4-7.1,18.9-4.3,21.3,1c4.3-2.8,4.7,0.2,9.8,0.2
		C803.9,798.1,802.3,794.3,805,795"/>
	<path id="Stroke-93" class="st22" d="M808.6,804.5c-4.5,5.1-15,2.8-17.2,0c-7,12-10.9,15-10.9,15s1.9,3,2.4,6.7"/>
	<line id="Stroke-94" class="st22" x1="809.4" y1="826.3" x2="751.4" y2="826.3"/>
	<path id="Stroke-95" class="st22" d="M757.5,814.2c7.5-5.4,19.4-0.6,22.9,5.3"/>
	<path id="Fill-96" class="st15" d="M509.2,690.5h-31.6L463,551.1c-1.2-10.2-6.9-17.6-13.5-17.6H331.2l20.3,185.8h24h145.4
		C520.9,703.4,518.7,690.5,509.2,690.5"/>
	<polygon id="Fill-97" class="st16" points="354.7,719.2 354.7,835.1 365.3,835.1 365.3,729.9 385.9,729.9 385.9,835.1 401.4,835.1 
		401.4,729.9 469.2,729.9 469.2,835.1 484.7,835.1 484.7,729.9 505.4,729.9 505.4,835.1 520.9,835.1 520.9,719.2 	"/>
	<polygon id="Fill-98" class="st19" points="469.2,835.1 476.3,835.1 476.3,729.9 469.2,729.9 	"/>
	<polygon id="Fill-99" class="st19" points="505.4,835.1 512.4,835.1 512.4,729.9 505.4,729.9 	"/>
	<polygon id="Fill-100" class="st18" points="385.9,719.2 356.8,719.2 349.8,719.2 349.8,729.9 349.8,835.1 356.8,835.1 
		356.8,729.9 385.9,729.9 385.9,835.1 393,835.1 393,729.9 393,719.2 	"/>
	<path id="Fill-101" class="st17" d="M381.3,690.5H366l-14.6-139.4c-1.2-10.2-6.9-17.6-13.5-17.6h-7.6L349.8,718v1.2H393
		C393,703.4,390.8,690.5,381.3,690.5"/>
	<path id="Fill-102" class="st33" d="M556.9,516.1c-5.8-4.7-14.4-3.8-19.1,2l-28.3,36.7L487,501.6c-4.4-9.6-15.7-13.7-25.3-9.3
		c-9.6,4.4-13.8,15.7-9.4,25.3l36.9,76l0.5,1.1c1.5,3.3,3.9,6.1,7.2,8.1c8.8,5.3,20.2,2.6,25.5-6.2l37.8-67
		C563.8,524,562.3,520.4,556.9,516.1"/>
	<path id="Fill-103" class="st34" d="M504.3,542.4L487,501.6c-4.4-9.6-15.7-13.7-25.3-9.3c-9.6,4.4-13.8,15.7-9.4,25.3l24.8,51
		L504.3,542.4z"/>
	
		<linearGradient id="Fill-104_2_" gradientUnits="userSpaceOnUse" x1="448.9726" y1="367.9115" x2="506.3345" y2="367.9115" gradientTransform="matrix(1 0 0 -1 0 892)">
		<stop  offset="0" style="stop-color:#F5F8FF"/>
		<stop  offset="1" style="stop-color:#FFFFFF"/>
	</linearGradient>
	<path id="Fill-104" class="st35" d="M506.4,537.9l-18.2-36c-4.7-10.3-16.9-14.8-27.2-10c-10.3,4.7-14.8,17-10.1,27.3l17.9,39
		L506.4,537.9z"/>
	
		<linearGradient id="Fill-104_3_" gradientUnits="userSpaceOnUse" x1="448.9726" y1="367.9115" x2="506.3345" y2="367.9115" gradientTransform="matrix(1 0 0 -1 0 892)">
		<stop  offset="0" style="stop-color:#B1C2E4;stop-opacity:0.6"/>
		<stop  offset="1" style="stop-color:#FFFFFF;stop-opacity:0"/>
	</linearGradient>
	<path id="Fill-104_1_" class="st36" d="M506.4,537.9l-18.2-36c-4.7-10.3-16.9-14.8-27.2-10c-10.3,4.7-14.8,17-10.1,27.3l17.9,39
		L506.4,537.9z"/>
	<path id="Fill-105" class="st33" d="M410,593.6c-1.4-6-6.7-7.6-12.5-8l-44-4.6l25.4-65.2c2.1-9.2-2.8-18.8-11.9-22.2
		c-9.9-3.7-20.9,1.3-24.6,11.2l-25.9,81.1c-1,2.3-1.4,4.7-1.4,7.1c-0.2,5.5,4.6,14.6,15.2,14.6c19.4,0,64.2-4.9,64.2-4.9
		C401.9,601,411.7,600.9,410,593.6"/>
	<path id="Fill-106" class="st34" d="M358.2,568.9l21.2-57.6c0-9.5-7.1-17.7-16.8-18.9c-10.5-1.3-20,6.1-21.4,16.6l-13.4,40.9
		L358.2,568.9z"/>
	
		<linearGradient id="Fill-107_2_" gradientUnits="userSpaceOnUse" x1="326.2776" y1="367.3717" x2="381.6337" y2="367.3717" gradientTransform="matrix(1 0 0 -1 0 892)">
		<stop  offset="0" style="stop-color:#F5F8FF"/>
		<stop  offset="1" style="stop-color:#FFFFFF"/>
	</linearGradient>
	<path id="Fill-107" class="st37" d="M369.5,559c1.9-6.3,3.7-12.6,5.5-19c2.1-7.8,4.3-15.6,6.1-23.6c2.4-10.3-3.2-21-13.3-24.8
		c-11-4.1-23.3,1.5-27.4,12.5c-2.8,7.6-5.4,15.3-7.9,23c-2.1,6.5-4.1,13.1-6.1,19.7L369.5,559z"/>
	
		<linearGradient id="Fill-107_3_" gradientUnits="userSpaceOnUse" x1="326.2776" y1="367.3717" x2="381.6337" y2="367.3717" gradientTransform="matrix(1 0 0 -1 0 892)">
		<stop  offset="0" style="stop-color:#B1C2E4;stop-opacity:0.6"/>
		<stop  offset="1" style="stop-color:#FFFFFF;stop-opacity:0"/>
	</linearGradient>
	<path id="Fill-107_1_" class="st38" d="M369.5,559c1.9-6.3,3.7-12.6,5.5-19c2.1-7.8,4.3-15.6,6.1-23.6c2.4-10.3-3.2-21-13.3-24.8
		c-11-4.1-23.3,1.5-27.4,12.5c-2.8,7.6-5.4,15.3-7.9,23c-2.1,6.5-4.1,13.1-6.1,19.7L369.5,559z"/>
	<path id="Fill-108" class="st33" d="M477.6,805.1c1.6-7.5,0.3-15,10.8-28.6c19-22.2-17.4-36.4-24.9-16.1c0,0-2.7,20-21.3,41.9
		C433.6,819.7,466.2,834.7,477.6,805.1"/>
	<path id="Fill-109" class="st39" d="M568.1,645.1c-1.2-13.4-13.8-23.4-28.7-22.8l-152.7,8l-0.6,12.7c-0.6,13.9,9.2,38.6,22.1,47.4
		h72.2l11.3-3.3c-17.5,33.3-31.8,70.6-36.4,85.6l27.5,18.6c0,0,83.7-136.3,84.2-137.5c0.6-1.6,1-3.1,1.1-4.7
		C568.2,647.6,568.2,646.4,568.1,645.1"/>
	<line id="Stroke-110" class="st26" x1="497.9" y1="681" x2="529.9" y2="649.8"/>
	<path id="Fill-111" class="st40" d="M460.7,754.3c-2.2,6.5-4.1,12.2-5.5,16.9c-0.2,0.7,0.1,1.4,0.6,1.8l26.2,17.7
		c0.8,0.5,1.8,0.3,2.3-0.5l8.9-14.5c0.4-0.7,0.2-1.7-0.5-2.2l-29.6-20C462.2,752.9,461,753.3,460.7,754.3"/>
	<path id="Fill-112" class="st41" d="M499.2,831.8c-1.1-6.7-4.9-11.9-9.8-16.4c-5.9-5.4-8.8-10.9-8.5-17.2c0-0.4-0.3-0.8-0.4-1.1
		c-14.2-9.7-18.7,2.3-28.4,4.7c-4.8,1.2-7-1-9.3-2c-3.3,5.8-10.4,19.3-10.5,27.3c0,1.5,0,3,0,4.6s1.3,3,2.9,3l61.2,0.5
		C498.1,835.2,499.5,833.6,499.2,831.8"/>
	<path id="Fill-113" class="st42" d="M462.2,827.1c4.5-8.8,17.9-14.2,27.2-11.7c4.9,4.5,8.7,9.7,9.8,16.4c0.3,1.8-1.1,3.4-2.9,3.4
		l-61.2-0.5c-1.6,0-2.9-1.3-2.9-3c0-1.6,0-3.1,0-4.6L462.2,827.1L462.2,827.1z"/>
	<path id="Fill-114" class="st33" d="M564.3,800.5c-7.3-7.2-10-13.2-14.6-29.7c-7.8-20.2-37.3-8.8-27.8,10.3c0,0,9.5,19.4,11.9,31.5
		c0,0.1-0.4,2.2-0.4,2.3C529.7,834.6,580.9,819.7,564.3,800.5"/>
	<path id="Fill-115" class="st41" d="M608.3,831.8c-0.4-3.3-2.2-6.8-9.1-9.8c-1.6-0.7-3.3-1.5-5.1-2.3c-11.7-5.7-26.8-14.8-32.5-22
		c-9.9,13-23.2,10.4-30.7,6.5c-2.6,8-3,17.2-2.8,23.4c0,1.9,0.1,3.6,0.2,4.8c0.1,1.5,1.4,2.7,2.9,2.7h74.1
		C607.2,835.1,608.6,833.6,608.3,831.8"/>
	<path id="Fill-116" class="st42" d="M608.3,831.8c-0.4-3.3-2.2-6.8-9.1-9.8c-1.6-0.7-3.3-1.5-5.1-2.3l-5.1,7.9h-61
		c0,1.9,0.1,3.6,0.2,4.8c0.1,1.5,1.4,2.7,2.9,2.7h74.1C607.2,835.1,608.6,833.6,608.3,831.8"/>
	<path id="Fill-117" class="st42" d="M553.8,781.2l-43.4-141.1c-0.9-3-2.2-5.8-3.9-8.2l-0.1-0.1c-4-6-11.1-9.2-18.2-8.7l-124.6,9.8
		l0.3,12.7c0.4,13.9,6.7,27.2,17.6,35.7c9.8,7.6,22.1,10.9,34.3,8.2l58.8-13.2c5.8,41.8,35,93.1,47,113.1L553.8,781.2z"/>
	<path id="Fill-118" class="st43" d="M511.5,773.2c3.4,6,6.4,11.2,9,15.3c0.4,0.6,1.1,0.9,1.8,0.7l30.6-7.8c0.9-0.2,1.4-1.1,1.1-2
		l-4.9-16.3c-0.2-0.8-1.1-1.3-1.9-1.1l-34.6,8.8C511.5,771.1,511,772.3,511.5,773.2"/>
	<line id="Stroke-119" class="st26" x1="474.6" y1="676.3" x2="477.2" y2="661.2"/>
	<path id="Fill-120" class="st41" d="M475.9,490.9c-41.9-16.8-81.8-16-124.4,1.7c0,0,12.2,78.5,12.2,98.1c0,10.4-0.1,26.1-0.2,38.7
		c-0.1,3.9-0.4,13,0.1,22c19.3,5,26.7-21.6,54.4-22.7l55-4.3c-0.7-11.8-1.5-24.2-1.5-33.7c0-16.6,6.3-75.1,9-92.9
		C480.9,494.7,478.8,492.1,475.9,490.9"/>
	
		<linearGradient id="Fill-120_2_" gradientUnits="userSpaceOnUse" x1="394.8849" y1="235.0177" x2="426.3878" y2="413.6798" gradientTransform="matrix(1 0 0 -1 0 892)">
		<stop  offset="0" style="stop-color:#FFFFFF;stop-opacity:0"/>
		<stop  offset="1" style="stop-color:#B1C2E4;stop-opacity:0.3"/>
	</linearGradient>
	<path id="Fill-120_1_" class="st44" d="M475.9,490.9c-41.9-16.8-81.8-16-124.4,1.7c0,0,12.2,78.5,12.2,98.1
		c0,10.4-0.1,26.1-0.2,38.7c-0.1,3.9-0.4,13,0.1,22c19.3,5,26.7-21.6,54.4-22.7l55-4.3c-0.7-11.8-1.5-24.2-1.5-33.7
		c0-16.6,6.3-75.1,9-92.9C480.9,494.7,478.8,492.1,475.9,490.9"/>
	<path id="Fill-121" class="st33" d="M601.4,540c1.7-0.9,1.2-3.8-2.7-6.1c-4.7-2.9-8.1-4.7-20.4-9.8c0.7,0.1,1.3,0.1,1.9,0.2
		c4.4,0.5,2.7-6.6-4.4-8.3c-5.6-1.3-14.5-3.4-14.5-3.4c-6.5-3-14.7-5.4-23.5,5.5c-0.2,0.2-0.3,0.4-0.4,0.6
		c-5.5,7.1,3.7,13.9,10.2,17c2.6,1.2,4.9,2.2,7.1,3l0,0l0,0c2.1,0.7,16.2,5.3,16.2,5.3c0.7,0.2,1.5,0.4,2.2,0.6
		c2.8,0.5,10.2,1.9,14.2,2.3c0.9,0.1,1.7-0.1,2.3-0.5c1.6,0.5,3,0.9,3.9,1.2c2.1,0.6,3.2-0.6,3.1-2.3c1,0.3,1.8,0.5,2.5,0.7
		C603.3,547,604.6,542.9,601.4,540"/>
	<path id="Stroke-122" class="st45" d="M562.9,517.2c5.1,4.5,8,5.5,13,7.6"/>
	<path id="Stroke-123" class="st45" d="M575.1,526.5c0,0-2.7,8.9-5.3,11.9"/>
	<path id="Stroke-124" class="st45" d="M594.7,537.9c-6.7-3.6-20-10-20-10"/>
	<line id="Stroke-125" class="st45" x1="590.3" y1="541.1" x2="573.2" y2="532.7"/>
	<path id="Stroke-126" class="st45" d="M585.4,541.5c-4.7-1.1-12.2-3.7-14.6-5.1"/>
	<line id="Stroke-127" class="st45" x1="510.6" y1="553.4" x2="497.9" y2="570"/>
	<line id="Stroke-128" class="st26" x1="360" y1="548.6" x2="355.6" y2="516.6"/>
	<line id="Stroke-129" class="st26" x1="474.1" y1="549.1" x2="477.3" y2="517.3"/>
	<path id="Fill-130" class="st34" d="M444,444.3c0,2.1,1.7,3.6,3.5,3c3.7-1.3,6.2-4.6,6.2-8.6c0-5-2.7-9.1-6.1-9.2
		C444.2,429.6,444,444.3,444,444.3"/>
	<path id="Fill-131" class="st46" d="M396,419c0-15.9,12.9-28.8,28.8-28.8s28.8,12.9,28.8,28.8s-12.9,28.8-28.8,28.8
		S396,434.9,396,419"/>
	<path id="Fill-132" class="st33" d="M413.4,501.5L413.4,501.5c11,1.8,21.4-5.2,23.1-15.6l3.8-38.6l-36.9-6.8l-6,38.9
		C395.7,489.8,402.4,499.7,413.4,501.5"/>
	<path id="Fill-133" class="st34" d="M404.8,440.6l35.5,6.8l-2.6,26.5c-4.1,2-8.8,2.7-13.6,1.8c-9.3-1.9-17.1-12.3-18.4-21.4l-1-13
		L404.8,440.6z"/>
	<path id="Fill-134" class="st33" d="M450.1,433.9c0,0,0.8-11.4-2-23.5c-6.1-1.2-11.7,1.6-21.2,3.1c-7.8,1.3-18.2-0.5-20.8-3.6
		c2.2,13.8-0.6,26.9-0.6,26.9l0,0c-1.6-0.1-2.9,1.4-2.5,3l3.2,13.4c2.2,9,10.1,16,20,16.5c11.5,0.5,21.2-8.4,22.4-19.9L450.1,433.9z
		"/>
	<path id="Fill-135" class="st47" d="M430.6,453.2c3.2,0,6.3-0.6,9.1-1.7c-1.7,3.3-5.1,5.6-9.1,5.6s-7.4-2.3-9.1-5.6
		C424.3,452.6,427.4,453.2,430.6,453.2"/>
	<path id="Fill-136" class="st41" d="M423.6,452.2c2.2,0.6,4.6,1,7,1s4.8-0.4,7-1c-1.8,1.7-4.3,2.8-7,2.8
		C427.9,455.1,425.4,454,423.6,452.2"/>
	<path id="Fill-137" class="st33" d="M404.8,444.3c0,2.1-1.7,3.6-3.5,3c-3.7-1.3-6.2-4.6-6.2-8.6c0-5,2.7-9.1,6.1-9.2
		C404.5,429.6,404.8,444.3,404.8,444.3"/>
	<path id="Fill-138" class="st48" d="M419.6,434.8c0,1.1,0.9,2,2,2s2-0.9,2-2s-0.9-2-2-2C420.5,432.7,419.6,433.6,419.6,434.8"/>
	<path id="Fill-139" class="st48" d="M439.9,434.6c0,1.1,0.9,2,2,2s2-0.9,2-2s-0.9-2-2-2S439.9,433.5,439.9,434.6"/>
	<path id="Stroke-140" class="st49" d="M435.1,445.1c-3.5,1.1-5.4,0.6-7.7,0"/>
	<path id="Fill-141" class="st46" d="M438.4,426.1c0.9-0.2,1.9-0.3,2.8-0.3s1.9,0.1,2.8,0.3c0.9,0.2,1.8,0.5,2.7,0.8
		c0.9,0.4,1.7,1,2.2,2.2l0.2,0.5c0.2,0.3,0,0.7-0.3,0.9c-0.2,0.1-0.4,0.1-0.6,0c-0.6-0.4-1.5-0.6-2.3-0.8c-0.8-0.2-1.6-0.3-2.4-0.3
		s-1.6-0.1-2.5,0c-0.8,0-1.6,0.1-2.4,0.2c-0.9,0.1-1.8-0.5-1.9-1.5c-0.1-0.9,0.5-1.7,1.3-1.9L438.4,426.1z"/>
	<path id="Fill-142" class="st46" d="M413.5,429.1c0.6-1.1,1.4-1.7,2.3-2.1s1.9-0.7,2.8-0.8c1-0.2,1.9-0.3,2.9-0.3s2,0.1,2.9,0.3
		l0.4,0.1c0.9,0.2,1.5,1.1,1.3,2s-1,1.5-1.9,1.4c-0.8-0.1-1.7-0.2-2.6-0.2s-1.7,0-2.6,0.1s-1.7,0.2-2.6,0.3
		c-0.8,0.2-1.7,0.4-2.4,0.8c-0.3,0.2-0.7,0-0.9-0.3c-0.1-0.2-0.1-0.4,0-0.6L413.5,429.1z"/>
	<path id="Fill-143" class="st33" d="M502.9,608.8c3.4,0.5,6.5,0.6,8.6,0.5c2-0.1,4-0.7,5.6-1.9c0.1,0,0.1-0.1,0.2-0.1
		c7.5-5.3,5-17-4-18.8c-3.9-0.8-8-1.5-11.6-2c-7.1-1.1-17.3-2.2-16.9,5.8C485.2,598.6,492.5,607.2,502.9,608.8"/>
	<path id="Fill-144" class="st33" d="M410,593.6c-1.4-6-6.7-7.6-12.5-8l-44-4.6L336,607.5c21.3-0.7,58.6-4.8,58.6-4.8
		C401.9,601,411.7,600.9,410,593.6"/>
	<path id="Fill-145" class="st50" d="M522.7,526.7H416.1c-1.2,0-2.4,1-2.5,2.3l-9.7,75.8h-52.5v1.2c0,1.2,1,2.3,2.3,2.3h52h6.3
		h100.3c1.2,0,2.4-1,2.5-2.3l9.8-76.9C524.8,527.7,523.9,526.7,522.7,526.7"/>
	<path id="Fill-146" class="st41" d="M525.9,526.7H419.3c-1.2,0-2.4,1-2.5,2.3l-9.8,76.9c-0.2,1.2,0.7,2.3,2,2.3h106.6
		c1.2,0,2.4-1,2.5-2.3l9.8-76.9C528,527.7,527.1,526.7,525.9,526.7"/>
	<path id="Stroke-147" class="st26" d="M478.4,567.4c1.2-6.1-2.8-11-8.9-11s-12,4.9-13.2,11s2.8,11,8.9,11S477.2,573.5,478.4,567.4z
		"/>
	<polygon id="Fill-148" class="st50" points="959,617 922.1,846.1 937.2,846.1 974.9,617 	"/>
	<path id="Fill-192" class="st23" d="M947.4,817.5c-7,7.3-17.4,12.9-25,16.6c-9.3,4.5-7.7,12.1-7.7,12.1h68.6
		c3.6-14.4-1.3-19.3,0.5-35.3c1.8-20.9-26.4-24-31.5-1.6C952.3,809.2,952.3,812.4,947.4,817.5"/>
	<path id="Fill-193" class="st51" d="M1139.7,660.1c0.7-20.4-16.4-37-36.8-35.6l-85,5.9c-15.9,1-29.2,12.4-32.7,27.9l-34.6,153.3
		h62.1l36-118.3h56.6C1123.8,693.3,1139,678.6,1139.7,660.1"/>
	<path id="Fill-194" class="st23" d="M989,817.5c-5.8,8.3-17.4,12.9-25,16.6c-9.3,4.5-7.7,12.1-7.7,12.1h68.6
		c3.6-14.4-1.3-19.3,0.5-35.3c3.8-19.4-22.1-29.1-31.5-1.6C993.9,809.2,994.8,809.3,989,817.5"/>
	<path id="Stroke-195_1_" class="st24" d="M987.4,818.7c-5.8,8.3-17.4,12.9-25,16.6c-9.3,4.5-7.7,12.1-7.7,12.1"/>
	<path id="Fill-196" class="st48" d="M1161.9,489.1c-5.4,11.9-0.1,26,11.9,31.4s26,0.1,31.4-11.9c5.4-12,0.1-26-11.9-31.4l-21.6-9.7
		L1161.9,489.1z"/>
	<path id="Fill-197" class="st18" d="M1151.7,538.7l-26.1,57.7l-0.6,1.3c-2.4,5.5-7.8,8.7-13.5,8.7l-67.4-0.9
		c-6.6-0.1-11.9-5.5-11.8-12.1c0.1-6.1,4.8-11.1,10.7-11.7l67.1-7l-14,9.9l22.2-60.1c3.4-9.2,12.8-13,21.8-10
		c9.3,3.1,15.4,14.1,12,23.3C1152,538,1151.9,538.4,1151.7,538.7"/>
	<path id="Fill-198" class="st52" d="M1163.6,600.1c-16.3,0-30.8,9.8-40,23.1l-64.1,4.4c-15.9,1-29.3,12.5-32.7,28l-34.7,155.9h57.3
		l35.9-118l76.9,0.4l0,0c0.5,0,0.9,0,1.4,0c27.9,0,50.5-13.3,50.5-39.2C1214.1,628.8,1191.5,600.1,1163.6,600.1"/>
	<path id="Fill-199" class="st41" d="M1191.7,514.3c8.8,1.8,13.6,8.2,13.6,18.3c0,29.3-4.5,59-12,79.2c-3.7,9.8-55.7,6.5-59.3,0
		c-15.2-27.2-16.5-60.5-14.2-86.9c0.5-5.7,4.5-9.8,10.6-11.1C1153.1,508.9,1165.4,508.8,1191.7,514.3"/>
	<path id="Fill-200" class="st18" d="M1194.9,542.9c0.1-0.3,2.2-22.1-7.4-24.2c-9.6-2.1-19.1,4-21.2,13.6l-12.1,55.7l-27,8.9
		c1.9,5.1,4.1,10.1,6.8,14.8c2.5,4.6,28.9,7.6,45.7,5.5L1194.9,542.9z"/>
	<line id="Stroke-201" class="st26" x1="1085.3" y1="693.5" x2="1074.2" y2="678.2"/>
	<line id="Stroke-202" class="st26" x1="1057.5" y1="784.8" x2="957.3" y2="784.8"/>
	<path id="Fill-203" class="st18" d="M1154.6,527.9c10.7,0,19.2-7.8,18.5-16.9l-4-25.2l-29.5,1.8l1.6,24.1
		C1141.7,520.8,1143.8,527.9,1154.6,527.9"/>
	<path id="Stroke-204" class="st53" d="M1148.2,510.1l0.7,16.7c-12.9,19-13.4,56.6-2.9,89.3"/>
	<path id="Fill-205" class="st54" d="M1152.4,510.2c7.2,0,18.6-7.7,17.9-15.6l-1.4-17.6l-30.2,2.5l1.4,17.6
		C1140.8,505,1143.3,510.2,1152.4,510.2"/>
	<path id="Fill-206" class="st34" d="M1151.5,504.8c8.9-1.4,15.3-17.7,14.7-25.6l1.8-7.6l-30.2,2.5l1.4,17.6
		C1139.9,499.6,1142.5,506.2,1151.5,504.8"/>
	<path id="Fill-207" class="st54" d="M1174.7,461.8l-9.9,24.9c-4.3,10.8-16.6,16.1-27.5,11.8c-8.6-3.4-13.7-11.9-13.3-20.6l1.2-26.8
		c0.6-14.2,12.6-25.1,26.8-24.5c14.2,0.6,25.1,12.6,24.5,26.8C1176.3,456.4,1175.7,459.3,1174.7,461.8"/>
	<path id="Fill-208" class="st48" d="M1168.9,431.1c-13.5-9.7-32.2-6.6-41.9,6.9c3.7,15.9,24.6,16.9,36.4,16.9
		c-0.3,4.1-0.3,15,9.4,17.3c0.1-0.3,0.1-0.6,0.1-0.8c0.9,1,1.8,1.7,2.9,1.6C1185.4,459.5,1182.3,440.8,1168.9,431.1"/>
	<path id="Fill-209" class="st54" d="M1168.3,465.8l-1.3,9.1c-0.3,2.2,1.6,4.1,3.8,3.8c4.8-0.7,8.4-3.9,9-8.1
		c0.8-5.4-2-10.3-6.1-10.9C1169.6,459.1,1168.7,463.1,1168.3,465.8"/>
	<path id="Fill-210" class="st48" d="M1126.3,464c0,1.2,1,2.2,2.2,2.2s2.2-1,2.2-2.2s-1-2.2-2.2-2.2
		C1127.3,461.9,1126.3,462.8,1126.3,464"/>
	<path id="Fill-211" class="st48" d="M1146.3,463.9c0,1.2,1,2.2,2.2,2.2s2.2-1,2.2-2.2s-1-2.2-2.2-2.2S1146.3,462.7,1146.3,463.9"/>
	<path id="Fill-212" class="st47" d="M1130.8,459.3c-0.8-0.3-1.7-0.5-2.6-0.5c-0.5,0-0.9,0-1.4,0.1c-0.4,0.1-0.9,0.2-1.3,0.4
		c-0.2,0.1-0.4,0-0.5-0.2c-0.1-0.1-0.1-0.2,0-0.4l0.2-0.3c0.3-0.7,0.8-1,1.3-1.2s1.1-0.3,1.6-0.3c0.5-0.1,1.1-0.1,1.7,0
		c0.6,0,1.1,0.2,1.6,0.4l0.3,0.1c0.5,0.2,0.8,0.8,0.5,1.4C1131.9,459.2,1131.3,459.5,1130.8,459.3"/>
	<path id="Fill-213" class="st47" d="M1144.7,457.4c0.8-0.2,1.7-0.4,2.5-0.4s1.7,0,2.5,0.1c0.8,0.2,1.7,0.3,2.5,0.6
		c0.8,0.3,1.5,0.8,2.1,1.7l0.1,0.2c0.1,0.2,0.1,0.5-0.1,0.6c-0.1,0.1-0.3,0.1-0.5,0c-0.6-0.4-1.3-0.6-2.1-0.8
		c-0.7-0.2-1.5-0.3-2.2-0.3c-1.5-0.1-3,0-4.5,0.3c-0.6,0.1-1.1-0.3-1.2-0.8C1143.7,458,1144,457.5,1144.7,457.4L1144.7,457.4z"/>
	<path id="Stroke-214" class="st55" d="M1146.9,481c-6.6,3.8-12.1,3-14.8,2.2"/>
	<path id="Stroke-215" class="st45" d="M1140.1,475.3c-3.3,1-5.7,0.6-8,0"/>
	<path id="Fill-216" class="st41" d="M1192.6,516.3c-8.9-4.1-19.5-0.2-23.6,8.8l-23.8,51.8l-57.1,6c-5.9,0.6-10.6,5.6-10.7,11.7
		c-0.1,6.6,5.2,12,11.8,12.1l67.4,0.9c5.2,0.1,10.3-2.7,12.9-7.6l31.4-59.1c0.2-0.3,0.3-0.6,0.5-0.9
		C1205.4,531,1201.5,520.4,1192.6,516.3"/>
	<path id="Fill-217" class="st54" d="M1095.8,583.5c0,0-8.3-5.7-8.8-6.1c-0.9-0.7-2-1.2-3.1-1.5l-17.2-4.8c-1.2-0.3-2.3,0.7-2.1,1.8
		c0.1,2.2,0.9,4,3,5.4l7.6,4.9c0,0-0.6,3.6,8.1,9.1C1092.7,598.1,1102,587.7,1095.8,583.5"/>
	<path id="Fill-218" class="st50" d="M1075.1,606.1h-45.5c-1,0-1.9-0.8-2-1.8l-7.6-59.9c-0.1-1,0.6-1.8,1.5-1.8h45.5
		c1,0,1.9,0.8,2,1.8l7.6,59.9C1076.7,605.3,1076,606.1,1075.1,606.1"/>
	<path id="Fill-219" class="st16" d="M1072.6,606.1h-45.5c-1,0-1.9-0.8-2-1.8l-7.6-59.9c-0.1-1,0.6-1.8,1.5-1.8h45.5
		c1,0,1.9,0.8,2,1.8l7.6,59.9C1074.3,605.3,1073.6,606.1,1072.6,606.1"/>
	<path id="Fill-220" class="st54" d="M1090.4,581.2c-4.6-0.9-19.1-2.2-19.1-2.2l0,0l0,0l-11.6-0.1c-0.5-0.1-1,0-1.5,0.1
		c-0.1,0-0.3,0-0.4,0l-10.3,1.8c-1.6,0.5-2.7,0.7-2.7,2.3c0.1,1,1.2,3.2,4.5,3.4s10.6-0.1,10.6-0.1c0.1,0,0.2,0,0.3-0.1l3.3,0.4
		c0,0.1-0.1,0.3-0.1,0.4c-7.4,1.1-12.9,2.2-17,2.9c-5.7,1-3.9,7.3,0.8,7c0.2,0,0.3,0,0.5,0c-1.5,1.8-0.3,4.9,2.8,5.1
		c0.7,0,1.6,0.1,2.6,0.2c-1.6,1.5-0.7,4,2.3,4.1c5.1,0.2,16.1,0.1,16.1,0.1l0,0c14.7,1.2,20.3-0.7,23.1-1.4
		C1102.7,602.5,1104.2,583.8,1090.4,581.2"/>
	<line id="Stroke-221" class="st45" x1="1050.9" y1="595.5" x2="1065.3" y2="593.6"/>
	<line id="Stroke-222" class="st45" x1="1054.6" y1="601.1" x2="1066.2" y2="599.6"/>
	<path id="Fill-223" class="st54" d="M1028.7,586.5l-5.2,1.4c-2.1,0.5-4.1-1-4.1-3.1v-0.4c0-1.8,1.5-3.3,3.3-3.3h5.3
		c1.5,0,3.8,0.1,3.8,1.6C1031.8,585.4,1029.9,586.2,1028.7,586.5"/>
	<path id="Fill-224" class="st54" d="M1031.8,591.8c0-1.4-1.1-2.6-2.5-2.7l-6.6-0.5c-2-0.2-3.8,1.5-3.8,3.5c0,1.9,1.4,3.3,3.2,3.5
		c-0.9,0.6-1.4,1.5-1.4,2.5c0,1.3,0.8,2.3,2,2.9c-0.6,0.6-0.9,1.3-0.9,2.2v0.1c0.1,1.9,1.8,3.2,3.6,2.8l0.6-0.1
		c1.4-0.3,2.3-1.5,2.3-2.9c0-0.9-0.4-1.7-1-2.2l0,0c1.3-0.3,2.3-1.3,2.3-2.6v-0.5c0-1.3-1.1-2.4-2.6-2.6l-0.7-0.1l3.2-0.5
		C1030.8,594.3,1031.8,593.2,1031.8,591.8"/>
	<path id="Stroke-225" class="st26" d="M1123.6,623.2c24.4,0.2,22.5,0.5,22.5,0.5"/>
	<polygon id="Fill-226" class="st50" points="1059.7,617 1048.4,617 1086.1,846.1 1097.3,846.1 	"/>
	<polygon id="Fill-227" class="st19" points="1064.3,617 1053.6,617 1091.3,846.1 1101.2,846.1 	"/>
	<polygon id="Fill-228" class="st16" points="1053.6,617 1058.9,649.4 1068.1,640.3 1064.3,617 	"/>
	<polygon id="Fill-229" class="st50" points="362.2,617 324.6,846.1 313.4,846.1 351,617 	"/>
	<polygon id="Fill-230" class="st18" points="357.1,617 319.4,846.1 309.5,846.1 346.4,617 	"/>
	<polygon id="Fill-231" class="st16" points="350.2,617.9 345.2,648.7 336.5,640 340.1,617.9 	"/>
	<polygon id="Fill-232" class="st18" points="307.7,617.3 1101.2,617.3 1101.2,606.1 307.7,606.1 	"/>
</g>
</svg>
