<?xml version="1.0" encoding="utf-8"?>
<!-- Generator: Adobe Illustrator 24.1.1, SVG Export Plug-In . SVG Version: 6.00 Build 0)  -->
<svg version="1.1" id="Layer_1" xmlns="http://www.w3.org/2000/svg" xmlns:xlink="http://www.w3.org/1999/xlink" x="0px" y="0px"
	 viewBox="0 0 180.2 202.5" style="enable-background:new 0 0 180.2 202.5;" xml:space="preserve">
<style type="text/css">
	.st0{display:none;opacity:0.5;fill:url(#phone_stack_shadow_1_);enable-background:new    ;}
	.st1{fill:#1B3554;}
	.st2{fill:#E7EAF3;}
	.st3{fill:#BDC5D1;}
	.st4{fill:#FFFFFF;}
	.st5{opacity:0.5;fill:url(#Rectangle_19_2_);enable-background:new    ;}
	.st6{fill:#97A4AF;enable-background:new    ;}
	.st7{fill:#E7EAF3;enable-background:new    ;}
	.st8{fill:none;stroke:#97A4AF;stroke-width:5;stroke-linecap:round;stroke-linejoin:round;stroke-miterlimit:10;}
	.st9{fill:#377DFF;}
</style>
<linearGradient id="phone_stack_shadow_1_" gradientUnits="userSpaceOnUse" x1="671.0107" y1="-255.3118" x2="670.8267" y2="-255.0282" gradientTransform="matrix(779.557 0 0 292.144 -522949.3438 74663.1484)">
	<stop  offset="0.1966" style="stop-color:#D0DCF1"/>
	<stop  offset="0.4155" style="stop-color:#D6E1F3"/>
	<stop  offset="0.7162" style="stop-color:#E8EEF8"/>
	<stop  offset="1" style="stop-color:#FFFFFF"/>
</linearGradient>
<path id="phone_stack_shadow" class="st0" d="M-211.9,102.9L18.8,48.2L309.9,155L91.8,246.1"/>
<rect id="Rectangle_19_Copy_2" x="19" y="178.5" class="st1" width="124" height="12"/>
<rect id="Rectangle_19_Copy" x="20" y="14.5" class="st2" width="124" height="79"/>
<path id="Rectangle_3" class="st3" d="M20,14.5v120H0V61.9l10-15.4L20,14.5z"/>
<path id="Rectangle_3_Copy_3" class="st3" d="M143,14.5v120h20V61.9l-10-15.4L143,14.5z"/>
<path id="Rectangle_19_1_" class="st4" d="M0,61.5h163l0,0v136c0,2.8-2.2,5-5,5H5c-2.8,0-5-2.2-5-5V61.5L0,61.5z"/>
<linearGradient id="Rectangle_19_2_" gradientUnits="userSpaceOnUse" x1="0" y1="132" x2="163" y2="132">
	<stop  offset="0.1966" style="stop-color:#D0DCF1;stop-opacity:0.7"/>
	<stop  offset="0.4155" style="stop-color:#D6E1F3;stop-opacity:0.5"/>
	<stop  offset="0.7162" style="stop-color:#E8EEF8;stop-opacity:0.5"/>
	<stop  offset="1" style="stop-color:#FFFFFF;stop-opacity:0"/>
</linearGradient>
<path id="Rectangle_19" class="st5" d="M0,61.5h163l0,0v136c0,2.8-2.2,5-5,5H5c-2.8,0-5-2.2-5-5V61.5L0,61.5z"/>
<path id="Rectangle_3_Copy" class="st6" d="M49,120.8c0.2-2.8,2-5.3,4.6-6.3l3-0.9l5.1,1.7c1.3,0.5,2.2,1.8,2.3,3.2l0,0
	c-0.2,1.1-1.2,1.8-2.3,1.7l-5.2-1.7l-5.2,1.7c-1.1,0.2-2.1-0.6-2.3-1.7V120.8z"/>
<path id="Rectangle_3_Copy_2" class="st6" d="M100,120.8c0.2-2.8,2-5.3,4.6-6.3l3-0.9l5.1,1.7c1.3,0.5,2.2,1.8,2.3,3.2l0,0
	c-0.2,1.1-1.2,1.8-2.3,1.7l-5.2-1.7l-5.2,1.7c-1.1,0.2-2.1-0.6-2.3-1.7V120.8z"/>
<path id="Oval_10" class="st6" d="M82,144.5c8.8,0,16-5.2,16-14c-16-0.1-19.4,0.3-32,0C66,139.3,73.2,144.5,82,144.5z"/>
<circle id="Oval" class="st7" cx="45" cy="76.5" r="6"/>
<circle id="Oval_Copy" class="st7" cx="118" cy="76.5" r="6"/>
<path id="Oval_15" class="st8" d="M45,76.2V39C45,18.8,61.3,2.5,81.5,2.5S118,18.8,118,39v37.2"/>
<circle id="Oval_2-2" class="st9" cx="162.3" cy="175.7" r="17.6"/>
<g>
	<path class="st4" d="M167.4,175.7c0,2.5-0.4,4.4-1.2,5.6c-0.8,1.2-2.1,1.8-3.8,1.8c-1.7,0-2.9-0.6-3.8-1.9
		c-0.8-1.3-1.3-3.1-1.3-5.5c0-2.6,0.4-4.4,1.2-5.6c0.8-1.2,2.1-1.8,3.8-1.8c1.7,0,2.9,0.6,3.8,1.9
		C166.9,171.5,167.4,173.3,167.4,175.7z M160.3,175.7c0,1.8,0.2,3,0.5,3.8c0.3,0.8,0.8,1.2,1.5,1.2c0.7,0,1.2-0.4,1.5-1.2
		c0.3-0.8,0.5-2,0.5-3.8c0-1.8-0.2-3-0.5-3.8c-0.3-0.8-0.8-1.2-1.5-1.2c-0.7,0-1.2,0.4-1.5,1.2C160.5,172.7,160.3,174,160.3,175.7z"
		/>
</g>
</svg>
