<?xml version="1.0" encoding="utf-8"?>
<!-- Generator: Adobe Illustrator 24.1.1, SVG Export Plug-In . SVG Version: 6.00 Build 0)  -->
<svg version="1.1" id="Layer_1" xmlns="http://www.w3.org/2000/svg" xmlns:xlink="http://www.w3.org/1999/xlink" x="0px" y="0px"
	 viewBox="0 0 271 118.8" style="enable-background:new 0 0 271 118.8;" xml:space="preserve">
<style type="text/css">
	.st0{enable-background:new    ;}
</style>
<g class="st0">
	<path d="M33.3,118.5l-1-0.6c-0.4,0.2-0.7,0.3-0.9,0.3l-1.2-0.7c0,0.6-0.2,0.9-0.7,0.9h-0.2v-0.2l0.6-0.9c-0.4,0-0.6-0.4-0.6-1.2H29
		l-0.7,0.2c0.4,0.9,0.7,1.5,0.7,1.9h-0.3c-2.2,0-3.3-0.4-3.3-1.2H25l-0.9,0.6c-6.3-2.2-10.1-4.2-11.6-6.1c-2.2-1.6-3.3-3.9-3.3-7
		c-0.2,0-0.3-0.1-0.3-0.2c0-0.2,0.1-0.3,0.3-0.3l-0.3-0.6c0-0.2,0.1-0.5,0.3-0.9l-0.7-2.5c0.4-0.2,0.7-0.3,0.9-0.3
		c-0.4-0.7-0.6-1.3-0.6-1.8c0.3,0,0.6-0.6,0.9-1.8H11l-0.9-1.2c0-0.5,0.3-1.2,0.9-2.1c-0.4,0-0.7-0.5-0.9-1.5
		c0.4-0.2,0.7-0.3,0.9-0.3l-0.3-0.6c0-0.4,0.2-0.7,0.7-0.7c0.4,0.2,0.7,0.3,0.9,0.3c0.4-0.2,0.7-0.3,0.9-0.3l0.2,0.7l0.7-0.3
		l0.6,0.3v-0.7c-0.7,0-1.2-0.4-1.5-1.2c-0.4,0-0.7-0.2-0.7-0.7L11.9,88h-0.3v-0.3c0.5-1.4,1-2.1,1.2-2.1h0.3
		c1.6,2.1,3.6,3.8,6.1,5.2h0.6V92c0,0.4-0.3,0.6-0.9,0.6v0.3l1.5,0.3l-0.2-0.7V92h1.2l2.4,1.5h0.3c-1.6-1.3-2.5-2-2.5-2.1l0.7-0.3
		c4.4,2.9,8.4,4.3,12.1,4.3h2.5c0.2,0,0.3,0.1,0.3,0.2l0.6-0.2l0.6,0.2c1.2,0,2.1-0.5,2.8-1.5c0,0.8,0.4,1.2,1.2,1.2l2.8-1.6v-0.9
		h0.6v0.9H46l0.6-0.3c-0.2-0.2-0.3-0.7-0.3-1.5h0.3c-0.2-0.4-0.3-0.7-0.3-0.9H46V92c-0.4-0.1-0.7-0.2-0.7-0.6l0.3-0.7
		c-0.4,0-0.7-0.5-0.9-1.5h0.6v0.6h0.3v-0.9c-0.4-0.1-0.6-0.2-0.6-0.6l-0.7,0.2h-0.3V88h0.7c-0.8-3.3-2-5.6-3.6-7l0.2-0.6
		c-0.1-0.4-0.2-0.7-0.6-0.7c-0.4,0.2-0.7,0.3-0.9,0.3v-0.3l0.2-0.6c-0.8-0.1-1.2-0.4-1.2-0.9V78h0.6c-0.1-0.4-0.2-0.6-0.6-0.6
		c0,0.4-0.1,0.6-0.3,0.6l-3.6-2.4v-0.3l0.2-1.6l-0.6-0.2h-0.3v0.9h-0.6c0-0.4-1.6-1.9-4.9-4.6c0-0.2-2.3-2.4-7-6.7
		c-1.2-0.2-1.8-0.5-1.8-0.9c0.2,0,0.2-0.1,0.2-0.3c-0.2,0-0.2-0.1-0.2-0.2l-0.7,0.2c-1.6-0.7-2.4-1.2-2.4-1.5
		c0.4-0.1,0.6-0.2,0.6-0.6v-0.7c-0.7,0.4-1.2,0.7-1.5,0.7v-1.2l0.2-0.7l-2.1-0.9c0,0.2-0.1,0.3-0.3,0.3v-0.3l-0.7,0.3h-0.2
		c0-0.2,0.1-0.3,0.2-0.3l-0.2-0.6V56h1.2v-0.6h-1.6v-0.9L12.5,53h-0.6l0.3,1.6v0.6h-0.7c0-0.2,0.1-0.3,0.3-0.3
		c-0.3-1.2-1-1.8-2.1-1.8l0.3-1.5c-0.4,0-0.9-0.6-1.2-1.8C9,49.3,9.2,49,9.2,48.8H8.5v0.6H7.9v-0.9l0.6-0.9H7.9
		c-0.4,0.2-0.7,0.3-0.9,0.3v-1l0.3-0.6c-1-0.5-1.6-1-1.6-1.2v-0.2c0-0.2,0.1-0.3,0.3-0.3C5.6,42.8,5.3,42,5.2,42l0.6-1.2
		c-0.8,0-1.2-0.4-1.2-1.2c0.3,0,0.6-0.3,0.9-0.9v-0.3l-0.9,0.6l-0.2-0.6v-0.9h0.6v-0.6H3.6L4,35.3l-0.3-1.2C3.8,34.1,4,34,4,33.8
		c-0.6,0-0.9-0.4-0.9-1.2H2.7l-0.2,1.5l0.6,3.7H2.7l0.3,0.6v0.3c0,0.2-0.1,0.2-0.3,0.2l0.9,1.6l-0.2,1.8c0.6,0,1,1.4,1.2,4.3
		c1,0,1.6,1.2,1.6,3.6H5.2v0.3c1.2,0,2.2,0.5,3.1,1.5v0.3L7.9,53c0.8,0,1.6,1.3,2.5,4c-0.2,0-0.3,0.1-0.3,0.3c1,0,1.5,0.3,1.5,0.9
		v0.3c-0.6,0-0.9,0.1-0.9,0.2c0.4,0.7,0.7,1.2,0.7,1.6c-1.7-1.6-2.5-2.9-2.5-4l-0.6,0.3l-0.9-1.6l0.2-1.8c-2.2-1-3.3-2.4-3.3-4.3
		C4.1,49,4,48.8,4,48.4c0.4-0.1,0.6-0.2,0.6-0.6v-0.7l-0.9,0.7H3.4v-0.3l0.2-0.7c-1.1,0-2.3-4.3-3.6-12.8h0.3L0,33.5
		c0-4.5,1.8-8.3,5.4-11.3L7,20.4c-0.2,0-0.3-0.1-0.3-0.3h0.7L7,19.5c3.5-3.1,5.2-5,5.2-5.4h0.6l-0.3,0.6l0.7,0.3
		c0.9-0.9,2.3-2,4.2-3.4c0-1,0.3-1.5,1-1.5h0.2c0.2,0,0.3,0.1,0.3,0.2c1.2-0.5,1.8-1.1,1.8-1.8h0.7c0,0.6,0.2,0.9,0.6,0.9
		c0-0.2,1.1-0.9,3.4-2.1H25c-1.7,0.4-2.5,0.8-2.5,1.2h-0.6V8.2c0-0.7,1.5-1.5,4.5-2.4v0.6L25,6.7V7h1.2c0-0.4,0.6-0.7,1.8-0.7V6.1
		c-0.6,0-0.9-0.2-0.9-0.7h0.2l1.9,0.9h0.2V6.1c-0.6,0-0.9-0.3-0.9-0.9l0.7-0.3c0,0.3,0.4,0.7,1.2,1.2h0.3V5.4h0.9v0.7H32
		c0-0.5,0.1-0.9,0.2-1.2h-0.6V4.2c0.4,0.2,0.8,0.3,1.2,0.3l-0.3,0.7v0.2h0.3c0.4-0.2,0.7-0.2,0.9-0.2c0,0.4,0.2,0.6,0.6,0.6h0.3
		c0.5-0.4,1-0.6,1.5-0.6L36,4.5h2.1L39,5.2c0-0.4,0.2-0.7,0.6-0.7c0.2,0,0.3,0.1,0.3,0.3c0.4-0.2,0.7-0.3,0.9-0.3
		c0.2,0,0.8,0.4,1.8,1.2V5.4l-0.3-0.6h0.3c0.4,0,0.6,0.2,0.6,0.6l0.7-0.2l1.5,1.2h0.3V5.8h0.6v0.6l1.6-0.2c0.7,1,2,1.8,4,2.4v0.3
		l0.6-0.3h0.3v0.9C53.4,9,54,8.8,54.5,8.8l0.3,0.6c-0.2,0-0.3,0.1-0.3,0.3c3.2,1.1,4.9,2.1,4.9,3.1l0.7-0.3c5.4,3.7,8.4,6.8,8.8,9.5
		v0.6h-0.3c-1.6-1.8-2.5-2.7-2.7-2.7V20c2.2,1.9,3.3,3.6,3.3,5v0.6h-0.2c-1.6-1.3-2.5-2.3-2.5-3.1h-0.9v0.9c0.6,0,1.7,1.2,3.4,3.6
		v0.3c-0.1,0.4-0.3,0.7-0.7,0.7c0-0.2-0.1-0.3-0.2-0.3c0.4,0.7,0.6,1.3,0.6,1.8H68c0-0.6-1.7-2.4-5.2-5.5h-0.3v0.3
		c0,0.4,1,1.3,3.1,2.7l0.3,1.2h-0.3l-0.6-0.2l-0.3,0.6V29c0.5,0,1,0.5,1.5,1.5V31c-0.4,0-0.6-0.3-0.6-0.9h-0.9l-0.3,1.2L63.7,31
		c0.4,0.7,0.6,1.2,0.6,1.6L62.5,31c0,0.4,0.7,1.8,2.1,4v0.3l-3.1-2.4h-0.3c-0.5,0.4-0.9,0.6-1.2,0.6c0,0.3,1.4,1.8,4.2,4.3
		c-0.1,0.4-0.2,0.6-0.6,0.6c0-0.3-0.7-1-2.1-2.1c0,0.4-0.1,0.7-0.3,0.7l0.3,0.6v0.3h-0.3l-4.9-3.4v0.3l0.3,1.5l-0.6,0.3
		c0.4,1.4,0.6,2.6,0.6,3.6l-0.6,0.3c0-0.5-0.5-0.8-1.6-0.9c0.2-0.8,0.6-1.2,1.2-1.2V38h-0.7c-0.4,0.5-0.6,0.9-0.6,1.2
		c-0.6-1-1-1.5-1.2-1.5v-0.3c0.7,0,1.2-0.1,1.6-0.3c0,0.4,0.2,0.7,0.6,0.7v-0.7c0-1-0.5-1.8-1.5-2.4c-0.2,0.4-0.3,0.7-0.3,0.9h-0.3
		l-0.6-0.3L52.4,36l0.7,0.2l1.2-0.9h0.3c0,1-0.6,1.7-1.8,2.1c0-0.5-0.3-1.2-0.9-1.8v-0.3c0.8-0.1,1.2-0.5,1.2-1.2
		c-0.8,0-1.4-0.4-1.9-1.2h-0.9l-0.6,0.2l-0.3-0.6l0.3-1.6l-0.6-0.2h-1L47.5,31c0-0.8-0.2-1.2-0.6-1.2h-0.3l0.3,0.6v0.3h-0.3
		c-0.3,0-0.6-0.3-0.9-0.9h0.6v-0.7c-0.4,0-0.8-0.1-1.2-0.2v0.6h-0.7V29l0.3-0.7h-0.9v0.3c0.2,0.4,0.2,0.7,0.2,0.9
		c-1-0.7-1.5-1.3-1.5-1.8l-0.6,0.3l-0.9-0.7l0.2-0.6v-0.3l-0.6,0.3c0-0.8-0.2-1.2-0.7-1.2h-0.2c0,0.3,0.2,0.9,0.6,1.8h-0.3l-0.6-0.3
		c-0.1,0.4-0.2,0.7-0.6,0.7c0-0.2-0.1-0.3-0.3-0.3l0.9-2.1C39.2,25.2,39,25,39,24.7L38.4,25h-1.2v-0.3l0.2-0.7h-0.2l-1,0.7H36V24
		h-0.7l0.3,0.7V25c-0.1,0.4-0.2,0.6-0.6,0.6h-0.3l-0.3-1.8h-0.2l-0.9,0.6h-0.3L32.3,24v0.3c-1-0.1-1.5-0.4-1.5-0.9h-0.6V24l0.2,0.7
		l0.7-0.3H32L31.7,25H32l1.5-0.3v0.6h-0.9l0.3,0.7v0.2c-1.2,0-1.8,0.7-1.8,2.1l0.6,0.3l-0.3,0.6c1,1.2,1.6,2.2,1.6,3.1h-0.7
		c0-0.6-0.4-1.3-1.2-2.1v-1.5h-0.7v-0.3l0.3-0.6h-0.3c-0.8,0.2-1.2,0.4-1.2,0.6c-0.4-0.2-0.8-0.2-1.2-0.2v-0.7l0.2-0.6h-0.2
		c-0.4,0-0.7,0.4-0.7,1.2h-0.2l-0.3-1.9h-0.3c-0.4,0-0.6,0.6-0.6,1.9h1.2l-0.7,1.2c0.3,0,1.4,0.9,3.4,2.8c0-0.2,0.1-0.3,0.3-0.3
		c0,0.4,0.9,1.3,2.7,2.7l-1.6,0.3c0-0.3-0.3-0.6-0.9-0.9h-0.6v0.6h-0.6v-1.5h0.6v0.6c0.4-0.1,0.6-0.2,0.6-0.6
		c-0.3,0-0.7-0.2-1.2-0.7c-0.1,0.4-0.3,0.7-0.7,0.7v-0.7h-0.6v0.9h-0.3l-0.9-0.6v0.6h0.6v0.3l-0.2,0.6c0.3,0,0.6,0.4,0.9,1.2
		l0.6-0.3H29c0,1.2,0.9,2,2.7,2.5c0,0.5,0.5,1,1.6,1.5h0.9c0,0.7,0.3,1,0.9,1l-0.3,1.5l0.9-0.6H36l0.6,0.2c0-1.1,0.4-1.9,1.2-2.4
		c0.8,0.3,1.2,0.6,1.2,0.9v0.3l-1.2-0.7l-0.9,1.6c0.6,0,0.9,0.2,0.9,0.6l-0.6,0.3l-1.9-0.3c0,0.4,1.4,1.6,4.3,3.6
		c0,0.2,0.1,0.5,0.3,0.9l0.6-0.2c2.3,1.6,3.4,2.7,3.4,3.1c-0.2,0.4-0.3,0.7-0.3,0.9c0.4,0,0.6,0.5,0.6,1.5l0.7-0.3l0.6,1
		c-0.4,0-0.6,0.2-0.6,0.6l0.9,0.6c0-0.6,0.2-0.9,0.6-0.9c0.4,0,0.7,0.2,0.7,0.7L46,53.9v0.3h0.2l1.6-0.9c0.3,0,0.6,0.3,0.9,0.9v0.3
		c-0.4-0.1-0.7-0.3-0.7-0.7c-0.4,0.2-0.7,0.3-0.9,0.3v0.9h0.3c0.4-0.2,0.7-0.3,0.9-0.3V56h-0.3l-0.6-0.2v0.6c0,0.3,0.3,0.6,0.9,0.9
		h0.3l0.9-0.6c0.9,0.4,1.4,0.8,1.5,1.2v0.3c-1.3-0.4-2-0.6-2.1-0.6v1.2h0.6v0.3c0,0.2-0.1,0.3-0.3,0.3c0.2,0.6,0.8,1.1,1.8,1.5
		c1-0.1,1.6-0.4,1.6-0.9h0.9l-0.6,0.9c0.3,0,0.7,0.4,1.2,1.2v0.3l-0.6,0.9c0.3,0,0.7,0.4,1.2,1.2h-0.3l-1.2-0.9h-0.6
		c0,0.3,0.7,0.9,2.1,1.8v-0.7h0.6c0,0.5,0.3,1,0.9,1.6c-0.4,0-0.6,0.2-0.6,0.6v0.7c0.6,0,0.9-0.3,0.9-0.9h0.6v0.9
		c0,1,0.3,1.7,0.9,1.8v-0.3l-0.2-0.6h0.9v0.2l-0.3,0.7h1.6v0.9L59.7,71l0.6,0.3H61V70h0.9v0.3L61,71.9c1.9,1.4,4,3.2,6.4,5.5
		c0-0.6,0.3-0.9,0.9-0.9v-0.3c-1.4,0-2.4-0.8-3.1-2.5c-0.5,0-0.9-0.8-1.2-2.4c-0.4,0-0.7-0.3-0.7-0.9l-0.6,0.3V70h0.6v-0.6
		c-0.6,0-0.9-0.3-0.9-0.9l-0.6,0.2h-0.3c0-0.2,0.4-0.5,1.2-0.9c-0.4-0.7-0.7-1.2-0.7-1.5c1.7,1.6,2.5,2.9,2.5,4l0.6-0.3l0.9,1.6
		l-0.2,1.8c2.2,1,3.3,2.4,3.3,4.2c0.2,0,0.3,0.2,0.3,0.7c-0.4,0-0.6,0.2-0.6,0.6v0.7l0.9-0.7H70v0.3l-0.2,0.6
		c1.1,0,2.3,4.3,3.6,12.8h-0.3l0.3,0.7c0,5.7-3.5,10.9-10.6,15.5l-0.7-0.3c0,0.7-1,1.1-3.1,1.2v-0.2l1-1.6h-0.7
		c0,0.8-0.6,1.7-1.8,2.5h-0.3v-0.7l-0.9,0.7c-0.3-0.2-0.7-0.3-1.2-0.3v0.6H54v-1.5l0.2-0.7h-0.6c-0.4,0-0.6,0.2-0.6,0.7
		c0,0.4,0.1,0.9,0.2,1.2c-0.2,0.3-0.2,0.7-0.2,1.2h-0.7v-1.8l0.3-0.6h-0.3c-0.4,0-0.6,0.2-0.6,0.6v1.8h-0.7v-1.8h-0.6v1.8
		c-0.4,0-0.9,0.1-1.2,0.3l-0.2-1.5c-1.3,1.2-2.1,1.8-2.5,1.8v-0.7H46c0,0.6-0.1,0.9-0.3,0.9c-0.7-0.4-1.2-0.6-1.6-0.6l-0.6,0.9
		c0.2,0,0.3,0.1,0.3,0.3H43l0.2,0.6l-0.6,0.9c0.2,0,0.3,0.1,0.3,0.3l-0.7,0.3l-0.2-0.7h0.2c-0.4-0.9-0.8-1.4-1.2-1.5h-1.2
		c0,0.6,0.5,0.9,1.5,0.9v1.2h-0.6c0-0.7-0.6-1.1-1.8-1.2v-0.3l-0.7,0.3c-0.4-0.2-0.7-0.3-0.9-0.3l-0.6,0.9c0.2,0,0.3,0.1,0.3,0.3
		l0.6-0.3h0.3c0.4,0,0.6,0.2,0.6,0.7l0.6-0.3h0.3v0.6l-1.5,0.3c-0.2,0-0.3-0.1-0.3-0.3l-2.1,0.3h-2.1c-2.6,0-4-0.6-4-1.8h-0.2
		c-0.3,0-0.7,0.3-1,0.9v0.6c1,0,2,0.6,2.8,1.9l0.6,0.2c0.3-0.8,0.6-1.2,0.9-1.2c0.4,0,0.7,0.2,0.7,0.7V118.5z M3.4,32.3v-1.5H3.1
		L2.7,32L3.4,32.3z M11.3,17.7v-0.6h-0.7c-1.2,1.2-2,1.8-2.4,1.8v0.6h0.2C10,18.3,10.9,17.7,11.3,17.7z M12.5,60.3
		c-0.5-0.4-0.9-0.6-1.2-0.6c0-0.3,0.3-0.7,0.9-1l0.2,0.7V60.3z M18,65.2c-1.5-1.4-2.7-2.1-3.4-2.1c-1.6-1.5-2.4-2.3-2.4-2.4l0.6-0.3
		c0.5,0.6,1.4,1,2.5,1.2c0,0.2,0.3,0.7,0.9,1.5l0.6-0.3h0.3c0,0.8,0.5,1.2,1.5,1.2v0.7C18.5,65,18.3,65.2,18,65.2z M14,14h-0.3
		c-0.4-0.1-0.6-0.3-0.6-0.7h0.2C13.8,13.4,14,13.6,14,14z M18.6,95v-1.2c-1.2,0-1.8-0.4-1.8-1.2l-0.6,0.3h-0.7v-0.6h0.7l-0.3-0.7
		L15.3,92h-0.3v-1.2h-0.3v0.7H14v-0.7h-0.7C15,92.7,16.7,94.1,18.6,95z M15.3,59.4h-0.3c-0.6-0.2-0.9-0.8-0.9-1.8h0.3
		c0.3,0,0.6,0.3,0.9,0.9h-0.3l0.3,0.6V59.4z M16.4,11.2h-0.6v-0.6l1.5-0.3C17.3,10.6,17,10.9,16.4,11.2z M16.4,16.4v-0.3
		c-0.1-0.4-0.2-0.6-0.6-0.6v0.9H16.4z M16.7,13.7c0-0.5,0.8-1.2,2.5-1.8v0.6c0.9-0.6,1.5-0.9,1.8-0.9h0.9c0-0.4,0.2-0.6,0.6-0.6
		c0.4,0.2,0.8,0.2,1.2,0.2l-0.3-0.6l0.9-0.6h0.3v0.6h0.7V8.8h-0.7l-5.2,3.1h-0.2c0-0.4-0.1-0.7-0.3-0.7c-1.4,1-2.3,1.6-2.7,1.6v0.3
		C16.2,13.5,16.4,13.7,16.7,13.7z M18,92.6c0-0.2,0.1-0.5,0.3-0.9H18L17.3,92l-0.6-0.3h-0.3V92C16.8,92,17.3,92.2,18,92.6z M18,9.7
		c0-0.3,0.3-0.6,0.9-0.9h0.3v0.6L18,9.7z M19.8,95v-1.6h-0.9l0.3,0.7l-0.3,0.6C19.1,94.7,19.4,94.8,19.8,95z M25,98.1
		c-0.3-0.4-1.7-1.3-4.3-2.7V95h-0.6v0.6l-0.7-0.2h-0.2v0.2l2.7,1.2c0-0.2,0.1-0.3,0.3-0.3C22.3,97.2,23.2,97.7,25,98.1z M20.1,112.1
		v-0.3c-0.1-0.4-0.3-0.6-0.7-0.6l-0.2,0.6l0.6,0.3H20.1z M19.5,9.7V9.4c0-0.3,0.3-0.6,0.9-0.9v0.3C20.4,9.1,20.1,9.4,19.5,9.7z
		 M21.4,65.8c-1.3-0.1-1.9-0.4-1.9-0.9h1.2c0.4,0,0.7,0.2,0.7,0.7V65.8z M21.4,94.7c0-0.3,0.2-0.7,0.6-1.2v-0.2l-1.2-0.3v1.8H21.4z
		 M22.3,114.3v-0.3c-0.1-0.4-0.3-0.6-0.7-0.6H21c0.2,0.4,0.3,0.7,0.3,0.9H22.3z M22.3,22.9l-0.7-0.3v0.9
		C22.1,23.4,22.3,23.2,22.3,22.9z M24.3,95v-0.3c-0.3,0-0.7-0.2-1.2-0.6V95H24.3z M24.3,114.3v-0.7h-0.2c-0.4,0-0.7,0.2-0.7,0.7
		H24.3z M25,95.4V95c-0.4,0-0.7,0.2-0.7,0.6V96C24.8,95.9,25,95.7,25,95.4z M26.2,25.6V25h-0.7v-0.3l0.3-0.7l-1.2-0.2
		c0.6,1.2,0.9,2,0.9,2.4C26,26.1,26.2,25.9,26.2,25.6z M26.8,96.3V96c-0.4,0-0.9-0.1-1.2-0.3h-0.2V96c0.2,0,0.5,0.1,0.9,0.3H26.8z
		 M26.5,115.8c0-0.3-0.3-0.6-0.9-0.9l-0.2,0.6l0.6,0.3H26.5z M27.1,10.1l-0.3-0.7V9.2h0.3c0.5,0,1.2,0.2,1.8,0.6
		c0-0.4,0.6-0.7,1.8-0.9V8.5h-0.9L29,9.2h-0.3c-0.4-0.1-0.6-0.3-0.6-0.7c-1.4,0.3-2.3,0.8-2.5,1.6H27.1z M28.6,20v-0.6l-2.7,0.3v0.6
		h0.3C27.7,20.2,28.5,20,28.6,20z M29.5,26.2v-0.9L29,25.6h-0.3c0-0.4,0.2-0.6,0.7-0.6c-0.2-0.4-0.3-0.8-0.3-1.2h-0.3
		c-0.1,0.8-0.4,1.2-0.9,1.2c-0.2-0.3-0.3-1-0.3-1.9c-0.4,0.2-0.7,0.3-0.9,0.3V24h0.7v0.7l-0.7,0.9l0.9,0.6c0-0.6,0.2-0.9,0.7-0.9
		l1.2,0.9H29.5z M27.7,32l0.6-1c-0.3,0-0.7-0.3-1.2-0.9v0.3l0.6,0.9v0.3h-1.2V32H27.7z M27.4,114.3v-0.3c-0.1-0.4-0.2-0.6-0.6-0.6
		v0.9H27.4z M28.6,97.4v-0.9h-0.3c0,0.2-0.1,0.5-0.2,0.9H28.6z M29.5,27.7v-1.2h-0.9v0.6c0,0.4,0.2,0.7,0.7,0.7H29.5z M31.1,38.7V38
		c-0.8,0-1.6-0.4-2.5-1.2v0.2C29.6,38.2,30.4,38.7,31.1,38.7z M29.5,93.5h-0.9v-0.6h0.9V93.5z M30.4,92h-0.9
		c-0.4-0.1-0.6-0.2-0.6-0.6h1.5V92z M31.4,19.5v-0.3h-0.2l-0.7,0.3c-0.4-0.2-0.7-0.3-0.9-0.3l-0.2,0.7h0.6L31.4,19.5z M30.4,64.3
		l-0.6-0.3l-0.3,0.7v0.2h0.3C30.3,64.8,30.4,64.6,30.4,64.3z M30.2,4.9V4.5c0-0.4,0.2-0.6,0.6-0.6v0.2C30.7,4.6,30.5,4.9,30.2,4.9z
		 M33.3,41.4v-0.6c-0.4,0-0.9-0.2-1.6-0.7c-0.3,0.2-0.7,0.3-1.2,0.3v0.3H32C32,41.1,32.4,41.3,33.3,41.4z M31.4,65.8v-0.9h-0.9v0.3
		c0,0.4,0.2,0.6,0.7,0.6H31.4z M32,98.1v-0.7h-1.6c0,0.4,0.2,0.7,0.7,0.7H32z M31.7,25.9v-0.7c-0.2,0-0.5-0.1-0.9-0.2v1.2
		C31.2,26,31.5,25.9,31.7,25.9z M38.1,73.4l0.6-0.9c-0.4,0-0.9-0.5-1.5-1.6c-0.4,0.2-0.8,0.3-1,0.3V71c0.2-0.3,0.3-0.7,0.3-1.2l-4-3
		c-0.2-0.4-0.3-0.8-0.3-1h-0.6c0,0.6-0.2,1.2-0.6,1.9h0.2c0.2-0.6,0.4-0.9,0.7-0.9c0.3,0,0.8,0.5,1.5,1.5c1.2,0,2.2,1.2,3.1,3.6
		l1.6,0.7v0.2l-0.3,0.7H38.1z M36.2,93.5H36c-0.5-0.3-1.3-0.6-2.5-0.9c-0.3,0.2-0.7,0.3-1.2,0.3c-0.8-0.3-1.2-0.6-1.2-0.9v-0.3h0.6
		c0.2,0,0.3,0.1,0.3,0.3c0.2,0,0.2-0.1,0.2-0.3c1.4,0.4,2.7,0.7,3.7,0.7h1.2v0.2C37.2,92.9,36.9,93.2,36.2,93.5z M33.8,7.3V6.7h-0.3
		L31.4,7v0.2H33.8z M32,39.3v-0.3c-0.1-0.4-0.3-0.6-0.7-0.6v0.9H32z M32.6,12.1l0.3-0.6H32C32,11.9,32.2,12.1,32.6,12.1z M32.6,70.4
		v-0.9H32v0.9H32.6z M33.3,115.4l0.2-0.6c-0.5-0.4-0.9-0.6-1.2-0.6H32v0.2C32.3,114.5,32.7,114.8,33.3,115.4z M33.3,37.1h-1v-0.2
		c0-0.4,0.2-0.7,0.7-0.7l0.3,0.7V37.1z M37.5,28.1c-0.4,0-0.6-0.3-0.6-1h-0.3v0.7H36v-0.7c-0.8,0.4-1.2,0.8-1.2,1
		c-0.8-0.2-1.5-0.3-2.1-0.3v-0.3c0-0.4,0.3-0.6,0.9-0.6l-0.2-0.7v-0.2h0.6c0,0.6,0.2,0.9,0.6,0.9v-0.7h0.3v0.9h0.6
		c0-0.9,0.4-1.5,1.2-1.8h0.9l-0.2,1.6h0.6c0-0.6,0.2-0.9,0.6-0.9h0.3C38.7,27,38.3,27.7,37.5,28.1z M33.5,42h-0.2
		c-0.4,0-0.7,0.2-0.7,0.7h0.3C33.3,42.6,33.5,42.4,33.5,42z M33.8,98.4v-0.7h-1.2v0.7H33.8z M34.4,40.8c-0.2-0.4-0.2-0.7-0.2-0.9
		l-0.7,0.2h-0.2v-0.6h-0.3v0.6C33.6,40.6,34.1,40.8,34.4,40.8z M36.2,38.4V38l-0.6,0.3c-0.6-0.2-0.9-0.4-0.9-0.6L34.2,38
		c-0.4-0.1-0.7-0.2-0.7-0.6v-0.3l0.7-0.9c-0.3,0-0.6-0.3-0.9-0.9l0.9-0.6c0.3,1.8,1.2,2.7,2.7,2.7v0.3
		C36.8,38.2,36.6,38.4,36.2,38.4z M35.1,43.2c0-0.2,0.1-0.3,0.2-0.3c-0.2-0.4-0.2-0.7-0.2-0.9h-0.3c-0.4,0-0.6,0.2-0.6,0.7
		L35.1,43.2z M37.2,47.2v-0.3c-0.3,0-1-0.6-2.1-1.8h-0.3v0.7c1.2,0.4,1.8,1.1,1.8,2.1C37,47.7,37.2,47.5,37.2,47.2z M35.3,72.8v-0.9
		c-0.4,0-0.6,0.2-0.6,0.7L35.3,72.8z M35.3,84.4c-0.4-0.1-0.6-0.3-0.6-0.7v-0.2c0.4,0,0.6,0.2,0.6,0.6V84.4z M35.6,117.9
		c-0.4-0.2-0.7-0.3-0.9-0.3v-0.9h0.3c0.3,0,0.6,0.3,0.9,0.9C35.8,117.6,35.6,117.7,35.6,117.9z M36.2,39.3h-0.9v-0.6h0.9V39.3z
		 M43.2,49.9c-0.4-0.1-0.6-0.2-0.6-0.6l0.6-0.9h-0.6l-0.6,0.3v-0.3c0.2-0.4,0.2-0.7,0.2-0.9l-0.6-0.3h-0.3l-0.6,0.3
		c-1.6-1.8-3.2-2.7-4.6-2.7v-0.3c0-0.2,0.1-0.3,0.3-0.3c-0.2-0.4-0.3-0.7-0.3-0.9h-0.9v1.2c0.4,0,1.5,0.7,3.1,2.1
		c-0.2,0-0.2,0.1-0.2,0.2c1,0,2.5,1.2,4.5,3.7C43,50.5,43.2,50.3,43.2,49.9z M36.2,98.7v-0.6h-0.9v0.3
		C35.5,98.4,35.8,98.5,36.2,98.7z M36.6,75.6v-0.3c-0.1-0.4-0.2-0.6-0.6-0.6h-0.3v0.6C35.9,75.2,36.2,75.4,36.6,75.6z M36.6,118.8
		h-0.9v-0.6h0.9V118.8z M36.2,85.9L36,85.3l0.6-0.3l0.3,0.6L36.2,85.9z M37.2,83.7c-0.4-0.1-0.7-0.2-0.7-0.6v-0.6
		c0.4,0,0.7,0.2,0.7,0.6V83.7z M38.7,76.7v-0.2c-0.3,0-0.8-0.2-1.5-0.7h-0.3v0.3c0.4,0,0.6,0.2,0.6,0.6H38.7z M39,43.2h-0.3
		c-0.5-0.4-0.9-0.6-1.2-0.6V42h0.3C38.1,42,38.5,42.4,39,43.2z M39.6,50.8c0-0.6,0.3-0.9,0.9-0.9c0-0.2-0.7-0.8-2.1-1.8h-0.6v0.3
		l1.5,1.8L39,50.8H39.6z M38.4,89.9c-0.4-0.7-0.6-1.2-0.6-1.5c0.3,0,0.7,0.4,1.2,1.2L38.4,89.9z M39.3,92c0-0.8-0.4-1.2-1.2-1.2
		c0-0.4,0.2-0.6,0.6-0.6h0.9l0.3,1.5L39.3,92z M39.6,98.4c-0.2,0-0.3-0.1-0.3-0.3c-0.4,0.2-0.7,0.3-0.9,0.3V99H39
		C39.4,99,39.6,98.8,39.6,98.4z M39.6,21.9v-0.3h-0.9v0.6C39.1,22,39.4,21.9,39.6,21.9z M41.2,76.7v-0.6l-1.2-1.2h-0.3
		c0.1,0.6,0.5,1.1,1.2,1.6v0.2H41.2z M39.9,83.2l-0.3-0.6v-0.3h0.3c0.4,0,0.6,0.2,0.6,0.6L39.9,83.2z M40.8,93.8h-0.3
		c-0.3,0-0.6-0.4-0.9-1.2l0.9-0.6l0.7,0.3c0.2-0.4,0.2-0.7,0.2-0.9c0.4,0,0.7,0.2,0.7,0.6l0.6-0.3H43l-0.7,0.9
		c0.2,0.4,0.3,0.7,0.3,0.9h-0.6c0-0.6-0.2-0.9-0.7-0.9c-0.4,0.2-0.7,0.3-0.9,0.3l0.3,0.6V93.8z M41.2,98.7v-0.2
		c-0.1-0.4-0.3-0.7-0.7-0.7l-0.6,0.9H41.2z M41.2,0.6h-1V0h1V0.6z M41.4,24v-0.2c-0.2,0-0.5-0.1-0.9-0.3V24H41.4z M40.8,42.9h-0.3
		v-0.6h0.9C41.4,42.7,41.2,42.9,40.8,42.9z M41.7,50.6v-0.3h-0.3c-0.4,0.2-0.7,0.3-0.9,0.3v0.2h0.3C41.2,50.7,41.5,50.6,41.7,50.6z
		 M41.7,75.8v-0.2c-0.2-0.4-0.3-0.8-0.3-1.2c-0.4,0-0.6,0.2-0.6,0.6C40.8,75.2,41.1,75.5,41.7,75.8z M42.1,26.2v-0.9
		c-0.3,0-0.6,0.3-0.9,0.9H42.1z M42.3,78.9c0-0.2,0.1-0.2,0.3-0.2c-0.3-0.8-0.6-1.2-0.9-1.2h-0.3C41.7,78.4,42,78.9,42.3,78.9z
		 M43,112.7v-0.3h-1.6v0.3H43z M44.5,3.1h-0.3c-0.5,0-1.1-0.7-1.8-2.1c-0.2,0-0.2-0.1-0.2-0.3V0.2h0.2l2.1,2.5V3.1z M43,27.4v-1.2
		c-0.4,0-0.7,0.2-0.7,0.7C42.3,27.2,42.5,27.4,43,27.4z M42.7,52.1c0-0.2,0.1-0.5,0.3-0.9h-0.7v0.9H42.7z M43.2,80.1v-0.9h-0.6
		c0.2,0.4,0.3,0.7,0.3,0.9H43.2z M43.6,86.2c-0.3,0-0.6-0.3-0.9-0.9V85H43c0.4,0,0.6,0.2,0.6,0.6V86.2z M44.1,97.8h-1.5
		c0,0.4,0.2,0.7,0.6,0.7h0.3C43.9,98.3,44.1,98.1,44.1,97.8z M47.2,55.8v-0.3c-1.9-1.5-3-2.4-3.3-2.7c0.2-0.4,0.2-0.7,0.2-0.9
		c-0.6,0.2-0.9,0.8-0.9,1.8h0.3l0.6-0.3v1.2l0.7-0.3h0.3l1.8,1.6H47.2z M46,33.2h-0.3c-1.4-0.3-2.1-0.7-2.1-1.2h0.6
		c0.2,0,0.3,0.1,0.3,0.2l0.7-0.2h0.2C45.4,32.3,45.6,32.7,46,33.2z M45.7,51.2l-1.8-1.8V49h1.2c0,0.4,0.4,1,1.2,1.6
		C46.2,51,46,51.2,45.7,51.2z M44.1,114.5h-0.2V113c0.3,0.2,0.7,0.3,1.2,0.3v0.2C45.1,113.9,44.8,114.2,44.1,114.5z M45.1,91.7h-0.3
		c-0.4-0.1-0.7-0.2-0.7-0.6v-0.3h0.3c0.4,0,0.7,0.2,0.7,0.7V91.7z M45.4,56c-0.1-0.4-0.2-0.6-0.6-0.6h-0.3c0,0.4,0.2,0.6,0.7,0.6
		H45.4z M45.1,98.1l0.2-0.7c-0.1-0.4-0.2-0.6-0.6-0.6l-0.3,0.6C44.5,97.9,44.7,98.1,45.1,98.1z M45.7,46.9h-0.3
		c-0.4-0.1-0.6-0.2-0.6-0.6h0.9V46.9z M45.7,78.9v-0.2c-0.2,0-0.5-0.1-0.9-0.3v0.6H45.7z M46.6,87.1v-0.3c0-1.2-0.5-2.2-1.5-3.1v0.7
		c0.8,1,1.2,2,1.2,2.7H46.6z M45.7,2.4l-0.3-0.6L46,1.5l0.2,0.7L45.7,2.4z M46,35.3c-0.4-0.1-0.7-0.2-0.7-0.6c0-0.4,0.2-0.7,0.7-0.7
		l0.6,0.9L46,35.3z M46.9,57.3c-0.4-0.5-0.7-1-0.7-1.5c-0.4,0-0.6,0.2-0.6,0.6v0.3c0,0.4,0.2,0.6,0.6,0.6H46.9z M46.3,97.8l0.3-0.6
		v-0.3h-0.3c-0.4,0-0.6,0.2-0.6,0.6L46.3,97.8z M46.9,7.6V7c-0.2,0-0.5-0.1-0.9-0.3V7c0,0.4,0.2,0.6,0.6,0.6H46.9z M46.9,81.4V81
		c-0.2,0-0.5-0.1-0.9-0.3v0.7H46.9z M46,113.9v-0.3c0-0.2,0.1-0.2,0.2-0.2l-0.2-0.7c0-0.4,0.2-0.6,0.6-0.6l0.3,0.6v0.3
		C46.9,113.3,46.6,113.6,46,113.9z M47.2,4h-0.9V3.3h0.9V4z M47.2,34.1l-0.2-0.6l0.6-0.3c0,0.2,0.1,0.3,0.3,0.3
		c0-0.2,0.1-0.3,0.2-0.3l0.3,0.7C48,33.8,47.6,33.9,47.2,34.1z M47.9,52.7c-0.4-0.2-0.7-0.3-0.9-0.3v-0.6l1.5,0.2
		C48.4,52.5,48.2,52.7,47.9,52.7z M47.5,89.3c0-0.7,0.1-1.2,0.3-1.6h-0.7v1.6H47.5z M48.1,29.2v-1.2c-0.4,0-0.6,0.2-0.6,0.6v0.6
		H48.1z M48.8,58.7c-0.1-0.4-0.3-0.6-0.7-0.6h-0.2c0.2,0.4,0.2,0.8,0.2,1.2C48.5,59.4,48.8,59.1,48.8,58.7z M48.4,90.8l0.3-0.6
		l-0.7-0.3h-0.2v0.3C47.9,90.6,48,90.8,48.4,90.8z M49.7,35.6c0-0.6-0.1-0.9-0.3-0.9C49,34.9,48.7,35,48.4,35v-1.2
		c0.5,0.4,1.1,0.6,1.8,0.6V35C50.2,35.4,50,35.6,49.7,35.6z M50.2,5.8h-0.6c0-0.6-0.2-0.9-0.6-0.9V4.5H50l0.2,0.7V5.8z M50.2,30.4
		v-0.3c-0.3,0-0.7-0.2-1.2-0.6v0.3l0.9,0.6H50.2z M49.7,82.3v-0.3c-0.1-0.4-0.2-0.6-0.6-0.6v0.9H49.7z M50.9,4h-0.3
		C50.2,3.9,50,3.7,50,3.3h0.2C50.7,3.3,50.9,3.5,50.9,4z M50.6,85v-0.9c-0.4,0-0.6,0.2-0.6,0.6v0.9C50.4,85.5,50.6,85.3,50.6,85z
		 M51.2,30.8v-0.3h-0.2c-0.4,0-0.7,0.2-0.7,0.6v0.3h0.3C51,31.3,51.2,31.1,51.2,30.8z M52.1,62.7v-0.6c-0.5,0-1.1-0.3-1.8-0.9v0.3
		l1.6,1.2H52.1z M51.5,86.6v-0.3c-0.2-0.4-0.3-0.7-0.3-0.9h-0.2v0.2c0.2,0.4,0.2,0.8,0.2,1H51.5z M53.1,7.3c-0.3,0-0.9-0.6-1.6-1.8
		V5.2c0.3,0,0.8,0.5,1.6,1.5V7.3z M52.1,88.6v-1.2h-0.2v1.2H52.1z M53.3,5.2h-0.2c-0.4-0.1-0.7-0.3-0.7-0.7V4c0.3,0,0.6,0.3,0.9,0.9
		V5.2z M53.1,62.7c0-0.2,0.1-0.5,0.2-0.9h-0.9c0.2,0.4,0.3,0.7,0.3,0.9H53.1z M55.4,35v-0.2c-0.8-1.2-1.2-1.9-1.2-2.1h-0.9L55.4,35z
		 M54,105.4v-1h-0.3c0,0.2-0.1,0.6-0.3,1H54z M54,106.9v-0.3c-0.4,0-0.7,0.2-0.7,0.7v0.2C53.7,107.5,54,107.3,54,106.9z M56.4,6.4
		h-0.2c-0.4-0.2-0.8-0.2-1-0.2c0,0.2-0.1,0.2-0.2,0.2l-1.2-1.2l1.5-0.3l1.2,1.2V6.4z M57.9,63.9c-1,0-1.6-0.3-1.6-0.9l-1.5,0.3
		c0-0.2-0.1-0.3-0.3-0.3c0.2-1,0.6-1.5,1.2-1.5c0.4,0,0.8,0.5,1.2,1.5c0.6,0,0.9,0.2,0.9,0.7V63.9z M55.1,7.9l-0.2-0.7V7h0.2
		c0.4,0,0.7,0.2,0.7,0.6L55.1,7.9z M55.8,60.6h-0.9c0-0.4,0.2-0.7,0.6-0.7h0.3V60.6z M61.6,31.4c-0.2-1-2-2.6-5.2-4.5
		c-0.3,0.2-0.7,0.2-1.2,0.2v0.3h1c0-0.2,0.1-0.3,0.2-0.3C57.5,28.4,59.2,29.9,61.6,31.4z M68,19.1h-0.3c-1.1-2.4-3.3-5-6.7-7.9
		l-0.7,0.3c-1.4-1.5-2.8-2.3-4-2.4V8.8h0.3l-0.3-0.7V7.9h0.3c6.5,3.7,9.7,6.3,9.7,7.9h0.3v-0.3c-2.1-3.5-4-5.2-5.5-5.2
		c0-0.2-0.6-0.8-1.8-1.8c0.2,0,0.3-0.1,0.3-0.3c-0.6,0-1.5-0.4-2.7-1.2V6.4h0.2c6.1,3.5,9.7,6.8,10.7,9.7l-0.3,0.7l0.3,2.1V19.1z
		 M58.2,34.4v-0.3c-0.3,0-0.7-0.3-1.2-0.9h-0.3v0.7c0.3,0,0.7,0.2,1.2,0.6H58.2z M57,109.4l0.2-1.6v-0.3c-0.4,0-0.6,0.2-0.6,0.7v1.2
		H57z M61.6,40.2H61c-2.6-2-4-3.1-4-3.3c0-0.4,0.2-0.7,0.6-0.7c2.6,2.2,4,3.4,4,3.7V40.2z M60.6,23.1c0-0.3-0.9-1.1-2.7-2.4h-0.3V21
		c1.7,0.7,2.5,1.4,2.5,2.1H60.6z M60.6,66.4c-0.6-0.6-1.4-1-2.5-1.2l-0.2-0.6v-0.3c0-0.4,0.2-0.6,0.6-0.6h0.6c0,0.4,0.6,1,1.9,1.8
		v-0.7c0.4,0,0.6,0.2,0.6,0.7C61.6,65.8,61.2,66.1,60.6,66.4z M59.7,41.4h-0.3c-0.4-0.1-0.6-0.2-0.6-0.6h0.2
		C59.5,40.8,59.7,41,59.7,41.4z M61,36c-0.1-0.4-0.3-0.7-0.7-0.7c0,0.2-0.1,0.3-0.2,0.3V35h-0.7v1c0.4,0,0.7,0.1,0.7,0.2
		C60.5,36.1,60.8,36,61,36z M61,68.8h-0.7c-0.4-0.1-0.6-0.2-0.6-0.6h0.6C60.8,68.2,61,68.4,61,68.8z M61.2,67.9L61,67.3v-0.9
		c0.5,0.4,0.9,0.6,1.2,0.6C62.1,67.3,61.8,67.6,61.2,67.9z M61.9,69.5h-0.3c-0.4-0.1-0.6-0.3-0.6-0.7h0.2
		C61.7,68.8,61.9,69,61.9,69.5z M62.1,19.1v-0.2c-0.1-0.4-0.2-0.7-0.6-0.7l-0.3,1.6h0.3C61.9,19.7,62.1,19.5,62.1,19.1z M64.6,36.2
		h-0.3c-1.8-1.3-2.7-2.1-2.7-2.4v-0.3C62.5,34,63.6,34.9,64.6,36.2z M62.8,41.1h-0.3c-0.4-0.1-0.6-0.2-0.6-0.6v-0.3h0.2
		c0.4,0,0.7,0.2,0.7,0.7V41.1z M64.6,28.1v-0.7c-0.4,0-0.6-0.2-0.6-0.6h-0.7C63.4,27.1,63.8,27.6,64.6,28.1z M64.3,30.4
		c-0.2-0.4-0.2-0.7-0.2-0.9h-0.7v0.3c0,0.4,0.2,0.6,0.7,0.6H64.3z M67.3,26.8v-0.3l-0.9-0.6v0.2L67.3,26.8z M70.7,94.1l0.2-1.6
		l-0.6-3.6h0.3l-0.3-0.6V88c0-0.2,0.1-0.3,0.3-0.3l-0.9-1.5l0.2-1.8c-0.3,0-0.8-1.1-1.5-3.4l-2.1-1.5v0.6c0.8,0,1.2,0.7,1.2,2.1H67
		c0.4,0.5,0.8,1.3,1.2,2.4l-0.6,1.2c0.8,0,1.2,0.4,1.2,1.2c-0.3,0-0.6,0.3-0.9,0.9v0.3l0.9-0.7h0.2v1.6h-0.6v0.6h1.2l-0.3,1.6
		l0.3,1.2c-0.2,0-0.3,0.1-0.3,0.3c0.6,0,0.9,0.4,0.9,1.2H70.7z M70.4,96l0.3-1.2L70,94.5V96H70.4z"/>
	<path d="M80.9,67.1h-0.6v-0.9h0.6V67.1z M81.3,56.4h-0.6v-1.2h0.6V56.4z M84.7,49.4c-0.6,0.5-0.9,1.3-0.9,2.4
		c-0.8,0-1.6,0.6-2.5,1.8h-0.3c0-1.4,0.5-2.1,1.6-2.1c0.9-1.7,1.5-2.5,1.8-2.5h0.3V49.4z M83.1,47.9l-0.2,0.7l-0.7-0.3
		c0.2-0.4,0.3-0.7,0.3-0.9h0.6V47.9z M84.3,43.6c-0.4,0.4-0.6,1.1-0.6,2.1h-0.7v-0.6c0-1,0.3-1.6,0.9-1.8h0.3V43.6z M84.7,41.5H84
		l0.3-1.2h0.6L84.7,41.5z M84.9,46.6l-0.2,0.7c-0.4,0-0.7-0.2-0.7-0.7V46c0-0.3,0.2-0.5,0.7-0.6h0.2V46.6z M86.1,36.9
		c0,0.3-0.4,0.6-1.2,0.9h-0.2c0.3-0.8,0.6-1.2,0.9-1.2h0.6V36.9z M85.8,71.9v0.2c-0.4-0.2-0.7-0.2-0.9-0.2V71h0.7
		C85.6,71.3,85.6,71.6,85.8,71.9z M132.1,5.3c0.8,0,1.2,0.2,1.2,0.6h0.3l1.2-0.9v0.3c1.6,0.8,2.4,1.4,2.4,1.8c0.3,0,0.5-0.2,0.6-0.7
		V6.2h-0.6V5.5c1.8,0.3,2.7,0.8,2.7,1.6h0.3l0.6-0.3c0,0.2,0.1,0.3,0.3,0.3l-0.3,0.6c-0.3,0-1.1-0.2-2.4-0.6h-0.3v0.2
		c2,0.4,3.1,0.9,3.1,1.6c0.3,0,0.5-0.2,0.6-0.6h-0.6V8h1.2v0.6c0.2,0,0.2-0.1,0.2-0.2c0.4,0,0.7,0.4,0.7,1.2h0.9V9.2L144,8.6h0.3
		c1.8,1.1,2.7,1.8,2.7,2.1h-1.2v0.6c0.4,0,0.9,0.3,1.6,0.9h0.2l-0.2-0.6v-0.6h0.2c0.7,1,1.4,1.5,2.1,1.5c2,2.4,3.1,3.6,3.4,3.6h0.3
		v-0.6c-0.6,0-1.7-1.4-3.4-4.3v-0.2c0.2,0,0.3,0.1,0.3,0.2l0.6-0.2l1.8,2.4c0.4,1.3,1.8,3.2,4,5.5v0.2l-0.2,0.7l-0.7-0.3h-0.3
		c1.7,3.7,3,6.1,4,7.3v-0.7l0.7,0.3l-0.3,1.5c0.6,1,0.9,1.8,0.9,2.1l0.7-0.2h0.2c0,0.4-0.1,0.8-0.2,1.2l0.9,1.6
		c-0.6,0-0.9,0.2-0.9,0.6v0.3c1.2,1.9,1.8,3.7,1.8,5.4h0.2v-0.9l-0.9-4.3c0.2,0,0.3,0.1,0.3,0.3c0.2,0,0.3-0.1,0.3-0.3l0.6,0.3
		c0,0.2-0.1,0.5-0.3,0.9c1,1.8,1.6,3.2,1.6,4.3v0.6h0.6v0.3c0,0.4-0.2,0.6-0.6,0.6c-0.4,0-0.7-0.8-0.7-2.4h-0.2
		c0,0.8-0.2,1.2-0.7,1.2v0.2c0.8,0.7,1.2,1.8,1.2,3.4l0.7-0.3c0,0.4-0.2,1-0.7,1.8v0.7h0.3c0-0.8,0.3-1.2,0.9-1.2l0.3,0.6v0.3
		c-0.4,0-0.9,0.5-1.2,1.5v1h0.6v0.6l-0.6,0.9v0.6l0.6-0.2l0.7,0.2c0-0.8,0.2-1.2,0.6-1.2l-0.3,2.1l-0.6-0.2h-0.3v0.2
		c0,0.4,0.2,0.7,0.7,0.7l-0.9,1.5v1.6h0.6v1.8c0.5,0,0.8,0.5,0.9,1.5c-0.3,1.2-0.6,2-0.9,2.5v0.3c0.6,0,0.9,0.2,0.9,0.6l-0.6,0.9
		c0,0.4,0.2,0.6,0.6,0.6l-1.2,2.8H165v-0.7h-0.3c0,0.2-0.1,0.5-0.3,0.9v0.3h0.3l0.7-0.3v0.3l0.6-0.3l0.6,0.3l-0.9,1.5h0.3
		c-0.5,1.8-1.2,2.8-1.8,2.8v0.2c0.8,0,1.2,0.2,1.2,0.7c0,0.4-0.2,0.6-0.7,0.6c0,0.2,0.1,0.3,0.3,0.3c-0.7,3.2-1.4,4.9-2.1,4.9
		c0,0.4,0.1,0.9,0.3,1.2c0,0.4-0.2,0.6-0.7,0.6c0,0.2,0.1,0.5,0.3,0.9c0,0.2-0.3,0.4-0.9,0.6l0.3,0.7V81c0,0.4-0.3,0.7-0.9,0.7
		c0.4,0.7,0.6,1.3,0.6,1.8v0.9c-0.4,0-0.9,0.1-1.2,0.3c0,0.2,0.1,0.5,0.3,0.9c-0.6,1.8-1.1,2.7-1.6,2.7c0,0.2,0.1,0.5,0.3,0.9
		c-0.7,1.7-1.3,2.5-1.8,2.5v0.6c0,1.5-0.3,2.3-0.9,2.4c-0.5,1.5-1,2.7-1.6,3.7l1,0.6h0.2c0-0.7,0.9-2.3,2.7-4.9
		c0-0.2-0.1-0.5-0.2-0.9l1.2-1.5c-0.2,0-0.2-0.1-0.2-0.3l1.8-2.7v-0.3l-0.6,0.3h-0.3l0.3-1.2h0.2l0.7,0.3c0-0.4,0.2-0.6,0.6-0.7h0.3
		v0.7l-1.8,3.3c-1.2,4.3-3.2,8.2-6.1,11.6v0.3l1.8-1.5c1.2-2.5,2.2-3.7,3.1-3.7c0-0.2-0.1-0.2-0.3-0.2c0.8-3.2,1.7-4.9,2.7-4.9
		l-0.6-0.9h0.6c1-2.5,1.6-3.7,1.8-3.7h0.3v0.3c0,1.1-0.4,1.8-1.2,2.1c0,0.4,0.1,0.9,0.3,1.2l-2.1,3.3c-0.8,2.4-1.4,3.6-1.8,3.6
		c0,1.3-1.5,3.1-4.5,5.5c-1,2.6-3.8,5.3-8.3,8.3h-0.9c1.2-1,1.8-1.6,1.8-1.9c2.6-1.4,4.4-3,5.5-4.9c-1.6,1.7-2.6,2.5-3.1,2.5l-5.5,4
		l-0.6-0.3c0.2-0.4,0.3-0.7,0.3-0.9c2.2-0.9,3.3-1.7,3.3-2.4c0.2,0,0.3,0.1,0.3,0.2c2.1-1.2,3.3-2.3,3.6-3.3v-0.3h-0.3
		c-2.3,1.6-3.7,2.4-4.2,2.4c-0.7,1.3-2.3,2.2-4.6,2.8c0,0.2,0.1,0.2,0.3,0.2l-0.3,0.7l-1.5-0.7v0.3c-1.8,0.6-3.3,1.4-4.5,2.5h-1.6
		v0.6h-0.6v-0.6h-0.3c-1,0.8-1.8,1.2-2.4,1.2v-0.6c-1,0.8-1.7,1.2-1.9,1.2l-0.6-0.3c0,0.2-0.1,0.3-0.3,0.3c-0.4,0-0.6-0.3-0.6-0.9
		l-1.2,0.9h-1.5l0.3-0.7c-0.8,0-1.2-0.2-1.2-0.6h-0.7l-0.9,0.6l-0.6-0.2c0,0.6-0.2,0.9-0.6,0.9h-0.7l0.7-0.9v-0.3
		c-0.2,0-0.6,0.1-1,0.3c-0.2,0-0.2-0.2-0.2-0.7h-0.3l-1.2,0.9v-0.2c-1.6-0.9-2.4-1.5-2.4-1.8c-0.4,0-0.7,0.2-0.7,0.6v0.3h0.7v0.6
		c-0.8,0-1.8-0.5-3.1-1.5l-0.6,0.2c0-0.2-0.1-0.2-0.3-0.2l0.3-0.7c0.3,0,1.1,0.2,2.4,0.7h0.3v-0.3c-2-0.4-3.1-0.9-3.1-1.6h-0.7v0.7
		h0.7v0.2h-1.2v-0.6c-0.2,0-0.3,0.1-0.3,0.3c-0.4,0-0.6-0.4-0.6-1.2h-0.9v0.3l0.3,0.6h-0.3l-2.7-1.8c0-0.2,0.1-0.3,0.2-0.3l-0.2-0.6
		l0.2-0.7c-0.2,0-0.2-0.1-0.2-0.2c-0.4,0-0.7,0.3-0.7,0.9h-0.6l0.3-0.7v-0.2c0-0.3-0.2-0.5-0.7-0.7c-0.6,0.3-0.9,0.6-0.9,0.9
		c-1-0.6-1.5-1.3-1.5-2.1h-0.7v0.6h-0.2c-0.9-1.2-1.7-1.8-2.1-1.8v0.3l1.8,2.7v0.2c-0.2,0-0.3-0.1-0.3-0.2l-0.6,0.2l-1.8-2.4
		c-0.4-1.3-1.8-3.1-4-5.4V99h0.6v0.7h0.3c0-0.2,0.1-0.5,0.3-1c0-0.1-1.3-2.4-4-6.9v0.6L91.9,92l0.3-1.5c-0.6-1-0.9-1.8-0.9-2.1
		l-0.7,0.3h-0.2c0-0.5,0.1-0.9,0.2-1.2l-0.9-1.6c0.6,0,0.9-0.2,0.9-0.6V85c-1.2-1.9-1.8-3.7-1.8-5.4h-0.2v0.9l0.9,4.3
		c-0.2,0-0.3-0.1-0.3-0.3c-0.2,0-0.3,0.1-0.3,0.3l-0.6-0.3c0-0.2,0.1-0.5,0.3-0.9c-1-1.8-1.6-3.2-1.6-4.3v-0.6h-0.6v-0.3
		c0-0.3,0.2-0.5,0.6-0.6c0.4,0,0.7,0.8,0.7,2.4H88c0-0.8,0.2-1.2,0.7-1.2v-0.3c-0.8-0.7-1.2-1.8-1.2-3.4l-0.7,0.3
		c0-0.4,0.2-1,0.7-1.8v-0.7H87c0,0.8-0.3,1.2-0.9,1.2l-0.3-0.6v-0.3c0.4,0,0.9-0.5,1.2-1.5V71h-0.6v-0.7l0.6-0.9v-0.6l-0.6,0.3
		l-0.7-0.3c0,0.8-0.2,1.2-0.6,1.2l0.3-2.1l0.6,0.2h0.3V68c0-0.3-0.2-0.5-0.7-0.7l0.9-1.5v-1.6h-0.6v-1.8c-0.5,0-0.8-0.5-0.9-1.5
		c0.3-1.2,0.6-2,0.9-2.5v-0.2c-0.6,0-0.9-0.2-0.9-0.7l0.6-0.9c0-0.3-0.2-0.5-0.6-0.6l1.2-2.7H87V54h0.3c0-0.2,0.1-0.5,0.3-0.9v-0.3
		h-0.3l-0.7,0.3v-0.3l-0.6,0.3l-0.6-0.3l0.9-1.5h-0.3c0.5-1.8,1.2-2.7,1.8-2.7v-0.3c-0.8,0-1.2-0.2-1.2-0.6s0.2-0.6,0.7-0.7
		c0-0.2-0.1-0.3-0.3-0.3c0.7-3.2,1.4-4.9,2.1-4.9c0-0.4-0.1-0.8-0.3-1.2c0-0.4,0.2-0.6,0.7-0.7c0-0.2-0.1-0.5-0.3-0.9
		c0-0.2,0.3-0.4,0.9-0.6l-0.3-0.7v-0.2c0-0.4,0.3-0.7,0.9-0.7c-0.4-0.7-0.6-1.3-0.6-1.8v-0.9c0.4,0,0.9-0.1,1.2-0.3
		c0-0.2-0.1-0.5-0.3-0.9c0.5-1.7,1.1-2.6,1.6-2.7c0-0.2-0.1-0.5-0.3-0.9c0.7-1.6,1.3-2.4,1.8-2.4v-0.7c1.2-4.1,3-7.6,5.4-10.6h-0.2
		c-1.2,0.8-1.8,1.4-1.8,1.8c-0.4,0.1-2,2.4-4.9,7c0,0.2,0.1,0.5,0.2,0.9l-1.2,1.6c0.2,0,0.2,0.1,0.2,0.2L90.1,30v0.2l0.6-0.2H91
		l-0.3,1.2h-0.2l-0.7-0.2c0,0.4-0.2,0.6-0.6,0.6h-0.3v-0.6c0.6-0.8,1.5-2.8,2.8-6.1c1.3-4,3.3-7.2,6-9.5V15c-0.2,0-0.9,0.5-2.1,1.5
		c-1.8,2.9-3,4.3-3.7,4.3c0,0.2,0.1,0.3,0.3,0.3c-0.8,3.2-1.7,4.9-2.7,4.9l0.6,0.9h-0.6c-1,2.4-1.6,3.6-1.8,3.6h-0.3v-0.3
		c0-1.1,0.4-1.8,1.2-2.1c0-0.4-0.1-0.8-0.3-1.2l2.1-3.4c0.8-2.4,1.4-3.6,1.8-3.6c0-1.3,1.7-3.3,5.2-6.1c0.4,0,0.8,0.1,1.2,0.3
		l1.2-0.7c1-1.7,3.5-3.8,7.3-6.4h0.6v0.6c-0.8,0-1.3,0.4-1.5,1.2c-2.1,1.2-3.9,2.6-5.2,4.3h0.3c1.2-1.3,2-1.9,2.4-1.9l5.5-4l0.6,0.3
		c-0.2,0.4-0.3,0.7-0.3,0.9c-2.2,0.9-3.3,1.8-3.3,2.5c-0.2,0-0.3-0.1-0.3-0.3c-0.7,0-1.2,0.7-1.5,2.1h0.2c2.5-1.8,4.7-3,6.7-3.6
		c0-0.2-0.1-0.3-0.2-0.3l0.2-0.6l1.6,0.6V8.6c1.8-0.6,3.3-1.4,4.5-2.4h1.6V5.5h0.2c0.4,0,0.6,0.2,0.7,0.7c1-0.8,1.8-1.2,2.4-1.2v0.6
		c1-0.8,1.6-1.2,1.8-1.2l0.7,0.2c0-0.2,0.1-0.2,0.2-0.2c0.4,0,0.7,0.3,0.7,0.9l1.2-0.9h1.5L128.1,5c0.8,0,1.2,0.2,1.2,0.6h0.6l1-0.6
		l0.6,0.3c0-0.6,0.2-0.9,0.6-0.9h0.7L132.1,5.3z M87,41.2c-0.8,0.5-1.2,1.1-1.2,1.8h-0.2c0-0.2-0.1-0.5-0.3-0.9
		c0.5-0.8,0.9-1.2,1.2-1.2H87V41.2z M86.5,81l-0.3,0.7l-0.6-0.3l0.2-0.6L86.5,81z M87.7,31.8L87,32.7v0.6l0.3,0.6l-0.9,0.7l0.2,0.6
		c0,0.4-0.2,0.7-0.6,0.7l-0.3-2.1c0.7-1.4,1.2-2.1,1.6-2.1h0.3V31.8z M89.2,36.3L86.5,39h-0.3c0.5-1.3,1.6-2.4,3.1-3.3V36.3z
		 M87,82.9l-0.3,0.6c-0.4,0-0.6-0.2-0.6-0.6v-0.3h0.3L87,82.9z M86.7,56.1V57h0.7v-0.3C87.4,56.4,87.2,56.2,86.7,56.1z M88,66.2
		c0,0.2-0.1,0.5-0.2,0.9c0.2,1.8,0.2,2.8,0.2,3.1h0.3c0-0.7,0.1-1.2,0.3-1.6h-0.3l0.3-1.5c-0.2-0.4-0.3-0.7-0.3-0.9H88z M89.2,32.9
		v0.3c0,0.4-0.2,0.6-0.6,0.6H88v-0.6l0.7-0.9C88.9,32.3,89.1,32.5,89.2,32.9z M88,46.6v1h0.3c0-0.7,0.2-1,0.6-1L88.6,46
		C88.2,46,88,46.2,88,46.6z M88.3,59.4v1.2h0.3v-1.2H88.3z M89.5,90.8v0.2h-0.3c-0.4,0-0.6-0.2-0.6-0.6v-0.3h0.2
		C89.2,90.2,89.5,90.4,89.5,90.8z M89.5,71.3c0,0.8,0.1,1.5,0.2,2.1h0.7c-0.2-1.4-0.3-2.2-0.3-2.4L89.5,71.3z M90.1,74.1l0.3,0.6
		c0,0.4-0.2,0.6-0.7,0.6c0.2,1.1,0.3,2.1,0.3,3.1c0.2,0,0.3-0.1,0.3-0.2c0.4,0,0.6,0.3,0.6,0.9h0.3v-2.1l-0.7,0.2h-0.2v-0.9
		c0-0.5,0.2-1.2,0.6-1.8l-0.3-0.6L90.1,74.1z M91,90.8h-0.6c0-0.4-0.2-0.9-0.7-1.6c0-0.3,0.2-0.5,0.7-0.6L91,90.8z M90.4,93.2v0.6
		h-0.7v-1.2C90.2,92.7,90.4,92.8,90.4,93.2z M91.3,79.5l-0.7-0.3c0,0.2-0.2,0.3-0.6,0.3v1.2l1.8,4.5c0.2,1,0.7,2.4,1.6,4h0.2v-0.3
		c0-0.4-0.3-1.2-0.9-2.4c0.2-1.1,0.3-1.7,0.3-1.8c-0.6,0-1-0.4-1.2-1.2v-0.3h0.7v0.7h0.2v-0.3c-0.2-0.3-0.2-0.8-0.2-1.5
		c-0.2,0-0.3,0.1-0.3,0.2c-0.6-0.2-0.9-0.8-0.9-1.8h0.6v-1.2L91.3,79.5z M91.9,90.5v0.6c-0.3,0-0.6-0.4-0.9-1.2v-0.2h0.7
		C91.7,89.8,91.7,90.1,91.9,90.5z M92.8,93.6v0.2l-0.2,0.7c-0.3,0-0.7-0.8-1.2-2.5v-0.2C91.6,91.7,92.1,92.4,92.8,93.6z M92.6,88.9
		v0.3l1.8,4.5h0.2v-0.2c0-1.5-0.6-3-1.8-4.6H92.6z M92.8,68v1.2h0.7V68H92.8z M92.8,71.9c0,0.4,0.2,0.6,0.7,0.6h0.2
		c-0.2-0.4-0.2-0.7-0.2-0.9L92.8,71.9z M94.4,77.4v0.9h0.2c0-0.2,0.1-0.5,0.3-0.9v-0.3L94.4,77.4z M98.9,102.1h-0.3v0.6
		c0.3,0,0.9,0.3,1.9,0.9C99.7,102.6,99.2,102.1,98.9,102.1z M101.1,69.2v1.5l0.3,1.2c-0.3,0.4-0.6,0.6-0.9,0.6v0.9l0.6-0.3l0.6,0.3
		c0-0.4-0.1-0.9-0.2-1.2l0.2-0.6c-0.2-0.8-0.2-1.6-0.2-2.4H101.1z M100.7,58.5c0,0.4,0.2,0.7,0.7,0.7v-0.9L100.7,58.5z M101.4,74.7
		v0.6l0.2,1.8c-0.2,0.4-0.2,0.8-0.2,1c0.2,0.4,0.2,0.7,0.2,0.9h0.7v-1.9l0.2-0.6c-0.4,0-0.6-0.8-0.6-2.4
		C101.6,74.1,101.4,74.3,101.4,74.7z M102.6,80.8c0,0.4,0.2,0.6,0.7,0.6c0,0.2-0.1,0.5-0.3,0.9v0.3h0.3l0.6-0.3l-0.6-1.8L102.6,80.8
		z M102.9,79v1.2h0.3V79H102.9z M104.1,108.2l-0.3,0.6c-0.6-0.3-0.9-0.6-0.9-0.9v-0.3h0.3L104.1,108.2z M103.2,61v0.3h0.2
		c0-0.3,0.2-0.7,0.7-1.2v-0.7C103.7,59.4,103.4,59.9,103.2,61z M103.2,73.4c0,0.1,0.1,0.5,0.2,1.2h0.3v-1.2H103.2z M103.5,57.3v1.5
		h0.7l-0.3-1.5H103.5z M103.5,70.1v1.5h0.3v-1.5H103.5z M103.5,78.6V79c0,0.4,0.2,0.6,0.7,0.6v-0.3
		C104.1,78.9,103.9,78.7,103.5,78.6z M103.8,80.8c0.2,0.4,0.3,0.7,0.3,0.9h0.3v-1.2L103.8,80.8z M134.6,21.4c0,0.1,0.2,0.9,0.6,2.5
		c-0.8-0.7-1.2-1.4-1.2-2.1h-0.2c-0.5,0.4-1,0.6-1.6,0.6v0.3l1.8,0.3v0.9c-0.2,0-0.5-0.1-0.9-0.3h-0.6c0.2,0.4,0.3,0.7,0.3,0.9h0.6
		l0.9-0.6c0,0.2-0.1,0.5-0.3,0.9l0.3,0.6v0.3h-0.6V25h-0.3v0.7h-0.6c0-0.6-0.4-1.1-1.2-1.6c0-0.2,0.1-0.2,0.3-0.2
		c0-0.2-0.1-0.3-0.3-0.3c0-0.2,0.1-0.5,0.3-0.9v-0.3l-0.7,0.3h-0.2l-1-0.6l-0.2,1.8H129v-0.7h-0.6v0.7c0.4,0,0.6,0.4,0.6,1.2h0.7
		l-0.3-0.6c0-0.3,0.2-0.5,0.6-0.6v0.9c0.4,0,0.7-0.3,0.7-0.9c0.4,0.2,0.7,0.2,0.9,0.2l-0.3,0.7l0.7,0.9h-0.3l-0.6-0.3
		c0,0.2-0.3,0.4-1,0.7l-1.5-0.7c0,0.2-0.1,0.3-0.3,0.3V25h-0.6v1h-0.3c-0.8-0.5-1.2-0.9-1.2-1.2v-0.7h0.2l0.9,0.7
		c0-0.8,0.2-1.2,0.7-1.2v-0.6c0-0.4-0.2-0.6-0.7-0.7v0.9h-0.9l-0.6-0.2l-0.3,0.6c-0.2,0-0.3-0.1-0.3-0.3l-1.8,1.6l0.3,0.6
		c0,0.4-0.2,0.7-0.6,0.7l-0.7-0.3l-1.5,3.1c0.2,0,0.2,0.1,0.2,0.2v1c0,0.4-0.6,0.7-1.8,0.9c-0.4,0-0.6-0.2-0.6-0.7v-0.6l1.5-1.2
		v-0.6l-1.5,0.6c-0.5,1.2-0.9,1.8-1.2,1.8v0.7c0.2,0,0.3-0.1,0.3-0.3c1.2,0.4,1.8,0.8,1.8,1.2c0.3,0,0.5-0.2,0.6-0.7l0.7,0.3
		c0.3,0,0.5-0.2,0.6-0.6c1.4,0.2,2.1,0.5,2.1,0.9c0,0.4-0.3,0.6-0.9,0.6v0.3l0.3,0.6l0.6-0.3h0.3v0.3c-1.6,1.1-2.5,1.8-2.5,2.1h-0.6
		c0-0.2-0.1-0.5-0.3-0.9h0.3c0-1-0.3-1.7-0.9-1.8c-1.4,0.8-2.3,1.7-2.8,2.7V36l1.2-0.6l-0.2-0.6v-0.7h0.6v0.7c0.2,0,0.3-0.1,0.3-0.3
		c0.2,0,0.6,0.8,1.2,2.4v0.3c-0.5,0-1.2,0.3-2.1,0.9c-0.7-0.7-1-1.3-1-1.8h-0.2v2.1l0.2,0.6l1-0.6v0.3l-0.7,0.9l-1.5-1.2h-0.3
		c0,0.2-0.1,0.5-0.3,0.9h0.3l-0.3,1.5l0.3,1.2c-0.4,0-0.6,0.2-0.6,0.6l-1.2-0.6l-0.6,0.3c0,0.2,0.1,0.2,0.2,0.2l-0.2,1.6v0.6h0.6
		v0.7c-0.2,0-0.5-0.1-0.9-0.3c-0.4,0-0.7,0.2-0.7,0.6v0.9h0.3V46h0.7v0.6l-0.7,1l0.3,0.6c-0.2,0-0.3,0.1-0.3,0.3
		c-0.4,0-0.6-0.2-0.6-0.7v-0.2l0.2-0.7h-0.9c0,0.8-0.2,1.2-0.6,1.2l1.2,1.5c-1,0-1.6,0.2-1.6,0.7h-0.6v-0.7h-0.3V50
		c0.4,0.7,0.7,1.2,0.7,1.6c0.8-0.5,1.2-0.9,1.2-1.2c0.4,0,0.6,0.2,0.7,0.6c0,0.4-0.2,0.7-0.7,0.7l-1.5,1.2v0.3
		c0,0.4,0.2,0.6,0.6,0.6c-0.4,0.5-0.6,0.9-0.6,1.2h-0.6c0-0.5-0.7-1-2.1-1.5v0.2l0.9,1.2c0.2,0,0.2-0.1,0.2-0.3
		c0.3,0,0.8,0.6,1.6,1.9l-0.6,0.9l0.6,0.9v0.2h-0.6l-1.9-0.9c0,0.4-0.2,0.7-0.6,0.7l0.3,2.1V61h-0.3l-0.6-0.3c0,0.2-0.1,0.5-0.3,0.9
		c0.3,0,0.5,0.2,0.6,0.7c0.8,0,1.2-0.5,1.2-1.6l0.9,0.7h0.3v-1.2c-0.6,0-0.9-0.2-0.9-0.7l0.2-0.6c0.8,0,1.6,0.7,2.5,2.1v0.6h-0.3
		l-0.6-0.2c0,0.4-0.3,0.6-0.9,0.6v0.3h0.6v0.9c0,0.1,0.2,0.9,0.7,2.4c0,0.2-0.1,0.5-0.3,0.9l0.3,0.7c-0.2,0.3-0.3,0.7-0.3,1.2h-0.6
		l-0.3-1.5l-0.7,0.3h-0.6v-0.7c0.8,0,1.2-0.2,1.2-0.6v-0.3c-0.7,0-1.2-0.1-1.6-0.2c-0.3,0.2-0.8,0.2-1.5,0.2v0.7l0.6,0.9V68h-0.6
		v0.6c0.2,0,0.5,0.1,0.9,0.3v-0.7h0.3l0.6,0.3c0-0.3,0.2-0.5,0.6-0.6v1.8l0.7-0.3h0.3c0,0.4,0.3,0.9,0.9,1.6c-0.6,0-1.2-0.2-1.9-0.7
		v0.3l-0.6-0.3c0-0.2,0.1-0.2,0.3-0.2c0-0.4-0.2-0.6-0.7-0.7c0,0.5-0.1,0.9-0.2,1.2c0.4,0.5,0.6,0.9,0.6,1.2h0.6v-0.7h0.3
		c1,0.6,1.5,1,1.6,1.2v0.3h-0.7c-0.4,0-0.6-0.2-0.6-0.7l-0.9,0.7c-0.3,0-0.8-0.6-1.6-1.8v-0.7l0.7-0.9v-0.2l-0.7,0.2l-0.6-0.2v1.2
		l0.3,0.7c-0.2,0-0.3,0.1-0.3,0.2l-0.6-0.2v1.2c0.6,0,0.9,0.1,0.9,0.3c0,0.3,0.5,0.7,1.5,1.2v0.6c-0.6-0.3-0.9-0.6-0.9-0.9
		c-0.2,0-0.3,0.1-0.3,0.3c-0.4,0-1-0.2-1.8-0.7c0,1.4-0.1,2.3-0.2,2.5h0.6c0-0.7,0.1-1.2,0.3-1.5c1,0.4,1.6,0.9,1.8,1.5v0.3
		c-1.4,0-2.1,0.7-2.1,2.1l1.2,0.9v-1.2l-0.3-0.7l0.6-0.2c1.9,0.8,2.8,2.1,2.8,4h-0.7c-0.1-1.7-0.5-2.6-1.2-2.7l-0.6,0.2l0.3,0.7v0.2
		l-1.6,0.3v0.9c0.3,0,0.7,0.2,1.2,0.6v-1.5h0.6c0,0.6,0.3,0.9,0.9,0.9v0.9c-0.8,0.6-1.4,0.9-1.8,0.9v0.3h1.2c0.1,0,0.6-0.5,1.6-1.6
		h0.9c0.3,0,0.5,0.2,0.6,0.7h-0.9v0.9l0.9,1.2v0.2l-0.6,0.9h0.9c0.4,0,0.6-0.5,0.6-1.5h0.3c0.8,0.4,1.2,1.1,1.2,2.1h0.2
		c0-0.6,0.5-0.9,1.6-0.9c0,0.8,1.6,1.6,4.9,2.4l-0.3,0.7c0.5,0.8,1,1.8,1.2,3.1l-0.9,0.6c0-0.2-0.1-0.5-0.3-0.9
		c0.2,0,0.3-0.1,0.3-0.3c0-1.5-1.5-2.9-4.6-4v0.3l-2.1-0.7v1.6l0.9-0.6v0.9h0.6c0.3,0,0.5-0.2,0.6-0.7c0.4,0,0.7,0.3,0.7,0.9h0.2
		l0.7-0.2v0.6l-0.3,0.6l-1.5-0.6v0.3l-1.8-0.9c-0.4,0.2-0.8,0.2-1,0.2v0.3h1.2v0.6H113v0.3h0.3c0.3-0.2,0.7-0.3,1.2-0.3v0.3
		l-0.2,0.6h0.2l-0.2,0.7l-0.9-0.7c-0.7,0.3-1,0.7-1,1c1.9,0.3,2.8,0.7,2.8,1.2c0.2,0,0.5-0.1,0.9-0.2c0.2,0,0.5,0.1,0.9,0.2
		l-0.3,0.7h1.6c0.3,0,0.5-0.2,0.6-0.7c0.2,0,0.3,0.1,0.3,0.3l0.9-0.6V92c0,0.4-0.2,0.7-0.7,0.7v0.2c1.1,0.4,2.2,1.3,3.4,2.5
		c0,0.2-0.1,0.3-0.3,0.3l0.3,0.6v0.3l-0.6-0.3h-0.3l0.3,0.6h-0.3l-1.6-0.2v1.2h0.3l1.8-0.9v0.3l0.7-0.3h0.2l0.9,0.7l0.3-1.8h0.6v0.6
		h0.7v-0.6c-0.4,0-0.7-0.4-0.7-1.2h-0.6V95c-0.2,0-0.3-0.1-0.3-0.3c-0.4,0-0.6,0.3-0.6,1c-0.4-0.2-0.7-0.3-0.9-0.3l0.3-0.7l-0.7-0.9
		h0.3l0.6,0.3c0-0.2,0.3-0.4,0.9-0.6l1.6,0.6l0.9-0.9c1,0.5,1.5,1.3,1.5,2.1h0.7l-0.3-0.7v-0.6h0.3c1.2-2,1.9-3.1,2.1-3.1
		c0-0.2-0.1-0.5-0.3-0.9c1.1-1,1.7-1.8,1.8-2.4c0.6,0.3,0.9,0.6,0.9,0.9v0.2h-0.6v0.7c0.7-0.6,1.3-0.9,1.8-0.9l-0.3-1.6l-0.9,0.7
		c-0.4,0-0.6-0.4-0.6-1.2c-0.6,0.3-0.9,0.6-0.9,0.9l-0.7-0.3c-0.4,0-0.6,0.2-0.6,0.7c-1.4-0.2-2.1-0.5-2.1-0.9
		c0-0.4,0.3-0.7,0.9-0.7v-0.3l-0.3-0.6l-0.6,0.3h-0.3v-0.3c1.7-1.1,2.5-1.8,2.5-2.1h0.6c0,0.2,0.1,0.5,0.3,0.9h-0.3
		c0,1,0.3,1.7,0.9,1.8c1.4-0.8,2.3-1.7,2.8-2.7v-0.6l-1.2,0.6l0.2,0.7v0.6h-0.6v-0.6c-0.2,0-0.3,0.1-0.3,0.2c-0.2,0-0.6-0.8-1.2-2.4
		v-0.3c0.5,0,1.2-0.3,2.1-0.9c0.7,0.7,1,1.3,1,1.8h0.2v-2.1l-0.2-0.6l-1,0.6v-0.2l0.7-0.9l1.5,1.2h0.3c0-0.2,0.1-0.5,0.3-0.9h-0.3
		l0.3-1.5l-0.3-1.2c0.3,0,0.5-0.2,0.6-0.6l1.2,0.6l0.6-0.3c0-0.2-0.1-0.2-0.2-0.2l0.2-1.6v-0.6h-0.6v-0.7c0.2,0,0.5,0.1,0.9,0.3
		c0.3,0,0.5-0.2,0.7-0.6v-0.9h-0.3v0.6h-0.7v-0.6l0.7-0.9l-0.3-0.7c0.2,0,0.3-0.1,0.3-0.2c0.3,0,0.5,0.2,0.6,0.6V71l-0.2,0.6h0.9
		c0-0.8,0.2-1.2,0.6-1.2l-1.2-1.5c1,0,1.6-0.2,1.6-0.7h0.6v0.7h0.3v-0.3c-0.4-0.7-0.7-1.2-0.7-1.5c-0.8,0.5-1.2,0.9-1.2,1.2
		c-0.4,0-0.7-0.2-0.7-0.6c0-0.4,0.3-0.6,0.9-0.6c0.3-0.8,0.7-1.2,1.2-1.2v-0.3c0-0.3-0.2-0.5-0.6-0.6c0.4-0.5,0.6-0.9,0.6-1.2h0.6
		c0,0.5,0.7,1,2.1,1.6v-0.3l-0.9-1.2c-0.2,0-0.2,0.1-0.2,0.3c-0.3,0-0.8-0.6-1.6-1.8l0.6-0.9l-0.6-0.9v-0.3h0.6l1.9,0.9
		c0-0.4,0.2-0.6,0.6-0.6l-0.3-2.1v-0.7h0.3l0.6,0.3c0-0.2,0.1-0.5,0.3-0.9c-0.4,0-0.6-0.2-0.6-0.6c-0.8,0-1.2,0.5-1.2,1.5l-0.9-0.6
		h-0.3v1.2c0.6,0,0.9,0.2,0.9,0.7l-0.2,0.6c-0.8,0-1.7-0.7-2.5-2.1V57h0.3l0.6,0.3c0-0.4,0.3-0.7,0.9-0.7v-0.2h-0.6v-1l-0.7-2.4
		c0-0.2,0.1-0.5,0.3-0.9l-0.3-0.6c0.2-0.4,0.3-0.8,0.3-1.2h0.6l0.3,1.5l0.7-0.2h0.6v0.6c-0.8,0-1.2,0.2-1.2,0.6v0.3
		c0.7,0,1.2,0.1,1.6,0.3c0.3-0.2,0.8-0.3,1.5-0.3v-0.6l-0.6-0.9v-1h0.6V50c-0.2,0-0.5-0.1-0.9-0.3v0.7h-0.3l-0.6-0.3
		c0,0.4-0.2,0.6-0.6,0.6v-1.8l-0.7,0.3h-0.3c0-0.3-0.3-0.8-0.9-1.5c0.5,0,1.2,0.2,1.9,0.6v-0.3l0.6,0.3c0,0.2-0.1,0.3-0.3,0.3
		c0,0.4,0.2,0.6,0.7,0.6c0-0.4,0.1-0.9,0.2-1.2c-0.4-0.5-0.6-0.9-0.6-1.2h-0.6v0.7h-0.3c-1-0.5-1.5-1-1.6-1.2v-0.3h0.7
		c0.3,0,0.5,0.2,0.6,0.7l0.9-0.7c0.3,0,0.8,0.6,1.6,1.9v0.6l-0.7,0.9v0.3l0.7-0.3l0.6,0.3v-1.2l-0.3-0.6c0.2,0,0.3-0.1,0.3-0.3
		l0.6,0.3v-1.2c-0.6,0-0.9-0.1-0.9-0.3c0-0.3-0.5-0.7-1.5-1.2v-0.6c0.6,0.3,0.9,0.6,0.9,0.9c0.2,0,0.3-0.1,0.3-0.3
		c0.4,0,1,0.2,1.8,0.7c0-1.4,0.1-2.3,0.2-2.5H147c0,0.7-0.1,1.2-0.3,1.6c-1-0.4-1.7-1-1.8-1.6v-0.3c1.4,0,2.1-0.7,2.1-2.1l-1.2-0.9
		v1.2l0.3,0.7l-0.6,0.2c-1.9-0.8-2.8-2.1-2.8-4h0.7c0,1.4,0.4,2.4,1.2,2.8l0.6-0.3l-0.3-0.6v-0.3l1.6-0.3c0-0.1-0.2-1.2-0.7-3.3
		c0-0.4,0.2-0.6,0.7-0.7c0.5,0,0.9,1,1.2,3.1l0.7-0.3l-0.3-0.6v-0.6h0.7c0,0.7,0.1,1.2,0.2,1.5l0.7-0.3c0-0.3-0.2-0.5-0.7-0.6
		c0-0.2,0.1-0.5,0.3-0.9c-0.3-0.6-0.6-0.9-0.9-0.9l-0.7,0.3c0-1.1-0.1-2-0.2-2.8c0.2,0,0.2-0.1,0.2-0.2c-0.6-0.3-0.9-0.6-0.9-0.9
		c-0.3,0-0.6,0.4-0.9,1.2c0.2,0,0.4,0.3,0.7,0.9c-0.4,0.6-0.7,1.1-0.7,1.6l-1.2-0.9c0,0.2,0.1,0.5,0.2,0.9v0.3
		c-0.4,0-1.2,0.6-2.1,1.8h-0.9c-0.4,0-0.6-0.2-0.6-0.7h0.9V36l-0.9-1.5l0.3-0.7c0.4,0,0.7,0.7,0.9,2.1h0.2c0-0.3,0.4-0.7,1.2-1.2
		v-0.3h-1.2c-0.6-1.2-1.1-1.8-1.5-1.8v0.2c-0.8-0.5-1.2-0.9-1.2-1.2v-0.7c0.3,0,0.5,0.2,0.7,0.7c2.2,0.8,3.3,1.6,3.3,2.4
		c0.4-0.2,0.7-0.3,0.9-0.3l-0.9-2.1c0.3,0,0.5-0.2,0.7-0.7l0.9,0.7l-0.3-1.2c-0.2,0-0.3,0.1-0.3,0.3c-0.4,0-0.6-0.3-0.6-0.9h-0.9
		v0.6h0.6v0.6h-0.6c-0.4,0-0.7-0.2-0.7-0.6v-0.3l0.3-0.6c-0.2,0-0.3-0.1-0.3-0.3c0.4-0.8,0.8-1.2,1.2-1.2c0-0.3-0.2-0.5-0.6-0.6v0.6
		c-0.5,0-1.6-0.8-3.4-2.4h-0.6c0,0.2,0.4,1.1,1.2,2.7l-0.3,0.6c0.3,0.7,0.6,1,0.9,1c0-0.7,0.2-1,0.6-1h0.3v1h-0.6l0.6,0.9
		c0,0.4-0.2,0.6-0.6,0.6h-0.9c0-0.2,0.1-0.5,0.2-0.9c-0.9-0.5-1.4-1-1.5-1.6l-0.7,0.3c-0.4,0-0.6-0.2-0.6-0.6v-0.3l0.6,0.3
		c0.4,0,0.6-0.2,0.7-0.7c0-0.3-0.2-0.5-0.7-0.6h-0.2l-0.7,0.3l-0.9-1.6h0.3l0.6,0.3c-0.4-1.3-0.6-2.1-0.6-2.5H137
		c0,0.5-0.1,0.9-0.2,1.2l-0.7-0.3c0,0.7-0.2,1-0.6,1h-0.3c0-0.8-0.2-1.2-0.6-1.2v-0.7c0.6,0,0.9-0.2,0.9-0.6l0.6,0.3v-0.3
		c-0.6-0.6-0.9-1.3-0.9-2.1H134.6z M104.5,78.3v0.3c0.2,0.3,0.2,0.7,0.2,1.2h0.3v-0.7c-0.2-0.4-0.3-0.7-0.3-0.9H104.5z M105.6,42.4
		c0,0.2-0.1,0.5-0.2,0.9v0.3h0.2c0-0.2,0.1-0.5,0.3-1v-0.2H105.6z M106.3,62.8v2.1h0.2v-1.2h0.3l0.6,0.3c0,0.4,0.7,0.9,2.1,1.5
		l-0.2-1.2c-1-0.4-1.6-0.9-1.6-1.5H106.3z M106.8,40.8v0.3h0.6v-0.9C107,40.3,106.8,40.5,106.8,40.8z M110.5,74.7
		c0,0.4-0.2,0.6-0.6,0.6h-0.6v-0.6h-0.7c0,0.4-0.2,1-0.6,1.8c-0.4,0-0.7-0.2-0.7-0.6l0.3-0.7c-0.2,0-0.3-0.1-0.3-0.2v-0.3
		c0.6,0,0.9-0.4,0.9-1.2h0.3C108.7,74.1,109.3,74.6,110.5,74.7z M108.3,55.4h-0.2c0,0.2-0.1,0.6-0.3,1V57c0.5-0.4,1-0.6,1.6-0.6
		C109,55.8,108.7,55.4,108.3,55.4z M108.1,108.2h-0.3v0.6h0.9C108.7,108.4,108.5,108.2,108.1,108.2z M108.3,7.1h-0.2V6.8
		c0-0.3,0.2-0.5,0.6-0.6h0.7C109,6.8,108.7,7.1,108.3,7.1z M108.1,83.5v0.3h1.2v-0.3H108.1z M108.3,52.1v0.3c0,0.4,0.2,0.6,0.7,0.6
		h0.6v-0.9H108.3z M109.6,77.1h-1.2l0.3-1.8C109.2,75.2,109.5,75.9,109.6,77.1z M112.3,5v0.6c-0.3,0-1.2,0.2-2.7,0.7
		c0-0.1,0.5-0.6,1.6-1.6C111.9,4.8,112.2,5,112.3,5z M111.1,7.7h-0.3l-0.6-0.3c0-0.3,0.2-0.5,0.6-0.6h0.3V7.7z M110.5,107.8h-0.2
		c0,0.4,1.7,1.5,5.1,3.4c0.4,0,0.6-0.2,0.7-0.7v-0.9c-0.2,0-0.5,0.1-0.9,0.3c-1.4-0.5-2.1-0.9-2.1-1.2H112L110.5,107.8z M112.6,79
		l-0.3,0.6c-1.2,0-1.8-0.7-1.8-2.1v-0.3C111.2,78.2,112,78.9,112.6,79z M110.8,44.2v1.2l0.6-0.3v-1.2L110.8,44.2z M112,85.6h-0.9
		v0.2c0.7,0,1.2,0.1,1.5,0.3h0.3v-0.3C112.7,85.9,112.4,85.8,112,85.6z M112.3,82h-0.9v-1.6h0.7L112.3,82z M111.7,43v0.3
		c0.5-0.8,1-1.2,1.2-1.2v-1.2C112.6,40.8,112.2,41.6,111.7,43z M113.5,4.4c0,0.4-0.2,0.6-0.6,0.6h-0.3V4.6c0-0.3,0.2-0.5,0.7-0.6
		h0.2V4.4z M113.3,39.4l-0.7,0.3c0.3,0.8,0.6,1.2,0.9,1.2h0.3l-0.3-1.5H113.3z M113.9,56.7V57c-0.2,0-0.5,0.1-0.9,0.3
		c0-0.2-0.1-0.3-0.3-0.3l0.7-0.9C113.6,56.1,113.8,56.3,113.9,56.7z M113.5,60.1h-0.2c-0.4,0-0.7-0.2-0.7-0.7v-0.6h0.7
		C113.3,59.3,113.4,59.7,113.5,60.1z M114.2,5.5c-0.3,0.6-0.6,0.9-0.9,0.9H113c0.5-0.8,0.9-1.2,1.2-1.2V5.5z M113.5,36v0.9h0.3
		c0.3,0,0.5-0.2,0.6-0.6V36H113.5z M114.8,43.3c0,0.4-0.2,0.6-0.6,0.6c-0.4,0-0.7-0.2-0.7-0.6c0.2,0,0.5-0.1,0.9-0.3
		C114.4,43.2,114.5,43.3,114.8,43.3z M114.4,54.9h-0.6v-0.3c0-0.3,0.2-0.5,0.6-0.6V54.9z M114.8,82.6l-0.3,0.6l-0.6-0.2l0.3-0.7
		L114.8,82.6z M114.2,37.8v1.6h0.2c0-0.2,0.1-0.5,0.3-0.9c-0.2,0-0.3-0.2-0.3-0.7H114.2z M115.3,49.1l0.3,0.6
		c-0.4,0.5-0.6,0.9-0.6,1.2h-0.9v-0.3c0-0.3,0.2-0.5,0.6-0.6l-0.3-1.5v-0.3h1.2C115.7,48.4,115.6,48.7,115.3,49.1z M116,5.3
		c0,0.4-0.2,0.6-0.7,0.6V4.6h0.7V5.3z M117.2,32.7c0,0.6-0.6,1.2-1.8,1.8v1.2h0.3c0-0.7,0.6-1.4,1.8-2.1v-0.9H117.2z M116.6,45.7
		h-0.3l-0.6-0.2c0.2-0.4,0.3-0.7,0.3-0.9h0.6V45.7z M116.9,94.5H116v0.2c0.2,0,0.5,0.1,0.9,0.3h0.6
		C117.5,94.7,117.3,94.5,116.9,94.5z M118.4,2.5l-1.5,1.2c-0.4,0-0.7-0.2-0.7-0.6c0.3,0,0.9-0.3,1.9-0.9
		C118.2,2.4,118.2,2.5,118.4,2.5z M116.3,110l0.7,1.2c0.5,0,1.3-0.1,2.4-0.3l1.6,0.9v-0.3c0-0.2-0.6-0.6-1.8-1.2l-0.9,0.6h-0.7V110
		H116.3z M118.2,41.7c-0.8-0.3-1.2-0.6-1.2-0.9h1.2V41.7z M118.2,47.3v0.3l-0.7,0.9l-0.6-0.3c0-0.4,0.2-0.9,0.6-1.6
		C117.8,46.6,118,46.8,118.2,47.3z M118.4,4h-0.6c0-0.3,0.2-0.5,0.6-0.7h0.7C119.1,3.8,118.8,4,118.4,4z M117.8,100.8v0.7h1.2v-0.7
		H117.8z M118.4,35.7l-0.2,1.5h0.2l0.7-0.3c-0.2-0.7-0.3-1.1-0.3-1.2H118.4z M119.1,97.2c0,0.6-0.3,0.9-0.9,0.9v0.3h1.8
		C119.6,97.6,119.3,97.2,119.1,97.2z M119.3,95.4c-0.3,0-0.6,0.4-0.9,1.2c0.2,0,0.5,0.1,0.9,0.2c0-0.2-0.1-0.5-0.2-0.9
		c0-0.2,0.2-0.2,0.6-0.2v-0.3H119.3z M120,1.9l-0.3,0.6l-0.6-0.2l0.2-0.7L120,1.9z M119.1,27.1v0.3h1.2v-0.6L119.1,27.1z
		 M120.9,35.7c0,0.4-0.2,0.6-0.7,0.6H120V36c0-0.3,0.2-0.5,0.6-0.6h0.3V35.7z M123,1.3h-0.3c-1,1.4-1.8,2.1-2.1,2.1h-0.3l0.3-0.6
		c0.4,0,1-0.7,1.8-2.1h0.7V1.3z M120.9,32.3l0.2,1.5h0.3v-0.2l-0.3-0.7l0.3-0.6V32L120.9,32.3z M120.9,95V96h0.9
		c-0.2-0.4-0.3-0.7-0.3-0.9H120.9z M122.4,40.3c0,0.4-0.2,0.6-0.6,0.6h-0.3v-0.2l0.3-0.7L122.4,40.3z M122.7,112.7l-0.6-0.2
		l-0.3,0.6h2.1l-0.3-0.6C123.4,112.5,123.1,112.5,122.7,112.7z M123.6,29v0.7c-0.2,0-0.5,0.1-0.9,0.3h-0.3v-0.7l0.3-0.6
		C123.1,28.9,123.4,29,123.6,29z M124.2,27.8h-0.6v-0.7c0.3-0.6,0.6-0.9,0.9-0.9h0.3C124.4,26.9,124.2,27.4,124.2,27.8z M125.7,25.3
		h-0.3l-0.6-0.3c0,0.2-0.1,0.3-0.3,0.3h-0.3c0.4-0.7,0.7-1.2,0.7-1.5h0.6L125.7,25.3z M125.1,20.1v0.3c0.2,0,0.5,0.1,1,0.3v-0.7
		H125.1z M127.2,19.9c-0.6,0-0.9,0.2-0.9,0.6l1.2-0.3v-0.2H127.2z M127,94.7c0,0.8-0.2,1.2-0.7,1.2v0.7c0,0.4,0.2,0.6,0.7,0.6
		c0-0.8,0.4-1.2,1.2-1.2C127.6,95.1,127.3,94.7,127,94.7z M127.6,99c-0.4,0.2-0.7,0.3-0.9,0.3v0.3h0.3c0.4-0.2,0.7-0.3,0.9-0.3V99
		H127.6z M127.6,92.3h-0.3l0.3-0.6l-0.3-0.7l0.7-0.2h0.6C128.3,91.8,128,92.3,127.6,92.3z M128.1,98.7v0.7h0.9V99
		C128.8,99,128.5,98.9,128.1,98.7z M129.9,93.8c0,0.6-0.2,1.1-0.6,1.6V96c0.6-0.3,0.9-0.6,0.9-0.9c0.4,0,0.7,0.3,0.7,0.9h0.2V95
		h-0.6c0-0.2,0.1-0.3,0.3-0.3C130.6,94.1,130.3,93.8,129.9,93.8z M130.6,78.1l-0.3,0.6l-0.6-0.3c0-0.3,0.2-0.5,0.6-0.6h0.3V78.1z
		 M131.5,6.2c0,0.2-0.4,0.2-1.2,0.2l0.3,0.7c0.2,0,0.5-0.1,0.9-0.3l0.6,0.3l0.3-0.7C132.2,6.4,131.9,6.4,131.5,6.2z M130.6,84.7V85
		l0.3,0.7l-0.3,0.6v0.3l0.6-0.3l-0.2-1.5H130.6z M131.8,90.2v1.6c-0.8,0.9-1.2,1.5-1.2,1.8v0.2l0.6-0.2l0.7,0.2
		c0.2-0.7,0.5-1.6,1.2-2.7v-1.2L131.8,90.2z M132.1,82.6c0,0.4-0.2,0.6-0.6,0.6h-0.3v-0.2c0-0.4,0.2-0.6,0.7-0.7h0.2V82.6z
		 M131.8,118.8h-0.7v-0.6h0.3c1-1.4,1.8-2.1,2.1-2.1h0.2C133.3,116.7,132.6,117.7,131.8,118.8z M133.7,81.4l-0.7,0.3l0.3,1.2h0.3
		l0.2-1.6H133.7z M133.3,7.7V8c0,0.3,0.6,0.7,1.8,1.2l0.9-0.7h0.7v0.9h0.6c0-0.2,0.1-0.5,0.3-0.9c-0.2,0-0.3-0.1-0.3-0.2
		c-0.5,0-1.3,0.1-2.4,0.2L133.3,7.7z M135.1,70.4c0,0.4-0.2,0.9-0.6,1.6c-0.4,0-0.7-0.2-0.7-0.7V71l0.7-0.9L135.1,70.4z M135.1,77.7
		h-1.2v-0.9C134.7,77.1,135.1,77.4,135.1,77.7z M135.1,117.3l-0.2,0.6l-0.7-0.3l0.3-0.6L135.1,117.3z M136.7,82.3
		c0,0.8-0.7,1.7-2.1,2.7v0.9h0.3c0-0.5,0.6-1.2,1.8-1.8v-0.9l0.2-0.6v-0.3H136.7z M135.8,116.1h-0.7c0-0.3,0.2-0.5,0.7-0.7h0.6
		C136.4,115.9,136.2,116.1,135.8,116.1z M136.4,73.1c-0.2,0.4-0.3,0.8-0.3,1h-0.6v-1.2h0.3L136.4,73.1z M137.9,116.3
		c-0.3,0-0.9,0.3-1.8,1c0-0.2-0.1-0.3-0.2-0.3l1.5-1.2C137.6,115.8,137.8,116,137.9,116.3z M136.4,31.1h-0.3v-0.6
		c0.2,0,0.5-0.1,0.9-0.3h0.3C137,30.8,136.7,31.1,136.4,31.1z M137.3,18.3h-0.9v0.9c0.3-0.2,0.8-0.2,1.5-0.2
		C137.9,18.6,137.7,18.4,137.3,18.3z M136.4,22.6v0.9h0.6c-0.2-0.4-0.2-0.7-0.2-0.9H136.4z M137.9,68c0,0.4-0.2,0.6-0.6,0.6l0.3,1.6
		v0.2h-1.2c0-0.2,0.1-0.5,0.3-0.9l-0.3-0.6c0.4-0.5,0.6-0.9,0.6-1.2h0.9V68z M137,21.7v0.6l2.1,0.7c0.3,0,0.5-0.2,0.7-0.7
		c-0.2,0-0.5-0.1-1-0.2l-1.2,0.2v-0.6H137z M138.8,24.1c0-0.6-0.5-0.9-1.5-0.9v0.3c0,0.4,0.8,0.9,2.5,1.2c0-0.2,0.1-0.5,0.2-0.9
		v-0.7L138.8,24.1z M138.2,32.9c-0.4-0.2-0.7-0.2-0.9-0.2v-0.3h0.9V32.9z M138.2,35.7l-0.3,0.6l-0.6-0.3l0.3-0.6L138.2,35.7z
		 M138.5,75.2c-0.2,0-0.5,0.1-0.9,0.3c0-0.2-0.1-0.3-0.3-0.3c0-0.3,0.2-0.5,0.6-0.6C138.3,74.7,138.5,74.9,138.5,75.2z M137.6,79.2
		c0,0.2-0.1,0.5-0.3,0.9c0.2,0,0.3,0.2,0.3,0.7h0.2v-1.6H137.6z M138.2,64c0,0.4-0.2,0.6-0.6,0.6v-0.9h0.6V64z M138.2,81.7
		c-0.4,0-0.6,0.2-0.6,0.6v0.3h0.9v-0.9H138.2z M137.9,8.6c0.2,0.4,0.3,0.7,0.3,0.9h0.9c0.7,0.6,1.4,1,2.1,1.2h0.9l0.6,0.3
		c0-0.2-0.3-0.5-0.9-0.9c-1.8-1-2.7-1.6-2.7-1.8L137.9,8.6z M139.4,61.6l-0.7,0.9c-0.4,0-0.6-0.2-0.6-0.6v-0.3
		c0.2,0,0.5-0.1,0.9-0.2C139.1,61.5,139.2,61.6,139.4,61.6z M138.5,77.7h-0.3l0.3,1.5h0.2l0.7-0.2C139.1,78.1,138.8,77.7,138.5,77.7
		z M138.8,114.9h-0.6v-0.6c0-0.4,0.2-0.6,0.6-0.7V114.9z M138.5,25v0.3c0,0.4,0.2,0.7,0.6,0.7v-1H138.5z M139.4,59.2v0.6h-0.7
		c0-0.4-0.1-0.9-0.2-1.2h0.2C139.2,58.5,139.4,58.7,139.4,59.2z M140,33.8v0.7h-0.2c-0.4,0-0.7-0.2-0.7-0.7v-0.2
		C139.5,33.7,139.8,33.8,140,33.8z M139.1,76.5v1.2c0.3,0,0.7-0.7,1.2-2.1v-0.3C139.8,76.1,139.4,76.5,139.1,76.5z M141.6,41.2v0.3
		c-0.8-1.2-1.5-1.8-2.1-1.8l0.3-0.7C141,39,141.6,39.7,141.6,41.2z M140.7,38.1H140l-0.2-1.5h0.9V38.1z M140,114.3v-0.3
		c0.3-0.6,0.6-0.9,0.9-0.9h0.3C140.8,113.9,140.3,114.3,140,114.3z M140.7,20.8v1.5l0.6-0.2l-0.3-1.2H140.7z M140.7,24.8v0.9h0.6
		c-0.2-0.4-0.3-0.7-0.3-0.9H140.7z M140.7,73.4v1.2l0.6-0.3v-1.2L140.7,73.4z M141.6,114.9c0,0.4-0.2,0.6-0.7,0.6h-0.2v-0.2
		c0-0.4,0.2-0.6,0.6-0.7h0.3V114.9z M144.6,42.7l-0.3,0.7c0.2,0,0.3,0.1,0.3,0.3v0.2c-0.6,0-0.9,0.4-0.9,1.2h-0.3
		c0-0.7-0.6-1.1-1.8-1.2c0-0.3,0.2-0.5,0.6-0.6h0.6v0.6h0.7c0-0.4,0.2-1,0.6-1.8C144.3,42.1,144.5,42.3,144.6,42.7z M146.1,112.7
		c-2,1.2-3.1,1.9-3.1,2.1l-1.2-0.3v-0.6c1.1,0,2.4-0.5,4-1.5h0.3V112.7z M142.2,24.8V26h0.6c-0.2-0.4-0.2-0.8-0.2-1.2H142.2z
		 M143.4,43.3c-0.6-0.2-0.9-0.8-0.9-1.8h1.2L143.4,43.3z M144.6,54.5c0-0.4-0.7-0.9-2.1-1.5c0,0.2,0.1,0.5,0.2,0.9l1.6,1.8h1.5v-2.1
		h-0.2v1.2h-0.3L144.6,54.5z M143.1,65.5h-0.6v0.9h1.2v-0.2C143.7,65.8,143.5,65.6,143.1,65.5z M142.7,62.2c0.3,0.6,0.7,0.9,1,0.9
		h0.2c0-0.2,0.1-0.5,0.3-0.9v-0.7C143.8,62,143.3,62.2,142.7,62.2z M144,112.1c0,0.4-0.2,0.6-0.6,0.6h-0.3v-0.9h0.3L144,112.1z
		 M145.2,37.5V39h-0.6c0-0.6-0.3-0.9-0.9-0.9v-0.9c0.2,0,0.5-0.1,0.9-0.3C145,36.9,145.2,37.1,145.2,37.5z M144.6,11.1
		c0.4,0.5,0.6,0.9,0.6,1.2h0.3V12c-0.2-0.4-0.3-0.7-0.3-0.9H144.6z M144.6,77.4v0.9c0.3,0,0.5-0.2,0.6-0.6v-0.3H144.6z M145.8,29.6
		c0,0.2,0.1,0.3,0.3,0.3c0,0.2-0.1,0.5-0.3,0.9v0.2h0.3v-0.2h1.2C147.2,30.4,146.7,30,145.8,29.6z M146.1,12v0.6
		c0.2,0,0.5,0.1,0.9,0.3C146.7,12.3,146.4,12,146.1,12z M146.5,75c0,0.2-0.1,0.5-0.3,0.9v0.2h0.3c0-0.2,0.1-0.5,0.2-0.9V75H146.5z
		 M147,38.8v0.6c0.2,0.4,0.3,0.7,0.3,0.9h0.2v-0.3c-0.2-0.3-0.2-0.7-0.2-1.2H147z M149.2,10.7v0.3h-0.3l-0.9-0.7l0.3-0.6
		C148.9,10.1,149.2,10.5,149.2,10.7z M147.9,39v0.3c0,0.4,0.2,0.6,0.7,0.6v-0.2C148.6,39.3,148.4,39.1,147.9,39z M148.6,57.3
		c0,0.3-0.2,0.7-0.7,1.2v0.7c0.4,0,0.7-0.5,0.9-1.6v-0.2H148.6z M147.9,59.7l0.3,1.6h0.3v-1.6H147.9z M148.3,32.3v0.3
		c0,0.6,0.2,0.9,0.6,0.9l-0.2-1.2H148.3z M148.3,43.9v1.2h0.6l-0.2-1.2H148.3z M148.3,46.9v1.6h0.3v-1.6H148.3z M148.6,13.2v0.2
		c0.3,0,0.7,0.2,1.2,0.7l-0.2-1.2C149.1,13.1,148.8,13.2,148.6,13.2z M148.8,38.4v1.2h0.3v-1.2H148.8z M149.8,39.7v1.8l-0.2,0.6
		c0.4,0,0.6,0.8,0.6,2.5c0.3,0,0.5-0.2,0.6-0.7v-0.6l-0.2-1.8c0.2-0.4,0.2-0.7,0.2-0.9c-0.2-0.4-0.2-0.7-0.2-0.9H149.8z M151,45.5
		l-0.6-0.3c0,0.4,0.1,0.9,0.2,1.2l-0.2,0.6c0.2,0.8,0.2,1.6,0.2,2.5h0.3v-1.6l-0.3-1.2c0.3-0.4,0.6-0.6,0.9-0.6v-0.9L151,45.5z
		 M150.7,59.4v1l0.7-0.3C151.3,59.7,151.1,59.5,150.7,59.4z M151.6,95.4c-0.4,0-0.6,0.2-0.6,0.6v0.3c0.6-0.3,0.9-0.6,0.9-0.9H151.6z
		 M153.7,24.1h-0.2l0.6,1.2l0.6-0.3C154.3,24.4,154,24.1,153.7,24.1z M153.7,20.8v0.3c0.3,0.6,0.6,0.9,0.9,0.9v-0.3
		C154.3,21.1,154,20.8,153.7,20.8z M154.4,33.6v0.2h0.9v-0.2l-0.3-0.7C154.6,32.9,154.4,33.1,154.4,33.6z M156.5,23.2v0.3
		c0,0.6,0.2,0.9,0.6,0.9l-0.3-1.2H156.5z M157.1,24.8v0.6c0.7,2,1.4,3.5,2.1,4.3h0.2v-0.3l-1.8-4.5H157.1z M157.4,40.3
		c0,0.2-0.1,0.5-0.3,0.9v0.3l0.6-0.3v-0.9H157.4z M158.3,29.3v0.3c0,0.5,0.3,1.3,0.9,2.4c-0.2,1.1-0.3,1.7-0.3,1.8
		c0.6,0,1,0.4,1.2,1.2v0.3h-0.7v-0.6h-0.2v0.2c0.2,0.3,0.2,0.9,0.2,1.6c0.2,0,0.3-0.1,0.3-0.3c0.5,0,0.8,0.6,0.9,1.8h-0.6v1.2
		l0.6-0.3l0.7,0.3c0-0.2,0.2-0.3,0.6-0.3v-1.2l-1.8-4.5c-0.2-1-0.7-2.4-1.6-4H158.3z M158.6,46h-0.2c0.2,0.4,0.2,0.7,0.2,0.9
		l0.7-0.3C159.2,46.3,159,46.1,158.6,46z M158.6,49.4v1.2h0.7v-1.2H158.6z M160.7,26.6v0.3c-0.2,0-0.7-0.6-1.5-1.9v-0.2l0.2-0.7
		C159.8,24.1,160.2,24.9,160.7,26.6z M161.1,28.7V29h-0.7c0-0.2-0.1-0.5-0.2-0.9v-0.6C160.4,27.5,160.7,27.9,161.1,28.7z
		 M160.7,39.7v2.1l0.7-0.2h0.2v0.9c0,0.6-0.2,1.2-0.6,1.8l0.3,0.6l0.6-0.2l-0.3-0.7c0-0.3,0.2-0.5,0.7-0.6c-0.2-1-0.3-2.1-0.3-3.1
		c-0.2,0-0.3,0.1-0.3,0.3c-0.4,0-0.6-0.3-0.6-0.9H160.7z M162.3,29.3c0,0.4-0.2,0.7-0.7,0.7c0-0.2-0.2-0.9-0.6-2.1h0.6
		C161.6,28.1,161.9,28.6,162.3,29.3z M162.3,26c-0.4,0-0.7-0.2-0.7-0.7v-0.6h0.7V26z M161.6,45.1c0,0.2,0.1,1,0.3,2.5l0.6-0.3
		c0-0.8-0.1-1.5-0.2-2.1H161.6z M163.4,28.1v0.3h-0.2c-0.4,0-0.7-0.2-0.7-0.6v-0.3h0.3C163.2,27.5,163.4,27.7,163.4,28.1z
		 M162.9,82.9v-0.7l2.7-2.7h0.3C165.4,80.9,164.4,82,162.9,82.9z M164.1,85.3l-0.7,0.9c-0.4,0-0.6-0.2-0.6-0.6v-0.3
		c0-0.3,0.2-0.5,0.6-0.6h0.7V85.3z M163.8,71c0,0.6-0.2,0.9-0.6,0.9l0.2,0.6c0.4,0,0.6-0.2,0.7-0.6V71H163.8z M163.8,48.5
		c0,0.7-0.1,1.2-0.3,1.5h0.3l-0.3,1.6c0.2,0.4,0.3,0.7,0.3,0.9h0.3c0-0.2,0.1-0.5,0.2-0.9c0-0.3-0.1-1.3-0.2-3.1H163.8z M163.4,57.9
		v1.2h0.3v-1.2H163.4z M166.3,85c-0.7,1.4-1.2,2.1-1.6,2.1h-0.3v-0.2l0.7-1v-0.6l-0.3-0.6l0.9-0.7l-0.2-0.6c0-0.3,0.2-0.5,0.6-0.6
		L166.3,85z M164.7,61.6v0.3c0,0.4,0.2,0.6,0.7,0.6v-0.9H164.7z M165.9,35.7V36h-0.3l-0.6-0.2l0.3-0.7
		C165.7,35.1,165.9,35.3,165.9,35.7z M166.8,76.5c-0.5,0.8-0.9,1.2-1.2,1.2H165v-0.3c0.8-0.4,1.2-1,1.2-1.8h0.2
		C166.5,75.8,166.6,76.1,166.8,76.5z M166.5,37.2l-0.2,0.6l-0.7-0.2l0.3-0.7L166.5,37.2z M166.5,82h-0.6v-0.3c0-0.3,0.4-0.6,1.2-0.9
		h0.2C167.1,81.6,166.8,82,166.5,82z M167.2,46.6v1h-0.7c0-0.2-0.1-0.5-0.2-1v-0.2C166.6,46.5,166.9,46.6,167.2,46.6z M168.1,71.9
		v0.6c0,0.4-0.2,0.6-0.7,0.6h-0.2v-1.2l0.2-0.7C167.8,71.3,168,71.5,168.1,71.9z M167.7,78.3h-0.6l0.2-1.2h0.7L167.7,78.3z
		 M169.6,67.1c-0.9,1.6-1.5,2.4-1.8,2.4h-0.3v-0.2c0.6-0.5,0.9-1.4,0.9-2.5c0.8,0,1.6-0.6,2.5-1.8h0.3
		C171.1,66.4,170.6,67.1,169.6,67.1z M169,73.4c0,1-0.3,1.6-0.9,1.8h-0.3V75c0.4-0.5,0.6-1.2,0.6-2.1h0.7V73.4z M169.9,70.4
		c-0.2,0.4-0.3,0.7-0.3,0.9H169v-0.6l0.2-0.6L169.9,70.4z M171.4,63.4h-0.6v-1.2h0.6V63.4z M171.7,52.5h-0.6v-0.9h0.6V52.5z"/>
	<path d="M180.3,67.1h-0.6v-0.9h0.6V67.1z M180.6,56.4H180v-1.2h0.6V56.4z M184,49.4c-0.6,0.5-0.9,1.3-0.9,2.4
		c-0.8,0-1.6,0.6-2.5,1.8h-0.3c0-1.4,0.5-2.1,1.6-2.1c0.9-1.7,1.5-2.5,1.8-2.5h0.3V49.4z M182.4,47.9l-0.2,0.7l-0.7-0.3
		c0.2-0.4,0.3-0.7,0.3-0.9h0.6V47.9z M183.7,43.6c-0.4,0.4-0.6,1.1-0.6,2.1h-0.7v-0.6c0-1,0.3-1.6,0.9-1.8h0.3V43.6z M184,41.5h-0.7
		l0.3-1.2h0.6L184,41.5z M184.2,46.6l-0.2,0.7c-0.4,0-0.7-0.2-0.7-0.7V46c0-0.3,0.2-0.5,0.7-0.6h0.2V46.6z M185.5,36.9
		c0,0.3-0.4,0.6-1.2,0.9H184c0.3-0.8,0.6-1.2,0.9-1.2h0.6V36.9z M185.1,71.9v0.2c-0.4-0.2-0.7-0.2-0.9-0.2V71h0.7
		C184.9,71.3,185,71.6,185.1,71.9z M231.4,5.3c0.8,0,1.2,0.2,1.2,0.6h0.3l1.2-0.9v0.3c1.6,0.8,2.4,1.4,2.4,1.8
		c0.3,0,0.5-0.2,0.6-0.7V6.2h-0.6V5.5c1.8,0.3,2.7,0.8,2.7,1.6h0.3l0.6-0.3c0,0.2,0.1,0.3,0.3,0.3l-0.3,0.6c-0.3,0-1.1-0.2-2.4-0.6
		h-0.3v0.2c2,0.4,3.1,0.9,3.1,1.6c0.3,0,0.5-0.2,0.6-0.6h-0.6V8h1.2v0.6c0.2,0,0.2-0.1,0.2-0.2c0.4,0,0.7,0.4,0.7,1.2h0.9V9.2
		l-0.3-0.7h0.3c1.8,1.1,2.7,1.8,2.7,2.1h-1.2v0.6c0.4,0,0.9,0.3,1.6,0.9h0.2l-0.2-0.6v-0.6h0.2c0.7,1,1.4,1.5,2.1,1.5
		c2,2.4,3.1,3.6,3.4,3.6h0.3v-0.6c-0.5,0-1.7-1.4-3.4-4.3v-0.2c0.2,0,0.3,0.1,0.3,0.2l0.6-0.2l1.8,2.4c0.4,1.3,1.8,3.2,4,5.5v0.2
		l-0.2,0.7l-0.7-0.3h-0.3c1.7,3.7,3,6.1,4,7.3v-0.7l0.7,0.3l-0.3,1.5c0.6,1,0.9,1.8,0.9,2.1l0.7-0.2h0.2c0,0.4-0.1,0.8-0.2,1.2
		l0.9,1.6c-0.6,0-0.9,0.2-0.9,0.6v0.3c1.2,1.9,1.8,3.7,1.8,5.4h0.2v-0.9l-0.9-4.3c0.2,0,0.3,0.1,0.3,0.3c0.2,0,0.3-0.1,0.3-0.3
		l0.6,0.3c0,0.2-0.1,0.5-0.3,0.9c1,1.8,1.6,3.2,1.6,4.3v0.6h0.6v0.3c0,0.4-0.2,0.6-0.6,0.6c-0.4,0-0.7-0.8-0.7-2.4h-0.2
		c0,0.8-0.2,1.2-0.7,1.2v0.2c0.8,0.7,1.2,1.8,1.2,3.4l0.7-0.3c0,0.4-0.2,1-0.7,1.8v0.7h0.3c0-0.8,0.3-1.2,0.9-1.2l0.3,0.6v0.3
		c-0.4,0-0.9,0.5-1.2,1.5v1h0.6v0.6l-0.6,0.9v0.6l0.6-0.2l0.7,0.2c0-0.8,0.2-1.2,0.6-1.2l-0.3,2.1l-0.6-0.2h-0.3v0.2
		c0,0.4,0.2,0.7,0.7,0.7l-0.9,1.5v1.6h0.6v1.8c0.5,0,0.8,0.5,0.9,1.5c-0.3,1.2-0.6,2-0.9,2.5v0.3c0.6,0,0.9,0.2,0.9,0.6l-0.6,0.9
		c0,0.4,0.2,0.6,0.6,0.6l-1.2,2.8h-0.6v-0.7H264c0,0.2-0.1,0.5-0.3,0.9v0.3h0.3l0.7-0.3v0.3l0.6-0.3l0.6,0.3l-0.9,1.5h0.3
		c-0.5,1.8-1.2,2.8-1.8,2.8v0.2c0.8,0,1.2,0.2,1.2,0.7c0,0.4-0.2,0.6-0.7,0.6c0,0.2,0.1,0.3,0.3,0.3c-0.7,3.2-1.4,4.9-2.1,4.9
		c0,0.4,0.1,0.9,0.3,1.2c0,0.4-0.2,0.6-0.7,0.6c0,0.2,0.1,0.5,0.3,0.9c0,0.2-0.3,0.4-0.9,0.6l0.3,0.7V81c0,0.4-0.3,0.7-0.9,0.7
		c0.4,0.7,0.6,1.3,0.6,1.8v0.9c-0.4,0-0.9,0.1-1.2,0.3c0,0.2,0.1,0.5,0.3,0.9c-0.6,1.8-1.1,2.7-1.6,2.7c0,0.2,0.1,0.5,0.3,0.9
		c-0.7,1.7-1.3,2.5-1.8,2.5v0.6c0,1.5-0.3,2.3-0.9,2.4c-0.5,1.5-1,2.7-1.6,3.7l1,0.6h0.2c0-0.7,0.9-2.3,2.7-4.9
		c0-0.2-0.1-0.5-0.2-0.9l1.2-1.5c-0.2,0-0.2-0.1-0.2-0.3l1.8-2.7v-0.3l-0.6,0.3h-0.3l0.3-1.2h0.2l0.7,0.3c0-0.4,0.2-0.6,0.6-0.7h0.3
		v0.7l-1.8,3.3c-1.2,4.3-3.2,8.2-6.1,11.6v0.3l1.8-1.5c1.2-2.5,2.2-3.7,3.1-3.7c0-0.2-0.1-0.2-0.3-0.2c0.8-3.2,1.7-4.9,2.7-4.9
		l-0.6-0.9h0.6c1-2.5,1.6-3.7,1.8-3.7h0.3v0.3c0,1.1-0.4,1.8-1.2,2.1c0,0.4,0.1,0.9,0.3,1.2L261,95c-0.8,2.4-1.4,3.6-1.8,3.6
		c0,1.3-1.5,3.1-4.5,5.5c-1,2.6-3.8,5.3-8.3,8.3h-0.9c1.2-1,1.8-1.6,1.8-1.9c2.6-1.4,4.4-3,5.5-4.9c-1.6,1.7-2.6,2.5-3.1,2.5l-5.5,4
		l-0.6-0.3c0.2-0.4,0.3-0.7,0.3-0.9c2.2-0.9,3.3-1.7,3.3-2.4c0.2,0,0.3,0.1,0.3,0.2c2.1-1.2,3.3-2.3,3.6-3.3v-0.3h-0.3
		c-2.3,1.6-3.7,2.4-4.2,2.4c-0.7,1.3-2.3,2.2-4.6,2.8c0,0.2,0.1,0.2,0.3,0.2l-0.3,0.7l-1.5-0.7v0.3c-1.8,0.6-3.3,1.4-4.5,2.5h-1.6
		v0.6h-0.6v-0.6h-0.3c-1,0.8-1.8,1.2-2.4,1.2v-0.6c-1,0.8-1.7,1.2-1.9,1.2l-0.6-0.3c0,0.2-0.1,0.3-0.3,0.3c-0.4,0-0.6-0.3-0.6-0.9
		l-1.2,0.9h-1.5l0.3-0.7c-0.8,0-1.2-0.2-1.2-0.6h-0.7l-0.9,0.6l-0.6-0.2c0,0.6-0.2,0.9-0.6,0.9h-0.7l0.7-0.9v-0.3
		c-0.2,0-0.6,0.1-1,0.3c-0.2,0-0.2-0.2-0.2-0.7h-0.3l-1.2,0.9v-0.2c-1.6-0.9-2.4-1.5-2.4-1.8c-0.4,0-0.7,0.2-0.7,0.6v0.3h0.7v0.6
		c-0.8,0-1.8-0.5-3.1-1.5l-0.6,0.2c0-0.2-0.1-0.2-0.3-0.2l0.3-0.7c0.3,0,1.1,0.2,2.4,0.7h0.3v-0.3c-2-0.4-3.1-0.9-3.1-1.6h-0.7v0.7
		h0.7v0.2h-1.2v-0.6c-0.2,0-0.3,0.1-0.3,0.3c-0.4,0-0.6-0.4-0.6-1.2h-0.9v0.3l0.3,0.6h-0.3l-2.7-1.8c0-0.2,0.1-0.3,0.2-0.3l-0.2-0.6
		l0.2-0.7c-0.2,0-0.2-0.1-0.2-0.2c-0.4,0-0.7,0.3-0.7,0.9h-0.6l0.3-0.7v-0.2c0-0.3-0.2-0.5-0.7-0.7c-0.6,0.3-0.9,0.6-0.9,0.9
		c-1-0.6-1.5-1.3-1.5-2.1h-0.7v0.6h-0.2c-0.9-1.2-1.7-1.8-2.1-1.8v0.3l1.8,2.7v0.2c-0.2,0-0.3-0.1-0.3-0.2l-0.6,0.2l-1.8-2.4
		c-0.4-1.3-1.8-3.1-4-5.4V99h0.6v0.7h0.3c0-0.2,0.1-0.5,0.3-1c0-0.1-1.3-2.4-4-6.9v0.6l-0.7-0.3l0.3-1.5c-0.6-1-0.9-1.8-0.9-2.1
		l-0.7,0.3h-0.2c0-0.5,0.1-0.9,0.2-1.2l-0.9-1.6c0.6,0,0.9-0.2,0.9-0.6V85c-1.2-1.9-1.8-3.7-1.8-5.4H188v0.9l0.9,4.3
		c-0.2,0-0.3-0.1-0.3-0.3c-0.2,0-0.3,0.1-0.3,0.3l-0.6-0.3c0-0.2,0.1-0.5,0.3-0.9c-1-1.8-1.6-3.2-1.6-4.3v-0.6h-0.6v-0.3
		c0-0.3,0.2-0.5,0.6-0.6c0.4,0,0.7,0.8,0.7,2.4h0.2c0-0.8,0.2-1.2,0.7-1.2v-0.3c-0.8-0.7-1.2-1.8-1.2-3.4l-0.7,0.3
		c0-0.4,0.2-1,0.7-1.8v-0.7h-0.3c0,0.8-0.3,1.2-0.9,1.2l-0.3-0.6v-0.3c0.4,0,0.9-0.5,1.2-1.5V71h-0.6v-0.7l0.6-0.9v-0.6l-0.6,0.3
		l-0.7-0.3c0,0.8-0.2,1.2-0.6,1.2l0.3-2.1l0.6,0.2h0.3V68c0-0.3-0.2-0.5-0.7-0.7l0.9-1.5v-1.6h-0.6v-1.8c-0.5,0-0.8-0.5-0.9-1.5
		c0.3-1.2,0.6-2,0.9-2.5v-0.2c-0.6,0-0.9-0.2-0.9-0.7l0.6-0.9c0-0.3-0.2-0.5-0.6-0.6l1.2-2.7h0.6V54h0.3c0-0.2,0.1-0.5,0.3-0.9v-0.3
		h-0.3l-0.7,0.3v-0.3l-0.6,0.3l-0.6-0.3l0.9-1.5h-0.3c0.5-1.8,1.2-2.7,1.8-2.7v-0.3c-0.8,0-1.2-0.2-1.2-0.6s0.2-0.6,0.7-0.7
		c0-0.2-0.1-0.3-0.3-0.3c0.7-3.2,1.4-4.9,2.1-4.9c0-0.4-0.1-0.8-0.3-1.2c0-0.4,0.2-0.6,0.7-0.7c0-0.2-0.1-0.5-0.3-0.9
		c0-0.2,0.3-0.4,0.9-0.6l-0.3-0.7v-0.2c0-0.4,0.3-0.7,0.9-0.7c-0.4-0.7-0.6-1.3-0.6-1.8v-0.9c0.4,0,0.9-0.1,1.2-0.3
		c0-0.2-0.1-0.5-0.3-0.9c0.5-1.7,1.1-2.6,1.6-2.7c0-0.2-0.1-0.5-0.3-0.9c0.7-1.6,1.3-2.4,1.8-2.4v-0.7c1.2-4.1,3-7.6,5.4-10.6h-0.2
		c-1.2,0.8-1.8,1.4-1.8,1.8c-0.4,0.1-2,2.4-4.9,7c0,0.2,0.1,0.5,0.2,0.9l-1.2,1.6c0.2,0,0.2,0.1,0.2,0.2l-1.8,2.8v0.2L190,30h0.3
		l-0.3,1.2h-0.2l-0.7-0.2c0,0.4-0.2,0.6-0.6,0.6h-0.3v-0.6c0.6-0.8,1.5-2.8,2.8-6.1c1.3-4,3.3-7.2,6-9.5V15c-0.2,0-0.9,0.5-2.1,1.5
		c-1.8,2.9-3,4.3-3.7,4.3c0,0.2,0.1,0.3,0.3,0.3c-0.8,3.2-1.7,4.9-2.7,4.9l0.6,0.9h-0.6c-1,2.4-1.6,3.6-1.8,3.6h-0.3v-0.3
		c0-1.1,0.4-1.8,1.2-2.1c0-0.4-0.1-0.8-0.3-1.2l2.1-3.4c0.8-2.4,1.4-3.6,1.8-3.6c0-1.3,1.7-3.3,5.2-6.1c0.4,0,0.8,0.1,1.2,0.3
		l1.2-0.7c1-1.7,3.5-3.8,7.3-6.4h0.6v0.6c-0.8,0-1.3,0.4-1.5,1.2c-2.1,1.2-3.9,2.6-5.2,4.3h0.3c1.2-1.3,2-1.9,2.4-1.9l5.5-4l0.6,0.3
		c-0.2,0.4-0.3,0.7-0.3,0.9c-2.2,0.9-3.3,1.8-3.3,2.5c-0.2,0-0.3-0.1-0.3-0.3c-0.7,0-1.2,0.7-1.5,2.1h0.2c2.5-1.8,4.7-3,6.7-3.6
		c0-0.2-0.1-0.3-0.2-0.3l0.2-0.6l1.6,0.6V8.6c1.8-0.6,3.3-1.4,4.5-2.4h1.6V5.5h0.2c0.4,0,0.6,0.2,0.7,0.7c1-0.8,1.8-1.2,2.4-1.2v0.6
		c1-0.8,1.6-1.2,1.8-1.2l0.7,0.2c0-0.2,0.1-0.2,0.2-0.2c0.4,0,0.7,0.3,0.7,0.9l1.2-0.9h1.5L227.5,5c0.8,0,1.2,0.2,1.2,0.6h0.6l1-0.6
		l0.6,0.3c0-0.6,0.2-0.9,0.6-0.9h0.7L231.4,5.3z M186.4,41.2c-0.8,0.5-1.2,1.1-1.2,1.8h-0.2c0-0.2-0.1-0.5-0.3-0.9
		c0.5-0.8,0.9-1.2,1.2-1.2h0.6V41.2z M185.8,81l-0.3,0.7l-0.6-0.3l0.2-0.6L185.8,81z M187,31.8l-0.7,0.9v0.6l0.3,0.6l-0.9,0.7
		l0.2,0.6c0,0.4-0.2,0.7-0.6,0.7l-0.3-2.1c0.7-1.4,1.2-2.1,1.6-2.1h0.3V31.8z M188.5,36.3l-2.7,2.7h-0.3c0.5-1.3,1.6-2.4,3.1-3.3
		V36.3z M186.4,82.9l-0.3,0.6c-0.4,0-0.6-0.2-0.6-0.6v-0.3h0.3L186.4,82.9z M186.1,56.1V57h0.7v-0.3
		C186.7,56.4,186.5,56.2,186.1,56.1z M187.3,66.2c0,0.2-0.1,0.5-0.2,0.9c0.2,1.8,0.2,2.8,0.2,3.1h0.3c0-0.7,0.1-1.2,0.3-1.6h-0.3
		l0.3-1.5c-0.2-0.4-0.3-0.7-0.3-0.9H187.3z M188.5,32.9v0.3c0,0.4-0.2,0.6-0.6,0.6h-0.7v-0.6l0.7-0.9
		C188.3,32.3,188.5,32.5,188.5,32.9z M187.3,46.6v1h0.3c0-0.7,0.2-1,0.6-1L188,46C187.5,46,187.3,46.2,187.3,46.6z M187.6,59.4v1.2
		h0.3v-1.2H187.6z M188.9,90.8v0.2h-0.3c-0.4,0-0.6-0.2-0.6-0.6v-0.3h0.2C188.6,90.2,188.8,90.4,188.9,90.8z M188.9,71.3
		c0,0.8,0.1,1.5,0.2,2.1h0.7c-0.2-1.4-0.3-2.2-0.3-2.4L188.9,71.3z M189.4,74.1l0.3,0.6c0,0.4-0.2,0.6-0.7,0.6
		c0.2,1.1,0.3,2.1,0.3,3.1c0.2,0,0.3-0.1,0.3-0.2c0.4,0,0.6,0.3,0.6,0.9h0.3v-2.1l-0.7,0.2h-0.2v-0.9c0-0.5,0.2-1.2,0.6-1.8
		l-0.3-0.6L189.4,74.1z M190.3,90.8h-0.6c0-0.4-0.2-0.9-0.7-1.6c0-0.3,0.2-0.5,0.7-0.6L190.3,90.8z M189.8,93.2v0.6h-0.7v-1.2
		C189.5,92.7,189.7,92.8,189.8,93.2z M190.7,79.5l-0.7-0.3c0,0.2-0.2,0.3-0.6,0.3v1.2l1.8,4.5c0.2,1,0.7,2.4,1.6,4h0.2v-0.3
		c0-0.4-0.3-1.2-0.9-2.4c0.2-1.1,0.3-1.7,0.3-1.8c-0.6,0-1-0.4-1.2-1.2v-0.3h0.7v0.7h0.2v-0.3c-0.2-0.3-0.2-0.8-0.2-1.5
		c-0.2,0-0.3,0.1-0.3,0.2c-0.6-0.2-0.9-0.8-0.9-1.8h0.6v-1.2L190.7,79.5z M191.3,90.5v0.6c-0.3,0-0.6-0.4-0.9-1.2v-0.2h0.7
		C191,89.8,191.1,90.1,191.3,90.5z M192.2,93.6v0.2l-0.2,0.7c-0.3,0-0.7-0.8-1.2-2.5v-0.2C190.9,91.7,191.4,92.4,192.2,93.6z
		 M191.9,88.9v0.3l1.8,4.5h0.2v-0.2c0-1.5-0.6-3-1.8-4.6H191.9z M192.2,68v1.2h0.7V68H192.2z M192.2,71.9c0,0.4,0.2,0.6,0.7,0.6h0.2
		c-0.2-0.4-0.2-0.7-0.2-0.9L192.2,71.9z M193.7,77.4v0.9h0.2c0-0.2,0.1-0.5,0.3-0.9v-0.3L193.7,77.4z M198.3,102.1h-0.3v0.6
		c0.3,0,0.9,0.3,1.9,0.9C199.1,102.6,198.5,102.1,198.3,102.1z M200.4,69.2v1.5l0.3,1.2c-0.3,0.4-0.6,0.6-0.9,0.6v0.9l0.6-0.3
		l0.6,0.3c0-0.4-0.1-0.9-0.2-1.2l0.2-0.6c-0.2-0.8-0.2-1.6-0.2-2.4H200.4z M200.1,58.5c0,0.4,0.2,0.7,0.7,0.7v-0.9L200.1,58.5z
		 M200.7,74.7v0.6l0.2,1.8c-0.2,0.4-0.2,0.8-0.2,1c0.2,0.4,0.2,0.7,0.2,0.9h0.7v-1.9l0.2-0.6c-0.4,0-0.6-0.8-0.6-2.4
		C200.9,74.1,200.7,74.3,200.7,74.7z M201.9,80.8c0,0.4,0.2,0.6,0.7,0.6c0,0.2-0.1,0.5-0.3,0.9v0.3h0.3l0.6-0.3l-0.6-1.8L201.9,80.8
		z M202.2,79v1.2h0.3V79H202.2z M203.5,108.2l-0.3,0.6c-0.6-0.3-0.9-0.6-0.9-0.9v-0.3h0.3L203.5,108.2z M202.6,61v0.3h0.2
		c0-0.3,0.2-0.7,0.7-1.2v-0.7C203.1,59.4,202.8,59.9,202.6,61z M202.6,73.4c0,0.1,0.1,0.5,0.2,1.2h0.3v-1.2H202.6z M202.8,57.3v1.5
		h0.7l-0.3-1.5H202.8z M202.8,70.1v1.5h0.3v-1.5H202.8z M202.8,78.6V79c0,0.4,0.2,0.6,0.7,0.6v-0.3
		C203.5,78.9,203.2,78.7,202.8,78.6z M203.1,80.8c0.2,0.4,0.3,0.7,0.3,0.9h0.3v-1.2L203.1,80.8z M233.9,21.4c0,0.1,0.2,0.9,0.6,2.5
		c-0.8-0.7-1.2-1.4-1.2-2.1H233c-0.5,0.4-1,0.6-1.6,0.6v0.3l1.8,0.3v0.9c-0.2,0-0.5-0.1-0.9-0.3h-0.6c0.2,0.4,0.3,0.7,0.3,0.9h0.6
		l0.9-0.6c0,0.2-0.1,0.5-0.3,0.9l0.3,0.6v0.3H233V25h-0.3v0.7h-0.6c0-0.6-0.4-1.1-1.2-1.6c0-0.2,0.1-0.2,0.3-0.2
		c0-0.2-0.1-0.3-0.3-0.3c0-0.2,0.1-0.5,0.3-0.9v-0.3l-0.7,0.3h-0.2l-1-0.6l-0.2,1.8h-0.7v-0.7h-0.6v0.7c0.4,0,0.6,0.4,0.6,1.2h0.7
		l-0.3-0.6c0-0.3,0.2-0.5,0.6-0.6v0.9c0.4,0,0.7-0.3,0.7-0.9c0.4,0.2,0.7,0.2,0.9,0.2l-0.3,0.7l0.7,0.9h-0.3l-0.6-0.3
		c0,0.2-0.3,0.4-1,0.7l-1.5-0.7c0,0.2-0.1,0.3-0.3,0.3V25h-0.6v1h-0.3c-0.8-0.5-1.2-0.9-1.2-1.2v-0.7h0.2l0.9,0.7
		c0-0.8,0.2-1.2,0.7-1.2v-0.6c0-0.4-0.2-0.6-0.7-0.7v0.9h-0.9l-0.6-0.2l-0.3,0.6c-0.2,0-0.3-0.1-0.3-0.3l-1.8,1.6l0.3,0.6
		c0,0.4-0.2,0.7-0.6,0.7l-0.7-0.3l-1.5,3.1c0.2,0,0.2,0.1,0.2,0.2v1c0,0.4-0.6,0.7-1.8,0.9c-0.4,0-0.6-0.2-0.6-0.7v-0.6l1.5-1.2
		v-0.6l-1.5,0.6c-0.5,1.2-0.9,1.8-1.2,1.8v0.7c0.2,0,0.3-0.1,0.3-0.3c1.2,0.4,1.8,0.8,1.8,1.2c0.3,0,0.5-0.2,0.6-0.7l0.7,0.3
		c0.3,0,0.5-0.2,0.6-0.6c1.4,0.2,2.1,0.5,2.1,0.9c0,0.4-0.3,0.6-0.9,0.6v0.3l0.3,0.6l0.6-0.3h0.3v0.3c-1.7,1.1-2.5,1.8-2.5,2.1h-0.6
		c0-0.2-0.1-0.5-0.3-0.9h0.3c0-1-0.3-1.7-0.9-1.8c-1.4,0.8-2.3,1.7-2.8,2.7V36l1.2-0.6l-0.2-0.6v-0.7h0.6v0.7c0.2,0,0.3-0.1,0.3-0.3
		c0.2,0,0.6,0.8,1.2,2.4v0.3c-0.5,0-1.2,0.3-2.1,0.9c-0.7-0.7-1-1.3-1-1.8h-0.2v2.1l0.2,0.6l1-0.6v0.3l-0.7,0.9l-1.5-1.2H215
		c0,0.2-0.1,0.5-0.3,0.9h0.3l-0.3,1.5l0.3,1.2c-0.4,0-0.6,0.2-0.6,0.6l-1.2-0.6l-0.6,0.3c0,0.2,0.1,0.2,0.2,0.2l-0.2,1.6v0.6h0.6
		v0.7c-0.2,0-0.5-0.1-0.9-0.3c-0.4,0-0.7,0.2-0.7,0.6v0.9h0.3V46h0.7v0.6l-0.7,1l0.3,0.6c-0.2,0-0.3,0.1-0.3,0.3
		c-0.4,0-0.6-0.2-0.6-0.7v-0.2l0.2-0.7h-0.9c0,0.8-0.2,1.2-0.6,1.2l1.2,1.5c-1,0-1.6,0.2-1.6,0.7h-0.6v-0.7h-0.3V50
		c0.4,0.7,0.7,1.2,0.7,1.6c0.8-0.5,1.2-0.9,1.2-1.2c0.4,0,0.6,0.2,0.7,0.6c0,0.4-0.2,0.7-0.7,0.7l-1.5,1.2v0.3
		c0,0.4,0.2,0.6,0.6,0.6c-0.4,0.5-0.6,0.9-0.6,1.2h-0.6c0-0.5-0.7-1-2.1-1.5v0.2l0.9,1.2c0.2,0,0.2-0.1,0.2-0.3
		c0.3,0,0.8,0.6,1.6,1.9l-0.6,0.9l0.6,0.9v0.2h-0.6l-1.9-0.9c0,0.4-0.2,0.7-0.6,0.7l0.3,2.1V61h-0.3l-0.6-0.3c0,0.2-0.1,0.5-0.3,0.9
		c0.3,0,0.5,0.2,0.6,0.7c0.8,0,1.2-0.5,1.2-1.6l0.9,0.7h0.3v-1.2c-0.6,0-0.9-0.2-0.9-0.7l0.2-0.6c0.8,0,1.7,0.7,2.5,2.1v0.6h-0.3
		l-0.6-0.2c0,0.4-0.3,0.6-0.9,0.6v0.3h0.6v0.9c0,0.1,0.2,0.9,0.7,2.4c0,0.2-0.1,0.5-0.3,0.9l0.3,0.7c-0.2,0.3-0.3,0.7-0.3,1.2h-0.6
		l-0.3-1.5l-0.7,0.3h-0.6v-0.7c0.8,0,1.2-0.2,1.2-0.6v-0.3c-0.7,0-1.2-0.1-1.6-0.2c-0.3,0.2-0.8,0.2-1.5,0.2v0.7l0.6,0.9V68h-0.6
		v0.6c0.2,0,0.5,0.1,0.9,0.3v-0.7h0.3l0.6,0.3c0-0.3,0.2-0.5,0.6-0.6v1.8l0.7-0.3h0.3c0,0.4,0.3,0.9,0.9,1.6c-0.5,0-1.2-0.2-1.9-0.7
		v0.3l-0.6-0.3c0-0.2,0.1-0.2,0.3-0.2c0-0.4-0.2-0.6-0.7-0.7c0,0.5-0.1,0.9-0.2,1.2c0.4,0.5,0.6,0.9,0.6,1.2h0.6v-0.7h0.3
		c1,0.6,1.5,1,1.6,1.2v0.3h-0.7c-0.4,0-0.6-0.2-0.6-0.7l-0.9,0.7c-0.3,0-0.8-0.6-1.6-1.8v-0.7l0.7-0.9v-0.2l-0.7,0.2l-0.6-0.2v1.2
		l0.3,0.7c-0.2,0-0.3,0.1-0.3,0.2l-0.6-0.2v1.2c0.6,0,0.9,0.1,0.9,0.3c0,0.3,0.5,0.7,1.5,1.2v0.6c-0.6-0.3-0.9-0.6-0.9-0.9
		c-0.2,0-0.3,0.1-0.3,0.3c-0.4,0-1-0.2-1.8-0.7c0,1.4-0.1,2.3-0.2,2.5h0.6c0-0.7,0.1-1.2,0.3-1.5c1,0.4,1.7,0.9,1.8,1.5v0.3
		c-1.4,0-2.1,0.7-2.1,2.1l1.2,0.9v-1.2l-0.3-0.7l0.6-0.2c1.9,0.8,2.8,2.1,2.8,4H208c-0.1-1.7-0.5-2.6-1.2-2.7l-0.6,0.2l0.3,0.7v0.2
		l-1.6,0.3v0.9c0.3,0,0.7,0.2,1.2,0.6v-1.5h0.6c0,0.6,0.3,0.9,0.9,0.9v0.9c-0.8,0.6-1.4,0.9-1.8,0.9v0.3h1.2c0.1,0,0.6-0.5,1.6-1.6
		h0.9c0.3,0,0.5,0.2,0.6,0.7h-0.9v0.9l0.9,1.2v0.2l-0.6,0.9h0.9c0.4,0,0.6-0.5,0.6-1.5h0.3c0.8,0.4,1.2,1.1,1.2,2.1h0.2
		c0-0.6,0.5-0.9,1.6-0.9c0,0.8,1.6,1.6,4.9,2.4l-0.3,0.7c0.5,0.8,1,1.8,1.2,3.1l-0.9,0.6c0-0.2-0.1-0.5-0.3-0.9
		c0.2,0,0.3-0.1,0.3-0.3c0-1.5-1.5-2.9-4.6-4v0.3l-2.1-0.7v1.6l0.9-0.6v0.9h0.6c0.3,0,0.5-0.2,0.6-0.7c0.4,0,0.7,0.3,0.7,0.9h0.2
		l0.7-0.2v0.6l-0.3,0.6l-1.5-0.6v0.3l-1.8-0.9c-0.4,0.2-0.8,0.2-1,0.2v0.3h1.2v0.6h-0.6v0.3h0.3c0.3-0.2,0.7-0.3,1.2-0.3v0.3
		l-0.2,0.6h0.2l-0.2,0.7l-0.9-0.7c-0.7,0.3-1,0.7-1,1c1.9,0.3,2.8,0.7,2.8,1.2c0.2,0,0.5-0.1,0.9-0.2c0.2,0,0.5,0.1,0.9,0.2
		l-0.3,0.7h1.6c0.3,0,0.5-0.2,0.6-0.7c0.2,0,0.3,0.1,0.3,0.3l0.9-0.6V92c0,0.4-0.2,0.7-0.7,0.7v0.2c1.1,0.4,2.2,1.3,3.4,2.5
		c0,0.2-0.1,0.3-0.3,0.3l0.3,0.6v0.3l-0.6-0.3h-0.3l0.3,0.6h-0.3l-1.6-0.2v1.2h0.3l1.8-0.9v0.3l0.7-0.3h0.2l0.9,0.7l0.3-1.8h0.6v0.6
		h0.7v-0.6c-0.4,0-0.7-0.4-0.7-1.2h-0.6V95c-0.2,0-0.3-0.1-0.3-0.3c-0.4,0-0.6,0.3-0.6,1c-0.4-0.2-0.7-0.3-0.9-0.3l0.3-0.7l-0.7-0.9
		h0.3l0.6,0.3c0-0.2,0.3-0.4,0.9-0.6l1.6,0.6l0.9-0.9c1,0.5,1.5,1.3,1.5,2.1h0.7l-0.3-0.7v-0.6h0.3c1.2-2,1.9-3.1,2.1-3.1
		c0-0.2-0.1-0.5-0.3-0.9c1.1-1,1.7-1.8,1.8-2.4c0.6,0.3,0.9,0.6,0.9,0.9v0.2h-0.6v0.7c0.7-0.6,1.3-0.9,1.8-0.9l-0.3-1.6l-0.9,0.7
		c-0.4,0-0.6-0.4-0.6-1.2c-0.6,0.3-0.9,0.6-0.9,0.9l-0.7-0.3c-0.4,0-0.6,0.2-0.6,0.7c-1.4-0.2-2.1-0.5-2.1-0.9
		c0-0.4,0.3-0.7,0.9-0.7v-0.3l-0.3-0.6l-0.6,0.3h-0.3v-0.3c1.7-1.1,2.5-1.8,2.5-2.1h0.6c0,0.2,0.1,0.5,0.3,0.9h-0.3
		c0,1,0.3,1.7,0.9,1.8c1.4-0.8,2.3-1.7,2.8-2.7v-0.6l-1.2,0.6l0.2,0.7v0.6h-0.6v-0.6c-0.2,0-0.3,0.1-0.3,0.2c-0.2,0-0.6-0.8-1.2-2.4
		v-0.3c0.5,0,1.2-0.3,2.1-0.9c0.7,0.7,1,1.3,1,1.8h0.2v-2.1l-0.2-0.6l-1,0.6v-0.2l0.7-0.9l1.5,1.2h0.3c0-0.2,0.1-0.5,0.3-0.9h-0.3
		l0.3-1.5l-0.3-1.2c0.3,0,0.5-0.2,0.6-0.6l1.2,0.6l0.6-0.3c0-0.2-0.1-0.2-0.2-0.2l0.2-1.6v-0.6h-0.6v-0.7c0.2,0,0.5,0.1,0.9,0.3
		c0.3,0,0.5-0.2,0.7-0.6v-0.9h-0.3v0.6h-0.7v-0.6l0.7-0.9l-0.3-0.7c0.2,0,0.3-0.1,0.3-0.2c0.3,0,0.5,0.2,0.6,0.6V71l-0.2,0.6h0.9
		c0-0.8,0.2-1.2,0.6-1.2l-1.2-1.5c1,0,1.6-0.2,1.6-0.7h0.6v0.7h0.3v-0.3c-0.4-0.7-0.7-1.2-0.7-1.5c-0.8,0.5-1.2,0.9-1.2,1.2
		c-0.4,0-0.7-0.2-0.7-0.6c0-0.4,0.3-0.6,0.9-0.6c0.3-0.8,0.7-1.2,1.2-1.2v-0.3c0-0.3-0.2-0.5-0.6-0.6c0.4-0.5,0.6-0.9,0.6-1.2h0.6
		c0,0.5,0.7,1,2.1,1.6v-0.3l-0.9-1.2c-0.2,0-0.2,0.1-0.2,0.3c-0.3,0-0.8-0.6-1.6-1.8l0.6-0.9l-0.6-0.9v-0.3h0.6L244,61
		c0-0.4,0.2-0.6,0.6-0.6l-0.3-2.1v-0.7h0.3l0.6,0.3c0-0.2,0.1-0.5,0.3-0.9c-0.4,0-0.6-0.2-0.6-0.6c-0.8,0-1.2,0.5-1.2,1.5l-0.9-0.6
		h-0.3v1.2c0.6,0,0.9,0.2,0.9,0.7l-0.2,0.6c-0.8,0-1.7-0.7-2.5-2.1V57h0.3l0.6,0.3c0-0.4,0.3-0.7,0.9-0.7v-0.2h-0.6v-1l-0.7-2.4
		c0-0.2,0.1-0.5,0.3-0.9l-0.3-0.6c0.2-0.4,0.3-0.8,0.3-1.2h0.6l0.3,1.5l0.7-0.2h0.6v0.6c-0.8,0-1.2,0.2-1.2,0.6v0.3
		c0.7,0,1.2,0.1,1.6,0.3c0.3-0.2,0.8-0.3,1.5-0.3v-0.6l-0.6-0.9v-1h0.6V50c-0.2,0-0.5-0.1-0.9-0.3v0.7h-0.3l-0.6-0.3
		c0,0.4-0.2,0.6-0.6,0.6v-1.8l-0.7,0.3h-0.3c0-0.3-0.3-0.8-0.9-1.5c0.5,0,1.2,0.2,1.9,0.6v-0.3l0.6,0.3c0,0.2-0.1,0.3-0.3,0.3
		c0,0.4,0.2,0.6,0.7,0.6c0-0.4,0.1-0.9,0.2-1.2c-0.4-0.5-0.6-0.9-0.6-1.2h-0.6v0.7h-0.3c-1-0.5-1.5-1-1.6-1.2v-0.3h0.7
		c0.3,0,0.5,0.2,0.6,0.7l0.9-0.7c0.3,0,0.8,0.6,1.6,1.9v0.6l-0.7,0.9v0.3l0.7-0.3l0.6,0.3v-1.2l-0.3-0.6c0.2,0,0.3-0.1,0.3-0.3
		l0.6,0.3v-1.2c-0.6,0-0.9-0.1-0.9-0.3c0-0.3-0.5-0.7-1.5-1.2v-0.6c0.6,0.3,0.9,0.6,0.9,0.9c0.2,0,0.3-0.1,0.3-0.3
		c0.4,0,1,0.2,1.8,0.7c0-1.4,0.1-2.3,0.2-2.5h-0.6c0,0.7-0.1,1.2-0.3,1.6c-1-0.4-1.7-1-1.8-1.6v-0.3c1.4,0,2.1-0.7,2.1-2.1l-1.2-0.9
		v1.2l0.3,0.7l-0.6,0.2c-1.9-0.8-2.8-2.1-2.8-4h0.7c0,1.4,0.4,2.4,1.2,2.8l0.6-0.3l-0.3-0.6v-0.3l1.6-0.3c0-0.1-0.2-1.2-0.7-3.3
		c0-0.4,0.2-0.6,0.7-0.7c0.5,0,0.9,1,1.2,3.1l0.7-0.3l-0.3-0.6v-0.6h0.7c0,0.7,0.1,1.2,0.2,1.5l0.7-0.3c0-0.3-0.2-0.5-0.7-0.6
		c0-0.2,0.1-0.5,0.3-0.9c-0.3-0.6-0.6-0.9-0.9-0.9l-0.7,0.3c0-1.1-0.1-2-0.2-2.8c0.2,0,0.2-0.1,0.2-0.2c-0.6-0.3-0.9-0.6-0.9-0.9
		c-0.3,0-0.6,0.4-0.9,1.2c0.2,0,0.4,0.3,0.7,0.9c-0.4,0.6-0.7,1.1-0.7,1.6l-1.2-0.9c0,0.2,0.1,0.5,0.2,0.9v0.3
		c-0.4,0-1.2,0.6-2.1,1.8h-0.9c-0.4,0-0.6-0.2-0.6-0.7h0.9V36l-0.9-1.5l0.3-0.7c0.4,0,0.7,0.7,0.9,2.1h0.2c0-0.3,0.4-0.7,1.2-1.2
		v-0.3h-1.2c-0.6-1.2-1.1-1.8-1.5-1.8v0.2c-0.8-0.5-1.2-0.9-1.2-1.2v-0.7c0.3,0,0.5,0.2,0.7,0.7c2.2,0.8,3.3,1.6,3.3,2.4
		c0.4-0.2,0.7-0.3,0.9-0.3l-0.9-2.1c0.3,0,0.5-0.2,0.7-0.7l0.9,0.7l-0.3-1.2c-0.2,0-0.3,0.1-0.3,0.3c-0.4,0-0.6-0.3-0.6-0.9h-0.9
		v0.6h0.6v0.6h-0.6c-0.4,0-0.7-0.2-0.7-0.6v-0.3l0.3-0.6c-0.2,0-0.3-0.1-0.3-0.3c0.4-0.8,0.8-1.2,1.2-1.2c0-0.3-0.2-0.5-0.6-0.6v0.6
		c-0.5,0-1.6-0.8-3.4-2.4h-0.6c0,0.2,0.4,1.1,1.2,2.7l-0.3,0.6c0.3,0.7,0.6,1,0.9,1c0-0.7,0.2-1,0.6-1h0.3v1h-0.6l0.6,0.9
		c0,0.4-0.2,0.6-0.6,0.6H240c0-0.2,0.1-0.5,0.2-0.9c-0.9-0.5-1.4-1-1.5-1.6l-0.7,0.3c-0.4,0-0.6-0.2-0.6-0.6v-0.3l0.6,0.3
		c0.4,0,0.6-0.2,0.7-0.7c0-0.3-0.2-0.5-0.7-0.6h-0.2l-0.7,0.3l-0.9-1.6h0.3l0.6,0.3c-0.4-1.3-0.6-2.1-0.6-2.5h-0.3
		c0,0.5-0.1,0.9-0.2,1.2l-0.7-0.3c0,0.7-0.2,1-0.6,1h-0.3c0-0.8-0.2-1.2-0.6-1.2v-0.7c0.6,0,0.9-0.2,0.9-0.6l0.6,0.3v-0.3
		c-0.6-0.6-0.9-1.3-0.9-2.1H233.9z M203.8,78.3v0.3c0.2,0.3,0.2,0.7,0.2,1.2h0.3v-0.7c-0.2-0.4-0.3-0.7-0.3-0.9H203.8z M204.9,42.4
		c0,0.2-0.1,0.5-0.2,0.9v0.3h0.2c0-0.2,0.1-0.5,0.3-1v-0.2H204.9z M205.6,62.8v2.1h0.2v-1.2h0.3l0.6,0.3c0,0.4,0.7,0.9,2.1,1.5
		l-0.2-1.2c-1-0.4-1.6-0.9-1.6-1.5H205.6z M206.2,40.8v0.3h0.6v-0.9C206.4,40.3,206.2,40.5,206.2,40.8z M209.8,74.7
		c0,0.4-0.2,0.6-0.6,0.6h-0.6v-0.6H208c0,0.4-0.2,1-0.6,1.8c-0.4,0-0.7-0.2-0.7-0.6l0.3-0.7c-0.2,0-0.3-0.1-0.3-0.2v-0.3
		c0.6,0,0.9-0.4,0.9-1.2h0.3C208,74.1,208.6,74.6,209.8,74.7z M207.7,55.4h-0.2c0,0.2-0.1,0.6-0.3,1V57c0.5-0.4,1-0.6,1.6-0.6
		C208.3,55.8,208,55.4,207.7,55.4z M207.4,108.2h-0.3v0.6h0.9C208,108.4,207.8,108.2,207.4,108.2z M207.7,7.1h-0.2V6.8
		c0-0.3,0.2-0.5,0.6-0.6h0.7C208.3,6.8,208,7.1,207.7,7.1z M207.4,83.5v0.3h1.2v-0.3H207.4z M207.7,52.1v0.3c0,0.4,0.2,0.6,0.7,0.6
		h0.6v-0.9H207.7z M208.9,77.1h-1.2l0.3-1.8C208.5,75.2,208.8,75.9,208.9,77.1z M211.6,5v0.6c-0.3,0-1.2,0.2-2.7,0.7
		c0-0.1,0.5-0.6,1.6-1.6C211.2,4.8,211.6,5,211.6,5z M210.5,7.7h-0.3l-0.6-0.3c0-0.3,0.2-0.5,0.6-0.6h0.3V7.7z M209.8,107.8h-0.2
		c0,0.4,1.7,1.5,5.1,3.4c0.4,0,0.6-0.2,0.7-0.7v-0.9c-0.2,0-0.5,0.1-0.9,0.3c-1.4-0.5-2.1-0.9-2.1-1.2h-0.9L209.8,107.8z M212,79
		l-0.3,0.6c-1.2,0-1.8-0.7-1.8-2.1v-0.3C210.6,78.2,211.3,78.9,212,79z M210.1,44.2v1.2l0.6-0.3v-1.2L210.1,44.2z M211.4,85.6h-0.9
		v0.2c0.7,0,1.2,0.1,1.5,0.3h0.3v-0.3C212.1,85.9,211.8,85.8,211.4,85.6z M211.6,82h-0.9v-1.6h0.7L211.6,82z M211.1,43v0.3
		c0.5-0.8,1-1.2,1.2-1.2v-1.2C212,40.8,211.6,41.6,211.1,43z M212.9,4.4c0,0.4-0.2,0.6-0.6,0.6H212V4.6c0-0.3,0.2-0.5,0.7-0.6h0.2
		V4.4z M212.6,39.4l-0.7,0.3c0.3,0.8,0.6,1.2,0.9,1.2h0.3l-0.3-1.5H212.6z M213.2,56.7V57c-0.2,0-0.5,0.1-0.9,0.3
		c0-0.2-0.1-0.3-0.3-0.3l0.7-0.9C213,56.1,213.1,56.3,213.2,56.7z M212.9,60.1h-0.2c-0.4,0-0.7-0.2-0.7-0.7v-0.6h0.7
		C212.6,59.3,212.7,59.7,212.9,60.1z M213.5,5.5c-0.3,0.6-0.6,0.9-0.9,0.9h-0.3c0.5-0.8,0.9-1.2,1.2-1.2V5.5z M212.9,36v0.9h0.3
		c0.3,0,0.5-0.2,0.6-0.6V36H212.9z M214.1,43.3c0,0.4-0.2,0.6-0.6,0.6c-0.4,0-0.7-0.2-0.7-0.6c0.2,0,0.5-0.1,0.9-0.3
		C213.8,43.2,213.9,43.3,214.1,43.3z M213.8,54.9h-0.6v-0.3c0-0.3,0.2-0.5,0.6-0.6V54.9z M214.1,82.6l-0.3,0.6l-0.6-0.2l0.3-0.7
		L214.1,82.6z M213.5,37.8v1.6h0.2c0-0.2,0.1-0.5,0.3-0.9c-0.2,0-0.3-0.2-0.3-0.7H213.5z M214.7,49.1l0.3,0.6
		c-0.4,0.5-0.6,0.9-0.6,1.2h-0.9v-0.3c0-0.3,0.2-0.5,0.6-0.6l-0.3-1.5v-0.3h1.2C215,48.4,214.9,48.7,214.7,49.1z M215.3,5.3
		c0,0.4-0.2,0.6-0.7,0.6V4.6h0.7V5.3z M216.5,32.7c0,0.6-0.6,1.2-1.8,1.8v1.2h0.3c0-0.7,0.6-1.4,1.8-2.1v-0.9H216.5z M215.9,45.7
		h-0.3l-0.6-0.2c0.2-0.4,0.3-0.7,0.3-0.9h0.6V45.7z M216.3,94.5h-0.9v0.2c0.2,0,0.5,0.1,0.9,0.3h0.6
		C216.8,94.7,216.6,94.5,216.3,94.5z M217.7,2.5l-1.5,1.2c-0.4,0-0.7-0.2-0.7-0.6c0.3,0,0.9-0.3,1.9-0.9
		C217.5,2.4,217.6,2.5,217.7,2.5z M215.6,110l0.7,1.2c0.5,0,1.3-0.1,2.4-0.3l1.6,0.9v-0.3c0-0.2-0.6-0.6-1.8-1.2l-0.9,0.6h-0.7V110
		H215.6z M217.5,41.7c-0.8-0.3-1.2-0.6-1.2-0.9h1.2V41.7z M217.5,47.3v0.3l-0.7,0.9l-0.6-0.3c0-0.4,0.2-0.9,0.6-1.6
		C217.2,46.6,217.4,46.8,217.5,47.3z M217.7,4h-0.6c0-0.3,0.2-0.5,0.6-0.7h0.7C218.4,3.8,218.2,4,217.7,4z M217.2,100.8v0.7h1.2
		v-0.7H217.2z M217.7,35.7l-0.2,1.5h0.2l0.7-0.3c-0.2-0.7-0.3-1.1-0.3-1.2H217.7z M218.4,97.2c0,0.6-0.3,0.9-0.9,0.9v0.3h1.8
		C219,97.6,218.7,97.2,218.4,97.2z M218.6,95.4c-0.3,0-0.6,0.4-0.9,1.2c0.2,0,0.5,0.1,0.9,0.2c0-0.2-0.1-0.5-0.2-0.9
		c0-0.2,0.2-0.2,0.6-0.2v-0.3H218.6z M219.3,1.9L219,2.5l-0.6-0.2l0.2-0.7L219.3,1.9z M218.4,27.1v0.3h1.2v-0.6L218.4,27.1z
		 M220.2,35.7c0,0.4-0.2,0.6-0.7,0.6h-0.2V36c0-0.3,0.2-0.5,0.6-0.6h0.3V35.7z M222.4,1.3H222c-1,1.4-1.8,2.1-2.1,2.1h-0.3l0.3-0.6
		c0.4,0,1-0.7,1.8-2.1h0.7V1.3z M220.2,32.3l0.2,1.5h0.3v-0.2l-0.3-0.7l0.3-0.6V32L220.2,32.3z M220.2,95V96h0.9
		c-0.2-0.4-0.3-0.7-0.3-0.9H220.2z M221.7,40.3c0,0.4-0.2,0.6-0.6,0.6h-0.3v-0.2l0.3-0.7L221.7,40.3z M222,112.7l-0.6-0.2l-0.3,0.6
		h2.1l-0.3-0.6C222.7,112.5,222.4,112.5,222,112.7z M222.9,29v0.7c-0.2,0-0.5,0.1-0.9,0.3h-0.3v-0.7l0.3-0.6
		C222.4,28.9,222.7,29,222.9,29z M223.5,27.8h-0.6v-0.7c0.3-0.6,0.6-0.9,0.9-0.9h0.3C223.7,26.9,223.5,27.4,223.5,27.8z M225.1,25.3
		h-0.3l-0.6-0.3c0,0.2-0.1,0.3-0.3,0.3h-0.3c0.4-0.7,0.7-1.2,0.7-1.5h0.6L225.1,25.3z M224.4,20.1v0.3c0.2,0,0.5,0.1,1,0.3v-0.7
		H224.4z M226.6,19.9c-0.6,0-0.9,0.2-0.9,0.6l1.2-0.3v-0.2H226.6z M226.3,94.7c0,0.8-0.2,1.2-0.7,1.2v0.7c0,0.4,0.2,0.6,0.7,0.6
		c0-0.8,0.4-1.2,1.2-1.2C227,95.1,226.6,94.7,226.3,94.7z M226.9,99c-0.4,0.2-0.7,0.3-0.9,0.3v0.3h0.3c0.4-0.2,0.7-0.3,0.9-0.3V99
		H226.9z M226.9,92.3h-0.3l0.3-0.6l-0.3-0.7l0.7-0.2h0.6C227.6,91.8,227.3,92.3,226.9,92.3z M227.5,98.7v0.7h0.9V99
		C228.2,99,227.9,98.9,227.5,98.7z M229.3,93.8c0,0.6-0.2,1.1-0.6,1.6V96c0.6-0.3,0.9-0.6,0.9-0.9c0.4,0,0.7,0.3,0.7,0.9h0.2V95
		h-0.6c0-0.2,0.1-0.3,0.3-0.3C229.9,94.1,229.6,93.8,229.3,93.8z M229.9,78.1l-0.3,0.6l-0.6-0.3c0-0.3,0.2-0.5,0.6-0.6h0.3V78.1z
		 M230.9,6.2c0,0.2-0.4,0.2-1.2,0.2l0.3,0.7c0.2,0,0.5-0.1,0.9-0.3l0.6,0.3l0.3-0.7C231.5,6.4,231.2,6.4,230.9,6.2z M229.9,84.7V85
		l0.3,0.7l-0.3,0.6v0.3l0.6-0.3l-0.2-1.5H229.9z M231.2,90.2v1.6c-0.8,0.9-1.2,1.5-1.2,1.8v0.2l0.6-0.2l0.7,0.2
		c0.2-0.7,0.5-1.6,1.2-2.7v-1.2L231.2,90.2z M231.4,82.6c0,0.4-0.2,0.6-0.6,0.6h-0.3v-0.2c0-0.4,0.2-0.6,0.7-0.7h0.2V82.6z
		 M231.2,118.8h-0.7v-0.6h0.3c1-1.4,1.8-2.1,2.1-2.1h0.2C232.6,116.7,231.9,117.7,231.2,118.8z M233,81.4l-0.7,0.3l0.3,1.2h0.3
		l0.2-1.6H233z M232.7,7.7V8c0,0.3,0.6,0.7,1.8,1.2l0.9-0.7h0.7v0.9h0.6c0-0.2,0.1-0.5,0.3-0.9c-0.2,0-0.3-0.1-0.3-0.2
		c-0.5,0-1.3,0.1-2.4,0.2L232.7,7.7z M234.5,70.4c0,0.4-0.2,0.9-0.6,1.6c-0.4,0-0.7-0.2-0.7-0.7V71l0.7-0.9L234.5,70.4z M234.5,77.7
		h-1.2v-0.9C234.1,77.1,234.5,77.4,234.5,77.7z M234.5,117.3l-0.2,0.6l-0.7-0.3l0.3-0.6L234.5,117.3z M236.1,82.3
		c0,0.8-0.7,1.7-2.1,2.7v0.9h0.3c0-0.5,0.6-1.2,1.8-1.8v-0.9l0.2-0.6v-0.3H236.1z M235.1,116.1h-0.7c0-0.3,0.2-0.5,0.7-0.7h0.6
		C235.7,115.9,235.5,116.1,235.1,116.1z M235.7,73.1c-0.2,0.4-0.3,0.8-0.3,1h-0.6v-1.2h0.3L235.7,73.1z M237.2,116.3
		c-0.3,0-0.9,0.3-1.8,1c0-0.2-0.1-0.3-0.2-0.3l1.5-1.2C237,115.8,237.2,116,237.2,116.3z M235.7,31.1h-0.3v-0.6
		c0.2,0,0.5-0.1,0.9-0.3h0.3C236.3,30.8,236,31.1,235.7,31.1z M236.6,18.3h-0.9v0.9c0.3-0.2,0.8-0.2,1.5-0.2
		C237.2,18.6,237,18.4,236.6,18.3z M235.7,22.6v0.9h0.6c-0.2-0.4-0.2-0.7-0.2-0.9H235.7z M237.2,68c0,0.4-0.2,0.6-0.6,0.6l0.3,1.6
		v0.2h-1.2c0-0.2,0.1-0.5,0.3-0.9l-0.3-0.6c0.4-0.5,0.6-0.9,0.6-1.2h0.9V68z M236.3,21.7v0.6l2.1,0.7c0.3,0,0.5-0.2,0.7-0.7
		c-0.2,0-0.6-0.1-1-0.2l-1.2,0.2v-0.6H236.3z M238.1,24.1c0-0.6-0.5-0.9-1.5-0.9v0.3c0,0.4,0.8,0.9,2.5,1.2c0-0.2,0.1-0.5,0.2-0.9
		v-0.7L238.1,24.1z M237.5,32.9c-0.4-0.2-0.7-0.2-0.9-0.2v-0.3h0.9V32.9z M237.5,35.7l-0.3,0.6l-0.6-0.3l0.3-0.6L237.5,35.7z
		 M237.9,75.2c-0.2,0-0.5,0.1-0.9,0.3c0-0.2-0.1-0.3-0.3-0.3c0-0.3,0.2-0.5,0.6-0.6C237.6,74.7,237.8,74.9,237.9,75.2z M237,79.2
		c0,0.2-0.1,0.5-0.3,0.9c0.2,0,0.3,0.2,0.3,0.7h0.2v-1.6H237z M237.5,64c0,0.4-0.2,0.6-0.6,0.6v-0.9h0.6V64z M237.5,81.7
		c-0.4,0-0.6,0.2-0.6,0.6v0.3h0.9v-0.9H237.5z M237.2,8.6c0.2,0.4,0.3,0.7,0.3,0.9h0.9c0.7,0.6,1.4,1,2.1,1.2h0.9l0.6,0.3
		c0-0.2-0.3-0.5-0.9-0.9c-1.8-1-2.7-1.6-2.7-1.8L237.2,8.6z M238.8,61.6l-0.7,0.9c-0.4,0-0.6-0.2-0.6-0.6v-0.3
		c0.2,0,0.5-0.1,0.9-0.2C238.4,61.5,238.6,61.6,238.8,61.6z M237.9,77.7h-0.3l0.3,1.5h0.2l0.7-0.2C238.4,78.1,238.1,77.7,237.9,77.7
		z M238.1,114.9h-0.6v-0.6c0-0.4,0.2-0.6,0.6-0.7V114.9z M237.9,25v0.3c0,0.4,0.2,0.7,0.6,0.7v-1H237.9z M238.8,59.2v0.6h-0.7
		c0-0.4-0.1-0.9-0.2-1.2h0.2C238.5,58.5,238.7,58.7,238.8,59.2z M239.4,33.8v0.7h-0.2c-0.4,0-0.7-0.2-0.7-0.7v-0.2
		C238.8,33.7,239.1,33.8,239.4,33.8z M238.4,76.5v1.2c0.3,0,0.7-0.7,1.2-2.1v-0.3C239.1,76.1,238.7,76.5,238.4,76.5z M240.9,41.2
		v0.3c-0.8-1.2-1.5-1.8-2.1-1.8l0.3-0.7C240.3,39,240.9,39.7,240.9,41.2z M240,38.1h-0.7l-0.2-1.5h0.9V38.1z M239.4,114.3v-0.3
		c0.3-0.6,0.6-0.9,0.9-0.9h0.3C240.1,113.9,239.7,114.3,239.4,114.3z M240,20.8v1.5l0.6-0.2l-0.3-1.2H240z M240,24.8v0.9h0.6
		c-0.2-0.4-0.3-0.7-0.3-0.9H240z M240,73.4v1.2l0.6-0.3v-1.2L240,73.4z M240.9,114.9c0,0.4-0.2,0.6-0.7,0.6H240v-0.2
		c0-0.4,0.2-0.6,0.6-0.7h0.3V114.9z M244,42.7l-0.3,0.7c0.2,0,0.3,0.1,0.3,0.3v0.2c-0.6,0-0.9,0.4-0.9,1.2h-0.3
		c0-0.7-0.6-1.1-1.8-1.2c0-0.3,0.2-0.5,0.6-0.6h0.6v0.6h0.7c0-0.4,0.2-1,0.6-1.8C243.6,42.1,243.9,42.3,244,42.7z M245.5,112.7
		c-2,1.2-3.1,1.9-3.1,2.1l-1.2-0.3v-0.6c1.1,0,2.4-0.5,4-1.5h0.3V112.7z M241.5,24.8V26h0.6c-0.2-0.4-0.2-0.8-0.2-1.2H241.5z
		 M242.7,43.3c-0.6-0.2-0.9-0.8-0.9-1.8h1.2L242.7,43.3z M244,54.5c0-0.4-0.7-0.9-2.1-1.5c0,0.2,0.1,0.5,0.2,0.9l1.6,1.8h1.5v-2.1
		h-0.2v1.2h-0.3L244,54.5z M242.4,65.5h-0.6v0.9h1.2v-0.2C243.1,65.8,242.8,65.6,242.4,65.5z M242.1,62.2c0.3,0.6,0.7,0.9,1,0.9h0.2
		c0-0.2,0.1-0.5,0.3-0.9v-0.7C243.2,62,242.6,62.2,242.1,62.2z M243.3,112.1c0,0.4-0.2,0.6-0.6,0.6h-0.3v-0.9h0.3L243.3,112.1z
		 M244.6,37.5V39H244c0-0.6-0.3-0.9-0.9-0.9v-0.9c0.2,0,0.5-0.1,0.9-0.3C244.3,36.9,244.5,37.1,244.6,37.5z M244,11.1
		c0.4,0.5,0.6,0.9,0.6,1.2h0.3V12c-0.2-0.4-0.3-0.7-0.3-0.9H244z M244,77.4v0.9c0.3,0,0.5-0.2,0.6-0.6v-0.3H244z M245.1,29.6
		c0,0.2,0.1,0.3,0.3,0.3c0,0.2-0.1,0.5-0.3,0.9v0.2h0.3v-0.2h1.2C246.6,30.4,246.1,30,245.1,29.6z M245.5,12v0.6
		c0.2,0,0.5,0.1,0.9,0.3C246,12.3,245.7,12,245.5,12z M245.8,75c0,0.2-0.1,0.5-0.3,0.9v0.2h0.3c0-0.2,0.1-0.5,0.2-0.9V75H245.8z
		 M246.4,38.8v0.6c0.2,0.4,0.3,0.7,0.3,0.9h0.2v-0.3c-0.2-0.3-0.2-0.7-0.2-1.2H246.4z M248.5,10.7v0.3h-0.3l-0.9-0.7l0.3-0.6
		C248.2,10.1,248.5,10.5,248.5,10.7z M247.3,39v0.3c0,0.4,0.2,0.6,0.7,0.6v-0.2C247.9,39.3,247.7,39.1,247.3,39z M247.9,57.3
		c0,0.3-0.2,0.7-0.7,1.2v0.7c0.4,0,0.7-0.5,0.9-1.6v-0.2H247.9z M247.3,59.7l0.3,1.6h0.3v-1.6H247.3z M247.6,32.3v0.3
		c0,0.6,0.2,0.9,0.6,0.9l-0.2-1.2H247.6z M247.6,43.9v1.2h0.6l-0.2-1.2H247.6z M247.6,46.9v1.6h0.3v-1.6H247.6z M247.9,13.2v0.2
		c0.3,0,0.7,0.2,1.2,0.7l-0.2-1.2C248.4,13.1,248.1,13.2,247.9,13.2z M248.2,38.4v1.2h0.3v-1.2H248.2z M249.1,39.7v1.8l-0.2,0.6
		c0.4,0,0.6,0.8,0.6,2.5c0.3,0,0.5-0.2,0.6-0.7v-0.6l-0.2-1.8c0.2-0.4,0.2-0.7,0.2-0.9c-0.2-0.4-0.2-0.7-0.2-0.9H249.1z M250.3,45.5
		l-0.6-0.3c0,0.4,0.1,0.9,0.2,1.2l-0.2,0.6c0.2,0.8,0.2,1.6,0.2,2.5h0.3v-1.6l-0.3-1.2c0.3-0.4,0.6-0.6,0.9-0.6v-0.9L250.3,45.5z
		 M250,59.4v1l0.7-0.3C250.7,59.7,250.4,59.5,250,59.4z M250.9,95.4c-0.4,0-0.6,0.2-0.6,0.6v0.3c0.6-0.3,0.9-0.6,0.9-0.9H250.9z
		 M253.1,24.1h-0.2l0.6,1.2L254,25C253.7,24.4,253.4,24.1,253.1,24.1z M253.1,20.8v0.3c0.3,0.6,0.6,0.9,0.9,0.9v-0.3
		C253.7,21.1,253.4,20.8,253.1,20.8z M253.7,33.6v0.2h0.9v-0.2l-0.3-0.7C253.9,32.9,253.7,33.1,253.7,33.6z M255.9,23.2v0.3
		c0,0.6,0.2,0.9,0.6,0.9l-0.3-1.2H255.9z M256.4,24.8v0.6c0.7,2,1.4,3.5,2.1,4.3h0.2v-0.3l-1.8-4.5H256.4z M256.8,40.3
		c0,0.2-0.1,0.5-0.3,0.9v0.3l0.6-0.3v-0.9H256.8z M257.7,29.3v0.3c0,0.5,0.3,1.3,0.9,2.4c-0.2,1.1-0.3,1.7-0.3,1.8
		c0.6,0,1,0.4,1.2,1.2v0.3h-0.7v-0.6h-0.2v0.2c0.2,0.3,0.2,0.9,0.2,1.6c0.2,0,0.3-0.1,0.3-0.3c0.5,0,0.8,0.6,0.9,1.8h-0.6v1.2
		l0.6-0.3l0.7,0.3c0-0.2,0.2-0.3,0.6-0.3v-1.2l-1.8-4.5c-0.2-1-0.7-2.4-1.6-4H257.7z M257.9,46h-0.2c0.2,0.4,0.2,0.7,0.2,0.9
		l0.7-0.3C258.6,46.3,258.4,46.1,257.9,46z M257.9,49.4v1.2h0.7v-1.2H257.9z M260.1,26.6v0.3c-0.2,0-0.7-0.6-1.5-1.9v-0.2l0.2-0.7
		C259.2,24.1,259.6,24.9,260.1,26.6z M260.4,28.7V29h-0.7c0-0.2-0.1-0.5-0.2-0.9v-0.6C259.8,27.5,260.1,27.9,260.4,28.7z
		 M260.1,39.7v2.1l0.7-0.2h0.2v0.9c0,0.6-0.2,1.2-0.6,1.8l0.3,0.6l0.6-0.2l-0.3-0.7c0-0.3,0.2-0.5,0.7-0.6c-0.2-1-0.3-2.1-0.3-3.1
		c-0.2,0-0.3,0.1-0.3,0.3c-0.4,0-0.6-0.3-0.6-0.9H260.1z M261.6,29.3c0,0.4-0.2,0.7-0.7,0.7c0-0.2-0.2-0.9-0.6-2.1h0.6
		C261,28.1,261.2,28.6,261.6,29.3z M261.6,26c-0.4,0-0.7-0.2-0.7-0.7v-0.6h0.7V26z M261,45.1c0,0.2,0.1,1,0.3,2.5l0.6-0.3
		c0-0.8-0.1-1.5-0.2-2.1H261z M262.8,28.1v0.3h-0.2c-0.4,0-0.7-0.2-0.7-0.6v-0.3h0.3C262.5,27.5,262.7,27.7,262.8,28.1z M262.2,82.9
		v-0.7l2.7-2.7h0.3C264.7,80.9,263.7,82,262.2,82.9z M263.4,85.3l-0.7,0.9c-0.4,0-0.6-0.2-0.6-0.6v-0.3c0-0.3,0.2-0.5,0.6-0.6h0.7
		V85.3z M263.1,71c0,0.6-0.2,0.9-0.6,0.9l0.2,0.6c0.4,0,0.6-0.2,0.7-0.6V71H263.1z M263.1,48.5c0,0.7-0.1,1.2-0.3,1.5h0.3l-0.3,1.6
		c0.2,0.4,0.3,0.7,0.3,0.9h0.3c0-0.2,0.1-0.5,0.2-0.9c0-0.3-0.1-1.3-0.2-3.1H263.1z M262.8,57.9v1.2h0.3v-1.2H262.8z M265.6,85
		c-0.7,1.4-1.2,2.1-1.6,2.1h-0.3v-0.2l0.7-1v-0.6l-0.3-0.6l0.9-0.7l-0.2-0.6c0-0.3,0.2-0.5,0.6-0.6L265.6,85z M264,61.6v0.3
		c0,0.4,0.2,0.6,0.7,0.6v-0.9H264z M265.3,35.7V36h-0.3l-0.6-0.2l0.3-0.7C265,35.1,265.2,35.3,265.3,35.7z M266.2,76.5
		c-0.5,0.8-0.9,1.2-1.2,1.2h-0.6v-0.3c0.8-0.4,1.2-1,1.2-1.8h0.2C265.8,75.8,265.9,76.1,266.2,76.5z M265.8,37.2l-0.2,0.6l-0.7-0.2
		l0.3-0.7L265.8,37.2z M265.8,82h-0.6v-0.3c0-0.3,0.4-0.6,1.2-0.9h0.2C266.5,81.6,266.2,82,265.8,82z M266.5,46.6v1h-0.7
		c0-0.2-0.1-0.5-0.2-1v-0.2C266,46.5,266.3,46.6,266.5,46.6z M267.4,71.9v0.6c0,0.4-0.2,0.6-0.7,0.6h-0.2v-1.2l0.2-0.7
		C267.1,71.3,267.4,71.5,267.4,71.9z M267.1,78.3h-0.6l0.2-1.2h0.7L267.1,78.3z M268.9,67.1c-0.9,1.6-1.5,2.4-1.8,2.4h-0.3v-0.2
		c0.6-0.5,0.9-1.4,0.9-2.5c0.8,0,1.6-0.6,2.5-1.8h0.3C270.5,66.4,269.9,67.1,268.9,67.1z M268.3,73.4c0,1-0.3,1.6-0.9,1.8h-0.3V75
		c0.4-0.5,0.6-1.2,0.6-2.1h0.7V73.4z M269.2,70.4c-0.2,0.4-0.3,0.7-0.3,0.9h-0.6v-0.6l0.2-0.6L269.2,70.4z M270.7,63.4h-0.6v-1.2
		h0.6V63.4z M271,52.5h-0.6v-0.9h0.6V52.5z"/>
</g>
</svg>
