<?xml version="1.0" encoding="utf-8"?>
<!-- Generator: Adobe Illustrator 24.1.1, SVG Export Plug-In . SVG Version: 6.00 Build 0)  -->
<svg version="1.1" id="Layer_1" xmlns="http://www.w3.org/2000/svg" xmlns:xlink="http://www.w3.org/1999/xlink" x="0px" y="0px"
	 viewBox="0 0 213.2 119.6" style="enable-background:new 0 0 213.2 119.6;" xml:space="preserve">
<style type="text/css">
	.st0{enable-background:new    ;}
</style>
<g class="st0">
	<path d="M0,57h0.3c0.4,0.1,0.6,0.3,0.6,0.7v0.9H0.3C0.3,57.9,0.2,57.3,0,57z M18.1,0.9h0.3c0.2,0,0.8,1,1.8,3.1v0.7
		c0,0.2-0.1,0.3-0.3,0.3c0.4,1,0.7,2.8,0.7,5.4v7.7h0.6l-0.6,1v0.2c0,0.2,0.1,0.3,0.3,0.3l-0.3,0.6v0.3l0.9,1.2
		c-0.4,0.2-0.7,0.3-0.9,0.3v0.6l0.6,0.9h-0.6v0.3c0.8,0,1.2,0.7,1.2,2.1c0.2,0,0.2,0.2,0.2,0.6c-0.2,0-0.2,0.1-0.2,0.3l-0.7-0.3
		h-0.2c0,0.4,0.3,0.7,0.9,0.7v1.8l0.6,0.9c-0.2,0-0.3,0.1-0.3,0.3l1.6,0.9c0-0.2,0.1-0.3,0.3-0.3v1.2l0.6,0.3c0-0.3,0.2-0.7,0.7-1.2
		c-0.2,0-0.3-0.1-0.3-0.3l0.6-0.2l0.3,0.6v0.3l-0.3,0.6c0.2,0,0.3,0.1,0.3,0.3l-1.8,1.2c0.2,0.3,0.2,0.7,0.2,1.2h0.7v-0.7h0.3
		c0.5,0.4,1,0.7,1.5,0.7v0.2c-1,0-1.5,0.2-1.5,0.7c0.4,0.1,0.6,0.2,0.6,0.6v0.7c-0.4,0-0.6,0.2-0.6,0.6h-0.3v-1.5h-0.3
		c0,0.6-0.1,0.9-0.3,0.9c0.2,0.4,0.3,0.7,0.3,0.9c0,1-0.3,1.5-0.9,1.5c0,0.3,0.5,0.7,1.6,1.2h0.6c-0.6-0.7-0.9-1.2-0.9-1.5
		c0.4-0.7,0.6-1.2,0.6-1.6H27v0.9l-0.7-0.2h-0.6v1.2c0.8,0.1,1.2,0.4,1.2,1c-0.7,0-1.1,0.7-1.2,2.1l0.6,0.2l-0.2,1.6l0.2,1.5h-0.2
		l0.2,0.7c0,0.4-0.2,0.6-0.6,0.6l0.3,0.7v0.2l-0.3,0.7c0.6,0,0.9,0.2,0.9,0.6c-0.4,0.1-0.6,0.3-0.6,0.7v2.7l1.2,0.3
		c0-0.2,0.1-0.3,0.2-0.3l-0.2-0.6v-0.3l0.2-0.6h-0.2c-0.4,0.2-0.8,0.2-1,0.2v-0.2c0.5-1,1-1.6,1.2-1.6L27,46c0.5,0,1-0.3,1.5-0.9
		v0.7l-0.6,0.9c0.4,0.1,0.6,0.2,0.6,0.6c-0.4,0.1-0.6,0.3-0.6,0.7c0,0.4,0.2,1.1,0.6,2.1c-0.2,0.6-0.4,0.9-0.6,0.9
		c0.2,2,0.7,3.1,1.6,3.1l0.6-0.3l0.6,0.3c0.4-0.2,0.8-0.3,1-0.3V54l0.6-0.3h0.3v0.7l3.4-0.7l0.6,0.3c0.4-0.2,0.7-0.3,0.9-0.3V54
		c1.4-0.4,2.1-1,2.1-1.6c-0.2-0.4-0.2-0.7-0.2-0.9l0.2-1.2l-0.2-1.8h0.2l-0.2-0.6v-0.7c0.1-0.4,0.2-0.6,0.6-0.6l0.6,0.3v-1.2
		L40.2,45h0.6v-1.5h-0.6c0,0.6-0.2,0.9-0.7,0.9v-0.7c0-0.2,0.1-0.2,0.3-0.2l-0.3-0.7c0-2.4,0.2-4,0.7-4.9c-0.2-0.4-0.3-0.8-0.3-1.2
		l0.6-0.3l-0.2-0.6c0-0.1,0.1-1.4,0.2-4l-0.2-1.6l0.6-0.3l-0.3-0.6c0-0.2,0.1-0.5,0.3-0.9L40.4,27c0.2-0.3,0.3-0.7,0.3-1.2h-0.6
		v-0.9h0.6v-2.5c0-0.2,0.1-0.2,0.3-0.2c0-0.2-0.1-0.3-0.3-0.3c0.4-2.6,0.7-4,0.9-4l-0.2-0.7c0.9-5.1,1.8-7.7,2.7-7.7l-0.6-0.9
		c0.2-1.4,0.5-2.1,0.9-2.1v1.8l-0.3,0.7l0.6,0.3c-0.2,2.1-0.4,3.3-0.6,3.6v0.3h0.3l2.4-10.7l-0.2-0.7V1.6h0.6c0.4,0,0.7,0.3,0.7,0.9
		c-0.2,1-0.3,1.7-0.3,1.8L47.9,5c-0.4,1-0.7,1.8-0.7,2.4V8h0.3c0.7-4.5,1.2-6.8,1.5-6.8h0.7c0.4,0.1,0.6,0.2,0.6,0.6
		c-0.4,2.1-0.6,3.4-0.6,4v0.2H50C50.2,4.7,50.5,4,50.9,4l0.6,0.3c0-0.2,0.1-0.3,0.3-0.3l0.3,0.7c0,0.4-0.1,0.9-0.3,1.2
		c0.2,0.3,0.3,1,0.3,2.1h0.2c0.4-2.7,0.9-4,1.2-4H54c-0.3,1.9-0.5,3.2-0.7,3.7H54c0-0.5,0.1-1.3,0.3-2.5h0.2l0.7,0.3l0.2-2.1h0.7
		c0,1-0.2,1.6-0.7,1.6c0,0.2,0.1,0.2,0.3,0.2l-0.6,5v0.9h0.2c0-2,0.4-3.1,1.2-3.1c0-0.2-0.1-0.3-0.2-0.3C56.8,6.8,57,6.2,57,5.9h0.9
		l-0.3,3.1c0.4,0,0.9,0.3,1.6,0.9h0.3c0.1-1.8,0.7-2.7,1.8-2.7l0.3,0.6v3.7h0.6c0-0.7-0.1-1-0.3-1l0.3-1.5V7.7h0.7
		c0,1.2,0.5,1.8,1.5,1.8c0-1.2,0.2-1.8,0.7-1.8c0,1.4,0.4,2.1,1.2,2.1c0,0.4-0.2,0.6-0.6,0.6c0-0.2-0.1-0.2-0.3-0.2
		c0,0.4,0.2,1.1,0.7,2.1l-0.7,1.2h1.2c0-0.4-0.2-1-0.6-1.9l0.9-0.6l0.6,2.7c0,0.2-0.1,0.3-0.2,0.3l0.2,1.6v2.1h0.7v0.6
		c-0.2,0-0.3-0.1-0.3-0.3l-0.6,0.3h-0.3c-0.2-1-0.3-2.3-0.3-4c-0.4,0-0.6,0.3-0.6,0.9c0.2,1.4,0.2,2.3,0.2,2.5
		c-0.2,0-0.2,0.1-0.2,0.2c0.4,0.1,0.6,0.3,0.6,0.7l-0.3,0.6h0.3l0.7-0.2c0.3,0.6,0.6,1.8,0.9,3.6c-0.3,0.2-0.9,0.3-1.6,0.3l0.3,1.5
		v2.1c0,0.2-0.1,0.3-0.3,0.3l0.7,1.2c-0.4,1-0.7,1.9-0.7,2.5c0.4,0.1,0.7,0.2,0.7,0.6c-0.4,0.1-0.7,0.3-0.7,0.7
		c0.4,0.1,0.7,0.2,0.7,0.6v0.6c-0.6-0.6-1.1-0.9-1.6-0.9l0.6-3.6C65.9,28.5,65.5,28,65,27v-0.3h0.2c0.4,0.2,0.7,0.3,0.9,0.3
		l-0.2-0.6v-0.3l0.2-0.6c-1.2-0.7-1.9-1-2.1-1h-0.2v0.3c0.6,0,0.9,0.2,0.9,0.7v2.7l0.6,0.9c-0.4,0.2-0.7,0.3-0.9,0.3l0.3,0.6v0.3
		l-0.3,0.6c0.4,0.1,0.7,0.3,0.7,0.7c0,0.2-0.1,0.3-0.3,0.3c0,0.2,0.1,0.2,0.3,0.2l-0.3,1.6l0.3,1.5l-0.7,0.3
		c0.1,1.4,0.5,2.1,1.2,2.1c0,0.6-0.4,0.9-1.2,0.9v1.2H65l0.6-0.3v1H64l-0.6-2.1c0.3,0,0.6-0.3,0.9-1h-0.6c-1,0.5-1.6,1-1.6,1.2
		c0.6,0,0.9,0.7,0.9,2.1h-0.2c0.2,0.3,0.2,1,0.2,1.9h0.3v-2.1h0.3c0,0.4,0.2,0.6,0.6,0.6v0.6l-0.6,1c0.3,0.2,0.8,0.2,1.5,0.2v0.3
		c-0.5,0-1,0.2-1.5,0.6h-0.3v-0.6h-0.6c0,0.6-0.1,0.9-0.3,0.9c0,0.4,0.6,0.9,1.8,1.6V46H64l0.3,0.7v0.3c0,0.4-0.2,0.6-0.6,0.6
		l-0.3-0.6h0.3l-0.7-1.2c-0.6,0.2-0.9,0.4-0.9,0.6c0.2,0.4,0.3,0.7,0.3,0.9c-0.2,0-0.3-0.1-0.3-0.2c-0.9,0.4-1.4,0.8-1.5,1.2
		c0.2,0,0.2,0.1,0.2,0.3c-0.4,0.1-0.6,0.3-0.6,0.7v0.6H61v-1.2h0.7c0,0.4,0.6,1.2,1.8,2.5c-0.4,0.1-0.6,0.2-0.6,0.6l1.5,0.3
		c0-1.2,0.2-1.8,0.7-1.8h0.2v2.1h0.9c0,0.4-0.2,0.6-0.6,0.6c0-0.2-0.1-0.3-0.3-0.3c0,0.4,0.2,1.2,0.7,2.1l-0.7,1.2h1.2
		c0-0.3-0.2-0.9-0.6-1.8l0.9-0.6c0.2,0.4,0.4,1.3,0.6,2.7c0,0.2-0.1,0.3-0.2,0.3l0.2,1.5v2.1c0.6,0,0.9,0.2,0.9,0.7l-0.6,0.9h0.6
		l1.6-1.2h0.3V61c0,0.2-0.1,0.3-0.3,0.3c0.2,0.4,0.3,0.7,0.3,0.9h0.2l0.3-1.2h0.7v0.7l-0.7,0.9c0.4,0.1,0.7,0.2,0.7,0.6
		c0,0.2-0.1,0.3-0.3,0.3l0.3,0.7l-1.6,1.8l0.6,0.3c0-0.2,0.1-0.3,0.3-0.3c0.2,0.3,0.3,0.9,0.3,1.8l0.9-0.6v0.2
		c0,0.4-0.7,0.8-2.1,1.2l-1.2-0.6c0,0.4-0.2,0.6-0.6,0.6h-0.3l-0.6-0.2c-0.2,0.6-0.4,0.9-0.7,0.9l0.7,1.2l0.6-0.3
		c1.3,0.4,2,0.6,2.1,0.6l0.6-0.9c0.4,0.2,0.9,0.3,1.6,0.3v0.6h-0.6l0.2,0.7v0.2h-0.2l-1-0.6h-0.2v0.3l0.6,1.2l-0.6,0.2
		c-0.4,0-0.7-0.2-0.7-0.6c0-0.2,0.1-0.3,0.3-0.3c-0.2-0.4-0.3-0.7-0.3-0.9h-0.2c0,0.7-0.1,1.2-0.3,1.6c0.2,0,0.3,0.1,0.3,0.2
		l-0.7,0.3h-0.3L67.2,72v0.3c0.2,0.3,0.2,0.8,0.2,1.5l-0.6,0.3l0.3,0.7v0.6c-1.3-0.5-1.9-1-1.9-1.2c0.4,0,0.7-0.2,0.7-0.6v-0.3h-0.3
		c-0.2,0-0.5,0.3-0.9,0.9c0,0.2,0.1,0.3,0.3,0.3L64.7,76l0.3,1.6c-0.4,0.1-0.7,0.2-0.7,0.6h0.9c0-0.6,0.4-0.9,1.2-0.9V77l-0.6-1h0.6
		c0.4,0.2,0.7,0.3,0.9,0.3v0.3c-0.4,0.8-0.9,1.2-1.5,1.2v0.2c1,0.1,1.5,0.4,1.5,1c-0.4,0-0.6,0.1-0.6,0.2l-0.7-0.2
		c-0.3,0.2-0.7,0.2-1.2,0.2V80h0.6c0,0.6-0.4,0.9-1.2,0.9v1.2H65l0.6-0.3v0.9H64l-0.6-2.1c0.3,0,0.6-0.3,0.9-0.9h-0.6
		c-1,0.6-1.6,1-1.6,1.2c0.6,0,0.9,0.7,0.9,2.1h-0.2c0.2,0.3,0.2,0.9,0.2,1.8h0.3v-2.1h0.3c0,0.4,0.2,0.7,0.6,0.7V84l-0.6,0.9
		c0.3,0.2,0.8,0.3,1.5,0.3v0.3c-0.5,0-1,0.2-1.5,0.6h-0.3v-0.6h-0.6c0,0.6-0.1,0.9-0.3,0.9c0,0.4,0.6,0.9,1.8,1.5v0.3H64l0.3,0.7
		v0.2c0,0.4-0.2,0.7-0.6,0.7l-0.3-0.7h0.3L63.1,88c-0.6,0.2-0.9,0.4-0.9,0.7c0.2,0.4,0.3,0.7,0.3,0.9c-0.2,0-0.3-0.1-0.3-0.3
		c-0.9,0.4-1.4,0.8-1.5,1.2c0.2,0,0.2,0.1,0.2,0.3c-0.4,0.1-0.6,0.2-0.6,0.6v1.9c-0.6,0-0.9,0.2-0.9,0.6h0.2l0.7-0.3l0.3,0.7
		c-0.4,1.6-0.9,2.4-1.2,2.4h-0.3v0.3h0.6l-0.6,0.9v0.7c0.6,0,0.9,0.2,0.9,0.6c-0.3,0-0.6,0.3-0.9,0.9v0.3c0,0.2,0.1,0.3,0.3,0.3
		l-0.3,0.6v0.3l0.6,0.9h-0.6v7.7c0,3.5-0.2,5.2-0.6,5.2l0.2,0.6v0.7c-1,2-1.6,3.1-1.8,3.1h-0.3V118l-0.2-1.5h-0.3
		c0,0.8-0.1,1.7-0.3,2.5h-0.6v-0.3c0-0.3,0.1-1.6,0.2-3.7l-0.6,0.3c0-0.4-0.2-0.6-0.6-0.6H54l0.3,0.6l-0.7,0.3l-0.3-0.7l0.3-0.6
		c-0.1-1-0.4-1.6-0.9-1.6v-0.2l0.3-0.7h-1.6l0.7-0.9v-0.3h-0.3v0.7c-0.4,0-0.7-0.2-0.7-0.7c0.5-0.4,0.9-0.6,1.2-0.6v-0.3
		c-0.8,0-1.2-0.2-1.2-0.6v-0.7l0.3-0.6l-0.6-0.3c0-0.4,0.2-1.2,0.6-2.5c-0.2,0-0.3-0.1-0.3-0.2c0.2,0,0.3-0.1,0.3-0.3l-0.6-0.3h-0.3
		v3.4c0,0.2-0.1,0.3-0.3,0.3c0,0.2,0.1,0.3,0.3,0.3l-0.3,1.5v1.6c0,0.2,0.1,0.2,0.3,0.2c-0.2,2.3-0.5,3.4-0.9,3.4H49
		c0.2-1.8,0.3-2.9,0.3-3.4L49,111l0.3-0.6l-0.3-0.7l0.3-0.6l-0.3-1.9c0.2,0,0.3-0.1,0.3-0.2c-0.4,0-0.6-0.2-0.6-0.7
		c0.2,0,0.2-0.1,0.2-0.2h-1.2v1.8h-0.3l-0.7-0.3l-0.2,0.7h0.6v0.6c-0.7,0.2-1.1,0.3-1.2,0.3v-0.3c0-0.2,0.1-0.3,0.3-0.3l-0.3-0.6
		v-0.3h0.7l-0.9-1.5c0.4,0,0.6-0.2,0.6-0.7v-0.6c-0.5,0-0.8-0.6-0.9-1.9H45c-0.3,1.5-0.7,4.8-1.2,9.8c0,0.2,0.1,0.3,0.3,0.3
		c-0.2,0.8-0.3,1.5-0.3,2.1h-0.6v-0.9c0-0.2,0.1-0.3,0.3-0.3c-0.2-0.4-0.3-0.7-0.3-0.9l0.3-1.2l-0.3-0.6c0.2-0.6,0.4-0.9,0.6-0.9
		l-0.2-0.7c0-0.2,0.1-0.3,0.2-0.3l-0.2-0.6v-2.5c0-0.2,0.1-0.2,0.2-0.2l-0.2-0.7l0.2-0.6c-0.2-0.4-0.2-0.7-0.2-0.9h0.2
		c0-0.2-0.1-0.3-0.2-0.3c0.2-1.9,0.4-3.2,0.6-3.7V99h0.3l-0.7-0.9c0.1-0.4,0.3-0.6,0.7-0.6c-0.4-1-0.7-1.8-0.7-2.1h0.3l-0.3-0.7
		c0-0.2,0.1-0.3,0.3-0.3l-0.3-0.6v-0.3h0.7c-0.4-0.7-0.7-1.5-0.7-2.4h0.7v-1.2l-0.7-0.9v-0.3c0.6,0,0.9-0.3,0.9-0.9h-0.2l0.2-0.7
		c0-0.4-0.2-0.6-0.6-0.6c0,0.2-0.1,0.3-0.3,0.3l-0.2-0.7c0.8,0,1.2-0.2,1.2-0.6v-0.9c0-0.2-0.1-0.3-0.2-0.3c0.2-1.3,0.4-1.9,0.6-1.9
		l-0.3-0.6c0-0.2,0.1-0.3,0.3-0.3l-0.3-0.6v-0.3l0.3-1.5c-1.1,0.2-1.9,0.2-2.5,0.2c0.1,0.4,0.3,0.7,0.7,0.7c0.4-0.2,0.7-0.3,0.9-0.3
		l0.3,0.6c0,0.6-0.2,1.2-0.7,1.9c0.4,0.1,0.7,0.2,0.7,0.6c-0.4,0.1-0.7,0.3-0.7,0.7l0.7,0.2c-0.3,0.8-0.6,1.2-0.9,1.2l0.2,0.7
		c0,0.3-0.3,0.6-0.9,0.9v-0.7h-0.3c0,0.6-0.3,1.5-0.9,2.8c0.2,0,0.3,0.1,0.3,0.3c-0.6,0.2-0.9,0.4-0.9,0.6v2.1h0.3v-1.8H42v2.4h-0.9
		v1l0.6-0.3c0.4,0.1,0.7,0.2,0.7,0.6L42,94.1h0.3l0.6-0.3l0.3,0.6v1.2c0,0.4-0.2,0.7-0.7,0.7h-0.2l0.2-0.7v-1.2h-0.9V95h-1.2v-2.1
		c0-0.5,0.1-0.9,0.3-1.2c-0.4-0.8-0.6-1.4-0.6-1.8h-0.3v0.9c0,0.2,0.1,0.3,0.3,0.3l-0.3,1.5v0.7c0,0.4,0.1,0.8,0.3,1.2
		c-0.2,0.4-0.3,0.8-0.3,1.2h0.6v0.7c-0.4,0-0.6,0.3-0.6,0.9h-0.6l0.2-1.2l-0.2-0.6c0.2-0.4,0.2-0.8,0.2-1.2l-0.2-0.7
		c0.2-0.4,0.2-0.7,0.2-0.9l-0.2-1.8h0.2l-0.2-0.7v-0.6c0.1-0.4,0.2-0.6,0.6-0.6l0.6,0.2V88l-0.2-0.6h0.6v-1.6h-0.6
		c0,0.7-0.2,1-0.7,1v-0.7c0-0.2,0.1-0.3,0.3-0.3l-0.3-0.6c0-2.4,0.2-4,0.7-5c-0.2-0.3-0.3-0.7-0.3-1.2l0.6-0.3l-0.2-0.7v-4
		c-0.4,0.2-0.7,0.3-0.9,0.3v-0.3c-0.9,0.4-1.5,0.7-1.9,0.7v-0.3c-2.7,0.8-4.3,1.4-4.9,1.8c-0.4-0.2-0.8-0.3-1.2-0.3
		c0,0.7-4,1.3-11.9,2.1L0.9,76.6V76h0.7v1h0.6v-1.6H1.6l0.2-0.6v-1.2l-0.6,0.2c-0.4,0-0.7-0.2-0.7-0.6v-0.6c0-0.2,0.1-0.3,0.3-0.3
		l-0.3-0.7l0.3-1.5l-0.3-1.6l0.3-0.6c-0.2-0.4-0.3-0.8-0.3-1.2c0-0.2,0.1-0.3,0.3-0.3l-0.3-0.6v-0.3h0.7c0,0.7,0.5,1.4,1.5,2.1v-0.6
		h1v1.2H4v-1.6H3.7L4,66.3v-0.7H3.7c-0.4,0.1-0.7,0.3-0.7,0.7l-0.6-0.3l-0.7,0.3c0-0.2-0.1-0.3-0.2-0.3l0.2-2.1v-0.3
		c0-0.4-0.2-0.6-0.6-0.6v1.5H0.6v-1.2c0-0.2,0.1-0.2,0.3-0.2c-0.4-0.9-0.6-2-0.6-3.1h0.2l1,0.6c0-0.2,0.1-0.3,0.2-0.3l0.3,0.7
		c-0.5,0.4-0.9,0.6-1.2,0.6L1.2,62l0.6-0.3c0.4,0,0.7,0.3,0.7,0.9l-0.3,0.6c0.2,0.4,0.3,0.8,0.3,1.2v0.3l-0.3,0.6h0.3
		c0.5-0.6,0.9-0.9,1.2-0.9v-0.2c-0.6,0-0.9-0.4-1-1.2V62H2.5v-0.7c0-0.4,0.1-0.9,0.2-1.2c-0.2-0.4-0.2-0.7-0.2-0.9h0.2
		c-0.2-0.4-0.4-1.3-0.6-2.7h0.3l-0.3-0.7v-2.4H1.6v-1h0.6c-0.2-1-0.3-1.7-0.3-1.8c0.2-0.4,0.3-0.7,0.3-0.9c-0.2-0.3-0.3-0.7-0.3-1.2
		c0.2,0,0.3-0.1,0.3-0.3l-0.6-0.2c0-0.2,0.1-0.8,0.2-1.9c0-0.1-0.1-1.4-0.2-4c0.2,0,0.2-0.1,0.2-0.3c-0.4,0-0.6-0.3-0.6-0.9
		c0-0.2,0.1-0.2,0.3-0.2c-0.4-1.6-0.7-3.4-0.7-5.3C0.9,35.1,1,35,1.2,35l-0.3-0.7v-0.6h0.7v0.9h0.6v-1.6H1.6l0.2-0.6v-1.2l-0.6,0.3
		c-0.4,0-0.7-0.2-0.7-0.7v-0.6c0-0.2,0.1-0.3,0.3-0.3l-0.3-0.6c0-0.2,0.1-0.8,0.3-1.8L0.6,27c0.2-0.3,0.3-0.7,0.3-1.2l-0.3-0.6
		c0.2-0.4,0.3-0.7,0.3-0.9c-0.2-0.4-0.3-0.7-0.3-0.9h0.7c0,0.6,0.2,0.9,0.6,0.9v0.6H1.2c0,0.6,0.1,0.9,0.3,0.9l-0.3,1.6v0.6
		c0,0.5,0.1,0.9,0.3,1.2c-0.2,0.4-0.3,0.8-0.3,1.2v0.3h0.3c0-1,0.2-1.6,0.6-1.6l-0.3-1.5v-2.1h1.2v0.6H4v-1.2l-0.2-0.6H4
		c0.4,0.1,0.7,0.2,0.7,0.6v1.2l-0.3,0.6l-0.6-0.2H3.4L3.7,27c0,0.4-0.2,0.7-0.7,0.7l-0.6-0.3v0.9h0.9v2.5H2.7v-1.9H2.5
		c0,1.7,0.1,2.5,0.2,2.5c0.4,0.1,0.7,0.3,0.7,0.7H3.1C3.7,33.2,4,34.1,4,34.7h0.3v-0.6c0.3,0,0.6,0.3,0.9,0.9l-0.3,0.6
		c0.3,0,0.7,0.4,1,1.2c-0.4,0.1-0.7,0.2-0.7,0.6c0.4,0.1,0.7,0.3,0.7,0.7l-0.7,0.3c0.4,0.7,0.7,1.3,0.7,1.8c0,0.4-0.2,0.6-0.7,0.6
		c-0.4-0.2-0.7-0.2-0.9-0.2L4,41.1c0.5,0,1.4,0.1,2.5,0.3l-0.3-1.6v-0.3c0-0.2,0.1-0.2,0.3-0.2l-0.3-0.7c0-0.2,0.1-0.2,0.3-0.2
		c-0.2-1.3-0.4-1.9-0.6-1.9l0.2-0.6V35c0-0.4-0.4-0.7-1.2-0.7c0.1-0.4,0.3-0.6,0.7-0.6c0,0.2,0.1,0.3,0.3,0.3l0.2-0.7l-0.2-0.6h0.2
		c0-0.6-0.3-0.9-0.9-0.9v-0.3l0.7-0.9v-1.2H5.2c0-0.9,0.2-1.7,0.7-2.5H5.2v-0.3c0-0.2,0.1-0.2,0.3-0.2l-0.3-0.7
		c0-0.2,0.1-0.2,0.3-0.2c0-0.2-0.1-0.3-0.3-0.3c0-0.4,0.2-1.1,0.7-2.1c-0.4,0-0.7-0.2-0.7-0.7l0.7-0.9c-0.4,0-0.7-0.1-0.7-0.2
		c0-0.2,0.1-0.3,0.3-0.3l-0.7-4h0.3l-0.3-0.7l0.3-0.6c-0.2-0.4-0.3-0.7-0.3-0.9h0.3l-0.3-0.7v-2.5c0-0.2,0.1-0.2,0.3-0.2l-0.3-0.7
		c0-0.2,0.1-0.3,0.3-0.3L4.6,9.2l0.2-0.7L4.6,6.8h0.2L4.6,6.1V5.2h0.6c0,0.9,0.1,1.6,0.3,1.9c0,0.2-0.1,0.2-0.3,0.2
		c0.5,6.8,1,10.1,1.6,10.1c0.1-1.2,0.4-1.8,0.9-1.8V15L7,14.1c0.3,0,0.7-0.4,1-1.2H7.3v-0.2c0-0.2,0.1-0.3,0.3-0.3l-0.3-0.7v-0.2
		h0.3c0.4,0.2,0.7,0.2,0.9,0.2v0.7H8l0.2,0.6l0.7-0.2h0.2v1.8h1.2l-0.2-0.7l0.6-0.2c-0.2-0.4-0.3-0.7-0.3-0.9l0.3-1.2l-0.3-0.7
		l0.3-0.6c0-0.2-0.1-0.3-0.3-0.3l0.3-1.6l-0.3-2.7h0.7c0.3,0,0.6,1,0.9,3.1l-0.3,0.7v1.5l0.3,1.6h-0.3l0.3,0.6v3.4h0.3
		c0.4,0,0.6-0.2,0.6-0.6c-0.2,0-0.3-0.1-0.3-0.3h0.3c-0.4-1.3-0.6-2.1-0.6-2.5l0.6-0.2L12.5,12v-0.6c0-0.4,0.4-0.7,1.2-0.7v-0.3
		c-0.8,0-1.2-0.3-1.2-0.9l0.7-0.2v0.6h0.2V9.2c-0.4,0-0.6-0.2-0.6-0.7h1.6L14.1,8V7.7c0.5,0,0.8-0.5,0.9-1.6
		c-0.2-0.4-0.3-0.7-0.3-0.9L15.3,5l0.2,0.6c-0.2,0-0.2,0.1-0.2,0.3h0.2l1-0.7c0,0.2,0.1,0.3,0.2,0.3V5.2l-0.2-3.6h0.6
		c0.2,0.8,0.3,1.6,0.3,2.4h0.2l0.3-1.5V0.9z M0.3,17.8h0.2l0.7,0.2l-0.3,0.7l0.3,1.5h0.3v-0.9h0.2c0.4,0.1,0.7,0.3,0.7,0.7
		c-0.4,0-0.7,0.3-0.7,0.9l-0.6-0.3v1.6H0.6v-1.2c0-0.2,0.1-0.3,0.3-0.3C0.5,19.6,0.3,18.7,0.3,17.8z M1.2,31.9l0.3,0.6v0.3H1.2
		c-0.4,0-0.7-0.2-0.7-0.7L1.2,31.9z M1.2,74.2l0.3,0.7v0.2H1.2c-0.4,0-0.7-0.2-0.7-0.6L1.2,74.2z M1.2,67.2c0.2,0.3,0.3,1,0.3,2.1
		h0.2v-2.1H1.2z M1.6,70.5l-0.3,2.1v0.2h0.3l0.6-2.1L1.6,70.5z M2.1,22.7l0.3,0.7c0,0.4-0.2,0.6-0.7,0.6l-0.2-0.6
		C1.6,22.9,1.8,22.7,2.1,22.7z M1.8,20.9c0.4,0.1,0.7,0.2,0.7,0.6v0.7H1.8V20.9z M3.1,18.1l0.3,0.7v0.3c0,0.4-0.2,0.6-0.7,0.6H2.5
		v-0.9C2.5,18.3,2.7,18.1,3.1,18.1z M2.5,33.7c0.2,0.3,0.2,0.8,0.2,1.5c0.4,0,0.7-0.2,0.7-0.6v-0.3c0-0.4-0.2-0.6-0.7-0.6H2.5z
		 M3.1,69.9l-0.6-0.3v1c0.8,0,1.2,0.5,1.2,1.5H4c0-0.8,0.2-1.2,0.7-1.2c0,0.6,0.2,0.9,0.6,0.9l-0.3,1.6H4.6c-0.4,0-0.7-0.2-0.7-0.6
		c0.2,0,0.3-0.1,0.3-0.3H3.4v0.6H2.7v-1.8H2.5c0,1.7,0.1,2.5,0.2,2.5c0.4,0.1,0.7,0.2,0.7,0.6H3.1l0.6,1.2h0.1
		c0-0.1-0.1-0.2-0.2-0.4L4.3,77v-0.7c0.3,0,0.7,0.1,1.2,0.2l0.2,0.1c0,0.1-0.3,0.1-0.8,0.1C5,76.2,5.2,76,5.5,76
		c0,0.2,0.1,0.3,0.3,0.3l0.2-0.6l-0.2-0.7h0.2c0-0.6-0.3-0.9-0.9-0.9v-0.3l0.7-0.9v-0.6c-0.7-0.7-1-2-1-4L3.1,69.9z M2.5,76
		c0.2,0.4,0.5,0.7,0.9,1v-0.3c0-0.4-0.2-0.7-0.7-0.7H2.5z M3.1,37.4c0,0.4-0.1,0.7-0.3,0.7c0.2,0.4,0.3,0.7,0.3,0.9
		c0.4,0,0.7-0.2,0.7-0.6c-0.2-0.4-0.3-0.8-0.3-1H3.1z M3.1,22.1c0.4,0.1,0.7,0.2,0.7,0.6c0,0.4-0.2,0.7-0.7,0.7V22.1z M3.4,35.6
		c0,0.3,0.3,0.6,0.9,0.9v-1.2C3.9,35.5,3.6,35.6,3.4,35.6z M3.7,17.5h0.6v1.2H3.7V17.5z M4.3,20.5l0.3,0.7v0.2H4.3
		c-0.4,0-0.6-0.2-0.6-0.6L4.3,20.5z M3.7,50l0.6,0.2l0.3-0.6v-0.3H4.3C3.9,49.4,3.7,49.6,3.7,50z M4,22.7h0.7v0.9H4V22.7z M4.6,28.5
		c0,0.6,0.2,0.9,0.6,0.9l-0.3,1.5H4.3L4,28.8L4.6,28.5z M4,51.8v1.6h0.3c0.4,0,0.6-0.2,0.6-0.7c-0.4,0-0.6-0.3-0.6-0.9H4z M5.9,17.8
		v0.6h0.6L7,18.1c0.1,0.4,0.3,0.7,0.7,0.7v-1.2C7.3,17.7,6.7,17.8,5.9,17.8z M5.9,42v0.9h0.6V42H5.9z M5.9,43.2v0.9h0.9v-0.3
		c0-0.4-0.2-0.6-0.7-0.6H5.9z M6.1,20.5v0.3h1.6v-0.7L6.1,20.5z M7,5.2h0.7L8,6.8v0.6H7.3C7.3,6.7,7.2,6,7,5.2z M8,9.2l0.2,0.6
		c0,0.4-0.2,0.6-0.6,0.6H7.3V9.8C7.4,9.4,7.6,9.2,8,9.2z M8.3,15c0.1,0.4,0.3,0.7,0.7,0.7c0-0.2,0.1-0.3,0.2-0.3
		c0,0.2,0.1,0.3,0.3,0.3v-0.9C9.2,14.9,8.7,15,8.3,15z M9.2,5.5h0.7v0.3c0,0.2-0.1,0.2-0.3,0.2l0.3,0.7v1.5c0,0.2-0.1,0.3-0.3,0.3
		l0.3,0.7v0.6c0,0.4-0.2,0.6-0.7,0.6L8.9,9.8V9.5c0-0.2,0.1-0.2,0.2-0.2c0-0.2-0.1-0.3-0.2-0.3l0.2-1.6V5.5z M9.8,10.4l0.3,0.7H9.8
		l0.3,0.6c0,0.4-0.2,0.7-0.7,0.7l-0.6-0.9C8.9,11.1,9.2,10.7,9.8,10.4z M9.5,15.9c0,0.8-0.2,1.2-0.6,1.2v0.3h0.6l0.3-0.6v-1H9.5z
		 M12,16.6v0.6l0.3,2.8h0.2c0-0.2,0.1-0.8,0.3-1.9C12.6,17.1,12.3,16.6,12,16.6z M21.8,11.4L22,12h-0.9
		C21.2,11.6,21.4,11.4,21.8,11.4z M21.5,15H22c-0.2,0.4-0.2,0.7-0.2,0.9h-0.7C21.3,15.5,21.5,15.2,21.5,15z M21.8,32.2v0.3
		c0.8,0,1.2,0.3,1.2,0.9h0.2v-0.9L23,31.9C22.6,32.1,22.2,32.2,21.8,32.2z M22,23.9h0.7c0,0.8,0.4,1.4,1.2,1.8
		c0,0.4-0.3,0.7-0.9,0.7c-0.4-0.2-0.8-0.3-1-0.3v-0.6c0-0.2,0.1-0.3,0.3-0.3L22,24.5V23.9z M22.7,26.6l0.6,0.3l0.7-0.3
		c0,0.4,0.2,0.7,0.6,0.7v0.6c-0.2,0-0.5,0.1-0.9,0.3c0-0.6-0.2-0.9-0.6-0.9v0.9h0.6v0.6c-0.4,0-0.6,0.3-0.6,1h-0.7
		c0-0.9-0.1-1.6-0.3-1.9L22.7,26.6z M22.7,35.2c0.3,0.8,0.6,1.2,0.9,1.2h0.3v-0.6c-0.4,0-0.7-0.4-0.7-1.2
		C22.9,34.7,22.7,34.9,22.7,35.2z M23,36.8V38h0.2v-1.2H23z M24.8,44.5c0,0.4-0.5,0.6-1.6,0.6v0.3h0.9v1.8l-0.2,0.7h0.6
		c0.4,0,0.7-0.2,0.7-0.7v-2.7H24.8z M24.2,29.8v0.9c-0.4,0-0.6-0.2-0.6-0.7L24.2,29.8z M24.8,42.7v0.6c0.2,0,0.3,0.1,0.3,0.3
		c-0.4,0.2-0.8,0.2-1,0.2v0.3h0.7c0.1-0.4,0.2-0.6,0.6-0.6c-0.2-0.4-0.2-0.7-0.2-0.9H24.8z M24.5,48.8l-0.3,0.6
		c0.2,0.4,0.3,0.8,0.3,1.2c-0.2,0-0.3,0.1-0.3,0.3c0.4,0,0.7,0.2,0.7,0.6h0.3c0.4,0,0.6-0.2,0.6-0.6v-0.3l-0.6,0.3h-0.3v-0.3
		l0.3-1.5L24.5,48.8z M26.3,25.2l0.3,0.6l-0.6,0.3h-0.3v-0.3C25.8,25.4,26,25.2,26.3,25.2z M26.6,35.9H27v0.3c0,0.4-0.2,0.6-0.7,0.6
		l-0.2-0.6L26.6,35.9z M26.6,41.1H27c0.4,0.2,0.7,0.3,0.9,0.3c0-0.2,0.1-0.3,0.3-0.3l0.2,0.6c0,0.4-0.4,0.7-1.2,0.7v0.3
		c0.6,0,0.9,0.2,0.9,0.6v1.2h-0.9l0.6-0.9v-0.3c-0.8,0-1.2-0.2-1.2-0.6V42h0.7v-0.3h-0.7V41.1z M27.6,36.8h0.7v0.3l-0.3,0.6
		c0.2,0,0.3,0.1,0.3,0.3l-0.7,0.3l-0.2-0.7C27.5,37.3,27.6,37,27.6,36.8z M27.6,38.9h0.7l-0.3,0.6l0.6,0.3c-0.2,0.4-0.2,0.7-0.2,0.9
		h-0.7c0-0.2-0.1-0.5-0.2-0.9C27.5,39.5,27.6,39.2,27.6,38.9z M30.9,42.3v0.9c0,0.4-0.2,0.6-0.6,0.6v-0.2l0.2-0.7
		c-0.2,0-0.2-0.1-0.2-0.2L30.9,42.3z M30.9,51.8h0.7v0.9h-0.7V51.8z M34,70.8v0.3h0.3c1.1-0.2,2-0.3,2.8-0.3h2.7
		c0,0.5-1.1,0.8-3.4,0.9v-0.2C35.7,71.8,34.9,72,34,72v0.7h0.3c0.4-0.2,0.7-0.3,0.9-0.3c0,0.2,0.1,0.3,0.3,0.3l0.3-0.7l0.6,0.3h1.8
		v0.3c0,0.4-0.3,0.6-0.9,0.6v0.6c1.7-0.2,2.8-0.7,3.4-1.5l-0.3-0.7l0.3-1.2c-0.2-0.4-0.3-0.8-0.3-1L34,70.8z M34,74.2h0.7l1.5-0.3
		c0,0.2,0.1,0.3,0.3,0.3c0-0.4,0.2-0.6,0.7-0.6v-0.3h-0.7C34.8,73.4,34,73.7,34,74.2z M38.3,76h1.2v0.7h-1.2V76z M39.9,16.9l0.3,0.6
		c0,0.3-0.3,0.6-0.9,0.9h-0.3v-0.3C39.2,17.3,39.5,16.9,39.9,16.9z M39.3,98.4h0.6v1.5l0.6-0.2c0,0.3,0.2,0.7,0.7,1.2l-0.7,0.3h-0.2
		v-0.9h-0.3c-0.2,1-0.3,1.7-0.3,1.8c0.2,0,0.3,0.1,0.3,0.3l-0.6,0.3h-0.3v-0.3c0-1.4,0.2-2.1,0.6-2.1l-0.2-0.6
		c0-0.2,0.1-0.3,0.2-0.3l-0.2-0.7V98.4z M39.9,45.4h0.3v0.3c0,0.4-0.2,0.6-0.7,0.6l-0.2-0.6L39.9,45.4z M39.9,87.7h0.3V88
		c0,0.4-0.2,0.7-0.7,0.7L39.3,88L39.9,87.7z M39.9,47.5v0.6l0.3,1.9c0.4,0,0.6-0.2,0.6-0.7c-0.4-0.8-0.6-1.4-0.6-1.8H39.9z
		 M40.2,51.2c0,1.2-0.1,1.9-0.3,2.1h0.6v-2.1H40.2z M40.2,7.7h0.6v0.9h-0.6V7.7z M40.8,96.5l0.3,0.7c0,0.4-0.2,0.6-0.7,0.6l-0.2-0.6
		C40.2,96.8,40.4,96.5,40.8,96.5z M40.4,98.4h0.7V99c0,0.4-0.2,0.7-0.7,0.7V98.4z M42.6,37.1c0.1,0.4,0.3,0.6,0.7,0.6
		c0.4-0.2,0.7-0.3,0.9-0.3l0.3,0.7c0,0.5-0.2,1.2-0.7,1.8c0.4,0.1,0.7,0.3,0.7,0.7c-0.4,0.1-0.7,0.2-0.7,0.6l0.7,0.3
		c-0.3,0.8-0.6,1.2-0.9,1.2l0.2,0.6c0,0.3-0.3,0.6-0.9,0.9v-0.6h-0.3c0,0.6-0.3,1.5-0.9,2.7c0.2,0,0.3,0.1,0.3,0.3
		c-0.6,0.2-0.9,0.4-0.9,0.6v2.1h0.3v-1.8H42v0.6h0.9l-0.3-0.6l0.7-0.3h0.3v1.6c-0.2,0-0.3,0.3-0.3,0.9c-0.4,0-0.7-0.4-0.7-1.2
		c-0.5,1-0.9,1.6-1.2,1.6h-0.3v0.9l0.6-0.3l1.9,1.6c0-1.9,0.3-3.3,0.9-4v-0.6l-0.7-0.9v-0.3c0.6,0,0.9-0.3,0.9-0.9h-0.2l0.2-0.6
		c0-0.4-0.2-0.7-0.6-0.7c0,0.2-0.1,0.3-0.3,0.3l-0.2-0.7c0.8,0,1.2-0.2,1.2-0.6v-0.9c0-0.2-0.1-0.3-0.2-0.3c0.2-1.2,0.4-1.8,0.6-1.8
		l-0.3-0.7c0-0.2,0.1-0.2,0.3-0.2l-0.3-0.7v-0.2l0.3-1.6C43.9,37,43.1,37.1,42.6,37.1z M41.4,42.9c0,0.7-0.1,1.2-0.3,1.6h0.3
		c0.4,0,0.6-0.2,0.6-0.7v-0.2C42,43.1,41.8,42.9,41.4,42.9z M41.4,85.2c0,0.7-0.1,1.2-0.3,1.6h0.3c0.4,0,0.6-0.2,0.6-0.7v-0.3
		C42,85.4,41.8,85.2,41.4,85.2z M41.1,100.8h0.3c0.4,0.1,0.6,0.3,0.6,0.7v0.3c0,0.4-0.2,0.6-0.6,0.6l-0.3-0.6V100.8z M42,10.1
		l0.3,0.6v0.3h-0.9v-0.3C41.5,10.3,41.7,10.1,42,10.1z M41.7,39.3c0,0.4-0.1,0.6-0.2,0.6c0.2,0.4,0.2,0.7,0.2,0.9H42l0.3-1.2
		L41.7,39.3z M41.7,81.5c0,0.4-0.1,0.7-0.2,0.7c0.2,0.4,0.2,0.7,0.2,0.9H42l0.3-1.2L41.7,81.5z M41.7,97.2c0.4,0.1,0.7,0.2,0.7,0.6
		c0,0.4-0.2,0.7-0.7,0.7V97.2z M42,42.7c0.2,0,0.5,0.1,0.9,0.2v-1.2C42.6,41.7,42.3,42,42,42.7z M42,84.9c0.2,0,0.5,0.1,0.9,0.3V84
		C42.6,84,42.3,84.3,42,84.9z M42.6,27.9l-0.2,0.7l0.6,0.2h0.3v-0.2C43.2,28.1,43,27.9,42.6,27.9z M42.9,99h0.3v0.3
		c0,0.4-0.2,0.6-0.7,0.6l-0.2-0.6L42.9,99z M42.3,101.8h0.6v1.2h-0.6V101.8z M42.6,24.8v1.6h0.3c0-0.3,0.2-0.7,0.7-1.2l-0.7-0.3
		H42.6z M42.9,89.5h0.7v1.6c-0.2,0-0.3,0.3-0.3,0.9c-0.4,0-0.7-0.3-0.7-0.9L42.9,89.5z M42.6,96.9h0.7v0.9h-0.7V96.9z M44.5,4.6H45
		V5l-0.3,1.5h-0.2V4.6z M44.5,34.1V35h0.2c0.4,0,0.7-0.2,0.7-0.7v-0.2H44.5z M44.5,35.2v1H45v-1H44.5z M44.5,76.3v0.9h0.2
		c0.4,0,0.7-0.2,0.7-0.6v-0.3H44.5z M44.5,77.6v0.9H45v-0.9H44.5z M45.7,102.4l-0.7-0.3h-0.6v0.7c0.9,0,1.5,0.1,1.8,0.2v-1.2
		C45.9,101.9,45.7,102.1,45.7,102.4z M44.7,1.8h0.7v1h-0.7V1.8z M44.7,99.7v0.2l1.6,0.3v-0.6H44.7z M46,113.1h0.7v0.6l-0.3,1.6h-0.6
		C45.9,114.4,46,113.7,46,113.1z M46,110.1h0.3c0.4,0.1,0.6,0.2,0.6,0.6c0,0.4-0.2,0.7-0.6,0.7l-0.3-0.7V110.1z M47.2,104.9
		l-0.3,0.6c0.5,0,0.9,0.1,1.2,0.3v-0.9l-0.6,0.2C47.5,105,47.4,104.9,47.2,104.9z M47.5,103v0.3c0.4,0,0.6,0.4,0.6,1.2h0.3v-1.2
		l-0.6-0.3H47.5z M48.4,108.3l0.3,0.6l-0.3,0.6c0.2,0,0.3,0.1,0.3,0.3l-0.7,0.3l-0.6-0.9C47.5,108.8,47.8,108.5,48.4,108.3z
		 M48.1,110.1l0.3,0.6v0.7c0,0.2-0.1,0.2-0.3,0.2l0.3,0.7v1.5c0,0.2-0.1,0.3-0.3,0.3l0.3,0.7v0.2h-0.6v-1.8l-0.3-1.6h0.3l-0.3-0.6
		v-0.3C47.6,110.3,47.8,110.1,48.1,110.1z M49.3,6.4L49,8.3c0.4,0,0.7-0.5,1-1.5L49.3,6.4z M50.9,100.6c-0.2,1.8-0.3,2.9-0.3,3.4
		c0.5,0,0.8-0.7,0.9-2.1c-0.2-0.4-0.3-0.8-0.3-1.2H50.9z M52.1,0.9l0.2,0.7l-0.2,1.8h-0.3c-0.4,0-0.7-0.2-0.7-0.6v-1
		C51.2,1.5,51.5,1.2,52.1,0.9z M59.7,104.5h0.7c0,0.2,0.1,0.5,0.3,0.9h-0.7C60.1,105.2,60,104.9,59.7,104.5z M59.7,108.5h1
		c0,0.4-0.2,0.7-0.7,0.7L59.7,108.5z M61.6,44.8c0,0.6-0.4,0.9-1.2,0.9V46c0.4,0,0.9,0.1,1.2,0.3l0.2-0.6v-0.9H61.6z M61.6,87
		c0,0.6-0.4,0.9-1.2,0.9v0.3c0.4,0,0.9,0.1,1.2,0.3l0.2-0.7V87H61.6z M62.2,94.1l0.3,0.6c-0.8,0.5-1.2,1.1-1.2,1.8h-0.6V96
		c0-0.2,0.1-0.3,0.2-0.3L60.7,95v-0.7L62.2,94.1z M61,90.8h0.7c0,0.6,0.2,0.9,0.6,0.9v0.6h-0.6v1c0.4,0,0.6-0.3,0.6-1
		c0.4,0.2,0.7,0.3,0.9,0.3v0.7c-0.4,0-0.6,0.2-0.6,0.6l-0.7-0.3l-0.6,0.3L61,93.2V90.8z M61.3,43.2l0.6,0.3c0-0.8,0.2-1.2,0.7-1.2
		v-0.7h-0.3C61.8,41.7,61.5,42.2,61.3,43.2z M61.3,85.6l0.6,0.2c0-0.8,0.2-1.2,0.7-1.2V84h-0.3C61.8,84,61.5,84.5,61.3,85.6z
		 M61.6,40.2v1.2h0.6c-0.2-0.4-0.3-0.8-0.3-1.2H61.6z M61.6,50v0.9c0.4,0,0.6-0.2,0.6-0.7V50H61.6z M61.6,82.4v1.2h0.6
		c-0.2-0.3-0.3-0.7-0.3-1.2H61.6z M62.5,30.4l0.3,0.6v1.9h-1v0.2c1,0,1.6,0.2,1.6,0.7h0.3v-2.8c0-0.4-0.2-0.6-0.7-0.6H62.5z
		 M62.9,47.5v0.9c-0.4,0-0.7-0.2-0.7-0.6L62.9,47.5z M62.9,89.9v0.9c-0.4,0-0.7-0.2-0.7-0.7L62.9,89.9z M62.5,16.6v0.6
		c0.2,0,0.3,0.1,0.3,0.3c-0.2,0-0.3,0.1-0.3,0.3h0.3c0.4,0,0.6-0.2,0.6-0.7c-0.4,0-0.6-0.2-0.6-0.6H62.5z M62.9,18.7v0.3
		c0.2,0.4,0.2,0.7,0.2,0.9c-0.2,0-0.2,0.1-0.2,0.2h0.9l-0.3-1.5H62.9z M63.1,25.7l0.3,0.7v0.9h-0.6c0.2,0.4,0.2,0.7,0.2,0.9
		c-0.2,0.4-0.2,0.7-0.2,0.9l0.6,0.3c0-0.2,0.1-0.3,0.3-0.3l-0.3-1.5v-0.3h0.3l0.6,0.3L64,25.7H63.1z M62.9,34.1v0.2
		c0.2,0,0.5,0.1,0.9,0.3l-0.3,0.6v0.3h0.3c0-0.2,0.1-0.5,0.2-0.9l-0.9-0.6H62.9z M62.9,73.3c0,0.3,0.2,1.2,0.6,2.7h0.3v-1.2
		l-0.3-1.6H62.9z M62.9,76.3v0.3c0.2,0,0.5,0.1,0.9,0.3l-0.3,0.6v0.3h0.3c0-0.2,0.1-0.5,0.2-0.9l-0.9-0.7H62.9z M63.1,11.4
		c0.1,0.4,0.3,0.6,0.7,0.6H64v-0.6H63.1z M63.1,20.5v0.3c0.2,0.3,0.3,0.7,0.3,1.2c0.3,0,0.6-0.3,0.9-0.9c-0.6,0-0.9-0.2-0.9-0.7
		H63.1z M63.1,53.6c0.1,0.4,0.3,0.7,0.7,0.7H64v-0.7H63.1z M65.3,17.8c0,1-0.3,1.5-0.9,1.5c0.2,0.3,0.3,1,0.3,2.1H65v-0.6h0.6v0.9
		l-0.3,0.6l-0.6-0.2c-0.5,0.4-0.9,0.6-1.2,0.6c0.1,0.4,0.2,0.7,0.6,0.7c0.1-0.4,0.3-0.7,0.7-0.7h0.6V23c0,0.2-0.1,0.3-0.2,0.3
		c0.2,0.3,0.2,0.7,0.2,1.2h0.3c0.4,0,0.6-0.2,0.6-0.6c-0.2-0.4-0.2-0.8-0.2-1.2h0.2c-0.2-0.2-0.4-1.8-0.6-4.9H65.3z M64.4,17.5v0.9
		c0.4,0,0.7-0.2,0.7-0.6L64.4,17.5z M64.4,94.4h0.3c0.4,0.1,0.6,0.3,0.6,0.7l-0.6,0.3l-0.3-0.7V94.4z M65.3,41.4l0.3,0.6v0.3h-0.3
		c-0.4,0-0.6-0.2-0.6-0.7L65.3,41.4z M64.7,69.9c0.2,0.4,0.3,0.7,0.3,0.9c0.4,0,0.6-0.2,0.6-0.6L65,69.9H64.7z M65.3,83.7l0.3,0.7
		v0.3h-0.3c-0.4,0-0.6-0.2-0.6-0.7L65.3,83.7z M65.9,33.7h0.9V35c0,0.4-0.3,0.6-0.9,0.6v0.3c0.8,0,1.2,0.2,1.2,0.6l-0.3,0.7
		l-0.7-0.3c-0.4,0.2-0.7,0.3-0.9,0.3v-0.7h0.7v-0.2h-0.7v-0.7c0-0.4,0.4-0.6,1.2-0.6v-0.3L65.9,33.7z M66.2,37.4h0.7
		c0,0.2,0.1,0.5,0.3,1c-0.4,0.1-0.7,0.2-0.7,0.6c0.2,0,0.3,0.1,0.3,0.3h-0.7c0-0.2-0.1-0.5-0.2-0.9C66.1,37.9,66.2,37.6,66.2,37.4z
		 M66.5,39.9l0.3,0.7h-0.3l0.3,0.6v0.3h-0.7l-0.2-1.2L66.5,39.9z M65.9,57.7c0.2,1.4,0.2,2.2,0.2,2.4c-0.2,0-0.2,0.1-0.2,0.3h0.2
		l0.7-0.3c-0.2,0-0.3-1.1-0.3-3.4C66.1,56.7,65.9,57,65.9,57.7z M66.2,79.7h0.7c0,0.2,0.1,0.5,0.3,0.9c-0.4,0.1-0.7,0.3-0.7,0.7
		c0.2,0,0.3,0.1,0.3,0.2h-0.7c0-0.2-0.1-0.5-0.2-0.9C66.1,80.2,66.2,79.9,66.2,79.7z M66.5,82.2l0.3,0.6h-0.3l0.3,0.7v0.2h-0.7
		l-0.2-1.2L66.5,82.2z M66.5,20.5v0.3l0.3,1.5h0.3c0-0.2,0.1-0.5,0.2-0.9c-0.4,0-0.6-0.2-0.6-0.6c0.2,0,0.3-0.1,0.3-0.3H66.5z
		 M68.3,63.4v0.3l0.7,0.9V65h-0.7v-0.7h-0.2c0,0.6-0.4,0.9-1.2,0.9l0.3,2.1c0.4,0,0.6-0.2,0.6-0.6l-0.6-0.9l0.6-0.3
		c0.4,0.8,1,1.2,1.8,1.2l-0.2-0.6v-0.3l0.2-0.7c-0.2,0-0.2-0.1-0.2-0.2c0.3,0,0.6-0.5,0.9-1.6h-0.7c-0.4,0.2-0.7,0.3-0.9,0.3
		C68.6,63.6,68.5,63.4,68.3,63.4z M68.1,78.8h0.2c0,0.4-0.2,0.6-0.6,0.6h-0.3C67.5,79,67.7,78.8,68.1,78.8z M69,13.8h0.6v2.1
		c0,0.4-0.2,0.7-0.6,0.7l-0.3-0.7c0.4,0,0.7-0.2,0.7-0.6v-0.9h-1C68.4,14,68.6,13.8,69,13.8z M69,56.1h0.6v2.1
		c0,0.4-0.2,0.6-0.6,0.6l-0.3-0.6c0.4,0,0.7-0.2,0.7-0.6v-1h-1C68.4,56.3,68.6,56.1,69,56.1z M68.6,10.7H69c0.4,0.1,0.6,0.3,0.6,0.7
		l0.7-0.3c0.3,0,0.6,0.3,0.9,0.9v0.3l-0.3,0.6c0.4,0.1,0.7,0.3,0.7,0.7c0,0.2-0.1,0.2-0.3,0.2l0.3,0.7v0.3c0,0.4-0.2,0.6-0.7,0.6
		c-0.3,0-0.6-0.3-0.9-0.9c0.3,0,0.6-0.4,0.9-1.2c-1.2-0.3-1.9-0.8-2.1-1.6l0.3-0.6C68.8,11.1,68.6,10.9,68.6,10.7z M68.6,53.1H69
		c0.4,0.1,0.6,0.2,0.6,0.6l0.7-0.2c0.3,0,0.6,0.3,0.9,0.9v0.2l-0.3,0.7c0.4,0.1,0.7,0.2,0.7,0.6c0,0.2-0.1,0.3-0.3,0.3l0.3,0.6V57
		c0,0.4-0.2,0.7-0.7,0.7c-0.3,0-0.6-0.3-0.9-1c0.3,0,0.6-0.4,0.9-1.2c-1.2-0.3-1.9-0.9-2.1-1.6l0.3-0.6
		C68.8,53.4,68.6,53.3,68.6,53.1z M69.6,19.3c0.9,1.3,1.4,1.9,1.6,1.9v0.9c0,0.4-0.5,0.7-1.6,0.9v-0.7h0.7l-0.3-0.6l0.3-0.6
		c-0.5,0-0.9-0.4-1.2-1.2C69,19.5,69.2,19.3,69.6,19.3z M69,34.3c0.4,0.1,0.6,0.3,0.6,0.7v0.9c-0.4,0-0.6-0.2-0.6-0.7h0.3L69,34.7
		V34.3z M69,76.6c0.4,0.1,0.6,0.2,0.6,0.6v0.9c-0.4,0-0.6-0.2-0.6-0.6h0.3L69,77V76.6z M69.9,73.6c0.2,0,0.3,0.1,0.3,0.2l0.6-0.2
		h0.9v0.2c0,0.4-0.2,0.7-0.6,0.7l-0.7-0.3c-0.4,0.2-0.7,0.3-0.9,0.3l-0.2-0.7L69.9,73.6z M69.6,23.6l1.6,0.3v0.6h-0.3l-0.6-0.2
		c0,0.2-0.1,0.2-0.3,0.2l-0.3-0.6V23.6z M69.6,25.5h0.7v0.9h-0.7V25.5z M69.9,66.8c0.2,0.4,0.3,0.7,0.3,0.9h0.2v-1.2L69.9,66.8z
		 M70.8,15.7l0.7,1.2h-0.3c-0.3,0-0.6-0.3-0.9-1L70.8,15.7z M70.8,57.9l0.7,1.2h-0.3c-0.3,0-0.6-0.3-0.9-0.9L70.8,57.9z M70.8,9.5
		h0.7v0.3c0,0.2-0.1,0.3-0.3,0.3l0.3,0.6v0.3h-0.7V9.5z M70.8,51.8h0.7v0.3c0,0.2-0.1,0.2-0.3,0.2l0.3,0.7v0.3h-0.7V51.8z"/>
	<path d="M78.3,67.8h-0.6v-0.9h0.6V67.8z M78.6,57.2h-0.6v-1.2h0.6V57.2z M82,50.2c-0.6,0.5-0.9,1.3-0.9,2.4c-0.8,0-1.6,0.6-2.5,1.8
		h-0.3c0-1.4,0.5-2.1,1.6-2.1c0.9-1.7,1.5-2.5,1.8-2.5H82V50.2z M80.4,48.6l-0.2,0.7l-0.7-0.3c0.2-0.4,0.3-0.7,0.3-0.9h0.6V48.6z
		 M81.7,44.4c-0.4,0.4-0.6,1.1-0.6,2.1h-0.7v-0.6c0-1,0.3-1.6,0.9-1.8h0.3V44.4z M82,42.2h-0.7l0.3-1.2h0.6L82,42.2z M82.3,47.4
		L82,48c-0.4,0-0.7-0.2-0.7-0.7v-0.6c0-0.3,0.2-0.5,0.7-0.6h0.2V47.4z M83.5,37.6c0,0.3-0.4,0.6-1.2,0.9H82c0.3-0.8,0.6-1.2,0.9-1.2
		h0.6V37.6z M83.2,72.7v0.2c-0.4-0.2-0.7-0.2-0.9-0.2v-0.9h0.7C82.9,72,83,72.3,83.2,72.7z M129.5,6c0.8,0,1.2,0.2,1.2,0.6h0.3
		l1.2-0.9V6c1.6,0.8,2.4,1.4,2.4,1.8c0.3,0,0.5-0.2,0.6-0.7V6.9h-0.6V6.3c1.8,0.3,2.7,0.8,2.7,1.6h0.3l0.6-0.3
		c0,0.2,0.1,0.3,0.3,0.3l-0.3,0.6c-0.3,0-1.1-0.2-2.4-0.6h-0.3v0.2c2,0.4,3.1,0.9,3.1,1.6c0.3,0,0.5-0.2,0.6-0.6h-0.6V8.7h1.2v0.6
		c0.2,0,0.2-0.1,0.2-0.2c0.4,0,0.7,0.4,0.7,1.2h0.9V10l-0.3-0.7h0.3c1.8,1.1,2.7,1.8,2.7,2.1h-1.2V12c0.4,0,0.9,0.3,1.6,0.9h0.2
		l-0.2-0.6v-0.6h0.2c0.7,1,1.4,1.5,2.1,1.5c2,2.4,3.1,3.6,3.4,3.6h0.3v-0.6c-0.6,0-1.7-1.4-3.4-4.3v-0.2c0.2,0,0.3,0.1,0.3,0.2
		l0.6-0.2l1.8,2.4c0.4,1.3,1.8,3.2,4,5.5V20l-0.2,0.7l-0.7-0.3h-0.3c1.7,3.7,3,6.1,4,7.3V27l0.7,0.3l-0.3,1.5c0.6,1,0.9,1.8,0.9,2.1
		l0.7-0.2h0.2c0,0.4-0.1,0.8-0.2,1.2l0.9,1.6c-0.6,0-0.9,0.2-0.9,0.6v0.3c1.2,1.9,1.8,3.7,1.8,5.4h0.2v-0.9l-0.9-4.3
		c0.2,0,0.3,0.1,0.3,0.3c0.2,0,0.3-0.1,0.3-0.3l0.6,0.3c0,0.2-0.1,0.5-0.3,0.9c1,1.8,1.6,3.2,1.6,4.3v0.6h0.6V41
		c0,0.4-0.2,0.6-0.6,0.6c-0.4,0-0.7-0.8-0.7-2.4h-0.2c0,0.8-0.2,1.2-0.7,1.2v0.2c0.8,0.7,1.2,1.8,1.2,3.4l0.7-0.3
		c0,0.4-0.2,1-0.7,1.8v0.7h0.3c0-0.8,0.3-1.2,0.9-1.2l0.3,0.6v0.3c-0.4,0-0.9,0.5-1.2,1.5v1h0.6v0.6l-0.6,0.9v0.6l0.6-0.2l0.7,0.2
		c0-0.8,0.2-1.2,0.6-1.2l-0.3,2.1l-0.6-0.2H163v0.2c0,0.4,0.2,0.7,0.7,0.7l-0.9,1.5V55h0.6v1.8c0.5,0,0.8,0.5,0.9,1.5
		c-0.3,1.2-0.6,2-0.9,2.5v0.3c0.6,0,0.9,0.2,0.9,0.6l-0.6,0.9c0,0.4,0.2,0.6,0.6,0.6L163,66h-0.6v-0.7H162c0,0.2-0.1,0.5-0.3,0.9
		v0.3h0.3l0.7-0.3v0.3l0.6-0.3l0.6,0.3l-0.9,1.5h0.3c-0.6,1.8-1.2,2.8-1.8,2.8v0.2c0.8,0,1.2,0.2,1.2,0.7c0,0.4-0.2,0.6-0.7,0.6
		c0,0.2,0.1,0.3,0.3,0.3c-0.7,3.2-1.4,4.9-2.1,4.9c0,0.4,0.1,0.9,0.3,1.2c0,0.4-0.2,0.6-0.7,0.6c0,0.2,0.1,0.5,0.3,0.9
		c0,0.2-0.3,0.4-0.9,0.6l0.3,0.7v0.2c0,0.4-0.3,0.7-0.9,0.7c0.4,0.7,0.6,1.3,0.6,1.8v0.9c-0.4,0-0.9,0.1-1.2,0.3
		c0,0.2,0.1,0.5,0.3,0.9c-0.6,1.8-1.1,2.7-1.6,2.7c0,0.2,0.1,0.5,0.3,0.9c-0.7,1.7-1.3,2.5-1.8,2.5v0.6c0,1.5-0.3,2.3-0.9,2.4
		c-0.5,1.5-1,2.7-1.6,3.7l1,0.6h0.2c0-0.7,0.9-2.3,2.7-4.9c0-0.2-0.1-0.5-0.2-0.9l1.2-1.5c-0.2,0-0.2-0.1-0.2-0.3l1.8-2.7v-0.3
		l-0.6,0.3h-0.3l0.3-1.2h0.2l0.7,0.3c0-0.4,0.2-0.6,0.6-0.7h0.3v0.7l-1.8,3.3c-1.2,4.3-3.2,8.2-6.1,11.6v0.3l1.8-1.5
		c1.2-2.5,2.2-3.7,3.1-3.7c0-0.2-0.1-0.2-0.3-0.2c0.8-3.2,1.7-4.9,2.7-4.9l-0.6-0.9h0.6c1-2.5,1.6-3.7,1.8-3.7h0.3v0.3
		c0,1.1-0.4,1.8-1.2,2.1c0,0.4,0.1,0.9,0.3,1.2l-2.1,3.3c-0.8,2.4-1.4,3.6-1.8,3.6c0,1.3-1.5,3.1-4.5,5.5c-1,2.6-3.8,5.3-8.3,8.3
		h-0.9c1.2-1,1.8-1.6,1.8-1.9c2.6-1.4,4.4-3,5.5-4.9c-1.6,1.7-2.6,2.5-3.1,2.5l-5.5,4l-0.6-0.3c0.2-0.4,0.3-0.7,0.3-0.9
		c2.2-0.9,3.3-1.7,3.3-2.4c0.2,0,0.3,0.1,0.3,0.2c2.1-1.2,3.3-2.3,3.6-3.3v-0.3h-0.3c-2.3,1.6-3.7,2.4-4.2,2.4
		c-0.7,1.3-2.3,2.2-4.6,2.8c0,0.2,0.1,0.2,0.3,0.2l-0.3,0.7l-1.5-0.7v0.3c-1.8,0.6-3.3,1.4-4.5,2.5h-1.6v0.6h-0.6v-0.6h-0.3
		c-1,0.8-1.8,1.2-2.4,1.2v-0.6c-1,0.8-1.7,1.2-1.9,1.2l-0.6-0.3c0,0.2-0.1,0.3-0.3,0.3c-0.4,0-0.6-0.3-0.6-0.9l-1.2,0.9h-1.5
		l0.3-0.7c-0.8,0-1.2-0.2-1.2-0.6h-0.7l-0.9,0.6L120,115c0,0.6-0.2,0.9-0.6,0.9h-0.7l0.7-0.9v-0.3c-0.2,0-0.6,0.1-1,0.3
		c-0.2,0-0.2-0.2-0.2-0.7h-0.3l-1.2,0.9V115c-1.6-0.9-2.4-1.5-2.4-1.8c-0.4,0-0.7,0.2-0.7,0.6v0.3h0.7v0.6c-0.8,0-1.8-0.5-3.1-1.5
		l-0.6,0.2c0-0.2-0.1-0.2-0.3-0.2l0.3-0.7c0.3,0,1.1,0.2,2.4,0.7h0.3v-0.3c-2-0.4-3.1-0.9-3.1-1.6h-0.7v0.7h0.7v0.2h-1.2v-0.6
		c-0.2,0-0.3,0.1-0.3,0.3c-0.4,0-0.6-0.4-0.6-1.2h-0.9v0.3l0.3,0.6h-0.3l-2.7-1.8c0-0.2,0.1-0.3,0.2-0.3l-0.2-0.6l0.2-0.7
		c-0.2,0-0.2-0.1-0.2-0.2c-0.4,0-0.7,0.3-0.7,0.9h-0.6l0.3-0.7V108c0-0.3-0.2-0.5-0.7-0.7c-0.6,0.3-0.9,0.6-0.9,0.9
		c-1-0.6-1.5-1.3-1.5-2.1h-0.7v0.6h-0.2c-0.9-1.2-1.7-1.8-2.1-1.8v0.3l1.8,2.7v0.2c-0.2,0-0.3-0.1-0.3-0.2l-0.6,0.2l-1.8-2.4
		c-0.4-1.3-1.8-3.1-4-5.4v-0.7h0.6v0.7h0.3c0-0.2,0.1-0.5,0.3-1c0-0.1-1.3-2.4-4-6.9v0.6l-0.7-0.3l0.3-1.5c-0.6-1-0.9-1.8-0.9-2.1
		L88,89.4h-0.2c0-0.5,0.1-0.9,0.2-1.2l-0.9-1.6c0.6,0,0.9-0.2,0.9-0.6v-0.3c-1.2-1.9-1.8-3.7-1.8-5.4H86v0.9l0.9,4.3
		c-0.2,0-0.3-0.1-0.3-0.3c-0.2,0-0.3,0.1-0.3,0.3l-0.6-0.3c0-0.2,0.1-0.5,0.3-0.9c-1-1.8-1.6-3.2-1.6-4.3v-0.6h-0.6V79
		c0-0.3,0.2-0.5,0.6-0.6c0.4,0,0.7,0.8,0.7,2.4h0.2c0-0.8,0.2-1.2,0.7-1.2v-0.3c-0.8-0.7-1.2-1.8-1.2-3.4l-0.7,0.3
		c0-0.4,0.2-1,0.7-1.8v-0.7h-0.3c0,0.8-0.3,1.2-0.9,1.2l-0.3-0.6v-0.3c0.4,0,0.9-0.5,1.2-1.5v-0.9h-0.6v-0.7l0.6-0.9v-0.6L83.8,70
		l-0.7-0.3c0,0.8-0.2,1.2-0.6,1.2l0.3-2.1l0.6,0.2h0.3v-0.2c0-0.3-0.2-0.5-0.7-0.7l0.9-1.5V65h-0.6v-1.8c-0.5,0-0.8-0.5-0.9-1.5
		c0.3-1.2,0.6-2,0.9-2.5V59c-0.6,0-0.9-0.2-0.9-0.7l0.6-0.9c0-0.3-0.2-0.5-0.6-0.6l1.2-2.7h0.6v0.6h0.3c0-0.2,0.1-0.5,0.3-0.9v-0.3
		h-0.3l-0.7,0.3v-0.3l-0.6,0.3l-0.6-0.3l0.9-1.5h-0.3c0.5-1.8,1.2-2.7,1.8-2.7v-0.3c-0.8,0-1.2-0.2-1.2-0.6s0.2-0.6,0.7-0.7
		c0-0.2-0.1-0.3-0.3-0.3c0.7-3.2,1.4-4.9,2.1-4.9c0-0.4-0.1-0.8-0.3-1.2c0-0.4,0.2-0.6,0.7-0.7c0-0.2-0.1-0.5-0.3-0.9
		c0-0.2,0.3-0.4,0.9-0.6l-0.3-0.7v-0.2c0-0.4,0.3-0.7,0.9-0.7c-0.4-0.7-0.6-1.3-0.6-1.8v-0.9c0.4,0,0.9-0.1,1.2-0.3
		c0-0.2-0.1-0.5-0.3-0.9c0.5-1.7,1.1-2.6,1.6-2.7c0-0.2-0.1-0.5-0.3-0.9c0.7-1.6,1.3-2.4,1.8-2.4V27c1.2-4.1,3-7.6,5.4-10.6h-0.2
		c-1.2,0.8-1.8,1.4-1.8,1.8c-0.4,0.1-2,2.4-4.9,7c0,0.2,0.1,0.5,0.2,0.9L89,27.6c0.2,0,0.2,0.1,0.2,0.2l-1.8,2.8v0.2l0.6-0.2h0.3
		L88,31.8h-0.2l-0.7-0.2c0,0.4-0.2,0.6-0.6,0.6h-0.3v-0.6c0.6-0.8,1.5-2.8,2.8-6.1c1.3-4,3.3-7.2,6-9.5v-0.2c-0.2,0-0.9,0.5-2.1,1.5
		c-1.8,2.9-3,4.3-3.7,4.3c0,0.2,0.1,0.3,0.3,0.3c-0.8,3.2-1.7,4.9-2.7,4.9l0.6,0.9h-0.6c-1,2.4-1.6,3.6-1.8,3.6h-0.3v-0.3
		c0-1.1,0.4-1.8,1.2-2.1c0-0.4-0.1-0.8-0.3-1.2l2.1-3.4c0.8-2.4,1.4-3.6,1.8-3.6c0-1.3,1.7-3.3,5.2-6.1c0.4,0,0.8,0.1,1.2,0.3
		l1.2-0.7c1-1.7,3.5-3.8,7.3-6.4h0.6v0.6c-0.8,0-1.3,0.4-1.5,1.2c-2.1,1.2-3.9,2.6-5.2,4.3h0.3c1.2-1.3,2-1.9,2.4-1.9l5.5-4l0.6,0.3
		c-0.2,0.4-0.3,0.7-0.3,0.9c-2.2,0.9-3.3,1.8-3.3,2.5c-0.2,0-0.3-0.1-0.3-0.3c-0.7,0-1.2,0.7-1.5,2.1h0.2c2.5-1.8,4.7-3,6.7-3.6
		c0-0.2-0.1-0.3-0.2-0.3l0.2-0.6l1.6,0.6V9.3c1.8-0.6,3.3-1.4,4.5-2.4h1.6V6.3h0.2c0.4,0,0.6,0.2,0.7,0.7c1-0.8,1.8-1.2,2.4-1.2v0.6
		c1-0.8,1.6-1.2,1.8-1.2l0.7,0.2c0-0.2,0.1-0.2,0.2-0.2c0.4,0,0.7,0.3,0.7,0.9l1.2-0.9h1.5l-0.3,0.6c0.8,0,1.2,0.2,1.2,0.6h0.6
		l1-0.6l0.6,0.3c0-0.6,0.2-0.9,0.6-0.9h0.7L129.5,6z M84.4,41.9c-0.8,0.5-1.2,1.1-1.2,1.8h-0.2c0-0.2-0.1-0.5-0.3-0.9
		c0.5-0.8,0.9-1.2,1.2-1.2h0.6V41.9z M83.8,81.8l-0.3,0.7l-0.6-0.3l0.2-0.6L83.8,81.8z M85.1,32.5l-0.7,0.9V34l0.3,0.6l-0.9,0.7
		l0.2,0.6c0,0.4-0.2,0.7-0.6,0.7l-0.3-2.1c0.7-1.4,1.2-2.1,1.6-2.1h0.3V32.5z M86.6,37l-2.7,2.7h-0.3c0.5-1.3,1.6-2.4,3.1-3.3V37z
		 M84.4,83.7l-0.3,0.6c-0.4,0-0.6-0.2-0.6-0.6v-0.3h0.3L84.4,83.7z M84.1,56.8v0.9h0.7v-0.3C84.7,57.1,84.5,56.9,84.1,56.8z
		 M85.3,66.9c0,0.2-0.1,0.5-0.2,0.9c0.2,1.8,0.2,2.8,0.2,3.1h0.3c0-0.7,0.1-1.2,0.3-1.6h-0.3l0.3-1.5c-0.2-0.4-0.3-0.7-0.3-0.9H85.3
		z M86.6,33.7V34c0,0.4-0.2,0.6-0.6,0.6h-0.7V34l0.7-0.9C86.3,33.1,86.5,33.3,86.6,33.7z M85.3,47.4v1h0.3c0-0.7,0.2-1,0.6-1
		L86,46.8C85.5,46.8,85.3,47,85.3,47.4z M85.6,60.1v1.2H86v-1.2H85.6z M86.9,91.6v0.2h-0.3c-0.4,0-0.6-0.2-0.6-0.6v-0.3h0.2
		C86.6,90.9,86.8,91.1,86.9,91.6z M86.9,72c0,0.8,0.1,1.5,0.2,2.1h0.7c-0.2-1.4-0.3-2.2-0.3-2.4L86.9,72z M87.5,74.8l0.3,0.6
		c0,0.4-0.2,0.6-0.7,0.6c0.2,1.1,0.3,2.1,0.3,3.1c0.2,0,0.3-0.1,0.3-0.2c0.4,0,0.6,0.3,0.6,0.9h0.3v-2.1L88,77.8h-0.2v-0.9
		c0-0.5,0.2-1.2,0.6-1.8L88,74.5L87.5,74.8z M88.4,91.6h-0.6c0-0.4-0.2-0.9-0.7-1.6c0-0.3,0.2-0.5,0.7-0.6L88.4,91.6z M87.8,94v0.6
		h-0.7v-1.2C87.5,93.4,87.7,93.6,87.8,94z M88.7,80.3L88,80c0,0.2-0.2,0.3-0.6,0.3v1.2l1.8,4.5c0.2,1,0.7,2.4,1.6,4h0.2v-0.3
		c0-0.4-0.3-1.2-0.9-2.4c0.2-1.1,0.3-1.7,0.3-1.8c-0.6,0-1-0.4-1.2-1.2v-0.3h0.7v0.7h0.2v-0.3c-0.2-0.3-0.2-0.8-0.2-1.5
		c-0.2,0-0.3,0.1-0.3,0.2c-0.6-0.2-0.9-0.8-0.9-1.8h0.6V80L88.7,80.3z M89.3,91.3v0.6c-0.3,0-0.6-0.4-0.9-1.2v-0.2H89
		C89,90.6,89.1,90.9,89.3,91.3z M90.2,94.3v0.2l-0.2,0.7c-0.3,0-0.7-0.8-1.2-2.5v-0.2C88.9,92.5,89.4,93.1,90.2,94.3z M89.9,89.7V90
		l1.8,4.5H92v-0.2c0-1.5-0.6-3-1.8-4.6H89.9z M90.2,68.7V70h0.7v-1.2H90.2z M90.2,72.7c0,0.4,0.2,0.6,0.7,0.6h0.2
		c-0.2-0.4-0.2-0.7-0.2-0.9L90.2,72.7z M91.7,78.1V79H92c0-0.2,0.1-0.5,0.3-0.9v-0.3L91.7,78.1z M96.3,102.8H96v0.6
		c0.3,0,0.9,0.3,1.9,0.9C97.1,103.3,96.6,102.8,96.3,102.8z M98.4,70v1.5l0.3,1.2c-0.3,0.4-0.6,0.6-0.9,0.6v0.9l0.6-0.3l0.6,0.3
		c0-0.4-0.1-0.9-0.2-1.2l0.2-0.6c-0.2-0.8-0.2-1.6-0.2-2.4H98.4z M98.1,59.2c0,0.4,0.2,0.7,0.7,0.7V59L98.1,59.2z M98.8,75.4V76
		l0.2,1.8c-0.2,0.4-0.2,0.8-0.2,1c0.2,0.4,0.2,0.7,0.2,0.9h0.7v-1.9l0.2-0.6c-0.4,0-0.6-0.8-0.6-2.4C99,74.8,98.8,75,98.8,75.4z
		 M99.9,81.5c0,0.4,0.2,0.6,0.7,0.6c0,0.2-0.1,0.5-0.3,0.9v0.3h0.3l0.6-0.3l-0.6-1.8L99.9,81.5z M100.2,79.7v1.2h0.3v-1.2H100.2z
		 M101.5,108.9l-0.3,0.6c-0.6-0.3-0.9-0.6-0.9-0.9v-0.3h0.3L101.5,108.9z M100.6,61.7V62h0.2c0-0.3,0.2-0.7,0.7-1.2v-0.7
		C101.1,60.1,100.8,60.7,100.6,61.7z M100.6,74.2c0,0.1,0.1,0.5,0.2,1.2h0.3v-1.2H100.6z M100.8,58.1v1.5h0.7l-0.3-1.5H100.8z
		 M100.8,70.9v1.5h0.3v-1.5H100.8z M100.8,79.4v0.3c0,0.4,0.2,0.6,0.7,0.6V80C101.5,79.6,101.3,79.4,100.8,79.4z M101.2,81.5
		c0.2,0.4,0.3,0.7,0.3,0.9h0.3v-1.2L101.2,81.5z M131.9,22.1c0,0.1,0.2,0.9,0.6,2.5c-0.8-0.7-1.2-1.4-1.2-2.1H131
		c-0.5,0.4-1,0.6-1.6,0.6v0.3l1.8,0.3v0.9c-0.2,0-0.5-0.1-0.9-0.3h-0.6c0.2,0.4,0.3,0.7,0.3,0.9h0.6l0.9-0.6c0,0.2-0.1,0.5-0.3,0.9
		l0.3,0.6v0.3H131v-0.7h-0.3v0.7h-0.6c0-0.6-0.4-1.1-1.2-1.6c0-0.2,0.1-0.2,0.3-0.2c0-0.2-0.1-0.3-0.3-0.3c0-0.2,0.1-0.5,0.3-0.9V23
		l-0.7,0.3h-0.2l-1-0.6l-0.2,1.8h-0.7v-0.7h-0.6v0.7c0.4,0,0.6,0.4,0.6,1.2h0.7l-0.3-0.6c0-0.3,0.2-0.5,0.6-0.6v0.9
		c0.4,0,0.7-0.3,0.7-0.9c0.4,0.2,0.7,0.2,0.9,0.2l-0.3,0.7l0.7,0.9h-0.3l-0.6-0.3c0,0.2-0.3,0.4-1,0.7l-1.5-0.7
		c0,0.2-0.1,0.3-0.3,0.3v-0.7h-0.6v1h-0.3c-0.8-0.5-1.2-0.9-1.2-1.2v-0.7h0.2l0.9,0.7c0-0.8,0.2-1.2,0.7-1.2v-0.6
		c0-0.4-0.2-0.6-0.7-0.7v0.9h-0.9l-0.6-0.2l-0.3,0.6c-0.2,0-0.3-0.1-0.3-0.3l-1.8,1.6l0.3,0.6c0,0.4-0.2,0.7-0.6,0.7l-0.7-0.3
		l-1.5,3.1c0.2,0,0.2,0.1,0.2,0.2v1c0,0.4-0.6,0.7-1.8,0.9c-0.4,0-0.6-0.2-0.6-0.7v-0.6l1.5-1.2v-0.6l-1.5,0.6
		c-0.5,1.2-0.9,1.8-1.2,1.8v0.7c0.2,0,0.3-0.1,0.3-0.3c1.2,0.4,1.8,0.8,1.8,1.2c0.3,0,0.5-0.2,0.6-0.7l0.7,0.3
		c0.3,0,0.5-0.2,0.6-0.6c1.4,0.2,2.1,0.5,2.1,0.9c0,0.4-0.3,0.6-0.9,0.6v0.3l0.3,0.6l0.6-0.3h0.3V34c-1.6,1.1-2.5,1.8-2.5,2.1h-0.6
		c0-0.2-0.1-0.5-0.3-0.9h0.3c0-1-0.3-1.7-0.9-1.8c-1.4,0.8-2.3,1.7-2.8,2.7v0.6l1.2-0.6l-0.2-0.6v-0.7h0.6v0.7
		c0.2,0,0.3-0.1,0.3-0.3c0.2,0,0.6,0.8,1.2,2.4V38c-0.5,0-1.2,0.3-2.1,0.9c-0.7-0.7-1-1.3-1-1.8h-0.2v2.1l0.2,0.6l1-0.6v0.3
		l-0.7,0.9l-1.5-1.2H113c0,0.2-0.1,0.5-0.3,0.9h0.3l-0.3,1.5l0.3,1.2c-0.4,0-0.6,0.2-0.6,0.6l-1.2-0.6l-0.6,0.3
		c0,0.2,0.1,0.2,0.2,0.2l-0.2,1.6v0.6h0.6v0.7c-0.2,0-0.5-0.1-0.9-0.3c-0.4,0-0.7,0.2-0.7,0.6v0.9h0.3v-0.6h0.7v0.6l-0.7,1l0.3,0.6
		c-0.2,0-0.3,0.1-0.3,0.3c-0.4,0-0.6-0.2-0.6-0.7v-0.2l0.2-0.7h-0.9c0,0.8-0.2,1.2-0.6,1.2l1.2,1.5c-1,0-1.6,0.2-1.6,0.7h-0.6v-0.7
		h-0.3v0.3c0.4,0.7,0.7,1.2,0.7,1.6c0.8-0.5,1.2-0.9,1.2-1.2c0.4,0,0.6,0.2,0.7,0.6c0,0.4-0.2,0.7-0.7,0.7l-1.5,1.2v0.3
		c0,0.4,0.2,0.6,0.6,0.6c-0.4,0.5-0.6,0.9-0.6,1.2h-0.6c0-0.5-0.7-1-2.1-1.5v0.2l0.9,1.2c0.2,0,0.2-0.1,0.2-0.3
		c0.3,0,0.8,0.6,1.6,1.9l-0.6,0.9l0.6,0.9v0.2h-0.6l-1.9-0.9c0,0.4-0.2,0.7-0.6,0.7l0.3,2.1v0.6h-0.3l-0.6-0.3
		c0,0.2-0.1,0.5-0.3,0.9c0.3,0,0.5,0.2,0.6,0.7c0.8,0,1.2-0.5,1.2-1.6L106,62h0.3v-1.2c-0.6,0-0.9-0.2-0.9-0.7l0.2-0.6
		c0.8,0,1.6,0.7,2.5,2.1v0.6h-0.3l-0.6-0.2c0,0.4-0.3,0.6-0.9,0.6V63h0.6v0.9c0,0.1,0.2,0.9,0.7,2.4c0,0.2-0.1,0.5-0.3,0.9l0.3,0.7
		c-0.2,0.3-0.3,0.7-0.3,1.2h-0.6l-0.3-1.5l-0.7,0.3h-0.6v-0.7c0.8,0,1.2-0.2,1.2-0.6v-0.3c-0.7,0-1.2-0.1-1.6-0.2
		c-0.3,0.2-0.8,0.2-1.5,0.2v0.7l0.6,0.9v0.9h-0.6v0.6c0.2,0,0.5,0.1,0.9,0.3V69h0.3l0.6,0.3c0-0.3,0.2-0.5,0.6-0.6v1.8l0.7-0.3h0.3
		c0,0.4,0.3,0.9,0.9,1.6c-0.6,0-1.2-0.2-1.9-0.7v0.3l-0.6-0.3c0-0.2,0.1-0.2,0.3-0.2c0-0.4-0.2-0.6-0.7-0.7c0,0.5-0.1,0.9-0.2,1.2
		c0.4,0.5,0.6,0.9,0.6,1.2h0.6V72h0.3c1,0.6,1.5,1,1.6,1.2v0.3h-0.7c-0.4,0-0.6-0.2-0.6-0.7l-0.9,0.7c-0.3,0-0.8-0.6-1.6-1.8v-0.7
		l0.7-0.9V70l-0.7,0.2l-0.6-0.2v1.2l0.3,0.7c-0.2,0-0.3,0.1-0.3,0.2l-0.6-0.2v1.2c0.6,0,0.9,0.1,0.9,0.3c0,0.3,0.5,0.7,1.5,1.2v0.6
		c-0.6-0.3-0.9-0.6-0.9-0.9c-0.2,0-0.3,0.1-0.3,0.3c-0.4,0-1-0.2-1.8-0.7c0,1.4-0.1,2.3-0.2,2.5h0.6c0-0.7,0.1-1.2,0.3-1.5
		c1,0.4,1.6,0.9,1.8,1.5v0.3c-1.4,0-2.1,0.7-2.1,2.1l1.2,0.9v-1.2l-0.3-0.7l0.6-0.2c1.9,0.8,2.8,2.1,2.8,4H106
		c-0.1-1.7-0.5-2.6-1.2-2.7l-0.6,0.2l0.3,0.7V80l-1.6,0.3v0.9c0.3,0,0.7,0.2,1.2,0.6v-1.5h0.6c0,0.6,0.3,0.9,0.9,0.9v0.9
		c-0.8,0.6-1.4,0.9-1.8,0.9v0.3h1.2c0.1,0,0.6-0.5,1.6-1.6h0.9c0.3,0,0.5,0.2,0.6,0.7h-0.9v0.9l0.9,1.2v0.2l-0.6,0.9h0.9
		c0.4,0,0.6-0.5,0.6-1.5h0.3c0.8,0.4,1.2,1.1,1.2,2.1h0.2c0-0.6,0.5-0.9,1.6-0.9c0,0.8,1.6,1.6,4.9,2.4l-0.3,0.7
		c0.5,0.8,1,1.8,1.2,3.1l-0.9,0.6c0-0.2-0.1-0.5-0.3-0.9c0.2,0,0.3-0.1,0.3-0.3c0-1.5-1.5-2.9-4.6-4v0.3l-2.1-0.7v1.6l0.9-0.6v0.9
		h0.6c0.3,0,0.5-0.2,0.6-0.7c0.4,0,0.7,0.3,0.7,0.9h0.2l0.7-0.2v0.6l-0.3,0.6l-1.5-0.6v0.3l-1.8-0.9c-0.4,0.2-0.8,0.2-1,0.2v0.3h1.2
		v0.6h-0.6V90h0.3c0.3-0.2,0.7-0.3,1.2-0.3V90l-0.2,0.6h0.2l-0.2,0.7l-0.9-0.7c-0.7,0.3-1,0.7-1,1c1.9,0.3,2.8,0.7,2.8,1.2
		c0.2,0,0.5-0.1,0.9-0.2c0.2,0,0.5,0.1,0.9,0.2l-0.3,0.7h1.6c0.3,0,0.5-0.2,0.6-0.7c0.2,0,0.3,0.1,0.3,0.3l0.9-0.6v0.2
		c0,0.4-0.2,0.7-0.7,0.7v0.2c1.1,0.4,2.2,1.3,3.4,2.5c0,0.2-0.1,0.3-0.3,0.3L120,97v0.3l-0.6-0.3h-0.3l0.3,0.6h-0.3l-1.6-0.2v1.2
		h0.3l1.8-0.9v0.3l0.7-0.3h0.2l0.9,0.7l0.3-1.8h0.6V97h0.7v-0.6c-0.4,0-0.7-0.4-0.7-1.2h-0.6v0.6c-0.2,0-0.3-0.1-0.3-0.3
		c-0.4,0-0.6,0.3-0.6,1c-0.4-0.2-0.7-0.3-0.9-0.3l0.3-0.7l-0.7-0.9h0.3l0.6,0.3c0-0.2,0.3-0.4,0.9-0.6l1.6,0.6L124,94
		c1,0.5,1.5,1.3,1.5,2.1h0.7l-0.3-0.7v-0.6h0.3c1.2-2,1.9-3.1,2.1-3.1c0-0.2-0.1-0.5-0.3-0.9c1.1-1,1.7-1.8,1.8-2.4
		c0.6,0.3,0.9,0.6,0.9,0.9v0.2h-0.6v0.7c0.7-0.6,1.3-0.9,1.8-0.9l-0.3-1.6l-0.9,0.7c-0.4,0-0.6-0.4-0.6-1.2
		c-0.6,0.3-0.9,0.6-0.9,0.9l-0.7-0.3c-0.4,0-0.6,0.2-0.6,0.7c-1.4-0.2-2.1-0.5-2.1-0.9c0-0.4,0.3-0.7,0.9-0.7v-0.3l-0.3-0.6
		l-0.6,0.3h-0.3v-0.3c1.7-1.1,2.5-1.8,2.5-2.1h0.6c0,0.2,0.1,0.5,0.3,0.9h-0.3c0,1,0.3,1.7,0.9,1.8c1.4-0.8,2.3-1.7,2.8-2.7v-0.6
		l-1.2,0.6l0.2,0.7v0.6h-0.6v-0.6c-0.2,0-0.3,0.1-0.3,0.2c-0.2,0-0.6-0.8-1.2-2.4v-0.3c0.5,0,1.2-0.3,2.1-0.9c0.7,0.7,1,1.3,1,1.8
		h0.2v-2.1l-0.2-0.6l-1,0.6v-0.2l0.7-0.9l1.5,1.2h0.3c0-0.2,0.1-0.5,0.3-0.9h-0.3l0.3-1.5l-0.3-1.2c0.3,0,0.5-0.2,0.6-0.6l1.2,0.6
		l0.6-0.3c0-0.2-0.1-0.2-0.2-0.2l0.2-1.6v-0.6h-0.6v-0.7c0.2,0,0.5,0.1,0.9,0.3c0.3,0,0.5-0.2,0.7-0.6v-0.9h-0.3v0.6h-0.7v-0.6
		l0.7-0.9l-0.3-0.7c0.2,0,0.3-0.1,0.3-0.2c0.3,0,0.5,0.2,0.6,0.6v0.3l-0.2,0.6h0.9c0-0.8,0.2-1.2,0.6-1.2l-1.2-1.5
		c1,0,1.6-0.2,1.6-0.7h0.6v0.7h0.3v-0.3c-0.4-0.7-0.7-1.2-0.7-1.5c-0.8,0.5-1.2,0.9-1.2,1.2c-0.4,0-0.7-0.2-0.7-0.6
		c0-0.4,0.3-0.6,0.9-0.6c0.3-0.8,0.7-1.2,1.2-1.2v-0.3c0-0.3-0.2-0.5-0.6-0.6c0.4-0.5,0.6-0.9,0.6-1.2h0.6c0,0.5,0.7,1,2.1,1.6v-0.3
		l-0.9-1.2c-0.2,0-0.2,0.1-0.2,0.3c-0.3,0-0.8-0.6-1.6-1.8l0.6-0.9l-0.6-0.9v-0.3h0.6l1.9,0.9c0-0.4,0.2-0.6,0.6-0.6l-0.3-2.1v-0.7
		h0.3l0.6,0.3c0-0.2,0.1-0.5,0.3-0.9c-0.4,0-0.6-0.2-0.6-0.6c-0.8,0-1.2,0.5-1.2,1.5l-0.9-0.6h-0.3v1.2c0.6,0,0.9,0.2,0.9,0.7
		l-0.2,0.6c-0.8,0-1.7-0.7-2.5-2.1v-0.6h0.3l0.6,0.3c0-0.4,0.3-0.7,0.9-0.7v-0.2h-0.6v-1l-0.7-2.4c0-0.2,0.1-0.5,0.3-0.9l-0.3-0.6
		c0.2-0.4,0.3-0.8,0.3-1.2h0.6l0.3,1.5l0.7-0.2h0.6v0.6c-0.8,0-1.2,0.2-1.2,0.6v0.3c0.7,0,1.2,0.1,1.6,0.3c0.3-0.2,0.8-0.3,1.5-0.3
		v-0.6l-0.6-0.9v-1h0.6v-0.6c-0.2,0-0.5-0.1-0.9-0.3v0.7h-0.3l-0.6-0.3c0,0.4-0.2,0.6-0.6,0.6v-1.8l-0.7,0.3h-0.3
		c0-0.3-0.3-0.8-0.9-1.5c0.5,0,1.2,0.2,1.9,0.6v-0.3l0.6,0.3c0,0.2-0.1,0.3-0.3,0.3c0,0.4,0.2,0.6,0.7,0.6c0-0.4,0.1-0.9,0.2-1.2
		c-0.4-0.5-0.6-0.9-0.6-1.2h-0.6V48h-0.3c-1-0.5-1.5-1-1.6-1.2v-0.3h0.7c0.3,0,0.5,0.2,0.6,0.7l0.9-0.7c0.3,0,0.8,0.6,1.6,1.9v0.6
		l-0.7,0.9v0.3l0.7-0.3l0.6,0.3v-1.2l-0.3-0.6c0.2,0,0.3-0.1,0.3-0.3l0.6,0.3v-1.2c-0.6,0-0.9-0.1-0.9-0.3c0-0.3-0.5-0.7-1.5-1.2V45
		c0.6,0.3,0.9,0.6,0.9,0.9c0.2,0,0.3-0.1,0.3-0.3c0.4,0,1,0.2,1.8,0.7c0-1.4,0.1-2.3,0.2-2.5h-0.6c0,0.7-0.1,1.2-0.3,1.6
		c-1-0.4-1.7-1-1.8-1.6v-0.3c1.4,0,2.1-0.7,2.1-2.1l-1.2-0.9v1.2l0.3,0.7l-0.6,0.2c-1.9-0.8-2.8-2.1-2.8-4h0.7
		c0,1.4,0.4,2.4,1.2,2.8l0.6-0.3l-0.3-0.6v-0.3l1.6-0.3c0-0.1-0.2-1.2-0.7-3.3c0-0.4,0.2-0.6,0.7-0.7c0.5,0,0.9,1,1.2,3.1l0.7-0.3
		l-0.3-0.6v-0.6h0.7c0,0.7,0.1,1.2,0.2,1.5l0.7-0.3c0-0.3-0.2-0.5-0.7-0.6c0-0.2,0.1-0.5,0.3-0.9c-0.3-0.6-0.6-0.9-0.9-0.9l-0.7,0.3
		c0-1.1-0.1-2-0.2-2.8c0.2,0,0.2-0.1,0.2-0.2c-0.6-0.3-0.9-0.6-0.9-0.9c-0.3,0-0.6,0.4-0.9,1.2c0.2,0,0.4,0.3,0.7,0.9
		c-0.4,0.6-0.7,1.1-0.7,1.6l-1.2-0.9c0,0.2,0.1,0.5,0.2,0.9v0.3c-0.4,0-1.2,0.6-2.1,1.8h-0.9c-0.4,0-0.6-0.2-0.6-0.7h0.9v-0.9
		l-0.9-1.5l0.3-0.7c0.4,0,0.7,0.7,0.9,2.1h0.2c0-0.3,0.4-0.7,1.2-1.2v-0.3h-1.2c-0.6-1.2-1.1-1.8-1.5-1.8v0.2
		c-0.8-0.5-1.2-0.9-1.2-1.2v-0.7c0.3,0,0.5,0.2,0.7,0.7c2.2,0.8,3.3,1.6,3.3,2.4c0.4-0.2,0.7-0.3,0.9-0.3l-0.9-2.1
		c0.3,0,0.5-0.2,0.7-0.7l0.9,0.7l-0.3-1.2c-0.2,0-0.3,0.1-0.3,0.3c-0.4,0-0.6-0.3-0.6-0.9h-0.9v0.6h0.6v0.6h-0.6
		c-0.4,0-0.7-0.2-0.7-0.6v-0.3l0.3-0.6c-0.2,0-0.3-0.1-0.3-0.3c0.4-0.8,0.8-1.2,1.2-1.2c0-0.3-0.2-0.5-0.6-0.6v0.6
		c-0.5,0-1.6-0.8-3.4-2.4h-0.6c0,0.2,0.4,1.1,1.2,2.7l-0.3,0.6c0.3,0.7,0.6,1,0.9,1c0-0.7,0.2-1,0.6-1h0.3v1h-0.6l0.6,0.9
		c0,0.4-0.2,0.6-0.6,0.6H138c0-0.2,0.1-0.5,0.2-0.9c-0.9-0.5-1.4-1-1.5-1.6l-0.7,0.3c-0.4,0-0.6-0.2-0.6-0.6v-0.3l0.6,0.3
		c0.4,0,0.6-0.2,0.7-0.7c0-0.3-0.2-0.5-0.7-0.6h-0.2l-0.7,0.3l-0.9-1.6h0.3l0.6,0.3c-0.4-1.3-0.6-2.1-0.6-2.5h-0.3
		c0,0.5-0.1,0.9-0.2,1.2l-0.7-0.3c0,0.7-0.2,1-0.6,1h-0.3c0-0.8-0.2-1.2-0.6-1.2v-0.7c0.6,0,0.9-0.2,0.9-0.6l0.6,0.3v-0.3
		c-0.6-0.6-0.9-1.3-0.9-2.1H131.9z M101.8,79v0.3c0.2,0.3,0.2,0.7,0.2,1.2h0.3V80c-0.2-0.4-0.3-0.7-0.3-0.9H101.8z M103,43.2
		c0,0.2-0.1,0.5-0.2,0.9v0.3h0.2c0-0.2,0.1-0.5,0.3-1v-0.2H103z M103.6,63.5v2.1h0.2v-1.2h0.3l0.6,0.3c0,0.4,0.7,0.9,2.1,1.5
		l-0.2-1.2c-1-0.4-1.6-0.9-1.6-1.5H103.6z M104.2,41.6v0.3h0.6V41C104.4,41,104.2,41.2,104.2,41.6z M107.8,75.4
		c0,0.4-0.2,0.6-0.6,0.6h-0.6v-0.6H106c0,0.4-0.2,1-0.6,1.8c-0.4,0-0.7-0.2-0.7-0.6l0.3-0.7c-0.2,0-0.3-0.1-0.3-0.2v-0.3
		c0.6,0,0.9-0.4,0.9-1.2h0.3C106,74.9,106.6,75.3,107.8,75.4z M105.7,56.2h-0.2c0,0.2-0.1,0.6-0.3,1v0.6c0.5-0.4,1-0.6,1.6-0.6
		C106.4,56.5,106,56.2,105.7,56.2z M105.4,108.9h-0.3v0.6h0.9C106,109.2,105.8,109,105.4,108.9z M105.7,7.8h-0.2V7.5
		c0-0.3,0.2-0.5,0.6-0.6h0.7C106.4,7.5,106,7.8,105.7,7.8z M105.4,84.2v0.3h1.2v-0.3H105.4z M105.7,52.9v0.3c0,0.4,0.2,0.6,0.7,0.6
		h0.6v-0.9H105.7z M106.9,77.8h-1.2L106,76C106.5,76,106.8,76.6,106.9,77.8z M109.7,5.7v0.6c-0.3,0-1.2,0.2-2.7,0.7
		c0-0.1,0.5-0.6,1.6-1.6C109.2,5.6,109.6,5.7,109.7,5.7z M108.5,8.4h-0.3l-0.6-0.3c0-0.3,0.2-0.5,0.6-0.6h0.3V8.4z M107.8,108.6
		h-0.2c0,0.4,1.7,1.5,5.1,3.4c0.4,0,0.6-0.2,0.7-0.7v-0.9c-0.2,0-0.5,0.1-0.9,0.3c-1.4-0.5-2.1-0.9-2.1-1.2h-0.9L107.8,108.6z
		 M110,79.7l-0.3,0.6c-1.2,0-1.8-0.7-1.8-2.1v-0.3C108.6,79,109.3,79.6,110,79.7z M108.2,45v1.2l0.6-0.3v-1.2L108.2,45z M109.4,86.4
		h-0.9v0.2c0.7,0,1.2,0.1,1.5,0.3h0.3v-0.3C110.1,86.6,109.8,86.6,109.4,86.4z M109.7,82.8h-0.9v-1.6h0.7L109.7,82.8z M109.1,43.7
		v0.3c0.5-0.8,1-1.2,1.2-1.2v-1.2C110,41.6,109.6,42.3,109.1,43.7z M110.9,5.1c0,0.4-0.2,0.6-0.6,0.6H110V5.4c0-0.3,0.2-0.5,0.7-0.6
		h0.2V5.1z M110.6,40.1l-0.7,0.3c0.3,0.8,0.6,1.2,0.9,1.2h0.3l-0.3-1.5H110.6z M111.2,57.4v0.3c-0.2,0-0.5,0.1-0.9,0.3
		c0-0.2-0.1-0.3-0.3-0.3l0.7-0.9C111,56.8,111.2,57,111.2,57.4z M110.9,60.8h-0.2c-0.4,0-0.7-0.2-0.7-0.7v-0.6h0.7
		C110.6,60,110.7,60.4,110.9,60.8z M111.6,6.3c-0.3,0.6-0.6,0.9-0.9,0.9h-0.3c0.5-0.8,0.9-1.2,1.2-1.2V6.3z M110.9,36.7v0.9h0.3
		c0.3,0,0.5-0.2,0.6-0.6v-0.3H110.9z M112.1,44.1c0,0.4-0.2,0.6-0.6,0.6c-0.4,0-0.7-0.2-0.7-0.6c0.2,0,0.5-0.1,0.9-0.3
		C111.8,43.9,111.9,44.1,112.1,44.1z M111.8,55.6h-0.6v-0.3c0-0.3,0.2-0.5,0.6-0.6V55.6z M112.1,83.3l-0.3,0.6l-0.6-0.2l0.3-0.7
		L112.1,83.3z M111.6,38.5v1.6h0.2c0-0.2,0.1-0.5,0.3-0.9c-0.2,0-0.3-0.2-0.3-0.7H111.6z M112.7,49.8l0.3,0.6
		c-0.4,0.5-0.6,0.9-0.6,1.2h-0.9v-0.3c0-0.3,0.2-0.5,0.6-0.6l-0.3-1.5v-0.3h1.2C113,49.1,112.9,49.5,112.7,49.8z M113.4,6
		c0,0.4-0.2,0.6-0.7,0.6V5.4h0.7V6z M114.5,33.4c0,0.6-0.6,1.2-1.8,1.8v1.2h0.3c0-0.7,0.6-1.4,1.8-2.1v-0.9H114.5z M113.9,46.5h-0.3
		l-0.6-0.2c0.2-0.4,0.3-0.7,0.3-0.9h0.6V46.5z M114.3,95.2h-0.9v0.2c0.2,0,0.5,0.1,0.9,0.3h0.6C114.9,95.5,114.7,95.3,114.3,95.2z
		 M115.8,3.2l-1.5,1.2c-0.4,0-0.7-0.2-0.7-0.6c0.3,0,0.9-0.3,1.9-0.9C115.5,3.1,115.6,3.2,115.8,3.2z M113.6,110.7l0.7,1.2
		c0.5,0,1.3-0.1,2.4-0.3l1.6,0.9v-0.3c0-0.2-0.6-0.6-1.8-1.2l-0.9,0.6h-0.7v-0.9H113.6z M115.5,42.5c-0.8-0.3-1.2-0.6-1.2-0.9h1.2
		V42.5z M115.5,48v0.3l-0.7,0.9l-0.6-0.3c0-0.4,0.2-0.9,0.6-1.6C115.2,47.4,115.4,47.6,115.5,48z M115.8,4.8h-0.6
		c0-0.3,0.2-0.5,0.6-0.7h0.7C116.4,4.6,116.2,4.8,115.8,4.8z M115.2,101.6v0.7h1.2v-0.7H115.2z M115.8,36.5l-0.2,1.5h0.2l0.7-0.3
		c-0.2-0.7-0.3-1.1-0.3-1.2H115.8z M116.4,97.9c0,0.6-0.3,0.9-0.9,0.9v0.3h1.8C117,98.3,116.7,97.9,116.4,97.9z M116.7,96.1
		c-0.3,0-0.6,0.4-0.9,1.2c0.2,0,0.5,0.1,0.9,0.2c0-0.2-0.1-0.5-0.2-0.9c0-0.2,0.2-0.2,0.6-0.2v-0.3H116.7z M117.3,2.6L117,3.2
		L116.4,3l0.2-0.7L117.3,2.6z M116.4,27.9v0.3h1.2v-0.6L116.4,27.9z M118.2,36.5c0,0.4-0.2,0.6-0.7,0.6h-0.2v-0.3
		c0-0.3,0.2-0.5,0.6-0.6h0.3V36.5z M120.4,2.1H120c-1,1.4-1.8,2.1-2.1,2.1h-0.3l0.3-0.6c0.4,0,1-0.7,1.8-2.1h0.7V2.1z M118.2,33.1
		l0.2,1.5h0.3v-0.2l-0.3-0.7l0.3-0.6v-0.3L118.2,33.1z M118.2,95.8v0.9h0.9c-0.2-0.4-0.3-0.7-0.3-0.9H118.2z M119.7,41
		c0,0.4-0.2,0.6-0.6,0.6h-0.3v-0.2l0.3-0.7L119.7,41z M120,113.4l-0.6-0.2l-0.3,0.6h2.1l-0.3-0.6C120.7,113.2,120.4,113.3,120,113.4
		z M121,29.7v0.7c-0.2,0-0.5,0.1-0.9,0.3h-0.3V30l0.3-0.6C120.4,29.6,120.7,29.7,121,29.7z M121.5,28.5H121v-0.7
		c0.3-0.6,0.6-0.9,0.9-0.9h0.3C121.8,27.6,121.5,28.2,121.5,28.5z M123.1,26.1h-0.3l-0.6-0.3c0,0.2-0.1,0.3-0.3,0.3h-0.3
		c0.4-0.7,0.7-1.2,0.7-1.5h0.6L123.1,26.1z M122.4,20.9v0.3c0.2,0,0.5,0.1,1,0.3v-0.7H122.4z M124.6,20.6c-0.6,0-0.9,0.2-0.9,0.6
		l1.2-0.3v-0.2H124.6z M124.3,95.5c0,0.8-0.2,1.2-0.7,1.2v0.7c0,0.4,0.2,0.6,0.7,0.6c0-0.8,0.4-1.2,1.2-1.2
		C125,95.9,124.6,95.5,124.3,95.5z M124.9,99.8c-0.4,0.2-0.7,0.3-0.9,0.3v0.3h0.3c0.4-0.2,0.7-0.3,0.9-0.3v-0.3H124.9z M124.9,93.1
		h-0.3l0.3-0.6l-0.3-0.7l0.7-0.2h0.6C125.7,92.6,125.4,93.1,124.9,93.1z M125.5,99.4v0.7h0.9v-0.3C126.2,99.8,125.9,99.6,125.5,99.4
		z M127.3,94.6c0,0.6-0.2,1.1-0.6,1.6v0.6c0.6-0.3,0.9-0.6,0.9-0.9c0.4,0,0.7,0.3,0.7,0.9h0.2v-0.9H128c0-0.2,0.1-0.3,0.3-0.3
		C128,94.9,127.6,94.6,127.3,94.6z M128,78.8l-0.3,0.6l-0.6-0.3c0-0.3,0.2-0.5,0.6-0.6h0.3V78.8z M128.9,6.9c0,0.2-0.4,0.2-1.2,0.2
		l0.3,0.7c0.2,0,0.5-0.1,0.9-0.3l0.6,0.3l0.3-0.7C129.6,7.2,129.3,7.1,128.9,6.9z M128,85.5v0.2l0.3,0.7L128,87v0.3l0.6-0.3
		l-0.2-1.5H128z M129.2,90.9v1.6c-0.8,0.9-1.2,1.5-1.2,1.8v0.2l0.6-0.2l0.7,0.2c0.2-0.7,0.5-1.6,1.2-2.7v-1.2L129.2,90.9z
		 M129.5,83.3c0,0.4-0.2,0.6-0.6,0.6h-0.3v-0.2c0-0.4,0.2-0.6,0.7-0.7h0.2V83.3z M129.2,119.6h-0.7V119h0.3c1-1.4,1.8-2.1,2.1-2.1
		h0.2C130.6,117.5,129.9,118.4,129.2,119.6z M131,82.1l-0.7,0.3l0.3,1.2h0.3l0.2-1.6H131z M130.7,8.4v0.3c0,0.3,0.6,0.7,1.8,1.2
		l0.9-0.7h0.7v0.9h0.6c0-0.2,0.1-0.5,0.3-0.9c-0.2,0-0.3-0.1-0.3-0.2c-0.5,0-1.3,0.1-2.4,0.2L130.7,8.4z M132.5,71.1
		c0,0.4-0.2,0.9-0.6,1.6c-0.4,0-0.7-0.2-0.7-0.7v-0.2l0.7-0.9L132.5,71.1z M132.5,78.5h-1.2v-0.9C132.1,77.8,132.5,78.1,132.5,78.5z
		 M132.5,118.1l-0.2,0.6l-0.7-0.3l0.3-0.6L132.5,118.1z M134.1,83c0,0.8-0.7,1.7-2.1,2.7v0.9h0.3c0-0.5,0.6-1.2,1.8-1.8v-0.9
		l0.2-0.6V83H134.1z M133.2,116.8h-0.7c0-0.3,0.2-0.5,0.7-0.7h0.6C133.7,116.6,133.6,116.8,133.2,116.8z M133.7,73.8
		c-0.2,0.4-0.3,0.8-0.3,1h-0.6v-1.2h0.3L133.7,73.8z M135.2,117.1c-0.3,0-0.9,0.3-1.8,1c0-0.2-0.1-0.3-0.2-0.3l1.5-1.2
		C135,116.5,135.2,116.7,135.2,117.1z M133.7,31.8h-0.3v-0.6c0.2,0,0.5-0.1,0.9-0.3h0.3C134.3,31.5,134,31.8,133.7,31.8z
		 M134.7,19.1h-0.9V20c0.3-0.2,0.8-0.2,1.5-0.2C135.2,19.3,135,19.1,134.7,19.1z M133.7,23.3v0.9h0.6c-0.2-0.4-0.2-0.7-0.2-0.9
		H133.7z M135.2,68.7c0,0.4-0.2,0.6-0.6,0.6l0.3,1.6v0.2h-1.2c0-0.2,0.1-0.5,0.3-0.9l-0.3-0.6c0.4-0.5,0.6-0.9,0.6-1.2h0.9V68.7z
		 M134.3,22.4V23l2.1,0.7c0.3,0,0.5-0.2,0.7-0.7c-0.2,0-0.5-0.1-1-0.2L135,23v-0.6H134.3z M136.1,24.8c0-0.6-0.5-0.9-1.5-0.9v0.3
		c0,0.4,0.8,0.9,2.5,1.2c0-0.2,0.1-0.5,0.2-0.9v-0.7L136.1,24.8z M135.6,33.7c-0.4-0.2-0.7-0.2-0.9-0.2v-0.3h0.9V33.7z M135.6,36.5
		l-0.3,0.6l-0.6-0.3l0.3-0.6L135.6,36.5z M135.9,76c-0.2,0-0.5,0.1-0.9,0.3c0-0.2-0.1-0.3-0.3-0.3c0-0.3,0.2-0.5,0.6-0.6
		C135.6,75.4,135.8,75.6,135.9,76z M135,80c0,0.2-0.1,0.5-0.3,0.9c0.2,0,0.3,0.2,0.3,0.7h0.2V80H135z M135.6,64.8
		c0,0.4-0.2,0.6-0.6,0.6v-0.9h0.6V64.8z M135.6,82.4c-0.4,0-0.6,0.2-0.6,0.6v0.3h0.9v-0.9H135.6z M135.2,9.3
		c0.2,0.4,0.3,0.7,0.3,0.9h0.9c0.7,0.6,1.4,1,2.1,1.2h0.9l0.6,0.3c0-0.2-0.3-0.5-0.9-0.9c-1.8-1-2.7-1.6-2.7-1.8L135.2,9.3z
		 M136.8,62.3l-0.7,0.9c-0.4,0-0.6-0.2-0.6-0.6v-0.3c0.2,0,0.5-0.1,0.9-0.2C136.5,62.2,136.6,62.3,136.8,62.3z M135.9,78.5h-0.3
		l0.3,1.5h0.2l0.7-0.2C136.5,78.9,136.2,78.5,135.9,78.5z M136.1,115.6h-0.6V115c0-0.4,0.2-0.6,0.6-0.7V115.6z M135.9,25.7v0.3
		c0,0.4,0.2,0.7,0.6,0.7v-1H135.9z M136.8,59.9v0.6h-0.7c0-0.4-0.1-0.9-0.2-1.2h0.2C136.5,59.2,136.7,59.5,136.8,59.9z M137.4,34.6
		v0.7h-0.2c-0.4,0-0.7-0.2-0.7-0.7v-0.2C136.9,34.5,137.2,34.6,137.4,34.6z M136.5,77.2v1.2c0.3,0,0.7-0.7,1.2-2.1V76
		C137.2,76.8,136.7,77.2,136.5,77.2z M138.9,41.9v0.3c-0.8-1.2-1.5-1.8-2.1-1.8l0.3-0.7C138.3,39.8,138.9,40.5,138.9,41.9z
		 M138,38.9h-0.7l-0.2-1.5h0.9V38.9z M137.4,115v-0.3c0.3-0.6,0.6-0.9,0.9-0.9h0.3C138.1,114.6,137.7,115,137.4,115z M138,21.5V23
		l0.6-0.2l-0.3-1.2H138z M138,25.5v0.9h0.6c-0.2-0.4-0.3-0.7-0.3-0.9H138z M138,74.2v1.2l0.6-0.3v-1.2L138,74.2z M138.9,115.6
		c0,0.4-0.2,0.6-0.7,0.6H138v-0.2c0-0.4,0.2-0.6,0.6-0.7h0.3V115.6z M142,43.4l-0.3,0.7c0.2,0,0.3,0.1,0.3,0.3v0.2
		c-0.6,0-0.9,0.4-0.9,1.2h-0.3c0-0.7-0.6-1.1-1.8-1.2c0-0.3,0.2-0.5,0.6-0.6h0.6v0.6h0.7c0-0.4,0.2-1,0.6-1.8
		C141.7,42.8,141.9,43,142,43.4z M143.5,113.4c-2,1.2-3.1,1.9-3.1,2.1l-1.2-0.3v-0.6c1.1,0,2.4-0.5,4-1.5h0.3V113.4z M139.5,25.5
		v1.2h0.6c-0.2-0.4-0.2-0.8-0.2-1.2H139.5z M140.8,44.1c-0.6-0.2-0.9-0.8-0.9-1.8h1.2L140.8,44.1z M142,55.3c0-0.4-0.7-0.9-2.1-1.5
		c0,0.2,0.1,0.5,0.2,0.9l1.6,1.8h1.5v-2.1h-0.2v1.2h-0.3L142,55.3z M140.4,66.3h-0.6v0.9h1.2v-0.2C141.1,66.5,140.9,66.3,140.4,66.3
		z M140.1,63c0.3,0.6,0.7,0.9,1,0.9h0.2c0-0.2,0.1-0.5,0.3-0.9v-0.7C141.2,62.7,140.6,63,140.1,63z M141.3,112.9
		c0,0.4-0.2,0.6-0.6,0.6h-0.3v-0.9h0.3L141.3,112.9z M142.6,38.3v1.5H142c0-0.6-0.3-0.9-0.9-0.9V38c0.2,0,0.5-0.1,0.9-0.3
		C142.3,37.6,142.5,37.8,142.6,38.3z M142,11.8c0.4,0.5,0.6,0.9,0.6,1.2h0.3v-0.2c-0.2-0.4-0.3-0.7-0.3-0.9H142z M142,78.1V79
		c0.3,0,0.5-0.2,0.6-0.6v-0.3H142z M143.2,30.4c0,0.2,0.1,0.3,0.3,0.3c0,0.2-0.1,0.5-0.3,0.9v0.2h0.3v-0.2h1.2
		C144.6,31.2,144.1,30.7,143.2,30.4z M143.5,12.7v0.6c0.2,0,0.5,0.1,0.9,0.3C144.1,13,143.8,12.7,143.5,12.7z M143.8,75.7
		c0,0.2-0.1,0.5-0.3,0.9v0.2h0.3c0-0.2,0.1-0.5,0.2-0.9v-0.2H143.8z M144.4,39.5v0.6c0.2,0.4,0.3,0.7,0.3,0.9h0.2v-0.3
		c-0.2-0.3-0.2-0.7-0.2-1.2H144.4z M146.5,11.5v0.3h-0.3l-0.9-0.7l0.3-0.6C146.2,10.9,146.5,11.2,146.5,11.5z M145.3,39.8v0.3
		c0,0.4,0.2,0.6,0.7,0.6v-0.2C146,40,145.7,39.8,145.3,39.8z M146,58.1c0,0.3-0.2,0.7-0.7,1.2v0.7c0.4,0,0.7-0.5,0.9-1.6v-0.2H146z
		 M145.3,60.5l0.3,1.6h0.3v-1.6H145.3z M145.6,33.1v0.3c0,0.6,0.2,0.9,0.6,0.9l-0.2-1.2H145.6z M145.6,44.6v1.2h0.6l-0.2-1.2H145.6z
		 M145.6,47.7v1.6h0.3v-1.6H145.6z M146,13.9v0.2c0.3,0,0.7,0.2,1.2,0.7l-0.2-1.2C146.4,13.8,146.1,13.9,146,13.9z M146.2,39.2v1.2
		h0.3v-1.2H146.2z M147.1,40.4v1.8l-0.2,0.6c0.4,0,0.6,0.8,0.6,2.5c0.3,0,0.5-0.2,0.6-0.7v-0.6l-0.2-1.8c0.2-0.4,0.2-0.7,0.2-0.9
		c-0.2-0.4-0.2-0.7-0.2-0.9H147.1z M148.4,46.2l-0.6-0.3c0,0.4,0.1,0.9,0.2,1.2l-0.2,0.6c0.2,0.8,0.2,1.6,0.2,2.5h0.3v-1.6l-0.3-1.2
		c0.3-0.4,0.6-0.6,0.9-0.6v-0.9L148.4,46.2z M148,60.1v1l0.7-0.3C148.7,60.5,148.5,60.3,148,60.1z M148.9,96.1
		c-0.4,0-0.6,0.2-0.6,0.6V97c0.6-0.3,0.9-0.6,0.9-0.9H148.9z M151.1,24.8h-0.2l0.6,1.2l0.6-0.3C151.7,25.1,151.4,24.8,151.1,24.8z
		 M151.1,21.5v0.3c0.3,0.6,0.6,0.9,0.9,0.9v-0.3C151.7,21.8,151.4,21.5,151.1,21.5z M151.7,34.3v0.2h0.9v-0.2l-0.3-0.7
		C151.9,33.7,151.7,33.9,151.7,34.3z M153.9,23.9v0.3c0,0.6,0.2,0.9,0.6,0.9l-0.3-1.2H153.9z M154.5,25.5v0.6c0.7,2,1.4,3.5,2.1,4.3
		h0.2V30l-1.8-4.5H154.5z M154.8,41c0,0.2-0.1,0.5-0.3,0.9v0.3l0.6-0.3V41H154.8z M155.7,30v0.3c0,0.5,0.3,1.3,0.9,2.4
		c-0.2,1.1-0.3,1.7-0.3,1.8c0.6,0,1,0.4,1.2,1.2v0.3h-0.7v-0.6h-0.2v0.2c0.2,0.3,0.2,0.9,0.2,1.6c0.2,0,0.3-0.1,0.3-0.3
		c0.5,0,0.8,0.6,0.9,1.8h-0.6v1.2l0.6-0.3l0.7,0.3c0-0.2,0.2-0.3,0.6-0.3v-1.2l-1.8-4.5c-0.2-1-0.7-2.4-1.6-4H155.7z M155.9,46.8
		h-0.2c0.2,0.4,0.2,0.7,0.2,0.9l0.7-0.3C156.6,47,156.4,46.8,155.9,46.8z M155.9,50.2v1.2h0.7v-1.2H155.9z M158.1,27.3v0.3
		c-0.2,0-0.7-0.6-1.5-1.9v-0.2l0.2-0.7C157.2,24.8,157.6,25.7,158.1,27.3z M158.4,29.5v0.2h-0.7c0-0.2-0.1-0.5-0.2-0.9v-0.6
		C157.8,28.2,158.1,28.6,158.4,29.5z M158.1,40.4v2.1l0.7-0.2h0.2v0.9c0,0.6-0.2,1.2-0.6,1.8l0.3,0.6l0.6-0.2l-0.3-0.7
		c0-0.3,0.2-0.5,0.7-0.6c-0.2-1-0.3-2.1-0.3-3.1c-0.2,0-0.3,0.1-0.3,0.3c-0.4,0-0.6-0.3-0.6-0.9H158.1z M159.7,30
		c0,0.4-0.2,0.7-0.7,0.7c0-0.2-0.2-0.9-0.6-2.1h0.6C159,28.9,159.2,29.4,159.7,30z M159.7,26.7c-0.4,0-0.7-0.2-0.7-0.7v-0.6h0.7
		V26.7z M159,45.9c0,0.2,0.1,1,0.3,2.5l0.6-0.3c0-0.8-0.1-1.5-0.2-2.1H159z M160.8,28.8v0.3h-0.2c-0.4,0-0.7-0.2-0.7-0.6v-0.3h0.3
		C160.6,28.2,160.8,28.4,160.8,28.8z M160.2,83.7V83l2.7-2.7h0.3C162.7,81.7,161.7,82.8,160.2,83.7z M161.5,86.1l-0.7,0.9
		c-0.4,0-0.6-0.2-0.6-0.6v-0.3c0-0.3,0.2-0.5,0.6-0.6h0.7V86.1z M161.1,71.8c0,0.6-0.2,0.9-0.6,0.9l0.2,0.6c0.4,0,0.6-0.2,0.7-0.6
		v-0.9H161.1z M161.1,49.3c0,0.7-0.1,1.2-0.3,1.5h0.3l-0.3,1.6c0.2,0.4,0.3,0.7,0.3,0.9h0.3c0-0.2,0.1-0.5,0.2-0.9
		c0-0.3-0.1-1.3-0.2-3.1H161.1z M160.8,58.7v1.2h0.3v-1.2H160.8z M163.6,85.7c-0.7,1.4-1.2,2.1-1.6,2.1h-0.3v-0.2l0.7-1v-0.6
		l-0.3-0.6l0.9-0.7l-0.2-0.6c0-0.3,0.2-0.5,0.6-0.6L163.6,85.7z M162,62.3v0.3c0,0.4,0.2,0.6,0.7,0.6v-0.9H162z M163.3,36.5v0.2H163
		l-0.6-0.2l0.3-0.7C163,35.8,163.2,36,163.3,36.5z M164.2,77.2c-0.5,0.8-0.9,1.2-1.2,1.2h-0.6v-0.3c0.8-0.4,1.2-1,1.2-1.8h0.2
		C163.9,76.5,164,76.8,164.2,77.2z M163.9,38l-0.2,0.6l-0.7-0.2l0.3-0.7L163.9,38z M163.9,82.8h-0.6v-0.3c0-0.3,0.4-0.6,1.2-0.9h0.2
		C164.5,82.3,164.2,82.8,163.9,82.8z M164.5,47.4v1h-0.7c0-0.2-0.1-0.5-0.2-1v-0.2C164,47.3,164.3,47.4,164.5,47.4z M165.4,72.7v0.6
		c0,0.4-0.2,0.6-0.7,0.6h-0.2v-1.2l0.2-0.7C165.2,72,165.4,72.3,165.4,72.7z M165.1,79h-0.6l0.2-1.2h0.7L165.1,79z M166.9,67.8
		c-0.9,1.6-1.5,2.4-1.8,2.4h-0.3V70c0.6-0.5,0.9-1.4,0.9-2.5c0.8,0,1.6-0.6,2.5-1.8h0.3C168.5,67.1,168,67.8,166.9,67.8z
		 M166.3,74.2c0,1-0.3,1.6-0.9,1.8h-0.3v-0.2c0.4-0.5,0.6-1.2,0.6-2.1h0.7V74.2z M167.2,71.1c-0.2,0.4-0.3,0.7-0.3,0.9h-0.6v-0.6
		l0.2-0.6L167.2,71.1z M168.7,64.1h-0.6V63h0.6V64.1z M169.1,53.2h-0.6v-0.9h0.6V53.2z"/>
	<path d="M177.6,52.8h-0.6v-0.2c0-0.2,0.1-0.3,0.3-0.3l-0.3-0.7v-0.2h0.6V52.8z M177.6,57.2c-0.4-0.1-0.6-0.3-0.6-0.7v-0.2
		c0-0.2,0.1-0.3,0.3-0.3l-0.3-0.7c0-0.4,0.2-0.6,0.6-0.6l-0.2-0.7v-0.2c0-0.3,0.3-0.7,0.9-1l0.6,0.3c0-0.4,0.2-0.6,0.7-0.6h0.3
		c0,0.2-0.1,0.2-0.3,0.2l0.3,0.7c-0.2,0.7-1,1.2-2.2,1.6l1,1.5L177.6,57.2z M177.4,59c0-0.2-0.1-0.2-0.3-0.2
		c0.3-0.8,0.6-1.2,0.9-1.2l0.3,0.6C178.3,58.4,178,58.7,177.4,59z M178.9,64.9h-0.2c-0.8-0.3-1.2-0.6-1.2-0.9v-0.3
		c0.7-1.7,1.2-2.5,1.5-2.5c0.4,0,0.7,0.2,0.7,0.7c-0.3,0.8-0.7,1.2-1.2,1.2l0.3,0.6l-0.3,0.7h0.6V64.9z M178.3,66.4v-0.3l-0.7,0.3
		h-0.2v-0.6l1.5-0.3v0.3C178.8,66.2,178.6,66.4,178.3,66.4z M178.9,68.3h-0.6v-1h0.6V68.3z M179.2,58.4l-0.3-0.7v-2.1h0.7
		c0.4,0,0.6,0.2,0.6,0.7h-0.9v0.9l0.7,0.9L179.2,58.4z M178.9,77.9v-1c0-0.4,0.2-0.6,0.7-0.6v0.3l-0.3,0.6c0.2,0,0.3,0.1,0.3,0.3
		L178.9,77.9z M191.9,119.6h-0.3c-0.2,0-0.9-1-1.9-3.1v-0.7c0-0.2,0.1-0.3,0.3-0.3c-0.4-1-0.6-2.9-0.6-5.5v-7.8h-0.7l0.7-0.9V101
		c0-0.2-0.1-0.2-0.3-0.2l0.3-0.7v-0.3l-0.9-1.2c0.4-0.2,0.7-0.2,0.9-0.2v-0.7l-0.7-0.9h0.7v-0.3c-0.8,0-1.2-0.7-1.2-2.1
		c-0.2,0-0.3-0.2-0.3-0.6c0.2,0,0.3-0.1,0.3-0.3l0.6,0.3h0.3c0-0.4-0.3-0.7-0.9-0.7v-1.8l-0.7-1c0.2,0,0.3-0.1,0.3-0.2l-1.6-1
		c0,0.2-0.1,0.3-0.2,0.3V88l-0.7-0.3c0,0.3-0.2,0.7-0.6,1.2c0.2,0,0.2,0.1,0.2,0.3l-0.6,0.3l-0.3-0.7v-0.2l0.3-0.7
		c-0.2,0-0.3-0.1-0.3-0.3l1.9-1.2c-0.2-0.3-0.3-0.7-0.3-1.2h-0.7v0.7h-0.2c-0.6-0.4-1.1-0.7-1.6-0.7V85c1,0,1.6-0.2,1.6-0.7
		c-0.4-0.1-0.7-0.2-0.7-0.6v-0.7c0.4,0,0.7-0.2,0.7-0.6h0.2V84h0.3c0-0.6,0.1-0.9,0.3-0.9c-0.2-0.4-0.3-0.7-0.3-0.9
		c0-1,0.3-1.6,0.9-1.6c0-0.3-0.5-0.7-1.5-1.2h-0.7c0.6,0.7,0.9,1.2,0.9,1.6c-0.4,0.7-0.6,1.2-0.6,1.6h-1.6v-0.9l0.7,0.2h0.6v-1.2
		c-0.8-0.1-1.2-0.4-1.2-0.9c0.7,0,1.1-0.7,1.2-2.1l-0.6-0.3l0.2-1.6l-0.2-1.5h0.2l-0.2-0.7c0-0.4,0.2-0.6,0.6-0.6l-0.3-0.7v-0.3
		l0.3-0.6c-0.6,0-0.9-0.2-0.9-0.6c0.4-0.1,0.6-0.3,0.6-0.7v-0.3l-0.2-1.8c0.2-0.8,0.6-1.2,1.2-1.2v-0.3h-1c-0.8,0.7-1.3,1.5-1.5,2.5
		h0.2c0.4-0.2,0.8-0.3,1-0.3v0.3c-0.6,1-1,1.6-1.2,1.6l0.6,3.7c-0.5,0-1,0.3-1.6,0.9v-0.7l0.7-0.9c-0.4-0.1-0.7-0.2-0.7-0.6
		c0.4-0.1,0.7-0.3,0.7-0.7c0-0.4-0.2-1.1-0.7-2.1c0.2-0.6,0.4-0.9,0.7-0.9c-0.2-2.3-0.5-3.4-0.9-3.4c0,0.2-0.1,0.2-0.3,0.2v-0.6h1.2
		v-0.7c-0.7,0-1.2-0.1-1.6-0.2l0.3-1.6v-0.3h-0.7c0.5-1.2,1-1.8,1.6-1.8v-0.7c-0.2,0-0.5-0.1-0.9-0.3c0,0.2-0.1,0.3-0.3,0.3
		c0-0.2-0.1-0.3-0.3-0.3c0.5-1.6,0.8-2.4,1-2.4l-0.3-0.7c0-0.2,0.1-0.3,0.3-0.3l-0.3-0.6l0.6-1.2c-0.3,0-0.6-0.4-0.9-1.2h0.7v-0.7
		h-0.7v-0.6h0.7v-0.7h-0.7v-0.2h0.7c0-0.2-0.1-0.3-0.3-0.3l0.3-1.2l-0.3-1.9h0.3l-0.3-0.6v-0.6c0-0.4,0.2-0.7,0.6-0.7l0.7,0.3v-1.2
		l-0.3-0.7h0.7V43h-0.7c0,0.6-0.2,0.9-0.6,0.9v-0.7c0-0.2,0.1-0.2,0.2-0.2l-0.2-0.7c0-2.4,0.2-4.1,0.6-5c-0.2-0.3-0.3-0.7-0.3-1.2
		l0.7-0.3l-0.3-0.6c0-0.1,0.1-1.5,0.3-4l-0.3-1.5l0.7-0.3l-0.3-0.7c0-0.2,0.1-0.5,0.3-0.9l-0.3-1.6c0.2-0.3,0.3-0.7,0.3-1.2h-0.7
		v-0.9h0.7v-2.5c0-0.2,0.1-0.2,0.2-0.2c0-0.2-0.1-0.3-0.2-0.3c0.4-2.7,0.7-4,0.9-4l-0.3-0.6c1-5.2,1.9-7.8,2.8-7.8l-0.7-0.9
		c0.2-1.4,0.5-2.1,1-2.1v1.8l-0.3,0.7l0.6,0.2c-0.2,2.1-0.4,3.4-0.6,3.7v0.3h0.3l2.5-10.8l-0.3-0.7V0.7h0.6c0.4,0,0.7,0.3,0.7,0.9
		c0,0.2-0.1,0.8-0.3,1.8l0.3,0.7c-0.4,1-0.7,1.9-0.7,2.5v0.6h0.3c0.7-4.5,1.2-6.8,1.6-6.8h0.6c0.4,0,0.7,0.2,0.7,0.6
		c-0.4,2.1-0.7,3.4-0.7,4v0.3h0.3c0.2-1.4,0.5-2.1,0.9-2.1l0.7,0.2c0-0.2,0.1-0.2,0.2-0.2l0.3,0.6c0,0.5-0.1,0.9-0.3,1.2
		c0.2,0.3,0.3,1,0.3,2.1h0.3c0.4-2.6,0.8-4,1.2-4h0.3c-0.3,1.9-0.5,3.2-0.7,3.7h0.7c0-0.5,0.1-1.4,0.2-2.5h0.3l0.7,0.2l0.2-2.1h0.7
		c0,1-0.2,1.6-0.7,1.6c0,0.2,0.1,0.3,0.3,0.3l-0.6,5v0.9h0.2c0-2.1,0.4-3.1,1.2-3.1c0-0.2-0.1-0.2-0.2-0.2c0.4-0.9,0.6-1.5,0.6-1.9
		h0.9l-0.2,3.1c0.3,0,0.8,0.3,1.5,0.9h0.3c0-1.9,0.6-2.8,1.8-2.8l0.3,0.7v3.7h0.7c0-0.7-0.1-1-0.3-1l0.3-1.5V6.8h0.6
		c0,1.2,0.5,1.8,1.6,1.8c0-1.2,0.2-1.8,0.6-1.8c0,1.4,0.4,2.1,1.2,2.1c-0.1,0.4-0.2,0.6-0.6,0.6c0-0.2-0.1-0.2-0.3-0.2
		c0,0.4,0.2,1.1,0.7,2.1l-0.7,1.2h1.2c0-0.4-0.2-1-0.6-1.9l0.9-0.6l0.6,2.7c0,0.2-0.1,0.3-0.2,0.3l0.2,1.6V17h0.7v0.7
		c-0.2,0-0.3-0.1-0.3-0.3l-0.6,0.3h-0.3c-0.2-1-0.3-2.4-0.3-4c-0.4,0-0.6,0.3-0.6,0.9c0,0.2,0.1,1,0.2,2.5c-0.2,0-0.2,0.1-0.2,0.3
		c0.4,0,0.6,0.2,0.6,0.6l-0.3,0.7h0.3l0.7-0.3c0.3,0.5,0.6,1.8,0.9,3.7c-0.3,0.2-0.9,0.3-1.6,0.3l0.3,1.5V26c0,0.2-0.1,0.2-0.3,0.2
		l0.7,1.2c-0.4,1.1-0.7,1.9-0.7,2.5c0.4,0,0.7,0.2,0.7,0.7c-0.4,0-0.7,0.2-0.7,0.6c0.4,0,0.7,0.2,0.7,0.7v0.6
		c-0.6-0.6-1.1-0.9-1.6-0.9l0.6-3.7c-0.3,0-0.7-0.5-1.2-1.6V26h0.3c0.4,0.2,0.7,0.2,0.9,0.2l-0.2-0.6v-0.3l0.2-0.6
		c-1.2-0.7-1.9-1-2.1-1h-0.3v0.3c0.7,0,1,0.2,1,0.7v2.7l0.6,1c-0.4,0.2-0.7,0.2-0.9,0.2l0.3,0.7v0.3l-0.3,0.6c0.4,0,0.6,0.2,0.6,0.7
		c0,0.2-0.1,0.2-0.2,0.2c0,0.2,0.1,0.3,0.2,0.3l-0.2,1.6l0.2,1.6l-0.6,0.2c0.1,1.4,0.5,2.1,1.2,2.1c0,0.6-0.4,0.9-1.2,1v1.2h0.6
		l0.7-0.3v0.9h-1.6l-0.6-2.1c0.3,0,0.6-0.3,0.9-0.9h-0.7c-1,0.6-1.5,1-1.5,1.2c0.6,0,0.9,0.7,0.9,2.1h-0.3c0.2,0.3,0.3,0.9,0.3,1.8
		h0.3v-2.1h0.2c0,0.4,0.2,0.7,0.7,0.7v0.6l-0.7,0.9c0.4,0.2,0.9,0.3,1.6,0.3v0.3c-0.5,0-1,0.2-1.6,0.6h-0.2v-0.6h-0.7
		c0,0.6-0.1,0.9-0.3,0.9c0,0.4,0.6,0.9,1.9,1.6v0.3h-0.3l0.3,0.6v0.3c-0.1,0.4-0.3,0.6-0.7,0.6h-0.2v-0.2c0-0.2,0.1-0.3,0.2-0.3
		c-0.3-0.8-0.6-1.2-0.9-1.2L204,46c0.4,0,0.6,0.2,0.6,0.7h-0.3c0.7,2.2,1,3.5,1,4c-0.4,0-0.7,0.2-0.7,0.7c0.9,0,1.9,2.7,2.8,8H207
		c0.2,0.4,0.5,1.8,0.9,4.3h-0.2c0.2,1.7,0.5,2.7,0.9,3.1v0.9h-0.7c0,0.2,0.1,0.8,0.3,1.9c-0.2,0.4-0.3,0.7-0.3,0.9
		c0.2,0.3,0.3,0.7,0.3,1.2c-0.2,0-0.3,0.1-0.3,0.2l0.7,0.3c0,0.2-0.1,0.8-0.3,1.9c0,0.1,0.1,1.4,0.3,4c-0.2,0-0.3,0.1-0.3,0.3
		c0.4,0,0.7,0.3,0.7,0.9c0,0.2-0.1,0.3-0.3,0.3c0.4,1.7,0.6,3.4,0.6,5.3c0,0.2-0.1,0.2-0.2,0.2l0.2,0.7v0.6h-0.6v-0.9h-0.7v1.6h0.7
		l-0.3,0.6v1.2l0.7-0.2c0.4,0,0.6,0.2,0.6,0.6v0.7c0,0.2-0.1,0.2-0.3,0.2l0.3,0.7c0,0.2-0.1,0.8-0.3,1.8l0.3,0.7
		c-0.2,0.3-0.3,0.7-0.3,1.2l0.3,0.6c-0.2,0.4-0.3,0.7-0.3,0.9c0.2,0.4,0.3,0.8,0.3,1h-0.6c0-0.7-0.2-1-0.7-1v-0.6h0.7
		c0-0.6-0.1-0.9-0.3-0.9l0.3-1.6v-0.6c0-0.5-0.1-0.9-0.3-1.2c0.2-0.4,0.3-0.8,0.3-1.2v-0.3h-0.3c0,1-0.2,1.6-0.7,1.6l0.3,1.5v2.2
		H207v-0.7h-0.9v1.2l0.3,0.6h-0.3c-0.4-0.1-0.7-0.2-0.7-0.6v-1.2l0.3-0.6l0.7,0.2h0.2l-0.2-0.6c0-0.4,0.2-0.7,0.6-0.7l0.7,0.3v-0.9
		h-1v-2.5h0.7v1.8h0.3c0-1.7-0.1-2.5-0.3-2.5c-0.4-0.1-0.7-0.2-0.7-0.6h0.3c-0.6-1.3-0.9-2.3-0.9-2.8h-0.3v0.7c-0.3,0-0.6-0.3-0.9-1
		l0.3-0.6c-0.3,0-0.7-0.4-1-1.2c0.4-0.1,0.7-0.2,0.7-0.6c-0.4-0.1-0.7-0.3-0.7-0.7l0.7-0.3c-0.4-0.7-0.7-1.3-0.7-1.8
		c0-0.4,0.2-0.7,0.7-0.7c0.4,0.2,0.7,0.3,0.9,0.3l0.3-0.6c-0.5,0-1.3-0.1-2.5-0.3l0.3,1.6v0.2c0,0.2-0.1,0.3-0.3,0.3l0.3,0.7
		c0,0.2-0.1,0.2-0.3,0.2c0.2,1.3,0.4,1.9,0.6,1.9l-0.2,0.6v0.9c0,0.4,0.4,0.7,1.2,0.7c-0.1,0.4-0.3,0.6-0.7,0.6
		c0-0.2-0.1-0.2-0.3-0.2l-0.2,0.6l0.2,0.7H204c0,0.6,0.3,0.9,0.9,0.9v0.3l-0.7,0.9v1.2h0.7c0,0.9-0.2,1.7-0.7,2.5h0.7v0.3
		c0,0.2-0.1,0.2-0.3,0.2l0.3,0.7c0,0.2-0.1,0.3-0.3,0.3c0,0.2,0.1,0.2,0.3,0.2c0,0.4-0.2,1.2-0.7,2.1c0.4,0,0.7,0.2,0.7,0.7
		l-0.7,0.9c0.4,0,0.7,0.1,0.7,0.3c0,0.2-0.1,0.3-0.3,0.3l0.7,4h-0.3l0.3,0.7l-0.3,0.6c0.2,0.4,0.3,0.8,0.3,1h-0.3l0.3,0.6v2.5
		c0,0.2-0.1,0.3-0.3,0.3l0.3,0.6c0,0.2-0.1,0.3-0.3,0.3l0.6,1.2l-0.2,0.6l0.2,1.9h-0.2l0.2,0.6v1h-0.6c0-0.9-0.1-1.6-0.3-1.9
		c0-0.2,0.1-0.3,0.3-0.3c-0.5-6.8-1-10.1-1.6-10.1c-0.1,1.2-0.4,1.8-0.9,1.8v0.7l0.6,0.9c-0.3,0-0.6,0.4-0.9,1.2h0.7v0.3
		c0,0.2-0.1,0.2-0.3,0.2l0.3,0.7v0.3h-0.3c-0.4-0.2-0.7-0.3-0.9-0.3v-0.7h0.6l-0.3-0.6l-0.6,0.3h-0.3v-1.9h-1.2l0.3,0.7l-0.6,0.3
		c0.2,0.4,0.2,0.7,0.2,0.9l-0.2,1.2l0.2,0.6l-0.2,0.7c0,0.2,0.1,0.2,0.2,0.2l-0.2,1.6l0.2,2.8H199c-0.4,0-0.7-1-0.9-3.1l0.2-0.6
		v-1.6l-0.2-1.6h0.2l-0.2-0.6v-3.4h-0.3c-0.4,0-0.7,0.2-0.7,0.6c0.2,0,0.3,0.1,0.3,0.3h-0.3c0.4,1.3,0.7,2.1,0.7,2.5l-0.7,0.3
		l0.3,0.6v0.7c0,0.4-0.4,0.6-1.2,0.6v0.3c0.8,0,1.2,0.3,1.2,0.9l-0.6,0.3v-0.7h-0.3v0.7c0.4,0,0.6,0.2,0.6,0.6h-1.5l0.2,0.7v0.3
		c-0.5,0-0.8,0.5-0.9,1.5c0.2,0.4,0.3,0.8,0.3,1l-0.7,0.2l-0.2-0.6c0.2,0,0.2-0.1,0.2-0.3h-0.2l-1,0.7c0-0.2-0.1-0.3-0.2-0.3v0.3
		l0.2,3.7h-0.6c-0.2-0.8-0.3-1.7-0.3-2.5h-0.3l-0.2,1.5V119.6z M180.8,17.7h-0.3v-0.3c0.3-0.8,0.6-1.2,0.9-1.2l0.3,0.6
		C181.7,17,181.4,17.3,180.8,17.7z M181.1,45.7l-0.3-0.6l0.6-0.3h0.3v0.3C181.6,45.5,181.4,45.7,181.1,45.7z M181.7,64.3v-0.9h-0.6
		c0.2,0.4,0.2,0.7,0.2,0.9H181.7z M182,50.1c0-0.5,0.1-0.9,0.3-1.2c-0.4-0.9-0.7-1.5-0.7-1.9h-0.3v0.9l0.3,0.7
		c-0.2,0.4-0.3,0.8-0.3,1.2L182,50.1z M182.9,53.8v-1.6c-0.6,0-0.9-0.3-0.9-0.9h-0.3l-0.3,1.5c0.8,0,1.2,0.3,1.2,1H182.9z
		 M183.3,79.1h-0.3c-0.4-0.2-0.7-0.3-0.9-0.3c0,0.2-0.1,0.3-0.3,0.3l-0.3-0.7c0-0.4,0.4-0.6,1.2-0.6v-0.3c-0.6,0-0.9-0.2-0.9-0.7
		v-1.2h0.9l-0.6,1v0.2c0.8,0,1.2,0.2,1.2,0.7v0.6h-0.7v0.3h0.7V79.1z M182.3,81.3h-0.7l0.3-0.7l-0.7-0.2c0.2-0.4,0.3-0.8,0.3-1h0.7
		c0,0.2,0.1,0.6,0.2,1C182.4,80.7,182.3,81.1,182.3,81.3z M182.3,7.8h-0.7V6.8h0.7V7.8z M182.3,83.4h-0.7v-0.3l0.3-0.6
		c-0.2,0-0.3-0.1-0.3-0.3l0.7-0.3l0.2,0.7C182.4,82.9,182.3,83.2,182.3,83.4z M183.3,55.3c-0.2-0.4-0.3-0.7-0.3-0.9
		c-0.3,0-0.6,0.3-0.9,0.9H183.3z M183.3,66.4c0-0.6,0.1-0.9,0.3-0.9l-0.3-0.7v-0.2h0.6l1,0.6l0.2-0.6c-0.3,0-0.7-0.2-1.2-0.7
		l-0.6,0.3c-0.1-0.4-0.3-0.7-0.7-0.7c0,0.4-0.1,0.7-0.2,0.7c0.2,0.4,0.2,0.7,0.2,0.9c-0.2,0.4-0.2,0.7-0.2,0.9l0.6,0.3H183.3z
		 M185.1,51.3v-1l0.7,0.3v-2.5h0.3v-1.2l-0.7-0.9v-0.3c0.6,0,0.9-0.3,0.9-0.9h-0.2l0.2-0.6c-0.1-0.4-0.2-0.7-0.6-0.7
		c0,0.2-0.1,0.3-0.3,0.3l-0.3-0.7c0.8,0,1.2-0.2,1.2-0.6v-0.9c0-0.2-0.1-0.3-0.2-0.3c0.2-1.3,0.4-1.9,0.6-1.9l-0.3-0.6
		c0-0.2,0.1-0.3,0.3-0.3l-0.3-0.6v-0.3l0.3-1.6c-1.2,0.2-2,0.3-2.5,0.3c0,0.4,0.2,0.6,0.7,0.6c0.4-0.2,0.7-0.2,0.9-0.2l0.3,0.6
		c0,0.5-0.2,1.2-0.7,1.9c0.4,0,0.7,0.2,0.7,0.6c-0.4,0-0.7,0.2-0.7,0.7l0.7,0.2c-0.3,0.8-0.7,1.2-1,1.2l0.3,0.7
		c0,0.3-0.3,0.6-0.9,0.9V43h-0.3c0,0.6-0.3,1.5-0.9,2.7c0.2,0,0.3,0.1,0.3,0.3c-0.7,0.2-1,0.4-1,0.7v2.1h0.3v-1.9h0.7v2.1l1.5,1.2
		c-0.6,0-0.9,0.2-0.9,0.7C184.4,51,184.7,51.1,185.1,51.3z M183.6,43.2V43c-0.1-0.4-0.3-0.7-0.7-0.7c0,0.7-0.1,1.2-0.3,1.6h0.3
		C183.4,43.8,183.6,43.6,183.6,43.2z M183.6,50.1c-0.1-0.4-0.3-0.7-0.7-0.7h-0.3v0.9C183,50.2,183.4,50.1,183.6,50.1z M183.8,63
		v-1.2c0-0.3-0.3-0.6-0.9-0.9l-0.3,1.5V63l0.7-0.3L183.8,63z M183.8,10.2h-0.9V9.9c0-0.4,0.2-0.6,0.7-0.6l0.2,0.6V10.2z M183.6,40.2
		l0.2-1.2l-0.6-0.3c0,0.4-0.1,0.7-0.3,0.7c0.2,0.4,0.3,0.7,0.3,0.9H183.6z M183.3,84.3h-0.3V84c0-0.4,0.2-0.6,0.7-0.6l0.2,0.6
		L183.3,84.3z M183.6,95.1l-0.3-0.6l0.6-0.3h0.3v0.3C184.1,94.9,183.9,95.1,183.6,95.1z M184.5,42.3v-1.2c-0.3,0-0.6,0.3-0.9,0.9
		C183.8,42,184.1,42.1,184.5,42.3z M184.8,28.1v-0.3c-0.1-0.4-0.3-0.6-0.7-0.6l-0.3,0.6l0.7,0.3H184.8z M184.5,25.7
		c0-0.3,0.2-0.7,0.6-1.2l-0.6-0.3h-0.3v1.6H184.5z M184.8,49.1c-0.4,0-0.7-0.3-0.7-0.9l0.3-1.5h0.6v1.5
		C184.9,48.2,184.8,48.5,184.8,49.1z M185.1,63.9V63h-0.9C184.2,63.3,184.5,63.6,185.1,63.9z M185.1,53.8l0.3-0.7h-0.9
		C184.5,53.6,184.7,53.8,185.1,53.8z M185.1,68v-0.3c-0.4,0-0.6,0.2-0.6,0.7v0.2C184.9,68.5,185.1,68.3,185.1,68z M185.1,77.6v-0.7
		c-0.2,0-0.2-0.1-0.2-0.2c0.4-0.2,0.7-0.3,0.9-0.3V76h-0.7c-0.1,0.4-0.2,0.7-0.6,0.7c0.2,0.4,0.3,0.7,0.3,0.9H185.1z M185.1,75.7
		c0-0.3,0.2-0.7,0.7-1.2v-1.2c-0.1-0.4-0.3-0.6-0.7-0.6l-0.2,0.6v2.5H185.1z M187.3,93.6l-0.7-0.3l-0.6,0.3c0-0.4-0.2-0.7-0.7-0.7
		v-0.6c0.2,0,0.5-0.1,0.9-0.3c0,0.6,0.2,0.9,0.7,0.9v-0.9h-0.7v-0.7c0.4,0,0.7-0.3,0.7-0.9h0.6c0,0.9,0.1,1.6,0.3,1.9L187.3,93.6z
		 M185.7,90.5v-0.9c0.4,0,0.6,0.2,0.6,0.6L185.7,90.5z M186.3,5.6h-0.2V3.7h0.6V4L186.3,5.6z M187,33.7v-0.2h-0.9v0.9h0.2
		C186.7,34.3,187,34,187,33.7z M186.6,35.6v-0.9h-0.6v0.9H186.6z M187.3,85c-0.3-0.8-0.7-1.2-1-1.2h-0.2v0.6c0.4,0,0.6,0.4,0.6,1.2
		C187.1,85.5,187.3,85.3,187.3,85z M187.9,96.4h-0.6c0-0.7-0.4-1.3-1.2-1.8c0-0.4,0.3-0.7,0.9-0.7c0.4,0.2,0.7,0.3,0.9,0.3v0.7
		c0,0.2-0.1,0.2-0.3,0.2l0.3,0.7V96.4z M187,1.9h-0.7v-1h0.7V1.9z M187,83.4v-1.2h-0.3v1.2H187z M188.2,88v-0.3
		c-0.8,0-1.2-0.3-1.2-0.9h-0.3v0.9l0.3,0.7C187.3,88.1,187.7,88,188.2,88z M188.5,105.4h-0.7c0.2-0.4,0.3-0.7,0.3-0.9h0.6
		C188.6,104.8,188.5,105.1,188.5,105.4z M188.2,109.1l-0.3-0.7h0.9C188.7,108.9,188.5,109.1,188.2,109.1z M191.6,5.9l-0.7-0.2
		l-0.2,1.8C191,7.4,191.3,6.9,191.6,5.9z M193.7,2.5h-0.3c-0.4-0.1-0.6-0.2-0.6-0.6v-1c0-0.3,0.3-0.6,0.9-0.9l0.3,0.7L193.7,2.5z
		 M198.1,103.8v-0.6l-0.3-2.8h-0.3c0,0.2-0.1,0.8-0.3,1.8C197.4,103.3,197.7,103.8,198.1,103.8z M200.2,110l-0.3-0.7h0.3l-0.3-0.6
		c0-0.4,0.2-0.7,0.7-0.7l0.6,1C201.2,109.4,200.9,109.7,200.2,110z M200.6,104.5c0-0.8,0.2-1.2,0.6-1.2v-0.3h-0.6l-0.3,0.6v1H200.6z
		 M200.8,114.9h-0.6v-0.3c0-0.2,0.1-0.3,0.3-0.3l-0.3-0.6v-1.6c0-0.2,0.1-0.3,0.3-0.3l-0.3-0.6v-0.7c0-0.4,0.2-0.6,0.6-0.6l0.3,0.6
		v0.3c0,0.2-0.1,0.3-0.3,0.3c0,0.2,0.1,0.3,0.3,0.3l-0.3,1.5V114.9z M201.7,105.4c-0.1-0.4-0.2-0.7-0.6-0.7c0,0.2-0.1,0.3-0.3,0.3
		c0-0.2-0.1-0.3-0.2-0.3v1C200.9,105.5,201.3,105.4,201.7,105.4z M202.1,111.2l-0.3-0.7c0-0.4,0.2-0.6,0.7-0.6h0.3v0.6
		C202.7,111,202.4,111.2,202.1,111.2z M203.3,45.7l0.3-0.6v-0.7c-0.5,0.4-1,0.7-1.6,0.7v0.3C202.6,45.5,203,45.5,203.3,45.7z
		 M203,115.3h-0.6l-0.3-1.6V113h0.7C202.7,113.7,202.8,114.4,203,115.3z M204.2,49.1v-0.6c-0.4-0.5-0.6-1.1-0.6-1.8h-0.3
		c-0.3,0-0.6,0.3-0.9,0.9c0.5,0,1,0.5,1.6,1.5H204.2z M204,99.8v-0.2h-1.6v0.6L204,99.8z M204.2,102.6V102h-0.6l-0.7,0.2
		c-0.1-0.4-0.2-0.6-0.6-0.6v1.2C202.7,102.7,203.3,102.6,204.2,102.6z M203.6,43c0-0.8,0.2-1.2,0.6-1.2v-0.7H204
		c-0.5,0-0.8,0.5-1,1.6L203.6,43z M204,40.8c-0.2-0.3-0.3-0.7-0.3-1.2h-0.3v1.2H204z M204,49.8l-0.7-0.3v0.9
		C203.7,50.3,204,50.1,204,49.8z M204.2,76.9V76h-0.9v0.3c0,0.4,0.2,0.6,0.7,0.6H204.2z M205.4,33.1v-2.8c-0.1-0.4-0.2-0.6-0.6-0.6
		h-0.7l0.3,0.6v1.9h-0.9v0.2c1,0,1.6,0.2,1.6,0.7H205.4z M204.2,78.1v-0.9h-0.6v0.9H204.2z M204.5,55v-0.3c-0.2-0.4-0.3-0.7-0.3-0.9
		H204V54c0.2,0.4,0.2,0.8,0.2,1H204.5z M205.2,16.4c-0.4,0-0.7-0.2-0.7-0.7h-0.3v0.7c0.2,0,0.3,0.1,0.3,0.2c-0.2,0-0.3,0.1-0.3,0.3
		h0.3C205,16.9,205.2,16.7,205.2,16.4z M205.4,19.5l-0.2-1.6h-0.7v0.3c0.2,0.4,0.3,0.7,0.3,0.9c-0.2,0-0.3,0.1-0.3,0.3H205.4z
		 M205.2,28.7c0-0.2,0.1-0.2,0.2-0.2l-0.2-1.6v-0.3h0.2l0.7,0.3l-0.3-1.9h-0.9l0.3,0.7v0.9h-0.7c0.2,0.4,0.3,0.7,0.3,0.9
		c-0.2,0.4-0.3,0.8-0.3,1L205.2,28.7z M205.4,34.9c0-0.2,0.1-0.5,0.3-0.9l-0.9-0.6h-0.3v0.2c0.2,0,0.5,0.1,0.9,0.3l-0.2,0.7v0.2
		H205.4z M205.8,11.1v-0.6h-0.9c0,0.4,0.2,0.6,0.6,0.6H205.8z M206.1,20.4c-0.6,0-0.9-0.2-0.9-0.6h-0.3v0.3c0.2,0.3,0.3,0.7,0.3,1.2
		C205.5,21.4,205.8,21,206.1,20.4z M205.4,91.7c0-0.6-0.2-0.9-0.6-0.9l0.3-1.6h0.6l0.3,2.1L205.4,91.7z M207.9,23.2
		c-0.2-0.4-0.2-0.8-0.2-1.2h0.2c-0.2-0.2-0.4-1.9-0.6-5H207c0,1-0.3,1.6-0.9,1.6c0.2,0.3,0.3,1,0.3,2.1h0.2v-0.6h0.7V21l-0.3,0.6
		l-0.6-0.2c-0.5,0.4-0.9,0.6-1.2,0.6c0,0.4,0.2,0.7,0.6,0.7c0-0.4,0.2-0.7,0.7-0.7h0.6v0.3c0,0.2-0.1,0.3-0.3,0.3
		c0.2,0.3,0.3,0.7,0.3,1.2h0.3C207.7,23.7,207.9,23.5,207.9,23.2z M206.1,68.3v-1.6h-0.3c-0.4,0-0.6,0.2-0.6,0.6
		c0.4,0,0.6,0.3,0.6,1H206.1z M206.4,70.1l-0.7-0.3l-0.3,0.7v0.3h0.3C206.2,70.7,206.4,70.5,206.4,70.1z M206.1,97.6h-0.7v-0.9h0.7
		V97.6z M205.8,99.8l-0.3-0.6v-0.3h0.3c0.4,0,0.7,0.2,0.7,0.7L205.8,99.8z M206.7,84.7c0-0.3-0.3-0.6-0.9-0.9V85
		C206.2,84.8,206.5,84.7,206.7,84.7z M206.4,102.9h-0.7v-1.2h0.7V102.9z M206.7,17l-0.6-0.3v1C206.5,17.5,206.7,17.3,206.7,17z
		 M207.3,52.8h-0.7c-0.4-0.1-0.6-0.2-0.6-0.6v-0.3l0.3-0.6c-0.2,0-0.3-0.1-0.3-0.3h0.6c0,0.5,0.2,1,0.7,1.6V52.8z M207.3,41.7H207
		c-0.4-0.1-0.6-0.3-0.6-0.7l0.6-0.3l0.3,0.7V41.7z M207,82.8c0-0.4,0.1-0.7,0.3-0.7c-0.2-0.4-0.3-0.7-0.3-0.9
		c-0.4,0-0.6,0.2-0.6,0.6c0.2,0.4,0.2,0.8,0.2,1H207z M207,98.3c-0.4-0.1-0.6-0.3-0.6-0.7c0-0.4,0.2-0.6,0.6-0.6V98.3z M207.7,86.5
		c-0.2-0.3-0.3-0.8-0.3-1.5c-0.4,0-0.7,0.2-0.7,0.6v0.3c0,0.4,0.2,0.6,0.7,0.6H207.7z M207,102.2l-0.3-0.6v-0.3
		c0-0.4,0.2-0.6,0.7-0.6h0.3v0.9C207.6,102,207.3,102.2,207,102.2z M208.6,36.5l-0.7-0.3c-0.4,0.2-0.7,0.3-0.9,0.3v-0.7h0.7v-0.2
		H207v-0.7c0-0.4,0.4-0.6,1.2-0.6V34l-0.6-0.9h0.9v1.2c0,0.4-0.3,0.6-0.9,0.6v0.3c0.8,0,1.2,0.2,1.2,0.6L208.6,36.5z M208.6,38.6
		h-0.7c0-0.2-0.1-0.5-0.2-0.9c0.2-0.4,0.2-0.7,0.2-0.9h0.7c0,0.2,0.1,0.5,0.3,0.9c-0.4,0-0.7,0.2-0.7,0.6
		C208.5,38.3,208.6,38.4,208.6,38.6z M208.6,40.8h-0.7l-0.2-1.2l0.6-0.2l0.3,0.6h-0.3l0.3,0.7V40.8z M207.9,97.6l-0.2-0.6
		c0-0.4,0.2-0.7,0.6-0.7l0.3,0.7C208.5,97.4,208.3,97.6,207.9,97.6z M209.8,102.6h-0.3l-0.6-0.3l0.2-0.6l-0.2-1.6h-0.3v0.9h-0.3
		c-0.4-0.1-0.6-0.2-0.6-0.6c0.4,0,0.6-0.3,0.6-0.9l0.7,0.2v-1.5h0.6v1.2c0,0.2-0.1,0.2-0.3,0.2C209.6,100.7,209.8,101.7,209.8,102.6
		z M208.3,99.5c-0.4-0.1-0.6-0.3-0.6-0.7v-0.6h0.6V99.5z M208.6,50.3h-0.7v-0.9h0.7V50.3z M208.9,55.6h-1V55h1V55.6z M208.9,57.5h-1
		c0-0.4,0.2-0.7,0.7-0.7h0.3V57.5z M208.9,21.6c0-0.2,0.1-0.5,0.2-0.9c-0.4-0.1-0.6-0.2-0.6-0.6c0.2,0,0.3-0.1,0.3-0.3h-0.7v0.3
		l0.3,1.5H208.9z M209.8,60.2h-0.3c-0.3,0-0.6-0.3-0.9-0.9c0-0.4,0.2-0.6,0.6-0.6C209.6,59.4,209.8,59.9,209.8,60.2z M208.9,88.4
		l-0.3-0.7v-0.2h0.3c0.4,0,0.6,0.2,0.6,0.6L208.9,88.4z M210.7,15.8l-0.3-0.6c0.4-0.1,0.7-0.3,0.7-0.7v-0.9h-0.9
		c0-0.4,0.2-0.7,0.6-0.7h0.7v2.2C211.3,15.6,211.1,15.8,210.7,15.8z M212.6,14.5c-0.3,0-0.7-0.3-1-0.9c0.3,0,0.7-0.4,1-1.2
		c-1.3-0.3-2-0.8-2.2-1.6l0.3-0.6c-0.2,0-0.3-0.1-0.3-0.3h0.3c0.4,0,0.7,0.2,0.7,0.7l0.6-0.3c0.3,0,0.6,0.3,0.9,0.9v0.3l-0.2,0.6
		c0.4,0,0.6,0.2,0.6,0.7c0,0.2-0.1,0.2-0.3,0.2l0.3,0.7v0.3C213.1,14.3,213,14.5,212.6,14.5z M211.4,22.3v-0.7h0.6l-0.3-0.6l0.3-0.7
		c-0.5,0-0.9-0.4-1.2-1.2c0-0.4,0.2-0.6,0.7-0.6c0.8,1.2,1.3,1.8,1.5,1.8v1C212.9,21.8,212.4,22.1,211.4,22.3z M211.4,35.2
		c-0.4-0.1-0.7-0.2-0.7-0.6h0.3l-0.3-0.7v-0.3c0.4,0,0.7,0.2,0.7,0.7V35.2z M212.9,23.8h-0.2l-0.7-0.2c0,0.2-0.1,0.2-0.3,0.2
		l-0.2-0.6v-0.3l1.5,0.3V23.8z M212,25.7h-0.6v-0.9h0.6V25.7z M213.2,16.1h-0.3c-0.3,0-0.6-0.3-0.9-0.9l0.7-0.3L213.2,16.1z
		 M213.2,10.2h-0.6V8.7h0.6V9c0,0.2-0.1,0.3-0.3,0.3l0.3,0.6V10.2z"/>
</g>
</svg>
