<?xml version="1.0" encoding="utf-8"?>
<!-- Generator: Adobe Illustrator 24.1.1, SVG Export Plug-In . SVG Version: 6.00 Build 0)  -->
<svg version="1.1" id="Layer_1" xmlns="http://www.w3.org/2000/svg" xmlns:xlink="http://www.w3.org/1999/xlink" x="0px" y="0px"
	 viewBox="0 0 1805.4 1024" style="enable-background:new 0 0 1805.4 1024;" xml:space="preserve">
<style type="text/css">
	.st0{clip-path:url(#SVGID_2_);fill:#F7FAFF;}
	.st1{clip-path:url(#SVGID_4_);fill:url(#Rectangle_Copy_1_);}
	.st2{clip-path:url(#SVGID_6_);}
	.st3{fill:url(#cloud_1_);}
	.st4{fill:url(#cloud_copy_1_);}
	.st5{fill:url(#Cloud-2_1_);}
	.st6{fill:url(#Cloud_Copy-2_1_);}
	.st7{fill:url(#Cloud-3_1_);}
	.st8{clip-path:url(#SVGID_8_);}
	.st9{fill:url(#shadow-2_1_);}
	.st10{fill:url(#shadow-5_1_);}
	.st11{fill:#BDC5D1;}
	.st12{fill:#1E2022;}
	.st13{fill:none;stroke:#CDD4E0;stroke-width:1.8;stroke-miterlimit:10;}
	.st14{fill:#21325B;}
	.st15{fill:#FFFFFF;}
	.st16{opacity:0.195;fill:#3B3C45;enable-background:new    ;}
	.st17{opacity:0.55;fill:#DEEAF4;enable-background:new    ;}
	.st18{fill:#302C48;}
	.st19{fill:#686B89;}
	.st20{fill:#52556E;}
	.st21{fill:#9EA4B8;}
	
		.st22{opacity:0.7;fill:none;stroke:#FFFFFF;stroke-width:3.24;stroke-linecap:round;stroke-linejoin:round;stroke-miterlimit:10;enable-background:new    ;}
	.st23{fill:none;stroke:#CDD4E0;stroke-width:1.62;stroke-miterlimit:10;}
</style>
<g>
	<g>
		<defs>
			<rect id="SVGID_1_" width="1805.4" height="1024"/>
		</defs>
		<clipPath id="SVGID_2_">
			<use xlink:href="#SVGID_1_"  style="overflow:visible;"/>
		</clipPath>
		<rect x="-7.9" class="st0" width="1821.2" height="1024"/>
	</g>
	<g>
		<defs>
			<rect id="SVGID_3_" width="1805.4" height="1024"/>
		</defs>
		<clipPath id="SVGID_4_">
			<use xlink:href="#SVGID_3_"  style="overflow:visible;"/>
		</clipPath>
		
			<linearGradient id="Rectangle_Copy_1_" gradientUnits="userSpaceOnUse" x1="1087.4534" y1="630.5941" x2="1087.4534" y2="630.0219" gradientTransform="matrix(1698.5728 0 0 -730.865 -1846210.875 461378.1563)">
			<stop  offset="0" style="stop-color:#E7EAF3"/>
			<stop  offset="1" style="stop-color:#F7FAFF;stop-opacity:0"/>
		</linearGradient>
		<path id="Rectangle_Copy" class="st1" d="M1806.8,690.6c0,0,145.7,488.7-82,488.7c-142.2,0-1520.6,168-1760.3-131.4
			c-3.9-4.9-7.9-447.7,81.1-425.1c268.2,67.9,405.3,78.5,560.9,43.7S782,536,975,501.1c161.4-29.2,260.1,58.2,499.5,152.8
			C1570.1,691.7,1806.8,690.6,1806.8,690.6z"/>
	</g>
	<g>
		<defs>
			<rect id="SVGID_5_" width="1805.4" height="1024"/>
		</defs>
		<clipPath id="SVGID_6_">
			<use xlink:href="#SVGID_5_"  style="overflow:visible;"/>
		</clipPath>
		<g class="st2">
			
				<linearGradient id="cloud_1_" gradientUnits="userSpaceOnUse" x1="1141.7579" y1="635.8057" x2="1141.7579" y2="635.1627" gradientTransform="matrix(276.665 0 0 -178.9858 -315765.8125 113918.0938)">
				<stop  offset="0" style="stop-color:#FFFFFF"/>
				<stop  offset="1" style="stop-color:#FFFFFF;stop-opacity:0.157"/>
			</linearGradient>
			<path id="cloud" class="st3" d="M84.7,212.2c12,14,33.7,20.8,58.6,20.8c31.7,0,58.4-11,66.1-34.1c1.3,0.1,2.6,0.1,3.9,0.1
				c32.7,0,59.3-22.8,59.3-51s-26.5-51-59.3-51h-0.2c-2.6-24.1-25.8-42.9-54.1-42.9c-15.3-0.1-29.9,5.6-40.4,15.7
				c-12.7-10.1-29.1-15.7-46.1-15.7C34.8,54.1,4.2,80.9,4.2,114c0,1.6,0.1,3.2,0.2,4.7c-23.4,9.5-39.7,30.3-39.7,54.4
				c0,33.1,30.6,59.9,68.3,59.9C52.8,233,71.6,225.5,84.7,212.2z"/>
			
				<linearGradient id="cloud_copy_1_" gradientUnits="userSpaceOnUse" x1="1144.6204" y1="633.3505" x2="1144.6204" y2="632.7076" gradientTransform="matrix(395.659 0 0 -255.9716 -452330.8438 162418.1563)">
				<stop  offset="0" style="stop-color:#FFFFFF"/>
				<stop  offset="1" style="stop-color:#FFFFFF;stop-opacity:0.157"/>
			</linearGradient>
			<path id="cloud_copy" class="st4" d="M500.2,433.3c17.1,20,48.2,29.7,83.7,29.7c45.4,0,83.6-15.8,94.5-48.8
				c1.8,0.1,3.7,0.2,5.5,0.2c46.8,0,84.7-32.7,84.7-73s-37.9-73-84.7-73h-0.3c-3.7-34.4-36.9-61.3-77.4-61.3
				c-21.9-0.1-42.8,8-57.7,22.4c-18.1-14.5-41.6-22.5-65.9-22.4c-54,0-97.7,38.4-97.7,85.7c0,2.3,0.1,4.5,0.3,6.8
				c-33.5,13.6-56.8,43.3-56.8,77.8c0,47.3,43.7,85.7,97.7,85.7C454.5,463.1,481.4,452.2,500.2,433.3z"/>
			
				<linearGradient id="Cloud-2_1_" gradientUnits="userSpaceOnUse" x1="1137.2148" y1="640.4428" x2="1137.2148" y2="639.7998" gradientTransform="matrix(176.431 0 0 -114.1423 -199375.25 73264.3359)">
				<stop  offset="0" style="stop-color:#FFFFFF"/>
				<stop  offset="1" style="stop-color:#FFFFFF;stop-opacity:0.157"/>
			</linearGradient>
			<path id="Cloud-2" class="st5" d="M1243.1,222.9c7.6,8.9,21.5,13.3,37.3,13.3c20.2,0,37.3-7,42.2-21.8c0.8,0,1.6,0.1,2.5,0.1
				c20.9,0,37.8-14.6,37.8-32.5s-16.9-32.5-37.8-32.5h-0.2c-1.6-15.3-16.5-27.4-34.5-27.4c-9.8,0-19.1,3.6-25.7,10
				c-8.1-6.5-18.5-10-29.4-10c-24.1,0-43.6,17.1-43.6,38.2c0,1,0,2,0.1,3c-15.3,6.1-25.2,19.7-25.3,34.7c0,21.1,19.5,38.2,43.6,38.2
				C1222.7,236.2,1234.8,231.4,1243.1,222.9z"/>
			
				<linearGradient id="Cloud_Copy-2_1_" gradientUnits="userSpaceOnUse" x1="1137.8119" y1="636.0629" x2="1137.8119" y2="635.4122" gradientTransform="matrix(200.46 28.1728 18.2264 -129.6878 -238963.625 50404.1719)">
				<stop  offset="0" style="stop-color:#FFFFFF"/>
				<stop  offset="1" style="stop-color:#FFFFFF;stop-opacity:0.157"/>
			</linearGradient>
			<path id="Cloud_Copy-2" class="st6" d="M680.5,35.2c7.1,11.2,22.1,18.1,40.1,20.4c23,2.9,43.6-2.7,51.8-18.7
				c0.9,0.2,1.8,0.3,2.8,0.4c23.7,3,45.5-11.1,48.7-31.6s-13.4-39.4-37.2-42.4h-0.2c0.9-17.7-13.8-33.4-34.3-36
				c-11.1-1.4-22.3,1.3-31,7.7c-8-8.5-19.3-14-31.6-15.6c-27.3-3.5-52.5,13.2-56.3,37.2c-0.2,1.2-0.3,2.3-0.4,3.5
				c-18.5,4.7-32.2,18.7-34.9,35.8c-3.7,24,15.4,46.2,42.7,49.7C655,47.3,669.5,43.6,680.5,35.2z"/>
			
				<linearGradient id="Cloud-3_1_" gradientUnits="userSpaceOnUse" x1="1143.3126" y1="634.8521" x2="1143.3126" y2="634.2092" gradientTransform="matrix(313.254 0 0 -202.6599 -356525.8125 128912.8359)">
				<stop  offset="0" style="stop-color:#FFFFFF"/>
				<stop  offset="1" style="stop-color:#FFFFFF;stop-opacity:0.157"/>
			</linearGradient>
			<path id="Cloud-3" class="st7" d="M1659.8,360.5c-13.5,15.9-38.2,23.5-66.3,23.5c-35.9,0-66.2-12.5-74.8-38.6
				c-1.4,0.1-2.9,0.1-4.4,0.1c-37.1,0-67.1-25.9-67.1-57.8s30-57.8,67.1-57.8h0.3c2.9-27.2,29.2-48.6,61.2-48.6
				c17.3-0.1,33.9,6.4,45.7,17.7c14.4-11.5,32.9-17.8,52.1-17.7c42.7,0,77.3,30.4,77.3,67.8c0,1.8-0.1,3.6-0.2,5.4
				c26.5,10.7,45,34.3,45,61.6c0,37.5-34.6,67.8-77.3,67.8C1696,384.1,1674.6,375.6,1659.8,360.5z"/>
		</g>
	</g>
	<g>
		<defs>
			<rect id="SVGID_7_" width="1805.4" height="1024"/>
		</defs>
		<clipPath id="SVGID_8_">
			<use xlink:href="#SVGID_7_"  style="overflow:visible;"/>
		</clipPath>
		<g class="st8">
			<g id="shadow">
				
					<linearGradient id="shadow-2_1_" gradientUnits="userSpaceOnUse" x1="1173.4633" y1="152.9147" x2="1173.0938" y2="154.5768" gradientTransform="matrix(417.256 0 0 -41.757 -487984.75 7285.165)">
					<stop  offset="0" style="stop-color:#536DB5;stop-opacity:0"/>
					<stop  offset="1" style="stop-color:#0E284B;stop-opacity:0.212"/>
				</linearGradient>
				<path id="shadow-2" class="st9" d="M1299.9,863.8l541.4,10.9l-46.3-30.9l-472.4,8.4L1299.9,863.8z"/>
			</g>
			<g id="shadow-4">
				
					<linearGradient id="shadow-5_1_" gradientUnits="userSpaceOnUse" x1="1152.4894" y1="253.5347" x2="1151.3291" y2="254.9379" gradientTransform="matrix(90.016 0 0 -10.8 -102523.4219 3596.52)">
					<stop  offset="0" style="stop-color:#536DB5;stop-opacity:0"/>
					<stop  offset="1" style="stop-color:#0E284B;stop-opacity:0.212"/>
				</linearGradient>
				<ellipse id="shadow-5" class="st10" cx="1171.2" cy="851.4" rx="50.1" ry="5.4"/>
				<ellipse id="shadow-6" cx="1171.2" cy="851.4" rx="50.1" ry="5.4"/>
			</g>
			<path id="Path_39" class="st11" d="M1438.8,758.2c7.4,11.6,10.2,25.1,7.9,38.3c-4,21.7-3.5,53.6-3.5,53.6h-13.1l-16.4-96.6
				c0,0,18.6-6.3,25-5.1C1445.2,749.5,1438.8,758.2,1438.8,758.2z"/>
			<path id="Path_39_Copy" class="st11" d="M1369.3,760.9c4.3,12.8,3.6,26.5-1.9,38.9c-9.3,20.3-16.8,51.5-16.8,51.5l-12.8-2.7
				l8.2-97.4l32.8-6.5L1369.3,760.9z"/>
			<path id="Rectangle_17" class="st12" d="M1443.6,849.6l-16-4.4l-10.8,4.4l-15.2,1.4c-2.4,0.2-4.5,1.8-5.2,3.9l0,0
				c-1.2,3.8,1.3,7.8,5.5,8.8c0.7,0.2,1.4,0.3,2.1,0.3h31.5c4.4,0,8-3.2,8-7.2l0,0L1443.6,849.6L1443.6,849.6z"/>
			<path id="Rectangle_17_Copy" class="st12" d="M1351.5,849.6l-16-4.4l-10.8,4.4l-15.2,1.4c-2.4,0.2-4.5,1.8-5.2,3.9l0,0
				c-1.2,3.8,1.3,7.8,5.5,8.8c0.7,0.2,1.4,0.3,2.1,0.3h31.5c4.4,0,8-3.2,8-7.2l0,0L1351.5,849.6L1351.5,849.6z"/>
			<path id="Path_31" class="st12" d="M1447.6,757.3v-96.7h-96.1l-12.3,96.7h43.8l13.5-49.8l9.5,49.8H1447.6z"/>
			<path id="Path_32" class="st11" d="M1445.1,633.4c19.5-20.4,20.1-20,28.2-32.4c3.9-5.9,8.6-10.7,8.2-11.4
				c-5.3-9.2-21.2-18.5-46.6-42.4l10.8-23.7c35.9,25,48.3,45.1,54.6,55.9c1.5,2.6,4.2,7.4,4.1,10.6c-0.7,14.4-20.1,32.7-56.5,54.8
				L1445.1,633.4z"/>
			<g id="single_thread" transform="translate(-443.276 97.2)">
				<path id="Path_36" class="st11" d="M1686.9,438.5c0,0-13.1-14.2-14.3-18.8c-2.9-3-5,3.2-5,3.2s7.9,30.1,15.8,34.9s7.9,0,7.9,0
					L1686.9,438.5z"/>
				<path id="Path_37" class="st13" d="M1600.8,743.6c-22.7-28.7-12.4-86.8,40.7-145.6s108.9-121.9,41.8-161.5
					c-21.2-12.5-58.8-19.4-88.5-5.1"/>
				<path id="Path_35" class="st11" d="M1690.9,461.2c4.7,1,7.3-15,2.6-17.9c-4.7-2.9-2.5-15.3-6.5-14.7s-2,5.3-2.2,8.7
					C1684.6,440.6,1686.2,460.2,1690.9,461.2z"/>
			</g>
			<path id="Path_32_Copy" class="st11" d="M1252.3,551.9c23.4,16.8,22.9,17.3,37,24.2c6.7,3.3,12.2,7.3,12.9,7
				c10-5.1,19.9-19.6,45.5-43.3l26.7,8.9c-26.6,33.1-48.4,44.9-60.2,50.9c-15.5,7.9-42.9-5.6-74.5-44.8L1252.3,551.9z"/>
			<path id="Path_33" class="st11" d="M1395.5,440.6c0,0,0.4,7-5,10.8c-6.1,4.3-12.8,9.3-14.4,11.1c-3,3.4,3,3.4,3,3.4l-3,21.8
				l24.7,9.9l-5.3,18.5h29.6l3.7-18.5c0,0-8.6-34.7-14-44C1407.4,441.1,1395.5,440.6,1395.5,440.6z"/>
			<path id="Oval_8" class="st14" d="M1425.6,498.6c-12.6,0-14.3-13.3-21.7-21.9c-5.6-6.6-5.6-12.1-5.6-21.3
				c0-21.1,5.1-33.3,27.3-33.3c22.2,0,40.1,17.1,40.1,38.3C1465.7,481.6,1439.5,489.4,1425.6,498.6z"/>
			<ellipse id="Oval" class="st14" cx="1415.6" cy="429.3" rx="14" ry="11.7"/>
			<ellipse id="Oval_Copy" class="st14" cx="1430.6" cy="425.1" rx="9" ry="7.5"/>
			<ellipse id="Oval_Copy_2" class="st14" cx="1445.6" cy="436.5" rx="14" ry="11.7"/>
			<ellipse id="Oval_Copy_6" class="st14" cx="1453.6" cy="449.1" rx="14" ry="11.7"/>
			<ellipse id="Oval_Copy_3" class="st14" cx="1442.6" cy="427" rx="7" ry="5.8"/>
			<ellipse id="Oval_Copy_4" class="st14" cx="1402.5" cy="430.7" rx="7" ry="5.8"/>
			<ellipse id="Oval_Copy_5" class="st14" cx="1398.5" cy="439.7" rx="7" ry="5.8"/>
			<ellipse id="Oval_2" class="st11" cx="1399.5" cy="468.9" rx="8" ry="8.1"/>
			<path id="Path_30" class="st15" d="M1490.9,553.3l-42.6-35.5c0,0-20.5-6.6-33.9-6.6h-19.7c-8.4,0-32.2,6.6-32.2,6.6l-31.5,35.5
				l20,25.5l21.9-25.5L1348.5,675c0,0,24.8,7.4,46.3,7.4s53.6-7.2,53.6-7.2V562l15.7,16.8L1490.9,553.3z"/>
			<path id="Path_34" class="st16" d="M1406.1,757.4l-2.4-68.9l-7,19.1L1406.1,757.4z"/>
			<path id="Path_38" class="st17" d="M1358.2,625.9l25.7-78.8c0,0-10.6,3-11.1,6.8C1372.2,557.7,1358.2,625.9,1358.2,625.9z"/>
			<g id="Thread" transform="translate(-522.49 399.6)">
				<ellipse id="Oval_9_Copy" class="st18" cx="1654.6" cy="435.6" rx="7" ry="16.2"/>
				<rect id="Rectangle-2" x="1655.6" y="424.8" class="st18" width="44.1" height="23.4"/>
				<path id="Rectangle_Copy-2" class="st15" d="M1685.7,424.8h-18c0,0-4,3.9-4,11.5s4,11.9,4,11.9h18c-2.5-3.3-3.8-7.2-4-11.2
					C1681.7,430.9,1685.7,424.8,1685.7,424.8z"/>
				<ellipse id="Oval_9" class="st19" cx="1698.7" cy="435.6" rx="7" ry="18"/>
			</g>
			<g id="Kite" transform="translate(-694.94 229)">
				<g id="Group_6" transform="matrix(0.883, -0.469, 0.469, 0.883, -125.905, 1.501)">
					<path id="Combined_Shape" class="st20" d="M1580.6,749l1.8,38.9l28,1.2L1580.6,749z"/>
					<path id="Rectangle_18_Copy" class="st21" d="M1576.8,748.8l1.8,38.9l-28-1.2L1576.8,748.8z"/>
					<path id="Rectangle_18_Copy_3" class="st21" d="M1584.3,830.9l-1.8-38.9l28,1.2L1584.3,830.9z"/>
					<path id="Rectangle_18_Copy_2" class="st20" d="M1580.6,830.8l-1.8-38.9l-28-1.2L1580.6,830.8z"/>
				</g>
				<g id="Group_9" transform="translate(-87.5 19.403)">
					<path id="Triangle_2" class="st20" d="M1757.8-74.9l12.6-10.8l-11.4-4.8L1757.8-74.9z"/>
					<path id="Triangle_2_Copy_7" class="st21" d="M1758.8-73.4l17.2-2.3l-2.8,11.1L1758.8-73.4z"/>
				</g>
				<g id="Group_8" transform="matrix(-1, 0.017, -0.017, -1, -173.138, 81.04)">
					<path id="Triangle_2_Copy_9" class="st20" d="M-1786.7,79.1l12.6-10.8l-11.4-4.8L-1786.7,79.1z"/>
					<path id="Triangle_2_Copy_8" class="st21" d="M-1785.7,80.5l17.2-2.2l-2.8,11L-1785.7,80.5z"/>
				</g>
				<g id="Group_7" transform="translate(-95.602 85.695)">
					<path id="Path_41" class="st22" d="M1757-90.8c0,6.2,16.8,33.2-26.9,67.6c-43.7,34.4-21.4,79.2,0,94.2"/>
					<path id="Triangle_2-2" class="st20" d="M1758.9-63.2l9.1,13.3l7.6-9.1L1758.9-63.2z"/>
					<path id="Triangle_2_Copy_7-2" class="st21" d="M1759.3-61l-16.8-4l7.4-9.2L1759.3-61z"/>
					<path id="Triangle_2_Copy" class="st21" d="M1738.5-29.9l1.1,15.6l11.4-4.8L1738.5-29.9z"/>
					<path id="Triangle_2_Copy_6" class="st20" d="M1738-29.6l-12.4-11l11.5-4.6L1738-29.6z"/>
					<path id="Triangle_2_Copy_2" class="st20" d="M1707.2,6.7l13.3,10.1l4.1-10.7L1707.2,6.7z"/>
					<path id="Triangle_2_Copy_5" class="st21" d="M1707.8,7.2l-17.4-0.7l5.1-10.4L1707.8,7.2z"/>
					<path id="Triangle_2_Copy_3" class="st21" d="M1712.4,49.6l17.2,2l-3.1-11L1712.4,49.6z"/>
					<path id="Triangle_2_Copy_4" class="st20" d="M1712.1,50.2l-15.3,7.4l-1.5-11.3L1712.1,50.2z"/>
				</g>
				<path id="Path_40" class="st23" d="M1786,90.9c-26.3-1.4-66.6-15.2-76.3-60.1c-9.7-44.9-35.3-66.8-66.2-72.6"/>
			</g>
		</g>
	</g>
</g>
</svg>
