<?xml version="1.0" encoding="utf-8"?>
<!-- Generator: Adobe Illustrator 24.1.1, SVG Export Plug-In . SVG Version: 6.00 Build 0)  -->
<svg version="1.1" id="Layer_1" xmlns="http://www.w3.org/2000/svg" xmlns:xlink="http://www.w3.org/1999/xlink" x="0px" y="0px"
	 viewBox="0 0 263.8 119.4" style="enable-background:new 0 0 263.8 119.4;" xml:space="preserve">
<style type="text/css">
	.st0{enable-background:new    ;}
</style>
<g class="st0">
	<path d="M0,56.1h0.3c0.4,0.1,0.6,0.3,0.6,0.7v0.9H0.3C0.3,57,0.2,56.4,0,56.1z M18.1,0h0.3c0.2,0,0.8,1,1.8,3.1v0.7
		c0,0.2-0.1,0.3-0.3,0.3c0.4,1,0.7,2.8,0.7,5.4v7.7h0.6l-0.6,1v0.2c0,0.2,0.1,0.3,0.3,0.3l-0.3,0.6v0.3l0.9,1.2
		c-0.4,0.2-0.7,0.3-0.9,0.3v0.6l0.6,0.9h-0.6V23c0.8,0,1.2,0.7,1.2,2.1c0.2,0,0.2,0.2,0.2,0.6c-0.2,0-0.2,0.1-0.2,0.3l-0.7-0.3h-0.2
		c0,0.4,0.3,0.7,0.9,0.7v1.8l0.6,0.9c-0.2,0-0.3,0.1-0.3,0.3l1.6,0.9c0-0.2,0.1-0.3,0.3-0.3v1.2l0.6,0.3c0-0.3,0.2-0.7,0.7-1.2
		c-0.2,0-0.3-0.1-0.3-0.3l0.6-0.2l0.3,0.6v0.3l-0.3,0.6c0.2,0,0.3,0.1,0.3,0.3l-1.8,1.2c0.2,0.3,0.2,0.7,0.2,1.2h0.7v-0.7h0.3
		c0.5,0.4,1,0.7,1.5,0.7v0.2c-1,0-1.5,0.2-1.5,0.7c0.4,0.1,0.6,0.2,0.6,0.6v0.7c-0.4,0-0.6,0.2-0.6,0.6h-0.3v-1.5h-0.3
		c0,0.6-0.1,0.9-0.3,0.9c0.2,0.4,0.3,0.7,0.3,0.9c0,1-0.3,1.5-0.9,1.5c0,0.3,0.5,0.7,1.6,1.2h0.6c-0.6-0.7-0.9-1.2-0.9-1.5
		c0.4-0.7,0.6-1.2,0.6-1.6H27v0.9l-0.7-0.2h-0.6v1.2c0.8,0.1,1.2,0.4,1.2,1c-0.7,0-1.1,0.7-1.2,2.1l0.6,0.2l-0.2,1.6l0.2,1.5h-0.2
		l0.2,0.7c0,0.4-0.2,0.6-0.6,0.6l0.3,0.7v0.2l-0.3,0.7c0.6,0,0.9,0.2,0.9,0.6c-0.4,0.1-0.6,0.3-0.6,0.7v2.7l1.2,0.3
		c0-0.2,0.1-0.3,0.2-0.3l-0.2-0.6v-0.3l0.2-0.6h-0.2c-0.4,0.2-0.8,0.2-1,0.2v-0.2c0.5-1,1-1.6,1.2-1.6L27,45c0.5,0,1-0.3,1.5-0.9
		v0.7l-0.6,0.9c0.4,0.1,0.6,0.2,0.6,0.6c-0.4,0.1-0.6,0.3-0.6,0.7c0,0.4,0.2,1.1,0.6,2.1c-0.2,0.6-0.4,0.9-0.6,0.9
		c0.2,2,0.7,3.1,1.6,3.1l0.6-0.3l0.6,0.3c0.4-0.2,0.8-0.3,1-0.3v0.3l0.6-0.3h0.3v0.7l3.4-0.7l0.6,0.3c0.4-0.2,0.7-0.3,0.9-0.3v0.3
		c1.4-0.4,2.1-1,2.1-1.6c-0.2-0.4-0.2-0.7-0.2-0.9l0.2-1.2l-0.2-1.8h0.2l-0.2-0.6v-0.7c0.1-0.4,0.2-0.6,0.6-0.6l0.6,0.3v-1.2
		l-0.2-0.7h0.6v-1.5h-0.6c0,0.6-0.2,0.9-0.7,0.9v-0.7c0-0.2,0.1-0.2,0.3-0.2L39.5,42c0-2.4,0.2-4,0.7-4.9c-0.2-0.4-0.3-0.8-0.3-1.2
		l0.6-0.3L40.2,35c0-0.1,0.1-1.4,0.2-4l-0.2-1.6l0.6-0.3l-0.3-0.6c0-0.2,0.1-0.5,0.3-0.9l-0.3-1.6c0.2-0.3,0.3-0.7,0.3-1.2h-0.6
		v-0.9h0.6v-2.5c0-0.2,0.1-0.2,0.3-0.2c0-0.2-0.1-0.3-0.3-0.3c0.4-2.6,0.7-4,0.9-4l-0.2-0.7c0.9-5.1,1.8-7.7,2.7-7.7l-0.6-0.9
		c0.2-1.4,0.5-2.1,0.9-2.1v1.8L44.1,8l0.6,0.3c-0.2,2.1-0.4,3.3-0.6,3.6v0.3h0.3l2.4-10.7l-0.2-0.7V0.7h0.6c0.4,0,0.7,0.3,0.7,0.9
		c-0.2,1-0.3,1.7-0.3,1.8L47.9,4c-0.4,1-0.7,1.8-0.7,2.4v0.7h0.3c0.7-4.5,1.2-6.8,1.5-6.8h0.7c0.4,0.1,0.6,0.2,0.6,0.6
		c-0.4,2.1-0.6,3.4-0.6,4v0.2H50c0.2-1.4,0.5-2.1,0.9-2.1l0.6,0.3c0-0.2,0.1-0.3,0.3-0.3l0.3,0.7c0,0.4-0.1,0.9-0.3,1.2
		c0.2,0.3,0.3,1,0.3,2.1h0.2c0.4-2.7,0.9-4,1.2-4H54c-0.3,1.9-0.5,3.2-0.7,3.7H54c0-0.5,0.1-1.3,0.3-2.5h0.2l0.7,0.3l0.2-2.1h0.7
		c0,1-0.2,1.6-0.7,1.6c0,0.2,0.1,0.2,0.3,0.2l-0.6,5v0.9h0.2c0-2,0.4-3.1,1.2-3.1c0-0.2-0.1-0.3-0.2-0.3C56.8,5.9,57,5.3,57,5h0.9
		L57.6,8c0.4,0,0.9,0.3,1.6,0.9h0.3c0.1-1.8,0.7-2.7,1.8-2.7l0.3,0.6v3.7h0.6c0-0.7-0.1-1-0.3-1L62.2,8V6.8h0.7
		c0,1.2,0.5,1.8,1.5,1.8c0-1.2,0.2-1.8,0.7-1.8c0,1.4,0.4,2.1,1.2,2.1c0,0.4-0.2,0.6-0.6,0.6c0-0.2-0.1-0.2-0.3-0.2
		c0,0.4,0.2,1.1,0.7,2.1l-0.7,1.2h1.2c0-0.4-0.2-1-0.6-1.9l0.9-0.6l0.6,2.7c0,0.2-0.1,0.3-0.2,0.3l0.2,1.6v2.1h0.7v0.6
		c-0.2,0-0.3-0.1-0.3-0.3l-0.6,0.3h-0.3c-0.2-1-0.3-2.3-0.3-4c-0.4,0-0.6,0.3-0.6,0.9c0.2,1.4,0.2,2.3,0.2,2.5
		c-0.2,0-0.2,0.1-0.2,0.2c0.4,0.1,0.6,0.3,0.6,0.7l-0.3,0.6h0.3l0.7-0.2c0.3,0.6,0.6,1.8,0.9,3.6c-0.3,0.2-0.9,0.3-1.6,0.3l0.3,1.5
		v2.1c0,0.2-0.1,0.3-0.3,0.3l0.7,1.2c-0.4,1-0.7,1.9-0.7,2.5c0.4,0.1,0.7,0.2,0.7,0.6c-0.4,0.1-0.7,0.3-0.7,0.7
		c0.4,0.1,0.7,0.2,0.7,0.6v0.6c-0.6-0.6-1.1-0.9-1.6-0.9l0.6-3.6c-0.3-0.1-0.7-0.6-1.2-1.6v-0.3h0.2c0.4,0.2,0.7,0.3,0.9,0.3
		l-0.2-0.6v-0.3l0.2-0.6c-1.2-0.7-1.9-1-2.1-1h-0.2v0.3c0.6,0,0.9,0.2,0.9,0.7v2.7l0.6,0.9c-0.4,0.2-0.7,0.3-0.9,0.3l0.3,0.6v0.3
		L64.4,30c0.4,0.1,0.7,0.3,0.7,0.7c0,0.2-0.1,0.3-0.3,0.3c0,0.2,0.1,0.2,0.3,0.2l-0.3,1.6l0.3,1.5l-0.7,0.3c0.1,1.4,0.5,2.1,1.2,2.1
		c0,0.6-0.4,0.9-1.2,0.9v1.2H65l0.6-0.3v1H64l-0.6-2.1c0.3,0,0.6-0.3,0.9-1h-0.6c-1,0.5-1.6,1-1.6,1.2c0.6,0,0.9,0.7,0.9,2.1h-0.2
		c0.2,0.3,0.2,1,0.2,1.9h0.3v-2.1h0.3c0,0.4,0.2,0.6,0.6,0.6v0.6l-0.6,1c0.3,0.2,0.8,0.2,1.5,0.2v0.3c-0.5,0-1,0.2-1.5,0.6h-0.3
		v-0.6h-0.6c0,0.6-0.1,0.9-0.3,0.9c0,0.4,0.6,0.9,1.8,1.6V45H64l0.3,0.7V46c0,0.4-0.2,0.6-0.6,0.6L63.4,46h0.3l-0.7-1.2
		c-0.6,0.2-0.9,0.4-0.9,0.6c0.2,0.4,0.3,0.7,0.3,0.9c-0.2,0-0.3-0.1-0.3-0.2c-0.9,0.4-1.4,0.8-1.5,1.2c0.2,0,0.2,0.1,0.2,0.3
		c-0.4,0.1-0.6,0.3-0.6,0.7v0.6H61v-1.2h0.7c0,0.4,0.6,1.2,1.8,2.5c-0.4,0.1-0.6,0.2-0.6,0.6l1.5,0.3c0-1.2,0.2-1.8,0.7-1.8h0.2v2.1
		h0.9c0,0.4-0.2,0.6-0.6,0.6c0-0.2-0.1-0.3-0.3-0.3c0,0.4,0.2,1.2,0.7,2.1l-0.7,1.2h1.2c0-0.3-0.2-0.9-0.6-1.8l0.9-0.6
		c0.2,0.4,0.4,1.3,0.6,2.7c0,0.2-0.1,0.3-0.2,0.3l0.2,1.5v2.1c0.6,0,0.9,0.2,0.9,0.7l-0.6,0.9h0.6l1.6-1.2h0.3v0.6
		c0,0.2-0.1,0.3-0.3,0.3c0.2,0.4,0.3,0.7,0.3,0.9h0.2l0.3-1.2h0.7v0.7l-0.7,0.9c0.4,0.1,0.7,0.2,0.7,0.6c0,0.2-0.1,0.3-0.3,0.3
		l0.3,0.7L69.9,65l0.6,0.3c0-0.2,0.1-0.3,0.3-0.3c0.2,0.3,0.3,0.9,0.3,1.8l0.9-0.6v0.2c0,0.4-0.7,0.8-2.1,1.2l-1.2-0.6
		c0,0.4-0.2,0.6-0.6,0.6h-0.3l-0.6-0.2c-0.2,0.6-0.4,0.9-0.7,0.9l0.7,1.2l0.6-0.3c1.3,0.4,2,0.6,2.1,0.6l0.6-0.9
		c0.4,0.2,0.9,0.3,1.6,0.3v0.6h-0.6l0.2,0.7v0.2h-0.2l-1-0.6h-0.2v0.3l0.6,1.2L70.2,72c-0.4,0-0.7-0.2-0.7-0.6
		c0-0.2,0.1-0.3,0.3-0.3c-0.2-0.4-0.3-0.7-0.3-0.9h-0.2c0,0.7-0.1,1.2-0.3,1.6c0.2,0,0.3,0.1,0.3,0.2l-0.7,0.3h-0.3l-1.2-1.2v0.3
		c0.2,0.3,0.2,0.8,0.2,1.5l-0.6,0.3l0.3,0.7v0.6c-1.3-0.5-1.9-1-1.9-1.2c0.4,0,0.7-0.2,0.7-0.6v-0.3h-0.3c-0.2,0-0.5,0.3-0.9,0.9
		c0,0.2,0.1,0.3,0.3,0.3l-0.3,1.5l0.3,1.6c-0.4,0.1-0.7,0.2-0.7,0.6h0.9c0-0.6,0.4-0.9,1.2-0.9v-0.2l-0.6-1h0.6
		c0.4,0.2,0.7,0.3,0.9,0.3v0.3C67,76.6,66.5,77,65.9,77v0.2c1,0.1,1.5,0.4,1.5,1c-0.4,0-0.6,0.1-0.6,0.2l-0.7-0.2
		c-0.3,0.2-0.7,0.2-1.2,0.2v0.7h0.6c0,0.6-0.4,0.9-1.2,0.9v1.2H65l0.6-0.3v0.9H64l-0.6-2.1c0.3,0,0.6-0.3,0.9-0.9h-0.6
		c-1,0.6-1.6,1-1.6,1.2c0.6,0,0.9,0.7,0.9,2.1h-0.2c0.2,0.3,0.2,0.9,0.2,1.8h0.3v-2.1h0.3c0,0.4,0.2,0.7,0.6,0.7v0.6L63.8,84
		c0.3,0.2,0.8,0.3,1.5,0.3v0.3c-0.5,0-1,0.2-1.5,0.6h-0.3v-0.6h-0.6c0,0.6-0.1,0.9-0.3,0.9c0,0.4,0.6,0.9,1.8,1.5v0.3H64l0.3,0.7
		v0.2c0,0.4-0.2,0.7-0.6,0.7l-0.3-0.7h0.3L63.1,87c-0.6,0.2-0.9,0.4-0.9,0.7c0.2,0.4,0.3,0.7,0.3,0.9c-0.2,0-0.3-0.1-0.3-0.3
		c-0.9,0.4-1.4,0.8-1.5,1.2c0.2,0,0.2,0.1,0.2,0.3c-0.4,0.1-0.6,0.2-0.6,0.6v1.9c-0.6,0-0.9,0.2-0.9,0.6h0.2l0.7-0.3l0.3,0.7
		c-0.4,1.6-0.9,2.4-1.2,2.4h-0.3V96h0.6l-0.6,0.9v0.7c0.6,0,0.9,0.2,0.9,0.6c-0.3,0-0.6,0.3-0.9,0.9v0.3c0,0.2,0.1,0.3,0.3,0.3
		l-0.3,0.6v0.3l0.6,0.9h-0.6v7.7c0,3.5-0.2,5.2-0.6,5.2l0.2,0.6v0.7c-1,2-1.6,3.1-1.8,3.1h-0.3v-1.6l-0.2-1.5h-0.3
		c0,0.8-0.1,1.7-0.3,2.5h-0.6v-0.3c0-0.3,0.1-1.6,0.2-3.7l-0.6,0.3c0-0.4-0.2-0.6-0.6-0.6H54l0.3,0.6l-0.7,0.3l-0.3-0.7l0.3-0.6
		c-0.1-1-0.4-1.6-0.9-1.6v-0.2l0.3-0.7h-1.6l0.7-0.9v-0.3h-0.3v0.7c-0.4,0-0.7-0.2-0.7-0.7c0.5-0.4,0.9-0.6,1.2-0.6v-0.3
		c-0.8,0-1.2-0.2-1.2-0.6v-0.7l0.3-0.6l-0.6-0.3c0-0.4,0.2-1.2,0.6-2.5c-0.2,0-0.3-0.1-0.3-0.2c0.2,0,0.3-0.1,0.3-0.3l-0.6-0.3h-0.3
		v3.4c0,0.2-0.1,0.3-0.3,0.3c0,0.2,0.1,0.3,0.3,0.3l-0.3,1.5v1.6c0,0.2,0.1,0.2,0.3,0.2c-0.2,2.3-0.5,3.4-0.9,3.4H49
		c0.2-1.8,0.3-2.9,0.3-3.4l-0.3-0.6l0.3-0.6l-0.3-0.7l0.3-0.6l-0.3-1.9c0.2,0,0.3-0.1,0.3-0.2c-0.4,0-0.6-0.2-0.6-0.7
		c0.2,0,0.2-0.1,0.2-0.2h-1.2v1.8h-0.3l-0.7-0.3l-0.2,0.7h0.6v0.6c-0.7,0.2-1.1,0.3-1.2,0.3v-0.3c0-0.2,0.1-0.3,0.3-0.3L46,107v-0.3
		h0.7l-0.9-1.5c0.4,0,0.6-0.2,0.6-0.7V104c-0.5,0-0.8-0.6-0.9-1.9H45c-0.3,1.5-0.7,4.8-1.2,9.8c0,0.2,0.1,0.3,0.3,0.3
		c-0.2,0.8-0.3,1.5-0.3,2.1h-0.6v-0.9c0-0.2,0.1-0.3,0.3-0.3c-0.2-0.4-0.3-0.7-0.3-0.9l0.3-1.2l-0.3-0.6c0.2-0.6,0.4-0.9,0.6-0.9
		l-0.2-0.7c0-0.2,0.1-0.3,0.2-0.3l-0.2-0.6v-2.5c0-0.2,0.1-0.2,0.2-0.2l-0.2-0.7l0.2-0.6c-0.2-0.4-0.2-0.7-0.2-0.9h0.2
		c0-0.2-0.1-0.3-0.2-0.3c0.2-1.9,0.4-3.2,0.6-3.7v-0.9h0.3l-0.7-0.9c0.1-0.4,0.3-0.6,0.7-0.6c-0.4-1-0.7-1.8-0.7-2.1h0.3l-0.3-0.7
		c0-0.2,0.1-0.3,0.3-0.3l-0.3-0.6v-0.3h0.7c-0.4-0.7-0.7-1.5-0.7-2.4h0.7v-1.2L43.8,88v-0.3c0.6,0,0.9-0.3,0.9-0.9h-0.2l0.2-0.7
		c0-0.4-0.2-0.6-0.6-0.6c0,0.2-0.1,0.3-0.3,0.3l-0.2-0.7c0.8,0,1.2-0.2,1.2-0.6v-0.9c0-0.2-0.1-0.3-0.2-0.3c0.2-1.3,0.4-1.9,0.6-1.9
		l-0.3-0.6c0-0.2,0.1-0.3,0.3-0.3L44.7,80v-0.3l0.3-1.5c-1.1,0.2-1.9,0.2-2.5,0.2c0.1,0.4,0.3,0.7,0.7,0.7c0.4-0.2,0.7-0.3,0.9-0.3
		l0.3,0.6c0,0.6-0.2,1.2-0.7,1.9c0.4,0.1,0.7,0.2,0.7,0.6c-0.4,0.1-0.7,0.3-0.7,0.7l0.7,0.2c-0.3,0.8-0.6,1.2-0.9,1.2l0.2,0.7
		c0,0.3-0.3,0.6-0.9,0.9v-0.7h-0.3c0,0.6-0.3,1.5-0.9,2.8c0.2,0,0.3,0.1,0.3,0.3c-0.6,0.2-0.9,0.4-0.9,0.6v2.1h0.3v-1.8H42v2.4h-0.9
		v1l0.6-0.3c0.4,0.1,0.7,0.2,0.7,0.6L42,93.2h0.3l0.6-0.3l0.3,0.6v1.2c0,0.4-0.2,0.7-0.7,0.7h-0.2l0.2-0.7v-1.2h-0.9v0.7h-1.2V92
		c0-0.5,0.1-0.9,0.3-1.2c-0.4-0.8-0.6-1.4-0.6-1.8h-0.3v0.9c0,0.2,0.1,0.3,0.3,0.3l-0.3,1.5v0.7c0,0.4,0.1,0.8,0.3,1.2
		c-0.2,0.4-0.3,0.8-0.3,1.2h0.6v0.7c-0.4,0-0.6,0.3-0.6,0.9h-0.6l0.2-1.2l-0.2-0.6c0.2-0.4,0.2-0.8,0.2-1.2l-0.2-0.7
		c0.2-0.4,0.2-0.7,0.2-0.9l-0.2-1.8h0.2l-0.2-0.7v-0.6c0.1-0.4,0.2-0.6,0.6-0.6l0.6,0.2V87l-0.2-0.6h0.6v-1.6h-0.6
		c0,0.7-0.2,1-0.7,1v-0.7c0-0.2,0.1-0.3,0.3-0.3l-0.3-0.6c0-2.4,0.2-4,0.7-5c-0.2-0.3-0.3-0.7-0.3-1.2l0.6-0.3l-0.2-0.7v-4
		c-0.4,0.2-0.7,0.3-0.9,0.3v-0.3c-0.9,0.4-1.5,0.7-1.9,0.7v-0.3c-2.7,0.8-4.3,1.4-4.9,1.8c-0.4-0.2-0.8-0.3-1.2-0.3
		c0,0.7-4,1.3-11.9,2.1L0.9,75.7v-0.7h0.7v1h0.6v-1.6H1.6l0.2-0.6v-1.2l-0.6,0.2c-0.4,0-0.7-0.2-0.7-0.6v-0.6c0-0.2,0.1-0.3,0.3-0.3
		l-0.3-0.7l0.3-1.5l-0.3-1.6l0.3-0.6c-0.2-0.4-0.3-0.8-0.3-1.2c0-0.2,0.1-0.3,0.3-0.3L0.6,65v-0.3h0.7c0,0.7,0.5,1.4,1.5,2.1v-0.6h1
		v1.2H4v-1.6H3.7L4,65.3v-0.7H3.7c-0.4,0.1-0.7,0.3-0.7,0.7L2.5,65l-0.7,0.3c0-0.2-0.1-0.3-0.2-0.3l0.2-2.1v-0.3
		c0-0.4-0.2-0.6-0.6-0.6v1.5H0.6v-1.2C0.6,62,0.7,62,0.9,62c-0.4-0.9-0.6-2-0.6-3.1h0.2l1,0.6c0-0.2,0.1-0.3,0.2-0.3l0.3,0.7
		c-0.5,0.4-0.9,0.6-1.2,0.6l0.3,0.7l0.6-0.3c0.4,0,0.7,0.3,0.7,0.9l-0.3,0.6c0.2,0.4,0.3,0.8,0.3,1.2v0.3l-0.3,0.6h0.3
		c0.5-0.6,0.9-0.9,1.2-0.9v-0.2c-0.6,0-0.9-0.4-1-1.2v-0.9H2.5v-0.7c0-0.4,0.1-0.9,0.2-1.2c-0.2-0.4-0.2-0.7-0.2-0.9h0.2
		c-0.2-0.4-0.4-1.3-0.6-2.7h0.3l-0.3-0.7v-2.4H1.6v-1h0.6c-0.2-1-0.3-1.7-0.3-1.8C2,49.3,2.1,49,2.1,48.8c-0.2-0.3-0.3-0.7-0.3-1.2
		c0.2,0,0.3-0.1,0.3-0.3l-0.6-0.2c0-0.2,0.1-0.8,0.2-1.9c0-0.1-0.1-1.4-0.2-4c0.2,0,0.2-0.1,0.2-0.3c-0.4,0-0.6-0.3-0.6-0.9
		c0-0.2,0.1-0.2,0.3-0.2c-0.4-1.6-0.7-3.4-0.7-5.3c0-0.2,0.1-0.2,0.3-0.2l-0.3-0.7v-0.6h0.7v0.9h0.6v-1.6H1.6l0.2-0.6v-1.2l-0.6,0.3
		c-0.4,0-0.7-0.2-0.7-0.7v-0.6c0-0.2,0.1-0.3,0.3-0.3l-0.3-0.6c0-0.2,0.1-0.8,0.3-1.8l-0.3-0.7c0.2-0.3,0.3-0.7,0.3-1.2l-0.3-0.6
		c0.2-0.4,0.3-0.7,0.3-0.9c-0.2-0.4-0.3-0.7-0.3-0.9h0.7c0,0.6,0.2,0.9,0.6,0.9v0.6H1.2c0,0.6,0.1,0.9,0.3,0.9l-0.3,1.6V27
		c0,0.5,0.1,0.9,0.3,1.2c-0.2,0.4-0.3,0.8-0.3,1.2v0.3h0.3c0-1,0.2-1.6,0.6-1.6l-0.3-1.5v-2.1h1.2v0.6H4v-1.2l-0.2-0.6H4
		c0.4,0.1,0.7,0.2,0.7,0.6v1.2l-0.3,0.6l-0.6-0.2H3.4l0.3,0.6c0,0.4-0.2,0.7-0.7,0.7l-0.6-0.3v0.9h0.9v2.5H2.7v-1.9H2.5
		c0,1.7,0.1,2.5,0.2,2.5c0.4,0.1,0.7,0.3,0.7,0.7H3.1C3.7,32.3,4,33.2,4,33.7h0.3v-0.6c0.3,0,0.6,0.3,0.9,0.9l-0.3,0.6
		c0.3,0,0.7,0.4,1,1.2c-0.4,0.1-0.7,0.2-0.7,0.6c0.4,0.1,0.7,0.3,0.7,0.7l-0.7,0.3c0.4,0.7,0.7,1.3,0.7,1.8c0,0.4-0.2,0.6-0.7,0.6
		c-0.4-0.2-0.7-0.2-0.9-0.2L4,40.2c0.5,0,1.4,0.1,2.5,0.3l-0.3-1.6v-0.3c0-0.2,0.1-0.2,0.3-0.2l-0.3-0.7c0-0.2,0.1-0.2,0.3-0.2
		c-0.2-1.3-0.4-1.9-0.6-1.9L6.1,35v-0.9c0-0.4-0.4-0.7-1.2-0.7C5,33,5.2,32.8,5.5,32.8c0,0.2,0.1,0.3,0.3,0.3l0.2-0.7l-0.2-0.6h0.2
		c0-0.6-0.3-0.9-0.9-0.9v-0.3l0.7-0.9v-1.2H5.2c0-0.9,0.2-1.7,0.7-2.5H5.2v-0.3c0-0.2,0.1-0.2,0.3-0.2l-0.3-0.7
		c0-0.2,0.1-0.2,0.3-0.2c0-0.2-0.1-0.3-0.3-0.3c0-0.4,0.2-1.1,0.7-2.1c-0.4,0-0.7-0.2-0.7-0.7l0.7-0.9c-0.4,0-0.7-0.1-0.7-0.2
		c0-0.2,0.1-0.3,0.3-0.3l-0.7-4h0.3l-0.3-0.7l0.3-0.6C5,14.3,4.9,14,4.9,13.9h0.3l-0.3-0.7v-2.5c0-0.2,0.1-0.2,0.3-0.2L4.9,9.8
		c0-0.2,0.1-0.3,0.3-0.3L4.6,8.3l0.2-0.7L4.6,5.9h0.2L4.6,5.2V4.3h0.6c0,0.9,0.1,1.6,0.3,1.9c0,0.2-0.1,0.2-0.3,0.2
		c0.5,6.8,1,10.1,1.6,10.1c0.1-1.2,0.4-1.8,0.9-1.8v-0.7L7,13.2c0.3,0,0.7-0.4,1-1.2H7.3v-0.2c0-0.2,0.1-0.3,0.3-0.3l-0.3-0.7v-0.2
		h0.3c0.4,0.2,0.7,0.2,0.9,0.2v0.7H8L8.3,12l0.7-0.2h0.2v1.8h1.2l-0.2-0.7l0.6-0.2c-0.2-0.4-0.3-0.7-0.3-0.9l0.3-1.2l-0.3-0.7
		l0.3-0.6c0-0.2-0.1-0.3-0.3-0.3l0.3-1.6l-0.3-2.7h0.7c0.3,0,0.6,1,0.9,3.1l-0.3,0.7v1.5l0.3,1.6h-0.3L12,12v3.4h0.3
		c0.4,0,0.6-0.2,0.6-0.6c-0.2,0-0.3-0.1-0.3-0.3h0.3c-0.4-1.3-0.6-2.1-0.6-2.5l0.6-0.2l-0.3-0.7v-0.6c0-0.4,0.4-0.7,1.2-0.7V9.5
		c-0.8,0-1.2-0.3-1.2-0.9l0.7-0.2v0.6h0.2V8.3c-0.4,0-0.6-0.2-0.6-0.7h1.6l-0.3-0.6V6.8c0.5,0,0.8-0.5,0.9-1.6
		c-0.2-0.4-0.3-0.7-0.3-0.9L15.3,4l0.2,0.6c-0.2,0-0.2,0.1-0.2,0.3h0.2l1-0.7c0,0.2,0.1,0.3,0.2,0.3V4.3l-0.2-3.6h0.6
		c0.2,0.8,0.3,1.6,0.3,2.4h0.2l0.3-1.5V0z M0.3,16.9h0.2l0.7,0.2l-0.3,0.7l0.3,1.5h0.3v-0.9h0.2c0.4,0.1,0.7,0.3,0.7,0.7
		c-0.4,0-0.7,0.3-0.7,0.9l-0.6-0.3v1.6H0.6V20c0-0.2,0.1-0.3,0.3-0.3C0.5,18.7,0.3,17.8,0.3,16.9z M1.2,31l0.3,0.6v0.3H1.2
		c-0.4,0-0.7-0.2-0.7-0.7L1.2,31z M1.2,73.3l0.3,0.7v0.2H1.2c-0.4,0-0.7-0.2-0.7-0.6L1.2,73.3z M1.2,66.3c0.2,0.3,0.3,1,0.3,2.1h0.2
		v-2.1H1.2z M1.6,69.6l-0.3,2.1V72h0.3l0.6-2.1L1.6,69.6z M2.1,21.8l0.3,0.7c0,0.4-0.2,0.6-0.7,0.6l-0.2-0.6
		C1.6,22,1.8,21.8,2.1,21.8z M1.8,20c0.4,0.1,0.7,0.2,0.7,0.6v0.7H1.8V20z M3.1,17.2l0.3,0.7v0.3c0,0.4-0.2,0.6-0.7,0.6H2.5v-0.9
		C2.5,17.4,2.7,17.2,3.1,17.2z M2.5,32.8c0.2,0.3,0.2,0.8,0.2,1.5c0.4,0,0.7-0.2,0.7-0.6v-0.3c0-0.4-0.2-0.6-0.7-0.6H2.5z M3.1,69
		l-0.6-0.3v1c0.8,0,1.2,0.5,1.2,1.5H4c0-0.8,0.2-1.2,0.7-1.2c0,0.6,0.2,0.9,0.6,0.9l-0.3,1.6H4.6c-0.4,0-0.7-0.2-0.7-0.6
		c0.2,0,0.3-0.1,0.3-0.3H3.4V72H2.7v-1.8H2.5c0,1.7,0.1,2.5,0.2,2.5c0.4,0.1,0.7,0.2,0.7,0.6H3.1l0.6,1.2h0.1c0-0.1-0.1-0.2-0.2-0.4
		l0.7,2.1v-0.7c0.3,0,0.7,0.1,1.2,0.2l0.2,0.1c0,0.1-0.3,0.1-0.8,0.1c0.1-0.4,0.3-0.7,0.7-0.7c0,0.2,0.1,0.3,0.3,0.3l0.2-0.6
		l-0.2-0.7h0.2c0-0.6-0.3-0.9-0.9-0.9v-0.3L5.9,72v-0.6c-0.7-0.7-1-2-1-4L3.1,69z M2.5,75.1c0.2,0.4,0.5,0.7,0.9,1v-0.3
		c0-0.4-0.2-0.7-0.7-0.7H2.5z M3.1,36.5c0,0.4-0.1,0.7-0.3,0.7c0.2,0.4,0.3,0.7,0.3,0.9c0.4,0,0.7-0.2,0.7-0.6
		c-0.2-0.4-0.3-0.8-0.3-1H3.1z M3.1,21.2c0.4,0.1,0.7,0.2,0.7,0.6c0,0.4-0.2,0.7-0.7,0.7V21.2z M3.4,34.7c0,0.3,0.3,0.6,0.9,0.9
		v-1.2C3.9,34.5,3.6,34.7,3.4,34.7z M3.7,16.6h0.6v1.2H3.7V16.6z M4.3,19.6l0.3,0.7v0.2H4.3c-0.4,0-0.6-0.2-0.6-0.6L4.3,19.6z
		 M3.7,49.1l0.6,0.2l0.3-0.6v-0.3H4.3C3.9,48.5,3.7,48.7,3.7,49.1z M4,21.8h0.7v0.9H4V21.8z M4.6,27.6c0,0.6,0.2,0.9,0.6,0.9L4.9,30
		H4.3L4,27.9L4.6,27.6z M4,50.9v1.6h0.3c0.4,0,0.6-0.2,0.6-0.7c-0.4,0-0.6-0.3-0.6-0.9H4z M5.9,16.9v0.6h0.6L7,17.2
		c0.1,0.4,0.3,0.7,0.7,0.7v-1.2C7.3,16.8,6.7,16.9,5.9,16.9z M5.9,41.1V42h0.6v-0.9H5.9z M5.9,42.3v0.9h0.9v-0.3
		c0-0.4-0.2-0.6-0.7-0.6H5.9z M6.1,19.6V20h1.6v-0.7L6.1,19.6z M7,4.3h0.7L8,5.9v0.6H7.3C7.3,5.8,7.2,5.1,7,4.3z M8,8.3l0.2,0.6
		c0,0.4-0.2,0.6-0.6,0.6H7.3V8.9C7.4,8.5,7.6,8.3,8,8.3z M8.3,14.1c0.1,0.4,0.3,0.7,0.7,0.7c0-0.2,0.1-0.3,0.2-0.3
		c0,0.2,0.1,0.3,0.3,0.3v-0.9C9.2,14,8.7,14.1,8.3,14.1z M9.2,4.6h0.7V5c0,0.2-0.1,0.2-0.3,0.2l0.3,0.7v1.5c0,0.2-0.1,0.3-0.3,0.3
		l0.3,0.7v0.6c0,0.4-0.2,0.6-0.7,0.6L8.9,8.9V8.6c0-0.2,0.1-0.2,0.2-0.2C9.2,8.1,9.1,8,8.9,8l0.2-1.6V4.6z M9.8,9.5l0.3,0.7H9.8
		l0.3,0.6c0,0.4-0.2,0.7-0.7,0.7l-0.6-0.9C8.9,10.1,9.2,9.8,9.8,9.5z M9.5,15c0,0.8-0.2,1.2-0.6,1.2v0.3h0.6L9.8,16v-1H9.5z
		 M12,15.7v0.6l0.3,2.8h0.2c0-0.2,0.1-0.8,0.3-1.9C12.6,16.2,12.3,15.7,12,15.7z M21.8,10.5l0.2,0.6h-0.9
		C21.2,10.7,21.4,10.5,21.8,10.5z M21.5,14.1H22c-0.2,0.4-0.2,0.7-0.2,0.9h-0.7C21.3,14.6,21.5,14.3,21.5,14.1z M21.8,31.3v0.3
		c0.8,0,1.2,0.3,1.2,0.9h0.2v-0.9L23,31C22.6,31.2,22.2,31.3,21.8,31.3z M22,23h0.7c0,0.8,0.4,1.4,1.2,1.8c0,0.4-0.3,0.7-0.9,0.7
		c-0.4-0.2-0.8-0.3-1-0.3v-0.6c0-0.2,0.1-0.3,0.3-0.3L22,23.6V23z M22.7,25.7l0.6,0.3l0.7-0.3c0,0.4,0.2,0.7,0.6,0.7V27
		c-0.2,0-0.5,0.1-0.9,0.3c0-0.6-0.2-0.9-0.6-0.9v0.9h0.6v0.6c-0.4,0-0.6,0.3-0.6,1h-0.7c0-0.9-0.1-1.6-0.3-1.9L22.7,25.7z
		 M22.7,34.3c0.3,0.8,0.6,1.2,0.9,1.2h0.3V35c-0.4,0-0.7-0.4-0.7-1.2C22.9,33.8,22.7,34,22.7,34.3z M23,35.9v1.2h0.2v-1.2H23z
		 M24.8,43.6c0,0.4-0.5,0.6-1.6,0.6v0.3h0.9v1.8l-0.2,0.7h0.6c0.4,0,0.7-0.2,0.7-0.7v-2.7H24.8z M24.2,28.9v0.9
		c-0.4,0-0.6-0.2-0.6-0.7L24.2,28.9z M24.8,41.7v0.6c0.2,0,0.3,0.1,0.3,0.3c-0.4,0.2-0.8,0.2-1,0.2v0.3h0.7c0.1-0.4,0.2-0.6,0.6-0.6
		c-0.2-0.4-0.2-0.7-0.2-0.9H24.8z M24.5,47.9l-0.3,0.6c0.2,0.4,0.3,0.8,0.3,1.2c-0.2,0-0.3,0.1-0.3,0.3c0.4,0,0.7,0.2,0.7,0.6h0.3
		c0.4,0,0.6-0.2,0.6-0.6v-0.3L25.2,50h-0.3v-0.3l0.3-1.5L24.5,47.9z M26.3,24.3l0.3,0.6l-0.6,0.3h-0.3v-0.3
		C25.8,24.5,26,24.3,26.3,24.3z M26.6,35H27v0.3c0,0.4-0.2,0.6-0.7,0.6l-0.2-0.6L26.6,35z M26.6,40.2H27c0.4,0.2,0.7,0.3,0.9,0.3
		c0-0.2,0.1-0.3,0.3-0.3l0.2,0.6c0,0.4-0.4,0.7-1.2,0.7v0.3c0.6,0,0.9,0.2,0.9,0.6v1.2h-0.9l0.6-0.9v-0.3c-0.8,0-1.2-0.2-1.2-0.6
		v-0.7h0.7v-0.3h-0.7V40.2z M27.6,35.9h0.7v0.3l-0.3,0.6c0.2,0,0.3,0.1,0.3,0.3l-0.7,0.3l-0.2-0.7C27.5,36.4,27.6,36.1,27.6,35.9z
		 M27.6,38h0.7l-0.3,0.6l0.6,0.3c-0.2,0.4-0.2,0.7-0.2,0.9h-0.7c0-0.2-0.1-0.5-0.2-0.9C27.5,38.6,27.6,38.3,27.6,38z M30.9,41.4v0.9
		c0,0.4-0.2,0.6-0.6,0.6v-0.2l0.2-0.7c-0.2,0-0.2-0.1-0.2-0.2L30.9,41.4z M30.9,50.9h0.7v0.9h-0.7V50.9z M34,69.9v0.3h0.3
		c1.1-0.2,2-0.3,2.8-0.3h2.7c0,0.5-1.1,0.8-3.4,0.9v-0.2c-0.8,0.4-1.6,0.6-2.5,0.6v0.7h0.3c0.4-0.2,0.7-0.3,0.9-0.3
		c0,0.2,0.1,0.3,0.3,0.3l0.3-0.7l0.6,0.3h1.8v0.3c0,0.4-0.3,0.6-0.9,0.6v0.6c1.7-0.2,2.8-0.7,3.4-1.5l-0.3-0.7l0.3-1.2
		c-0.2-0.4-0.3-0.8-0.3-1L34,69.9z M34,73.3h0.7l1.5-0.3c0,0.2,0.1,0.3,0.3,0.3c0-0.4,0.2-0.6,0.7-0.6v-0.3h-0.7
		C34.8,72.5,34,72.8,34,73.3z M38.3,75.1h1.2v0.7h-1.2V75.1z M39.9,16l0.3,0.6c0,0.3-0.3,0.6-0.9,0.9h-0.3v-0.3
		C39.2,16.4,39.5,16,39.9,16z M39.3,97.5h0.6V99l0.6-0.2c0,0.3,0.2,0.7,0.7,1.2l-0.7,0.3h-0.2v-0.9h-0.3c-0.2,1-0.3,1.7-0.3,1.8
		c0.2,0,0.3,0.1,0.3,0.3l-0.6,0.3h-0.3v-0.3c0-1.4,0.2-2.1,0.6-2.1l-0.2-0.6c0-0.2,0.1-0.3,0.2-0.3l-0.2-0.7V97.5z M39.9,44.5h0.3
		v0.3c0,0.4-0.2,0.6-0.7,0.6l-0.2-0.6L39.9,44.5z M39.9,86.8h0.3V87c0,0.4-0.2,0.7-0.7,0.7L39.3,87L39.9,86.8z M39.9,46.6v0.6
		l0.3,1.9c0.4,0,0.6-0.2,0.6-0.7c-0.4-0.8-0.6-1.4-0.6-1.8H39.9z M40.2,50.3c0,1.2-0.1,1.9-0.3,2.1h0.6v-2.1H40.2z M40.2,6.8h0.6
		v0.9h-0.6V6.8z M40.8,95.6l0.3,0.7c0,0.4-0.2,0.6-0.7,0.6l-0.2-0.6C40.2,95.8,40.4,95.6,40.8,95.6z M40.4,97.5h0.7v0.6
		c0,0.4-0.2,0.7-0.7,0.7V97.5z M42.6,36.2c0.1,0.4,0.3,0.6,0.7,0.6c0.4-0.2,0.7-0.3,0.9-0.3l0.3,0.7c0,0.5-0.2,1.2-0.7,1.8
		c0.4,0.1,0.7,0.3,0.7,0.7c-0.4,0.1-0.7,0.2-0.7,0.6l0.7,0.3c-0.3,0.8-0.6,1.2-0.9,1.2l0.2,0.6c0,0.3-0.3,0.6-0.9,0.9v-0.6h-0.3
		c0,0.6-0.3,1.5-0.9,2.7c0.2,0,0.3,0.1,0.3,0.3c-0.6,0.2-0.9,0.4-0.9,0.6v2.1h0.3v-1.8H42v0.6h0.9l-0.3-0.6l0.7-0.3h0.3v1.6
		c-0.2,0-0.3,0.3-0.3,0.9c-0.4,0-0.7-0.4-0.7-1.2c-0.5,1-0.9,1.6-1.2,1.6h-0.3V50l0.6-0.3l1.9,1.6c0-1.9,0.3-3.3,0.9-4v-0.6
		l-0.7-0.9v-0.3c0.6,0,0.9-0.3,0.9-0.9h-0.2l0.2-0.6c0-0.4-0.2-0.7-0.6-0.7c0,0.2-0.1,0.3-0.3,0.3l-0.2-0.7c0.8,0,1.2-0.2,1.2-0.6
		v-0.9c0-0.2-0.1-0.3-0.2-0.3c0.2-1.2,0.4-1.8,0.6-1.8l-0.3-0.7c0-0.2,0.1-0.2,0.3-0.2l-0.3-0.7v-0.2l0.3-1.6
		C43.9,36.1,43.1,36.2,42.6,36.2z M41.4,42c0,0.7-0.1,1.2-0.3,1.6h0.3c0.4,0,0.6-0.2,0.6-0.7v-0.2C42,42.2,41.8,42,41.4,42z
		 M41.4,84.3c0,0.7-0.1,1.2-0.3,1.6h0.3c0.4,0,0.6-0.2,0.6-0.7v-0.3C42,84.5,41.8,84.3,41.4,84.3z M41.1,99.9h0.3
		c0.4,0.1,0.6,0.3,0.6,0.7v0.3c0,0.4-0.2,0.6-0.6,0.6l-0.3-0.6V99.9z M42,9.2l0.3,0.6v0.3h-0.9V9.8C41.5,9.4,41.7,9.2,42,9.2z
		 M41.7,38.4c0,0.4-0.1,0.6-0.2,0.6c0.2,0.4,0.2,0.7,0.2,0.9H42l0.3-1.2L41.7,38.4z M41.7,80.6c0,0.4-0.1,0.7-0.2,0.7
		c0.2,0.4,0.2,0.7,0.2,0.9H42l0.3-1.2L41.7,80.6z M41.7,96.3c0.4,0.1,0.7,0.2,0.7,0.6c0,0.4-0.2,0.7-0.7,0.7V96.3z M42,41.7
		c0.2,0,0.5,0.1,0.9,0.2v-1.2C42.6,40.8,42.3,41.1,42,41.7z M42,84c0.2,0,0.5,0.1,0.9,0.3v-1.2C42.6,83.1,42.3,83.4,42,84z M42.6,27
		l-0.2,0.7l0.6,0.2h0.3v-0.2C43.2,27.2,43,27,42.6,27z M42.9,98.1h0.3v0.3c0,0.4-0.2,0.6-0.7,0.6l-0.2-0.6L42.9,98.1z M42.3,100.9
		h0.6v1.2h-0.6V100.9z M42.6,23.9v1.6h0.3c0-0.3,0.2-0.7,0.7-1.2l-0.7-0.3H42.6z M42.9,88.6h0.7v1.6c-0.2,0-0.3,0.3-0.3,0.9
		c-0.4,0-0.7-0.3-0.7-0.9L42.9,88.6z M42.6,96h0.7v0.9h-0.7V96z M44.5,3.7H45V4l-0.3,1.5h-0.2V3.7z M44.5,33.2v0.9h0.2
		c0.4,0,0.7-0.2,0.7-0.7v-0.2H44.5z M44.5,34.3v1H45v-1H44.5z M44.5,75.4v0.9h0.2c0.4,0,0.7-0.2,0.7-0.6v-0.3H44.5z M44.5,76.7v0.9
		H45v-0.9H44.5z M45.7,101.5l-0.7-0.3h-0.6v0.7c0.9,0,1.5,0.1,1.8,0.2v-1.2C45.9,101,45.7,101.2,45.7,101.5z M44.7,0.9h0.7v1h-0.7
		V0.9z M44.7,98.8V99l1.6,0.3v-0.6H44.7z M46,112.2h0.7v0.6l-0.3,1.6h-0.6C45.9,113.5,46,112.8,46,112.2z M46,109.2h0.3
		c0.4,0.1,0.6,0.2,0.6,0.6c0,0.4-0.2,0.7-0.6,0.7l-0.3-0.7V109.2z M47.2,104l-0.3,0.6c0.5,0,0.9,0.1,1.2,0.3V104l-0.6,0.2
		C47.5,104,47.4,104,47.2,104z M47.5,102.1v0.3c0.4,0,0.6,0.4,0.6,1.2h0.3v-1.2l-0.6-0.3H47.5z M48.4,107.3l0.3,0.6l-0.3,0.6
		c0.2,0,0.3,0.1,0.3,0.3l-0.7,0.3l-0.6-0.9C47.5,107.9,47.8,107.6,48.4,107.3z M48.1,109.2l0.3,0.6v0.7c0,0.2-0.1,0.2-0.3,0.2
		l0.3,0.7v1.5c0,0.2-0.1,0.3-0.3,0.3l0.3,0.7v0.2h-0.6v-1.8l-0.3-1.6h0.3l-0.3-0.6v-0.3C47.6,109.4,47.8,109.2,48.1,109.2z
		 M49.3,5.5L49,7.3c0.4,0,0.7-0.5,1-1.5L49.3,5.5z M50.9,99.7c-0.2,1.8-0.3,2.9-0.3,3.4c0.5,0,0.8-0.7,0.9-2.1
		c-0.2-0.4-0.3-0.8-0.3-1.2H50.9z M52.1,0l0.2,0.7l-0.2,1.8h-0.3c-0.4,0-0.7-0.2-0.7-0.6v-1C51.2,0.6,51.5,0.3,52.1,0z M59.7,103.6
		h0.7c0,0.2,0.1,0.5,0.3,0.9h-0.7C60.1,104.3,60,104,59.7,103.6z M59.7,107.6h1c0,0.4-0.2,0.7-0.7,0.7L59.7,107.6z M61.6,43.9
		c0,0.6-0.4,0.9-1.2,0.9V45c0.4,0,0.9,0.1,1.2,0.3l0.2-0.6v-0.9H61.6z M61.6,86.1c0,0.6-0.4,0.9-1.2,0.9v0.3c0.4,0,0.9,0.1,1.2,0.3
		l0.2-0.7v-0.9H61.6z M62.2,93.2l0.3,0.6c-0.8,0.5-1.2,1.1-1.2,1.8h-0.6V95c0-0.2,0.1-0.3,0.2-0.3l-0.2-0.6v-0.7L62.2,93.2z
		 M61,89.9h0.7c0,0.6,0.2,0.9,0.6,0.9v0.6h-0.6v1c0.4,0,0.6-0.3,0.6-1c0.4,0.2,0.7,0.3,0.9,0.3v0.7c-0.4,0-0.6,0.2-0.6,0.6l-0.7-0.3
		l-0.6,0.3L61,92.3V89.9z M61.3,42.3l0.6,0.3c0-0.8,0.2-1.2,0.7-1.2v-0.7h-0.3C61.8,40.8,61.5,41.3,61.3,42.3z M61.3,84.7l0.6,0.2
		c0-0.8,0.2-1.2,0.7-1.2v-0.7h-0.3C61.8,83.1,61.5,83.6,61.3,84.7z M61.6,39.3v1.2h0.6c-0.2-0.4-0.3-0.8-0.3-1.2H61.6z M61.6,49.1
		V50c0.4,0,0.6-0.2,0.6-0.7v-0.2H61.6z M61.6,81.5v1.2h0.6c-0.2-0.3-0.3-0.7-0.3-1.2H61.6z M62.5,29.5l0.3,0.6v1.9h-1v0.2
		c1,0,1.6,0.2,1.6,0.7h0.3V30c0-0.4-0.2-0.6-0.7-0.6H62.5z M62.9,46.6v0.9c-0.4,0-0.7-0.2-0.7-0.6L62.9,46.6z M62.9,88.9v0.9
		c-0.4,0-0.7-0.2-0.7-0.7L62.9,88.9z M62.5,15.7v0.6c0.2,0,0.3,0.1,0.3,0.3c-0.2,0-0.3,0.1-0.3,0.3h0.3c0.4,0,0.6-0.2,0.6-0.7
		c-0.4,0-0.6-0.2-0.6-0.6H62.5z M62.9,17.8v0.3c0.2,0.4,0.2,0.7,0.2,0.9c-0.2,0-0.2,0.1-0.2,0.2h0.9l-0.3-1.5H62.9z M63.1,24.8
		l0.3,0.7v0.9h-0.6c0.2,0.4,0.2,0.7,0.2,0.9c-0.2,0.4-0.2,0.7-0.2,0.9l0.6,0.3c0-0.2,0.1-0.3,0.3-0.3l-0.3-1.5v-0.3h0.3l0.6,0.3
		L64,24.8H63.1z M62.9,33.2v0.2c0.2,0,0.5,0.1,0.9,0.3l-0.3,0.6v0.3h0.3c0-0.2,0.1-0.5,0.2-0.9l-0.9-0.6H62.9z M62.9,72.4
		c0,0.3,0.2,1.2,0.6,2.7h0.3v-1.2l-0.3-1.6H62.9z M62.9,75.4v0.3c0.2,0,0.5,0.1,0.9,0.3l-0.3,0.6V77h0.3c0-0.2,0.1-0.5,0.2-0.9
		l-0.9-0.7H62.9z M63.1,10.5c0.1,0.4,0.3,0.6,0.7,0.6H64v-0.6H63.1z M63.1,19.6V20c0.2,0.3,0.3,0.7,0.3,1.2c0.3,0,0.6-0.3,0.9-0.9
		c-0.6,0-0.9-0.2-0.9-0.7H63.1z M63.1,52.7c0.1,0.4,0.3,0.7,0.7,0.7H64v-0.7H63.1z M65.3,16.9c0,1-0.3,1.5-0.9,1.5
		c0.2,0.3,0.3,1,0.3,2.1H65V20h0.6v0.9l-0.3,0.6l-0.6-0.2c-0.5,0.4-0.9,0.6-1.2,0.6c0.1,0.4,0.2,0.7,0.6,0.7
		c0.1-0.4,0.3-0.7,0.7-0.7h0.6v0.3c0,0.2-0.1,0.3-0.2,0.3c0.2,0.3,0.2,0.7,0.2,1.2h0.3c0.4,0,0.6-0.2,0.6-0.6
		c-0.2-0.4-0.2-0.8-0.2-1.2h0.2c-0.2-0.2-0.4-1.8-0.6-4.9H65.3z M64.4,16.6v0.9c0.4,0,0.7-0.2,0.7-0.6L64.4,16.6z M64.4,93.5h0.3
		c0.4,0.1,0.6,0.3,0.6,0.7l-0.6,0.3l-0.3-0.7V93.5z M65.3,40.5l0.3,0.6v0.3h-0.3c-0.4,0-0.6-0.2-0.6-0.7L65.3,40.5z M64.7,69
		c0.2,0.4,0.3,0.7,0.3,0.9c0.4,0,0.6-0.2,0.6-0.6L65,69H64.7z M65.3,82.8l0.3,0.7v0.3h-0.3c-0.4,0-0.6-0.2-0.6-0.7L65.3,82.8z
		 M65.9,32.8h0.9v1.2c0,0.4-0.3,0.6-0.9,0.6V35c0.8,0,1.2,0.2,1.2,0.6l-0.3,0.7l-0.7-0.3c-0.4,0.2-0.7,0.3-0.9,0.3v-0.7h0.7v-0.2
		h-0.7v-0.7c0-0.4,0.4-0.6,1.2-0.6v-0.3L65.9,32.8z M66.2,36.5h0.7c0,0.2,0.1,0.5,0.3,1c-0.4,0.1-0.7,0.2-0.7,0.6
		c0.2,0,0.3,0.1,0.3,0.3h-0.7c0-0.2-0.1-0.5-0.2-0.9C66.1,37,66.2,36.7,66.2,36.5z M66.5,38.9l0.3,0.7h-0.3l0.3,0.6v0.3h-0.7
		l-0.2-1.2L66.5,38.9z M65.9,56.8c0.2,1.4,0.2,2.2,0.2,2.4c-0.2,0-0.2,0.1-0.2,0.3h0.2l0.7-0.3c-0.2,0-0.3-1.1-0.3-3.4
		C66.1,55.8,65.9,56.1,65.9,56.8z M66.2,78.8h0.7c0,0.2,0.1,0.5,0.3,0.9c-0.4,0.1-0.7,0.3-0.7,0.7c0.2,0,0.3,0.1,0.3,0.2h-0.7
		c0-0.2-0.1-0.5-0.2-0.9C66.1,79.3,66.2,79,66.2,78.8z M66.5,81.3l0.3,0.6h-0.3l0.3,0.7v0.2h-0.7l-0.2-1.2L66.5,81.3z M66.5,19.6V20
		l0.3,1.5h0.3c0-0.2,0.1-0.5,0.2-0.9c-0.4,0-0.6-0.2-0.6-0.6c0.2,0,0.3-0.1,0.3-0.3H66.5z M68.3,62.5v0.3l0.7,0.9v0.3h-0.7v-0.7
		h-0.2c0,0.6-0.4,0.9-1.2,0.9l0.3,2.1c0.4,0,0.6-0.2,0.6-0.6L67.2,65l0.6-0.3c0.4,0.8,1,1.2,1.8,1.2l-0.2-0.6V65l0.2-0.7
		c-0.2,0-0.2-0.1-0.2-0.2c0.3,0,0.6-0.5,0.9-1.6h-0.7c-0.4,0.2-0.7,0.3-0.9,0.3C68.6,62.7,68.5,62.5,68.3,62.5z M68.1,77.9h0.2
		c0,0.4-0.2,0.6-0.6,0.6h-0.3C67.5,78.1,67.7,77.9,68.1,77.9z M69,12.9h0.6V15c0,0.4-0.2,0.7-0.6,0.7L68.6,15c0.4,0,0.7-0.2,0.7-0.6
		v-0.9h-1C68.4,13.1,68.6,12.9,69,12.9z M69,55.2h0.6v2.1c0,0.4-0.2,0.6-0.6,0.6l-0.3-0.6c0.4,0,0.7-0.2,0.7-0.6v-1h-1
		C68.4,55.4,68.6,55.2,69,55.2z M68.6,9.8H69c0.4,0.1,0.6,0.3,0.6,0.7l0.7-0.3c0.3,0,0.6,0.3,0.9,0.9v0.3L70.8,12
		c0.4,0.1,0.7,0.3,0.7,0.7c0,0.2-0.1,0.2-0.3,0.2l0.3,0.7v0.3c0,0.4-0.2,0.6-0.7,0.6c-0.3,0-0.6-0.3-0.9-0.9c0.3,0,0.6-0.4,0.9-1.2
		c-1.2-0.3-1.9-0.8-2.1-1.6l0.3-0.6C68.8,10.1,68.6,10,68.6,9.8z M68.6,52.1H69c0.4,0.1,0.6,0.2,0.6,0.6l0.7-0.2
		c0.3,0,0.6,0.3,0.9,0.9v0.2l-0.3,0.7c0.4,0.1,0.7,0.2,0.7,0.6c0,0.2-0.1,0.3-0.3,0.3l0.3,0.6v0.3c0,0.4-0.2,0.7-0.7,0.7
		c-0.3,0-0.6-0.3-0.9-1c0.3,0,0.6-0.4,0.9-1.2c-1.2-0.3-1.9-0.9-2.1-1.6l0.3-0.6C68.8,52.5,68.6,52.4,68.6,52.1z M69.6,18.4
		c0.9,1.3,1.4,1.9,1.6,1.9v0.9c0,0.4-0.5,0.7-1.6,0.9v-0.7h0.7l-0.3-0.6l0.3-0.6c-0.5,0-0.9-0.4-1.2-1.2
		C69,18.6,69.2,18.4,69.6,18.4z M69,33.4c0.4,0.1,0.6,0.3,0.6,0.7V35c-0.4,0-0.6-0.2-0.6-0.7h0.3L69,33.7V33.4z M69,75.7
		c0.4,0.1,0.6,0.2,0.6,0.6v0.9c-0.4,0-0.6-0.2-0.6-0.6h0.3L69,76.1V75.7z M69.9,72.7c0.2,0,0.3,0.1,0.3,0.2l0.6-0.2h0.9v0.2
		c0,0.4-0.2,0.7-0.6,0.7l-0.7-0.3c-0.4,0.2-0.7,0.3-0.9,0.3l-0.2-0.7L69.9,72.7z M69.6,22.7l1.6,0.3v0.6h-0.3l-0.6-0.2
		c0,0.2-0.1,0.2-0.3,0.2L69.6,23V22.7z M69.6,24.6h0.7v0.9h-0.7V24.6z M69.9,65.9c0.2,0.4,0.3,0.7,0.3,0.9h0.2v-1.2L69.9,65.9z
		 M70.8,14.8l0.7,1.2h-0.3c-0.3,0-0.6-0.3-0.9-1L70.8,14.8z M70.8,57l0.7,1.2h-0.3c-0.3,0-0.6-0.3-0.9-0.9L70.8,57z M70.8,8.6h0.7
		v0.3c0,0.2-0.1,0.3-0.3,0.3l0.3,0.6v0.3h-0.7V8.6z M70.8,50.9h0.7v0.3c0,0.2-0.1,0.2-0.3,0.2l0.3,0.7v0.3h-0.7V50.9z"/>
	<path d="M78.3,66.9h-0.6V66h0.6V66.9z M78.6,56.3h-0.6V55h0.6V56.3z M82,49.3c-0.6,0.5-0.9,1.3-0.9,2.4c-0.8,0-1.6,0.6-2.5,1.8
		h-0.3c0-1.4,0.5-2.1,1.6-2.1c0.9-1.7,1.5-2.5,1.8-2.5H82V49.3z M80.4,47.7l-0.2,0.7L79.5,48c0.2-0.4,0.3-0.7,0.3-0.9h0.6V47.7z
		 M81.7,43.5c-0.4,0.4-0.6,1.1-0.6,2.1h-0.7V45c0-1,0.3-1.6,0.9-1.8h0.3V43.5z M82,41.3h-0.7l0.3-1.2h0.6L82,41.3z M82.3,46.5
		L82,47.1c-0.4,0-0.7-0.2-0.7-0.7v-0.6c0-0.3,0.2-0.5,0.7-0.6h0.2V46.5z M83.5,36.7c0,0.3-0.4,0.6-1.2,0.9H82
		c0.3-0.8,0.6-1.2,0.9-1.2h0.6V36.7z M83.2,71.8V72c-0.4-0.2-0.7-0.2-0.9-0.2v-0.9h0.7C82.9,71.1,83,71.4,83.2,71.8z M129.5,5.1
		c0.8,0,1.2,0.2,1.2,0.6h0.3l1.2-0.9v0.3c1.6,0.8,2.4,1.4,2.4,1.8c0.3,0,0.5-0.2,0.6-0.7V6h-0.6V5.4c1.8,0.3,2.7,0.8,2.7,1.6h0.3
		l0.6-0.3c0,0.2,0.1,0.3,0.3,0.3l-0.3,0.6c-0.3,0-1.1-0.2-2.4-0.6h-0.3v0.2c2,0.4,3.1,0.9,3.1,1.6c0.3,0,0.5-0.2,0.6-0.6h-0.6V7.8
		h1.2v0.6c0.2,0,0.2-0.1,0.2-0.2c0.4,0,0.7,0.4,0.7,1.2h0.9V9.1l-0.3-0.7h0.3c1.8,1.1,2.7,1.8,2.7,2.1h-1.2v0.6
		c0.4,0,0.9,0.3,1.6,0.9h0.2l-0.2-0.6v-0.6h0.2c0.7,1,1.4,1.5,2.1,1.5c2,2.4,3.1,3.6,3.4,3.6h0.3v-0.6c-0.6,0-1.7-1.4-3.4-4.3v-0.2
		c0.2,0,0.3,0.1,0.3,0.2l0.6-0.2l1.8,2.4c0.4,1.3,1.8,3.2,4,5.5v0.2l-0.2,0.7l-0.7-0.3h-0.3c1.7,3.7,3,6.1,4,7.3v-0.7l0.7,0.3
		l-0.3,1.5c0.6,1,0.9,1.8,0.9,2.1l0.7-0.2h0.2c0,0.4-0.1,0.8-0.2,1.2l0.9,1.6c-0.6,0-0.9,0.2-0.9,0.6v0.3c1.2,1.9,1.8,3.7,1.8,5.4
		h0.2V38l-0.9-4.3c0.2,0,0.3,0.1,0.3,0.3c0.2,0,0.3-0.1,0.3-0.3l0.6,0.3c0,0.2-0.1,0.5-0.3,0.9c1,1.8,1.6,3.2,1.6,4.3v0.6h0.6v0.3
		c0,0.4-0.2,0.6-0.6,0.6c-0.4,0-0.7-0.8-0.7-2.4h-0.2c0,0.8-0.2,1.2-0.7,1.2v0.2c0.8,0.7,1.2,1.8,1.2,3.4l0.7-0.3
		c0,0.4-0.2,1-0.7,1.8v0.7h0.3c0-0.8,0.3-1.2,0.9-1.2l0.3,0.6V45c-0.4,0-0.9,0.5-1.2,1.5v1h0.6V48l-0.6,0.9v0.6l0.6-0.2l0.7,0.2
		c0-0.8,0.2-1.2,0.6-1.2l-0.3,2.1l-0.6-0.2H163v0.2c0,0.4,0.2,0.7,0.7,0.7l-0.9,1.5v1.6h0.6v1.8c0.5,0,0.8,0.5,0.9,1.5
		c-0.3,1.2-0.6,2-0.9,2.5v0.3c0.6,0,0.9,0.2,0.9,0.6l-0.6,0.9c0,0.4,0.2,0.6,0.6,0.6l-1.2,2.8h-0.6v-0.7H162c0,0.2-0.1,0.5-0.3,0.9
		v0.3h0.3l0.7-0.3v0.3l0.6-0.3l0.6,0.3l-0.9,1.5h0.3c-0.6,1.8-1.2,2.8-1.8,2.8v0.2c0.8,0,1.2,0.2,1.2,0.7c0,0.4-0.2,0.6-0.7,0.6
		c0,0.2,0.1,0.3,0.3,0.3c-0.7,3.2-1.4,4.9-2.1,4.9c0,0.4,0.1,0.9,0.3,1.2c0,0.4-0.2,0.6-0.7,0.6c0,0.2,0.1,0.5,0.3,0.9
		c0,0.2-0.3,0.4-0.9,0.6l0.3,0.7v0.2c0,0.4-0.3,0.7-0.9,0.7c0.4,0.7,0.6,1.3,0.6,1.8v0.9c-0.4,0-0.9,0.1-1.2,0.3
		c0,0.2,0.1,0.5,0.3,0.9c-0.6,1.8-1.1,2.7-1.6,2.7c0,0.2,0.1,0.5,0.3,0.9c-0.7,1.7-1.3,2.5-1.8,2.5v0.6c0,1.5-0.3,2.3-0.9,2.4
		c-0.5,1.5-1,2.7-1.6,3.7l1,0.6h0.2c0-0.7,0.9-2.3,2.7-4.9c0-0.2-0.1-0.5-0.2-0.9l1.2-1.5c-0.2,0-0.2-0.1-0.2-0.3l1.8-2.7v-0.3
		l-0.6,0.3h-0.3l0.3-1.2h0.2l0.7,0.3c0-0.4,0.2-0.6,0.6-0.7h0.3v0.7l-1.8,3.3c-1.2,4.3-3.2,8.2-6.1,11.6v0.3l1.8-1.5
		c1.2-2.5,2.2-3.7,3.1-3.7c0-0.2-0.1-0.2-0.3-0.2c0.8-3.2,1.7-4.9,2.7-4.9l-0.6-0.9h0.6c1-2.5,1.6-3.7,1.8-3.7h0.3v0.3
		c0,1.1-0.4,1.8-1.2,2.1c0,0.4,0.1,0.9,0.3,1.2l-2.1,3.3c-0.8,2.4-1.4,3.6-1.8,3.6c0,1.3-1.5,3.1-4.5,5.5c-1,2.6-3.8,5.3-8.3,8.3
		h-0.9c1.2-1,1.8-1.6,1.8-1.9c2.6-1.4,4.4-3,5.5-4.9c-1.6,1.7-2.6,2.5-3.1,2.5l-5.5,4l-0.6-0.3c0.2-0.4,0.3-0.7,0.3-0.9
		c2.2-0.9,3.3-1.7,3.3-2.4c0.2,0,0.3,0.1,0.3,0.2c2.1-1.2,3.3-2.3,3.6-3.3V105h-0.3c-2.3,1.6-3.7,2.4-4.2,2.4
		c-0.7,1.3-2.3,2.2-4.6,2.8c0,0.2,0.1,0.2,0.3,0.2l-0.3,0.7l-1.5-0.7v0.3c-1.8,0.6-3.3,1.4-4.5,2.5h-1.6v0.6h-0.6v-0.6h-0.3
		c-1,0.8-1.8,1.2-2.4,1.2v-0.6c-1,0.8-1.7,1.2-1.9,1.2l-0.6-0.3c0,0.2-0.1,0.3-0.3,0.3c-0.4,0-0.6-0.3-0.6-0.9l-1.2,0.9h-1.5
		l0.3-0.7c-0.8,0-1.2-0.2-1.2-0.6h-0.7l-0.9,0.6l-0.6-0.2c0,0.6-0.2,0.9-0.6,0.9h-0.7l0.7-0.9v-0.3c-0.2,0-0.6,0.1-1,0.3
		c-0.2,0-0.2-0.2-0.2-0.7h-0.3l-1.2,0.9v-0.2c-1.6-0.9-2.4-1.5-2.4-1.8c-0.4,0-0.7,0.2-0.7,0.6v0.3h0.7v0.6c-0.8,0-1.8-0.5-3.1-1.5
		l-0.6,0.2c0-0.2-0.1-0.2-0.3-0.2l0.3-0.7c0.3,0,1.1,0.2,2.4,0.7h0.3V112c-2-0.4-3.1-0.9-3.1-1.6h-0.7v0.7h0.7v0.2h-1.2v-0.6
		c-0.2,0-0.3,0.1-0.3,0.3c-0.4,0-0.6-0.4-0.6-1.2h-0.9v0.3l0.3,0.6h-0.3l-2.7-1.8c0-0.2,0.1-0.3,0.2-0.3l-0.2-0.6l0.2-0.7
		c-0.2,0-0.2-0.1-0.2-0.2c-0.4,0-0.7,0.3-0.7,0.9h-0.6l0.3-0.7v-0.2c0-0.3-0.2-0.5-0.7-0.7c-0.6,0.3-0.9,0.6-0.9,0.9
		c-1-0.6-1.5-1.3-1.5-2.1h-0.7v0.6h-0.2c-0.9-1.2-1.7-1.8-2.1-1.8v0.3l1.8,2.7v0.2c-0.2,0-0.3-0.1-0.3-0.2l-0.6,0.2l-1.8-2.4
		c-0.4-1.3-1.8-3.1-4-5.4v-0.7h0.6v0.7h0.3c0-0.2,0.1-0.5,0.3-1c0-0.1-1.3-2.4-4-6.9v0.6l-0.7-0.3l0.3-1.5c-0.6-1-0.9-1.8-0.9-2.1
		L88,88.5h-0.2c0-0.5,0.1-0.9,0.2-1.2l-0.9-1.6c0.6,0,0.9-0.2,0.9-0.6v-0.3c-1.2-1.9-1.8-3.7-1.8-5.4H86v0.9l0.9,4.3
		c-0.2,0-0.3-0.1-0.3-0.3c-0.2,0-0.3,0.1-0.3,0.3l-0.6-0.3c0-0.2,0.1-0.5,0.3-0.9c-1-1.8-1.6-3.2-1.6-4.3v-0.6h-0.6v-0.3
		c0-0.3,0.2-0.5,0.6-0.6c0.4,0,0.7,0.8,0.7,2.4h0.2c0-0.8,0.2-1.2,0.7-1.2v-0.3c-0.8-0.7-1.2-1.8-1.2-3.4l-0.7,0.3
		c0-0.4,0.2-1,0.7-1.8v-0.7h-0.3c0,0.8-0.3,1.2-0.9,1.2l-0.3-0.6v-0.3c0.4,0,0.9-0.5,1.2-1.5v-0.9h-0.6v-0.7l0.6-0.9v-0.6l-0.6,0.3
		l-0.7-0.3c0,0.8-0.2,1.2-0.6,1.2l0.3-2.1l0.6,0.2h0.3v-0.2c0-0.3-0.2-0.5-0.7-0.7l0.9-1.5v-1.6h-0.6v-1.8c-0.5,0-0.8-0.5-0.9-1.5
		c0.3-1.2,0.6-2,0.9-2.5v-0.2c-0.6,0-0.9-0.2-0.9-0.7l0.6-0.9c0-0.3-0.2-0.5-0.6-0.6l1.2-2.7h0.6v0.6h0.3c0-0.2,0.1-0.5,0.3-0.9
		v-0.3h-0.3l-0.7,0.3v-0.3l-0.6,0.3l-0.6-0.3l0.9-1.5h-0.3c0.5-1.8,1.2-2.7,1.8-2.7V48c-0.8,0-1.2-0.2-1.2-0.6s0.2-0.6,0.7-0.7
		c0-0.2-0.1-0.3-0.3-0.3c0.7-3.2,1.4-4.9,2.1-4.9c0-0.4-0.1-0.8-0.3-1.2c0-0.4,0.2-0.6,0.7-0.7c0-0.2-0.1-0.5-0.3-0.9
		c0-0.2,0.3-0.4,0.9-0.6l-0.3-0.7v-0.2c0-0.4,0.3-0.7,0.9-0.7c-0.4-0.7-0.6-1.3-0.6-1.8V34c0.4,0,0.9-0.1,1.2-0.3
		c0-0.2-0.1-0.5-0.3-0.9c0.5-1.7,1.1-2.6,1.6-2.7c0-0.2-0.1-0.5-0.3-0.9c0.7-1.6,1.3-2.4,1.8-2.4v-0.7c1.2-4.1,3-7.6,5.4-10.6h-0.2
		c-1.2,0.8-1.8,1.4-1.8,1.8c-0.4,0.1-2,2.4-4.9,7c0,0.2,0.1,0.5,0.2,0.9L89,26.7c0.2,0,0.2,0.1,0.2,0.2l-1.8,2.8V30l0.6-0.2h0.3
		L88,30.9h-0.2l-0.7-0.2c0,0.4-0.2,0.6-0.6,0.6h-0.3v-0.6c0.6-0.8,1.5-2.8,2.8-6.1c1.3-4,3.3-7.2,6-9.5v-0.2c-0.2,0-0.9,0.5-2.1,1.5
		c-1.8,2.9-3,4.3-3.7,4.3c0,0.2,0.1,0.3,0.3,0.3c-0.8,3.2-1.7,4.9-2.7,4.9l0.6,0.9h-0.6c-1,2.4-1.6,3.6-1.8,3.6h-0.3V30
		c0-1.1,0.4-1.8,1.2-2.1c0-0.4-0.1-0.8-0.3-1.2l2.1-3.4c0.8-2.4,1.4-3.6,1.8-3.6c0-1.3,1.7-3.3,5.2-6.1c0.4,0,0.8,0.1,1.2,0.3
		l1.2-0.7c1-1.7,3.5-3.8,7.3-6.4h0.6v0.6c-0.8,0-1.3,0.4-1.5,1.2c-2.1,1.2-3.9,2.6-5.2,4.3h0.3c1.2-1.3,2-1.9,2.4-1.9l5.5-4l0.6,0.3
		c-0.2,0.4-0.3,0.7-0.3,0.9c-2.2,0.9-3.3,1.8-3.3,2.5c-0.2,0-0.3-0.1-0.3-0.3c-0.7,0-1.2,0.7-1.5,2.1h0.2c2.5-1.8,4.7-3,6.7-3.6
		c0-0.2-0.1-0.3-0.2-0.3l0.2-0.6l1.6,0.6V8.4c1.8-0.6,3.3-1.4,4.5-2.4h1.6V5.4h0.2c0.4,0,0.6,0.2,0.7,0.7c1-0.8,1.8-1.2,2.4-1.2v0.6
		c1-0.8,1.6-1.2,1.8-1.2l0.7,0.2c0-0.2,0.1-0.2,0.2-0.2c0.4,0,0.7,0.3,0.7,0.9l1.2-0.9h1.5l-0.3,0.6c0.8,0,1.2,0.2,1.2,0.6h0.6
		l1-0.6l0.6,0.3c0-0.6,0.2-0.9,0.6-0.9h0.7L129.5,5.1z M84.4,41c-0.8,0.5-1.2,1.1-1.2,1.8h-0.2c0-0.2-0.1-0.5-0.3-0.9
		c0.5-0.8,0.9-1.2,1.2-1.2h0.6V41z M83.8,80.9l-0.3,0.7l-0.6-0.3l0.2-0.6L83.8,80.9z M85.1,31.6l-0.7,0.9v0.6l0.3,0.6l-0.9,0.7
		l0.2,0.6c0,0.4-0.2,0.7-0.6,0.7l-0.3-2.1c0.7-1.4,1.2-2.1,1.6-2.1h0.3V31.6z M86.6,36.1l-2.7,2.7h-0.3c0.5-1.3,1.6-2.4,3.1-3.3
		V36.1z M84.4,82.8l-0.3,0.6c-0.4,0-0.6-0.2-0.6-0.6v-0.3h0.3L84.4,82.8z M84.1,55.9v0.9h0.7v-0.3C84.7,56.2,84.5,56,84.1,55.9z
		 M85.3,66c0,0.2-0.1,0.5-0.2,0.9c0.2,1.8,0.2,2.8,0.2,3.1h0.3c0-0.7,0.1-1.2,0.3-1.6h-0.3l0.3-1.5c-0.2-0.4-0.3-0.7-0.3-0.9H85.3z
		 M86.6,32.8v0.3c0,0.4-0.2,0.6-0.6,0.6h-0.7v-0.6l0.7-0.9C86.3,32.2,86.5,32.4,86.6,32.8z M85.3,46.5v1h0.3c0-0.7,0.2-1,0.6-1
		L86,45.9C85.5,45.9,85.3,46.1,85.3,46.5z M85.6,59.2v1.2H86v-1.2H85.6z M86.9,90.7v0.2h-0.3c-0.4,0-0.6-0.2-0.6-0.6V90h0.2
		C86.6,90,86.8,90.2,86.9,90.7z M86.9,71.1c0,0.8,0.1,1.5,0.2,2.1h0.7c-0.2-1.4-0.3-2.2-0.3-2.4L86.9,71.1z M87.5,73.9l0.3,0.6
		c0,0.4-0.2,0.6-0.7,0.6c0.2,1.1,0.3,2.1,0.3,3.1c0.2,0,0.3-0.1,0.3-0.2c0.4,0,0.6,0.3,0.6,0.9h0.3v-2.1L88,76.9h-0.2V76
		c0-0.5,0.2-1.2,0.6-1.8L88,73.6L87.5,73.9z M88.4,90.7h-0.6c0-0.4-0.2-0.9-0.7-1.6c0-0.3,0.2-0.5,0.7-0.6L88.4,90.7z M87.8,93.1
		v0.6h-0.7v-1.2C87.5,92.5,87.7,92.7,87.8,93.1z M88.7,79.4L88,79c0,0.2-0.2,0.3-0.6,0.3v1.2l1.8,4.5c0.2,1,0.7,2.4,1.6,4h0.2v-0.3
		c0-0.4-0.3-1.2-0.9-2.4c0.2-1.1,0.3-1.7,0.3-1.8c-0.6,0-1-0.4-1.2-1.2V83h0.7v0.7h0.2v-0.3c-0.2-0.3-0.2-0.8-0.2-1.5
		c-0.2,0-0.3,0.1-0.3,0.2c-0.6-0.2-0.9-0.8-0.9-1.8h0.6V79L88.7,79.4z M89.3,90.3v0.6c-0.3,0-0.6-0.4-0.9-1.2v-0.2H89
		C89,89.7,89.1,90,89.3,90.3z M90.2,93.4v0.2l-0.2,0.7c-0.3,0-0.7-0.8-1.2-2.5v-0.2C88.9,91.6,89.4,92.2,90.2,93.4z M89.9,88.8v0.3
		l1.8,4.5H92v-0.2c0-1.5-0.6-3-1.8-4.6H89.9z M90.2,67.8v1.2h0.7v-1.2H90.2z M90.2,71.8c0,0.4,0.2,0.6,0.7,0.6h0.2
		c-0.2-0.4-0.2-0.7-0.2-0.9L90.2,71.8z M91.7,77.2v0.9H92c0-0.2,0.1-0.5,0.3-0.9v-0.3L91.7,77.2z M96.3,101.9H96v0.6
		c0.3,0,0.9,0.3,1.9,0.9C97.1,102.4,96.6,101.9,96.3,101.9z M98.4,69.1v1.5l0.3,1.2c-0.3,0.4-0.6,0.6-0.9,0.6v0.9l0.6-0.3l0.6,0.3
		c0-0.4-0.1-0.9-0.2-1.2l0.2-0.6c-0.2-0.8-0.2-1.6-0.2-2.4H98.4z M98.1,58.3c0,0.4,0.2,0.7,0.7,0.7v-0.9L98.1,58.3z M98.8,74.5v0.6
		l0.2,1.8c-0.2,0.4-0.2,0.8-0.2,1c0.2,0.4,0.2,0.7,0.2,0.9h0.7v-1.9l0.2-0.6c-0.4,0-0.6-0.8-0.6-2.4C99,73.9,98.8,74.1,98.8,74.5z
		 M99.9,80.6c0,0.4,0.2,0.6,0.7,0.6c0,0.2-0.1,0.5-0.3,0.9v0.3h0.3l0.6-0.3l-0.6-1.8L99.9,80.6z M100.2,78.8V80h0.3v-1.2H100.2z
		 M101.5,108l-0.3,0.6c-0.6-0.3-0.9-0.6-0.9-0.9v-0.3h0.3L101.5,108z M100.6,60.8v0.3h0.2c0-0.3,0.2-0.7,0.7-1.2v-0.7
		C101.1,59.2,100.8,59.8,100.6,60.8z M100.6,73.3c0,0.1,0.1,0.5,0.2,1.2h0.3v-1.2H100.6z M100.8,57.2v1.5h0.7l-0.3-1.5H100.8z
		 M100.8,70v1.5h0.3V70H100.8z M100.8,78.5v0.3c0,0.4,0.2,0.6,0.7,0.6V79C101.5,78.7,101.3,78.5,100.8,78.5z M101.2,80.6
		c0.2,0.4,0.3,0.7,0.3,0.9h0.3v-1.2L101.2,80.6z M131.9,21.2c0,0.1,0.2,0.9,0.6,2.5c-0.8-0.7-1.2-1.4-1.2-2.1H131
		c-0.5,0.4-1,0.6-1.6,0.6v0.3l1.8,0.3v0.9c-0.2,0-0.5-0.1-0.9-0.3h-0.6c0.2,0.4,0.3,0.7,0.3,0.9h0.6l0.9-0.6c0,0.2-0.1,0.5-0.3,0.9
		l0.3,0.6v0.3H131v-0.7h-0.3v0.7h-0.6c0-0.6-0.4-1.1-1.2-1.6c0-0.2,0.1-0.2,0.3-0.2c0-0.2-0.1-0.3-0.3-0.3c0-0.2,0.1-0.5,0.3-0.9
		v-0.3l-0.7,0.3h-0.2l-1-0.6l-0.2,1.8h-0.7V23h-0.6v0.7c0.4,0,0.6,0.4,0.6,1.2h0.7l-0.3-0.6c0-0.3,0.2-0.5,0.6-0.6v0.9
		c0.4,0,0.7-0.3,0.7-0.9c0.4,0.2,0.7,0.2,0.9,0.2l-0.3,0.7l0.7,0.9h-0.3l-0.6-0.3c0,0.2-0.3,0.4-1,0.7l-1.5-0.7
		c0,0.2-0.1,0.3-0.3,0.3v-0.7h-0.6v1h-0.3c-0.8-0.5-1.2-0.9-1.2-1.2v-0.7h0.2l0.9,0.7c0-0.8,0.2-1.2,0.7-1.2v-0.6
		c0-0.4-0.2-0.6-0.7-0.7V23h-0.9l-0.6-0.2l-0.3,0.6c-0.2,0-0.3-0.1-0.3-0.3l-1.8,1.6l0.3,0.6c0,0.4-0.2,0.7-0.6,0.7l-0.7-0.3
		l-1.5,3.1c0.2,0,0.2,0.1,0.2,0.2v1c0,0.4-0.6,0.7-1.8,0.9c-0.4,0-0.6-0.2-0.6-0.7v-0.6l1.5-1.2v-0.6l-1.5,0.6
		c-0.5,1.2-0.9,1.8-1.2,1.8v0.7c0.2,0,0.3-0.1,0.3-0.3c1.2,0.4,1.8,0.8,1.8,1.2c0.3,0,0.5-0.2,0.6-0.7l0.7,0.3
		c0.3,0,0.5-0.2,0.6-0.6c1.4,0.2,2.1,0.5,2.1,0.9c0,0.4-0.3,0.6-0.9,0.6v0.3l0.3,0.6l0.6-0.3h0.3v0.3c-1.6,1.1-2.5,1.8-2.5,2.1h-0.6
		c0-0.2-0.1-0.5-0.3-0.9h0.3c0-1-0.3-1.7-0.9-1.8c-1.4,0.8-2.3,1.7-2.8,2.7v0.6l1.2-0.6l-0.2-0.6V34h0.6v0.7c0.2,0,0.3-0.1,0.3-0.3
		c0.2,0,0.6,0.8,1.2,2.4V37c-0.5,0-1.2,0.3-2.1,0.9c-0.7-0.7-1-1.3-1-1.8h-0.2v2.1l0.2,0.6l1-0.6v0.3l-0.7,0.9l-1.5-1.2H113
		c0,0.2-0.1,0.5-0.3,0.9h0.3l-0.3,1.5l0.3,1.2c-0.4,0-0.6,0.2-0.6,0.6l-1.2-0.6l-0.6,0.3c0,0.2,0.1,0.2,0.2,0.2l-0.2,1.6v0.6h0.6
		v0.7c-0.2,0-0.5-0.1-0.9-0.3c-0.4,0-0.7,0.2-0.7,0.6v0.9h0.3v-0.6h0.7v0.6l-0.7,1l0.3,0.6c-0.2,0-0.3,0.1-0.3,0.3
		c-0.4,0-0.6-0.2-0.6-0.7v-0.2l0.2-0.7h-0.9c0,0.8-0.2,1.2-0.6,1.2l1.2,1.5c-1,0-1.6,0.2-1.6,0.7h-0.6v-0.7h-0.3v0.3
		c0.4,0.7,0.7,1.2,0.7,1.6c0.8-0.5,1.2-0.9,1.2-1.2c0.4,0,0.6,0.2,0.7,0.6c0,0.4-0.2,0.7-0.7,0.7l-1.5,1.2v0.3
		c0,0.4,0.2,0.6,0.6,0.6c-0.4,0.5-0.6,0.9-0.6,1.2h-0.6c0-0.5-0.7-1-2.1-1.5v0.2l0.9,1.2c0.2,0,0.2-0.1,0.2-0.3
		c0.3,0,0.8,0.6,1.6,1.9l-0.6,0.9l0.6,0.9v0.2h-0.6l-1.9-0.9c0,0.4-0.2,0.7-0.6,0.7l0.3,2.1v0.6h-0.3l-0.6-0.3
		c0,0.2-0.1,0.5-0.3,0.9c0.3,0,0.5,0.2,0.6,0.7c0.8,0,1.2-0.5,1.2-1.6l0.9,0.7h0.3v-1.2c-0.6,0-0.9-0.2-0.9-0.7l0.2-0.6
		c0.8,0,1.6,0.7,2.5,2.1v0.6h-0.3l-0.6-0.2c0,0.4-0.3,0.6-0.9,0.6V62h0.6V63c0,0.1,0.2,0.9,0.7,2.4c0,0.2-0.1,0.5-0.3,0.9l0.3,0.7
		c-0.2,0.3-0.3,0.7-0.3,1.2h-0.6l-0.3-1.5l-0.7,0.3h-0.6v-0.7c0.8,0,1.2-0.2,1.2-0.6v-0.3c-0.7,0-1.2-0.1-1.6-0.2
		c-0.3,0.2-0.8,0.2-1.5,0.2V66l0.6,0.9v0.9h-0.6v0.6c0.2,0,0.5,0.1,0.9,0.3v-0.7h0.3l0.6,0.3c0-0.3,0.2-0.5,0.6-0.6v1.8l0.7-0.3h0.3
		c0,0.4,0.3,0.9,0.9,1.6c-0.6,0-1.2-0.2-1.9-0.7v0.3l-0.6-0.3c0-0.2,0.1-0.2,0.3-0.2c0-0.4-0.2-0.6-0.7-0.7c0,0.5-0.1,0.9-0.2,1.2
		c0.4,0.5,0.6,0.9,0.6,1.2h0.6v-0.7h0.3c1,0.6,1.5,1,1.6,1.2v0.3h-0.7c-0.4,0-0.6-0.2-0.6-0.7l-0.9,0.7c-0.3,0-0.8-0.6-1.6-1.8v-0.7
		l0.7-0.9v-0.2l-0.7,0.2l-0.6-0.2v1.2l0.3,0.7c-0.2,0-0.3,0.1-0.3,0.2l-0.6-0.2V72c0.6,0,0.9,0.1,0.9,0.3c0,0.3,0.5,0.7,1.5,1.2v0.6
		c-0.6-0.3-0.9-0.6-0.9-0.9c-0.2,0-0.3,0.1-0.3,0.3c-0.4,0-1-0.2-1.8-0.7c0,1.4-0.1,2.3-0.2,2.5h0.6c0-0.7,0.1-1.2,0.3-1.5
		c1,0.4,1.6,0.9,1.8,1.5v0.3c-1.4,0-2.1,0.7-2.1,2.1l1.2,0.9v-1.2l-0.3-0.7l0.6-0.2c1.9,0.8,2.8,2.1,2.8,4H106
		c-0.1-1.7-0.5-2.6-1.2-2.7l-0.6,0.2l0.3,0.7V79l-1.6,0.3v0.9c0.3,0,0.7,0.2,1.2,0.6v-1.5h0.6c0,0.6,0.3,0.9,0.9,0.9v0.9
		c-0.8,0.6-1.4,0.9-1.8,0.9v0.3h1.2c0.1,0,0.6-0.5,1.6-1.6h0.9c0.3,0,0.5,0.2,0.6,0.7h-0.9v0.9l0.9,1.2v0.2l-0.6,0.9h0.9
		c0.4,0,0.6-0.5,0.6-1.5h0.3c0.8,0.4,1.2,1.1,1.2,2.1h0.2c0-0.6,0.5-0.9,1.6-0.9c0,0.8,1.6,1.6,4.9,2.4l-0.3,0.7
		c0.5,0.8,1,1.8,1.2,3.1l-0.9,0.6c0-0.2-0.1-0.5-0.3-0.9c0.2,0,0.3-0.1,0.3-0.3c0-1.5-1.5-2.9-4.6-4v0.3l-2.1-0.7v1.6l0.9-0.6v0.9
		h0.6c0.3,0,0.5-0.2,0.6-0.7c0.4,0,0.7,0.3,0.7,0.9h0.2l0.7-0.2v0.6l-0.3,0.6l-1.5-0.6v0.3l-1.8-0.9c-0.4,0.2-0.8,0.2-1,0.2v0.3h1.2
		v0.6h-0.6v0.3h0.3c0.3-0.2,0.7-0.3,1.2-0.3v0.3l-0.2,0.6h0.2l-0.2,0.7l-0.9-0.7c-0.7,0.3-1,0.7-1,1c1.9,0.3,2.8,0.7,2.8,1.2
		c0.2,0,0.5-0.1,0.9-0.2c0.2,0,0.5,0.1,0.9,0.2l-0.3,0.7h1.6c0.3,0,0.5-0.2,0.6-0.7c0.2,0,0.3,0.1,0.3,0.3l0.9-0.6v0.2
		c0,0.4-0.2,0.7-0.7,0.7v0.2c1.1,0.4,2.2,1.3,3.4,2.5c0,0.2-0.1,0.3-0.3,0.3l0.3,0.6v0.3l-0.6-0.3h-0.3l0.3,0.6h-0.3l-1.6-0.2v1.2
		h0.3l1.8-0.9V97l0.7-0.3h0.2l0.9,0.7l0.3-1.8h0.6v0.6h0.7v-0.6c-0.4,0-0.7-0.4-0.7-1.2h-0.6v0.6c-0.2,0-0.3-0.1-0.3-0.3
		c-0.4,0-0.6,0.3-0.6,1c-0.4-0.2-0.7-0.3-0.9-0.3l0.3-0.7l-0.7-0.9h0.3l0.6,0.3c0-0.2,0.3-0.4,0.9-0.6l1.6,0.6l0.9-0.9
		c1,0.5,1.5,1.3,1.5,2.1h0.7l-0.3-0.7V94h0.3c1.2-2,1.9-3.1,2.1-3.1c0-0.2-0.1-0.5-0.3-0.9c1.1-1,1.7-1.8,1.8-2.4
		c0.6,0.3,0.9,0.6,0.9,0.9v0.2h-0.6v0.7c0.7-0.6,1.3-0.9,1.8-0.9l-0.3-1.6l-0.9,0.7c-0.4,0-0.6-0.4-0.6-1.2
		c-0.6,0.3-0.9,0.6-0.9,0.9l-0.7-0.3c-0.4,0-0.6,0.2-0.6,0.7c-1.4-0.2-2.1-0.5-2.1-0.9c0-0.4,0.3-0.7,0.9-0.7v-0.3l-0.3-0.6
		l-0.6,0.3h-0.3v-0.3c1.7-1.1,2.5-1.8,2.5-2.1h0.6c0,0.2,0.1,0.5,0.3,0.9h-0.3c0,1,0.3,1.7,0.9,1.8c1.4-0.8,2.3-1.7,2.8-2.7v-0.6
		L131,83l0.2,0.7v0.6h-0.6v-0.6c-0.2,0-0.3,0.1-0.3,0.2c-0.2,0-0.6-0.8-1.2-2.4v-0.3c0.5,0,1.2-0.3,2.1-0.9c0.7,0.7,1,1.3,1,1.8h0.2
		V80l-0.2-0.6l-1,0.6v-0.2l0.7-0.9l1.5,1.2h0.3c0-0.2,0.1-0.5,0.3-0.9h-0.3l0.3-1.5l-0.3-1.2c0.3,0,0.5-0.2,0.6-0.6l1.2,0.6l0.6-0.3
		c0-0.2-0.1-0.2-0.2-0.2l0.2-1.6v-0.6h-0.6v-0.7c0.2,0,0.5,0.1,0.9,0.3c0.3,0,0.5-0.2,0.7-0.6v-0.9h-0.3v0.6h-0.7v-0.6l0.7-0.9
		l-0.3-0.7c0.2,0,0.3-0.1,0.3-0.2c0.3,0,0.5,0.2,0.6,0.6v0.3l-0.2,0.6h0.9c0-0.8,0.2-1.2,0.6-1.2l-1.2-1.5c1,0,1.6-0.2,1.6-0.7h0.6
		v0.7h0.3v-0.3c-0.4-0.7-0.7-1.2-0.7-1.5c-0.8,0.5-1.2,0.9-1.2,1.2c-0.4,0-0.7-0.2-0.7-0.6c0-0.4,0.3-0.6,0.9-0.6
		c0.3-0.8,0.7-1.2,1.2-1.2v-0.3c0-0.3-0.2-0.5-0.6-0.6c0.4-0.5,0.6-0.9,0.6-1.2h0.6c0,0.5,0.7,1,2.1,1.6v-0.3l-0.9-1.2
		c-0.2,0-0.2,0.1-0.2,0.3c-0.3,0-0.8-0.6-1.6-1.8l0.6-0.9l-0.6-0.9v-0.3h0.6l1.9,0.9c0-0.4,0.2-0.6,0.6-0.6l-0.3-2.1v-0.7h0.3
		l0.6,0.3c0-0.2,0.1-0.5,0.3-0.9c-0.4,0-0.6-0.2-0.6-0.6c-0.8,0-1.2,0.5-1.2,1.5l-0.9-0.6h-0.3v1.2c0.6,0,0.9,0.2,0.9,0.7l-0.2,0.6
		c-0.8,0-1.7-0.7-2.5-2.1v-0.6h0.3l0.6,0.3c0-0.4,0.3-0.7,0.9-0.7v-0.2h-0.6v-1l-0.7-2.4c0-0.2,0.1-0.5,0.3-0.9l-0.3-0.6
		c0.2-0.4,0.3-0.8,0.3-1.2h0.6l0.3,1.5l0.7-0.2h0.6V52c-0.8,0-1.2,0.2-1.2,0.6v0.3c0.7,0,1.2,0.1,1.6,0.3c0.3-0.2,0.8-0.3,1.5-0.3
		v-0.6l-0.6-0.9v-1h0.6v-0.6c-0.2,0-0.5-0.1-0.9-0.3v0.7h-0.3l-0.6-0.3c0,0.4-0.2,0.6-0.6,0.6v-1.8l-0.7,0.3h-0.3
		c0-0.3-0.3-0.8-0.9-1.5c0.5,0,1.2,0.2,1.9,0.6v-0.3l0.6,0.3c0,0.2-0.1,0.3-0.3,0.3c0,0.4,0.2,0.6,0.7,0.6c0-0.4,0.1-0.9,0.2-1.2
		c-0.4-0.5-0.6-0.9-0.6-1.2h-0.6v0.7h-0.3c-1-0.5-1.5-1-1.6-1.2v-0.3h0.7c0.3,0,0.5,0.2,0.6,0.7l0.9-0.7c0.3,0,0.8,0.6,1.6,1.9V48
		l-0.7,0.9v0.3l0.7-0.3l0.6,0.3V48l-0.3-0.6c0.2,0,0.3-0.1,0.3-0.3l0.6,0.3v-1.2c-0.6,0-0.9-0.1-0.9-0.3c0-0.3-0.5-0.7-1.5-1.2v-0.6
		c0.6,0.3,0.9,0.6,0.9,0.9c0.2,0,0.3-0.1,0.3-0.3c0.4,0,1,0.2,1.8,0.7c0-1.4,0.1-2.3,0.2-2.5h-0.6c0,0.7-0.1,1.2-0.3,1.6
		c-1-0.4-1.7-1-1.8-1.6v-0.3c1.4,0,2.1-0.7,2.1-2.1l-1.2-0.9v1.2l0.3,0.7l-0.6,0.2c-1.9-0.8-2.8-2.1-2.8-4h0.7
		c0,1.4,0.4,2.4,1.2,2.8l0.6-0.3l-0.3-0.6v-0.3l1.6-0.3c0-0.1-0.2-1.2-0.7-3.3c0-0.4,0.2-0.6,0.7-0.7c0.5,0,0.9,1,1.2,3.1l0.7-0.3
		l-0.3-0.6v-0.6h0.7c0,0.7,0.1,1.2,0.2,1.5l0.7-0.3c0-0.3-0.2-0.5-0.7-0.6c0-0.2,0.1-0.5,0.3-0.9c-0.3-0.6-0.6-0.9-0.9-0.9l-0.7,0.3
		c0-1.1-0.1-2-0.2-2.8c0.2,0,0.2-0.1,0.2-0.2c-0.6-0.3-0.9-0.6-0.9-0.9c-0.3,0-0.6,0.4-0.9,1.2c0.2,0,0.4,0.3,0.7,0.9
		c-0.4,0.6-0.7,1.1-0.7,1.6l-1.2-0.9c0,0.2,0.1,0.5,0.2,0.9v0.3c-0.4,0-1.2,0.6-2.1,1.8h-0.9c-0.4,0-0.6-0.2-0.6-0.7h0.9v-0.9
		l-0.9-1.5l0.3-0.7c0.4,0,0.7,0.7,0.9,2.1h0.2c0-0.3,0.4-0.7,1.2-1.2v-0.3h-1.2c-0.6-1.2-1.1-1.8-1.5-1.8v0.2
		c-0.8-0.5-1.2-0.9-1.2-1.2v-0.7c0.3,0,0.5,0.2,0.7,0.7c2.2,0.8,3.3,1.6,3.3,2.4c0.4-0.2,0.7-0.3,0.9-0.3l-0.9-2.1
		c0.3,0,0.5-0.2,0.7-0.7l0.9,0.7l-0.3-1.2c-0.2,0-0.3,0.1-0.3,0.3c-0.4,0-0.6-0.3-0.6-0.9h-0.9v0.6h0.6v0.6h-0.6
		c-0.4,0-0.7-0.2-0.7-0.6V30l0.3-0.6c-0.2,0-0.3-0.1-0.3-0.3c0.4-0.8,0.8-1.2,1.2-1.2c0-0.3-0.2-0.5-0.6-0.6v0.6
		c-0.5,0-1.6-0.8-3.4-2.4h-0.6c0,0.2,0.4,1.1,1.2,2.7l-0.3,0.6c0.3,0.7,0.6,1,0.9,1c0-0.7,0.2-1,0.6-1h0.3v1h-0.6l0.6,0.9
		c0,0.4-0.2,0.6-0.6,0.6H138c0-0.2,0.1-0.5,0.2-0.9c-0.9-0.5-1.4-1-1.5-1.6l-0.7,0.3c-0.4,0-0.6-0.2-0.6-0.6v-0.3l0.6,0.3
		c0.4,0,0.6-0.2,0.7-0.7c0-0.3-0.2-0.5-0.7-0.6h-0.2l-0.7,0.3l-0.9-1.6h0.3l0.6,0.3c-0.4-1.3-0.6-2.1-0.6-2.5h-0.3
		c0,0.5-0.1,0.9-0.2,1.2l-0.7-0.3c0,0.7-0.2,1-0.6,1h-0.3c0-0.8-0.2-1.2-0.6-1.2v-0.7c0.6,0,0.9-0.2,0.9-0.6l0.6,0.3v-0.3
		c-0.6-0.6-0.9-1.3-0.9-2.1H131.9z M101.8,78.1v0.3c0.2,0.3,0.2,0.7,0.2,1.2h0.3V79c-0.2-0.4-0.3-0.7-0.3-0.9H101.8z M103,42.2
		c0,0.2-0.1,0.5-0.2,0.9v0.3h0.2c0-0.2,0.1-0.5,0.3-1v-0.2H103z M103.6,62.6v2.1h0.2v-1.2h0.3l0.6,0.3c0,0.4,0.7,0.9,2.1,1.5
		l-0.2-1.2c-1-0.4-1.6-0.9-1.6-1.5H103.6z M104.2,40.7V41h0.6v-0.9C104.4,40.1,104.2,40.3,104.2,40.7z M107.8,74.5
		c0,0.4-0.2,0.6-0.6,0.6h-0.6v-0.6H106c0,0.4-0.2,1-0.6,1.8c-0.4,0-0.7-0.2-0.7-0.6l0.3-0.7c-0.2,0-0.3-0.1-0.3-0.2v-0.3
		c0.6,0,0.9-0.4,0.9-1.2h0.3C106,74,106.6,74.4,107.8,74.5z M105.7,55.3h-0.2c0,0.2-0.1,0.6-0.3,1v0.6c0.5-0.4,1-0.6,1.6-0.6
		C106.4,55.6,106,55.3,105.7,55.3z M105.4,108h-0.3v0.6h0.9C106,108.3,105.8,108.1,105.4,108z M105.7,6.9h-0.2V6.6
		c0-0.3,0.2-0.5,0.6-0.6h0.7C106.4,6.6,106,6.9,105.7,6.9z M105.4,83.3v0.3h1.2v-0.3H105.4z M105.7,52v0.3c0,0.4,0.2,0.6,0.7,0.6
		h0.6V52H105.7z M106.9,76.9h-1.2l0.3-1.8C106.5,75.1,106.8,75.7,106.9,76.9z M109.7,4.8v0.6c-0.3,0-1.2,0.2-2.7,0.7
		c0-0.1,0.5-0.6,1.6-1.6C109.2,4.7,109.6,4.8,109.7,4.8z M108.5,7.5h-0.3l-0.6-0.3c0-0.3,0.2-0.5,0.6-0.6h0.3V7.5z M107.8,107.7
		h-0.2c0,0.4,1.7,1.5,5.1,3.4c0.4,0,0.6-0.2,0.7-0.7v-0.9c-0.2,0-0.5,0.1-0.9,0.3c-1.4-0.5-2.1-0.9-2.1-1.2h-0.9L107.8,107.7z
		 M110,78.8l-0.3,0.6c-1.2,0-1.8-0.7-1.8-2.1v-0.3C108.6,78.1,109.3,78.7,110,78.8z M108.2,44.1v1.2l0.6-0.3v-1.2L108.2,44.1z
		 M109.4,85.5h-0.9v0.2c0.7,0,1.2,0.1,1.5,0.3h0.3v-0.3C110.1,85.7,109.8,85.6,109.4,85.5z M109.7,81.8h-0.9v-1.6h0.7L109.7,81.8z
		 M109.1,42.8v0.3c0.5-0.8,1-1.2,1.2-1.2v-1.2C110,40.7,109.6,41.4,109.1,42.8z M110.9,4.2c0,0.4-0.2,0.6-0.6,0.6H110V4.5
		c0-0.3,0.2-0.5,0.7-0.6h0.2V4.2z M110.6,39.2l-0.7,0.3c0.3,0.8,0.6,1.2,0.9,1.2h0.3l-0.3-1.5H110.6z M111.2,56.5v0.3
		c-0.2,0-0.5,0.1-0.9,0.3c0-0.2-0.1-0.3-0.3-0.3l0.7-0.9C111,55.9,111.2,56.1,111.2,56.5z M110.9,59.9h-0.2c-0.4,0-0.7-0.2-0.7-0.7
		v-0.6h0.7C110.6,59.1,110.7,59.5,110.9,59.9z M111.6,5.4c-0.3,0.6-0.6,0.9-0.9,0.9h-0.3c0.5-0.8,0.9-1.2,1.2-1.2V5.4z M110.9,35.8
		v0.9h0.3c0.3,0,0.5-0.2,0.6-0.6v-0.3H110.9z M112.1,43.2c0,0.4-0.2,0.6-0.6,0.6c-0.4,0-0.7-0.2-0.7-0.6c0.2,0,0.5-0.1,0.9-0.3
		C111.8,43,111.9,43.2,112.1,43.2z M111.8,54.7h-0.6v-0.3c0-0.3,0.2-0.5,0.6-0.6V54.7z M112.1,82.4l-0.3,0.6l-0.6-0.2l0.3-0.7
		L112.1,82.4z M111.6,37.6v1.6h0.2c0-0.2,0.1-0.5,0.3-0.9c-0.2,0-0.3-0.2-0.3-0.7H111.6z M112.7,48.9l0.3,0.6
		c-0.4,0.5-0.6,0.9-0.6,1.2h-0.9v-0.3c0-0.3,0.2-0.5,0.6-0.6l-0.3-1.5V48h1.2C113,48.2,112.9,48.5,112.7,48.9z M113.4,5.1
		c0,0.4-0.2,0.6-0.7,0.6V4.5h0.7V5.1z M114.5,32.5c0,0.6-0.6,1.2-1.8,1.8v1.2h0.3c0-0.7,0.6-1.4,1.8-2.1v-0.9H114.5z M113.9,45.5
		h-0.3l-0.6-0.2c0.2-0.4,0.3-0.7,0.3-0.9h0.6V45.5z M114.3,94.3h-0.9v0.2c0.2,0,0.5,0.1,0.9,0.3h0.6
		C114.9,94.6,114.7,94.4,114.3,94.3z M115.8,2.3l-1.5,1.2c-0.4,0-0.7-0.2-0.7-0.6c0.3,0,0.9-0.3,1.9-0.9
		C115.5,2.2,115.6,2.3,115.8,2.3z M113.6,109.8l0.7,1.2c0.5,0,1.3-0.1,2.4-0.3l1.6,0.9v-0.3c0-0.2-0.6-0.6-1.8-1.2l-0.9,0.6h-0.7
		v-0.9H113.6z M115.5,41.6c-0.8-0.3-1.2-0.6-1.2-0.9h1.2V41.6z M115.5,47.1v0.3l-0.7,0.9l-0.6-0.3c0-0.4,0.2-0.9,0.6-1.6
		C115.2,46.5,115.4,46.7,115.5,47.1z M115.8,3.9h-0.6c0-0.3,0.2-0.5,0.6-0.7h0.7C116.4,3.7,116.2,3.9,115.8,3.9z M115.2,100.7v0.7
		h1.2v-0.7H115.2z M115.8,35.6l-0.2,1.5h0.2l0.7-0.3c-0.2-0.7-0.3-1.1-0.3-1.2H115.8z M116.4,97c0,0.6-0.3,0.9-0.9,0.9v0.3h1.8
		C117,97.4,116.7,97,116.4,97z M116.7,95.2c-0.3,0-0.6,0.4-0.9,1.2c0.2,0,0.5,0.1,0.9,0.2c0-0.2-0.1-0.5-0.2-0.9
		c0-0.2,0.2-0.2,0.6-0.2v-0.3H116.7z M117.3,1.7L117,2.3l-0.6-0.2l0.2-0.7L117.3,1.7z M116.4,27v0.3h1.2v-0.6L116.4,27z M118.2,35.6
		c0,0.4-0.2,0.6-0.7,0.6h-0.2v-0.3c0-0.3,0.2-0.5,0.6-0.6h0.3V35.6z M120.4,1.2H120c-1,1.4-1.8,2.1-2.1,2.1h-0.3l0.3-0.6
		c0.4,0,1-0.7,1.8-2.1h0.7V1.2z M118.2,32.2l0.2,1.5h0.3v-0.2l-0.3-0.7l0.3-0.6v-0.3L118.2,32.2z M118.2,94.9v0.9h0.9
		c-0.2-0.4-0.3-0.7-0.3-0.9H118.2z M119.7,40.1c0,0.4-0.2,0.6-0.6,0.6h-0.3v-0.2l0.3-0.7L119.7,40.1z M120,112.5l-0.6-0.2l-0.3,0.6
		h2.1l-0.3-0.6C120.7,112.3,120.4,112.4,120,112.5z M121,28.8v0.7c-0.2,0-0.5,0.1-0.9,0.3h-0.3v-0.7l0.3-0.6
		C120.4,28.7,120.7,28.8,121,28.8z M121.5,27.6H121V27c0.3-0.6,0.6-0.9,0.9-0.9h0.3C121.8,26.7,121.5,27.3,121.5,27.6z M123.1,25.2
		h-0.3l-0.6-0.3c0,0.2-0.1,0.3-0.3,0.3h-0.3c0.4-0.7,0.7-1.2,0.7-1.5h0.6L123.1,25.2z M122.4,20v0.3c0.2,0,0.5,0.1,1,0.3V20H122.4z
		 M124.6,19.7c-0.6,0-0.9,0.2-0.9,0.6l1.2-0.3v-0.2H124.6z M124.3,94.6c0,0.8-0.2,1.2-0.7,1.2v0.7c0,0.4,0.2,0.6,0.7,0.6
		c0-0.8,0.4-1.2,1.2-1.2C125,95,124.6,94.6,124.3,94.6z M124.9,98.8c-0.4,0.2-0.7,0.3-0.9,0.3v0.3h0.3c0.4-0.2,0.7-0.3,0.9-0.3v-0.3
		H124.9z M124.9,92.2h-0.3l0.3-0.6l-0.3-0.7l0.7-0.2h0.6C125.7,91.7,125.4,92.2,124.9,92.2z M125.5,98.5v0.7h0.9v-0.3
		C126.2,98.8,125.9,98.7,125.5,98.5z M127.3,93.6c0,0.6-0.2,1.1-0.6,1.6v0.6c0.6-0.3,0.9-0.6,0.9-0.9c0.4,0,0.7,0.3,0.7,0.9h0.2
		v-0.9H128c0-0.2,0.1-0.3,0.3-0.3C128,93.9,127.6,93.6,127.3,93.6z M128,77.9l-0.3,0.6l-0.6-0.3c0-0.3,0.2-0.5,0.6-0.6h0.3V77.9z
		 M128.9,6c0,0.2-0.4,0.2-1.2,0.2l0.3,0.7c0.2,0,0.5-0.1,0.9-0.3l0.6,0.3l0.3-0.7C129.6,6.3,129.3,6.2,128.9,6z M128,84.6v0.2
		l0.3,0.7l-0.3,0.6v0.3l0.6-0.3l-0.2-1.5H128z M129.2,90v1.6c-0.8,0.9-1.2,1.5-1.2,1.8v0.2l0.6-0.2l0.7,0.2c0.2-0.7,0.5-1.6,1.2-2.7
		v-1.2L129.2,90z M129.5,82.4c0,0.4-0.2,0.6-0.6,0.6h-0.3v-0.2c0-0.4,0.2-0.6,0.7-0.7h0.2V82.4z M129.2,118.6h-0.7v-0.6h0.3
		c1-1.4,1.8-2.1,2.1-2.1h0.2C130.6,116.6,129.9,117.5,129.2,118.6z M131,81.2l-0.7,0.3l0.3,1.2h0.3l0.2-1.6H131z M130.7,7.5v0.3
		c0,0.3,0.6,0.7,1.8,1.2l0.9-0.7h0.7v0.9h0.6c0-0.2,0.1-0.5,0.3-0.9c-0.2,0-0.3-0.1-0.3-0.2c-0.5,0-1.3,0.1-2.4,0.2L130.7,7.5z
		 M132.5,70.2c0,0.4-0.2,0.9-0.6,1.6c-0.4,0-0.7-0.2-0.7-0.7v-0.2l0.7-0.9L132.5,70.2z M132.5,77.6h-1.2v-0.9
		C132.1,76.9,132.5,77.2,132.5,77.6z M132.5,117.2l-0.2,0.6l-0.7-0.3l0.3-0.6L132.5,117.2z M134.1,82.1c0,0.8-0.7,1.7-2.1,2.7v0.9
		h0.3c0-0.5,0.6-1.2,1.8-1.8V83l0.2-0.6v-0.3H134.1z M133.2,115.9h-0.7c0-0.3,0.2-0.5,0.7-0.7h0.6
		C133.7,115.7,133.6,115.9,133.2,115.9z M133.7,72.9c-0.2,0.4-0.3,0.8-0.3,1h-0.6v-1.2h0.3L133.7,72.9z M135.2,116.2
		c-0.3,0-0.9,0.3-1.8,1c0-0.2-0.1-0.3-0.2-0.3l1.5-1.2C135,115.6,135.2,115.8,135.2,116.2z M133.7,30.9h-0.3v-0.6
		c0.2,0,0.5-0.1,0.9-0.3h0.3C134.3,30.6,134,30.9,133.7,30.9z M134.7,18.2h-0.9v0.9c0.3-0.2,0.8-0.2,1.5-0.2
		C135.2,18.4,135,18.2,134.7,18.2z M133.7,22.4v0.9h0.6c-0.2-0.4-0.2-0.7-0.2-0.9H133.7z M135.2,67.8c0,0.4-0.2,0.6-0.6,0.6L135,70
		v0.2h-1.2c0-0.2,0.1-0.5,0.3-0.9l-0.3-0.6c0.4-0.5,0.6-0.9,0.6-1.2h0.9V67.8z M134.3,21.5v0.6l2.1,0.7c0.3,0,0.5-0.2,0.7-0.7
		c-0.2,0-0.5-0.1-1-0.2l-1.2,0.2v-0.6H134.3z M136.1,23.9c0-0.6-0.5-0.9-1.5-0.9v0.3c0,0.4,0.8,0.9,2.5,1.2c0-0.2,0.1-0.5,0.2-0.9
		V23L136.1,23.9z M135.6,32.8c-0.4-0.2-0.7-0.2-0.9-0.2v-0.3h0.9V32.8z M135.6,35.6l-0.3,0.6l-0.6-0.3l0.3-0.6L135.6,35.6z
		 M135.9,75.1c-0.2,0-0.5,0.1-0.9,0.3c0-0.2-0.1-0.3-0.3-0.3c0-0.3,0.2-0.5,0.6-0.6C135.6,74.5,135.8,74.7,135.9,75.1z M135,79
		c0,0.2-0.1,0.5-0.3,0.9c0.2,0,0.3,0.2,0.3,0.7h0.2V79H135z M135.6,63.9c0,0.4-0.2,0.6-0.6,0.6v-0.9h0.6V63.9z M135.6,81.5
		c-0.4,0-0.6,0.2-0.6,0.6v0.3h0.9v-0.9H135.6z M135.2,8.4c0.2,0.4,0.3,0.7,0.3,0.9h0.9c0.7,0.6,1.4,1,2.1,1.2h0.9l0.6,0.3
		c0-0.2-0.3-0.5-0.9-0.9c-1.8-1-2.7-1.6-2.7-1.8L135.2,8.4z M136.8,61.4l-0.7,0.9c-0.4,0-0.6-0.2-0.6-0.6v-0.3
		c0.2,0,0.5-0.1,0.9-0.2C136.5,61.3,136.6,61.4,136.8,61.4z M135.9,77.6h-0.3l0.3,1.5h0.2l0.7-0.2C136.5,78,136.2,77.6,135.9,77.6z
		 M136.1,114.7h-0.6v-0.6c0-0.4,0.2-0.6,0.6-0.7V114.7z M135.9,24.8v0.3c0,0.4,0.2,0.7,0.6,0.7v-1H135.9z M136.8,59v0.6h-0.7
		c0-0.4-0.1-0.9-0.2-1.2h0.2C136.5,58.3,136.7,58.6,136.8,59z M137.4,33.7v0.7h-0.2c-0.4,0-0.7-0.2-0.7-0.7v-0.2
		C136.9,33.6,137.2,33.7,137.4,33.7z M136.5,76.3v1.2c0.3,0,0.7-0.7,1.2-2.1v-0.3C137.2,75.9,136.7,76.3,136.5,76.3z M138.9,41v0.3
		c-0.8-1.2-1.5-1.8-2.1-1.8l0.3-0.7C138.3,38.9,138.9,39.6,138.9,41z M138,38h-0.7l-0.2-1.5h0.9V38z M137.4,114.1v-0.3
		c0.3-0.6,0.6-0.9,0.9-0.9h0.3C138.1,113.7,137.7,114.1,137.4,114.1z M138,20.6v1.5l0.6-0.2l-0.3-1.2H138z M138,24.6v0.9h0.6
		c-0.2-0.4-0.3-0.7-0.3-0.9H138z M138,73.3v1.2l0.6-0.3v-1.2L138,73.3z M138.9,114.7c0,0.4-0.2,0.6-0.7,0.6H138V115
		c0-0.4,0.2-0.6,0.6-0.7h0.3V114.7z M142,42.5l-0.3,0.7c0.2,0,0.3,0.1,0.3,0.3v0.2c-0.6,0-0.9,0.4-0.9,1.2h-0.3
		c0-0.7-0.6-1.1-1.8-1.2c0-0.3,0.2-0.5,0.6-0.6h0.6v0.6h0.7c0-0.4,0.2-1,0.6-1.8C141.7,41.9,141.9,42.1,142,42.5z M143.5,112.5
		c-2,1.2-3.1,1.9-3.1,2.1l-1.2-0.3v-0.6c1.1,0,2.4-0.5,4-1.5h0.3V112.5z M139.5,24.6v1.2h0.6c-0.2-0.4-0.2-0.8-0.2-1.2H139.5z
		 M140.8,43.2c-0.6-0.2-0.9-0.8-0.9-1.8h1.2L140.8,43.2z M142,54.4c0-0.4-0.7-0.9-2.1-1.5c0,0.2,0.1,0.5,0.2,0.9l1.6,1.8h1.5v-2.1
		h-0.2v1.2h-0.3L142,54.4z M140.4,65.3h-0.6v0.9h1.2V66C141.1,65.6,140.9,65.4,140.4,65.3z M140.1,62c0.3,0.6,0.7,0.9,1,0.9h0.2
		c0-0.2,0.1-0.5,0.3-0.9v-0.7C141.2,61.8,140.6,62,140.1,62z M141.3,112c0,0.4-0.2,0.6-0.6,0.6h-0.3v-0.9h0.3L141.3,112z
		 M142.6,37.4v1.5H142c0-0.6-0.3-0.9-0.9-0.9V37c0.2,0,0.5-0.1,0.9-0.3C142.3,36.7,142.5,36.9,142.6,37.4z M142,10.9
		c0.4,0.5,0.6,0.9,0.6,1.2h0.3v-0.2c-0.2-0.4-0.3-0.7-0.3-0.9H142z M142,77.2v0.9c0.3,0,0.5-0.2,0.6-0.6v-0.3H142z M143.2,29.5
		c0,0.2,0.1,0.3,0.3,0.3c0,0.2-0.1,0.5-0.3,0.9v0.2h0.3v-0.2h1.2C144.6,30.3,144.1,29.8,143.2,29.5z M143.5,11.8v0.6
		c0.2,0,0.5,0.1,0.9,0.3C144.1,12.1,143.8,11.8,143.5,11.8z M143.8,74.8c0,0.2-0.1,0.5-0.3,0.9V76h0.3c0-0.2,0.1-0.5,0.2-0.9v-0.2
		H143.8z M144.4,38.6v0.6c0.2,0.4,0.3,0.7,0.3,0.9h0.2v-0.3c-0.2-0.3-0.2-0.7-0.2-1.2H144.4z M146.5,10.6v0.3h-0.3l-0.9-0.7l0.3-0.6
		C146.2,10,146.5,10.3,146.5,10.6z M145.3,38.9v0.3c0,0.4,0.2,0.6,0.7,0.6v-0.2C146,39.1,145.7,38.9,145.3,38.9z M146,57.2
		c0,0.3-0.2,0.7-0.7,1.2V59c0.4,0,0.7-0.5,0.9-1.6v-0.2H146z M145.3,59.6l0.3,1.6h0.3v-1.6H145.3z M145.6,32.2v0.3
		c0,0.6,0.2,0.9,0.6,0.9l-0.2-1.2H145.6z M145.6,43.7V45h0.6l-0.2-1.2H145.6z M145.6,46.8v1.6h0.3v-1.6H145.6z M146,13v0.2
		c0.3,0,0.7,0.2,1.2,0.7l-0.2-1.2C146.4,12.9,146.1,13,146,13z M146.2,38.3v1.2h0.3v-1.2H146.2z M147.1,39.5v1.8l-0.2,0.6
		c0.4,0,0.6,0.8,0.6,2.5c0.3,0,0.5-0.2,0.6-0.7v-0.6l-0.2-1.8c0.2-0.4,0.2-0.7,0.2-0.9c-0.2-0.4-0.2-0.7-0.2-0.9H147.1z M148.4,45.3
		l-0.6-0.3c0,0.4,0.1,0.9,0.2,1.2l-0.2,0.6c0.2,0.8,0.2,1.6,0.2,2.5h0.3v-1.6l-0.3-1.2c0.3-0.4,0.6-0.6,0.9-0.6V45L148.4,45.3z
		 M148,59.2v1l0.7-0.3C148.7,59.6,148.5,59.4,148,59.2z M148.9,95.2c-0.4,0-0.6,0.2-0.6,0.6v0.3c0.6-0.3,0.9-0.6,0.9-0.9H148.9z
		 M151.1,23.9h-0.2l0.6,1.2l0.6-0.3C151.7,24.2,151.4,23.9,151.1,23.9z M151.1,20.6V21c0.3,0.6,0.6,0.9,0.9,0.9v-0.3
		C151.7,20.9,151.4,20.6,151.1,20.6z M151.7,33.4v0.2h0.9v-0.2l-0.3-0.7C151.9,32.8,151.7,33,151.7,33.4z M153.9,23v0.3
		c0,0.6,0.2,0.9,0.6,0.9l-0.3-1.2H153.9z M154.5,24.6v0.6c0.7,2,1.4,3.5,2.1,4.3h0.2v-0.3l-1.8-4.5H154.5z M154.8,40.1
		c0,0.2-0.1,0.5-0.3,0.9v0.3L155,41v-0.9H154.8z M155.7,29.1v0.3c0,0.5,0.3,1.3,0.9,2.4c-0.2,1.1-0.3,1.7-0.3,1.8
		c0.6,0,1,0.4,1.2,1.2v0.3h-0.7v-0.6h-0.2v0.2c0.2,0.3,0.2,0.9,0.2,1.6c0.2,0,0.3-0.1,0.3-0.3c0.5,0,0.8,0.6,0.9,1.8h-0.6v1.2
		l0.6-0.3l0.7,0.3c0-0.2,0.2-0.3,0.6-0.3v-1.2l-1.8-4.5c-0.2-1-0.7-2.4-1.6-4H155.7z M155.9,45.9h-0.2c0.2,0.4,0.2,0.7,0.2,0.9
		l0.7-0.3C156.6,46.1,156.4,45.9,155.9,45.9z M155.9,49.3v1.2h0.7v-1.2H155.9z M158.1,26.4v0.3c-0.2,0-0.7-0.6-1.5-1.9v-0.2l0.2-0.7
		C157.2,23.9,157.6,24.8,158.1,26.4z M158.4,28.5v0.2h-0.7c0-0.2-0.1-0.5-0.2-0.9v-0.6C157.8,27.3,158.1,27.7,158.4,28.5z
		 M158.1,39.5v2.1l0.7-0.2h0.2v0.9c0,0.6-0.2,1.2-0.6,1.8l0.3,0.6l0.6-0.2l-0.3-0.7c0-0.3,0.2-0.5,0.7-0.6c-0.2-1-0.3-2.1-0.3-3.1
		c-0.2,0-0.3,0.1-0.3,0.3c-0.4,0-0.6-0.3-0.6-0.9H158.1z M159.7,29.1c0,0.4-0.2,0.7-0.7,0.7c0-0.2-0.2-0.9-0.6-2.1h0.6
		C159,28,159.2,28.5,159.7,29.1z M159.7,25.8c-0.4,0-0.7-0.2-0.7-0.7v-0.6h0.7V25.8z M159,45c0,0.2,0.1,1,0.3,2.5l0.6-0.3
		c0-0.8-0.1-1.5-0.2-2.1H159z M160.8,27.9v0.3h-0.2c-0.4,0-0.7-0.2-0.7-0.6v-0.3h0.3C160.6,27.3,160.8,27.5,160.8,27.9z M160.2,82.8
		v-0.7l2.7-2.7h0.3C162.7,80.7,161.7,81.9,160.2,82.8z M161.5,85.1l-0.7,0.9c-0.4,0-0.6-0.2-0.6-0.6v-0.3c0-0.3,0.2-0.5,0.6-0.6h0.7
		V85.1z M161.1,70.9c0,0.6-0.2,0.9-0.6,0.9l0.2,0.6c0.4,0,0.6-0.2,0.7-0.6v-0.9H161.1z M161.1,48.3c0,0.7-0.1,1.2-0.3,1.5h0.3
		l-0.3,1.6c0.2,0.4,0.3,0.7,0.3,0.9h0.3c0-0.2,0.1-0.5,0.2-0.9c0-0.3-0.1-1.3-0.2-3.1H161.1z M160.8,57.8V59h0.3v-1.2H160.8z
		 M163.6,84.8c-0.7,1.4-1.2,2.1-1.6,2.1h-0.3v-0.2l0.7-1v-0.6l-0.3-0.6l0.9-0.7l-0.2-0.6c0-0.3,0.2-0.5,0.6-0.6L163.6,84.8z
		 M162,61.4v0.3c0,0.4,0.2,0.6,0.7,0.6v-0.9H162z M163.3,35.6v0.2H163l-0.6-0.2l0.3-0.7C163,34.9,163.2,35.1,163.3,35.6z
		 M164.2,76.3c-0.5,0.8-0.9,1.2-1.2,1.2h-0.6v-0.3c0.8-0.4,1.2-1,1.2-1.8h0.2C163.9,75.6,164,75.9,164.2,76.3z M163.9,37l-0.2,0.6
		l-0.7-0.2l0.3-0.7L163.9,37z M163.9,81.8h-0.6v-0.3c0-0.3,0.4-0.6,1.2-0.9h0.2C164.5,81.4,164.2,81.8,163.9,81.8z M164.5,46.5v1
		h-0.7c0-0.2-0.1-0.5-0.2-1v-0.2C164,46.4,164.3,46.5,164.5,46.5z M165.4,71.8v0.6c0,0.4-0.2,0.6-0.7,0.6h-0.2v-1.2l0.2-0.7
		C165.2,71.1,165.4,71.3,165.4,71.8z M165.1,78.1h-0.6l0.2-1.2h0.7L165.1,78.1z M166.9,66.9c-0.9,1.6-1.5,2.4-1.8,2.4h-0.3v-0.2
		c0.6-0.5,0.9-1.4,0.9-2.5c0.8,0,1.6-0.6,2.5-1.8h0.3C168.5,66.2,168,66.9,166.9,66.9z M166.3,73.3c0,1-0.3,1.6-0.9,1.8h-0.3v-0.2
		c0.4-0.5,0.6-1.2,0.6-2.1h0.7V73.3z M167.2,70.2c-0.2,0.4-0.3,0.7-0.3,0.9h-0.6v-0.6l0.2-0.6L167.2,70.2z M168.7,63.2h-0.6V62h0.6
		V63.2z M169.1,52.3h-0.6v-0.9h0.6V52.3z"/>
	<path d="M238.3,119.4H238c-0.2,0-0.8-1-1.8-3v-0.7c0-0.2,0.1-0.2,0.3-0.2c-0.3-2.4-0.7-3.7-1.2-4l-0.6,0.3h-4.8
		c0-0.4,0.2-0.6,0.6-0.6h3.9c-0.1-0.4-0.2-0.7-0.6-0.7c-1.7,0.2-3.1,0.3-4.2,0.3H229v-0.6h0.6c0.2,0,0.3,0.1,0.3,0.2
		c0.4-0.1,1.5-0.3,3.3-0.6v0.3l0.6-0.3h2.1v-0.9h-1.2c-1,0-2.5,0.1-4.5,0.3v-0.6h1.2l1.5-0.3v0.3l2.4-0.7c0,0.2,0.1,0.3,0.3,0.3
		l0.3-0.6v-0.7c-0.6,0.2-0.9,0.4-0.9,0.7c-0.2,0-0.5-0.1-0.9-0.3l-10.2,0.9v-0.3l-0.6,0.3c-0.2,0-0.3-0.1-0.3-0.3l-0.6,0.3h-0.7
		c-0.2,0-0.2-0.1-0.2-0.3l-0.6,0.3h-1.8v0.6h-0.9l-8.4-0.9c-0.2,0-0.3,0.1-0.3,0.3l-4.2-0.6c-0.4,0.2-0.7,0.2-0.9,0.2l-0.6-0.2
		c-0.2,0-0.3,0.1-0.3,0.2c-1.6-0.1-2.4-0.3-2.4-0.6l-0.6,0.3h-0.6c-0.2,0-0.3-0.1-0.3-0.3c-0.2,0-0.3,0.1-0.3,0.3l-1.5-0.3
		c-0.4,0-0.6,0.1-0.6,0.3l-5.7-0.7c-0.3,0.2-0.8,0.3-1.5,0.3l-1.8-0.3c-0.2,0-0.3,0.1-0.3,0.3l-1.5-0.3h-2.1c-0.2,0-0.2-0.1-0.2-0.2
		c-0.2,0-0.3,0.1-0.3,0.2c-6.3-0.4-9.7-0.8-10.2-1.2c-0.2,0-0.2,0.1-0.2,0.2c-6-0.9-9-1.6-9-2.1c0-0.4,0.3-0.6,0.9-0.6
		c0.6,0.2,0.8,0.4,0.8,0.6c0.2,0,0.3-0.1,0.3-0.3c4.3,0.7,7.2,1.2,8.4,1.6c0.2,0,0.3-0.1,0.3-0.3l2.1,0.3h3.6c0.2,0,0.2,0.1,0.2,0.2
		c0.2,0,0.3-0.1,0.3-0.2l3.6,0.2h1.5c0.2,0,0.3,0.1,0.3,0.3l0.6-0.3h0.9c0.2,0,0.2,0.1,0.2,0.3c0.2,0,0.3-0.1,0.3-0.3l2.1,0.3h11.7
		c0.2,0,0.2,0.1,0.2,0.2l0.6-0.2h0.7c1,0,1.5,0.2,1.5,0.6c0.4-0.2,0.7-0.3,0.9-0.3v-0.2l-1.5-0.3h-3.1c-0.2,0-0.2-0.1-0.2-0.2
		l-0.7,0.2h-0.2l-1.8-0.2c-0.4,0.2-0.7,0.2-0.9,0.2c-0.6-0.2-0.9-0.4-0.9-0.6l-0.6,0.3c-0.2,0-0.3-0.1-0.3-0.3l-0.6,0.3h-0.3
		c-0.2,0-0.2-0.1-0.2-0.3l-0.7,0.3h-1.8V105h0.7v-0.2l-0.3-0.7c-0.4,0.2-0.7,0.3-0.9,0.3c-1-0.2-1.7-0.3-1.8-0.3l-0.6,0.3
		c-0.7-0.4-1.3-0.6-1.8-0.6h-3.6l-0.8-0.7c0,0.2-0.1,0.3-0.3,0.3c-0.1-0.4-0.2-0.6-0.6-0.6l-0.3,0.6c-0.4,0-1.2-0.2-2.4-0.6
		l-0.6,0.2c-8-0.8-13.1-1.7-15.3-2.6c0-1,1.1-1.5,3.3-1.5h1.8v-0.9h1.5c-0.1,0.4-0.2,0.6-0.6,0.6l-0.6-0.3V99c0.9,0,1.5,0.1,1.7,0.2
		c0-1,0.3-1.5,0.9-1.5v0.6l-0.6,0.9h0.6v-0.6l0.9,0.6h0.9c0-0.4,0.6-0.6,1.8-0.6v0.6h0.6v-0.9h0.3l0.9,0.7c0-0.4,0.2-0.7,0.6-0.7
		h0.3v0.3l-0.3,0.6h0.6c0-0.6,0.2-0.9,0.7-0.9l0.2,0.7c-0.2,0-0.2,0.1-0.2,0.2h0.2c0.2,0,0.3-0.1,0.3-0.2l0.6,0.2h0.3V99H180v-0.9
		c0.5,0.2,0.8,0.4,0.8,0.6l0.7-0.3h0.6v0.3c-0.2,0.4-0.3,0.7-0.3,0.9l1.2-0.9V99l-0.3,0.6h0.7v-1.2h0.6c0.4,0,0.6,0.2,0.6,0.7
		c-0.2,0-0.3,0.1-0.3,0.2h1.2v0.3h1.5l-0.2-0.6c0.3,0,0.8-0.3,1.5-0.9l0.2,0.6h-0.6c0,0.4,0.2,0.6,0.6,0.6v-0.6
		c0.5,0,0.9,0.1,1.2,0.3h0.9v0.6h0.6v-0.9h0.6c0,0.5,0.5,0.8,1.6,0.9c0-0.4,0.2-0.6,0.6-0.6h0.3l0.6,0.2c0-0.4,0.2-0.6,0.6-0.6
		c0.2,0.4,0.3,0.7,0.3,0.9c0.5,0,0.8-0.4,0.9-1.2h0.2c0,0.5,0.6,0.8,1.8,0.9c0-0.4,0.2-0.6,0.6-0.6h0.9c0.8-0.4,1.2-0.9,1.2-1.5
		c1.6,0,2.4-0.2,2.4-0.7h-0.3c-1.1,0.2-1.9,0.3-2.4,0.3c-0.2-0.4-0.2-0.7-0.2-0.9l-0.9,0.6v-0.2c-0.2,0-0.3,0.1-0.3,0.2
		c-1.4-0.1-2.1-0.3-2.1-0.6l-1.6,0.6c-0.1-0.4-0.2-0.6-0.6-0.6c-0.2,0-0.2,0.1-0.2,0.3l-0.7-0.3h-3c-0.2,0-0.3-0.1-0.3-0.3l-0.6,0.3
		c-4.8-0.2-7.2-0.5-7.2-0.9l-0.7,0.3h-0.2c-1.4,0-2.5-0.2-3.3-0.6l-0.3,0.6l-1.2-0.6L177,95c-2.2-0.2-3.3-0.4-3.3-0.6l-0.6,0.3
		c-0.2,0-0.3-0.1-0.3-0.3l-0.6,0.3H171l-0.9-0.7h-0.8c-2.6,0-4-0.3-4-0.9l0.3-0.6l8.1,0.9l1.5-0.3c3,0.4,4.9,0.7,5.7,0.7
		c0-0.4,0.4-1,1.2-1.8h-1.2v1.2H180V93l0.6-0.9l-0.3-0.6h3.9c0.2,0,0.3,0.1,0.3,0.2c0.2,0,0.3-0.1,0.3-0.2l1.5,0.2h2.7
		c0.4,0,0.8-0.1,1.2-0.2c0.7,0.4,1.2,0.6,1.5,0.6l0.7-0.3l0.6,0.3c0.3-0.2,0.7-0.3,1.2-0.3c0,0.2,0.1,0.3,0.2,0.3v-0.9
		c-0.4,0-0.8-0.1-1.2-0.3l0.2-0.6v-0.6h-0.2c0,1-0.4,1.5-1.2,1.5c-1.3,0-3.3-0.1-6-0.3c-0.2,0-0.5,0.1-0.9,0.3
		c-1-0.2-1.9-0.3-2.6-0.3h-4v-0.6h1.2v-0.6h-1.8c-0.4-0.1-0.6-0.3-0.6-0.7c0.8-0.2,1.5-0.2,2.1-0.2v-0.3H177v-0.6h1.2l-0.3-0.6V87
		h0.3c0.4,0,0.8,0.1,1.2,0.3c0.4-0.2,0.8-0.3,1.2-0.3v-0.3h-3.1v-0.6h2.5c0.3,0,0.5-0.3,0.8-0.9l-1.5,0.3h-0.6v-0.3
		c0-0.4,0.2-0.6,0.6-0.6l0.7,0.2c0.2,0,0.2-0.1,0.2-0.2c1.7,0.4,2.8,0.6,3.3,0.6l3.1-0.3v0.3l0.6-0.3h3.9l0.6-0.2
		c0,0.4,0.2,0.6,0.7,0.6c0-0.4,0.7-0.7,2.1-0.9v0.6l0.9-0.6h1.2v0.3h-0.7v0.2h0.7c0-0.2,0.1-0.2,0.2-0.2v0.2l0.7-0.2l1.2,0.6
		c0.3-0.8,0.6-1.2,0.9-1.2v0.2l-0.3,0.6h0.7l0.6-0.2c0,0.4,0.2,0.6,0.6,0.6V84l1.2,0.8h0.3c0-0.5,0.4-0.8,1.2-0.8v0.6h-0.9v0.2
		c1.2,0,1.9,0.1,2.1,0.3c0-0.3,0.3-0.6,0.9-0.9c0,0.2,0.1,0.3,0.2,0.3c0-0.2,0.1-0.3,0.3-0.3c0.4,0.6,0.6,1.3,0.6,2.1
		c-1,0-1.5-0.2-1.5-0.7l-0.6,0.3h-1.2v-0.6h-0.6c0,0.4-0.3,0.6-0.9,0.6c0.4,0.7,0.6,1.2,0.6,1.5l1.5-0.2c0,0.2,0.1,0.2,0.3,0.2v-0.2
		c-0.2-0.4-0.3-0.7-0.3-0.9h0.3c0.3,0,0.7,0.6,1.2,1.7h0.2c0-0.7,0.4-1.2,1.2-1.5c0.2-0.3,0.2-0.7,0.2-1.2v-0.3l-0.2-0.6l0.6-0.3
		c0.6,0.7,0.9,1.2,0.9,1.5h0.6v-0.2l-0.6-0.9c0.4,0,1.7-0.4,3.9-1.2v-0.2h-0.6l-1.8,0.2l-0.2-0.6c0.6,0,1.3-0.1,2.1-0.3
		c0,0.2,0.1,0.3,0.3,0.3v-0.9l-0.3-0.6h0.6c0,0.6,0.2,0.9,0.7,0.9c0.5,0,0.8-0.4,0.8-1.2h0.7v0.3l-0.3,0.6h0.3
		c0.4-0.2,0.7-0.3,0.9-0.3v0.7c-0.2,0-0.5,0.1-0.9,0.2c0.2,0.8,0.2,1.6,0.2,2.4h0.3v-0.6h0.3c0.4,0,0.8,0.1,1.2,0.3
		c2.4-0.5,3.6-0.9,3.6-1.2v-0.2h-0.3l-0.9,0.6h-0.6v-0.9l0.3-0.6h-0.7l-1.5,0.2v0.3c0.8,0,1.2,0.2,1.2,0.6c-0.2,0-0.3,0.1-0.3,0.3
		l-0.6-0.3c-0.4,0.2-0.7,0.3-0.9,0.3v-0.3c0-0.2,0.1-0.2,0.3-0.2l-0.3-0.7c0-0.2,0.1-0.2,0.3-0.2l-0.3-0.7v-0.2l1.5,0.2
		c0.3,0,0.6-0.3,0.9-0.9l-0.3-0.6c0.2,0,0.3-0.1,0.3-0.2h-0.3c-0.3,0.2-0.7,0.2-1.2,0.2l0.2,0.6l-0.6,0.3l-0.9-1.8
		c1.4,0,2.1-0.5,2.1-1.5l1.5,0.3l0.3-0.7l1.5,0.9h0.2c0-0.2,0.1-0.5,0.3-0.9h-0.3c-0.4,0.2-0.7,0.3-0.8,0.3c0-0.2,0.4-0.6,1.2-1.2
		l-0.3-0.7v-0.2h0.3c0.4,0,0.7,0.6,0.9,1.7h0.3c1.8-0.5,2.6-1.1,2.6-1.7v-0.3h0.3v1.2c0,0.4-0.4,0.6-1.2,0.6v0.2h1.6
		c0-0.8,0.4-1.2,1.2-1.2v0.6c-0.2,0.4-0.2,0.7-0.2,0.9c0.3,0,0.6-0.3,0.9-0.9v-0.2c0-0.4-0.4-0.7-1.2-0.7c0-0.4,0.4-0.6,1.2-0.6
		l-0.3-1.5c0.4-0.1,0.6-0.3,0.6-0.7c-0.1-0.4-0.2-0.6-0.6-0.6l-0.9,0.6l-0.3-0.6v-0.2c1-0.7,1.6-1.3,1.6-1.8h0.2
		c-0.2-2-0.7-3.1-1.5-3.1l-0.6,0.3l-0.7-0.3l-1.5,0.7c-0.2-0.4-0.2-0.7-0.2-0.9l-3.3,0.6l-0.7-0.3c-0.4,0.2-0.7,0.3-0.9,0.3v-0.3
		c-1.8,0.6-3.9,1-6.3,1.2v-0.3l-0.6,0.3h-2.1c-4.8,0-7.4-0.5-7.8-1.5v-0.3c0-0.3,1.2-1.1,3.5-2.4l0.3-0.6l-0.6-0.3
		c-4.6-0.2-7.4-0.3-8.4-0.3c0-0.3-0.3-0.6-0.9-0.9h-0.9V63c-0.4-0.2-1.2-0.9-2.4-2.1h-1.8l-0.6,0.3c0-0.8-0.2-1.2-0.7-1.2
		c0,0.8-0.2,1.2-0.6,1.2l-0.3-0.6l0.3-0.7H189l-0.9,0.7c0-0.2-0.1-0.3-0.3-0.3v0.6h-0.6v-0.2c0-0.6,0.3-0.9,0.9-0.9v-0.3h-0.6
		c0,0.2-0.1,0.3-0.3,0.3c0-0.6-0.2-0.9-0.6-0.9c0,0.2-0.1,0.2-0.3,0.2l-0.3-0.6l0.7-0.2l1.2,0.8c0-0.2,0.1-0.2,0.3-0.2
		c0,0.4,0.2,0.6,0.6,0.6v-0.6h-0.6v-0.3c0-0.4,0.2-0.6,0.6-0.6c0,0.2,0.1,0.3,0.3,0.3v-0.9h0.2l0.7,0.2c0-1.4,0.8-2.2,2.4-2.4
		c0-0.3-0.3-0.6-0.9-0.9c-0.1,0.4-0.2,0.6-0.6,0.6l-0.9-0.6l-0.3,0.6l0.3,0.7l-0.7,0.2c0-0.6-0.5-0.9-1.5-0.9v-0.2l0.3-0.6h-0.9
		c-0.4,0-0.6,0.3-0.6,0.8h-0.3V54l-0.9,0.6v-0.3c0-0.6,1-0.9,3-0.9c0,0.2,0.1,0.3,0.3,0.3c0-0.4,0.2-0.6,0.6-0.6
		c0.4,0.2,0.7,0.2,0.9,0.2c0.8-1.2,1.3-1.8,1.5-1.8c0.4,0,0.7,0.2,0.7,0.7v0.6h-0.7c0,0.4,0.2,0.6,0.7,0.6c0-0.3,0.3-0.8,0.9-1.5
		v-0.6c-0.6,0-0.9-0.1-0.9-0.3l-0.7,0.3l-0.8-0.6c0,0.4-0.5,0.7-1.6,0.8c-0.4-0.2-0.7-0.2-0.9-0.2v-0.6h0.7v-0.3h-0.7
		c0,0.2-0.1,0.3-0.2,0.3v-0.9l0.2-0.7c-0.2,0-0.2-0.1-0.2-0.2l0.6-0.3c0.4,0,0.6,0.2,0.6,0.6l-0.2,0.7c0.2,0,0.5,0.1,0.9,0.2
		l0.2-0.6c-0.2-0.3-0.2-0.8-0.2-1.5l1.2-0.9c0.4,0,0.6,0.2,0.6,0.6v0.3h-1.2v0.2c0.6,0,0.9,0.2,0.9,0.7c-0.4,0-0.6,0.2-0.6,0.6
		c0.2,0.4,0.2,0.7,0.2,0.9c0.4,0,0.6-0.6,0.6-1.8h0.9v1.8h0.9l0.7-0.3c0-0.2-0.6-1.2-1.8-3l0.6-0.3c0.7,2,1.8,3.1,3.3,3.1v-0.3
		l-0.6-0.9c0-0.3,0.3-0.6,0.9-0.9c0,0.4,0.2,0.6,0.6,0.6c0-0.6,0.2-0.9,0.6-0.9l0.9,0.7c0.3,0,0.9-0.2,1.8-0.7
		c0.2,0,0.3,0.1,0.3,0.3l1.5-0.3h1.8l0.9,0.7c0-0.5,1.2-0.9,3.5-1.2v0.6c-1.3,0-3,0.5-5.1,1.6l-0.2-0.7c-0.8,0.3-1.2,0.6-1.2,0.9
		c0.4,0.2,0.7,0.3,0.9,0.3c0.4-0.2,0.7-0.3,0.9-0.3v0.3l0.6-0.3h0.9v0.3c-0.3,0.8-0.6,1.2-0.9,1.2c-1-0.1-1.5-0.3-1.5-0.7
		c-1.8,0.2-2.7,0.5-2.7,0.9h0.3l2.1-0.2l0.2,0.6l0.6-0.3c0.2,0,0.3,0.1,0.3,0.3c2.1-0.3,3.4-0.5,3.9-0.6c0.3,0.2,0.9,0.2,1.8,0.2
		c0,0.5-0.8,0.9-2.4,1.2v0.2l-0.6-0.2h-0.6l0.2,0.6c-0.1,0.4-0.2,0.6-0.6,0.6l-0.6-0.2h-0.3v0.2c0.2,0,0.5,0.1,0.9,0.3
		c0.7-0.4,1.5-0.6,2.4-0.6l0.6,0.2l1.8-0.6c0.2,0,0.3,0.1,0.3,0.3l12-2.1v-0.2h-0.2c-1.1,0.2-2,0.2-2.7,0.2h-2.7
		c0-0.4,1.1-0.7,3.3-0.9v0.3c0.8-0.4,1.6-0.6,2.4-0.6v-0.7h-0.2c-0.4,0.2-0.7,0.3-0.9,0.3v-0.3l-0.6,0.3h-2.5v-0.3
		c0-0.3,1.4-0.7,4.2-1.2v-0.3H222c-0.1,0-0.5,0.1-1.2,0.3l-0.7-0.3c-0.8,0.4-2,0.7-3.5,0.9v-0.3c-1,0.4-1.8,0.7-2.1,0.7v-0.3
		l-0.6,0.3c-0.4-0.2-0.7-0.3-0.9-0.3v-0.9c0.4,0,0.6,0.1,0.6,0.3c2.5-0.2,4.4-0.5,5.7-0.9v0.2c2.7-0.8,4.3-1.3,4.9-1.7
		c0.3,0.2,0.7,0.2,1.2,0.2c0-0.6,0.6-1.2,1.8-1.8v-0.2l0.6,0.2h0.7v-0.6c-0.8,0-1.2-0.1-1.2-0.2c0.2-0.4,0.3-0.7,0.3-0.9l-0.7,0.2
		l-0.6-1.2c0.2-0.2,0.8-0.3,1.8-0.3v0.6h0.3v-1.5c-0.5,0-0.9-0.1-1.2-0.3l0.3-1.5l-0.3-1.5l2.1-1.5l-0.2-0.6c0.2-1.1,0.2-2,0.2-2.7
		l-0.6-0.3c0,1.7-0.1,3-0.2,4h-0.3l-0.6-0.3c0,0.2-0.1,0.3-0.3,0.3l-0.3-0.7h0.9v-2.1l0.3-1.5c-0.6,0-0.9-0.2-0.9-0.7h-0.3
		c0,0.6-0.3,0.9-0.9,0.9v0.9l0.7,0.9l-0.7,0.3h-0.2v-2.7h-0.9l0.6,0.9l-0.9,0.6c-0.4-0.1-0.6-0.2-0.6-0.6v-0.3l0.3-0.6
		c-0.5,0-0.9-0.1-1.2-0.3l-0.3,0.7c-0.1,0-0.7-0.1-1.7-0.3c-1.1,0-2.8,0.2-5.1,0.6c-0.2,0-0.3-0.1-0.3-0.2c-1.6,0.4-3.3,0.6-5.1,0.6
		c-0.2,0-0.2-0.1-0.2-0.3l-0.7,0.3h-0.6c0-0.4,0.3-0.6,0.9-0.6v-0.7h-1.5v0.7l-0.7-0.3h-1.2l0.2,0.6c-0.1,0.4-0.2,0.7-0.6,0.7h-0.6
		c-0.2,0-0.3-0.1-0.3-0.3l-0.6,0.3c-0.2,0-0.8-0.1-1.8-0.3l-0.6,0.3c-0.3-0.2-0.7-0.3-1.2-0.3l-0.6,0.3c-0.3-0.2-0.8-0.3-1.5-0.3
		v-0.3c0.3,0,0.7-0.3,1.2-0.9v0.9c0.6,0,0.9-0.1,0.9-0.2l1.6,0.2l1.5-0.2l1.5,0.2h0.3v-0.2c-1,0-1.6-0.2-1.6-0.7l-1.5,0.3h-2.1v-0.9
		c0.4,0.2,0.7,0.3,0.9,0.3h0.2v-0.3c-0.4,0-0.6-0.4-0.6-1.2h-1.2l-0.6,0.3V29c0-0.4,0.2-0.6,0.6-0.6h1.2l0.6,0.3l-0.2,0.6v0.3
		l0.6-0.3c0.4,0,0.6,0.2,0.6,0.6c-0.4,0-0.6,0.2-0.6,0.7h1.2v-0.9h2.5v0.6H204v0.3c1.6,0,2.4-0.1,2.4-0.3c0-0.4,0.2-0.6,0.6-0.6v0.2
		c1.3-0.6,2.2-0.9,2.7-0.9v-0.2h-0.9v-0.3c0.3,0,0.7-0.2,1.2-0.6l0.6,0.3c0-0.4,0.2-0.7,0.6-0.7h0.6l0.7,0.3c0-0.4,0.2-0.6,0.6-0.6
		l0.3,0.6c0.6-0.4,1.2-0.6,1.7-0.6l0.7,0.2l-0.3,0.7v0.2c0,0.4,0.2,0.6,0.6,0.6c0-0.5,0.1-1.3,0.3-2.4l-1.5,0.3h-1.2
		c-0.2,0-0.2-0.1-0.2-0.3l-0.7,0.3h-2.6c-0.4,0-0.7,0.4-0.7,1.2h-0.6v-0.3l0.3-0.6l-0.7-0.3l-0.6,0.3v-0.3c-0.6,0-0.9,0.3-0.9,0.9
		h-0.3l-0.8-0.6h-1.2v0.6c-0.9,0-1.7-0.2-2.4-0.6v0.6h-0.3c-0.2,0-0.2-0.1-0.2-0.3l-0.7,0.3c-0.2,0-0.2-0.1-0.2-0.3
		c-0.2,0-0.3,0.1-0.3,0.3l-1.5-0.3l-1.5,0.3c-0.1-0.4-0.3-0.6-0.7-0.6c0,0.4-0.1,0.6-0.2,0.6c-0.2,0-0.3-0.1-0.3-0.3l-3.9,0.7v-0.3
		l-0.7,0.3l-0.6-0.3c-0.4,0.2-0.7,0.3-0.9,0.3v-0.3l-0.6,0.3h-2.4c-0.2,0-0.3-0.1-0.3-0.3l-0.6,0.3c-0.2,0-0.3-0.1-0.3-0.3l-1.2,0.6
		l-0.7-0.2l-1.7,0.2v-0.2l-0.7,0.2h-0.9v-0.6c0.9,0,1.5-0.1,1.8-0.3c0.2,0,0.3,0.1,0.3,0.3c6.6-0.4,9.9-0.9,9.9-1.5
		c-1.2-0.2-1.8-0.5-1.8-0.9h-0.6l-0.9,0.6c0-0.3-0.4-0.6-1.2-0.9v0.6h-0.2c-0.2,0-0.3-0.1-0.3-0.2l-0.6,0.2
		c-0.4-0.1-0.6-0.2-0.6-0.6l0.9-0.6h0.2v0.6h0.3v-1.2h1.8v-1.2c-0.2,0-0.3,0.1-0.3,0.3c-0.4-0.2-1.3-0.4-2.7-0.7l-0.6,0.3l-0.6-0.3
		c-0.2,0-0.3,0.1-0.3,0.3l-1.5-0.3l-2.7,0.3v-0.6c0-0.4,1-0.7,3-0.9l0.7,0.2h1.5l1.5-0.2v0.2l0.6-0.2h3.3v-0.3
		c-0.1-0.4-0.2-0.6-0.6-0.6c0,0.2-0.1,0.3-0.2,0.3v-0.3c-1.3,0.4-2.1,0.6-2.5,0.6l-0.2-0.6l-0.6,0.3h-0.7c-0.4,0-0.6-0.4-0.6-1.2
		H186c-0.1,0.8-0.4,1.2-0.9,1.2l-0.2-0.7h0.6v-0.2h-1.2v-0.9l-0.6,0.2h-0.2c0-0.4-0.4-0.7-1.2-0.9l-0.6,0.3h-0.3
		c-0.4-0.1-0.6-0.2-0.6-0.6c0.2,0,0.2-0.1,0.2-0.3l0.7,0.3h0.2l-0.9-1.2c0.2,0,0.3-0.1,0.3-0.2h-0.3l-3.5,0.2v-0.6
		c0.8-0.2,1.6-0.3,2.4-0.3v-0.2l-1.5-0.3h-1.5v-0.3c1.8-1,2.6-1.6,2.6-1.7c4-0.2,7-0.3,9-0.3h5.1v-0.6l0.9,0.6h0.3
		c0.2,0,0.3-0.1,0.3-0.3c0.4,0.2,0.7,0.3,0.8,0.3c0.3-0.2,0.8-0.3,1.6-0.3v0.3h0.6l0.9-0.6v0.6h0.2c0-0.8,0.7-1.2,2.1-1.2v-0.2
		l1.5,0.2h0.6l1.6-0.2V11h-3.1l0.7-2.1h0.6c0,0.2,0.1,0.5,0.2,0.9c-0.5,0-0.8,0.2-0.8,0.6h0.8V9.8h0.7c0,0.6,0.7,0.8,2.1,0.8
		c0-0.2,0.1-0.4,0.3-0.8c-0.2,0-0.3-0.1-0.3-0.3h1.2l0.2-0.6l-1.2-0.7c0,0.2-0.1,0.3-0.3,0.3L205.9,8l0.6-0.3h0.2l0.7,0.3
		c0-0.2,0.1-0.3,0.2-0.3l1.2,1.8c0.3-0.2,0.7-0.3,1.2-0.3V8.6h-0.7V8.3c0-0.3,0.3-0.6,0.9-0.9c0,0.6,0.2,0.9,0.6,0.9
		c0-0.4,0.2-0.6,0.7-0.6h0.6c0,0.4,0.2,0.6,0.6,0.6v0.3h-1.5v0.3c0.6,0,0.9,0.1,0.9,0.2c0.4-0.2,0.7-0.2,0.9-0.2
		c0.7,0.2,1.3,0.2,2.1,0.2l0.7-0.9V7.7l-1.2,0.9c-1.2-0.2-1.8-0.5-1.8-0.9V6.4h0.9l-0.2,0.7v0.6h1.2c0-0.8,0.3-1.2,0.9-1.2
		c0,0.6,0.2,0.9,0.6,0.9h0.9V7.1c-0.6,0-0.9-0.2-0.9-0.7c0.2-0.4,0.3-0.7,0.3-0.8c-0.2,0-0.3-0.1-0.3-0.3l0.7-0.3
		c0.4,0,0.6,0.4,0.6,1.2h0.2c0-0.6,0.2-0.9,0.7-0.9h0.2c-0.2,1-0.6,1.5-1.2,1.5v0.9c0.4-0.1,0.6-0.2,0.6-0.6l1.5,0.2l1.6-0.2v0.2
		l0.6-0.2c0.4,0,0.6,0.2,0.6,0.6l0.6-0.3h0.3l0.6,0.3c0-0.6,0.2-0.9,0.7-0.9c0,0.4,0.2,0.6,0.6,0.6h2.7c0.4,0,0.6,0.3,0.6,0.9h0.3
		V7.3c-0.4,0-0.7-0.5-0.9-1.5l-0.7,0.3h-0.2l-0.7-0.3v1.2c-0.9-0.4-1.4-0.8-1.5-1.2l-0.6,0.3h-3c0-0.3-0.3-0.7-0.9-1.2h0.6l0.9,0.7
		c0-0.4,0.2-0.7,0.6-0.7c0,0.4,0.2,0.7,0.6,0.7s1.1-0.2,2.1-0.7c0.6,0.2,0.9,0.4,0.9,0.7l0.6-0.3h2.1l1.5,0.3c0-0.7,0.1-1.2,0.2-1.6
		c1.9,0.3,3.1,0.6,3.6,0.9l-0.3,0.7v0.2l0.7-0.2c0.4,0,0.6,0.2,0.6,0.6l0.6-0.3c1.1,0.2,2,0.3,2.7,0.3l0.3-0.6c-1.6,0-3-0.1-4-0.3
		V4.7h2.7c0.4,0,0.9,0.1,1.2,0.2c0.2,0,0.2-0.1,0.2-0.2c2,0.2,3.1,0.5,3.1,0.9c-0.1,0.4-0.3,0.6-0.7,0.6h-0.2V5.6L240,5.9
		c-0.4-0.2-0.7-0.2-0.8-0.2v1.2l1.2-0.6c1,0.4,1.8,0.6,2.1,0.6l-0.3-0.6l0.6-0.3c0,0.8,0.7,1.2,2.1,1.2c0,0.4-0.6,0.6-1.8,0.6
		c0,1,0.6,1.5,1.8,1.5v0.7h-1.2c-0.4,0-0.8,0.1-1.2,0.2c-0.4-0.2-0.8-0.2-1.2-0.2v0.6h3.6l0.6,0.2c0,1.1-0.9,1.7-2.7,1.8v0.3
		l0.7,0.9l0.6-0.3h0.6v0.6h-0.9v0.3h0.9l2.1-0.3v0.9c-0.4,0-1,0.2-1.8,0.7c0-0.2-0.1-0.3-0.3-0.3c0,0.8-1,1.2-3,1.2v0.2h0.9l6.6-0.9
		v0.7l-2.1,0.2V17h0.6v0.6l-2.6,0.3v0.6c0.5-0.2,1.7-0.4,3.5-0.6v0.2l-0.2,0.7h1.2v0.2l-1.2,0.3v0.3l0.2,0.6h-0.2l0.2,0.6v0.3
		l-0.2,0.6h1.5c0-0.4,0.1-0.6,0.3-0.6c0.8,0.3,1.2,0.6,1.2,0.9v0.6c0,0.4-0.3,0.6-0.9,0.6c0.6,1.2,0.9,2.3,0.9,3.3
		c-0.2,0-0.3,0.1-0.3,0.3c0.6,0,1.4,2.6,2.5,7.8H253c0.2,0.3,0.5,1.7,0.9,4.2h-0.3l0.3,0.6v2.4h0.6v0.9h-0.6c0,0.2,0.1,0.8,0.3,1.8
		c-0.2,0.4-0.3,0.7-0.3,0.9c0.2,0.3,0.3,0.7,0.3,1.2c-0.2,0-0.3,0.1-0.3,0.3l0.6,0.2c0,0.2-0.1,0.8-0.2,1.8c0,1.7,0.3,3.4,0.8,5.1
		l-0.6,0.3c0.4,1.6,0.6,3.3,0.6,5.1l-0.2,0.6c0.1,0,0.4,0.3,0.9,0.9l-0.3,1.5v0.6l0.3,1.6H255l0.3,0.6c0,0.2-0.1,0.8-0.3,1.8
		l0.3,0.6c-0.2,0.3-0.3,0.7-0.3,1.2v0.2c0.6,0,0.9,0.2,0.9,0.6c-0.4,0.2-0.7,0.3-0.9,0.3l0.3,1.5c-0.8,0-1.2,0.2-1.2,0.7v0.6
		l0.8-0.6c0.2,0.8,0.4,1.2,0.7,1.2l-0.3,0.6v0.9c0.6,0,0.9,0.2,0.9,0.7l-0.9,1.7l0.3,0.7l-0.3,0.6c0.4,0.7,0.6,1.2,0.6,1.5
		c-0.8,0.4-1.2,0.9-1.2,1.5c0,0.5,0.2,1.6,0.6,3.3H255l0.3,0.7c0,0.2-0.1,0.2-0.3,0.2c0,0.2,0.1,0.3,0.3,0.3l-0.3,1.5
		c0,0.2,0.1,0.5,0.3,0.9c-0.2,0.4-0.3,0.7-0.3,0.9c0.4,0,0.7,0.2,0.7,0.6v0.3l-0.7,0.9c0.3,0,0.6,0.3,0.9,0.9V93h-0.6v0.2
		c0.8,0,1.2,0.3,1.2,0.9v0.3h-0.9V95h0.6V96l-0.3,1.5l0.7-0.2v0.6h-0.9c0,0.4,0.3,0.6,0.9,0.6c0.6,0,2.9-0.4,6.8-1.2h0.3v0.2
		c0,0.7-2.1,1.4-6.3,2.1l-0.7-0.3c-0.4,0-1,0.3-1.8,0.9c0.4,0.7,0.7,1.5,0.7,2.4l-1.2,1.2l0.3,1.5h-0.3c-0.3-0.2-0.7-0.3-1.2-0.3
		l0.6,0.9c0,0.4-0.9,0.7-2.7,0.9v0.3c0.2,0,0.3,0.1,0.3,0.2l0.6-0.2h0.3v0.2c0,0.4-0.4,0.7-1.2,0.7c0,0.2,0.1,0.2,0.3,0.2
		c-0.2,1.2-0.4,1.8-0.7,1.8l0.7,1.2l-0.3,0.6l0.3,1.8h-0.3l0.3,0.6v0.9h-0.7c0-0.9-0.1-1.5-0.2-1.8c0-0.2,0.1-0.2,0.2-0.2
		c-0.2-1.9-0.4-3.1-0.6-3.6l-1.8,0.3c0,0.4,0.2,0.6,0.7,0.6c0-0.2,0.1-0.3,0.2-0.3v0.3c0,0.2-0.3,0.5-0.9,0.9l-0.6-0.3h-0.3
		l-0.6,0.3c0,0.2,0.1,0.2,0.3,0.2l-0.3,1.6v1.7h-0.6v-0.2c0-0.2,0.1-0.3,0.3-0.3l-0.3-0.6v-1.5l0.3-0.7l-0.7-0.2h-0.6l0.3,3.5h-0.7
		c-0.4-0.1-0.6-0.2-0.6-0.6v-2.4h-2.7l0.3,0.6v0.3c-0.5,0-0.8,0.5-0.9,1.5c0.2,0.4,0.3,0.7,0.3,0.9l-0.7,0.3l-0.2-0.7
		c0.2,0,0.2-0.1,0.2-0.2h-0.2l-0.9,0.6c0-0.2-0.1-0.3-0.3-0.3v0.3l0.3,3.6h-0.6c-0.2-0.8-0.3-1.6-0.3-2.4h-0.3l-0.2,1.5V119.4z
		 M168.6,103.8c-2.2-0.2-3.3-0.5-3.3-0.9h0.6l2.7,0.2V103.8z M170.7,104h-1.2v-0.6h1.2V104z M174,85.5v-0.9h2.4
		c0.2,0,0.3,0.1,0.3,0.2l0.6-0.2c0.4,0.2,0.7,0.2,0.9,0.2v0.3C176.3,85.1,174.9,85.3,174,85.5z M176.7,105c-1.2-0.2-1.8-0.5-1.8-0.9
		h0.6l1.2,0.3c0.4-0.2,0.7-0.3,0.8-0.3l0.3,0.7C177.8,104.7,177.4,104.8,176.7,105z M180.9,105h-2.4v-0.6h2.4V105z M181.2,90.3v-0.3
		H180l0.2,0.7C180.7,90.4,181,90.3,181.2,90.3z M188.7,88.1l0.6,0.3h0.7c0-0.6,0.2-0.9,0.6-0.9v-0.2h-0.3c-0.3,0.2-0.7,0.2-1.2,0.2
		c-0.4-0.1-0.7-0.2-0.7-0.6c0.2,0,0.3-0.1,0.3-0.3c-0.4,0-0.6-0.1-0.6-0.2c-0.2,0.2-1,0.2-2.4,0.2V87h2.1v0.6h-7.5
		c0,0.4,0.2,0.6,0.6,0.6h0.7c0.7,0,1.6-0.1,2.6-0.2l0.7,0.2l0.6-0.2l1.5,0.9c0-0.3,0.3-0.6,0.9-0.9c0.2,0.4,0.3,0.7,0.3,0.9
		C188.5,88.7,188.7,88.5,188.7,88.1z M180.9,26v-0.6l1.6-0.3h0.6v0.6C182.4,25.7,181.7,25.8,180.9,26z M183.3,87v-0.3h-2.5V87
		c0.2,0,0.5,0.1,0.9,0.3C182.1,87.1,182.6,87,183.3,87z M185.4,24.2h-0.3c-0.2,0-0.2-0.1-0.2-0.2c-0.2,0-0.3,0.1-0.3,0.2l-1.5-0.2
		h-1.8v-0.7h0.3c0.2,0,0.2,0.1,0.2,0.3l0.7-0.3h1.5c0.2,0,0.2,0.1,0.2,0.3l0.7-0.3h0.6c0.4,0,0.6,0.2,0.6,0.7L185.4,24.2z
		 M183.6,94.1v-0.6c-0.4-0.5-0.6-1-0.6-1.5c-0.7,0.8-1.2,1.2-1.5,1.2v0.9c0.4,0,0.8-0.1,1.2-0.2C183.1,94.1,183.4,94.1,183.6,94.1z
		 M182.1,97.2h-0.6v-0.7h1.2C182.6,97,182.4,97.2,182.1,97.2z M182.7,89c-0.1-0.4-0.2-0.6-0.6-0.6l-0.3,0.6H182.7z M187.5,105.3
		h-0.3c-1,0-2.8-0.1-5.1-0.3v-0.2l1.5-0.3c0.8,0.2,1.5,0.3,2.1,0.3v-0.3l0.6,0.3l0.9-0.7l0.3,0.7V105.3z M184.8,87v-0.3h-1.2V87
		H184.8z M184.5,97.4c-0.4-0.2-0.7-0.2-0.9-0.2v-0.3h0.9V97.4z M184.5,94.1v-0.6c-0.1-0.4-0.2-0.6-0.6-0.6l0.2,0.6l-0.2,0.6H184.5z
		 M186,25.7h-0.6c-0.4-0.1-0.6-0.2-0.6-0.6l0.6-0.2c0.4,0,0.6,0.2,0.6,0.6V25.7z M191.4,94.8c0-0.6,0.4-0.9,1.2-0.9v-0.3l-2.6-0.3
		c-0.1,0.4-0.3,0.7-0.7,0.7c0-0.4-0.3-0.7-0.9-0.9l-0.6,0.2c-0.2,0-0.8-0.1-1.8-0.2c-0.6,0.1-1,0.5-1.2,1.2h1.2
		c0.2,0,0.3-0.1,0.3-0.2l0.6,0.2c0.4-0.2,0.7-0.2,0.9-0.2v0.2l0.6-0.2l0.7,0.2v-0.2c0.2,0.2,0.9,0.2,2.1,0.2l-0.2,0.7H191.4z
		 M186.9,51.5h-1.5v-0.6h0.6l-0.2-0.6V50h0.2c0.5,0.4,1,0.7,1.6,0.7v0.2C187.4,51.3,187.2,51.5,186.9,51.5z M185.4,97.4v-0.6h0.9
		v0.3C186.1,97.2,185.8,97.3,185.4,97.4z M186.9,48.2h-1.2v-0.2c0-0.4,0.2-0.7,0.6-0.7c0.4,0,0.6,0.2,0.6,0.7V48.2z M186.9,24.2
		c-0.3,0-0.6-0.3-0.9-0.9l0.7-0.2v0.2l0.6-0.2c0.4,0,0.6,0.2,0.6,0.6L186.9,24.2z M187.5,12.2c-0.4-0.1-0.7-0.3-0.7-0.7l0.7-0.2
		V12.2z M187.2,50c0-0.2-0.1-0.2-0.3-0.2c0.2-0.4,0.3-0.7,0.3-0.9c0.4,0,0.6,0.2,0.6,0.6C187.7,49.8,187.5,50,187.2,50z M187.8,56.6
		h-0.6v-0.2c0.2-0.4,0.3-0.7,0.3-0.9h0.6v0.2C187.9,56.1,187.8,56.4,187.8,56.6z M188.1,89.7v-0.3h-0.9c0.2,0.4,0.3,0.7,0.3,0.9
		C187.9,90.2,188.1,90,188.1,89.7z M188.1,105.6l-0.3-0.7l0.6-0.2h0.3c0.4,0,0.6,0.2,0.6,0.6C189.2,105.3,188.8,105.4,188.1,105.6z
		 M191.4,97.8l-1.8-0.3c0,0.2-0.1,0.3-0.3,0.3l-0.2-0.6c1-0.4,1.7-0.7,2.1-0.7l-0.2,0.7h1.2C191.9,97.6,191.7,97.8,191.4,97.8z
		 M189.9,81.5l-0.3-0.6l0.6-0.3l0.3,0.7L189.9,81.5z M190.2,105.6l-0.2-0.7l0.6-0.2h0.3v0.2C190.7,105.4,190.5,105.6,190.2,105.6z
		 M191.1,24.2c-0.2,0-0.2-0.1-0.2-0.2c0.2,0,0.2-0.1,0.2-0.3h-0.9c0.2,0.3,0.3,0.7,0.3,1.2C190.9,24.7,191.1,24.5,191.1,24.2z
		 M191.4,12.2c-0.4-0.2-0.7-0.3-0.9-0.3v-0.6c0.4,0.2,0.7,0.2,0.9,0.2V12.2z M191.1,54.2V54c-0.1-0.4-0.2-0.7-0.6-0.7v0.9H191.1z
		 M192.9,89l-0.3-0.6v-0.9c0.4,0,0.7,0.4,0.7,1.2h0.2v-1.2l-0.6-0.9v-0.6h0.6v-0.3h-0.6v0.3l-0.6-0.3H192c0.2,0.4,0.3,0.7,0.3,0.9
		V87H192v-0.6h-0.6c0,0.6-0.2,0.9-0.6,0.9v0.2c0.5,0,0.8,0.2,0.8,0.6c-0.2,0-0.2,0.1-0.2,0.3c0.6,0,0.9,0.2,0.9,0.6H192.9z
		 M192.9,24.2v-0.6l-0.6-0.3h-0.9v0.3c0.8,0,1.2,0.2,1.2,0.6H192.9z M195,20.9v-0.2l-1.2-0.3c-1.2,0.2-1.8,0.5-1.8,0.9h0.6
		C192.8,21.2,193.6,21.1,195,20.9z M192.9,56v-0.6H192c0,0.4,0.2,0.6,0.6,0.6H192.9z M193.5,109.2h-1.2v-0.6h1.2V109.2z M194.1,81.5
		h-0.3l-0.6-0.2c0,0.2-0.1,0.2-0.3,0.2l-0.3-0.6l0.7-0.3h0.2c0.4,0,0.7,0.2,0.7,0.7V81.5z M193.5,97.8h-0.2
		c-0.4-0.1-0.7-0.2-0.7-0.6h0.9V97.8z M194.1,25.7v-0.2h-1.2l0.3,0.6C193.6,25.8,193.9,25.7,194.1,25.7z M194.1,29.3h-1.2v-0.6h1.2
		V29.3z M195.3,94.1v-0.6c-0.5,0-1.3-0.1-2.4-0.3v0.7l2.1,0.2H195.3z M193.2,32.6v-0.2l0.2-0.7l0.7,0.3l1.5-0.3v-0.2h-0.9v-0.3
		c0-0.4,0.2-0.6,0.6-0.6c0,0.4,0.2,0.6,0.6,0.6c0-0.4,0.2-0.6,0.7-0.6h0.9v0.6c-1,0-1.6,0.2-1.6,0.6h1.6v0.7h-1.2
		c-0.2,0-0.3-0.1-0.3-0.3C195,32.4,194.1,32.6,193.2,32.6z M195,30.5h-1.6v-0.3c0-0.4,0.2-0.6,0.7-0.6h0.2c0.4,0,0.7,0.2,0.7,0.6
		V30.5z M195.6,104.4V104h-1.2c-0.3,0-0.6,0.3-0.9,0.9h0.7C194.6,104.6,195.1,104.4,195.6,104.4z M194.7,52.4l0.3-0.6v-0.3h-0.9v0.3
		C194.1,52.2,194.3,52.4,194.7,52.4z M195,55.4c-0.1-0.4-0.3-0.7-0.7-0.7h-0.2c0,0.4,0.2,0.7,0.6,0.7H195z M195.3,87.9v-0.3
		c-0.3,0-0.7-0.3-1.2-0.9v1.2c0.2,0,0.2-0.1,0.2-0.3l0.7,0.3H195.3z M195,48.5c-0.4,0-0.7-0.5-0.7-1.5h0.7l-0.3-0.6l1.8-0.7l1.8,0.3
		l0.8-0.6l0.7,0.9c-0.2,0-0.3,0.1-0.3,0.2c-0.2,0-0.3-0.1-0.3-0.2c-1.4,0.2-2.3,0.4-2.6,0.6c-0.4-0.2-0.7-0.3-0.9-0.3l-0.3,0.6
		c0.2,0,0.3,0.1,0.3,0.3C195.2,47.6,195,47.9,195,48.5z M195.6,53.3v-0.2h-1.2v0.2H195.6z M195.6,54.8c-0.2-0.4-0.3-0.7-0.3-0.8H195
		v0.8H195.6z M195.3,87l0.3-1.2H195V87H195.3z M200.4,92.1v-0.3c-2.2-0.2-3.3-0.5-3.3-0.9c-1,0.4-1.7,0.7-2.1,0.7v0.2
		c1.6,0.2,2.4,0.4,2.4,0.6C197.5,92.2,198.5,92.1,200.4,92.1z M196.8,95v-0.2h-1.5V95H196.8z M196.2,26.9v-1.5h-0.6l0.2,1.5H196.2z
		 M197.1,109.2h-1.5v-0.2l1.2-0.3L197.1,109.2z M196.2,29.3l-0.3-0.6l0.7-0.3h0.2v0.3C196.7,29.1,196.5,29.3,196.2,29.3z M201,89.7
		v-0.3h-1.2v-0.6c0.9,0,1.5-0.1,1.8-0.3c0.4,0.2,0.7,0.3,0.9,0.3c-0.1-0.4-0.3-0.7-0.7-0.7h-0.2c-0.2,0-0.3,0.1-0.3,0.3
		c-1.2-0.4-2-0.6-2.4-0.6c-0.4,0.2-0.8,0.2-1.2,0.2v-0.6c0.7-0.2,1.1-0.2,1.2-0.2c0,0.2,0.1,0.2,0.2,0.2c0-0.7,0.3-1.3,0.9-1.8v-0.2
		l-0.6,0.2h-0.9c-0.2,0-0.2-0.1-0.2-0.2l-0.7,0.2l-0.6-0.2c0,0.4-0.4,0.8-1.2,1.2v0.7h0.7c0-0.6,0.5-1,1.5-1.2l0.3,0.6l-0.7,0.3
		c0-0.2-0.1-0.3-0.2-0.3c-0.3,1-0.6,1.5-0.9,1.5h-0.3v-0.6h-0.3v0.6l0.9,0.7l0.7-0.3V89h0.2l0.9-0.6c0,0.2,0.1,0.3,0.3,0.3
		c0-0.2,0.1-0.3,0.2-0.3c0,0.2,0.1,0.3,0.3,0.3l-0.3,0.6v0.3H201z M197.7,93.9v-0.3h-1.8v0.3c0.2,0,0.5,0.1,0.9,0.2
		C197.2,94,197.5,93.9,197.7,93.9z M198,51.8v-0.6c-0.2-0.6-0.4-0.9-0.6-0.9c-0.4,0.2-0.7,0.3-0.9,0.3v0.2c0.8,0,1.2,0.3,1.2,0.9
		H198z M197.1,54.8v-0.2c-0.1-0.4-0.2-0.6-0.6-0.6v0.2C196.5,54.6,196.7,54.8,197.1,54.8z M197.1,43.2l-0.3-0.7v-0.9h0.3l0.6,0.3
		c0-0.4,0.5-0.7,1.5-0.9l0.9,1.2v0.6h-0.9l-0.8-0.6C198.3,42.5,197.9,42.8,197.1,43.2z M198.3,44.3h-1.2l0.3-0.6
		c0.4,0.2,0.7,0.2,0.9,0.2V44.3z M198.3,105l0.6-0.9h-1.8C197.1,104.4,197.5,104.7,198.3,105z M198.6,29.9h-1.2
		c0-0.4,0.2-0.6,0.6-0.6C198.4,29.3,198.6,29.5,198.6,29.9z M198.3,49.4l0.2-0.6v-0.7c-0.4,0.2-0.7,0.3-0.9,0.3v0.3
		C197.7,49.2,197.9,49.4,198.3,49.4z M198.9,29H198v-0.6h0.9V29z M198.6,31.4c-0.4-0.1-0.6-0.3-0.6-0.7l0.6-0.2
		c0.4,0,0.6,0.2,0.6,0.6L198.6,31.4z M198.9,50.9v-0.2c-0.1-0.4-0.2-0.7-0.6-0.7H198C198,50.3,198.3,50.6,198.9,50.9z M199.2,44
		h-0.8c0-0.4,0.2-0.6,0.6-0.6h0.2V44z M200.7,93.9v-0.3h-2.1v0.6L200.7,93.9z M201.3,11.3h-2.1v-0.7c0.8,0,1.4-0.4,1.8-1.2l0.7,0.9
		C201.4,10.8,201.3,11.1,201.3,11.3z M200.4,49.4v-0.3c-0.2-0.4-0.3-0.7-0.3-0.9h-0.2v0.3c0.2,0.4,0.2,0.7,0.2,0.9H200.4z
		 M200.7,87.9v-1.2h-0.7c0,0.2-0.1,0.5-0.2,0.9C200.1,87.5,200.4,87.7,200.7,87.9z M201.3,7.7H201c-0.4-0.1-0.6-0.2-0.6-0.6l0.6-0.3
		l0.3,0.6V7.7z M201.9,87.5c0-0.4,0.1-0.6,0.3-0.6c-0.2-0.3-0.3-0.7-0.3-1.2l-1.5,0.3v0.3c0.6,0,0.9,0.4,0.9,1.2H201.9z M204.6,46.5
		h-3.9v-0.7h1.2l0.7,0.3c0-0.4,0.2-0.6,0.6-0.6c0.4,0.2,0.7,0.2,0.9,0.2c0.4-0.2,0.7-0.2,0.9-0.2l0.2,0.6L204.6,46.5z M202.8,92.1
		v-0.3c-0.2,0-0.5-0.1-0.9-0.2c-0.4,0.2-0.7,0.2-0.9,0.2v0.3h0.3l0.6-0.3l0.7,0.3H202.8z M203.1,42.8h-1.2c-0.4-0.1-0.6-0.2-0.6-0.6
		v-0.3c0-0.4,0.2-0.6,0.6-0.6h0.9c0.4,0,0.6,0.2,0.6,0.6C203.2,42.3,203.1,42.6,203.1,42.8z M202.2,98.3v-0.6h-0.9v0.6H202.2z
		 M211.6,110.1c-1.9,0-4.5-0.2-7.8-0.6l-0.6,0.3c-0.4-0.2-0.8-0.3-1.2-0.3v-0.6h0.3c0.4,0,0.8,0.1,1.2,0.2c0.2,0,0.3-0.1,0.3-0.2
		c2.3,0.4,4.9,0.6,7.8,0.6V110.1z M204.3,53.6c-0.1-0.4-0.2-0.6-0.6-0.6c0,0.4-0.3,0.6-0.9,0.6V54h0.3
		C203.5,53.7,203.8,53.6,204.3,53.6z M204,89.4h-0.3c-0.4,0-0.6,0.2-0.6,0.6h0.2C203.8,89.9,204,89.7,204,89.4z M203.7,80.9h-0.3
		v-0.6h0.9C204.2,80.7,204,80.9,203.7,80.9z M204.6,111.6c-0.3-0.2-0.7-0.2-1.2-0.2v-0.7h0.3c0.4,0.2,0.7,0.3,0.9,0.3V111.6z
		 M204,29l-0.3-0.6c0.8,0,1.2-0.2,1.2-0.6c0.3,0.2,0.7,0.3,1.2,0.3v0.6L204,29z M204.9,96.9h-0.3c-0.4,0-0.6,0.2-0.6,0.6h0.2
		C204.7,97.4,204.9,97.2,204.9,96.9z M204.3,105.3c0-0.2,0.1-0.5,0.3-0.9H204v0.9H204.3z M205.5,89.9v-0.2c-0.2,0-0.5-0.1-0.9-0.3
		v0.6H205.5z M205.2,9.8l-0.2-0.7h0.9C205.7,9.6,205.5,9.8,205.2,9.8z M205.5,49.8c0-0.3,0.3-0.6,0.9-0.9h0.2c0.2,0,0.3,0.1,0.3,0.2
		c0.9-0.4,1.8-0.6,2.7-0.6v0.6C208.2,49.5,206.8,49.8,205.5,49.8z M206.7,92.3v-0.6h-1.2v0.3L206.7,92.3z M206.4,97.8h-0.3
		c-0.4,0-0.6,0.2-0.6,0.6h0.3C206.2,98.3,206.4,98.1,206.4,97.8z M206.1,45.8c0-0.4,1.2-0.9,3.6-1.5l0.3,0.6L206.1,45.8z M207.9,105
		v-0.2h-1.5v0.6C206.8,105.1,207.3,105,207.9,105z M207.6,11.6c0-0.8,0.3-1.2,0.9-1.2v-0.3h-0.9l-0.6,0.3c0.2,0.3,0.3,0.7,0.3,1.2
		H207.6z M207.3,32.3l-0.3-0.7l0.6-0.2h0.3v0.2C207.9,32.1,207.7,32.3,207.3,32.3z M208.5,89.9v-0.2l-0.6-0.9c0.2,0,0.3-0.1,0.3-0.3
		h-0.7v0.9c0,0.4,0.2,0.6,0.7,0.6H208.5z M221.7,106.4v-0.2h-2.1l-3,0.2v-0.2l-0.7,0.2c-4.2-0.2-6.7-0.2-7.5-0.2
		c-0.4,0.2-0.7,0.2-0.9,0.2v0.3h5.4c0.4,0,0.8,0.1,1.2,0.3c0.2,0,0.3-0.1,0.3-0.3l3,0.3h2.7C220.7,106.7,221.2,106.4,221.7,106.4z
		 M208.8,111.6h-0.6c-0.4-0.1-0.7-0.2-0.7-0.6h1.2V111.6z M210.3,30.2c-0.1-0.4-0.2-0.6-0.6-0.6h-0.3c-0.4,0-0.6,0.2-0.6,0.6v0.3
		C209.2,30.3,209.7,30.2,210.3,30.2z M209.4,89.4c0-0.5,0.2-1,0.7-1.5v-0.3h-0.3c0,0.3-0.2,0.7-0.6,1.2v0.6H209.4z M210.1,92.7v-0.6
		h-0.9v0.2C209.3,92.3,209.6,92.4,210.1,92.7z M211.6,9.8V9.5h-0.3c-0.5,0.4-1,0.6-1.5,0.6c0,0.4,0.2,0.6,0.6,0.6
		C211.1,10.4,211.6,10.1,211.6,9.8z M211.2,29.6c0-0.2,0.1-0.5,0.3-0.9h-1.2c0.2,0.4,0.3,0.7,0.3,0.9H211.2z M211.2,92.7l0.3-0.6
		h-0.9C210.6,92.5,210.8,92.7,211.2,92.7z M211.2,7.3l-0.3-0.6V6.4h0.3c0.4,0,0.6,0.2,0.6,0.7L211.2,7.3z M211.2,82.2h-0.3v-0.7h0.9
		C211.7,82,211.6,82.2,211.2,82.2z M211.8,85.5v-0.9c-0.4,0-0.6,0.2-0.6,0.6v0.3H211.8z M213,80.6c-0.2,0-0.3-0.1-0.3-0.2
		c-0.4,0.2-0.7,0.2-0.9,0.2h-0.2v-0.2c0.3,0,0.7-0.3,1.2-0.9c0.4,0.2,0.7,0.3,0.9,0.3V80C213.6,80.4,213.4,80.6,213,80.6z
		 M212.1,88.1v-0.2c-0.1-0.4-0.2-0.6-0.6-0.6v0.2C211.6,87.9,211.7,88.1,212.1,88.1z M212.5,111.9h-0.9v-0.6h0.2
		C212.2,111.3,212.5,111.5,212.5,111.9z M212.7,6.2c-0.4-0.2-0.7-0.3-0.9-0.3V5.3h0.3l0.6,0.3c0-0.2,0.1-0.3,0.3-0.3l0.3,0.6
		L212.7,6.2z M213,10.4v-0.3h-1.2v0.3H213z M213.6,30.2l0.3-0.6l-0.6-0.3c-0.4,0.2-0.7,0.3-0.9,0.3v0.2L213.6,30.2z M213,85.1
		c0-0.2,0.1-0.5,0.3-0.9h-0.7v0.9H213z M216.3,110.1h-3.6v-0.6h3.6V110.1z M214.5,84.8c0-0.4,0.1-0.6,0.3-0.6
		c-0.4-0.8-0.7-1.4-0.7-1.8h-0.2c-0.3,0-0.6,0.3-0.9,0.9h0.9v0.3l-0.3,0.6L214.5,84.8z M214.9,87.9v-0.3h-1.2v0.3H214.9z
		 M214.9,111.9h-1.2v-0.6h1.2V111.9z M214.9,6.2c-0.4-0.2-0.7-0.3-0.9-0.3V5.3c0.2,0,0.5-0.1,0.9-0.3c0.4,0.2,0.7,0.3,0.9,0.3v0.6
		C215.5,5.9,215.2,6,214.9,6.2z M215.4,86.6v-0.2c-0.4,0-0.9-0.1-1.2-0.3h-0.2v0.3c0.2,0,0.5,0.1,0.9,0.2H215.4z M214.5,80.4h-0.3
		v-0.9h0.3c0.4,0,0.6,0.2,0.6,0.6L214.5,80.4z M216.9,112.8h-2.1v-0.6h2.1V112.8z M218.4,111.9h-2.1v-0.6h2.1V111.9z M217.8,27.2
		v-0.7h-0.9v0.7H217.8z M218.7,3.1h-0.3l-0.6-0.2c0,0.2-0.1,0.2-0.3,0.2l-0.2-0.6h0.9C218.5,2.6,218.7,2.8,218.7,3.1z M217.5,77.1
		l-0.2-0.6v-0.3h0.2l0.7,0.3c0.2,0,0.7-0.5,1.5-1.6h0.3c0.3,0,0.6,0.3,0.9,0.9v0.7C220.6,76.5,219.5,76.7,217.5,77.1z M218.7,8.9
		V8.6L218.4,8c-0.4,0.2-0.7,0.2-0.9,0.2v0.3C218,8.6,218.4,8.7,218.7,8.9z M218.4,45.8h-0.9v-0.6h0.9V45.8z M220.5,112.8h-2.7v-0.6
		h2.7V112.8z M219.1,27.2v-0.9h-0.3c-0.4,0-0.6,0.2-0.6,0.6v0.3H219.1z M220.2,10.1V9.2h1.8l0.6,0.3V8.9c-0.1-0.4-0.2-0.7-0.6-0.7
		h-2.7v0.3c0.4,0,0.7,0.5,0.7,1.5H220.2z M220.2,82.8v-0.6h-0.9c0,0.4,0.2,0.6,0.7,0.6H220.2z M220,85.7v-0.6h-0.3l-0.3,1.5
		C219.7,86.6,220,86.3,220,85.7z M222,110.4l-0.6-0.3h-1.8v-0.6h0.6c1,0,2.6-0.1,4.5-0.3v0.3l0.6-0.3h0.3v0.7h-2.1
		C222.5,109.8,222,110,222,110.4z M227.1,105v-0.2c-0.4,0-0.9-0.1-1.2-0.3l-5.7,0.6v0.3h0.3C222.2,105.1,224.4,105,227.1,105z
		 M222.6,82.2v-0.3c-0.7-1.2-1.2-1.8-1.5-1.8h-0.6c0.8,0.9,1.2,1.6,1.2,2.1H222.6z M222.4,111.6h-1.8V111h0.3c0.2,0,0.2,0.1,0.2,0.3
		l0.6-0.3h0.7V111.6z M225,112.5h-3.3v-0.6h3.3V112.5z M223.3,80h-0.3c-0.4,0-0.6,0.2-0.6,0.6h0.2C223,80.6,223.3,80.4,223.3,80z
		 M224.8,106.4v-0.2h-2.4v0.6C223.1,106.5,223.9,106.4,224.8,106.4z M224.2,72.9h-0.3c-0.4-0.2-0.7-0.3-0.9-0.3
		c0-0.4,0.2-0.6,0.6-0.6c0.4,0,0.7,0.2,0.7,0.6V72.9z M223.5,111.6h-0.2V111h1.7v0.3L223.5,111.6z M225.7,9.2V8.6h0.9l0.6,0.3V8.6
		c0-0.4-0.6-0.7-1.8-0.9l0.3,0.6v0.3h-0.3l-1.5-0.3l-0.3,0.7l0.7,0.2c0.3-0.2,0.7-0.2,1.2-0.2C225.3,9.1,225.4,9.2,225.7,9.2z
		 M224.2,34.4h-0.3v-0.3c0.3-0.8,0.6-1.2,0.9-1.2l0.2,0.6C225,33.8,224.7,34.1,224.2,34.4z M225,82.4v-0.2h-0.8
		c0,0.2-0.1,0.5-0.3,0.9h0.6C224.8,83,225,82.8,225,82.4z M225.7,40.1h-0.3c-0.8-0.3-1.2-0.6-1.2-0.9v-0.2c0.7-1.6,1.2-2.5,1.5-2.5
		c0.4,0,0.6,0.2,0.6,0.7c-0.3,0.8-0.7,1.2-1.2,1.2l0.3,0.7l-0.3,0.6h0.7V40.1z M225,43.7c0-0.2-0.1-0.3-0.2-0.3l0.2-0.6v-0.9h-0.8
		V41l1.5-0.3v1.8h0.2l0.7-0.2v0.9C226.1,43.2,225.5,43.3,225,43.7z M225.9,75.2c-1.2-0.3-1.7-0.6-1.7-0.9V74h0.6
		c0.2,0,0.2,0.1,0.2,0.3l0.7-0.3h0.2V75.2z M225,44.6h-0.2c0-0.4,0.2-0.7,0.6-0.7h0.3C225.6,44.4,225.4,44.6,225,44.6z M225.7,72.5
		h-0.9v-0.6h0.9V72.5z M225.7,69.6H225v-1.5h0.9C225.7,68.4,225.7,68.9,225.7,69.6z M226.2,80.4c0-0.3-0.3-0.6-0.9-0.9v0.9H226.2z
		 M228.6,82.8v-0.3c-0.4,0-0.6-0.3-0.6-0.9c-0.9,0.6-1.7,0.9-2.4,0.9v0.3h0.9c0.4,0,0.8-0.1,1.2-0.3l0.7,0.3H228.6z M227.1,70.7
		h-0.3c-0.4-0.1-0.6-0.2-0.6-0.6l0.6-0.3l0.3,0.7V70.7z M227.1,109.8h-0.9v-0.7h0.9l2.1-0.2v0.6L227.1,109.8z M226.2,112.5v-0.2
		c0-0.4,0.2-0.7,0.6-0.7h2.7v0.7h-1.8L226.2,112.5z M227.7,2.6h-1.2V2h1.2V2.6z M227.1,80.6v-0.2c-0.2-0.4-0.3-0.7-0.3-0.9
		c0.2,0,0.3-0.1,0.3-0.3h-0.6l0.2,1.5H227.1z M228.1,28.7c-0.1-0.4-0.2-0.6-0.6-0.6l-0.3,0.6V29C227.5,28.8,227.8,28.7,228.1,28.7z
		 M228.4,111.3h-1.2v-0.7h1.2V111.3z M228.4,39.5l0.2-1.5v-0.3h-0.6l0.3,0.6l-0.7,0.3c0.2,0.4,0.3,0.7,0.3,0.9H228.4z M229.2,2.6
		H229c-0.4-0.1-0.6-0.2-0.6-0.6h0.2l-0.2-0.6V1.1h0.6L229.2,2.6z M230.1,8.6c0-0.3,0.2-0.7,0.7-1.2l-0.3-0.6l0.6-0.3h0.9v0.3
		l-0.2,0.6c0.9,0,1.5,0.1,1.7,0.3c0-0.6,0.5-0.9,1.6-0.9V6.4c-3.2-0.2-5.4-0.4-6.4-0.6l-0.2,0.6v0.3c0.5,0,0.8,0.1,0.8,0.3l0.7-0.3
		h0.2v0.6l-0.6,0.9L230.1,8.6z M230.1,76.7c0-0.4,0.1-0.6,0.3-0.6c-0.2-0.4-0.3-0.7-0.3-0.9h-0.2c-0.2,0-0.3,0.1-0.3,0.3l-0.6-0.3
		h-0.3l0.3,0.6c-0.2,0-0.3,0.1-0.3,0.3c0.3,0,0.7,0.2,1.2,0.6H230.1z M230.1,40.7l-0.2-0.6v-0.3h0.6l0.9,0.7l0.3-0.7
		c-0.3,0-0.7-0.2-1.2-0.6l-0.6,0.3l-0.3-0.6v-1.2h0.6v0.9h0.3v-1.8h-0.3c-0.4,0.2-0.7,0.3-0.9,0.3v2.1c0,0.2-0.1,0.3-0.2,0.3
		c0.2,0.3,0.2,0.7,0.2,1.2H230.1z M230.4,70.7v-0.6l-0.6-0.9l0.2-0.6l-0.6-0.3l-0.6,0.3l0.2,0.6v0.3l-0.2,0.6h0.2
		c0.4-0.2,0.7-0.3,0.9-0.3v0.3l-0.6,0.9v0.3h0.3C230.3,71.3,230.4,71.1,230.4,70.7z M230.4,81.5c-0.3,0-0.7-0.2-1.2-0.6
		c0,0.4-0.1,0.9-0.2,1.2h0.9C230.3,82.1,230.4,81.9,230.4,81.5z M230.1,74c0-0.2,0.1-0.5,0.3-0.9l-1.2-0.2v0.2
		C229.2,73.4,229.5,73.7,230.1,74z M232.8,3.1c-0.8-0.3-1.2-0.7-1.2-1.2L231,2.3L230.4,2v0.6h-0.6V2.3c0.2-0.4,0.2-0.7,0.2-0.9
		l0.7,0.2h0.2V1.4h-0.6V1.1h0.9c1.4,0.8,2.1,1.3,2.1,1.5C233.4,2.9,233.2,3.1,232.8,3.1z M230.8,35.6v-0.9c-0.4,0-0.7,0.2-0.7,0.6
		L230.8,35.6z M232.3,5.6V5l-0.6,0.3l-0.3-0.6C231,4.9,230.7,5,230.4,5v0.3l1.5,0.3H232.3z M232.3,8.9c-0.4-0.5-0.6-0.9-0.6-1.2
		c-0.3,0-0.6,0.3-0.9,0.9L232.3,8.9z M231.7,39.2c0-0.4,0.1-0.8,0.2-1.2v-0.3h-0.2c0,0.4-0.3,0.6-0.9,0.6
		C230.8,38.6,231.1,38.9,231.7,39.2z M231.9,71.4c0-0.2,0.1-0.5,0.3-0.9c-0.4,0-0.6-0.2-0.6-0.7h-0.3c-0.4,0-0.6,0.2-0.6,0.7v0.2
		l0.6-0.2h0.3v0.9H231.9z M232.3,37.4c-0.1-0.4-0.2-0.6-0.6-0.6l-0.3,0.6H232.3z M232.3,72.3v-0.7h-0.9v0.7H232.3z M232.3,75.2v-0.3
		l-0.3-1.5c-0.4,0-0.6,0.2-0.6,0.6v1.2H232.3z M231.7,76.7c0-0.2,0.1-0.5,0.2-0.9l0.6,0.3h0.7v-0.3c-0.6,0-0.9-0.1-0.9-0.2
		c-0.4,0.2-0.7,0.2-0.9,0.2v0.9H231.7z M232.5,35c-0.1-0.4-0.2-0.6-0.6-0.6h-0.2c0,0.4,0.2,0.6,0.6,0.6H232.5z M236.1,9.5V9.2
		c-0.4,0-0.6-0.2-0.6-0.6c-0.4,0.2-0.7,0.3-0.9,0.3l-2.1-0.7v0.9c0.4-0.2,0.7-0.2,0.9-0.2c0.4,0,1,0.2,1.8,0.6V9.2l0.7,0.3H236.1z
		 M235.2,7.7c-0.1-0.4-0.2-0.6-0.6-0.6l-0.3,0.6H235.2z M236.5,2c-0.3,0-0.6-0.3-0.9-0.9c0.2,0,0.3-0.1,0.3-0.3
		c0.8,0.3,1.2,0.6,1.2,0.9L236.5,2z M238.3,3.8V2.9h-0.9l-0.9,0.6l-0.3-0.6l0.6-0.3h2.1v0.6C238.8,3.6,238.6,3.8,238.3,3.8z
		 M241.8,3.5c-0.2,0-0.2-0.1-0.2-0.3l-0.7,0.3c-0.7,0-1.2-0.7-1.5-2.1L238,2.3l-0.6-0.9V1.1c0.6,0,1.3-0.1,2.1-0.3l0.3,0.7l0.6-0.3
		h0.3c0.3,0,0.6,0.3,0.9,0.9l-0.3,0.6c0.4,0,0.6,0.2,0.6,0.6V3.5z M241.3,8.9V8h-0.6v0.2C240.7,8.7,240.9,8.9,241.3,8.9z M243.1,1.4
		h-1.8c0-0.4,0.2-0.7,0.6-0.7h1.2V1.4z M244.2,107.7v-0.3c-0.3,0-0.6,0.3-0.8,0.9h0.2C244,108.2,244.2,108,244.2,107.7z
		 M244.6,109.5v-0.6h-0.9c0,0.2-0.1,0.5-0.2,0.9h0.2C244,109.6,244.3,109.5,244.6,109.5z M244.6,110.6v-0.6c-0.3,0-0.6,0.3-0.9,0.9
		C244,110.8,244.3,110.6,244.6,110.6z M246.7,110.4v-0.3h-1.2v0.3H246.7z M247.9,19.1v-0.2h-0.9c-0.4,0-0.6,0.2-0.6,0.6h0.6
		C247.3,19.2,247.6,19.1,247.9,19.1z M248.2,110.4v-0.6h-0.9v0.6H248.2z M249.1,115.2h-0.7l-0.2-1.5v-0.6h0.6
		C248.8,113.7,248.9,114.4,249.1,115.2z M250,23.9v-0.3l-1.6-0.3c0.2,0.4,0.3,0.7,0.3,0.9C249.1,24,249.5,23.9,250,23.9z
		 M250.2,107.3v-0.6c-0.3,0.2-0.9,0.3-1.8,0.3v0.6h0.3L250.2,107.3z M250.2,108.6v-0.3h-1.8l0.3,0.7
		C249.1,108.7,249.6,108.6,250.2,108.6z M249.7,20.9l-0.9-1.5h0.9c0.2,0,0.3,0.1,0.3,0.3l0.6-0.3h0.2c0.4,0,0.7,0.2,0.7,0.6
		L249.7,20.9z M250.2,26.3v-1.5c-0.3,0.2-0.7,0.2-1.2,0.2l0.2,1.5C249.7,26.4,250,26.3,250.2,26.3z M250.6,30.5l-0.6-3.6l-0.7,0.3
		c0.4,0.6,0.7,1.7,0.9,3.3H250.6z M250.2,51.8v-0.9c-0.4,0-0.6,0.2-0.6,0.6v0.3H250.2z M250.2,52.4v-0.2h-0.6v0.9
		C250.1,53,250.2,52.8,250.2,52.4z M250.6,56.6l-0.3-1.5v-1.5h-0.6l0.6,3H250.6z M252.1,43.4v-1.5h-0.3c-0.4,0-0.6,0.2-0.6,0.6
		c0.4,0,0.6,0.3,0.6,0.9H252.1z M252.4,45.2l-0.7-0.3l-0.2,0.7v0.2h0.2C252.2,45.7,252.4,45.5,252.4,45.2z M253.3,28.4h-0.9v-0.2
		c0-0.4,0.2-0.7,0.6-0.7l0.3,0.7V28.4z M253,57.5c0-0.2,0.1-0.5,0.3-0.9l-0.7-0.2h-0.2v0.2c0.2,0.4,0.2,0.7,0.2,0.9H253z
		 M253.9,104.4l0.3-0.6h-0.3c-0.3,0.2-0.7,0.2-1.2,0.2v0.3H253.9z M254.5,26h-0.6v-0.9h0.6V26z M254.8,63V62h0.2v-0.3
		c-0.4-0.5-0.6-1-0.6-1.5h-0.6v1.5h0.6l-0.2,0.6v1.2C254.6,63.5,254.8,63.3,254.8,63z M254.8,67.4v-0.6c0-0.4-0.1-0.8-0.3-1.2
		c0.2-0.4,0.3-0.8,0.3-1.2v-0.3h-0.3c0,0.4-0.2,1-0.6,1.8c0.2,0.3,0.3,0.8,0.3,1.5H254.8z M254.8,69.8V69h-0.3
		c-0.4,0-0.6,0.2-0.6,0.6l0.6,0.2H254.8z M254.8,71.4v-0.9h-0.6c0.2,0.4,0.2,0.7,0.2,0.9H254.8z M255,77.1l-0.2-0.6
		c0.2-0.4,0.2-0.7,0.2-0.9h-0.8c0.2,0.3,0.2,0.8,0.2,1.5H255z M254.8,91.2v-0.3c-0.4,0-0.6,0.2-0.6,0.7v0.2
		C254.6,91.7,254.8,91.5,254.8,91.2z M255.7,35.6h-0.3c-0.3,0-0.6-0.3-0.9-0.9c0-0.4,0.2-0.7,0.6-0.7
		C255.5,34.7,255.7,35.3,255.7,35.6z M258.7,73.4h-0.9v-0.6h0.9V73.4z M259.2,97.4c0-0.2-0.1-0.2-0.2-0.2c0,0.2-0.1,0.2-0.3,0.2
		v-0.6c0.5,0,1.8-0.2,3.6-0.6v0.6L259.2,97.4z M263.2,99.8h-2.7v-0.6h2.7V99.8z"/>
</g>
</svg>
