<?xml version="1.0" encoding="utf-8"?>
<!-- Generator: Adobe Illustrator 23.0.1, SVG Export Plug-In . SVG Version: 6.00 Build 0)  -->
<svg xmlns="http://www.w3.org/2000/svg" xmlns:xlink="http://www.w3.org/1999/xlink" x="0px" y="0px"
	 viewBox="0 0 330 285" style="enable-background:new 0 0 330 285;" xml:space="preserve">
<style type="text/css">
	.farm-land-0{fill:#E7EAF3;}
  .farm-land-1{fill:#DE4437;}
  .farm-land-2{fill:#FFFFFF;}
  .farm-land-3{fill:#377DFF;}
  .farm-land-4{fill:#F8FAFD;}
  .farm-land-5{fill:#8C98A4;}
  .farm-land-6{fill:#BDC5D1;}
  .farm-land-7{fill:#377DFF;}
  .farm-land-8{fill:#00C9A7;}
  .farm-land-9{fill:none;}
  .farm-land-10{fill:#7C4635;}
  .farm-land-11{fill:#795548;}
</style>
<g>
	<rect x="2.8" y="88.8" class="farm-land-0 fill-gray-300" width="181.2" height="157.9"/>
</g>
<g opacity=".7">
  <linearGradient id="farmLandID1" gradientUnits="userSpaceOnUse" x1="50.35" y1="200.8" x2="50.35" y2="243.9" gradientTransform="matrix(1 0 0 -1 0 286)">
		<stop  offset="0" style="stop-color:#808080;stop-opacity:0.25"/>
		<stop  offset="0.54" style="stop-color:#808080;stop-opacity:0.12"/>
		<stop  offset="1" style="stop-color:#808080;stop-opacity:0.1"/>
	</linearGradient>
	<rect x="39.4" y="42.1" fill="url(#farmLandID1)" width="21.9" height="43.1"/>
</g>
<rect x="39.9" y="42.7" class="farm-land-1 fill-danger" width="20.6" height="42.5"/>
<g>
	<polygon class="farm-land-0 fill-gray-300" points="159.9,244.9 27.6,244.9 27.6,83.1 94.2,81.6 159.9,83.1 	"/>
</g>
<polygon class="farm-land-2 fill-white" points="158.4,244.9 29.7,244.9 29.7,83.1 94,37.4 158.4,83.1 "/>
<rect x="77.7" y="190.6" class="farm-land-3 fill-primary" width="32.4" height="54.3"/>
<rect x="64.2" y="107.4" class="farm-land-4 fill-gray-200" opacity=".5" width="59.6" height="37.1"/>
<rect x="60.7" y="141.3" class="farm-land-5 fill-gray-600" width="66.8" height="6.5"/>
<g>
	<rect x="64.2" y="107.4" class="farm-land-6 fill-gray-400" width="59.6" height="14.8"/>
</g>
<g opacity=".7">
	<polygon class="farm-land-7 fill-primary-darker" points="167,96.9 94.2,40.5 23.7,96.9 18.2,89.9 94.1,29.3 172.4,89.8 	"/>
</g>
<polygon class="farm-land-7 fill-primary-darker" points="167,97.4 94.2,41.2 23.7,97.4 18.2,90.5 94.1,29.8 172.4,90.5 "/>
<circle class="farm-land-2 fill-white" cx="105.5" cy="217.8" r="2.4"/>
<g id="ff8ee4b4-5abc-4927-bead-5d69132ee8f9" opacity=".3">
	<path class="farm-land-6 fill-gray-400" d="M256.9,207c-2.9-3-4.5-7.1-4.5-11.3c0-5.9,3.1-11.3,8.2-14.3c-1.1-1.6-1.7-3.5-1.7-5.5c0-5.5,4.6-10,10.3-10
		c4.5,0,8.5,2.9,9.9,7.2c2.9-4.5,7.8-7.2,13.2-7.2c8.5,0,15.4,6.7,15.4,14.9c0,1.8-0.3,3.5-0.9,5.1c0.3,0,0.6,0,0.9,0
		c6.8,0,12.4,5.3,12.4,11.9c0,0.4,0,0.8-0.1,1.2c5.5,2.3,9.3,7.5,9.3,13.6c0,8.2-6.9,14.8-15.3,14.8c-0.9,0-1.8-0.1-2.7-0.2
		c0,0.5,0.1,1,0.1,1.5c0,9.2-7.7,16.6-17.2,16.6c-3.5,0-6.9-1-9.8-3c-2.3,1.9-5.3,3-8.3,3c-7.1,0-12.9-5.6-12.9-12.4
		c0-0.3,0-0.6,0-0.9l0,0c-7.6,0-13.8-6-13.8-13.3C249.5,213.8,252.4,209.2,256.9,207z"/>
</g>
<path id="c200c6c4-addf-434c-9e0f-5ce7230e9a19" class="farm-land-8 fill-success" d="M258.3,206.9c-2.7-2.9-4.3-6.8-4.3-10.8c0-5.6,3-10.8,7.8-13.7
	c-1.1-1.5-1.6-3.4-1.6-5.3c0-5.3,4.4-9.6,9.9-9.6c4.3,0,8.2,2.7,9.5,6.9c2.7-4.3,7.5-6.9,12.6-6.9c8.1,0,14.7,6.4,14.7,14.2
	c0,1.7-0.3,3.3-0.9,4.9c0.3,0,0.6,0,0.9,0c6.5,0,11.8,5.1,11.8,11.4c0,0.4,0,0.8-0.1,1.2c5.2,2.2,8.9,7.2,8.9,13
	c0,7.8-6.6,14.2-14.7,14.2c-0.9,0-1.7-0.1-2.6-0.2c0,0.5,0.1,0.9,0.1,1.4c0,8.8-7.4,15.9-16.5,15.9c-3.3,0-6.6-1-9.4-2.8
	c-2.2,1.8-5,2.8-7.9,2.8c-6.8,0-12.3-5.3-12.3-11.9c0-0.3,0-0.6,0-0.8l0,0c-7.3,0-13.2-5.7-13.2-12.7
	C251.2,213.4,254,209,258.3,206.9z"/>
<line class="farm-land-9 fill-none" x1="286.3" y1="190.3" x2="286.3" y2="278.8"/>
<rect x="284.9" y="190.3" class="farm-land-10" width="2.7" height="88.5"/>
<line class="farm-land-9 fill-none" x1="286.5" y1="216.8" x2="270.7" y2="200.6"/>
<rect x="277.2" y="197.4" transform="matrix(0.7141 -0.7 0.7 0.7141 -66.4553 254.6776)" class="farm-land-11" width="2.7" height="22.6"/>
<line class="farm-land-9 fill-none" x1="286.5" y1="230.6" x2="302.9" y2="219.1"/>
<rect x="284.7" y="223.5" transform="matrix(0.8186 -0.5744 0.5744 0.8186 -75.7188 210.0458)" class="farm-land-10" width="20" height="2.7"/>
<g copacity=".3">
	<path class="farm-land-6 fill-gray-400" d="M288.8,208.5c6.3-7.3,5.6-18.3-1.7-24.6c-0.6-0.5-1.3-1-1.9-1.5c1.1-1.7,1.7-3.6,1.7-5.6
		c0-5.6-4.5-10.2-10-10.2c-4.5,0-8.4,3-9.6,7.3c-2.6-4.5-7.5-7.3-12.7-7.3c-8.2,0-14.9,6.8-14.9,15.2c0,1.8,0.3,3.6,0.9,5.2
		c-0.3,0-0.6,0-0.9,0c-6.6,0-11.9,5.5-11.9,12.2c0,0.4,0,0.8,0.1,1.2c-5.5,2.5-9,7.9-9,13.9c0,8.4,6.6,15.2,14.8,15.2
		c0.9,0,1.7-0.1,2.6-0.2c0,0.5-0.1,1-0.1,1.5c0,9.4,7.4,17,16.6,17c3.4,0,6.7-1.1,9.5-3c2.2,2,5.1,3,8,3c6.9,0,12.4-5.7,12.4-12.7
		c0-0.3,0-0.6,0-0.9l0,0c7.3,0,13.3-6.1,13.3-13.6C296,215.6,293.2,210.9,288.8,208.5z"/>
</g>
<path id="c2060184-c570-49c2-acda-2f80a9472e25" class="farm-land-8 fill-success" d="M286.8,208.4c5.9-6.8,5.3-17.2-1.6-23.1c-0.6-0.5-1.2-1-1.8-1.4
	c1-1.6,1.6-3.4,1.5-5.3c0-5.3-4.2-9.6-9.4-9.6c-4.2,0-7.9,2.8-9,6.9c-2.5-4.3-7-6.9-11.9-6.9c-7.7,0-14,6.4-14,14.3
	c0,1.7,0.3,3.3,0.9,4.9c-0.3,0-0.6,0-0.9,0c-6.2,0-11.2,5.1-11.2,11.5c0,0.4,0,0.8,0.1,1.2c-5.1,2.3-8.4,7.4-8.4,13.1
	c0,7.9,6.2,14.2,13.9,14.2c0.8,0,1.6-0.1,2.4-0.2c0,0.5-0.1,1-0.1,1.4c0,8.8,7,16,15.6,16c3.2,0,6.3-1,8.9-2.8
	c2.1,1.8,4.8,2.8,7.5,2.8c6.4,0,11.7-5.3,11.7-11.9c0-0.3,0-0.6,0-0.8l0,0c6.9,0,12.5-5.7,12.5-12.8
	C293.7,215,291,210.7,286.8,208.4z"/>
<rect x="259.6" y="191.5" class="farm-land-10" width="1.8" height="88.9"/>
<rect x="256.5" y="209.3" transform="matrix(0.6794 -0.7337 0.7337 0.6794 -68.4771 263.6789)" class="farm-land-10" width="22" height="1.8"/>
<rect x="251.4" y="216.8" transform="matrix(0.5962 -0.8028 0.8028 0.5962 -79.8945 294.0052)" class="farm-land-11" width="1.8" height="19.3"/>
<g id="db20f295-6229-40c0-b196-6bb997b23afd" opacity=".3">
	<path class="farm-land-6 fill-gray-400" d="M218.9,234.9c-2-2.1-3-4.8-3-7.7c0-4,2.1-7.7,5.6-9.7c-0.8-1.1-1.2-2.4-1.2-3.7c0-3.8,3.2-6.8,7-6.8
		c3.1,0,5.8,2,6.8,4.9c2-3.1,5.3-4.9,9-4.9c5.8,0,10.5,4.5,10.5,10.1c0,1.2-0.2,2.4-0.6,3.5c0.2,0,0.4,0,0.6,0
		c4.7,0,8.4,3.7,8.4,8.1c0,0.3,0,0.5,0,0.8c3.8,1.5,6.3,5.2,6.3,9.3c0,5.6-4.7,10.1-10.5,10.1c-0.6,0-1.2-0.1-1.8-0.2
		c0,0.3,0.1,0.7,0.1,1c0,6.3-5.3,11.3-11.7,11.3c-2.4,0-4.7-0.7-6.7-2c-1.6,1.3-3.6,2-5.7,2c-4.8,0-8.8-3.8-8.8-8.5
		c0-0.2,0-0.4,0-0.6l0,0c-5.2,0-9.4-4.1-9.4-9.1C213.8,239.5,215.8,236.4,218.9,234.9z"/>
</g>
<path class="farm-land-8 fill-success" d="M219.9,234.9c-1.9-2-2.9-4.6-2.9-7.3c0-3.8,2.1-7.4,5.3-9.3c-0.7-1.1-1.1-2.3-1.1-3.6c0-3.6,3-6.5,6.7-6.5
	c3,0,5.6,1.9,6.5,4.7c1.9-2.9,5.1-4.7,8.6-4.7c5.5,0,10,4.3,10,9.7c0,1.1-0.2,2.3-0.6,3.4c0.2,0,0.4,0,0.6,0c4.5,0,8.1,3.5,8.1,7.8
	c0,0.3,0,0.5,0,0.8c3.6,1.5,6,5,6.1,8.9c0,5.3-4.5,9.7-10,9.7c-0.6,0-1.2,0-1.7-0.1c0,0.3,0,0.6,0,1c0,6-5,10.9-11.2,10.9
	c-2.3,0-4.5-0.7-6.4-1.9c-1.5,1.3-3.5,1.9-5.4,1.9c-4.6,0-8.4-3.6-8.4-8.1c0-0.2,0-0.4,0-0.6l0,0c-5,0-9-3.9-9-8.7
	C215,239.3,216.9,236.3,219.9,234.9z"/>
<line class="farm-land-9 fill-none" x1="238.9" y1="223.5" x2="238.9" y2="283.8"/>
<rect x="238" y="223.5" class="farm-land-10" width="1.8" height="60.3"/>
<line id="cd90862a-73c1-467f-8a8f-23aaf7962413" class="farm-land-9 fill-none" x1="239.1" y1="241.6" x2="228.3" y2="230.6"/>
<rect x="232.8" y="228.4" transform="matrix(0.7141 -0.7 0.7 0.7141 -98.4764 231.0656)" class="farm-land-11" width="1.8" height="15.4"/>
<line id="f406e355-8aa2-4ce0-9f47-8fc27dbb63cd" class="farm-land-9 fill-none" x1="239.1" y1="251" x2="250.3" y2="243.2"/>
<rect x="237.9" y="246.2" transform="matrix(0.8186 -0.5744 0.5744 0.8186 -97.5462 185.3599)" class="farm-land-11" width="13.6" height="1.8"/>
<g id="af04bae7-87e5-447e-b22a-307a28405780" opacity=".3">
	<path class="farm-land-6 fill-gray-400" d="M249.8,236.7c4.3-4.9,3.8-12.2-1.1-16.5c-0.4-0.4-0.9-0.7-1.3-1c0.7-1.1,1.1-2.4,1.1-3.8
		c0.1-3.7-2.8-6.7-6.5-6.8c-3.1-0.1-5.8,2-6.6,4.9c-1.8-3-5-4.9-8.5-4.9c-5.5,0-10,4.6-10,10.2c0,1.2,0.2,2.4,0.6,3.5
		c-0.2,0-0.4,0-0.6,0c-4.5,0.1-8.1,3.7-8,8.2l0,0c0,0.3,0,0.6,0,0.8c-3.7,1.6-6,5.3-6,9.3c0,5.6,4.5,10.2,9.9,10.2
		c0.6,0,1.2-0.1,1.7-0.2c0,0.3,0,0.7,0,1c0,6.3,5,11.4,11.2,11.4c2.3,0,4.5-0.7,6.4-2c1.5,1.3,3.4,2,5.4,2c4.7-0.1,8.4-3.9,8.3-8.5
		l0,0c0-0.2,0-0.4,0-0.6l0,0c4.9,0,8.9-4.1,8.9-9.1C254.7,241.4,252.8,238.3,249.8,236.7z"/>
</g>
<path id="e5433075-9388-42ed-900f-702a5a1be897" class="farm-land-8 fill-success" d="M248.5,236.6c4-4.6,3.5-11.5-1-15.5c-0.4-0.3-0.8-0.7-1.2-0.9
	c0.7-1.1,1-2.3,1-3.5c0.1-3.5-2.7-6.3-6.1-6.4c-2.9-0.1-5.4,1.8-6.2,4.6c-1.7-2.9-4.7-4.6-8-4.6c-5.2,0-9.4,4.3-9.4,9.6
	c0,1.1,0.2,2.2,0.6,3.3c-0.2,0-0.4,0-0.6,0c-4.2,0-7.6,3.5-7.5,7.7c0,0.3,0,0.5,0,0.8c-3.5,1.5-5.7,5-5.6,8.8c0,5.3,4.2,9.5,9.3,9.5
	c0.5,0,1.1,0,1.6-0.1c0,0.3,0,0.6,0,1c0,5.9,4.7,10.7,10.5,10.7c2.1,0,4.2-0.7,6-1.9c1.4,1.2,3.2,1.9,5.1,1.9c4.4-0.1,7.9-3.6,7.8-8
	c0-0.2,0-0.4,0-0.6l0,0c4.7-0.1,8.4-3.9,8.4-8.6l0,0C253.1,241.1,251.3,238.1,248.5,236.6z"/>
<rect x="230.3" y="225.3" class="farm-land-10" width="1.2" height="59.7"/>
<rect x="228.1" y="237.2" transform="matrix(0.6794 -0.7337 0.7337 0.6794 -98.9905 249.0546)" class="farm-land-10" width="14.8" height="1.2"/>
<rect x="224.7" y="242.2" transform="matrix(0.5962 -0.8028 0.8028 0.5962 -108.6788 281.3205)" class="farm-land-10" width="1.2" height="13"/>
</svg>
