<?xml version="1.0" encoding="utf-8"?>
<!-- Generator: Adobe Illustrator 23.0.1, SVG Export Plug-In . SVG Version: 6.00 Build 0)  -->
<svg xmlns="http://www.w3.org/2000/svg" xmlns:xlink="http://www.w3.org/1999/xlink" x="0px" y="0px"
	 viewBox="0 0 1267.1 1789.6" style="enable-background:new 0 0 1267.1 1789.6;" xml:space="preserve">
<style type="text/css">
	.files-0{fill:#E7EAF3;}
	.files-1{fill:#FFFFFF;}
	.files-2{fill:#377DFF;}
	.files-3{fill:#1E2022;}
	.files-4{fill:#00C9A7;}
</style>
<g>
	<path class="files-0 fill-gray-300" d="M1079.6,611.7l-100.3,38.8l-146.6,56.7c-5.5-10.3-13.7-24.3-23.8-41c-34.7-57.6-92.2-147.1-143.3-225.7
		C607.9,351.8,558.3,277,558.3,277l35.9-10.4l293.3-85.1L1079.6,611.7z"/>
	<path class="files-1 fill-white" d="M1081.6,604.7l-100.3,38.8l-146.6,56.7c-5.5-10.3-13.7-24.3-23.8-41c-34.7-57.6-92.2-147.1-143.3-225.7
		C609.9,344.8,560.3,270,560.3,270l35.9-10.4l293.3-85.1L1081.6,604.7z"/>
	<path class="files-0 fill-gray-300" d="M1081.6,604.7l-100.3,38.8c-56,11.7-113.2,16.9-170.4,15.7c-34.7-57.6-92.2-147.1-143.3-225.7l-71.3-173.9
		l293.3-85.1L1081.6,604.7z"/>
	<path class="files-2 fill-primary" d="M1156.2,580.5c0,0-155.8,92.2-388.5,71.4L582.2,199.7l88.9-15.3l307.3-52.8l174.3,440.1L1156.2,580.5z"/>
	<path class="files-3 fill-dark" opacity=".1" d="M1152.8,571.8c-36.7,1.8-79.1,1.6-121.9-3.5c-46.2-5.4-92.7-16.6-132.6-37.2c-33.3-17.2-61.8-35.8-86.7-58.2
		c-64.6-58.1-104.6-141.3-140.5-288.5l307.3-52.8L1152.8,571.8z"/>
	<path class="files-1 fill-white" d="M1267.1,546.5c0,0-114.9,22.5-231.8,8.7c-46.2-5.5-92.7-16.6-132.6-37.2c-33.3-17.2-61.8-35.8-86.7-58.2
		c-80-72-122.2-182.2-165.8-404.9c0,0,191,46.1,379.7-54.9C1030,0,1093.7,397.3,1267.1,546.5z"/>
	<path class="files-0 fill-gray-300" d="M1035.3,555.2c-46.2-5.5-92.7-16.6-132.6-37.2c-33.3-17.2-61.8-35.8-86.7-58.2c68.1-5.5,77.9-42.8,77.9-42.8
		C944.4,497.1,1035.3,555.2,1035.3,555.2z"/>
	<path class="files-2 fill-primary" opacity=".3" d="M749.1,136.6c0,0,102.6,11.7,198.6-42.3l6.6,21.1c0,0-91.9,45.8-205.2,45.8V136.6z"/>
	<path class="files-0 fill-gray-300" d="M749.1,240.9c0,0,102-8.2,215.6-63.1l3.8,8.8c0,0-41.8,52.6-219.4,66.3V240.9z"/>
	<path class="files-0 fill-gray-300" d="M761.2,281.6c0,0,102-8.2,215.5-63.1l3.8,8.8c0,0-41.8,52.6-219.4,66.4V281.6z"/>
	<path class="files-0 fill-gray-300" d="M772.2,325.5c0,0,102-8.2,215.5-63.1l3.8,8.8c0,0-41.8,52.6-219.4,66.4V325.5z"/>
	<path class="files-0 fill-gray-300" d="M785.4,363c0,0,102-8.2,215.5-63.1l3.8,8.8c0,0-41.8,52.6-219.4,66.4V363z"/>
	<path class="files-0 fill-gray-300" d="M797.5,403.8c0,0,102-8.2,215.6-63.1l3.8,8.8c0,0-41.8,52.6-219.4,66.4L797.5,403.8z"/>

		<rect x="985.5" y="154.5" transform="matrix(0.9466 -0.3223 0.3223 0.9466 -1.2584 331.509)" class="files-2 fill-primary" opacity=".3" width="30.2" height="30.1"/>

		<rect x="1001.8" y="196.9" transform="matrix(0.9466 -0.3223 0.3223 0.9466 -14.0759 339.007)" class="files-2 fill-primary" opacity=".3" width="30.2" height="30.1"/>

		<rect x="1027.8" y="278.6" transform="matrix(0.9466 -0.3223 0.3223 0.9466 -39.0161 351.7543)" class="files-2 fill-primary" opacity=".3" width="30.2" height="30.1"/>

		<rect x="1042.7" y="322.5" transform="matrix(0.9466 -0.3223 0.3223 0.9466 -52.3504 358.9066)" class="files-2 fill-primary" opacity=".3" width="30.2" height="30.1"/>

		<rect x="1015" y="241.1" transform="matrix(0.9466 -0.3223 0.3223 0.9466 -27.5847 345.6267)" class="files-2 fill-primary" opacity=".3" width="30.2" height="30.1"/>
	<path class="files-4 fill-success" d="M1000.8,171.8l-13.5-6.6c-0.8-0.4-1.1-1.4-0.8-2.2c0,0,0,0,0,0l1.4-2.9c0.4-0.8,1.4-1.1,2.2-0.8c0,0,0,0,0,0
		l9.1,4.4l9.5-19.5c0.4-0.8,1.4-1.1,2.2-0.8l2.9,1.4c0.8,0.4,1.1,1.4,0.8,2.2c0,0,0,0,0,0L1003,171
		C1002.6,171.8,1001.6,172.1,1000.8,171.8C1000.8,171.8,1000.8,171.8,1000.8,171.8z"/>
	<path class="files-4 fill-success" d="M1030.3,255.9l-13.5-6.6c-0.8-0.4-1.1-1.4-0.8-2.2c0,0,0,0,0,0l1.4-2.9c0.4-0.8,1.4-1.1,2.2-0.8l9.1,4.4
		l9.5-19.5c0.4-0.8,1.4-1.1,2.2-0.8l2.9,1.4c0.8,0.4,1.2,1.4,0.8,2.2c0,0,0,0,0,0l-11.6,23.9C1032.1,256,1031.1,256.3,1030.3,255.9
		L1030.3,255.9z"/>
	<path class="files-4 fill-success" d="M1017.1,214.4l-13.5-6.6c-0.8-0.4-1.1-1.4-0.8-2.2l1.4-2.9c0.4-0.8,1.4-1.1,2.2-0.8c0,0,0,0,0,0l9.1,4.4
		l9.5-19.5c0.4-0.8,1.4-1.1,2.2-0.8c0,0,0,0,0,0l2.9,1.4c0.8,0.4,1.1,1.4,0.8,2.2l-11.7,23.9
		C1018.8,214.5,1017.9,214.8,1017.1,214.4C1017.1,214.4,1017.1,214.4,1017.1,214.4L1017.1,214.4z"/>
	<path class="files-4 fill-success" d="M1043.1,293.9l-13.5-6.6c-0.8-0.4-1.1-1.4-0.8-2.2c0,0,0,0,0,0l1.4-2.9c0.4-0.8,1.4-1.1,2.2-0.8c0,0,0,0,0,0
		l9.1,4.4l9.5-19.5c0.4-0.8,1.4-1.1,2.2-0.8l2.9,1.4c0.8,0.4,1.1,1.4,0.8,2.2c0,0,0,0,0,0l-11.6,23.9
		C1044.9,294,1043.9,294.3,1043.1,293.9z"/>
</g>
<g>
	<path class="files-2 fill-primary" opacity=".3" d="M83.6,1779c-2-2.4-3-5.6-2.6-8.8l37-302.7l3.1-25.1c0.7-5.8,5.6-10.1,11.4-10.2l108.4-0.7
		c6.4,0,11.6-5.3,11.5-11.7c0-0.1,0-0.2,0-0.2l0-1.1c-0.2-6.4,4.8-11.8,11.2-12c0.1,0,0.3,0,0.4,0h113.9c6.4,0,11.6,5.2,11.6,11.6
		c0,0.5,0,1-0.1,1.6c-0.8,6.3,3.6,12.2,10,13c0.4,0.1,0.8,0.1,1.2,0.1l109.4,2.8c6.4,0.2,11.5,5.5,11.3,11.9c0,0.6-0.1,1.1-0.2,1.7
		l-54.7,319.4l-1,6c-0.3,1.5-0.8,3-1.7,4.3L83.6,1779z"/>
	<path class="files-0 fill-gray-300" d="M294.1,1628.4l-56.9,22c-31.8,6.6-64.2,9.6-96.7,8.9c-19.7-32.6-52.3-83.4-81.3-128l-40.4-98.6l166.4-48.3
		L294.1,1628.4z"/>
	<path class="files-2 fill-primary" d="M336.5,1614.7c0,0-88.4,52.3-220.4,40.5L10.9,1398.6l50.4-8.7l174.3-29.9l98.9,249.6L336.5,1614.7z"/>
	<path opacity=".1" d="M334.5,1609.7c-20.8,1-44.9,0.9-69.1-2c-26.2-3.1-52.6-9.4-75.2-21.1c-18.9-9.7-35.1-20.3-49.2-33
		c-36.7-33-59.3-80.1-79.7-163.6l174.3-29.9L334.5,1609.7z"/>
	<path class="files-0 fill-gray-300" d="M396.9,1612c0,0-65.2,12.8-131.5,4.9c-26.2-3.1-52.6-9.4-75.2-21.1c-18.9-9.7-35.1-20.3-49.2-33
		c-45.4-40.8-69.3-103.4-94-229.7c0,0,108.3,26.1,215.4-31.1C262.4,1302,298.5,1527.3,396.9,1612z"/>
	<path class="files-1 fill-white" d="M400.2,1603.2c0,0-65.2,12.8-131.5,4.9c-26.2-3.1-52.6-9.4-75.2-21.1c-18.9-9.7-35.1-20.3-49.2-33
		c-45.4-40.8-69.3-103.4-94-229.7c0,0,108.3,26.1,215.4-31.1C265.7,1293.3,301.8,1518.6,400.2,1603.2z"/>
	<path opacity=".1" d="M267.9,1600.3c-26.2-3.1-52.6-9.4-75.2-21.1c-18.9-9.7-35.1-20.3-49.2-33c38.6-3.1,44.2-24.2,44.2-24.2
		C216.3,1567.4,267.9,1600.3,267.9,1600.3z"/>
	<path class="files-2 fill-primary" opacity=".3" d="M105.5,1362.9c0,0,88.1-5,112.7-24l3.7,12c0,0-58.2,25.7-116.4,26V1362.9z"/>
	<path class="files-2 fill-primary" opacity=".3" d="M105.5,1422.1c0,0,85.3-4.7,149.7-35.8l2.2,5c0,0-51.1,29.8-151.9,37.7L105.5,1422.1z"/>
	<path class="files-2 fill-primary" opacity=".3" d="M112.4,1445.1c0,0,85.3-4.7,149.7-35.8l2.2,5c0,0-51.1,29.8-151.9,37.7L112.4,1445.1z"/>
	<path class="files-2 fill-primary" opacity=".3" d="M119.3,1468.2c0,0,85.3-4.7,149.7-35.8l2.2,5c0,0-51.1,29.8-151.9,37.7V1468.2z"/>
	<path class="files-2 fill-primary" opacity=".3" d="M126.1,1491.3c0,0,85.3-4.7,149.7-35.8l2.2,5c0,0-51.1,29.8-151.9,37.7L126.1,1491.3z"/>
	<path class="files-2 fill-primary" opacity=".3" d="M133,1514.4c0,0,85.3-4.7,149.7-35.8l2.2,5c0,0-51.1,29.8-151.9,37.7V1514.4z"/>
	<path class="files-0 fill-gray-300" d="M463.7,1778.7c-1.6,1.3-3.5,2-5.5,2L83.6,1779c-2-2.4-3-5.6-2.6-8.8l37-302.7l23.2-0.3c4,0,7.5,2.6,8.5,6.5
		l4.3,16c1.1,3.9,4.6,6.6,8.7,6.5l92.6-2.2c4.8-0.1,8.6-4,8.6-8.8v-10.6c0-4.8,3.9-8.7,8.7-8.8l128.3-1.4c4.2,0,7.9,3,8.7,7.1
		l56.7,296.7l0.4,1.9C467.4,1773.4,466.2,1776.6,463.7,1778.7z"/>
	<path class="files-0 fill-gray-300" d="M392.1,1473.4l-128.3,1.4c-4.8,0.1-8.7,4-8.7,8.8v10.6c0,4.8-3.8,8.6-8.5,8.8l-92.6,2.2
		c-4,0.1-7.6-2.6-8.7-6.5l-4.4-16c-1-3.9-4.6-6.5-8.6-6.5l-123.7,1.3c-4.8,0-8.7,4-8.7,8.8c0,0.5,0,0.9,0.1,1.4l49.8,292.8
		c0.7,4.2,4.3,7.3,8.6,7.3l390.7,1.7c4.8,0,8.8-3.9,8.8-8.7c0-0.6-0.1-1.1-0.2-1.7l-57.1-298.6
		C400,1476.3,396.3,1473.3,392.1,1473.4z"/>
	<path class="files-1 fill-white" d="M396.7,1468.7l-128.3,1.4c-4.8,0.1-8.7,4-8.7,8.8v10.6c0,4.8-3.8,8.6-8.5,8.8l-92.6,2.2
		c-4,0.1-7.6-2.6-8.7-6.5l-4.4-16c-1-3.9-4.6-6.5-8.6-6.5l-123.7,1.3c-4.8,0-8.7,4-8.7,8.8c0,0.5,0,0.9,0.1,1.4l49.8,292.8
		c0.7,4.2,4.3,7.3,8.6,7.3l390.7,1.7c4.8,0,8.8-3.9,8.8-8.7c0-0.6-0.1-1.1-0.2-1.7l-57.1-298.6
		C404.6,1471.6,401,1468.6,396.7,1468.7z"/>
</g>
</svg>
