<?xml version="1.0" encoding="utf-8"?>
<!-- Generator: Adobe Illustrator 23.0.1, SVG Export Plug-In . SVG Version: 6.00 Build 0)  -->
<svg xmlns="http://www.w3.org/2000/svg" xmlns:xlink="http://www.w3.org/1999/xlink" x="0px" y="0px"
	 viewBox="0 0 330 285" style="enable-background:new 0 0 330 285;" xml:space="preserve">
<style type="text/css">
	.flat-house-0{fill:#E7EAF3;}
  .flat-house-1{fill:#F8FAFD;}
  .flat-house-2{fill:#377DFF;}
  .st5{fill:#2369eb;}
  .flat-house-3{fill:#2369eb;}
  .flat-house-4{fill:#8C98A4;}
  .flat-house-5{fill:#BDC5D1;}
  .flat-house-6{fill:#377DFF;}
  .flat-house-7{fill:#DE4437;}
  .flat-house-8{fill:#FFFFFF;}
</style>
<g>
	<polygon class="flat-house-0 fill-gray-300" points="287.5,285 45,285 46.7,104.2 116,85.9 214.1,85.9 285.8,98.8 	"/>
</g>
<g opacity=".7">
	<linearGradient id="flatHouseID1" gradientUnits="userSpaceOnUse" x1="129.95" y1="41.85" x2="129.95" y2="6.95" gradientTransform="matrix(1 0 0 1 0 1)">
		<stop  offset="0" style="stop-color:#808080;stop-opacity:0.25"/>
		<stop  offset="0.54" style="stop-color:#808080;stop-opacity:0.12"/>
		<stop  offset="1" style="stop-color:#808080;stop-opacity:0.1"/>
	</linearGradient>
	<rect x="121.1" y="7.9" fill="url(#flatHouseID1)" width="17.7" height="34.9"/>
</g>
<g>
	<polygon class="flat-house-1 fill-gray-200" points="121.1,115.5 121.1,77.8 44.2,77.8 31.2,115.5 31.2,119.3 121.5,119.3 121.5,115.5 	"/>
</g>
<polygon class="flat-house-2 fill-primary" points="121.1,115.5 32.1,115.5 45,78.2 121.1,78.2 "/>
<rect x="32.1" y="115.5" class="st5" width="89.4" height="3.8"/>
<g>
	<polygon class="flat-house-1 fill-gray-200" points="286.6,78.2 209.5,78.2 209.5,116.4 209.1,116.4 209.1,120.3 299.7,120.3 299.7,116.4 	"/>
</g>
<polygon class="flat-house-2 fill-primary" points="209.5,79.2 285.6,79.2 298.5,116.5 209.5,116.5 "/>
<rect x="209" y="115" class="flat-house-3 fill-primary-lighter" width="89.4" height="3.8"/>
<rect x="56" y="216.1" class="flat-house-1 fill-gray-200" opacity=".5" width="48.3" height="30.1"/>
<rect x="53.2" y="244.1" class="flat-house-4 fill-gray-600" opacity=".1" width="54" height="5.3"/>
<rect x="53.2" y="243.6" class="flat-house-4 fill-gray-600" width="54" height="5.3"/>
<g>
  <rect x="56" y="216.1" class="flat-house-5 fill-gray-400" width="48.3" height="12"/>
</g>
<rect x="226.7" y="216.1" class="flat-house-1 fill-gray-200" opacity=".5" width="48.3" height="30.1"/>
<rect x="223.9" y="244.1" class="flat-house-4 fill-gray-600" opacity=".1" width="54" height="5.3"/>
<rect x="223.9" y="243.6" class="flat-house-4 fill-gray-600" width="54" height="5.3"/>
<g>
  <rect x="226.8" y="216.1" class="flat-house-5 fill-gray-400" width="48.3" height="12"/>
</g>
<rect x="226.7" y="145.8" class="flat-house-1 fill-gray-200" opacity=".5" width="48.3" height="30.1"/>
<rect x="223.9" y="173.8" class="flat-house-4 fill-gray-600" opacity=".1" width="54" height="5.3"/>
<rect x="223.9" y="173.3" class="flat-house-4 fill-gray-600" width="54" height="5.3"/>
<g>
  <rect x="226.8" y="145.8" class="flat-house-5 fill-gray-400" width="48.3" height="12"/>
</g>
<rect x="57.5" y="145.8" class="flat-house-1 fill-gray-200" opacity=".5" width="48.3" height="30.1"/>
<rect x="54.6" y="173.8" class="flat-house-4 fill-gray-600" opacity=".1" width="54" height="5.3"/>
<rect x="54.6" y="173.3" class="flat-house-4 fill-gray-600" width="54" height="5.3"/>
<g>
  <rect x="57.5" y="145.8" class="flat-house-5 fill-gray-400" width="48.3" height="12"/>
</g>
<g opacity=".7">
  <polygon class="flat-house-6 fill-primary-darker" points="224.4,58.2 165.5,12.6 108.4,58.2 103.9,52.6 165.4,3.5 228.8,52.6 	"/>
</g>
<rect x="121.6" y="8.4" class="flat-house-7 fill-danger" width="16.7" height="34.4"/>
<g>
	<polygon class="flat-house-0 fill-gray-300" points="218.9,283.6 111.8,283.6 111.8,52.1 165.8,50 218.9,52.1 	"/>
</g>
<polygon class="flat-house-8 fill-white" points="217.4,283.6 113.2,283.6 113.2,51.2 165.3,12 218.4,52.7 "/>
<rect x="152.2" y="239.6" class="flat-house-2 fill-primary" width="26.3" height="44"/>
<rect x="138.3" y="200.2" class="flat-house-4 fill-gray-600" width="54" height="5.3"/>
<rect x="141.2" y="172.2" class="flat-house-4 fill-gray-200" width="48.3" height="30.1"/>
<rect x="138.3" y="199.7" class="flat-house-4 fill-gray-600" width="54" height="5.3"/>
<g>
	<rect x="141.2" y="172.2" class="flat-house-4 fill-gray-400" width="48.3" height="12"/>
</g>
<rect x="141.2" y="113.1" class="flat-house-4 fill-gray-200" width="48.3" height="30.1"/>
<rect x="138.3" y="140.6" class="flat-house-4 fill-gray-600" width="54" height="5.3"/>
<g>
	<rect x="141.2" y="113.1" class="flat-house-4 fill-gray-400" width="48.3" height="12"/>
</g>
<rect x="141.2" y="54.1" class="flat-house-4 fill-gray-200" width="48.3" height="30.1"/>
<rect x="138.3" y="81.6" class="flat-house-4 fill-gray-600" width="54" height="5.3"/>
<g>
	<rect x="141.2" y="54.1" class="flat-house-4 fill-gray-400" width="48.3" height="12"/>
</g>
<polygon class="flat-house-6 fill-primary-darker" points="224.4,59.9 165.5,14.3 108.4,59.9 103.9,54.3 165.4,5.2 228.8,54.2 "/>
<circle class="flat-house-8 fill-white" cx="174.6" cy="261.6" r="1.9"/>
</svg>
