<?xml version="1.0" encoding="utf-8"?>
<!-- Generator: Adobe Illustrator 23.0.3, SVG Export Plug-In . SVG Version: 6.00 Build 0)  -->
<svg xmlns="http://www.w3.org/2000/svg" xmlns:xlink="http://www.w3.org/1999/xlink" x="0px" y="0px"
	 viewBox="0 0 418.8 473.2" style="enable-background:new 0 0 418.8 473.2;" xml:space="preserve">
<style type="text/css">
	.flowers-0{fill:none;stroke:#1E2022;}
	.flowers-1{fill:#00C9A7;}
</style>
<path class="flowers-0 fill-none stroke-dark" stroke-width="2.5" stroke-linecap="round" stroke-linejoin="round" d="M1.3,224.8c0,80.7,104,112,167.1,181c9.1,10,47.4,46.4,47.4,66.1h61.8c5.1,0,24.9-54.7,24.9-118.9
	c0-72.8-61.4-171.1-67.1-198.5c-9.3-44.2-26.1-153.2-87.6-153.2c-37.4,0-54.4,26.2-61.7,51.3c0.7-0.1,1.3-0.1,2-0.1
	c15.2,0,27.5,8.8,27.5,19.7S103.3,92,88.1,92c-2.3,0-4.6-0.2-6.9-0.6c1.9,34.1,25,87.1,25,101.4c0,8.4-2.3,17.2-10.7,17.2
	c-21.7,0-25.2-34.5-57.3-34.5C5.7,175.3,1.2,207,1.3,224.8z"/>
<path class="flowers-1 fill-success" d="M375.9,219.3c0-5.5,12.6-10.1,28.4-10.3c0.3-1.1,0.5-2.2,0.7-3.4c-16.1-0.1-29.1-4.6-29.1-10.3
	s13.3-10.3,29.7-10.3c1.2,0,2.4,0.1,3.6,0.1c6.3-34.2,9.5-68.9,9.6-103.7c0-11.5-2.6-25.5-8-25.5c-34.1,0-89.9,102.4-130.7,202.2
	c12.4,31.5,22.4,65.1,22.4,94.6c0,54.3-14.1,101.8-21.6,115.2c37.3-42.8,90.4-129.6,118.6-238.8C386,228.3,375.9,224.3,375.9,219.3z
	"/>
<path class="flowers-0 fill-none stroke-dark" stroke-width="2.5" stroke-linecap="round" stroke-linejoin="round" d="M302.4,353c0-72.8-61.4-171.1-67.1-198.5C226,110.3,209.2,1.3,147.7,1.3"/>
</svg>
