<?xml version="1.0" encoding="utf-8"?>
<!-- Generator: Adobe Illustrator 22.1.0, SVG Export Plug-In . SVG Version: 6.00 Build 0)  -->
<svg xmlns="http://www.w3.org/2000/svg" xmlns:xlink="http://www.w3.org/1999/xlink" x="0px" y="0px"
	 viewBox="0 0 149.5 116.1" style="enable-background:new 0 0 149.5 116.1;" xml:space="preserve">
<style type="text/css">
	.for-sale-0{fill:#F8FAFD;}
	.for-sale-1{fill:#19A0FF;}
	.for-sale-2{fill:none;stroke:#377DFF;}
	.for-sale-3{fill:none;stroke:#DE4437;}
	.for-sale-4{fill:#FFFFFF;}
	.for-sale-5{fill:#DE4437;}
	.for-sale-7{fill:none;}
	.for-sale-6{fill:none;stroke:#19A0FF;}
</style>
<path class="for-sale-0 fill-gray-200" d="M74.8,0.4C33.5,0.4,0,33.9,0,75.1c0,15,4.5,29,12.1,40.8h125.3c7.6-11.7,12.1-25.7,12.1-40.8
	C149.5,33.9,116,0.4,74.8,0.4z"/>
<g id="forSale_507_">
	<polygon id="forSale_363_" class="for-sale-1 fill-primary-lighter" opacity=".4" points="79.9,65.9 19.6,65.9 14.4,73.1 85,73.1 	"/>
	<polyline id="forSale_362_" class="for-sale-2 fill-none stroke-primary" stroke-width="1.5" stroke-miterlimit="10" points="85,73.1 79.9,65.9 19.6,65.9 14.4,73.1 	"/>
	<polygon id="forSale_359_" class="for-sale-2 fill-none stroke-primary" stroke-width="1.5" stroke-miterlimit="10" points="65.6,73 33.9,73 14.5,73 14.5,115.5 84.9,115.5 84.9,73 	"/>
	<rect id="forSale_358_" x="18.2" y="78.1" class="for-sale-1 fill-primary-lighter" opacity=".4" width="4.4" height="6.1"/>
	<rect id="forSale_357_" x="25.1" y="78.1" class="for-sale-1 fill-primary-lighter" opacity=".4" width="4.4" height="6.1"/>
	<rect id="forSale_356_" x="18.2" y="86.9" class="for-sale-1 fill-primary-lighter" opacity=".4" width="4.4" height="6.1"/>
	<rect id="forSale_355_" x="25.1" y="86.9" class="for-sale-1 fill-primary-lighter" opacity=".4" width="4.4" height="6.1"/>
	<rect id="forSale_354_" x="18.2" y="95.7" class="for-sale-1 fill-primary-lighter" opacity=".4" width="4.4" height="6.1"/>
	<rect id="forSale_353_" x="25.1" y="95.7" class="for-sale-1 fill-primary-lighter" opacity=".4" width="4.4" height="6.1"/>
	<rect id="forSale_352_" x="14.9" y="74" class="for-sale-1 fill-primary-lighter" opacity=".5" width="56.7" height="2.6"/>
	<rect id="forSale_351_" x="13.5" y="72.8" class="for-sale-4 fill-white" width="58" height="2.6"/>
	<rect id="forSale_350_" x="13.5" y="72.8" class="for-sale-2 fill-none stroke-primary" stroke-width="1.5" stroke-miterlimit="10" width="58" height="2.6"/>
	<rect id="forSale_349_" x="31.5" y="76.6" class="for-sale-1 fill-primary-lighter" opacity=".5" width="5.9" height="38.9"/>
	<rect id="forSale_348_" x="33.2" y="61.4" class="for-sale-4 fill-white" width="33.6" height="53.7"/>
	<rect id="forSale_347_" x="33.1" y="61.8" class="for-sale-2 fill-none stroke-primary" stroke-width="1.5" stroke-miterlimit="10" width="33.6" height="53.7"/>
	<rect id="forSale_346_" x="33.5" y="61.6" class="for-sale-1 fill-primary-lighter" opacity=".5" width="32.9" height="3.1"/>
	<rect id="forSale_345_" x="31.5" y="60.1" class="for-sale-4 fill-white" width="36.9" height="3.1"/>
	<polyline id="forSale_344_" class="for-sale-2 fill-none stroke-primary" stroke-width="1.5" stroke-miterlimit="10" points="65.1,63.2 31.5,63.2 31.5,60.1 64.3,60.1 	"/>
	<rect id="forSale_343_" x="43.6" y="67" class="for-sale-1 fill-primary-lighter" opacity=".4" width="4.4" height="9.2"/>
	<rect id="forSale_340_" x="51.8" y="67.1" class="for-sale-1 fill-primary-lighter" opacity=".4" width="4.4" height="9.2"/>
	<rect id="forSale_339_" x="43.6" y="79.1" class="for-sale-1 fill-primary-lighter" opacity=".4" width="4.4" height="9.2"/>
	<rect id="forSale_335_" x="51.8" y="79.1" class="for-sale-1 fill-primary-lighter" opacity=".4" width="4.4" height="9.2"/>
	<rect id="forSale_332_" x="35.4" y="79" class="for-sale-1 fill-primary-lighter" opacity=".4" width="4.4" height="9.2"/>
	<rect id="forSale_331_" x="35.2" y="67" class="for-sale-1 fill-primary-lighter" opacity=".4" width="4.4" height="9.2"/>
	<rect id="forSale_330_" x="60.1" y="67.1" class="for-sale-1 fill-primary-lighter" opacity=".4" width="4.4" height="9.2"/>
	<rect id="forSale_329_" x="60" y="79" class="for-sale-1 fill-primary-lighter" opacity=".4" width="4.4" height="9.2"/>
	<path id="forSale_328_" class="for-sale-4 fill-white" d="M55.7,115.3H44.4v-8.1c0-3.1,2.5-5.6,5.6-5.6l0,0c3.1,0,5.6,2.5,5.6,5.6v8.1H55.7z"/>
	<path id="forSale_327_" class="for-sale-2 fill-none stroke-primary" stroke-width="1.5" stroke-miterlimit="10" d="M55.7,115.3H44.4v-8.1c0-3.1,2.5-5.6,5.6-5.6l0,0c3.1,0,5.6,2.5,5.6,5.6v8.1H55.7z"/>
	<line id="forSale_326_" class="for-sale-2 fill-none stroke-primary" stroke-width="1.5" stroke-miterlimit="10" x1="50" y1="101.9" x2="50" y2="115.3"/>
	<rect id="forSale_324_" x="36.2" y="64.7" class="for-sale-1 fill-primary-lighter" opacity=".5" width="3" height="50.9"/>
	<rect id="forSale_323_" x="60.5" y="64.7" class="for-sale-1 fill-primary-lighter" opacity=".5" width="3.1" height="50.9"/>
	<rect id="forSale_319_" x="37.4" y="63.2" class="for-sale-4 fill-white" width="4.1" height="52.4"/>
	<rect id="forSale_317_" x="40" y="63.2" class="for-sale-1 fill-primary-lighter" opacity=".15" width="1.1" height="52.4"/>
	<rect id="forSale_316_" x="37.4" y="63.2" class="for-sale-2 fill-none stroke-primary" stroke-width="1.5" stroke-miterlimit="10" width="4.1" height="52.4"/>
	<rect id="forSale_315_" x="58.3" y="63.2" class="for-sale-4 fill-white" width="4.1" height="52.4"/>
	<rect id="forSale_313_" x="58.3" y="63.2" class="for-sale-1 fill-primary-lighter" opacity=".15" width="1.3" height="52.4"/>
	<rect id="forSale_312_" x="58.3" y="63.2" class="for-sale-2 fill-none stroke-primary" stroke-width="1.5" stroke-miterlimit="10" width="4.1" height="52.4"/>
	<polygon id="forSale_311_" class="for-sale-1 fill-primary-lighter" opacity=".4" points="70.9,60.4 29.2,60.4 50,45.2 	"/>
	<polyline id="forSale_310_" class="for-sale-2 fill-none stroke-primary" stroke-width="1.5" stroke-miterlimit="10" points="65.1,60.4 29.2,60.4 50,45.2 65.5,56.5 	"/>
	<line id="forSale_309_" class="for-sale-6 fill-none stroke-primary-lighter" stroke-width="1.5" stroke-miterlimit="10" x1="23.1" y1="101.8" x2="17.6" y2="101.8"/>
	<line id="forSale_308_" class="for-sale-6 fill-none stroke-primary-lighter" stroke-width="1.5" stroke-miterlimit="10" x1="30" y1="101.8" x2="24.5" y2="101.8"/>
	<line id="forSale_307_" class="for-sale-6 fill-none stroke-primary-lighter" stroke-width="1.5" stroke-miterlimit="10" x1="23.1" y1="93" x2="17.6" y2="93"/>
	<line id="forSale_306_" class="for-sale-6 fill-none stroke-primary-lighter" stroke-width="1.5" stroke-miterlimit="10" x1="30" y1="93" x2="24.5" y2="93"/>
	<line id="forSale_304_" class="for-sale-6 fill-none stroke-primary-lighter" stroke-width="1.5" stroke-miterlimit="10" x1="23.1" y1="84.1" x2="17.6" y2="84.1"/>
	<line id="forSale_303_" class="for-sale-6 fill-none stroke-primary-lighter" stroke-width="1.5" stroke-miterlimit="10" x1="30" y1="84.1" x2="24.5" y2="84.1"/>
	<line id="forSale_301_" class="for-sale-6 fill-none stroke-primary-lighter" stroke-width="1.5" stroke-miterlimit="10" x1="48.4" y1="88.3" x2="43" y2="88.3"/>
	<line id="forSale_300_" class="for-sale-6 fill-none stroke-primary-lighter" stroke-width="1.5" stroke-miterlimit="10" x1="57" y1="88.3" x2="51.5" y2="88.3"/>
	<line id="forSale_299_" class="for-sale-6 fill-none stroke-primary-lighter" stroke-width="1.5" stroke-miterlimit="10" x1="48.4" y1="76.2" x2="43" y2="76.2"/>
	<line id="forSale_295_" class="for-sale-6 fill-none stroke-primary-lighter" stroke-width="1.5" stroke-miterlimit="10" x1="36.8" y1="76.2" x2="34.7" y2="76.2"/>
	<line id="forSale_294_" class="for-sale-6 fill-none stroke-primary-lighter" stroke-width="1.5" stroke-miterlimit="10" x1="36.8" y1="88.2" x2="34.7" y2="88.2"/>
	<line id="forSale_291_" class="for-sale-6 fill-none stroke-primary-lighter" stroke-width="1.5" stroke-miterlimit="10" x1="57" y1="76.2" x2="51.5" y2="76.2"/>
</g>
<g id="forSale_142_" opacity=".5">
	<path id="forSale_198_" class="for-sale-1 fill-primary-lighter" opacity=".15" d="M119.7,20.5L119.7,20.5c-0.6-1.7-2.2-3-4.1-3c-0.8,0-1.6,0.2-2.2,0.7
		c-0.4-2.7-2.7-4.8-5.6-4.8c-2.5,0-4.7,1.7-5.4,4c-0.3-0.1-0.7-0.1-1-0.1c-1.9,0-3.5,1.4-3.8,3.3H97c-1.6,0-2.9,1.3-2.9,2.9v0.2
		c0,1.6,1.3,2.9,2.9,2.9h22.7c1.6,0,2.9-1.3,2.9-2.9v-0.2C122.6,21.8,121.3,20.5,119.7,20.5z"/>
	<path id="forSale_192_" class="for-sale-1 fill-primary-lighter" opacity=".15" d="M101,26.4h-4c-1.6,0-2.9-1.3-2.9-2.9v-0.2c0-1.6,1.3-2.9,2.9-2.9h0.6
		c0.3-1.8,1.9-3.3,3.8-3.3c0.3,0,0.7,0.1,1,0.1c0.7-2.3,2.9-4,5.4-4c2.8,0,5.1,2.1,5.6,4.8c0.6-0.4,1.4-0.7,2.2-0.7
		c1.9,0,3.5,1.3,4,3h0.1c1.6,0,2.9,1.3,2.9,2.9v0.2c0,1.6-1.3,2.9-2.9,2.9h-4.4H101V26.4z"/>
</g>
<g id="forSale_179_" opacity=".5">
	<path id="forSale_181_" class="for-sale-1 fill-primary-lighter" opacity=".15" d="M65.8,5.1L65.8,5.1C65.4,3.9,64.2,3,62.9,3c-0.6,0-1.1,0.2-1.6,0.5c-0.3-1.9-2-3.4-4-3.4
		c-1.8,0-3.3,1.2-3.8,2.8c-0.2-0.1-0.5-0.1-0.7-0.1c-1.4,0-2.5,1-2.7,2.3h-0.5c-1.1,0-2.1,0.9-2.1,2.1v0.2c0,1.1,0.9,2.1,2.1,2.1
		h16.2c1.1,0,2.1-0.9,2.1-2.1V7.1C67.9,6,67,5.1,65.8,5.1z"/>
	<path id="forSale_180_" class="for-sale-1 fill-primary-lighter" opacity=".15" d="M52.5,9.3h-2.9c-1.1,0-2.1-0.9-2.1-2.1V7.1C47.5,6,48.4,5,49.6,5h0.5
		c0.2-1.3,1.3-2.3,2.7-2.3c0.2,0,0.5,0,0.7,0.1C54,1.2,55.5,0,57.4,0c2,0,3.7,1.5,4,3.4c0.5-0.3,1-0.5,1.6-0.5
		c1.3,0,2.5,0.9,2.8,2.1h0.1C67,5,68,5.9,68,7.1v0.2c0,1.1-0.9,2.1-2.1,2.1h-3.1L52.5,9.3L52.5,9.3z"/>
</g>
<g id="forSale_176_" opacity=".5">
	<path id="forSale_178_" class="for-sale-1 fill-primary-lighter" opacity=".15" d="M147.8,33.5L147.8,33.5c-0.3-0.8-1-1.3-1.8-1.3c-0.4,0-0.7,0.1-1,0.3
		c-0.2-1.2-1.2-2.2-2.5-2.2c-1.1,0-2.1,0.8-2.4,1.8c-0.1,0-0.3-0.1-0.5-0.1c-0.9,0-1.6,0.6-1.7,1.5h-0.3c-0.7,0-1.3,0.6-1.3,1.3v0.1
		c0,0.7,0.6,1.3,1.3,1.3h10.3c0.7,0,1.3-0.6,1.3-1.3v-0.1C149.1,34.1,148.5,33.5,147.8,33.5z"/>
	<path id="forSale_177_" class="for-sale-1 fill-primary-lighter" opacity=".15" d="M139.3,36.3h-1.8c-0.7,0-1.3-0.6-1.3-1.3v-0.1c0-0.7,0.6-1.3,1.3-1.3h0.3
		c0.1-0.8,0.9-1.5,1.7-1.5c0.2,0,0.3,0,0.5,0.1c0.3-1,1.3-1.8,2.4-1.8c1.3,0,2.3,0.9,2.5,2.2c0.3-0.2,0.6-0.3,1-0.3
		c0.9,0,1.6,0.6,1.8,1.3h0.1c0.7,0,1.3,0.6,1.3,1.3V35c0,0.7-0.6,1.3-1.3,1.3h-2H139.3z"/>
</g>
<g id="forSale_125_">
	<rect id="forSale_279_" x="65.5" y="50.9" class="for-sale-4 fill-white" width="53.9" height="64.9"/>
	<polyline id="forSale_124_" class="for-sale-2 fill-none stroke-primary" stroke-width="1.5" stroke-miterlimit="10" points="65.5,115.6 65.5,50.9 119.4,50.9 119.4,115.8 	"/>
	<rect id="forSale_275_" x="86.1" y="96.6" class="for-sale-1 fill-primary-lighter" opacity=".4" width="12.8" height="18.9"/>
	<rect id="forSale_9_" x="86.1" y="96.6" class="for-sale-2 fill-none stroke-primary" stroke-width="1.5" stroke-miterlimit="10" width="12.8" height="18.9"/>
	<line class="for-sale-7 fill-none" x1="65.8" y1="115.4" x2="119.8" y2="115.4"/>
	<line id="forSale_8_" class="for-sale-2 fill-none stroke-primary" stroke-width="1.5" stroke-miterlimit="10" x1="92.5" y1="97.9" x2="92.5" y2="114.1"/>
	<rect id="forSale_271_" x="71.3" y="60" class="for-sale-1 fill-primary-lighter" opacity=".4" width="6.3" height="6.3"/>
	<rect id="forSale_270_" x="83.1" y="60" class="for-sale-1 fill-primary-lighter" opacity=".4" width="6.3" height="6.3"/>
	<rect id="forSale_7_" x="94.9" y="60" class="for-sale-1 fill-primary-lighter" opacity=".4" width="6.3" height="6.3"/>
	<rect id="forSale_6_" x="106.8" y="60" class="for-sale-1 fill-primary-lighter" opacity=".4" width="6.3" height="6.3"/>
	<rect id="forSale_257_" x="71.3" y="70.9" class="for-sale-1 fill-primary-lighter" opacity=".4" width="6.3" height="6.3"/>
	<rect id="forSale_255_" x="83.1" y="70.9" class="for-sale-1 fill-primary-lighter" opacity=".4" width="6.3" height="6.3"/>
	<rect id="forSale_254_" x="94.9" y="70.9" class="for-sale-1 fill-primary-lighter" opacity=".4" width="6.3" height="6.3"/>
	<rect id="forSale_5_" x="106.8" y="70.9" class="for-sale-1 fill-primary-lighter" opacity=".4" width="6.3" height="6.3"/>
	<rect id="forSale_252_" x="71.3" y="81.7" class="for-sale-1 fill-primary-lighter" opacity=".4" width="6.3" height="6.3"/>
	<rect id="forSale_249_" x="83.1" y="81.7" class="for-sale-1 fill-primary-lighter" opacity=".4" width="6.3" height="6.3"/>
	<rect id="forSale_247_" x="94.9" y="81.7" class="for-sale-1 fill-primary-lighter" opacity=".4" width="6.3" height="6.3"/>
	<rect id="forSale_246_" x="106.8" y="81.7" class="for-sale-1 fill-primary-lighter" opacity=".4" width="6.3" height="6.3"/>
	<rect id="forSale_245_" x="71.3" y="60" class="for-sale-2 fill-none stroke-primary" stroke-width="1.5" stroke-miterlimit="10" width="6.3" height="6.3"/>
	<rect id="forSale_4_" x="83.1" y="60" class="for-sale-2 fill-none stroke-primary" stroke-width="1.5" stroke-miterlimit="10" width="6.3" height="6.3"/>
	<rect id="forSale_242_" x="94.9" y="60" class="for-sale-2 fill-none stroke-primary" stroke-width="1.5" stroke-miterlimit="10" width="6.3" height="6.3"/>
	<rect id="forSale_241_" x="106.8" y="60" class="for-sale-2 fill-none stroke-primary" stroke-width="1.5" stroke-miterlimit="10" width="6.3" height="6.3"/>
	<rect id="forSale_230_" x="71.3" y="70.9" class="for-sale-2 fill-none stroke-primary" stroke-width="1.5" stroke-miterlimit="10" width="6.3" height="6.3"/>
	<rect id="forSale_227_" x="83.1" y="70.9" class="for-sale-2 fill-none stroke-primary" stroke-width="1.5" stroke-miterlimit="10" width="6.3" height="6.3"/>
	<rect id="forSale_219_" x="94.9" y="70.9" class="for-sale-2 fill-none stroke-primary" stroke-width="1.5" stroke-miterlimit="10" width="6.3" height="6.3"/>
	<rect id="forSale_3_" x="106.8" y="70.9" class="for-sale-2 fill-none stroke-primary" stroke-width="1.5" stroke-miterlimit="10" width="6.3" height="6.3"/>
	<rect id="forSale_204_" x="71.3" y="81.7" class="for-sale-2 fill-none stroke-primary" stroke-width="1.5" stroke-miterlimit="10" width="6.3" height="6.3"/>
	<rect id="forSale_203_" x="71.3" y="96.5" class="for-sale-1 fill-primary-lighter" opacity=".4" width="6.3" height="13.9"/>
	<rect id="forSale_200_" x="106.8" y="96.5" class="for-sale-1 fill-primary-lighter" opacity=".4" width="6.3" height="13.9"/>
	<rect id="forSale_197_" x="71.3" y="96.5" class="for-sale-2 fill-none stroke-primary" stroke-width="1.5" stroke-miterlimit="10" width="6.3" height="13.9"/>
	<rect id="forSale_191_" x="106.8" y="96.5" class="for-sale-2 fill-none stroke-primary" stroke-width="1.5" stroke-miterlimit="10" width="6.3" height="13.9"/>
	<rect id="forSale_2_" x="83.1" y="81.7" class="for-sale-2 fill-none stroke-primary" stroke-width="1.5" stroke-miterlimit="10" width="6.3" height="6.3"/>
	<rect id="forSale_1_" x="94.9" y="81.7" class="for-sale-2 fill-none stroke-primary" stroke-width="1.5" stroke-miterlimit="10" width="6.3" height="6.3"/>
	<rect id="forSale_165_" x="106.8" y="81.7" class="for-sale-2 fill-none stroke-primary" stroke-width="1.5" stroke-miterlimit="10" width="6.3" height="6.3"/>
	<rect id="forSale_162_" x="63.3" y="45.3" class="for-sale-4 fill-white" width="58.3" height="7.7"/>
	<path id="forSale_160_" class="for-sale-2 fill-none stroke-primary" stroke-width="1.5" stroke-miterlimit="10" d="M121.1,53H63.8c-0.3,0-0.5-0.2-0.5-0.5v-6.7c0-0.3,0.2-0.5,0.5-0.5h57.3
		c0.3,0,0.5,0.2,0.5,0.5v6.7C121.6,52.8,121.4,53,121.1,53z"/>
	<path id="forSale_158_" class="for-sale-2 fill-none stroke-primary" stroke-width="1.5" stroke-miterlimit="10" d="M75.5,41.9l-2.9-1.5l-2.9,1.5c-0.1,0-0.2,0-0.2-0.1l0.6-3.2l-2.3-2.3
		c-0.1-0.1,0-0.2,0.1-0.2l3.2-0.5l1.5-2.9c0-0.1,0.2-0.1,0.2,0l1.4,2.9l3.2,0.5c0.1,0,0.1,0.1,0.1,0.2l-2.4,2.3L75.5,41.9
		C75.7,41.9,75.6,42,75.5,41.9z"/>
	<path id="forSale_153_" class="for-sale-2 fill-none stroke-primary" stroke-width="1.5" stroke-miterlimit="10" d="M88.5,41.9l-2.9-1.5l-2.9,1.5c-0.1,0-0.2,0-0.2-0.1l0.6-3.2l-2.3-2.3
		c-0.1-0.1,0-0.2,0.1-0.2l3.2-0.5l1.5-2.9c0-0.1,0.2-0.1,0.2,0l1.4,2.9l3.2,0.5c0.1,0,0.1,0.1,0.1,0.2l-2.4,2.3L88.5,41.9
		C88.7,41.9,88.6,42,88.5,41.9z"/>
	<path id="forSale_152_" class="for-sale-2 fill-none stroke-primary" stroke-width="1.5" stroke-miterlimit="10" d="M101.6,41.9l-2.9-1.5l-2.9,1.5c-0.1,0-0.2,0-0.2-0.1l0.6-3.2l-2.3-2.3
		c-0.1-0.1,0-0.2,0.1-0.2l3.2-0.5l1.5-2.9c0-0.1,0.2-0.1,0.2,0l1.4,2.9l3.2,0.5c0.1,0,0.1,0.1,0.1,0.2l-2.4,2.3L101.6,41.9
		C101.8,41.9,101.7,42,101.6,41.9z"/>
	<path id="forSale_149_" class="for-sale-2 fill-none stroke-primary" stroke-width="1.5" stroke-miterlimit="10" d="M114.6,41.9l-2.9-1.5l-2.9,1.5c-0.1,0-0.2,0-0.2-0.1l0.6-3.2l-2.3-2.3
		c-0.1-0.1,0-0.2,0.1-0.2l3.2-0.5l1.5-2.9c0-0.1,0.2-0.1,0.2,0l1.4,2.9l3.2,0.5c0.1,0,0.1,0.1,0.1,0.2l-2.4,2.3L114.6,41.9
		C114.8,41.9,114.7,42,114.6,41.9z"/>
	<g id="forSale_128_">
		<path class="for-sale-5 fill-danger" d="M144.1,106.5h-20.3c-0.6,0-1-0.5-1-1V93.9c0-0.6,0.5-1,1-1h20.3c0.6,0,1,0.5,1,1v11.6
			C145.1,106,144.7,106.5,144.1,106.5z"/>
		<g>
			<path class="for-sale-4 fill-white" d="M129.4,95h2.2v0.6h-1.5v0.9h1.1V97h-1.1v1.5h-0.7V95z"/>
			<path class="for-sale-4 fill-white" d="M133.6,98.5c-1,0-1.8-0.7-1.8-1.8c0-1,0.8-1.8,1.8-1.8s1.8,0.7,1.8,1.8C135.4,97.7,134.6,98.5,133.6,98.5z
				 M133.6,97.9c0.6,0,1.1-0.5,1.1-1.2s-0.4-1.2-1.1-1.2c-0.6,0-1.1,0.4-1.1,1.2S133,97.9,133.6,97.9z"/>
			<path class="for-sale-4 fill-white" d="M137.3,95c0.8,0,1.3,0.5,1.3,1.1c0,0.4-0.2,0.9-0.8,1l0.8,1.4h-0.8l-0.8-1.4h-0.3v1.4H136V95H137.3z
				 M137.2,95.5h-0.6v1h0.6c0.4,0,0.6-0.2,0.6-0.5S137.6,95.5,137.2,95.5z"/>
			<path class="for-sale-4 fill-white" d="M129.7,104.5c-0.7,0-1.3-0.4-1.3-1h0.8c0,0.3,0.2,0.5,0.5,0.5s0.5-0.2,0.5-0.4c0-0.8-1.8-0.3-1.8-1.6
				c0-0.6,0.5-1,1.2-1s1.2,0.4,1.3,1h-0.8c0-0.2-0.2-0.4-0.5-0.4s-0.5,0.1-0.5,0.4c0,0.7,1.8,0.3,1.8,1.5
				C130.9,104,130.5,104.5,129.7,104.5z"/>
			<path class="for-sale-4 fill-white" d="M133.7,103.8h-1.4l-0.2,0.7h-0.7l1.3-3.5h0.8l1.3,3.5h-0.7L133.7,103.8z M133,101.8l-0.5,1.5h1L133,101.8z"
				/>
			<path class="for-sale-4 fill-white" d="M135.8,101v2.9h1.2v0.6h-1.9V101H135.8z"/>
			<path class="for-sale-4 fill-white" d="M139.4,101.5h-1.3v0.9h1.2v0.6h-1.2v0.9h1.3v0.6h-2V101h2V101.5z"/>
		</g>
		<line id="forSale_129_" class="for-sale-3 fill-none stroke-danger" x1="133.9" y1="106.5" x2="133.9" y2="115.2"/>
	</g>
</g>
</svg>
