<?xml version="1.0" encoding="utf-8"?>
<!-- Generator: Adobe Illustrator 23.0.3, SVG Export Plug-In . SVG Version: 6.00 Build 0)  -->
<svg xmlns="http://www.w3.org/2000/svg" xmlns:xlink="http://www.w3.org/1999/xlink" x="0px" y="0px"
	 viewBox="0 0 501.8 402.8" style="enable-background:new 0 0 501.8 402.8;" xml:space="preserve">
<style type="text/css">
	.full-stack-0{fill:#E7EAF3;}
	.full-stack-1{fill:#377DFF;}
	.full-stack-2{fill:#BDC5D1;}
	.full-stack-3{fill:#FFFFFF;}
	.full-stack-4{fill:none;stroke:#FFFFFF;}
	.full-stack-5{fill:none;stroke:#1E2022;}
	.full-stack-6{fill:none;stroke:#00C9A7;}
	.full-stack-7{fill:none;stroke:#BDC5D1;}
	.full-stack-8{fill:none;stroke:#E7EAF3;}
	.full-stack-9{fill:#00C9A7;}
	.full-stack-10{fill:#FFC107;}
	.full-stack-11{fill:#1E2022;}
</style>
<g id="Shadows">
	<path class="full-stack-0 fill-gray-300" d="M228.1,263.8c0-2.8,0-18.9,3.3-26.8c1.9-2.5,3.3-4.1,3.3-4.1l-3.3-4l0.5-3.5l6.7-9.1l9.1-9.3l6.7-3.4l5.8,0.4
		l1.2,0.5l-5.4,6.9l-3.9,9.2l-2.4,7.1l-1.9,5.4l-1.4,8.1l-1.2,5.2l-1.1,7.6l-5.8,4.6l-7.3,5.8L228.1,263.8z"/>
	<path class="full-stack-0 fill-gray-300" d="M294.9,239.6c0,2.5-11.6,51.8-32.6,63.2c29.8,3.4,36.7,0.7,36.7,0.7l6.2-3l2.6-8.3l0.9-15.2l-0.1-12.4
		l-0.9-16.6l-3.7-2.7l-4-0.1l-1.2-0.3l-2.3-2.4L294.9,239.6z"/>
</g>
<polygon class="full-stack-0 fill-gray-300" points="12.6,104.1 12.6,218.4 181,218.4 178.6,215.3 179.5,208.3 181.9,203.6 177.8,200.1 173.7,196.7
	171.7,192.4 173.7,189.6 193.8,207.4 205.8,218.4 213.3,218.4 213.3,104.1 "/>
<path class="full-stack-0 fill-gray-300" d="M352.9,177.2v72.2c9.3,3,22.3,7,34.3,8.9c1.8-0.9,3.9-1.3,5.9-1.3c5.8,0,10.6,3.5,10.6,7.8s-4.7,7.8-10.6,7.8
	c-2.7,0.1-5.4-0.8-7.6-2.4c-4.1-0.5-19.6-2.5-32.7-4.3v128.9H466V177.2H352.9z"/>
<path class="full-stack-1 fill-primary" d="M385.6,270.2c-3.1-0.4-13-1.6-23.3-3v3.4h23.8C385.9,270.5,385.8,270.4,385.6,270.2z"/>
<path class="full-stack-1 fill-primary" d="M362.7,252.4c7.6,2.3,16.3,4.5,24.5,5.8c1.8-0.9,3.9-1.3,5.9-1.3c5.8,0,10.6,3.5,10.6,7.8
	c0,2.3-1.4,4.4-3.5,5.8h56.4v-18.2h-93.9V252.4z"/>
<rect x="465.7" y="177.2" class="full-stack-2 fill-gray-400" width="26.3" height="217.7"/>
<rect x="362.3" y="190.9" class="full-stack-1 fill-primary" width="94.3" height="18.2"/>
<circle class="full-stack-3 fill-white" cx="369.1" cy="197.8" r="3.2"/>
<line class="full-stack-4 fill-none stroke-white" stroke-width="2" stroke-linecap="round" stroke-linejoin="round" x1="424" y1="197.8" x2="374.9" y2="197.8"/>
<rect x="362.3" y="221.7" class="full-stack-1 fill-primary" width="94.3" height="18.2"/>
<circle class="full-stack-3 fill-white" cx="369.1" cy="228.5" r="3.2"/>
<line class="full-stack-4 fill-none stroke-white" stroke-width="2" stroke-linecap="round" stroke-linejoin="round" x1="424" y1="228.5" x2="374.9" y2="228.5"/>
<line class="full-stack-4 fill-none stroke-white" stroke-width="2" stroke-linecap="round" stroke-linejoin="round" x1="424" y1="259.2" x2="400.6" y2="259.2"/>
<rect x="362.3" y="283.1" class="full-stack-1 fill-primary" width="94.3" height="18.2"/>
<circle class="full-stack-3 fill-white" cx="369.1" cy="290" r="3.2"/>
<line class="full-stack-4 fill-none stroke-white" stroke-width="2" stroke-linecap="round" stroke-linejoin="round" x1="424" y1="290" x2="374.9" y2="290"/>
<rect x="362.3" y="313.9" class="full-stack-1 fill-primary" width="94.3" height="18.2"/>
<circle class="full-stack-3 fill-white" cx="369.1" cy="320.7" r="3.2"/>
<line class="full-stack-4 fill-none stroke-white" stroke-width="2" stroke-linecap="round" stroke-linejoin="round" x1="424" y1="320.7" x2="374.9" y2="320.7"/>
<line class="full-stack-4 fill-none stroke-white" stroke-width="1" stroke-linecap="round" stroke-linejoin="round" x1="485.9" y1="204" x2="471.7" y2="204"/>
<line class="full-stack-4 fill-none stroke-white" stroke-width="1" stroke-linecap="round" stroke-linejoin="round" x1="485.9" y1="207.7" x2="471.7" y2="207.7"/>
<line class="full-stack-4 fill-none stroke-white" stroke-width="1" stroke-linecap="round" stroke-linejoin="round" x1="485.9" y1="228.9" x2="471.7" y2="228.9"/>
<line class="full-stack-4 fill-none stroke-white" stroke-width="1" stroke-linecap="round" stroke-linejoin="round" x1="485.9" y1="232.6" x2="471.7" y2="232.6"/>
<line class="full-stack-4 fill-none stroke-white" stroke-width="1" stroke-linecap="round" stroke-linejoin="round" x1="485.9" y1="259.2" x2="471.7" y2="259.2"/>
<line class="full-stack-4 fill-none stroke-white" stroke-width="1" stroke-linecap="round" stroke-linejoin="round" x1="485.9" y1="262.9" x2="471.7" y2="262.9"/>
<line class="full-stack-4 fill-none stroke-white" stroke-width="1" stroke-linecap="round" stroke-linejoin="round" x1="485.9" y1="288.5" x2="471.7" y2="288.5"/>
<line class="full-stack-4 fill-none stroke-white" stroke-width="1" stroke-linecap="round" stroke-linejoin="round" x1="485.9" y1="292.2" x2="471.7" y2="292.2"/>
<path class="full-stack-2 fill-gray-400" d="M37.9,120.7h91.3c6.2,0,11.2,5,11.2,11.2V192c0,6.2-5,11.2-11.2,11.2H37.9c-6.2,0-11.2-5-11.2-11.2v-60.1
	C26.6,125.7,31.7,120.7,37.9,120.7z"/>
<path class="full-stack-5 fill-none stroke-dark" stroke-width="1.18" stroke-linecap="round" stroke-linejoin="round" d="M303.6,245.1c7.6,6,25.2,16.5,30.2,17.8c5.2,1.4,44.9,6.4,51.9,7.3c2.2,1.6,4.9,2.4,7.6,2.4
	c5.8,0,10.6-3.5,10.6-7.8s-4.7-7.8-10.6-7.8c-2,0-4.1,0.4-5.9,1.3c-19.4-3.1-41.3-11.4-46.4-12.8c-3.9-4.5-11.6-10.8-16.6-14.8"/>
<path class="full-stack-5 fill-none stroke-dark" stroke-width="1.18" stroke-linecap="round" stroke-linejoin="round" d="M193.1,222c13.4,20,31.1,42.2,36.7,42.2c2.4,0,9.2-5.6,14.6-10.8"/>
<path class="full-stack-5 fill-none stroke-dark" stroke-width="1.18" stroke-linecap="round" stroke-linejoin="round" d="M234.7,232.8c-1.9,2.3-4.3,5.4-5.1,6.9c-3.1-2.7-54.3-49.8-55.5-49.8c-1.1,0-2,0.9-2.1,2
	c0,6.2,4.5,6.5,10.1,12.5"/>
<path class="full-stack-5 fill-none stroke-dark" stroke-width="1.18" stroke-linecap="round" stroke-linejoin="round" d="M261.2,204.3c-11.9-6-30.1,19.5-29.7,23.8c0.3,2.8,7.7,9.3,14.9,13"/>
<path class="full-stack-5 fill-none stroke-dark" stroke-width="1.18" stroke-linecap="round" stroke-linejoin="round" d="M307.3,247.8c2.8,25.1,0.7,50.4-2.4,52.9c-7.8,6.3-58.1,0.5-60.9-2.9c-2.7-3.3-4.7-95.1,30.3-101.4"/>
<path class="full-stack-5 fill-none stroke-dark" stroke-width="1.18" stroke-linecap="round" stroke-linejoin="round" d="M283.9,197c4.3,1.5,7.8,4.6,10.8,8.9"/>
<path class="full-stack-5 fill-none stroke-dark" stroke-width="1.18" stroke-linecap="round" stroke-linejoin="round" d="M290.7,210.1c0.8-1.7,2.1-3.1,3.7-4.1c11.9-7.2,30.7,19.1,30.3,23.5c-0.4,4.4-17.8,17.2-25,15.7
	c-1.5-0.3-3.8-3.5-5.8-8"/>
<path class="full-stack-5 fill-none stroke-dark" stroke-width="1.18" stroke-linecap="round" stroke-linejoin="round" d="M182.1,204.4c-4.3,3.9-4.7,10.5-0.8,14.9c3,3.3,7.7,4.4,11.8,2.8"/>
<rect x="68.8" y="2.9" class="full-stack-0 fill-gray-300" width="143.2" height="84.9"/>
<rect x="9.8" y="2" class="full-stack-1 fill-primary" width="50.3" height="84.9"/>
<path class="full-stack-6 fill-none stroke-success" stroke-width="1" stroke-linecap="round" stroke-linejoin="round" d="M84.1,75.5c4.2-5,11.6-13.5,25-16.4c20.1-4.3,25.9-27.8,35.5-27.8c12.1,0,17.2,6.9,22.2,6.9
	c10,0,20.6-9.3,26.1-23"/>
<rect x="17.2" y="15.4" class="full-stack-3 fill-white" width="35.6" height="3.3"/>
<rect x="17.2" y="26.4" class="full-stack-3 fill-white" width="35.6" height="3.3"/>
<rect x="17.2" y="37.3" class="full-stack-3 fill-white" width="35.6" height="3.3"/>
<rect x="17.1" y="48.3" class="full-stack-3 fill-white" width="35.6" height="3.3"/>
<rect x="17.1" y="59.2" class="full-stack-3 fill-white" width="35.6" height="3.3"/>
<rect x="17.1" y="70.2" class="full-stack-3 fill-white" width="35.6" height="3.3"/>
<rect x="35" y="131.9" class="full-stack-3 fill-white" width="48" height="3.3"/>
<rect x="35" y="142.8" class="full-stack-3 fill-white" width="48" height="3.3"/>
<rect x="35" y="153.8" class="full-stack-3 fill-white" width="48" height="3.3"/>
<rect x="34.9" y="164.7" class="full-stack-3 fill-white" width="48" height="3.3"/>
<rect x="34.9" y="175.7" class="full-stack-3 fill-white" width="48" height="3.3"/>
<rect x="34.9" y="186.6" class="full-stack-3 fill-white" width="48" height="3.3"/>
<path class="full-stack-3 fill-white" d="M113.6,113.3h58.2c6.2,0,11.2,5,11.2,11.2v26.2c0,6.2-5,11.2-11.2,11.2h-58.2c-6.2,0-11.2-5-11.2-11.2v-26.2
	C102.4,118.4,107.4,113.3,113.6,113.3z"/>
<circle class="full-stack-2 fill-gray-400" cx="140.8" cy="119.6" r="2.7"/>
<circle class="full-stack-2 fill-gray-400" cx="140.8" cy="155.8" r="2.7"/>
<line class="full-stack-7 fill-none stroke-gray-400" stroke-width="1" stroke-linecap="round" stroke-linejoin="round" x1="140.8" y1="120.5" x2="140.8" y2="155"/>
<line class="full-stack-7 fill-none stroke-gray-400" stroke-width="1" stroke-linecap="round" stroke-linejoin="round" x1="147.4" y1="125" x2="147.4" y2="145.1"/>
<line class="full-stack-7 fill-none stroke-gray-400" stroke-width="1" stroke-linecap="round" stroke-linejoin="round" x1="140.8" y1="155.8" x2="147.4" y2="145.1"/>
<path class="full-stack-0 fill-gray-300" d="M393.9,116c-7.6-7.5-7.7-19.7-0.3-27.3c5.4-5.5,13.5-7.3,20.7-4.5c8.1-12.4,24.6-15.9,37-7.8
	c4.4,2.9,7.9,7.1,10,11.9c9.9-4,21.1,0.8,25.1,10.7c2.2,5.5,1.8,11.8-1.2,17L393.9,116z"/>
<line class="full-stack-8 fill-none stroke-gray-300" stroke-width="2" stroke-miterlimit="10" x1="474.9" y1="114.4" x2="474.9" y2="179.4"/>
<path class="full-stack-8 fill-none stroke-gray-300" stroke-width="2" stroke-linecap="round" stroke-linejoin="round" d="M350,150.4c3.4,6.5,10.9,8.9,16.8,8.9c14.1,0,19.5-13.6,19.5-18.2"/>
<path class="full-stack-8 fill-none stroke-gray-300" stroke-width="2" stroke-linecap="round" stroke-linejoin="round" d="M349.1,81.7c3.1,5.9,4.7,12.2,4.7,17.7c0,13-2.2,21.9-3.8,29.7"/>
<path class="full-stack-8 fill-none stroke-gray-300" stroke-width="2" stroke-linecap="round" stroke-linejoin="round" d="M277.9,73.2c9.6-8,20.3-13.9,33.1-13.9c10.5,0,19,3.1,25.6,7.9"/>
<path class="full-stack-8 fill-none stroke-gray-300" stroke-width="2" stroke-linecap="round" stroke-linejoin="round" d="M226.4,114.7c10,0,19.2-8.5,29-18.9"/>
<rect x="258.8" y="76.1" class="full-stack-1 fill-primary" width="14.1" height="14.1"/>
<circle class="full-stack-9 fill-success" cx="342.9" cy="73.4" r="6.2"/>
<polygon class="full-stack-10 fill-warning" points="360.2,140.1 346.3,131.1 345.4,147.5 "/>
<path class="full-stack-5 fill-none stroke-dark" stroke-width="1.18" stroke-linecap="round" stroke-linejoin="round" d="M283.9,183.4c0,0-0.4,16.8-0.3,19.2c0,1.4-5.1,2.3-9.2,1.9"/>
<path class="full-stack-5 fill-none stroke-dark" stroke-width="1.18" stroke-linecap="round" stroke-linejoin="round" d="M274.5,192.3c-0.6,0.1-1.2,0.1-1.8,0.1c-7.6-0.1-13.7-8.9-13.5-19.5c0-4.1,1.1-8.2,3.1-11.8"/>
<path class="full-stack-5 fill-none stroke-dark" stroke-width="1.18" stroke-linecap="round" stroke-linejoin="round" d="M285.4,170.3c2.5,0.1,4.4,2.1,4.3,4.6s-2.1,4.4-4.6,4.3c-0.9,0-1.8-0.3-2.5-0.8"/>
<path class="full-stack-5 fill-none stroke-dark" stroke-width="1.18" stroke-linecap="round" stroke-linejoin="round" d="M290.9,172.7c2.4-1.7,2.7-13.7-3.2-17.6c-5.8-3.8-21.8-4.5-29.5-14.2"/>
<path class="full-stack-5 fill-none stroke-dark" stroke-width="1.18" stroke-linecap="round" stroke-linejoin="round" d="M261.9,154.2c-1.7-1.2-7.1-8.3-8-10.2"/>
<path class="full-stack-5 fill-none stroke-dark" stroke-width="1.18" stroke-linecap="round" stroke-linejoin="round" d="M256.7,157.1c-1.9-2-3.3-5.4-3.9-7.7"/>
<ellipse transform="matrix(0.986 -0.1669 0.1669 0.986 -24.741 47.4262)" class="full-stack-11 fill-dark" cx="269.8" cy="170.9" rx="1.1" ry="1.2"/>
<path class="full-stack-5 fill-none stroke-dark" stroke-width="1.18" stroke-linecap="round" stroke-linejoin="round" d="M265.2,169.5c0,1.3-0.7,4.9-2.1,8.1"/>
<path class="full-stack-5 fill-none stroke-dark" stroke-width="1.18" stroke-linecap="round" stroke-linejoin="round" d="M268.1,182.9c1.1-0.3,2-1.1,2.3-2.1"/>
<path class="full-stack-11 fill-dark" d="M244.1,297.8v102.9h58.7v-98.9C290.5,306.2,246.7,301,244.1,297.8z"/>
<path class="full-stack-5 fill-none stroke-dark" stroke-width="1.18" stroke-linecap="round" stroke-linejoin="round" d="M333.7,262.9c5.2,1.4,44.9,6.4,51.9,7.3"/>
</svg>
