<?xml version="1.0" encoding="utf-8"?>
<!-- Generator: Adobe Illustrator 23.0.1, SVG Export Plug-In . SVG Version: 6.00 Build 0)  -->
<svg xmlns="http://www.w3.org/2000/svg" xmlns:xlink="http://www.w3.org/1999/xlink" x="0px" y="0px"
	 viewBox="0 0 155 152.9" style="enable-background:new 0 0 155 152.9;" xml:space="preserve">
<style type="text/css">
	.growth-0{fill:#E7EAF3;}
	.growth-1{fill:#FFFFFF;stroke:#00C9A7;stroke-width:8;stroke-miterlimit:10;}
	.growth-2{fill:#DE4437;}
	.growth-3{fill:#FFC107;}
	.growth-4{fill:#00C9A7;}
</style>
<circle class="growth-0" cx="85.6" cy="83.9" r="69"/>
<circle class="growth-1" cx="76.7" cy="73.3" r="68.1"/>
<path class="growth-2" d="M50.9,40.3c2.5,5.8,6.7,11.5,12.6,14c0.7,0.3,1.4,0.5,2.2,0.7c1.6-2.3,3.4-4.2,5.5-5.8c1.8-1.3,3.7-2.4,5.7-3.2
	c-0.6-0.4-1.1-0.7-1.8-1.1c-2.5-1.3-5.1-2.4-7.7-3.6c2.4,0.7,5.2,0.9,7.5,1.8c1.4,0.5,2.8,1.3,4,2.1c3.7-1.3,7.6-1.9,11.5-2.3
	c-3.1-5.2-9.9-9.4-14.9-11.3c-5.3-2-11.3-2.2-17.1-2.8c-3.6-0.4-7.5-1.7-10.4-3.3c-0.7-0.4-1.3,0.2-1.1,1C48.3,30.9,49,36,50.9,40.3
	z"/>
<path class="growth-3" d="M114.2,41.8c-6.6,3.6-14.2,4-21.7,4.9c-3.6,0.4-7.2,0.9-10.7,2c-0.7,0.2-1.5,0.5-2.2,0.8
	c-2.2,0.8-4.2,1.9-6.2,3.4c-1.8,1.4-3.4,3-4.6,4.7c-2,2.8-3.4,6.1-4.6,9.5c-2.1,6.1-3.1,12.7-2.9,19.2c0.1,2.6,0.1,5.4,0.8,7.9
	c0.1,0.6,0.3,1.3,0.7,1.7c0.6,0.6,1.6,0,1.4-0.8c-1.7-5.7-0.6-12.3,1.7-17.7c2.6-6.2,7.8-9.9,14-12.2c1.7-0.6,3.4-1.1,5.1-1.6
	c0,0,0.1,0,0.1,0c0.3,0,0.5,0.5,0.1,0.7c-2,0.9-4,1.8-6,2.8c-9.4,4.9-13.5,16.3-10,16.3c0.3,0,0.6-0.1,1-0.2
	c5.4-2.2,11.9-2.3,17.9-3.4c2.1-0.4,4.1-0.9,6.1-1.7c7.6-3.2,13.1-9.4,16.3-16.9c2.4-5.6,3.4-12.2,5.2-18c0.2-0.7-0.3-1.4-0.9-1.4
	C114.5,41.7,114.3,41.7,114.2,41.8z"/>
<path class="growth-4" d="M144.8,93.8c-22.9,19.9-36.6,13.5-71.7,7c-35.1-6.6-56.6,10.8-56.6,10.8s44.4,67.2,110.2,13.5
	c0,0,10.6-9,17.6-27.4L144.8,93.8z"/>
</svg>
