<?xml version="1.0" encoding="utf-8"?>
<!-- Generator: Adobe Illustrator 23.0.1, SVG Export Plug-In . SVG Version: 6.00 Build 0)  -->
<svg xmlns="http://www.w3.org/2000/svg" xmlns:xlink="http://www.w3.org/1999/xlink" x="0px" y="0px" viewBox="0 0 781 629.7"
	 style="enable-background:new 0 0 781 629.7;" xml:space="preserve">
<style type="text/css">
	.growing-business-0{fill:#FFC107;}
	.growing-business-1{fill:#1E2022;}
	.growing-business-2{fill:#2D1582;}
	.growing-business-3{fill:#377DFF;}
</style>
<title>update</title>
<path class="growing-business-0 fill-warning" opacity=".1" d="M521.7,215.6c-5.6-1.1-11.5-0.4-16.8,1.8c-6.4,2.9-13.8,2.8-20.2-0.1c-7.6-3.3-16.2-3.2-23.7,0.5
	c-2.1,1.1-4.4,1.7-6.8,1.7c-9.6,0-17.6-9.7-19.3-22.4c1.9-1.4,3.5-3.2,4.8-5.2c5.6-9.1,14.3-14.9,24.1-14.9s18.4,5.8,24,14.7
	c3.4,5.5,9.5,8.8,16,8.8h0.3C511.8,200.5,518.5,206.6,521.7,215.6z"/>
<path class="growing-business-0 fill-warning" opacity=".1" d="M550.9,175.5l-15.5,9.9l9.4-17.1c-2.7-2.1-6-3.3-9.4-3.4h-0.3c-1.1,0-2.2-0.1-3.2-0.2l-5.2,3.3l2.3-4.1
	c-3.7-1.3-7-3.8-9.2-7l-9.4,6l6-10.8c-5.5-6.6-12.9-10.7-21.1-10.7c-9.8,0-18.5,5.8-24.1,14.9c-3.4,5.5-9.5,8.8-16,8.6h-0.5
	c-10.8,0-19.6,12.3-19.6,27.4s8.8,27.4,19.6,27.4c2.4,0,4.7-0.6,6.8-1.7c7.4-3.6,16.1-3.8,23.7-0.5c6.4,2.9,13.7,2.9,20.1,0
	c7.5-3.3,16.1-3.1,23.5,0.5c2.1,1.1,4.4,1.7,6.7,1.7c10.8,0,19.6-12.3,19.6-27.4C555.1,186.4,553.7,180.7,550.9,175.5z"/>
<g opacity=".1">
	<path class="growing-business-1 fill-dark" d="M296.4,536.1v5.2c0,10.7-8.6,19.3-19.3,19.3c-10.7,0-19.3-8.6-19.3-19.3v-5.2c0-10.7,8.6-19.3,19.3-19.3
		C287.7,516.8,296.4,525.5,296.4,536.1z"/>
	<path class="growing-business-1 fill-dark" d="M257.8,453.8v-5.1c0-10.7,8.6-19.3,19.3-19.3c10.7,0,19.3,8.6,19.3,19.3v5.1c0,1.9-0.3,3.8-0.8,5.6
		c-3.1,10.2-13.8,16-24,12.9C263.4,469.8,257.8,462.3,257.8,453.8L257.8,453.8z"/>
	<path class="growing-business-1 fill-dark" d="M296.4,492.3v5.2c0,10.7-8.6,19.3-19.3,19.3c-10.7,0-19.3-8.6-19.3-19.3l0,0v-5.2c0-10.7,8.6-19.3,19.3-19.3
		C287.7,473,296.4,481.7,296.4,492.3z"/>
	<path class="growing-business-1 fill-dark" d="M277.1,560.6c10.6,0,19.3,8.7,19.3,19.3v5.1c0,10.7-8.6,19.3-19.3,19.3c-10.7,0-19.3-8.6-19.3-19.3v-5.1
		C257.8,569.2,266.4,560.6,277.1,560.6z"/>
	<path class="growing-business-1 fill-dark" opacity=".1" d="M257.8,449.1v4.7c0,10.7,8.6,19.3,19.3,19.3c8.5,0,16.1-5.6,18.5-13.8L257.8,449.1z"/>
	<path class="growing-business-1 fill-dark" opacity=".1" d="M257.8,492.9v4.7c0,10.7,8.7,19.3,19.3,19.3c8.5,0,16-5.6,18.5-13.7L257.8,492.9z"/>
	<path class="growing-business-1 fill-dark" opacity=".1" d="M257.8,536.6v4.7c0,10.7,8.7,19.3,19.3,19.3c8.5,0,16-5.6,18.5-13.7L257.8,536.6z"/>
	<path class="growing-business-1 fill-dark" opacity=".1" d="M257.8,580.3v4.7c0,10.7,8.6,19.3,19.2,19.3c8.5,0,16.1-5.6,18.5-13.8L257.8,580.3z"/>
	<path class="growing-business-1 fill-dark" d="M217.5,497.8l1.5,1.2c3.2,2.4,7.8,1.8,10.2-1.4c1.9-2.5,2-6,0.2-8.6c-0.4-0.6-0.9-1.1-1.5-1.5l-1.5-1.2
		c-3.2-2.5-7.8-1.9-10.2,1.3C213.7,490.8,214.3,495.4,217.5,497.8L217.5,497.8L217.5,497.8z"/>
	<path class="growing-business-1 fill-dark" d="M239.5,496.4l1.5,1.2c3.2,2.5,3.8,7,1.3,10.2c-2.5,3.2-7,3.8-10.2,1.3l-1.5-1.2c-3.2-2.5-3.8-7-1.3-10.2
		C231.7,494.5,236.3,493.9,239.5,496.4L239.5,496.4z"/>
	<path class="growing-business-1 fill-dark" d="M252.6,506.5l1.5,1.2c3.2,2.5,3.8,7,1.3,10.2c-2.5,3.2-7,3.8-10.2,1.3l-1.5-1.2c-3.2-2.5-3.8-7-1.3-10.2
		C244.8,504.6,249.4,504,252.6,506.5L252.6,506.5z"/>
	<path class="growing-business-1 fill-dark" d="M265.7,516.6l1.5,1.2c3.2,2.5,3.8,7,1.3,10.2c-2.5,3.2-7,3.8-10.2,1.3l-1.6-1.2c-3.2-2.5-3.8-7-1.3-10.2
		C257.9,514.7,262.4,514.1,265.7,516.6L265.7,516.6L265.7,516.6z"/>
	<path class="growing-business-1 fill-dark" opacity=".1" d="M217.6,498l1.4,1.1c3.2,2.4,7.8,1.8,10.2-1.4c1.9-2.5,2-6,0.2-8.6L217.6,498z"/>
	<path class="growing-business-1 fill-dark" opacity=".1" d="M230.7,508l1.4,1.1c3.2,2.4,7.8,1.8,10.2-1.4c1.9-2.5,2-6,0.2-8.6L230.7,508z"/>
	<path class="growing-business-1 fill-dark" opacity=".1" d="M243.8,518.2l1.4,1.1c3.2,2.5,7.8,1.9,10.2-1.3c2-2.5,2-6.1,0.2-8.7L243.8,518.2z"/>
	<path class="growing-business-0 fill-warning" d="M224.3,258.1c-12.1-0.3-22.1,9.3-22.3,21.4s9.3,22.1,21.4,22.3c0.3,0,0.6,0,0.9,0
		c-12.1-0.3-22.1,9.3-22.3,21.4s9.3,22.1,21.4,22.3c0.3,0,0.6,0,0.9,0c-12.1,0-21.9,9.8-21.9,21.9s9.8,21.9,21.9,21.9c0,0,0,0,0,0
		c-12.1-0.3-22.1,9.3-22.3,21.4s9.3,22.1,21.4,22.3c0.3,0,0.6,0,0.9,0h105.5c12.1,0.3,22.1-9.3,22.3-21.4s-9.3-22.1-21.4-22.3
		c-0.3,0-0.6,0-0.9,0c12.1,0,21.9-9.8,21.9-21.9s-9.8-21.9-21.9-21.9c12.1,0.3,22.1-9.3,22.3-21.4s-9.3-22.1-21.4-22.3
		c-0.3,0-0.6,0-0.9,0c12.1,0.3,22.1-9.3,22.3-21.4s-9.3-22.1-21.4-22.3c-0.3,0-0.6,0-0.9,0c12.1,0,21.9-9.8,21.9-21.9
		s-9.8-21.9-21.9-21.9c12.1,0.3,22.1-9.3,22.3-21.4s-9.3-22.1-21.4-22.3c-0.3,0-0.6,0-0.9,0H325c-2.8-18.8-24-33.5-49.9-33.5
		s-47.1,14.6-49.9,33.5h-1c-12.1-0.3-22.1,9.3-22.3,21.4s9.3,22.1,21.4,22.3c0.3,0,0.6,0,0.9,0c-12.1,0-21.9,9.8-21.9,21.9
		S212.2,258.1,224.3,258.1L224.3,258.1z"/>
	<path class="growing-business-1 fill-dark" opacity=".1" d="M202.4,192.5c0,12.1,9.8,21.8,21.9,21.9h105.5L225,170.6h-0.6C212.3,170.7,202.5,180.4,202.4,192.5z"/>
	<path class="growing-business-1 fill-dark" opacity=".1" d="M351.1,236.3c-0.1,12.1-9.8,21.8-21.9,21.9H223.7l104.9-43.8h0.6C341.3,214.5,351,224.3,351.1,236.3z"/>
	<path class="growing-business-1 fill-dark" opacity=".1" d="M351.1,323.8c0,12.1-9.8,21.8-21.9,21.9H223.7l104.9-43.8h0.6C341.3,302,351,311.7,351.1,323.8z"/>
	<path class="growing-business-1 fill-dark" opacity=".1" d="M351.1,411.3c0,12.1-9.8,21.8-21.9,21.9H223.7l104.9-43.8h0.6C341.3,389.5,351,399.3,351.1,411.3z"/>
	<path class="growing-business-1 fill-dark" opacity=".1" d="M202.4,280c0,12.1,9.8,21.8,21.9,21.9h105.5L225,258.1h-0.6C212.3,258.2,202.5,268,202.4,280z"/>
	<path class="growing-business-1 fill-dark" opacity=".1" d="M202.4,367.5c0.1,12.1,9.8,21.8,21.9,21.9h105.5L225,345.6h-0.6C212.3,345.7,202.5,355.5,202.4,367.5z"/>
	<path class="growing-business-0 fill-warning" d="M214.5,520.4l34.8-18.7c3.9-2.3,5.2-7.3,2.9-11.2c-2.2-3.7-6.8-5.1-10.7-3.2c4-2.1,5.5-7.1,3.3-11.1
		c-2.1-4-7.1-5.5-11.1-3.3l-1.6,0.9c-4.3-5.7-13.9-6.8-22.4-2.2s-12.9,13.2-10.5,19.9l-0.3,0.2c-4,2.1-5.5,7.1-3.3,11.1
		c2.1,4,7.1,5.5,11.1,3.3c-4,2.1-5.5,7.1-3.3,11.1C205.6,521.1,210.6,522.6,214.5,520.4L214.5,520.4z"/>
	<path class="growing-business-1 fill-dark" opacity=".1" d="M195.7,502.7c2.2,4,7.1,5.5,11.1,3.3l34.7-18.7l-42.3,4.2l-0.2,0.1C195.1,493.8,193.6,498.7,195.7,502.7z"/>
	<path class="growing-business-1 fill-dark" opacity=".1" d="M252.4,490.7c2.1,4,0.6,8.9-3.3,11.1l-34.8,18.7l26.8-33l0.2-0.1C245.3,485.3,250.2,486.8,252.4,490.7z"/>
</g>
<g opacity=".1">
	<path class="growing-business-1 fill-dark" d="M108.9,583.2v1.5c-0.1,3.1-2.7,5.4-5.8,5.3c-2.9-0.1-5.2-2.4-5.3-5.3v-1.5c-0.1-3.1,2.2-5.6,5.3-5.8
		c3.1-0.1,5.6,2.2,5.8,5.3C108.9,582.8,108.9,583,108.9,583.2z"/>
	<path class="growing-business-1 fill-dark" d="M97.8,559.5v-1.5c0.1-3.1,2.7-5.4,5.8-5.3c2.9,0.1,5.2,2.4,5.3,5.3v1.5c0,0.5-0.1,1.1-0.2,1.6
		c-0.9,2.9-4,4.6-6.9,3.7C99.4,564.2,97.8,562,97.8,559.5L97.8,559.5z"/>
	<path class="growing-business-1 fill-dark" d="M108.9,570.6v1.5c-0.1,3.1-2.7,5.4-5.8,5.3c-2.9-0.1-5.2-2.4-5.3-5.3v-1.5c-0.1-3.1,2.2-5.6,5.3-5.8
		c3.1-0.1,5.6,2.2,5.8,5.3C108.9,570.3,108.9,570.5,108.9,570.6z"/>
	<path class="growing-business-1 fill-dark" d="M103.3,590.2c3.1,0,5.5,2.5,5.5,5.5v1.5c0.1,3.1-2.2,5.6-5.3,5.8c-3.1,0.1-5.6-2.2-5.8-5.3c0-0.2,0-0.3,0-0.5
		v-1.5C97.8,592.6,100.3,590.2,103.3,590.2z"/>
	<path class="growing-business-1 fill-dark" opacity=".1" d="M97.8,558.2v1.3c0,3.1,2.5,5.5,5.5,5.6c2.5,0,4.6-1.6,5.3-4L97.8,558.2z"/>
	<path class="growing-business-1 fill-dark" opacity=".1" d="M97.8,570.8v1.3c0,3.1,2.5,5.5,5.5,5.6c2.5,0,4.6-1.6,5.3-4L97.8,570.8z"/>
	<path class="growing-business-1 fill-dark" opacity=".1" d="M97.8,583.3v1.3c0,3.1,2.5,5.5,5.5,5.6c2.5,0,4.6-1.6,5.3-4L97.8,583.3z"/>
	<path class="growing-business-1 fill-dark" opacity=".1" d="M97.8,595.8v1.3c0,3.1,2.5,5.5,5.5,5.6c2.5,0,4.6-1.6,5.3-4L97.8,595.8z"/>
	<path class="growing-business-1 fill-dark" d="M86.2,572.2l0.4,0.3c0.9,0.7,2.2,0.6,2.9-0.3c0.6-0.7,0.6-1.8,0.1-2.6c-0.1-0.2-0.3-0.3-0.4-0.5l-0.4-0.3
		c-0.9-0.7-2.2-0.5-2.9,0.4S85.3,571.5,86.2,572.2L86.2,572.2L86.2,572.2z"/>
	<path class="growing-business-1 fill-dark" d="M92.6,571.8l0.4,0.3c0.9,0.7,1.1,2,0.5,2.9c-0.7,0.9-2,1.1-2.9,0.5c0,0-0.1,0-0.1-0.1l-0.5-0.3
		c-0.9-0.7-1.1-2-0.4-2.9S91.6,571.1,92.6,571.8L92.6,571.8z"/>
	<path class="growing-business-1 fill-dark" d="M96.3,574.7l0.4,0.3c0.9,0.7,1.1,2,0.4,2.9c-0.7,0.9-2,1.1-2.9,0.4l-0.4-0.3c-0.9-0.7-1-2-0.3-2.9
		C94.2,574.2,95.4,574,96.3,574.7z"/>
	<path class="growing-business-1 fill-dark" d="M100.1,577.5l0.4,0.3c0.9,0.7,1.1,2,0.5,2.9c-0.7,0.9-2,1.1-2.9,0.5c0,0-0.1,0-0.1-0.1l-0.4-0.3
		c-0.9-0.7-1-2-0.3-2.9C97.9,577.1,99.2,576.9,100.1,577.5z"/>
	<path class="growing-business-1 fill-dark" opacity=".1" d="M86.3,572.2l0.4,0.3c0.9,0.7,2.2,0.6,2.9-0.3c0.6-0.7,0.6-1.8,0.1-2.6L86.3,572.2z"/>
	<path class="growing-business-1 fill-dark" opacity=".1" d="M90,575.1l0.4,0.3c0.9,0.7,2.2,0.6,2.9-0.3c0.6-0.7,0.6-1.8,0.1-2.6L90,575.1z"/>
	<path class="growing-business-1 fill-dark" opacity=".1" d="M93.8,578l0.4,0.3c0.9,0.7,2.2,0.5,2.9-0.4c0.5-0.7,0.5-1.8,0-2.5L93.8,578z"/>
	<path class="growing-business-0 fill-warning" d="M88.2,503.5c-3.5,0-6.3,2.8-6.3,6.3c0,3.5,2.8,6.3,6.3,6.3c-3.5,0.1-6.2,3.1-6,6.5c0.1,3.3,2.8,5.9,6,6
		c-3.5,0-6.3,2.8-6.3,6.3c0,3.5,2.8,6.3,6.3,6.3c-3.5,0-6.3,2.8-6.3,6.3c0,3.5,2.8,6.3,6.3,6.3h30.3c3.5,0,6.3-2.8,6.3-6.3
		c0-3.5-2.8-6.3-6.3-6.3c3.5,0,6.3-2.8,6.3-6.3c0-3.5-2.8-6.3-6.3-6.3c3.5-0.1,6.2-3.1,6-6.5c-0.1-3.3-2.8-5.9-6-6
		c3.5,0,6.3-2.8,6.3-6.3c0-3.5-2.8-6.3-6.3-6.3c3.5,0,6.3-2.8,6.3-6.3c0-3.5-2.8-6.3-6.3-6.3c3.5,0,6.3-2.8,6.3-6.3
		c0-3.5-2.8-6.3-6.3-6.3h-1.4c-0.8-5.4-6.9-9.6-14.3-9.6s-13.5,4.2-14.3,9.6h-0.3c-3.5,0-6.3,2.8-6.3,6.3c0,3.5,2.8,6.3,6.3,6.3
		c-3.5,0-6.3,2.8-6.3,6.3C81.9,500.7,84.7,503.5,88.2,503.5z"/>
	<path class="growing-business-1 fill-dark" opacity=".1" d="M81.9,484.7c0,3.5,2.8,6.3,6.3,6.3h30.3l-30.1-12.5h-0.2C84.7,478.4,81.9,481.2,81.9,484.7z"/>
	<path class="growing-business-1 fill-dark" opacity=".1" d="M124.5,497.2c0,3.5-2.8,6.3-6.3,6.3H88l30.1-12.5h0.2C121.7,490.9,124.5,493.7,124.5,497.2z"/>
	<path class="growing-business-1 fill-dark" opacity=".1" d="M124.5,522.3c0,3.5-2.8,6.3-6.3,6.3H88l30.1-12.5h0.2C121.7,516.1,124.5,518.9,124.5,522.3z"/>
	<path class="growing-business-1 fill-dark" opacity=".1" d="M124.5,547.4c0,3.5-2.8,6.3-6.3,6.3H88l30.1-12.5h0.2C121.7,541.1,124.5,543.9,124.5,547.4z"/>
	<path class="growing-business-1 fill-dark" opacity=".1" d="M81.9,509.7c0,3.5,2.8,6.3,6.3,6.3h30.3l-30.1-12.5h-0.2C84.7,503.5,81.9,506.3,81.9,509.7z"/>
	<path class="growing-business-1 fill-dark" opacity=".1" d="M81.9,534.8c0,3.5,2.8,6.3,6.3,6.3h30.3l-30.1-12.5h-0.2C84.7,528.6,81.9,531.4,81.9,534.8z"/>
	<path class="growing-business-0 fill-warning" d="M85.4,578.7l10-5.4c-2.4-1.7-2.9-4.9-1.3-7.3c0,0,0,0,0,0c-0.6-1.1-2-1.6-3.2-1c0,0,0,0,0,0l-0.5,0.2
		c-1.2-1.6-4-1.9-6.4-0.6s-3.7,3.8-3,5.7l-0.1,0c2.4,1.7,2.9,4.9,1.3,7.3c0,0,0,0,0,0C82.9,578.8,84.3,579.2,85.4,578.7z"/>
	<path class="growing-business-1 fill-dark" opacity=".1" d="M80,573.6c0.6,1.2,2,1.6,3.2,1c0,0,0,0,0,0l10-5.4L81,570.3H81C79.8,570.9,79.4,572.3,80,573.6
		C80,573.5,80,573.5,80,573.6z"/>
	<path class="growing-business-1 fill-dark" opacity=".1" d="M96.3,570.1c0.6,1.1,0.2,2.6-1,3.2l-10,5.4l7.7-9.5H93C94.2,568.6,95.6,569,96.3,570.1
		C96.2,570.1,96.2,570.1,96.3,570.1z"/>
</g>
<g opacity=".1">
	<path class="growing-business-1 fill-dark" d="M647,524.3v6.3c0,13,10.5,23.5,23.5,23.5c13,0,23.5-10.5,23.5-23.5v-6.3c0-13-10.5-23.5-23.5-23.5
		C657.5,500.8,647,511.3,647,524.3z"/>
	<path class="growing-business-1 fill-dark" d="M694,423.9v-6.3c0-13-10.5-23.5-23.5-23.5c-13,0-23.5,10.5-23.5,23.5v6.3c0,2.3,0.3,4.6,1,6.8
		c3.8,12.4,17,19.4,29.4,15.6C687.2,443.3,693.9,434.2,694,423.9L694,423.9z"/>
	<path class="growing-business-1 fill-dark" d="M647,471v6.3c0,13,10.5,23.5,23.5,23.5c13,0,23.5-10.5,23.5-23.5V471c0-13-10.5-23.5-23.5-23.5
		C657.5,447.5,647,458,647,471z"/>
	<path class="growing-business-1 fill-dark" d="M670.5,554.1c-13,0-23.5,10.6-23.5,23.5v6.3c0,13,10.5,23.5,23.5,23.5c13,0,23.5-10.5,23.5-23.5v-6.3
		C694,564.7,683.5,554.2,670.5,554.1z"/>
	<path class="growing-business-1 fill-dark" opacity=".1" d="M694,418.3v5.7c-0.1,13-10.6,23.5-23.6,23.4c-10.3-0.1-19.3-6.8-22.4-16.6L694,418.3z"/>
	<path class="growing-business-1 fill-dark" opacity=".1" d="M694,471.6v5.7c-0.1,13-10.6,23.5-23.6,23.4c-10.3-0.1-19.3-6.8-22.4-16.6L694,471.6z"/>
	<path class="growing-business-1 fill-dark" opacity=".1" d="M694,524.9v5.7c-0.1,13-10.6,23.5-23.6,23.4c-10.3-0.1-19.3-6.8-22.4-16.6L694,524.9z"/>
	<path class="growing-business-1 fill-dark" opacity=".1" d="M694,578.3v5.7c-0.1,13-10.6,23.5-23.6,23.4c-10.3-0.1-19.3-6.8-22.4-16.6L694,578.3z"/>
	<path class="growing-business-1 fill-dark" d="M743.2,477.7l-1.9,1.5c-3.9,3-9.5,2.3-12.5-1.6c-2.4-3.1-2.5-7.4-0.2-10.6c0.5-0.7,1.1-1.3,1.8-1.9l1.9-1.5
		c3.9-3,9.5-2.3,12.5,1.6C747.8,469.1,747.1,474.7,743.2,477.7L743.2,477.7z"/>
	<path class="growing-business-1 fill-dark" d="M716.4,475.9l-1.9,1.4c-4,2.9-4.8,8.5-1.9,12.4c2.9,4,8.5,4.8,12.4,1.9c0.1-0.1,0.3-0.2,0.4-0.3l1.9-1.4
		c3.9-3,4.6-8.6,1.6-12.5C725.8,473.6,720.2,472.9,716.4,475.9L716.4,475.9L716.4,475.9z"/>
	<path class="growing-business-1 fill-dark" d="M700.4,488.2l-1.9,1.5c-4,2.9-4.8,8.5-1.9,12.4c2.9,4,8.5,4.8,12.4,1.9c0.1-0.1,0.3-0.2,0.4-0.3l1.9-1.4
		c3.9-3,4.6-8.6,1.6-12.5C709.9,485.9,704.3,485.2,700.4,488.2L700.4,488.2z"/>
	<path class="growing-business-1 fill-dark" d="M684.4,500.5l-1.9,1.4c-3.9,3-4.6,8.6-1.6,12.5c3,3.9,8.6,4.6,12.5,1.6l0,0l1.9-1.5c4-2.9,4.8-8.5,1.9-12.4
		c-2.9-4-8.5-4.8-12.4-1.9C684.7,500.3,684.6,500.4,684.4,500.5z"/>
	<path class="growing-business-1 fill-dark" opacity=".1" d="M743,477.8l-1.7,1.3c-3.9,3-9.5,2.3-12.5-1.6c-2.4-3.1-2.5-7.4-0.2-10.6L743,477.8z"/>
	<path class="growing-business-1 fill-dark" opacity=".1" d="M727,490.1l-1.7,1.3c-3.9,2.9-9.5,2.1-12.4-1.8c-2.3-3.1-2.4-7.3-0.2-10.4L727,490.1z"/>
	<path class="growing-business-1 fill-dark" opacity=".1" d="M711.1,502.4l-1.7,1.3c-3.9,3-9.5,2.3-12.5-1.6c-2.4-3.1-2.5-7.4-0.2-10.6L711.1,502.4z"/>
	<path class="growing-business-0 fill-warning" d="M734.8,185.5c14.7,0,26.7,11.9,26.7,26.7c0,14.7-11.9,26.7-26.7,26.7c14.7,0.3,26.4,12.5,26.1,27.2
		c-0.3,14.3-11.8,25.9-26.1,26.1c14.7,0.3,26.4,12.5,26.1,27.2c-0.3,14.3-11.8,25.9-26.1,26.1c14.7,0,26.7,11.9,26.7,26.7
		c0,14.7-11.9,26.7-26.7,26.7H606.2c-14.7,0-26.7-11.9-26.7-26.7c0-14.7,11.9-26.7,26.7-26.7c-14.7,0.3-26.9-11.4-27.2-26.1
		c-0.3-14.7,11.4-26.9,26.1-27.2c0.3,0,0.7,0,1,0c-14.7,0.3-26.9-11.4-27.2-26.1c-0.3-14.7,11.4-26.9,26.1-27.2c0.3,0,0.7,0,1,0
		c-14.7,0-26.7-11.9-26.7-26.7c0-14.7,11.9-26.7,26.7-26.7c-14.7,0.3-26.9-11.4-27.2-26.1c-0.3-14.7,11.4-26.9,26.1-27.2
		c0.3,0,0.7,0,1,0c-14.7,0.3-26.9-11.4-27.2-26.1c-0.3-14.7,11.4-26.9,26.1-27.2c0.3,0,0.7,0,1,0h5.9c3.4-22.9,29.3-40.8,60.8-40.8
		s57.4,17.9,60.8,40.8h1.2c14.7,0.3,26.4,12.5,26.1,27.2c-0.3,14.3-11.8,25.9-26.1,26.1c14.7,0.3,26.4,12.5,26.1,27.2
		C760.7,173.7,749.2,185.2,734.8,185.5L734.8,185.5z"/>
	<path class="growing-business-1 fill-dark" opacity=".1" d="M761.5,105.5c0,14.7-12,26.6-26.7,26.7H606.2L734,78.8h0.8C749.5,78.9,761.5,90.8,761.5,105.5z"/>
	<path class="growing-business-1 fill-dark" opacity=".1" d="M580.3,158.8c0,14.7,12,26.6,26.7,26.7h128.6l-127.8-53.3H607C592.3,132.2,580.4,144.1,580.3,158.8z"/>
	<path class="growing-business-1 fill-dark" opacity=".1" d="M580.3,265.5c0,14.7,12,26.6,26.7,26.7h128.6l-127.8-53.3H607C592.3,238.9,580.4,250.8,580.3,265.5z"/>
	<path class="growing-business-1 fill-dark" opacity=".1" d="M580.3,372.2c0,14.7,12,26.6,26.7,26.7h128.6l-127.8-53.3H607C592.3,345.5,580.4,357.4,580.3,372.2z"/>
	<path class="growing-business-1 fill-dark" opacity=".1" d="M761.5,212.2c0,14.7-12,26.6-26.7,26.7H606.2L734,185.5h0.8C749.5,185.5,761.5,197.5,761.5,212.2z"/>
	<path class="growing-business-1 fill-dark" opacity=".1" d="M761.5,318.8c0,14.7-12,26.6-26.7,26.7H606.2L734,292.2h0.8C749.5,292.2,761.5,304.1,761.5,318.8z"/>
	<path class="growing-business-0 fill-warning" d="M746.7,505.2l-42.4-22.8c-4.7-3-6-9.2-3.1-13.8c2.7-4.2,8-5.8,12.5-3.8c-5-2.2-7.3-8.1-5.1-13.2
		c2.2-5,8.1-7.3,13.2-5.1c0.5,0.2,0.9,0.4,1.3,0.7l1.9,1c5.2-7,16.9-8.2,27.2-2.7s15.8,16.1,12.8,24.2l0.4,0.2c5,2.3,7.3,8.2,5,13.2
		c-2.3,5-8.2,7.3-13.2,5c-0.4-0.2-0.9-0.4-1.3-0.7c5,2.4,7.1,8.3,4.7,13.3c-2.4,5-8.3,7.1-13.3,4.7
		C747.3,505.5,747,505.3,746.7,505.2z"/>
	<path class="growing-business-1 fill-dark" opacity=".1" d="M769.7,483.6c-2.6,4.8-8.7,6.6-13.5,4l-42.3-22.8l51.5,5.1l0.3,0.1C770.5,472.6,772.3,478.7,769.7,483.6
		C769.7,483.6,769.7,483.6,769.7,483.6z"/>
	<path class="growing-business-1 fill-dark" opacity=".1" d="M700.6,469c-2.6,4.9-0.8,10.9,4,13.5l42.4,22.8l-32.7-40.2l-0.3-0.1C709.3,462.4,703.2,464.2,700.6,469z"/>
</g>
<ellipse class="growing-business-2 fill-indigo" opacity=".1" cx="392.7" cy="614.6" rx="113" ry="15.1"/>
<path class="growing-business-3 fill-primary" d="M400.6,614.7c-12.5,2.4-24.5-5.7-27-18.2c-0.4-2.3-0.5-4.6-0.3-6.9c2.6-23.2,10.8-60.5,33.1-116.5
	c25.8-64.9,16.5-80.6-11.2-127.2c-8.9-15-19.1-32.1-30-54c-28.2-56.3-17.5-99.6-3.6-126c14.8-28.1,35.9-42.8,38.3-44.4l21.8,36.1
	l-2,2c0,0,1,0,2.5,2.8c-8.5,7.4-15.6,16.4-20.7,26.5c-12.1,24.2-10.5,52,4.8,82.5c10.2,20.4,19.9,36.7,28.4,51.1
	c15.3,25.8,27.5,46.2,31.5,71.9c4.2,26.6-1,55.3-17.1,95.8c-21.2,53.3-28,86.6-30.1,104.5C417.9,604.7,410.4,612.7,400.6,614.7
	L400.6,614.7z"/>
<polygon class="growing-business-0 fill-warning" points="299.7,92.6 392.3,0 485.7,92.6 422.2,92.6 422.2,163.3 363.2,163.3 363.2,93 "/>
<ellipse class="growing-business-2 fill-indigo" opacity=".1" cx="594.7" cy="606.4" rx="59" ry="7.9"/>
<path class="growing-business-3 fill-primary" d="M598.8,606.4c-6.5,1.3-12.8-3-14.1-9.5c-0.2-1.2-0.3-2.4-0.2-3.6c1.4-12.1,5.6-31.6,17.3-60.8
	c13.5-33.9,8.6-42.1-5.8-66.4c-4.7-7.8-10-16.8-15.7-28.2c-14.7-29.4-9.1-52-1.8-65.8c4.8-9.2,11.6-17.1,20-23.2l11.4,18.9l-1.1,1
	c0,0,0.5,0,1.3,1.5c-4.5,3.9-8.1,8.6-10.8,13.8c-6.3,12.7-5.5,27.1,2.5,43.1c5.3,10.7,10.4,19.2,14.8,26.7
	c8,13.5,14.3,24.1,16.4,37.5c2.2,13.9-0.5,28.9-8.9,50c-11.1,27.8-14.6,45.2-15.7,54.6C607.9,601.1,604,605.4,598.8,606.4
	L598.8,606.4z"/>
<polygon class="growing-business-0 fill-warning" points="546.2,333.8 594.5,285.5 643.3,333.8 610.1,333.8 610.1,370.7 579.3,370.7 579.3,334 "/>
<ellipse class="growing-business-2 fill-indigo" opacity=".1" cx="190.7" cy="606.4" rx="59" ry="7.9"/>
<path class="growing-business-3 fill-primary" d="M186.6,606.4c6.5,1.3,12.8-3,14.1-9.5c0.2-1.2,0.3-2.4,0.2-3.6c-1.4-12.1-5.6-31.6-17.3-60.8
	c-13.5-33.9-8.6-42.1,5.8-66.4c4.7-7.8,10-16.8,15.7-28.2c14.7-29.4,9.1-52,1.8-65.8c-4.8-9.2-11.6-17.1-20-23.2l-11.4,18.9l1.1,1
	c0,0-0.5,0-1.3,1.5c4.5,3.9,8.1,8.6,10.8,13.8c6.3,12.7,5.5,27.1-2.5,43.1c-5.3,10.7-10.4,19.2-14.8,26.7
	c-8,13.5-14.3,24.1-16.4,37.5c-2.2,13.9,0.5,28.9,8.9,50c11.1,27.8,14.6,45.2,15.7,54.6C177.6,601.1,181.5,605.4,186.6,606.4
	L186.6,606.4z"/>
<polygon class="growing-business-0 fill-warning" points="239.3,333.8 191,285.5 142.2,333.8 175.3,333.8 175.3,370.7 206.1,370.7 206.1,334 "/>
<ellipse transform="matrix(0.9589 -0.2838 0.2838 0.9589 -66.2534 123.2114)" class="growing-business-1 fill-dark" opacity=".1" cx="392" cy="290.2" rx="21" ry="2.5"/>
<ellipse transform="matrix(0.9589 -0.2838 0.2838 0.9589 -71.5611 126.5879)" class="growing-business-1 fill-dark" opacity=".1" cx="401" cy="310.2" rx="21" ry="2.5"/>
<ellipse transform="matrix(0.9589 -0.2838 0.2838 0.9589 -75.4061 130.0421)" class="growing-business-1 fill-dark" opacity=".1" cx="411" cy="325.2" rx="21" ry="2.5"/>
<ellipse transform="matrix(0.9589 -0.2838 0.2838 0.9589 -79.335 132.9324)" class="growing-business-1 fill-dark" opacity=".1" cx="419" cy="340.2" rx="21" ry="2.5"/>
<path class="growing-business-0 fill-warning" d="M771.9,608h-42.5c-4.9,0-8.8-4-8.8-8.8c0-4.9,3.9-8.8,8.8-8.8c-4.9,0.2-8.9-3.6-9.1-8.5s3.6-8.9,8.5-9.1
	c0.2,0,0.4,0,0.6,0h1.9c1.1-7.6,9.7-13.5,20.1-13.5s19,5.9,20.1,13.5h0.4c4.9-0.2,8.9,3.6,9.1,8.5s-3.6,8.9-8.5,9.1
	c-0.2,0-0.4,0-0.6,0c4.9,0,8.8,4,8.8,8.8C780.7,604.1,776.8,608,771.9,608L771.9,608z"/>
<path class="growing-business-1 fill-dark" opacity=".1" d="M780.7,581.6c0,4.9-3.9,8.8-8.8,8.8h-42.5l42.2-17.7h0.3C776.8,572.8,780.7,576.7,780.7,581.6z"/>
<path class="growing-business-1 fill-dark" opacity=".1" d="M720.9,599.3c0,4.9,4,8.8,8.8,8.8h42.5L730,590.5h-0.2C724.9,590.6,720.9,594.5,720.9,599.3z"/>
<path class="growing-business-0 fill-warning" d="M513.7,597.5h-24.1c-2.8,0-5-2.2-5-5s2.2-5,5-5c-2.8,0-5-2.2-5-5s2.2-5,5-5h1.1c0.6-4.3,5.5-7.7,11.4-7.7
	s10.8,3.3,11.4,7.6h0.2c2.8,0,5,2.2,5,5s-2.2,5-5,5c2.8,0,5,2.2,5,5S516.5,597.5,513.7,597.5L513.7,597.5z"/>
<path class="growing-business-1 fill-dark" opacity=".1" d="M518.7,582.5c0,2.8-2.2,5-5,5h-24.1l24-10h0.1C516.5,577.5,518.7,579.8,518.7,582.5z"/>
<path class="growing-business-1 fill-dark" opacity=".1" d="M484.8,592.5c0,2.8,2.2,5,5,5h24.1l-24-10h-0.1C487,587.6,484.8,589.8,484.8,592.5z"/>
<path class="growing-business-0 fill-warning" d="M62.2,625.9h-51c-5.8,0.2-10.7-4.4-10.9-10.2c-0.2-5.8,4.4-10.7,10.2-10.9c0.2,0,0.4,0,0.6,0
	c-5.8,0.2-10.7-4.4-10.9-10.2c-0.2-5.8,4.4-10.7,10.2-10.9c0.2,0,0.4,0,0.6,0h2.3c1.3-9.1,11.6-16.2,24.1-16.2s22.8,7,24.1,16.1h0.5
	c5.8,0.2,10.4,5.1,10.2,10.9c-0.2,5.6-4.7,10.1-10.2,10.2c5.8,0.2,10.4,5.1,10.2,10.9C72.2,621.2,67.7,625.7,62.2,625.9L62.2,625.9z
	"/>
<path class="growing-business-1 fill-dark" opacity=".1" d="M72.7,594.2c0,5.8-4.7,10.5-10.6,10.6h-51l50.6-21.2h0.3C68,583.6,72.7,588.3,72.7,594.2
	C72.7,594.2,72.7,594.2,72.7,594.2z"/>
<path class="growing-business-1 fill-dark" opacity=".1" d="M0.9,615.4c0,5.8,4.8,10.5,10.6,10.5h51l-50.7-21.1h-0.3C5.7,604.9,1,609.6,0.9,615.4z"/>
<path class="growing-business-0 fill-warning" opacity=".1" d="M166.7,153.1c-4-0.8-8.1-0.3-11.8,1.3c-4.5,2-9.6,2-14.1,0c-5.3-2.3-11.4-2.2-16.6,0.3
	c-1.5,0.8-3.1,1.2-4.8,1.2c-6.7,0-12.3-6.8-13.5-15.7c1.3-1,2.5-2.2,3.4-3.6c3.9-6.4,10-10.4,16.9-10.4s12.9,4,16.8,10.3
	c2.4,3.8,6.6,6.2,11.2,6.1h0.2C159.8,142.5,164.4,146.8,166.7,153.1z"/>
<path class="growing-business-0 fill-warning" opacity=".1" d="M187.1,125l-10.9,6.9l6.6-12c-1.9-1.5-4.2-2.3-6.6-2.4h-0.2c-0.8,0-1.5,0-2.3-0.2l-3.7,2.3l1.6-2.9
	c-2.6-0.9-4.9-2.6-6.4-4.9l-6.6,4.2l4.2-7.6c-3.9-4.6-9-7.5-14.8-7.5c-6.9,0-13,4.1-16.9,10.4c-2.4,3.9-6.6,6.1-11.2,6h-0.3
	c-7.6,0-13.7,8.6-13.7,19.2s6.1,19.2,13.7,19.2c1.7,0,3.3-0.4,4.8-1.2c5.2-2.5,11.3-2.6,16.6-0.3c2.2,1,4.6,1.5,7.1,1.5
	c2.4,0,4.8-0.5,7-1.5c5.3-2.3,11.3-2.2,16.4,0.3c1.5,0.8,3.1,1.2,4.7,1.2c7.6,0,13.7-8.6,13.7-19.2C190,132.6,189.1,128.6,187.1,125
	z"/>
<path class="growing-business-0 fill-warning" opacity=".1" d="M23.3,263.1c4-0.8,8-0.3,11.7,1.3c4.5,2,9.6,2,14.1,0c5.3-2.3,11.4-2.2,16.6,0.3c1.5,0.8,3.1,1.2,4.8,1.2
	c6.7,0,12.3-6.8,13.5-15.7c-1.3-1-2.5-2.2-3.4-3.6c-3.9-6.4-10-10.4-16.9-10.4s-12.9,4-16.8,10.3c-2.4,3.9-6.7,6.2-11.2,6.1h-0.2
	C30.2,252.5,25.6,256.8,23.3,263.1z"/>
<path class="growing-business-0 fill-warning" opacity=".1" d="M2.9,235l10.9,6.9l-6.6-12c1.9-1.5,4.2-2.3,6.6-2.4h0.2c0.8,0,1.5,0,2.3-0.2l3.7,2.3l-1.6-2.9
	c2.6-0.9,4.9-2.6,6.4-4.9l6.6,4.2l-4.2-7.6c3.9-4.6,9.1-7.5,14.8-7.5c6.9,0,12.9,4.1,16.9,10.4c2.4,3.9,6.6,6.1,11.2,6h0.4
	c7.6,0,13.7,8.6,13.7,19.2s-6.1,19.2-13.7,19.2c-1.7,0-3.3-0.4-4.8-1.2c-5.2-2.5-11.3-2.6-16.6-0.3c-2.2,1-4.6,1.5-7.1,1.5
	c-2.4,0-4.8-0.5-7-1.5c-5.3-2.3-11.3-2.2-16.4,0.3c-1.5,0.8-3.1,1.2-4.7,1.2c-7.6,0-13.7-8.6-13.7-19.2C0,242.6,0.9,238.6,2.9,235z"
	/>
</svg>
