<?xml version="1.0" encoding="utf-8"?>
<!-- Generator: Adobe Illustrator 22.1.0, SVG Export Plug-In . SVG Version: 6.00 Build 0)  -->
<svg xmlns="http://www.w3.org/2000/svg" xmlns:xlink="http://www.w3.org/1999/xlink" x="0px" y="0px"
	 viewBox="0 0 195.7 152.1" style="enable-background:new 0 0 195.7 152.1;" xml:space="preserve">
<style type="text/css">
	.house-agency-0{opacity:0.49;fill:#E7EAF3;enable-background:new    ;}
	.house-agency-1{fill:#FFFFFF;}
	.house-agency-2{fill:#377DFF;}
	.house-agency-3{opacity:0.2;fill:#1F2B3D;enable-background:new    ;}
	.house-agency-4{fill:#E7EAF3;}
	.house-agency-5{fill:#19A0FF;}
	.house-agency-6{fill:#FDD14E;}
	.house-agency-7{fill:#FFC107;}
	.house-agency-8{fill:#DFE2EC;}
	.house-agency-9{fill:#EFA02E;}
	.house-agency-10{opacity:0.5;fill:#FFFFFF;enable-background:new    ;}
	.house-agency-11{fill:#00C9A7;}
	.house-agency-12{fill:#191C3C;}
	.house-agency-13{fill:none;stroke:#191C3C;stroke-miterlimit:10;}
	.house-agency-14{fill:#1E2022;}
	.house-agency-15{fill:#F9C582;}
	.house-agency-16{fill:#EAAE6E;}
	.house-agency-17{fill:#E6E7E8;}
	.house-agency-18{fill:#196EFF;}
	.house-agency-19{opacity:0.3;fill:#191C3C;enable-background:new    ;}
	.house-agency-20{fill:#EDF1F9;}
	.house-agency-21{fill:url(#houseAgencyID1);}
	.house-agency-22{opacity:0.2;fill:#191C3C;enable-background:new    ;}
	.house-agency-23{opacity:0.2;}
	.house-agency-24{opacity:0.14;}
	.house-agency-25{opacity:0.12;}
	.house-agency-26{opacity:0.1;}
	.house-agency-27{opacity:0.3;fill:#FFF3DF;enable-background:new    ;}
	.house-agency-28{fill:#707176;}
</style>
<ellipse class="house-agency-0" cx="97.8" cy="144.3" rx="95.4" ry="7.8"/>
<g id="Layer_14">
	<g>
		<path id="houseAgency_208_" class="house-agency-1" d="M170.6,146.7H61.8V67.4c0-2.4,2-4.4,4.4-4.4h100c2.4,0,4.4,2,4.4,4.4L170.6,146.7
			L170.6,146.7z"/>
		<path id="houseAgency_207_" class="house-agency-2 fill-primary" d="M170.6,73.1V65c0-1.3-1.1-2.4-2.4-2.4h-104c-1.3,0-2.4,1.1-2.4,2.4v8.1H170.6z"/>
		<path id="houseAgency_206_" class="house-agency-1" d="M69.9,68.2c0,0.8-0.6,1.4-1.4,1.4s-1.4-0.6-1.4-1.4s0.6-1.4,1.4-1.4
			C69.2,66.8,69.9,67.4,69.9,68.2z"/>
		<path id="houseAgency_205_" class="house-agency-1" d="M74.5,68.2c0,0.8-0.6,1.4-1.4,1.4s-1.4-0.6-1.4-1.4s0.6-1.4,1.4-1.4
			C73.9,66.8,74.5,67.4,74.5,68.2z"/>
		<path id="houseAgency_204_" class="house-agency-1" d="M79.1,68.2c0,0.8-0.6,1.4-1.4,1.4s-1.4-0.6-1.4-1.4s0.6-1.4,1.4-1.4
			C78.5,66.8,79.1,67.4,79.1,68.2z"/>
		<path id="houseAgency_203_" class="house-agency-3" d="M168.2,63h-3.1c1.3,0,2.4,1.1,2.4,2.4v81.3h3.1V65.4C170.6,64,169.5,63,168.2,63z"/>
		<path class="house-agency-4" d="M72.6,83.5h-1.7c-1.1,0-1.9-0.9-1.9-1.9l0,0c0-1.1,0.9-1.9,1.9-1.9h1.7c1.1,0,1.9,0.9,1.9,1.9l0,0
			C74.5,82.7,73.6,83.5,72.6,83.5z"/>
		<path class="house-agency-4" d="M72.6,93.4h-1.7c-1.1,0-1.9-0.9-1.9-1.9l0,0c0-1.1,0.9-1.9,1.9-1.9h1.7c1.1,0,1.9,0.9,1.9,1.9l0,0
			C74.5,92.5,73.6,93.4,72.6,93.4z"/>
		<path class="house-agency-4" d="M72.6,103.2h-1.7c-1.1,0-1.9-0.9-1.9-1.9l0,0c0-1.1,0.9-1.9,1.9-1.9h1.7c1.1,0,1.9,0.9,1.9,1.9l0,0
			C74.5,102.3,73.6,103.2,72.6,103.2z"/>
		<path class="house-agency-4" d="M72.6,113h-1.7c-1.1,0-1.9-0.9-1.9-1.9l0,0c0-1.1,0.9-1.9,1.9-1.9h1.7c1.1,0,1.9,0.9,1.9,1.9l0,0
			C74.5,112.1,73.6,113,72.6,113z"/>
		<path class="house-agency-4" d="M72.6,122.8h-1.7c-1.1,0-1.9-0.9-1.9-1.9l0,0c0-1.1,0.9-1.9,1.9-1.9h1.7c1.1,0,1.9,0.9,1.9,1.9l0,0
			C74.5,121.9,73.6,122.8,72.6,122.8z"/>
		<path class="house-agency-4" d="M72.6,132.6h-1.7c-1.1,0-1.9-0.9-1.9-1.9l0,0c0-1.1,0.9-1.9,1.9-1.9h1.7c1.1,0,1.9,0.9,1.9,1.9l0,0
			C74.5,131.8,73.6,132.6,72.6,132.6z"/>
		<path class="house-agency-4" d="M72.6,142.5h-1.7c-1.1,0-1.9-0.9-1.9-1.9l0,0c0-1.1,0.9-1.9,1.9-1.9h1.7c1.1,0,1.9,0.9,1.9,1.9l0,0
			C74.5,141.6,73.6,142.5,72.6,142.5z"/>
		<path class="house-agency-4" d="M157.6,83.5h-1.7c-1.1,0-1.9-0.9-1.9-1.9l0,0c0-1.1,0.9-1.9,1.9-1.9h1.7c1.1,0,1.9,0.9,1.9,1.9l0,0
			C159.5,82.7,158.6,83.5,157.6,83.5z"/>
		<path class="house-agency-5 fill-primary-lighter" d="M157.6,93.4h-1.7c-1.1,0-1.9-0.9-1.9-1.9l0,0c0-1.1,0.9-1.9,1.9-1.9h1.7c1.1,0,1.9,0.9,1.9,1.9l0,0
			C159.5,92.5,158.6,93.4,157.6,93.4z"/>
		<path class="house-agency-6" d="M157.6,103.2h-1.7c-1.1,0-1.9-0.9-1.9-1.9l0,0c0-1.1,0.9-1.9,1.9-1.9h1.7c1.1,0,1.9,0.9,1.9,1.9l0,0
			C159.5,102.3,158.6,103.2,157.6,103.2z"/>
		<path class="house-agency-5 fill-primary-lighter" d="M157.6,113h-1.7c-1.1,0-1.9-0.9-1.9-1.9l0,0c0-1.1,0.9-1.9,1.9-1.9h1.7c1.1,0,1.9,0.9,1.9,1.9l0,0
			C159.5,112.1,158.6,113,157.6,113z"/>
		<path class="house-agency-6" d="M157.6,122.8h-1.7c-1.1,0-1.9-0.9-1.9-1.9l0,0c0-1.1,0.9-1.9,1.9-1.9h1.7c1.1,0,1.9,0.9,1.9,1.9l0,0
			C159.5,121.9,158.6,122.8,157.6,122.8z"/>
		<path class="house-agency-5 fill-primary-lighter" d="M157.6,132.6h-1.7c-1.1,0-1.9-0.9-1.9-1.9l0,0c0-1.1,0.9-1.9,1.9-1.9h1.7c1.1,0,1.9,0.9,1.9,1.9l0,0
			C159.5,131.8,158.6,132.6,157.6,132.6z"/>
		<path class="house-agency-4" d="M157.6,142.5h-1.7c-1.1,0-1.9-0.9-1.9-1.9l0,0c0-1.1,0.9-1.9,1.9-1.9h1.7c1.1,0,1.9,0.9,1.9,1.9l0,0
			C159.5,141.6,158.6,142.5,157.6,142.5z"/>
		<path class="house-agency-4" d="M105,83.5H80c-1.1,0-1.9-0.9-1.9-1.9l0,0c0-1.1,0.9-1.9,1.9-1.9h25c1.1,0,1.9,0.9,1.9,1.9l0,0
			C106.9,82.7,106,83.5,105,83.5z"/>
		<path class="house-agency-7" d="M111.1,83.5h5.1c1.1,0,1.9-0.9,1.9-1.9l0,0c0-1.1-0.9-1.9-1.9-1.9h-5.1c-1.1,0-1.9,0.9-1.9,1.9l0,0
			C109.2,82.7,110,83.5,111.1,83.5z"/>
		<path class="house-agency-7" d="M91.3,93.4H79.9c-1.1,0-1.9-0.9-1.9-1.9l0,0c0-1.1,0.9-1.9,1.9-1.9h11.3c1.1,0,1.9,0.9,1.9,1.9l0,0
			C93.2,92.5,92.3,93.4,91.3,93.4z"/>
		<path class="house-agency-2 fill-primary" d="M101.3,93.4h33.9c1.1,0,1.9-0.9,1.9-1.9l0,0c0-1.1-0.9-1.9-1.9-1.9h-33.9c-1.1,0-1.9,0.9-1.9,1.9l0,0
			C99.4,92.5,100.2,93.4,101.3,93.4z"/>
		<path class="house-agency-4" d="M127.6,103.2H79.9c-1.1,0-1.9-0.9-1.9-1.9l0,0c0-1.1,0.9-1.9,1.9-1.9h47.7c1.1,0,1.9,0.9,1.9,1.9l0,0
			C129.5,102.3,128.7,103.2,127.6,103.2z"/>
		<path class="house-agency-4" d="M138.1,113H79.9c-1.1,0-1.9-0.9-1.9-1.9l0,0c0-1.1,0.9-1.9,1.9-1.9h58.2c1.1,0,1.9,0.9,1.9,1.9l0,0
			C140,112.1,139.2,113,138.1,113z"/>
		<path class="house-agency-2 fill-primary" d="M127.6,122.8H110c-1.1,0-1.9-0.9-1.9-1.9l0,0c0-1.1,0.9-1.9,1.9-1.9h17.6c1.1,0,1.9,0.9,1.9,1.9l0,0
			C129.5,121.9,128.7,122.8,127.6,122.8z"/>
		<path class="house-agency-4" d="M102.8,122.8H79.9c-1.1,0-1.9-0.9-1.9-1.9l0,0c0-1.1,0.9-1.9,1.9-1.9h22.9c1.1,0,1.9,0.9,1.9,1.9l0,0
			C104.8,121.9,103.9,122.8,102.8,122.8z"/>
		<path class="house-agency-4" d="M116.2,132.6H79.9c-1.1,0-1.9-0.9-1.9-1.9l0,0c0-1.1,0.9-1.9,1.9-1.9h36.3c1.1,0,1.9,0.9,1.9,1.9l0,0
			C118.1,131.8,117.3,132.6,116.2,132.6z"/>
		<path class="house-agency-7" d="M122.7,132.6h11.6c1.1,0,1.9-0.9,1.9-1.9l0,0c0-1.1-0.9-1.9-1.9-1.9h-11.6c-1.1,0-1.9,0.9-1.9,1.9l0,0
			C120.8,131.8,121.6,132.6,122.7,132.6z"/>
		<path class="house-agency-8" d="M127.6,142.5H79.9c-1.1,0-1.9-0.9-1.9-1.9l0,0c0-1.1,0.9-1.9,1.9-1.9h47.7c1.1,0,1.9,0.9,1.9,1.9l0,0
			C129.5,141.6,128.7,142.5,127.6,142.5z"/>
	</g>
	<g>
		<g id="houseAgency_18_">
			<path id="houseAgency_24_" class="house-agency-7" d="M98.4,53.3H81.2c-0.3,0-0.5-0.2-0.5-0.5v-3.7c0-0.3,0.2-0.5,0.5-0.5h17.2
				c0.3,0,0.5,0.2,0.5,0.5v3.7C98.9,53.1,98.7,53.3,98.4,53.3z"/>
			<path class="house-agency-9" d="M98.6,52.6H81c-0.1,0-0.2,0-0.3-0.1v0.6c0,0.1,0.1,0.2,0.2,0.2h17.9c0.1,0,0.2-0.1,0.2-0.2v-0.6
				C98.8,52.6,98.7,52.6,98.6,52.6z"/>
			<rect id="houseAgency_20_" x="90.2" y="48.6" class="house-agency-10" width="4.3" height="4.7"/>
			<rect id="houseAgency_19_" x="95.4" y="48.6" class="house-agency-10" width="1.1" height="4.7"/>
		</g>
		<g id="houseAgency_14_">
			<path id="houseAgency_17_" class="house-agency-7" d="M98.4,58H81.1c-0.3,0-0.5-0.2-0.5-0.5v-3.7c0-0.3,0.2-0.5,0.5-0.5h17.2
				c0.3,0,0.5,0.2,0.5,0.5v3.7C98.9,57.8,98.7,58,98.4,58z"/>
			<path class="house-agency-9" d="M98.6,57.3H80.9c-0.1,0-0.2,0-0.3-0.1v0.6c0,0.1,0.1,0.2,0.2,0.2h17.9c0.1,0,0.2-0.1,0.2-0.2v-0.6
				C98.8,57.3,98.7,57.3,98.6,57.3z"/>
			<rect id="houseAgency_16_" x="90.2" y="53.2" class="house-agency-10" width="4.3" height="4.7"/>
			<rect id="houseAgency_15_" x="95.3" y="53.3" class="house-agency-10" width="1.1" height="4.7"/>
		</g>
		<g id="houseAgency_10_">
			<path id="houseAgency_13_" class="house-agency-7" d="M97.5,62.6H80.3c-0.3,0-0.5-0.2-0.5-0.5v-3.7c0-0.3,0.2-0.5,0.5-0.5h17.2
				c0.3,0,0.5,0.2,0.5,0.5v3.7C98,62.4,97.8,62.6,97.5,62.6z"/>
			<path class="house-agency-9" d="M97.7,61.9H80.1c-0.1,0-0.2,0-0.3-0.1v0.6c0,0.1,0.1,0.2,0.2,0.2h17.9c0.1,0,0.2-0.1,0.2-0.2v-0.6
				C97.9,61.9,97.8,61.9,97.7,61.9z"/>
			<rect id="houseAgency_12_" x="89.3" y="57.9" class="house-agency-10" width="4.3" height="4.7"/>
			<rect id="houseAgency_11_" x="94.5" y="57.9" class="house-agency-10" width="1.1" height="4.7"/>
		</g>
		<g id="houseAgency_37_">
			<path id="houseAgency_40_" class="house-agency-7" d="M117.1,53.3H99.9c-0.3,0-0.5-0.2-0.5-0.5v-3.7c0-0.3,0.2-0.5,0.5-0.5h17.2
				c0.3,0,0.5,0.2,0.5,0.5v3.7C117.6,53.1,117.4,53.3,117.1,53.3z"/>
			<path class="house-agency-9" d="M117.4,52.6H99.7c-0.1,0-0.2,0-0.3-0.1v0.6c0,0.1,0.1,0.2,0.2,0.2h17.9c0.1,0,0.2-0.1,0.2-0.2v-0.6
				C117.6,52.6,117.5,52.6,117.4,52.6z"/>
			<rect id="houseAgency_39_" x="109" y="48.6" class="house-agency-10" width="4.3" height="4.7"/>
			<rect id="houseAgency_38_" x="114.1" y="48.5" class="house-agency-10" width="1.1" height="4.7"/>
		</g>
		<g id="houseAgency_9_">
			<path id="houseAgency_36_" class="house-agency-7" d="M117.5,48.9h-17.2c-0.3,0-0.5-0.2-0.5-0.5v-3.7c0-0.3,0.2-0.5,0.5-0.5h17.2
				c0.3,0,0.5,0.2,0.5,0.5v3.7C118,48.7,117.8,48.9,117.5,48.9z"/>
			<path class="house-agency-9" d="M117.7,48.2H100c-0.1,0-0.2,0-0.3-0.1v0.6c0,0.1,0.1,0.2,0.2,0.2h17.9c0.1,0,0.2-0.1,0.2-0.2v-0.6
				C117.9,48.2,117.8,48.2,117.7,48.2z"/>
			<rect id="houseAgency_35_" x="109.3" y="44.1" class="house-agency-10" width="4.3" height="4.7"/>
			<rect id="houseAgency_34_" x="114.5" y="44.2" class="house-agency-10" width="1.1" height="4.7"/>
		</g>
		<g id="houseAgency_41_">
			<path id="houseAgency_44_" class="house-agency-7" d="M117.1,44.3H99.8c-0.3,0-0.5-0.2-0.5-0.5v-3.7c0-0.3,0.2-0.5,0.5-0.5H117
				c0.3,0,0.5,0.2,0.5,0.5v3.7C117.6,44.1,117.4,44.3,117.1,44.3z"/>
			<path class="house-agency-9" d="M117.3,43.6H99.6c-0.1,0-0.2,0-0.3-0.1v0.6c0,0.1,0.1,0.2,0.2,0.2h17.9c0.1,0,0.2-0.1,0.2-0.2v-0.6
				C117.5,43.6,117.4,43.6,117.3,43.6z"/>
			<rect id="houseAgency_43_" x="108.9" y="39.6" class="house-agency-10" width="4.3" height="4.7"/>
			<rect id="houseAgency_42_" x="114" y="39.6" class="house-agency-10" width="1.1" height="4.7"/>
		</g>
		<g id="houseAgency_7_">
			<path id="houseAgency_32_" class="house-agency-7" d="M117.5,57.9h-17.2c-0.3,0-0.5-0.2-0.5-0.5v-3.7c0-0.3,0.2-0.5,0.5-0.5h17.2
				c0.3,0,0.5,0.2,0.5,0.5v3.7C118,57.7,117.8,57.9,117.5,57.9z"/>
			<path class="house-agency-9" d="M117.7,57.2H100c-0.1,0-0.2,0-0.3-0.1v0.6c0,0.1,0.1,0.2,0.2,0.2h17.9c0.1,0,0.2-0.1,0.2-0.2v-0.6
				C117.9,57.2,117.8,57.2,117.7,57.2z"/>
			<rect id="houseAgency_31_" x="109.3" y="53.2" class="house-agency-10" width="4.3" height="4.7"/>
			<rect id="houseAgency_8_" x="114.5" y="53.2" class="house-agency-10" width="1.1" height="4.7"/>
		</g>
		<g id="houseAgency_25_">
			<path id="houseAgency_28_" class="house-agency-7" d="M116.6,62.6H99.4c-0.3,0-0.5-0.2-0.5-0.5v-3.7c0-0.3,0.2-0.5,0.5-0.5h17.2
				c0.3,0,0.5,0.2,0.5,0.5v3.7C117.1,62.3,116.9,62.6,116.6,62.6z"/>
			<path class="house-agency-9" d="M116.9,61.9H99.2c-0.1,0-0.2,0-0.3-0.1v0.6c0,0.1,0.1,0.2,0.2,0.2H117c0.1,0,0.2-0.1,0.2-0.2v-0.6
				C117.1,61.9,117,61.9,116.9,61.9z"/>
			<rect id="houseAgency_27_" x="108.5" y="57.8" class="house-agency-10" width="4.3" height="4.7"/>
			<rect id="houseAgency_26_" x="113.6" y="57.9" class="house-agency-10" width="1.1" height="4.7"/>
		</g>
	</g>
	<g>
		<g>
			<path class="house-agency-11" d="M34.5,111.7c0.2-0.8,0.3-1.6,0.1-2.4c-0.1-0.3-0.2-0.6-0.4-0.9c-0.2-0.1-0.4-0.2-0.6-0.3
				c-2.9-1-6.1,0-8.4,1.9c-2,1.7-3.5,3.9-5,6.1c-0.8,1.2-1.6,2.3-2.3,3.5l-0.1,3.9c2.6-1.5,5.4-2.4,8.1-3.6c3.4-1.5,6.6-3.6,8.3-7.1
				C34.3,112.4,34.4,112.1,34.5,111.7z"/>
		</g>
		<g>
			<path class="house-agency-12" d="M18.9,120.6c3.9-2.8,8.5-4.7,11.7-8.3c0.1-0.1-0.1-0.3-0.2-0.2C27.2,115.7,22.7,117.7,18.9,120.6
				C18.8,120.6,18.8,120.7,18.9,120.6L18.9,120.6z"/>
		</g>
		<g>
			<path class="house-agency-12" d="M27.8,111.4c-1.1,1.4-2.2,3.2-2.5,5c0,0.1,0.1,0.2,0.2,0.1c0.8-1.7,1.4-3.4,2.6-4.9
				C28.2,111.4,28,111.2,27.8,111.4L27.8,111.4z"/>
		</g>
		<g>
			<path class="house-agency-12" d="M23.6,114.3c-0.4,0.7-0.7,1.3-1,2.1c-0.3,0.7-0.7,1.4-0.7,2.1c0,0.1,0.2,0.2,0.3,0.1
				c0.5-0.5,0.6-1.2,0.9-1.8c0.3-0.8,0.6-1.6,0.8-2.4C23.9,114.2,23.7,114.1,23.6,114.3L23.6,114.3z"/>
		</g>
		<g>
			<path class="house-agency-12" d="M20.9,119.4c0.6,0.2,1.2,0.2,1.8,0.2c0.5,0,1.1,0.1,1.6-0.1c0.1-0.1,0.1-0.3,0-0.3c-0.5-0.2-1,0-1.5,0
				c-0.6,0-1.2-0.1-1.7,0C20.8,119.2,20.7,119.4,20.9,119.4L20.9,119.4z"/>
		</g>
		<g>
			<path class="house-agency-12" d="M24.7,117.1c0.7,0.4,1.8,0.8,2.7,0.5c0.1,0,0.1-0.2,0-0.2c-0.4-0.1-0.7,0-1.1-0.1c-0.5,0-1-0.2-1.5-0.3
				C24.7,117,24.7,117.1,24.7,117.1L24.7,117.1z"/>
		</g>
		<g>
			<path class="house-agency-11" d="M12.6,106.7c-1-1.8-2.5-3.8-4.5-3.8c-1.7,0-3.2,1.4-3.7,3s-0.2,3.4,0.3,5c1.9,5.8,6.9,10.6,12.8,12.1
				l0.2-0.4C17.1,117.1,15.3,111.6,12.6,106.7z"/>
		</g>
		<g>
			<path class="house-agency-12" d="M7.1,106.6c4.5,3.6,6.1,10.2,8.7,15.1c0.1,0.1,0.3,0,0.2-0.1c-1.2-2.9-2.7-5.8-4.1-8.6
				c-1.2-2.5-2.5-4.8-4.8-6.6C7.2,106.3,7,106.5,7.1,106.6L7.1,106.6z"/>
		</g>
		<g>
			<path class="house-agency-12" d="M11.1,106.2c0.1,0.8,0.1,1.6-0.1,2.4c-0.1,0.6-0.5,1.2-0.5,1.9c0,0.1,0.1,0.2,0.2,0.1c1-1,0.9-3.2,0.6-4.4
				C11.3,106,11.1,106.1,11.1,106.2L11.1,106.2z"/>
		</g>
		<g>
			<path class="house-agency-12" d="M7.4,111.9c1.3,1.1,3,2.3,4.7,2.4c0.1,0,0.2-0.2,0.1-0.3c-0.8-0.4-1.6-0.6-2.4-1c-0.8-0.4-1.5-0.8-2.3-1.3
				C7.4,111.6,7.3,111.8,7.4,111.9L7.4,111.9z"/>
		</g>
		<g>
			<path class="house-agency-12" d="M12.7,110.5c0,0.6,0,1.1,0,1.7c-0.1,0.6-0.2,1.1-0.2,1.7c0,0.1,0.2,0.2,0.3,0.1c0.5-1,0.3-2.5,0.1-3.5
				C12.9,110.4,12.7,110.4,12.7,110.5L12.7,110.5z"/>
		</g>
		<line class="house-agency-13" x1="18" y1="70" x2="18" y2="138.4"/>
		<g>
			<g>
				<path class="house-agency-14" d="M17.8,85.7C17.8,85.7,17.8,85.6,17.8,85.7C17.7,85.6,17.7,85.7,17.8,85.7L17.8,85.7z"/>
			</g>
		</g>
		<g>
			<g>
				<path class="house-agency-14" d="M20.6,91.7C20.6,91.7,20.6,91.6,20.6,91.7C20.5,91.6,20.5,91.7,20.6,91.7L20.6,91.7z"/>
			</g>
		</g>
		<g id="houseAgency_45_">
			<path id="houseAgency_54_" class="house-agency-7" d="M36,87.3c0,9.9-8.1,18-18,18s-18-8.1-18-18s8.1-18,18-18C28,69.3,36,77.3,36,87.3z"/>
			<path id="houseAgency_53_" class="house-agency-6" d="M34.1,87.3c0,8.9-7.2,16-16,16c-8.9,0-16-7.2-16-16c0-8.9,7.2-16,16-16
				C26.9,71.2,34.1,78.4,34.1,87.3z"/>
			<path id="houseAgency_52_" class="house-agency-7" d="M32.2,87.3c0,7.8-6.3,14.2-14.2,14.2S3.9,95.1,3.9,87.3s6.3-14.2,14.2-14.2
				S32.2,79.5,32.2,87.3z"/>
			<g id="houseAgency_46_">
				<g id="houseAgency_49_">
					<path id="houseAgency_51_" class="house-agency-14" d="M19.9,94.5h-5.2c-1.2,0-2.2-1-2.2-2.2v-1.1h3.1v0.2h4.3c0.8,0,1.5-0.7,1.5-1.5
						c0-0.5-0.4-1-1-1h-3.9c-2.3,0-4.1-1.8-4.1-4.1v-0.6c0-2.6,2.1-4.6,4.6-4.6h5.2c1.2,0,2.2,1,2.2,2.2v1.3h-3.1v-0.3H17
						c-0.8,0-1.5,0.7-1.5,1.5v0.6c0,0.5,0.4,1,1,1h3.9c2.3,0,4.1,1.8,4.1,4.1C24.5,92.4,22.4,94.5,19.9,94.5z"/>
				</g>
				<g id="houseAgency_47_">
					<rect id="houseAgency_48_" x="16.9" y="78.1" class="house-agency-14" width="3.1" height="18.3"/>
				</g>
			</g>
		</g>
	</g>
	<g>
		<line class="house-agency-13" x1="43.6" y1="130.2" x2="43.6" y2="145.4"/>
		<g>
			<g>
				<path class="house-agency-14" d="M43.5,135.2c0.1,0,0.1-0.1,0-0.1C43.5,135.1,43.5,135.2,43.5,135.2L43.5,135.2z"/>
			</g>
		</g>
		<g>
			<g>
				<path class="house-agency-14" d="M44.4,137L44.4,137L44.4,137L44.4,137z"/>
			</g>
		</g>
		<g id="houseAgency_88_">
			<path id="houseAgency_97_" class="house-agency-7" d="M48.9,131.5c0,3.1-2.5,5.6-5.6,5.6s-5.6-2.5-5.6-5.6s2.5-5.6,5.6-5.6S48.9,128.5,48.9,131.5z
				"/>
			<path id="houseAgency_95_" class="house-agency-6" d="M48.3,131.5c0,2.8-2.2,5-5,5s-5-2.2-5-5s2.2-5,5-5S48.3,128.8,48.3,131.5z"/>
			<path id="houseAgency_94_" class="house-agency-7" d="M47.7,131.5c0,2.4-2,4.4-4.4,4.4s-4.4-2-4.4-4.4s2-4.4,4.4-4.4
				C45.8,127.1,47.7,129.1,47.7,131.5z"/>
			<g id="houseAgency_89_">
				<g id="houseAgency_92_">
					<path id="houseAgency_93_" class="house-agency-14" d="M43.9,133.8h-1.6c-0.4,0-0.7-0.3-0.7-0.7v-0.3h1v0.1h1.3c0.3,0,0.5-0.2,0.5-0.5
						c0-0.2-0.1-0.3-0.3-0.3h-1.2c-0.7,0-1.3-0.6-1.3-1.3v-0.2c0-0.8,0.6-1.4,1.4-1.4h1.6c0.4,0,0.7,0.3,0.7,0.7v0.4h-1v-0.1H43
						c-0.3,0-0.5,0.2-0.5,0.5v0.2c0,0.2,0.1,0.3,0.3,0.3H44c0.7,0,1.3,0.6,1.3,1.3C45.4,133.1,44.7,133.8,43.9,133.8z"/>
				</g>
				<g id="houseAgency_90_">
					<rect id="houseAgency_91_" x="43" y="128.7" class="house-agency-14" width="1" height="5.7"/>
				</g>
			</g>
		</g>
	</g>
	<g>
		<g>
			<path class="house-agency-11" d="M38,131.5c0.1-0.4,0.2-0.9,0.1-1.3c0-0.2-0.1-0.4-0.2-0.5c-0.1-0.1-0.2-0.1-0.3-0.2c-1.6-0.6-3.3,0-4.6,1
				c-1.1,0.9-1.9,2.1-2.7,3.3c-0.4,0.6-0.8,1.3-1.3,1.9l-0.1,2.1c1.4-0.8,2.9-1.3,4.4-2c1.9-0.8,3.6-2,4.5-3.9
				C37.8,131.9,37.9,131.7,38,131.5z"/>
		</g>
		<g>
			<path class="house-agency-12" d="M29.4,136.4c2.1-1.5,4.6-2.5,6.4-4.5c0.1-0.1,0-0.1-0.1-0.1C33.9,133.7,31.5,134.8,29.4,136.4
				C29.4,136.3,29.4,136.4,29.4,136.4L29.4,136.4z"/>
		</g>
		<g>
			<path class="house-agency-12" d="M34.3,131.3c-0.6,0.8-1.2,1.7-1.4,2.7c0,0.1,0.1,0.1,0.1,0C33.4,133.1,33.8,132.2,34.3,131.3
				C34.5,131.3,34.4,131.2,34.3,131.3L34.3,131.3z"/>
		</g>
		<g>
			<path class="house-agency-12" d="M32,132.9c-0.2,0.4-0.4,0.7-0.5,1.1c-0.1,0.4-0.4,0.8-0.4,1.2c0,0.1,0.1,0.1,0.1,0.1c0.3-0.3,0.3-0.6,0.5-1
				s0.3-0.9,0.4-1.3C32.2,132.9,32,132.8,32,132.9L32,132.9z"/>
		</g>
		<g>
			<path class="house-agency-12" d="M30.5,135.7c0.3,0.1,0.6,0.1,1,0.1c0.3,0,0.6,0,0.9-0.1c0.1,0,0-0.1,0-0.2c-0.3-0.1-0.6,0-0.8,0
				c-0.3,0-0.6,0-1,0C30.5,135.6,30.4,135.7,30.5,135.7L30.5,135.7z"/>
		</g>
		<g>
			<path class="house-agency-12" d="M32.6,134.5c0.4,0.2,1,0.4,1.4,0.3c0.1,0,0.1-0.1,0-0.1c-0.2,0-0.4,0-0.6,0
				C33.2,134.5,32.9,134.5,32.6,134.5C32.6,134.4,32.6,134.5,32.6,134.5L32.6,134.5z"/>
		</g>
		<g>
			<path class="house-agency-11" d="M26,128.8c-0.5-1-1.3-2.1-2.5-2.1c-0.9,0-1.7,0.8-2,1.6c-0.3,0.9-0.1,1.9,0.2,2.7c1,3.2,3.8,5.8,7,6.6
				l0.1-0.2C28.5,134.4,27.5,131.5,26,128.8z"/>
		</g>
		<g>
			<path class="house-agency-12" d="M23,128.7c2.5,2,3.3,5.6,4.8,8.3c0,0.1,0.2,0,0.1-0.1c-0.7-1.6-1.5-3.2-2.2-4.7
				C25,130.8,24.3,129.6,23,128.7C23,128.6,23,128.7,23,128.7L23,128.7z"/>
		</g>
		<g>
			<path class="house-agency-12" d="M25.2,128.5c0.1,0.4,0,0.9,0,1.3c-0.1,0.3-0.3,0.7-0.3,1c0,0.1,0.1,0.1,0.1,0c0.5-0.5,0.5-1.7,0.3-2.4
				C25.3,128.4,25.2,128.4,25.2,128.5L25.2,128.5z"/>
		</g>
		<g>
			<path class="house-agency-12" d="M23.2,131.6c0.7,0.6,1.6,1.3,2.6,1.3c0.1,0,0.1-0.1,0-0.1c-0.4-0.2-0.9-0.3-1.3-0.5
				C24,132,23.6,131.8,23.2,131.6C23.2,131.5,23.1,131.6,23.2,131.6L23.2,131.6z"/>
		</g>
		<g>
			<path class="house-agency-12" d="M26.1,130.9c0,0.3,0,0.6,0,0.9c0,0.3-0.1,0.6-0.1,0.9c0,0.1,0.1,0.1,0.1,0c0.3-0.5,0.2-1.3,0.1-1.9
				C26.2,130.8,26.1,130.8,26.1,130.9L26.1,130.9z"/>
		</g>
		<line class="house-agency-13" x1="28.9" y1="114.3" x2="28.9" y2="145.4"/>
		<g>
			<g>
				<path class="house-agency-14" d="M28.8,117.3C28.9,117.3,28.9,117.2,28.8,117.3C28.8,117.2,28.8,117.3,28.8,117.3L28.8,117.3z"/>
			</g>
		</g>
		<g>
			<g>
				<path class="house-agency-14" d="M30.3,120.6C30.4,120.6,30.4,120.6,30.3,120.6L30.3,120.6L30.3,120.6z"/>
			</g>
		</g>
		<g id="houseAgency_55_">
			<path id="houseAgency_64_" class="house-agency-7" d="M38.3,116.9c0,5.4-4.4,9.8-9.8,9.8s-9.8-4.4-9.8-9.8s4.4-9.8,9.8-9.8S38.3,111.5,38.3,116.9z
				"/>
			<path id="houseAgency_76_" class="house-agency-6" d="M37.2,116.9c0,4.8-3.9,8.7-8.7,8.7s-8.7-3.9-8.7-8.7c0-4.8,3.9-8.7,8.7-8.7
				C33.3,108.2,37.2,112.1,37.2,116.9z"/>
			<path id="houseAgency_75_" class="house-agency-7" d="M36.2,116.9c0,4.3-3.5,7.7-7.7,7.7c-4.3,0-7.7-3.5-7.7-7.7c0-4.3,3.5-7.7,7.7-7.7
				C32.7,109.2,36.2,112.6,36.2,116.9z"/>
			<g id="houseAgency_56_">
				<g id="houseAgency_73_">
					<path id="houseAgency_74_" class="house-agency-14" d="M29.5,120.8h-2.9c-0.7,0-1.2-0.5-1.2-1.2V119h1.7v0.1h2.4c0.5,0,0.8-0.4,0.8-0.8
						c0-0.3-0.2-0.5-0.5-0.5h-2.1c-1.2,0-2.2-1-2.2-2.2v-0.3c0-1.4,1.1-2.5,2.5-2.5h2.9c0.7,0,1.2,0.5,1.2,1.2v0.7h-1.7v-0.2H28
						c-0.5,0-0.8,0.4-0.8,0.8v0.3c0,0.3,0.2,0.5,0.5,0.5h2.1c1.2,0,2.2,1,2.2,2.2C32,119.7,30.9,120.8,29.5,120.8z"/>
				</g>
				<g id="houseAgency_57_">
					<rect id="houseAgency_72_" x="27.9" y="111.9" class="house-agency-14" width="1.7" height="10"/>
				</g>
			</g>
		</g>
	</g>
	<g>
		<line class="house-agency-13" x1="10.1" y1="128.9" x2="10.1" y2="145.4"/>
		<g>
			<g>
				<path class="house-agency-14" d="M10,137.1c0.1,0,0.1-0.1,0-0.1V137.1L10,137.1z"/>
			</g>
		</g>
		<g>
			<g>
				<path class="house-agency-14" d="M11.5,140.2C11.5,140.2,11.5,140.1,11.5,140.2C11.5,140.1,11.5,140.2,11.5,140.2L11.5,140.2z"/>
			</g>
		</g>
		<g id="houseAgency_264_">
			<path id="houseAgency_272_" class="house-agency-7" d="M19.1,131.1c0,5.2-4.2,9.4-9.4,9.4s-9.4-4.2-9.4-9.4c0-5.2,4.2-9.4,9.4-9.4
				C14.9,121.7,19.1,125.9,19.1,131.1z"/>
			<path id="houseAgency_271_" class="house-agency-6" d="M18,131.1c0,4.6-3.7,8.3-8.3,8.3s-8.3-3.7-8.3-8.3c0-4.6,3.7-8.3,8.3-8.3
				C14.3,122.7,18,126.5,18,131.1z"/>
			<path id="houseAgency_270_" class="house-agency-7" d="M17.1,131.1c0,4.1-3.3,7.4-7.4,7.4s-7.4-3.3-7.4-7.4s3.3-7.4,7.4-7.4
				C13.8,123.7,17.1,127,17.1,131.1z"/>
			<g id="houseAgency_265_">
				<g id="houseAgency_268_">
					<path id="houseAgency_269_" class="house-agency-14" d="M10.7,134.8H7.9c-0.6,0-1.1-0.5-1.1-1.1v-0.6h1.6v0.1h2.2c0.4,0,0.8-0.4,0.8-0.8
						c0-0.3-0.2-0.5-0.5-0.5h-2c-1.2,0-2.1-1-2.1-2.1v-0.3c0-1.3,1.1-2.4,2.4-2.4h2.7c0.6,0,1.1,0.5,1.1,1.1v0.7h-1.6v-0.2H9.2
						c-0.4,0-0.8,0.4-0.8,0.8v0.3c0,0.3,0.2,0.5,0.5,0.5h2c1.2,0,2.1,1,2.1,2.1C13.1,133.8,12,134.8,10.7,134.8z"/>
				</g>
				<g id="houseAgency_266_">
					<rect id="houseAgency_267_" x="9.1" y="126.3" class="house-agency-14" width="1.6" height="9.5"/>
				</g>
			</g>
		</g>
	</g>
</g>
<g id="Layer_17">
	<g>
		<rect x="177.2" y="18.3" class="house-agency-15" width="6.8" height="6.4"/>
		<polygon class="house-agency-16" points="181.3,137.6 179.4,139.9 173.8,141.1 173.3,144.7 188.9,144.7 188.2,137.6 		"/>
		<path class="house-agency-17" d="M173.8,141.1l-4.4,0.6l-0.5,0.6c-0.3,0.3-0.4,0.8-0.2,1.2l0,0c0.3,0.7,1,1.3,1.7,1.6l3.4,1.2h15.3v-5.1h-1
			l-7.6,3.2l-5.1,0.1l-1.9-1.3L173.8,141.1z"/>
		<g>
			<polygon class="house-agency-12" points="173.6,142.7 173.8,141.1 173.8,141.2 173.6,142.6 			"/>
			<path class="house-agency-12" d="M170.4,144.6c-0.8-0.3-1.4-0.8-1.7-1.6l0,0c0-0.1,0-0.1-0.1-0.2c-0.1,0.2,0,0.5,0.1,0.7l0,0
				c0.3,0.7,1,1.3,1.7,1.6l3.4,1.2h15.3v-0.5h-15.3L170.4,144.6z"/>
		</g>
		<path class="house-agency-18 fill-primary-darker" d="M190.4,76.7l-1.5,4.9l0.4,26.7c0,0,3,7.8,1.1,14.6l-2.3,14.7H185l-0.6-61.2L190.4,76.7z"/>
		<polygon class="house-agency-15" points="179.7,137.6 177.8,139.9 172.2,141.1 171.7,144.7 187.3,144.7 186.6,137.6 		"/>
		<path class="house-agency-2 fill-primary" d="M173.9,65.1v5.1l1.3,28.2c0.1,2.3,0.5,4.6,1.2,6.8l0,0l0,0c0.3,2.3,1.1,4.4,2.4,6.3l0.2,0.3l0.8,25.8h6.8
			l1.7-11.3c0,0,1.6-9-0.8-15V81.5l1.5-2.1c1.6-2.2,2.5-4.9,2.5-7.6l0,0c0-2-0.4-3.9-1.3-5.7l-0.5-1.1L173.9,65.1L173.9,65.1z"/>
		<path class="house-agency-1" d="M172.2,141.1l-4.4,0.6l-0.5,0.6c-0.3,0.3-0.4,0.8-0.2,1.2l0,0c0.3,0.7,1,1.3,1.7,1.6l3.4,1.2h15.3v-5.1h-1
			l-7.6,3.2l-5.1,0.1l-1.9-1.3L172.2,141.1z"/>
		<g>
			<polygon class="house-agency-12" points="172,142.7 172.2,141.1 172.2,141.2 172,142.6 			"/>
			<path class="house-agency-12" d="M168.8,144.6c-0.8-0.3-1.4-0.8-1.7-1.6l0,0c0-0.1,0-0.1-0.1-0.2c-0.1,0.2,0,0.5,0.1,0.7l0,0
				c0.3,0.7,1,1.3,1.7,1.6l3.4,1.2h15.3v-0.5h-15.3L168.8,144.6z"/>
		</g>
		<path class="house-agency-19" d="M190.1,66.1l-0.5-1.1h-15.7v2.7c0,0,0,0,0.1,0c1,0.2,2.1,0.2,3.1-0.1c0.7-0.2,1.3-0.5,2-0.6
			c0.5-0.1,0.9,0,1.4,0c3.5,0.3,6.9,0.6,10.4,1C190.6,67.4,190.4,66.7,190.1,66.1z"/>
		<path class="house-agency-20" d="M175.3,31.5l-3.4,7.7c-0.4,0.9-0.6,1.8-0.6,2.8v1.1c0,1.2,0.3,2.4,0.9,3.4c0,3.9,0.1,7.8,0.1,11.7
			c0,2,0,4,0.1,6.1c0,0.6-0.1,1.3,0,1.8c0.1,0.6,0.4,0.6,1.1,0.7c1,0.2,2.1,0.2,3.1-0.1c0.7-0.2,1.3-0.5,2-0.6c0.5-0.1,0.9,0,1.4,0
			c3.6,0.3,7.2,0.7,10.8,1c-0.1,0-0.6-1.7-0.6-1.9c-0.1-0.5-0.1-0.9-0.1-1.4c0-1-0.1-2.1-0.2-3.1c-0.1-1.3-0.2-2.6-0.2-4
			c-0.2-2.7,0.1-5.4,0.9-8l2.4-8.3c1-3.5,0.9-7.3-0.4-10.7l-3.2-8.4l-5.4,2.1l-6.6,1.4L175.3,31.5z"/>
		<polygon class="house-agency-19" points="184,18.3 177.2,22.3 177.2,18.3 		"/>
		<path class="house-agency-15" d="M169,8.1v3.4c0,0.5,0.3,0.9,0.7,1.2l0.6,0.4c0,0-0.3,1.7-0.9,2.7c-0.2,0.3-0.1,0.6,0.1,0.8
			c0.4,0.3,0.9,0.6,1.5,0.5l1,2.9c0.4,1.1,1.5,1.6,2.6,1.3l6.2-2.2l2.1-8.4l-2-5.2l-9.1,0.4C171.7,5.7,169,6.7,169,8.1z"/>

			<linearGradient id="houseAgencyID1" gradientUnits="userSpaceOnUse" x1="167.6913" y1="132.6342" x2="195.6994" y2="132.6342" gradientTransform="matrix(1 0 0 -1 0 153.9789)">
			<stop  offset="9.091265e-03" style="stop-color:#54585E"/>
			<stop  offset="1" style="stop-color:#838891"/>
		</linearGradient>
		<path class="house-agency-21" d="M195.6,37.5c-0.1-0.6-0.2-1.1-0.4-1.7c-0.3-1.1-0.6-2.2-0.9-3.2c-0.3-1-0.6-2.1-1-3.1
			c-0.3-0.7-0.7-1.3-0.9-2c-0.4-1.4,0-2.9-0.2-4.3c-0.2-2.3-1.6-4.3-1.9-6.5c-0.1-1,0-2-0.1-2.9c-0.2-1.8-1.4-3.2-2.3-4.8
			c-0.8-1.2-2.1-2.2-2.7-3.6c-0.3-0.7-0.3-1.6-0.6-2.3c-0.6-1.5-2-2.4-3.5-2.8s-2.9,0-4.4-0.2c-1.3-0.1-2.4-0.2-3.7,0.2
			c-2.2,0.7-5.5,2.3-5.3,5c0.1,0.8,0.4,1.6,0.7,2.3c0.1,0.3,0.3,0.7,0.6,0.8c0.5,0.2,1.1-0.1,1.6-0.3l0.2,0.1l1.2,1.1l0.7,0.7
			c0.1,0.1,0.1,0.1,0.2,0.2l0,0l0,0c0.3,0.3,0.6,0.5,1,0.6c0.5,0.2,1.1,0.3,1.5,0.6s0.6,0.7,0.9,1.1c0.7,1.4,1,3,2,4.1
			c0.4,0.4,0.9,0.8,1.3,1.2c1.1,1.3,1.1,3.2,1.9,4.6c1.2,2.1,4,3,5.1,5.2c0.8,1.6,0.5,3.4,1.1,5.1c0.4,1,1,1.9,1.3,2.9
			c0.2,1,0.1,2,0.1,2.9c0,1,0.3,2.1,1,2.7c0-0.6,0.6-1.2,1.2-1.3c0.3,0.9,0.4,1.8,0.2,2.8c0.1-0.5,0.7-0.8,1.2-0.9
			c1.4-0.3,2.4-0.3,2.8-1.9C195.7,39.1,195.7,38.3,195.6,37.5z"/>
		<path class="house-agency-22" d="M185.3,35.9l-7.9,0.5L176,53.1l-3.7,1.4l0.1,5.9l5.2-0.4c2.7-0.2,4.9-2.2,5.3-4.9L185.3,35.9z"/>
		<path class="house-agency-15" d="M176.9,35.9l-1.4,16.7l-12.6,4.8l-4.9-3.1h-3.8l-1,1.9v2.1h0.9l0.1-1.1l0.4-0.1l5.1,3.7h2.7l14.5-1.1
			c2.7-0.2,4.9-2.2,5.3-4.9l3-18.7h-8.3V35.9z"/>
		<g class="house-agency-23">
			<path class="house-agency-12" d="M172.5,51.5c0-0.2-0.1-0.5-0.1-0.7c0-0.8,0.8-1.5,1.4-1.9c-0.4,0-0.9-0.2-1.1-0.6c-0.2-0.4,0.1-1,0.5-1
				c-0.2-0.1-0.4-0.3-0.6-0.4c1.1,0,2.1-0.6,2.7-1.5c-0.8,0.4-1.8,0.8-2.7,0.4c-0.6-0.3-1-0.9-1.3-1.6c0.1,0.7,0.4,1.5,0.8,2.1
				l0.1,6.3C172.5,52.4,172.6,52,172.5,51.5z"/>
		</g>
		<polygon class="house-agency-19" points="176.8,36.9 185.2,36.9 185.3,35.9 176.9,35.9 		"/>
		<path class="house-agency-20" d="M176.3,35.9v-3.2c0-2.5,0.7-4.9,1.9-7l0,0h6.8l0,0c0.7,2.7,1.1,5.4,1.1,8.2V36L176.3,35.9L176.3,35.9z"/>
		<g class="house-agency-24">
			<g>
				<path class="house-agency-12" d="M189.7,52.1c-0.1,0.6-0.1,1.1-0.2,1.7c-0.5-0.8-0.7-1.7-0.8-2.6C189.1,51.6,189.4,51.9,189.7,52.1z
					 M190.8,47.2c-1,1.2-1.4,3-1,4.5c0.2-1,0.3-2,0.6-3L190.8,47.2C190.8,47.3,190.8,47.3,190.8,47.2z M188.6,55
					c-0.5,0-0.9,0.1-1.4,0.1c1.1,0.4,1.9,1.6,2,2.8c-0.2-0.1-0.4-0.1-0.6,0c0.5,0.6,0.9,1.2,1.2,2l-0.2-3.1c-0.1-0.9,0-1.8,0-2.8
					c-0.4-0.1-0.9-0.1-1.3-0.2c0,0.5,1.1,0.7,0.8,1.1C188.9,55,188.8,55,188.6,55z"/>
			</g>
		</g>
		<g class="house-agency-25">
			<g>
				<path class="house-agency-12" d="M187.2,133.3l-0.2,1.4c-0.1,0-0.1,0-0.2,0l0.1-0.4C187,134,187.1,133.7,187.2,133.3z M186,87.4
					c-0.3,1.2-0.6,2.4-0.8,3.7c-0.2,2,0.2,4,0.4,6.1c0.3,3.1,0.2,6.2,0.2,9.3c-0.3-0.3-0.6-0.5-0.9-0.8c0.1,0.1,0.2,1.3,0.2,1.6
					c0.2,0.6,0.4,1.1,0.6,1.6c0.4,1,1.1,1.9,1.6,2.8c0.3-1.1,0.1-2.3,0.1-3.4c0-2.2,0-4.4,0-6.7c0-2.7,0-5.3,0-8c0-2.2,0-4.5,0-6.7
					c0-1.2,0.1-2.4,0-3.5c0-0.5,0-1,0-1.5c0-0.1,0-0.3,0-0.4s-0.1-0.2-0.2-0.3c-0.1-0.1-0.1-0.2-0.2-0.3c-0.2,1-0.2,2.2-0.4,3.3
					C186.4,85.2,186.2,86.3,186,87.4z M187.4,131.6l0.8-5.3c0.2-1,0.3-1.9,0.3-2.9c0.2-2.3,0.2-4.6,0-6.9c-0.1-1.3-0.3-2.5-0.7-3.7
					c-0.1-0.5-0.2-1.3-0.7-1.4c-0.7-0.2-1.4-0.1-2-0.5c-0.1,0-0.2-0.1-0.2,0c0,0-0.1,0.1-0.1,0.2c0,0.4,0.4,0.7,0.7,0.9
					c0.1,0.1,0.9,0.6,1,0.6c-0.8,0.2-1.7,0.2-2.5,0c0.9,0.8,1.7,1.8,2.3,2.8c0.3,0.5,0.5,1.1,0.7,1.7s0.3,1.1-0.5,0.7
					c-0.2-0.1-0.5-0.3-0.7-0.2c0.4,0.7,0.8,1.3,1,2c0.1,0.4,0.3,0.8,0.4,1.2c0.1,0.3,0.1,0.8,0.2,1.1c-0.5-0.7-1.3-1.3-2.2-1.4
					c0.6,1.6,1.2,3.1,1.8,4.7c-0.4-0.1-0.8-0.1-1.3-0.2C187.1,126.9,187.6,129.3,187.4,131.6z"/>
			</g>
		</g>
		<g class="house-agency-26">
			<path class="house-agency-12" d="M173,6.9L173,6.9L173,6.9L173,6.9z"/>
		</g>
		<path class="house-agency-27" d="M180.4,3L180.4,3c1.5,0.4,2.4,1,2.7,2.6c0.1,1-0.7,2-0.9,2.9c-0.9,3.5-0.6,6.4,1.9,9.4
			c1.7,2,4.2,3.3,5.4,5.7c1.3,2.4,1,5.2,0.7,7.9h-0.1c0.3-4.7-0.4-7.8-3.7-11.3c-1.3-1.3-2.7-2.3-3.6-3.9c-0.9-1.5-1.3-3.2-1.2-4.9
			C181.6,8.8,184.8,4.4,180.4,3L180.4,3z M183.8,22.5c2.6-1.1,2.1,3.8,2.9,4.9c1.2,1.5,2.7,1.6,3.1,4.1c0.4,2.5,0.4,5.2,3.4,5.8
			c0.1,0,0.1-0.1,0-0.1c-4.3-1.2-2.3-4.7-3.5-7.5c-0.9-2-3-1.3-3.5-4.4C186,23.8,186.3,21.4,183.8,22.5L183.8,22.5L183.8,22.5z
			 M184.2,10.6c1.7-0.7,1.8,2.9,1.9,3.7c0.1,0.8,0.3,1.6,0.6,2.4c0.5,1.4,1.4,2.6,2.6,3.3c0,0,0.1,0,0.1-0.1
			c-1.3-1.1-2.2-2.3-2.7-3.9c-0.4-1.4-0.4-2.8-0.7-4.1C185.8,11,185.2,10.1,184.2,10.6C184.1,10.6,184.2,10.6,184.2,10.6L184.2,10.6
			z M174.2,5c1.2-1.9,2.9,1.1,3.1,1.9c0.1,0.3,0.1,0.6,0.1,0.9c0.1,0.9,0.4,1.8,0.8,2.6c0.8,1.7,2,3.2,3.5,4.2
			c0.1,0,0.1-0.1,0.1-0.1c-1.4-1.2-2.6-2.5-3.4-4.2c-0.5-1.1-0.8-2.3-1-3.5c-0.1-0.5,0-1-0.2-1.5C176.6,4.3,174.7,3.8,174.2,5
			L174.2,5L174.2,5z M169.2,6.7c0.3-0.4,0.7-0.7,1.2-0.8c0.6-0.6,1.2-0.5,1.7,0.2c0.9,0.5,0.9,0.7,1.3,1.4c0.4,0.8,0.9,1.7,1.4,2.4
			c0.9,1.2,1.9,2.3,3.2,3.1c0,0,0.1,0,0-0.1c-1.6-1.1-2.8-2.4-3.8-4c-0.5-0.9-0.9-2.2-1.6-2.9C171.6,4.9,170,5.4,169.2,6.7
			C169.1,6.7,169.2,6.7,169.2,6.7L169.2,6.7z M171.1,3.7c2.4-2,4.6-1.7,6.9,0.4c0.8,0.7,1.4,1.2,2.4,1.2c0.1,0,0.1-0.1,0-0.1
			c-2.2-0.2-3.1-2.6-5.2-3C173.6,1.9,172.3,2.6,171.1,3.7L171.1,3.7L171.1,3.7z M186.8,10.2c1.4,1.2,1.3,4,1.8,5.7
			c0.6,1.9,1.3,3.8,1.8,5.7h0.1c-0.4-2.5-1.6-4.7-2.1-7.2C187.9,12.7,188.4,11.4,186.8,10.2C186.8,10.2,186.7,10.2,186.8,10.2
			L186.8,10.2z M191.7,30.4c0.3,1.2,0.1,2.2,1,3.1c0.8,0.8,1.6,1.3,1.8,2.5c0.3,1.8-1,3.2-2.3,4.2v0.1c1.5-0.9,2.8-2.5,2.5-4.3
			c-0.1-1-0.6-1.5-1.3-2.1s-0.9-0.5-1.2-1.4C191.9,31.8,192,31.1,191.7,30.4C191.8,30.3,191.7,30.4,191.7,30.4L191.7,30.4z"/>
	</g>
	<g>
		<path class="house-agency-8" d="M168.1,62.6h-26.2c-0.6,0-1-0.5-1-1v-0.2c0-0.6,0.5-1,1-1h26.2c0.6,0,1,0.5,1,1v0.2
			C169.2,62.1,168.7,62.6,168.1,62.6z"/>
		<path class="house-agency-28" d="M168,62.1h-26.1c-0.5,0-0.9-0.4-1.1-0.9c0,0.1-0.1,0.2-0.1,0.3c0,0.6,0.5,1.1,1.1,1.1h26.1
			c0.6,0,1.1-0.5,1.1-1.1c0-0.1,0-0.2-0.1-0.3C169,61.8,168.6,62.1,168,62.1z"/>
		<path class="house-agency-8" d="M143.2,60.6L143.2,60.6c-0.2,0.1-0.4,0.1-0.5-0.1l-10.5-18.8c-0.1-0.2,0-0.3,0.1-0.4l0,0
			c0.2-0.1,0.3,0,0.4,0.1l10.5,18.8C143.4,60.3,143.3,60.5,143.2,60.6z"/>
		<path class="house-agency-28" d="M142.9,60.5l-10.5-18.7c-0.1-0.2,0-0.4,0.1-0.5h0.1c-0.1,0-0.2-0.1-0.3,0c-0.2,0.1-0.2,0.3-0.1,0.5
			l10.5,18.7c0.1,0.1,0.2,0.2,0.4,0.1C143,60.6,142.9,60.6,142.9,60.5z"/>
		<g>
			<rect x="159.8" y="60.9" class="house-agency-12" width="2.1" height="0.8"/>
		</g>
		<g>
			<rect x="162.2" y="60.9" class="house-agency-12" width="2.1" height="0.8"/>
		</g>
		<g>
			<rect x="144.9" y="61" class="house-agency-12" width="2.1" height="0.8"/>
		</g>
	</g>
</g>
</svg>
