<?xml version="1.0" encoding="utf-8"?>
<!-- Generator: Adobe Illustrator 23.0.3, SVG Export Plug-In . SVG Version: 6.00 Build 0)  -->
<svg xmlns="http://www.w3.org/2000/svg" xmlns:xlink="http://www.w3.org/1999/xlink" x="0px" y="0px"
	 viewBox="0 0 582.3 585.8" style="enable-background:new 0 0 582.3 585.8;" xml:space="preserve">
<style type="text/css">
	.knowledgebase-community-2-0{fill:#FFFFFF;stroke:#BDC5D1;stroke-width:1.8843;stroke-linecap:round;stroke-linejoin:round;stroke-miterlimit:10;}
	.knowledgebase-community-2-1{fill:none;stroke:#BDC5D1;stroke-width:1.8843;stroke-linecap:round;stroke-linejoin:round;stroke-miterlimit:10;}
	.knowledgebase-community-2-2{fill:#FFFFFF;stroke:#BDC5D1;stroke-width:2.3383;stroke-linecap:round;stroke-linejoin:round;stroke-miterlimit:10;}
	.knowledgebase-community-2-3{fill:none;stroke:#BDC5D1;stroke-width:2.3383;stroke-linecap:round;stroke-linejoin:round;stroke-miterlimit:10;}
	.knowledgebase-community-2-4{fill:#1E2022;}
	.knowledgebase-community-2-5{fill:#DFE2EC;}
	.knowledgebase-community-2-6{fill:#EDAF85;}
	.knowledgebase-community-2-7{fill:#F8FAFD;}
	.knowledgebase-community-2-8{fill:#E7EAF3;}
	.knowledgebase-community-2-9{fill:#FFC107;}
	.knowledgebase-community-2-10{fill:none;stroke:#1E2022;stroke-width:3.1093;stroke-linecap:round;stroke-linejoin:round;stroke-miterlimit:10;}
	.knowledgebase-community-2-11{fill:none;stroke:#1E2022;stroke-width:2.1749;stroke-linecap:round;stroke-linejoin:round;stroke-miterlimit:10;}
	.knowledgebase-community-2-12{fill:#292D30;}
	.knowledgebase-community-2-13{fill:#FFFFFF;fill-opacity:0.3;stroke:#FFC107;stroke-width:1.5547;stroke-linecap:round;stroke-linejoin:round;stroke-miterlimit:10;}
	.knowledgebase-community-2-14{fill:none;stroke:#FFC107;stroke-width:1.5547;stroke-linecap:round;stroke-linejoin:round;stroke-miterlimit:10;}
	.knowledgebase-community-2-15{opacity:0.3;fill:none;stroke:#FFFFFF;stroke-width:1.7303;stroke-linecap:round;stroke-linejoin:round;stroke-miterlimit:10;}
	.knowledgebase-community-2-16{opacity:0.5;fill:none;stroke:#BDC5D1;stroke-width:1.7303;stroke-linecap:round;stroke-linejoin:round;stroke-miterlimit:10;}
	.knowledgebase-community-2-17{opacity:0.5;fill:none;stroke:#FFFFFF;stroke-width:1.7303;stroke-linecap:round;stroke-linejoin:round;stroke-miterlimit:10;}
	.knowledgebase-community-2-18{opacity:0.2;fill:#FFFFFF;}
	.knowledgebase-community-2-19{fill:#FFFFFF;}
	.knowledgebase-community-2-20{opacity:0.5;fill:none;stroke:#377DFF;stroke-width:1.7303;stroke-linecap:round;stroke-linejoin:round;stroke-miterlimit:10;}
	.knowledgebase-community-2-21{fill:none;stroke:#377DFF;stroke-width:1.7303;stroke-linecap:round;stroke-linejoin:round;stroke-miterlimit:10;}
	.knowledgebase-community-2-22{fill:#F4B20C;}
	.knowledgebase-community-2-23{fill:none;stroke:#BDC5D1;stroke-width:1.7291;stroke-linecap:round;stroke-miterlimit:10;}
	.knowledgebase-community-2-24{fill:none;stroke:#BDC5D1;stroke-width:1.7291;stroke-linecap:round;stroke-miterlimit:10;stroke-dasharray:9.8489,13.7885;}
	.knowledgebase-community-2-25{fill:none;stroke:#BDC5D1;stroke-width:1.7291;stroke-linecap:round;stroke-miterlimit:10;stroke-dasharray:14.7734,13.7885,9.8489,13.7885;}
	.knowledgebase-community-2-26{fill:none;stroke:#BDC5D1;stroke-width:1.7291;stroke-linecap:round;stroke-miterlimit:10;stroke-dasharray:9.6291,13.4807;}
	.knowledgebase-community-2-27{fill:none;stroke:#BDC5D1;stroke-width:1.7291;stroke-linecap:round;stroke-miterlimit:10;stroke-dasharray:14.4436,13.4807,9.6291,13.4807;}
</style>
<g>
	<rect x="120.4" y="499.6" class="knowledgebase-community-2-0" width="121.1" height="18"/>
	<line class="knowledgebase-community-2-1" x1="139.2" y1="504.9" x2="139.2" y2="512.6"/>
	<line class="knowledgebase-community-2-1" x1="229.1" y1="504.9" x2="229.1" y2="511.8"/>
	<line class="knowledgebase-community-2-1" x1="234.8" y1="504.9" x2="234.8" y2="511.8"/>
	<line class="knowledgebase-community-2-1" x1="189.2" y1="508.8" x2="219.7" y2="508.8"/>
</g>
<g>
	<rect x="112.6" y="475.9" class="knowledgebase-community-2-0" width="121.1" height="23.1"/>
	<line class="knowledgebase-community-2-1" x1="131.3" y1="482.8" x2="131.3" y2="492.6"/>
	<line class="knowledgebase-community-2-1" x1="221.2" y1="482.8" x2="221.2" y2="491.6"/>
	<line class="knowledgebase-community-2-1" x1="227" y1="482.8" x2="227" y2="491.6"/>
	<line class="knowledgebase-community-2-1" x1="181.4" y1="487.7" x2="211.8" y2="487.7"/>
</g>
<g>
	<rect x="118.9" y="557" class="knowledgebase-community-2-2" width="121.1" height="27.7"/>
	<line class="knowledgebase-community-2-3" x1="137.6" y1="565.3" x2="137.6" y2="577.1"/>
	<line class="knowledgebase-community-2-3" x1="227.5" y1="565.3" x2="227.5" y2="575.9"/>
	<line class="knowledgebase-community-2-3" x1="233.3" y1="565.3" x2="233.3" y2="575.9"/>
	<line class="knowledgebase-community-2-3" x1="187.7" y1="571.2" x2="218.1" y2="571.2"/>
</g>
<g>
	<rect x="137.6" y="537.9" class="knowledgebase-community-2-0" width="121.1" height="18"/>
	<line class="knowledgebase-community-2-1" x1="156.4" y1="543.2" x2="156.4" y2="550.9"/>
	<line class="knowledgebase-community-2-1" x1="246.3" y1="543.2" x2="246.3" y2="550.1"/>
	<line class="knowledgebase-community-2-1" x1="252.1" y1="543.2" x2="252.1" y2="550.1"/>
	<line class="knowledgebase-community-2-1" x1="206.4" y1="547.1" x2="236.9" y2="547.1"/>
</g>
<g>
	<rect x="112.2" y="518.7" class="knowledgebase-community-2-0" width="121.1" height="18"/>
	<line class="knowledgebase-community-2-1" x1="131" y1="524.1" x2="131" y2="531.8"/>
	<line class="knowledgebase-community-2-1" x1="220.8" y1="524.1" x2="220.8" y2="531"/>
	<line class="knowledgebase-community-2-1" x1="226.6" y1="524.1" x2="226.6" y2="531"/>
	<line class="knowledgebase-community-2-1" x1="181" y1="527.9" x2="211.5" y2="527.9"/>
</g>
<path class="knowledgebase-community-2-4" d="M444.5,248.8c0,0-3.5,21.7,17.1,19.6c20.5-2.1,34.7-1.9,34.7-1.9l-5.2-41.8L444.5,248.8z"/>
<path class="knowledgebase-community-2-5" d="M201,471.9L201,471.9c-1.5,0.7-3,0.7-3.7-0.7l-78.5-140.6c-0.7-1.5,0-2.2,0.7-3l0,0c1.5-0.7,2.2,0,3,0.7
	L201,468.9C202.5,469.7,201.7,471.2,201,471.9z"/>
<path class="knowledgebase-community-2-5" d="M366.3,475H199.2c-2.3,0-4.2-1.9-4.2-4.2l0,0c0-2.3,1.9-4.2,4.2-4.2h167.1c2.3,0,4.2,1.9,4.2,4.2l0,0
	C370.5,473.2,368.6,475,366.3,475z"/>
<path class="knowledgebase-community-2-6" d="M279.9,466.1c0,0,9.5-24.8,52.9-15.6c43.4,9.2,25.3,24.5,25.3,24.5l-64-5.2L279.9,466.1z"/>
<path class="knowledgebase-community-2-7" d="M436.3,420.4l-102.5,30.3c0,0-10.3,18.6,28.5,16.9s82.5-19.1,82.5-19.1L436.3,420.4z"/>
<path class="knowledgebase-community-2-8" d="M479.9,267c0,0-21.2,5.3-26.2,28.1c-5,22.8-15.7,52.9-26.3,121.3s26.2,79.2,26.2,79.2s52.1,17.3,78.8,15
	c26.6-2.3,48.5,0,48.5,0s6.1-111.9-6.5-163.3s-24.2-77.1-51.9-89.5L479.9,267z"/>
<path class="knowledgebase-community-2-9" d="M479.9,267c0,0-29.1,23.5,4.2,18.7c33.3-4.8,47-24,47-24l-8.7-4L479.9,267z"/>
<path class="knowledgebase-community-2-6" d="M420.7,195.2c0,0,4,1,1.9,9c-2.1,8.1-7.9,21.5,7.7,21.9c0,0,9,29.7,22,27.4s29.7-15.1,29.7-15.1v33.9
	c0,0,11.5,4,40.4-14.6c0,0-14.4-37.7-25.1-44.9l12.8-14.7l-23.7-30.2H411C411,167.9,406.9,181.1,420.7,195.2z"/>
<path class="knowledgebase-community-2-4" d="M414.6,175.3c0,0,13.3,16.1,36.5,13c23.3-3.1,26.8,2.3,26.8,2.3s2.4-7.7,12.9-4.5c10.5,3.3,11.3,19.7,6.8,22.9
	c-4.5,3.2,18.8,41.2,18.8,41.2s64.9-23.1,41.9-58.2c-20.2-30.8-38.8-51.3-65.4-66.7c-8-4.6-17.3-6.5-26.5-5.5
	c-11.4,1.2-26.3,4.7-33.4,14.4c-8.9,12.1-21.4,18.8-27.8,21.6c-4.8,2.1-8.6,6.2-9.7,11.3c-1.5,7.2,1.9,17.4,24,27.5
	C419.6,194.6,413.6,183.4,414.6,175.3z"/>
<path class="knowledgebase-community-2-10" d="M429.5,195.9c0,0,2.2-4.3,10.2-2.4"/>
<path class="knowledgebase-community-2-11" d="M444.3,233.8c0,0-3.4,3.7-7.2,4.3"/>
<ellipse transform="matrix(0.9342 -0.3568 0.3568 0.9342 -43.6652 168.7674)" class="knowledgebase-community-2-4" cx="435.6" cy="202.7" rx="3" ry="5.1"/>
<polygon class="knowledgebase-community-2-8" points="364.5,463 360.9,485 359.9,491.4 465.4,499.1 469.3,448.5 "/>
<path class="knowledgebase-community-2-12" d="M268.1,486.3c0,0-31.9,13.7-23.5,42c0.9,3.2,3.1,5.9,5.9,7.6l38.1,22.9l20.3-31L268.1,486.3z"/>
<polygon class="knowledgebase-community-2-9" points="354,484.3 358.1,463.4 364.5,463 360.9,485 "/>
<path class="knowledgebase-community-2-4" d="M580.9,510.5c0,0,1.2,66.7-59.8,69.8c0,0-77.4,12.3-179,0c0,0-108.5,14.6-72.8-12.3c35.7-26.9,39.5-21.9-5-76.3
	c0,0-0.4-9.2,19.9-20.3C304.6,460.3,580.9,510.5,580.9,510.5z"/>
<path class="knowledgebase-community-2-7" d="M364.5,463c0,0,65.2,38.6,105.7-67.2c10-26.1,20.3-52.7,34.4-77c3.9-6.8,7.5-16,15.6-18.6
	c8.4-2.7,17.3,2.3,20.8,10.2c3.3,7.4,3,15.9,3.6,23.8c0.9,13.5,2.8,27,0.4,40.4c-2.2,12.3-7.1,24.1-14.4,34.3
	c-1.2,1.7-2.4,3.3-3.7,4.9c-30.7,37.6-48.1,77.9-108.5,69.5s-56-7.9-56-7.9L364.5,463z"/>
<polygon class="knowledgebase-community-2-8" points="531.1,261.6 531.3,262.4 530.8,262.1 "/>
<path class="knowledgebase-community-2-10" d="M486.8,193.7c0,0,4.7,1.4,5,7"/>
<ellipse transform="matrix(0.9651 -0.2618 0.2618 0.9651 -38.2748 120.3659)" class="knowledgebase-community-2-13" cx="432.6" cy="203.8" rx="4.6" ry="13.4"/>
<line class="knowledgebase-community-2-14" x1="437" y1="201.5" x2="479.3" y2="185.9"/>
<path class="knowledgebase-community-2-14" d="M427.2,199.9c0,0-2.1-1.2-3.5-0.4"/>
<path class="knowledgebase-community-2-15" d="M247.5,176.6c0,0.9-0.7,1.6-1.6,1.6s-1.6-0.7-1.6-1.6c0-0.9,0.7-1.6,1.6-1.6
	C246.8,174.9,247.5,175.6,247.5,176.6z"/>
<path class="knowledgebase-community-2-15" d="M255.1,176.6c0,0.9-0.7,1.6-1.6,1.6s-1.6-0.7-1.6-1.6c0-0.9,0.7-1.6,1.6-1.6
	C254.4,175,255.1,175.6,255.1,176.6z"/>
<path class="knowledgebase-community-2-15" d="M262.7,176.6c0,0.9-0.7,1.6-1.6,1.6c-0.9,0-1.6-0.7-1.6-1.6c0-0.9,0.7-1.6,1.6-1.6
	C262,174.9,262.7,175.6,262.7,176.6z"/>
<path class="knowledgebase-community-2-16" d="M292.5,190.7c0.5,0.8,0.8,1.7,1.1,2.6"/>
<path class="knowledgebase-community-2-16" d="M275.7,182.8c5.6-1,11.1,1,14.6,5"/>
<path class="knowledgebase-community-2-17" d="M273.1,178.9c1.4-10.3-5.5-20.1-15.9-22c-10.7-2.1-21.1,5-23.1,15.7c-1,5.5,0.3,11,3.3,15.2l-2.9,8.7l9.3-3
	c1.8,1,3.9,1.8,6,2.2c3.2,0.6,6.3,0.4,9.2-0.5"/>
<path class="knowledgebase-community-2-18" d="M274.3,184.3c10.7-2,21.1,5,23.1,15.7c1,5.5-0.3,11-3.3,15.2l2.9,8.7l-9.3-3c-1.8,1-3.9,1.8-6,2.2
	c-10.7,2-21.1-5-23.1-15.7C256.5,196.7,263.6,186.4,274.3,184.3z"/>
<path class="knowledgebase-community-2-19" d="M274.9,178.5c10.7-2,21.1,5,23.1,15.7c1,5.5-0.3,11-3.3,15.2l2.9,8.7l-9.3-3c-1.8,1-3.9,1.8-6,2.2
	c-10.7,2-21.1-5-23.1-15.7C257.1,190.9,264.2,180.5,274.9,178.5z"/>
<circle class="knowledgebase-community-2-20" cx="286.2" cy="198.1" r="1.6"/>
<circle class="knowledgebase-community-2-20" cx="278.6" cy="198.1" r="1.6"/>
<circle class="knowledgebase-community-2-21" cx="271" cy="198.1" r="1.6"/>
<path class="knowledgebase-community-2-18" d="M109,173.5c0-14.9-12-26.9-26.9-26.9s-26.9,12-26.9,26.9c0,4.6,1.1,8.9,3.2,12.7c6.7,14.9,24.4,26.2,24.4,26.2
	v-10.5v-1.5C97.3,200,109,188.1,109,173.5z"/>
<path class="knowledgebase-community-2-22" d="M79.5,201.9v10.5c0,0-25.8-16.4-26.9-35.8h26.9V201.9z"/>
<circle class="knowledgebase-community-2-9" cx="78.8" cy="173.5" r="26.9"/>
<path class="knowledgebase-community-2-19" d="M78.8,160.2L78.8,160.2c-2,0-3.5,1.7-3.3,3.7l2.1,16.8c0.2,1.4,2.2,1.4,2.4,0l2.1-16.8
	C82.3,162,80.8,160.2,78.8,160.2L78.8,160.2z"/>
<circle class="knowledgebase-community-2-19" cx="78.8" cy="185.2" r="1.4"/>
<g>
	<g>
		<line class="knowledgebase-community-2-23" x1="177.5" y1="316.7" x2="181.2" y2="311.5"/>
		<line class="knowledgebase-community-2-24" x1="189.2" y1="300.2" x2="198.9" y2="286.6"/>
		<line class="knowledgebase-community-2-25" x1="202.9" y1="280.9" x2="229.2" y2="244"/>
		<line class="knowledgebase-community-2-23" x1="233.2" y1="238.4" x2="236.9" y2="233.1"/>
	</g>
</g>
<g>
	<g>
		<line class="knowledgebase-community-2-23" x1="156.4" y1="317" x2="152.8" y2="311.6"/>
		<line class="knowledgebase-community-2-26" x1="145.4" y1="300.4" x2="136.4" y2="286.7"/>
		<line class="knowledgebase-community-2-27" x1="132.7" y1="281.1" x2="108.2" y2="244.1"/>
		<line class="knowledgebase-community-2-23" x1="104.5" y1="238.5" x2="101" y2="233.1"/>
	</g>
</g>
</svg>
