<?xml version="1.0" encoding="utf-8"?>
<!-- Generator: Adobe Illustrator 24.1.1, SVG Export Plug-In . SVG Version: 6.00 Build 0)  -->
<svg version="1.1" id="Layer_1" xmlns="http://www.w3.org/2000/svg" xmlns:xlink="http://www.w3.org/1999/xlink" x="0px" y="0px"
	 viewBox="0 0 1400.3 998.7" style="enable-background:new 0 0 1400.3 998.7;" xml:space="preserve">
<style type="text/css">
	.st0{opacity:0.5;fill:url(#phone_stack_shadow_1_);enable-background:new    ;}
	.st1{opacity:0.66;fill:none;stroke:#BDC5D1;stroke-width:5;stroke-linecap:round;stroke-miterlimit:10;stroke-dasharray:5,20;enable-background:new    ;}
	.st2{fill:url(#Shape_5_1_);}
	.st3{fill:#E19046;}
	.st4{fill:#E69F52;}
	.st5{fill:#FFFFFF;stroke:#E7EAF3;stroke-width:4;stroke-miterlimit:10;}
	.st6{fill:#E7EAF3;}
	.st7{fill:#FFFFFF;}
	.st8{opacity:0.4;fill:none;stroke:#377DFF;stroke-width:5;stroke-miterlimit:10;enable-background:new    ;}
	.st9{fill:#377DFF;}
	.st10{opacity:0.7;fill:#377DFF;enable-background:new    ;}
	.st11{opacity:0.3;fill:#377DFF;enable-background:new    ;}
	.st12{fill:#09385B;}
	.st13{stroke:#FFFFFF;stroke-width:4;stroke-miterlimit:10;}
	.st14{fill:#1E2022;}
	.st15{display:none;fill:url(#Mask_Path-2_1_);}
	.st16{fill:url(#Mask_Path-3_1_);}
	.st17{fill:url(#SVGID_1_);}
	.st18{fill:url(#inside_pants_1_);}
	.st19{fill:#EDAF85;}
	.st20{opacity:0.6;clip-path:url(#SVGID_3_);fill:url(#Path_4_1_);enable-background:new    ;}
	.st21{fill:none;stroke:#FFFFFF;stroke-width:4;stroke-linecap:round;stroke-linejoin:round;stroke-miterlimit:10;}
	.st22{fill:url(#Mask_Path-5_1_);}
	.st23{fill:url(#Mask_Path-6_1_);}
	.st24{fill:url(#Mask_Path-7_1_);}
	.st25{fill:url(#SVGID_4_);}
	.st26{clip-path:url(#SVGID_6_);}
	.st27{fill:url(#Path_2_1_);}
	.st28{fill:none;stroke:#1E2022;stroke-width:3;stroke-miterlimit:10;}
	.st29{fill:#346CC7;}
	.st30{fill:#223762;}
	.st31{fill:url(#hand-2_1_);}
	.st32{fill:url(#shirt_bottom_2_);}
	.st33{fill:url(#colar_2_);}
	.st34{fill:url(#shirt_sleeve_2_);}
	.st35{fill:#4b91ff;}
	.st36{fill:#21325B;}
	.st37{clip-path:url(#SVGID_8_);}
	.st38{fill:url(#Path_3_1_);}
	.st39{opacity:0.8;fill:#BDC5D1;enable-background:new    ;}
	.st40{fill:none;stroke:#FFFFFF;stroke-width:6;stroke-miterlimit:10;}
	.st41{fill:url(#SVGID_9_);}
	.st42{fill:url(#SVGID_10_);}
	.st43{fill:#D6E3FA;}
	.st44{opacity:0.2;fill:#BBCFF2;enable-background:new    ;}
	.st45{fill:url(#Ellipse_2-3_1_);}
	.st46{fill:url(#Ellipse_1-3_1_);}
	.st47{fill:url(#Shape_2-5_1_);}
	.st48{clip-path:url(#SVGID_12_);}
	.st49{opacity:0.5;stroke:#489C71;stroke-width:3;stroke-miterlimit:10;enable-background:new    ;}
	.st50{fill:url(#Shape_2-8_1_);}
	.st51{clip-path:url(#SVGID_14_);}
	.st52{fill:url(#Shape_2-11_1_);}
	.st53{clip-path:url(#SVGID_16_);}
</style>
<linearGradient id="phone_stack_shadow_1_" gradientUnits="userSpaceOnUse" x1="1946.6134" y1="518.3939" x2="1946.2252" y2="517.7958" gradientTransform="matrix(779.557 0 0 -292.144 -1516419 152086.4531)">
	<stop  offset="0.1966" style="stop-color:#D0DCF1"/>
	<stop  offset="0.4155" style="stop-color:#D6E1F3"/>
	<stop  offset="0.7162" style="stop-color:#E8EEF8"/>
	<stop  offset="1" style="stop-color:#FFFFFF"/>
</linearGradient>
<path id="phone_stack_shadow" class="st0" d="M387.4,699.3l436.9-114.2l551.1,223.1L962.5,998.7"/>
<g id="message" transform="translate(118 291)">
	<path id="line" class="st1" d="M-23-162.7C-298.8,127,106.5,536.8,352.4,228.9c414.2-518.5,767-128.9,767-128.9"/>
	<g id="rocket" transform="translate(1079 212)">

			<linearGradient id="Shape_5_1_" gradientUnits="userSpaceOnUse" x1="-1546.7913" y1="-41.6125" x2="-1545.5935" y2="-41.4456" gradientTransform="matrix(124.988 0 0 -111 193347.1563 -4682)">
			<stop  offset="0" style="stop-color:#FDAE6B"/>
			<stop  offset="1" style="stop-color:#FAE539"/>
		</linearGradient>
		<path id="Shape_5" class="st2" d="M18.9-62.4L42.4-93l76.1,47.7l-58.3-67l28.3-26.6l71.3,125.2L18.9-62.4z"/>
		<path id="Shape_6" class="st3" d="M41.7-92.2l17.8-2.4L121.9-43L41.7-92.2z"/>
		<path id="Shape_7" class="st4" d="M58.6-94.6l2.5-17.8l59.1,67.9L58.6-94.6z"/>
	</g>
</g>
<g>
	<path class="st5" d="M1095.6,703h-626c-8.8,0-16-7.2-16-16V20c0-8.8,7.2-16,16-16h626c8.8,0,16,7.2,16,16v667
		C1111.5,695.8,1104.4,703,1095.6,703z"/>
	<path id="_copy_5" class="st6" d="M756.6,304h-176c-5.5,0-10-4.5-10-10V130c0-5.5,4.5-10,10-10h176c5.5,0,10,4.5,10,10v164
		C766.5,299.5,762.1,304,756.6,304z"/>
	<path class="st7" d="M745.6,293h-176c-5.5,0-10-4.5-10-10V119c0-5.5,4.5-10,10-10h176c5.5,0,10,4.5,10,10v164
		C755.5,288.5,751.1,293,745.6,293z"/>
	<path class="st8" d="M574.1,247.3l21.5-47.3l34.7,6.9l26.7-36.5l44.2-17.8l38.6,25.7"/>
	<path class="st9" d="M629.9,213.2c3.8,0,6.9-3.1,6.9-6.9c0-3.8-3.1-6.9-6.9-6.9c-3.8,0-6.9,3.1-6.9,6.9
		C623,210.1,626.1,213.2,629.9,213.2L629.9,213.2z"/>
	<path class="st9" d="M595.9,209.6c3.8,0,6.9-3.1,6.9-6.9s-3.1-6.9-6.9-6.9s-6.9,3.1-6.9,6.9l0,0C589,206.5,592.1,209.6,595.9,209.6
		z"/>
	<path class="st9" d="M656.9,177.2c3.8,0,6.9-3.1,6.9-6.9s-3.1-6.9-6.9-6.9s-6.9,3.1-6.9,6.9S653.1,177.2,656.9,177.2L656.9,177.2z"
		/>
	<path class="st9" d="M700.9,161.2c3.8,0,6.9-3.1,6.9-6.9c0-3.8-3.1-6.9-6.9-6.9c-3.8,0-6.9,3.1-6.9,6.9
		C694,158.1,697.1,161.2,700.9,161.2L700.9,161.2z"/>
	<path id="_copy_6" class="st6" d="M1005.6,304h-176c-5.5,0-10-4.5-10-10V130c0-5.5,4.5-10,10-10h176c5.5,0,10,4.5,10,10v164
		C1015.5,299.5,1011.1,304,1005.6,304z"/>
	<path class="st7" d="M994.6,293h-176c-5.5,0-10-4.5-10-10V119c0-5.5,4.5-10,10-10h176c5.5,0,10,4.5,10,10v164
		C1004.5,288.5,1000.1,293,994.6,293z"/>
	<path class="st9" d="M868.6,268h-23c-2.2,0-4-1.8-4-4v-94c0-2.2,1.8-4,4-4h23c2.2,0,4,1.8,4,4v94C872.5,266.2,870.8,268,868.6,268z
		"/>
	<path id="_copy_9" class="st10" d="M918.6,268h-23c-2.2,0-4-1.4-4-3.1V193c0-1.7,1.8-3.1,4-3.1h23c2.2,0,4,1.4,4,3.1v71.9
		C922.6,266.6,920.8,268,918.6,268z"/>
	<path id="_copy_10" class="st11" d="M967.6,268h-23c-2.2,0-4-1-4-2.3v-54.4c0-1.3,1.8-2.3,4-2.3h23c2.2,0,4,1,4,2.3v54.4
		C971.6,266.9,969.8,268,967.6,268z"/>
	<g id="list" transform="translate(106 338)">
		<path class="st6" d="M558.6,120h-95c-5.5,0-10-4.5-10-10V15c0-5.5,4.5-10,10-10h95c5.5,0,10,4.5,10,10v95
			C568.5,115.5,564.1,120,558.6,120z"/>
		<path class="st6" d="M558.6,260h-95c-5.5,0-10-4.5-10-10v-95c0-5.5,4.5-10,10-10h95c5.5,0,10,4.5,10,10v95
			C568.5,255.5,564.1,260,558.6,260z"/>
		<path class="st6" d="M895.6,37h-304c-1.7,0-3-1.3-3-3l0,0V10c0-1.7,1.3-3,3-3h304c1.7,0,3,1.3,3,3v24
			C898.5,35.7,897.2,37,895.6,37z"/>
		<path class="st6" d="M895.6,177h-304c-1.7,0-3-1.3-3-3v-24c0-1.7,1.3-3,3-3h304c1.7,0,3,1.3,3,3v24
			C898.5,175.7,897.2,177,895.6,177z"/>
		<path class="st6" d="M825.6,87h-234c-1.7,0-3-1.3-3-3V60c0-1.7,1.3-3,3-3h234c1.7,0,3,1.3,3,3v24C828.5,85.7,827.2,87,825.6,87z"
			/>
		<path class="st6" d="M825.6,227h-234c-1.7,0-3-1.3-3-3v-24c0-1.7,1.3-3,3-3h234c1.7,0,3,1.3,3,3v24
			C828.5,225.7,827.2,227,825.6,227z"/>
	</g>
</g>
<g>
	<g id="shoe" transform="translate(385 219)">
		<path class="st12" d="M208.9,589.8h-29.1c-4-8.4-6.7-15.6-8-21.6c-2-9-5-15.7-2-27.9s37.2-19.1,41.5-15.2c4.3,3.9,3.6,6,20.7,15.1
			c10.3,5.5,29.5,14.3,57.4,26.5c5.4,2.4,9,7.8,9,13.7c0,5.4-4.4,9.9-9.8,10c-30.4,0.5-49.3,0.8-56.8,0.8c-8-2.9-15.7-6.5-23-10.8
			L208.9,589.8L208.9,589.8z"/>
		<path id="Shape_9_copy_3" class="st13" d="M245.5,555c2-2.1,12.5-8.7,17-4.7"/>
	</g>
	<g id="leg" transform="translate(240)">
		<g>
			<path id="Mask_Path" class="st14" d="M182.5,599.3c0,0,89.2-49.6,111.6-58.7c22.4-9.1,58-18.7,62.8-15.2
				c4.9,3.5,34.7,29.1,44.2,68.4c9.5,39.3,16.1,153.7,27.4,162.3c-13.5,10.7-112.3,27.2-134.4,19.7c0-26.9-4.2-94.3,0-107.3
				c-8.3,4-62.8,31.7-85.3,37.6c-11,2.9-34.2-24.2-38-51C166.9,627.1,182.5,599.3,182.5,599.3z"/>

				<radialGradient id="Mask_Path-2_1_" cx="1222.6965" cy="515.4213" r="0.438" gradientTransform="matrix(258.3484 0 0 -253.075 -315518.5 130964.8516)" gradientUnits="userSpaceOnUse">
				<stop  offset="0" style="stop-color:#E36359;stop-opacity:0.361"/>
				<stop  offset="1" style="stop-color:#704840;stop-opacity:0"/>
			</radialGradient>
			<path id="Mask_Path-2" class="st15" d="M182.5,599.3c0,0,89.2-49.6,111.6-58.7c22.4-9.1,58-18.7,62.8-15.2
				c4.9,3.5,34.7,29.1,44.2,68.4c9.5,39.3,16.1,153.7,27.4,162.3c-13.5,10.7-112.3,27.2-134.4,19.7c0-26.9-4.2-94.3,0-107.3
				c-8.3,4-62.8,31.7-85.3,37.6c-11,2.9-34.2-24.2-38-51C166.9,627.1,182.5,599.3,182.5,599.3z"/>

				<linearGradient id="Mask_Path-3_1_" gradientUnits="userSpaceOnUse" x1="1222.6069" y1="514.9163" x2="1222.209" y2="514.8333" gradientTransform="matrix(258.3484 0 0 -253.075 -315518.5 130964.8516)">
				<stop  offset="0" style="stop-color:#2D4063;stop-opacity:0"/>
				<stop  offset="1" style="stop-color:#120F3B"/>
			</linearGradient>
			<path id="Mask_Path-3" class="st16" d="M182.5,599.3c0,0,89.2-49.6,111.6-58.7c22.4-9.1,58-18.7,62.8-15.2
				c4.9,3.5,34.7,29.1,44.2,68.4c9.5,39.3,16.1,153.7,27.4,162.3c-13.5,10.7-112.3,27.2-134.4,19.7c0-26.9-4.2-94.3,0-107.3
				c-8.3,4-62.8,31.7-85.3,37.6c-11,2.9-34.2-24.2-38-51C166.9,627.1,182.5,599.3,182.5,599.3z"/>
		</g>

			<linearGradient id="SVGID_1_" gradientUnits="userSpaceOnUse" x1="1168.0063" y1="533.5517" x2="1168.0063" y2="534.3727" gradientTransform="matrix(31.543 0 0 -55.881 -36534.0234 30515.502)">
			<stop  offset="0" style="stop-color:#8DC6D5;stop-opacity:0"/>
			<stop  offset="1" style="stop-color:#377DFF;stop-opacity:0.3"/>
		</linearGradient>
		<path class="st17" d="M298.2,664.7c5.5-4.2,21.9-18.5,26-20.5c-7.1,14.2-13.8,42.8-13.8,55.9c-6.2-4-12.1-8.4-17.8-13.1
			C292.7,674.9,294.5,667.4,298.2,664.7z"/>
	</g>

		<linearGradient id="inside_pants_1_" gradientUnits="userSpaceOnUse" x1="1893.7905" y1="522.6862" x2="1893.3306" y2="523.3551" gradientTransform="matrix(34.7099 0 0 -101.6208 -65426.2266 53912.9141)">
		<stop  offset="0" style="stop-color:#221616"/>
		<stop  offset="1" style="stop-color:#503889"/>
	</linearGradient>
	<path id="inside_pants" class="st18" d="M290.9,714.3c-4.8,3.8-9.5,99.5,0,101.5s34.5-20.1,28.2-60.9
		C312.8,714.1,295.8,718.9,290.9,714.3z"/>
	<g id="ankle" transform="translate(96 243)">
		<path class="st19" d="M226,529.5c-10.8,5.6-25.7,3.1-44.5-7.7c-4.6,10.4-7.6,17.7-9,21.8c-6,18.3-4.1,27.8,5.7,28.5
			c13.2,0.9,29.1,1.4,47.8,1.4C236.9,538.6,236.9,523.9,226,529.5z"/>
		<g>
			<g>
				<g>
					<defs>
						<path id="SVGID_2_" d="M226,529.5c-10.8,5.6-25.7,3.1-44.5-7.7c-4.6,10.4-7.6,17.7-9,21.8c-6,18.3-4.1,27.8,5.7,28.5
							c13.2,0.9,29.1,1.4,47.8,1.4C236.9,538.6,236.9,523.9,226,529.5z"/>
					</defs>
					<clipPath id="SVGID_3_">
						<use xlink:href="#SVGID_2_"  style="overflow:visible;"/>
					</clipPath>

						<linearGradient id="Path_4_1_" gradientUnits="userSpaceOnUse" x1="1599.2969" y1="290.6786" x2="1599.191" y2="289.8486" gradientTransform="matrix(31.1899 0 0 -57.5656 -49677.2656 17261.8809)">
						<stop  offset="0" style="stop-color:#70B8F9;stop-opacity:0"/>
						<stop  offset="1" style="stop-color:#000000"/>
					</linearGradient>
					<path id="Path_4" class="st20" d="M199.2,575c3.9-10-0.5-43-8.7-52.2s30,5.9,30,5.9s-2.4,23.5-5.4,30.2
						C206.3,578.6,197.2,580,199.2,575z"/>
				</g>
			</g>
		</g>
	</g>
	<g>
		<path class="st12" d="M264.5,756.6c7.3,4.6,14.9,8.7,22.8,12.4c3.8,1.8-7.2,6.4-18.2,21.7c-9.6,13.2,3.9,23.9,0,24.2
			c-5.8,0.5-6.8-1.4-25.2,4.9c-11,3.8-29.8,11-56.4,21.7l0,0c-5.5,2.2-11.9,1-16.2-3c-4-3.7-4.2-9.9-0.6-14c19-21,31-34.3,36-39.7
			c7.5-3.9,15.4-7,23.6-9.4l-6.9-6.4l19.8-21.3C252.1,750.5,259.2,753.4,264.5,756.6z"/>
		<path id="Shape_9" class="st13" d="M215.5,817c2.3,2,9.3,12.5,5,17"/>
		<path id="Shape_9_copy" class="st13" d="M225.5,812c2.3,2,9.3,12.5,5,17"/>
		<path id="Shape_9_copy_2" class="st21" d="M235.5,808c2.3,2,9.3,12.5,5,17"/>
	</g>
	<path id="Mask_Path-4" class="st14" d="M325.4,610.5c-12.4,17.6-16.2,47.4-7.8,67.9c7.4,18.2,36.6,38.2,43,40.9
		c-14.6,0-63.7-2.4-70-4.9c5.7,29.9,34.7,78.1,5.7,101.7c21.2,2.4,204,4.8,223.1,2.4c19-2.4,81.9,7.1,87.4-26
		c5.6-33.1-38.6-78.6-52.6-90s-92.6-60.5-106-75.3C435,612.5,337.8,592.9,325.4,610.5z"/>

		<linearGradient id="Mask_Path-5_1_" gradientUnits="userSpaceOnUse" x1="1943.5171" y1="516.1979" x2="1943.7761" y2="515.6459" gradientTransform="matrix(316.7008 0 0 -215.9531 -615168.0625 112111.6641)">
		<stop  offset="0" style="stop-color:#000000;stop-opacity:0.639"/>
		<stop  offset="1" style="stop-color:#000000;stop-opacity:0"/>
	</linearGradient>
	<path id="Mask_Path-5" class="st22" d="M325.4,610.5c-12.4,17.6-16.2,47.4-7.8,67.9c7.4,18.2,36.6,38.2,43,40.9
		c-14.6,0-63.7-2.4-70-4.9c5.7,29.9,34.7,78.1,5.7,101.7c21.2,2.4,204,4.8,223.1,2.4c19-2.4,81.9,7.1,87.4-26
		c5.6-33.1-38.6-78.6-52.6-90s-92.6-60.5-106-75.3C435,612.5,337.8,592.9,325.4,610.5z"/>

		<linearGradient id="Mask_Path-6_1_" gradientUnits="userSpaceOnUse" x1="1944.1426" y1="516.1731" x2="1943.8605" y2="515.8381" gradientTransform="matrix(316.7008 0 0 -215.9531 -615168.0625 112111.6641)">
		<stop  offset="0" style="stop-color:#377DFF;stop-opacity:0.5"/>
		<stop  offset="1" style="stop-color:#282828;stop-opacity:0"/>
	</linearGradient>
	<path id="Mask_Path-6" class="st23" d="M325.4,610.5c-12.4,17.6-16.2,47.4-7.8,67.9c7.4,18.2,36.6,38.2,43,40.9
		c-14.6,0-63.7-2.4-70-4.9c5.7,29.9,34.7,78.1,5.7,101.7c21.2,2.4,204,4.8,223.1,2.4c19-2.4,81.9,7.1,87.4-26
		c5.6-33.1-38.6-78.6-52.6-90s-92.6-60.5-106-75.3C435,612.5,337.8,592.9,325.4,610.5z"/>

		<linearGradient id="Mask_Path-7_1_" gradientUnits="userSpaceOnUse" x1="1943.8442" y1="515.5443" x2="1943.8442" y2="515.3532" gradientTransform="matrix(316.7008 0 0 -215.9531 -615168.0625 112111.6641)">
		<stop  offset="0" style="stop-color:#3D3068;stop-opacity:0"/>
		<stop  offset="1" style="stop-color:#000000;stop-opacity:0.588"/>
	</linearGradient>
	<path id="Mask_Path-7" class="st24" d="M325.4,610.5c-12.4,17.6-16.2,47.4-7.8,67.9c7.4,18.2,36.6,38.2,43,40.9
		c-14.6,0-63.7-2.4-70-4.9c5.7,29.9,34.7,78.1,5.7,101.7c21.2,2.4,204,4.8,223.1,2.4c19-2.4,81.9,7.1,87.4-26
		c5.6-33.1-38.6-78.6-52.6-90s-92.6-60.5-106-75.3C435,612.5,337.8,592.9,325.4,610.5z"/>

		<linearGradient id="SVGID_4_" gradientUnits="userSpaceOnUse" x1="1937.8901" y1="537.6704" x2="1938.2402" y2="537.9913" gradientTransform="matrix(163.068 0 0 -48.6011 -315657.75 26873.2988)">
		<stop  offset="0" style="stop-color:#8DC6D5;stop-opacity:0"/>
		<stop  offset="1" style="stop-color:#377DFF;stop-opacity:0.3"/>
	</linearGradient>
	<path class="st25" d="M290.6,714.7c3.8,17.6,22.1,31.7,55,42.4c49.3,16,97.8-4.3,108.1,0c-16.7-5.4-59.1-17.6-93.4-37.6
		C348.4,719.5,325.1,717.9,290.6,714.7z"/>
</g>
<g>
	<path class="st19" d="M412.6,209.2c8.6,10.2,10.2,14.8,19.4,23s22,11.2,25.6,12.5c3.7,1.3-7.4,9.5-3.7,20.2
		c3.7,10.6,11.5,26.3,11.5,30.5s-14.5,11.5-28.3,17.7S421.4,324.5,423,335s3.9,24.1,14.1,30c6.8,4-12.5-3.1-58.1-21.1
		c-19.3-43.3-24.2-78.7-14.5-106C379.1,197,404,199,412.6,209.2z"/>
	<g>
		<g>
			<g>
				<defs>
					<path id="SVGID_5_" d="M412.6,209.2c8.6,10.2,10.2,14.8,19.4,23s22,11.2,25.6,12.5c3.7,1.3-7.4,9.5-3.7,20.2
						c3.7,10.6,11.5,26.3,11.5,30.5s-14.5,11.5-28.3,17.7S421.4,324.5,423,335s3.9,24.1,14.1,30c6.8,4-12.5-3.1-58.1-21.1
						c-19.3-43.3-24.2-78.7-14.5-106C379.1,197,404,199,412.6,209.2z"/>
				</defs>
				<clipPath id="SVGID_6_">
					<use xlink:href="#SVGID_5_"  style="overflow:visible;"/>
				</clipPath>
				<g id="face-2" class="st26">

						<linearGradient id="Path_2_1_" gradientUnits="userSpaceOnUse" x1="389.9778" y1="-540.3345" x2="447.6738" y2="-540.3345" gradientTransform="matrix(1 0 0 1 0 856)">
						<stop  offset="0" style="stop-color:#FFCCB5"/>
						<stop  offset="1" style="stop-color:#D25E13"/>
					</linearGradient>
					<path id="Path_2" class="st27" d="M393.4,287.8c4,4.8,10.7,13.9,19.2,19.1c8,4.8,22.1,5,30.7,5c17.6,0-23.6,32.6-23.6,32.6
						l-26.3-5.3C393.4,339.2,385.7,278.5,393.4,287.8z"/>
					<path class="st28" d="M413.9,236.4c0-3.7,4.6-10.1,8.5-10.1"/>
					<path class="st14" d="M428.7,245.9c1.7-0.4,2.2-2.8,1.2-5.2s-3.1-4.1-4.8-3.6c-1.7,0.4-2.2,2.8-1.3,5.2
						S427.1,246.4,428.7,245.9z"/>
					<path class="st14" d="M453.3,264.8c0.9-0.7,0.8,0.6,1.4,1.8c0.6,1.4,1.2,2.7,1.6,4.2c-3.7,2.8-11.1,1.4-16.2-0.5
						c-1-0.4-2.1-1.7-1.5-2.6s1.7-0.6,2.8-0.5C445.2,267.7,451,266.5,453.3,264.8z"/>
				</g>
			</g>
		</g>
	</g>
	<g id="hand" transform="translate(418 70)">
		<path id="finger" class="st29" d="M189.5,248c-1.3-2.1-2.6-31.9,1-36s12.7-9.2,14-8s4.5,7.6,2,9s-7.4,6.3-7,8s1.1,6.9,3,9
			S192.6,252.9,189.5,248z"/>
		<g id="pen">
			<path class="st7" d="M233.4,189c2.9-2.5,16.7-9.2,18.2-4c1,3.4-3.6,7.9-13.6,13.3C233,193.8,231.4,190.7,233.4,189z"/>
			<path class="st30" d="M176.3,213.9l57-27.7c3.7-1.8,8.1-0.6,10.4,2.8c2.2,3.3,1.4,7.7-1.9,10l-52.4,37.2
				c-5.8,4.1-13.9,2.8-18-3.1l0,0c-0.2-0.3-0.4-0.6-0.6-0.9c-3.6-6.2-1.6-14.2,4.6-17.8l0,0C175.6,214.3,175.9,214.1,176.3,213.9z"
				/>
		</g>

			<linearGradient id="hand-2_1_" gradientUnits="userSpaceOnUse" x1="-661.4" y1="-607.5022" x2="-592.9298" y2="-607.5022" gradientTransform="matrix(1 0 0 1 836 856)">
			<stop  offset="0" style="stop-color:#FFCCB5"/>
			<stop  offset="1" style="stop-color:#EDAF85"/>
		</linearGradient>
		<path id="hand-2" class="st31" d="M174.6,281.2c7-8.7,11.4-14.4,13.2-17c1.3-1.9-0.8-14,2-19c2.7-5,4.7-6.6,6.7-9.5
			c0.6-0.9,3.8-5.7,4.7-8.4c2.3-7.2,3-10.6,3.5-14.6c0.7-5.6,15.7-17,17.6-21c1.8-4,6-5.3,8.3,0c2.2,5.3-12.9,19.1-12.9,26.4
			c0,0.4,6.5-9.6,10.5-10.6c3.7,0,3.2,5,4.8,12c1.6,6.8,10.3,15.1,10.3,23.9c0,5.1,0,9.3,0,10.1c-0.1,7.6-27.6,29-33.6,37.5
			c-4,5.7-8.4,11.7-13.1,17.8L174.6,281.2z"/>
	</g>
	<path id="shirt_bottom" class="st7" d="M306.3,611.8c-3.8,16.3-6.4,26.4-7.9,30.1c-2.2,5.6,42.4,12.5,91,12c42-0.4,70.9-5.2,79-11
		c-7.8-7-9.8-13.1-10.8-17.5C449.9,616.4,399.4,611.8,306.3,611.8z"/>
	<path id="colar" class="st7" d="M390.4,328.3c9.8,2.5,32.8,6.1,37.5,6.1c4.7-0.1,12.5,34,12,37s-46.3-13.5-49.5-17.4
		C387.2,350,380.5,325.8,390.4,328.3z"/>
	<path id="Mask_Path-9" class="st9" d="M283.2,609.7c6.9-13.7,54.4-141.3,54.9-170.5s9.2-89.2,34.7-89s78.2,24.3,86.9,30.8
		s16.6,34.4,16.6,49.8c0,7.6,0.1,53.5,0,100.2c-0.1,44.9,14.5,90.5,15.3,92.3C451.3,636.7,293.9,629.9,283.2,609.7z"/>
	<path id="shirt_sleeve" class="st7" d="M574.7,365.9c7.3-6.2,17.5-18.4,23.2-25.7c5.7-7.3,37.5,25.9,31.3,34.2
		c-6.2,8.3-18.7,23.8-24.7,28.3C598.4,407.2,567.4,372,574.7,365.9z"/>

		<linearGradient id="shirt_bottom_2_" gradientUnits="userSpaceOnUse" x1="298.3219" y1="-223.1372" x2="468.4" y2="-223.1372" gradientTransform="matrix(1 0 0 1 0 856)">
		<stop  offset="0" style="stop-color:#377DFF;stop-opacity:0.6"/>
		<stop  offset="0.208" style="stop-color:#377DFF;stop-opacity:0.3"/>
		<stop  offset="0.495" style="stop-color:#377DFF;stop-opacity:0.1"/>
		<stop  offset="0.826" style="stop-color:#377DFF;stop-opacity:0.1"/>
		<stop  offset="1" style="stop-color:#377DFF;stop-opacity:0"/>
	</linearGradient>
	<path id="shirt_bottom_1_" class="st32" d="M306.3,611.8c-3.8,16.3-6.4,26.4-7.9,30.1c-2.2,5.6,42.4,12.5,91,12
		c42-0.4,70.9-5.2,79-11c-7.8-7-9.8-13.1-10.8-17.5C449.9,616.4,399.4,611.8,306.3,611.8z"/>

		<linearGradient id="colar_2_" gradientUnits="userSpaceOnUse" x1="385.1992" y1="-506.0592" x2="439.8444" y2="-506.0592" gradientTransform="matrix(1 0 0 1 0 856)">
		<stop  offset="0" style="stop-color:#377DFF;stop-opacity:0.6"/>
		<stop  offset="0.208" style="stop-color:#377DFF;stop-opacity:0.3"/>
		<stop  offset="0.495" style="stop-color:#377DFF;stop-opacity:0.1"/>
		<stop  offset="0.826" style="stop-color:#377DFF;stop-opacity:0.1"/>
		<stop  offset="1" style="stop-color:#377DFF;stop-opacity:0"/>
	</linearGradient>
	<path id="colar_1_" class="st33" d="M390.4,328.3c9.8,2.5,32.8,6.1,37.5,6.1c4.7-0.1,12.5,34,12,37s-46.3-13.5-49.5-17.4
		C387.2,350,380.5,325.8,390.4,328.3z"/>

		<linearGradient id="shirt_sleeve_2_" gradientUnits="userSpaceOnUse" x1="573.5941" y1="-484.8724" x2="629.9977" y2="-484.8724" gradientTransform="matrix(1 0 0 1 0 856)">
		<stop  offset="0" style="stop-color:#377DFF;stop-opacity:0.6"/>
		<stop  offset="0.208" style="stop-color:#377DFF;stop-opacity:0.3"/>
		<stop  offset="0.495" style="stop-color:#377DFF;stop-opacity:0.1"/>
		<stop  offset="0.826" style="stop-color:#377DFF;stop-opacity:0.1"/>
		<stop  offset="1" style="stop-color:#377DFF;stop-opacity:0"/>
	</linearGradient>
	<path id="shirt_sleeve_1_" class="st34" d="M574.7,365.9c7.3-6.2,17.5-18.4,23.2-25.7c5.7-7.3,37.5,25.9,31.3,34.2
		c-6.2,8.3-18.7,23.8-24.7,28.3C598.4,407.2,567.4,372,574.7,365.9z"/>
	<path id="Mask_Path-10" class="st35" d="M427.4,467.6c13.9,9,108.8,35.2,119.4,31.4c10.5-3.9,76.3-83.3,80-91.9s-42.7-56.3-48.2-49
		s-51.4,64.3-56.6,64.3s-60.2-46.1-76.3-48.8s-28,17-31.1,27.3S413.4,458.6,427.4,467.6z"/>
	<path class="st36" d="M393,246.2c19.1-6.2,2.3-32.5,9.1-32.5c2.8,0,14.1-2.2,17-8.3c6.5-13.6-8.4-25.7-45.4-22.8
		c-63.2,4.8-66.6,70.4-61.2,103.2c5.3,32.8-64.7,132.5-42.6,175.2s66.3,26.3,103.9-10.9s27.7-163.5,17.8-169.6
		C381.7,274.4,373.9,252.4,393,246.2z"/>
	<g>
		<g>
			<g>
				<defs>
					<path id="SVGID_7_" d="M393,246.2c19.1-6.2,2.3-32.5,9.1-32.5c2.8,0,14.1-2.2,17-8.3c6.5-13.6-8.4-25.7-45.4-22.8
						c-63.2,4.8-66.6,70.4-61.2,103.2c5.3,32.8-64.7,132.5-42.6,175.2s66.3,26.3,103.9-10.9s27.7-163.5,17.8-169.6
						C381.7,274.4,373.9,252.4,393,246.2z"/>
				</defs>
				<clipPath id="SVGID_8_">
					<use xlink:href="#SVGID_7_"  style="overflow:visible;"/>
				</clipPath>
				<g id="hair-2" class="st37">
					
						<linearGradient id="Path_3_1_" gradientUnits="userSpaceOnUse" x1="1922.2902" y1="516.6484" x2="1922.8253" y2="516.2984" gradientTransform="matrix(71.4874 0 0 -196.1707 -137063.9063 101701.7891)">
						<stop  offset="0" style="stop-color:#001630;stop-opacity:6.300000e-02"/>
						<stop  offset="1" style="stop-color:#081E41"/>
					</linearGradient>
					<path id="Path_3" class="st38" d="M396.3,283.4c0,12.9-24.6,174.7-46.6,187.3c-22,12.6,68,12.1,68-12.1
						S396.3,270.6,396.3,283.4z"/>
				</g>
			</g>
		</g>
	</g>
</g>
<g>
	<path id="Ellipse_4-2" class="st39" d="M168.2,0c34.2,0,62,27.8,62,62s-27.8,62-62,62s-62-27.8-62-62S134,0,168.2,0z"/>
	<path id="Shape_8" class="st40" d="M169,19.7v44.6l20.4,20.4"/>
</g>
<g id="laptop" transform="translate(1013 589)">
	
		<linearGradient id="SVGID_9_" gradientUnits="userSpaceOnUse" x1="-1017.4004" y1="-85.9208" x2="-1017.0534" y2="-86.3528" gradientTransform="matrix(293.8796 0 0 -101.653 299131.0313 -8477.5195)">
		<stop  offset="0" style="stop-color:#47689B"/>
		<stop  offset="1" style="stop-color:#223762"/>
	</linearGradient>
	<path class="st41" d="M150.1,332.2l-98.5-43.4c-2.5-1.1-3.7-4.1-2.6-6.6c0.6-1.4,1.8-2.4,3.3-2.8l188.5-48.8l101.6,46.3
		L150.1,332.2z"/>
	
		<linearGradient id="SVGID_10_" gradientUnits="userSpaceOnUse" x1="-1018.406" y1="-92.3256" x2="-1019.3009" y2="-93.3256" gradientTransform="matrix(235.9604 0 0 -204.3763 240679.7813 -18749.3828)">
		<stop  offset="0" style="stop-color:#CFDDF3"/>
		<stop  offset="0.474" style="stop-color:#B3C7E9"/>
		<stop  offset="1" style="stop-color:#728FC5"/>
	</linearGradient>
	<path class="st42" d="M380.2,128.4l-178.6,34.4c-5.8,1.1-10.4,5.5-11.7,11.2l-38.5,158.7l183.3-45.6c4.4-1.1,8-4.5,9.3-8.8
		L387.1,136c1-3.2-0.8-6.5-4-7.5C382.1,128.2,381.1,128.2,380.2,128.4L380.2,128.4z"/>
	<path class="st43" d="M282.1,242.8c-8.5,5.6-18.1,6.9-23.1-0.8c-5-7.6,0.9-17.7,9.5-23.4c8.5-5.6,17.1-6.7,22.2,0.9
		C295.6,227.1,290.7,237.1,282.1,242.8z"/>
</g>
<g id="Plant" transform="translate(178 613)">
	<g id="Pot" transform="translate(41 181)">
		<path id="shadow-2" class="st44" d="M-103.9-69.1c39.8,0,72,6.9,72,15.5s-32.2,15.5-72,15.5s-72-6.9-72-15.5
			S-143.6-69.1-103.9-69.1z"/>
		<g id="Ellipse_2-2" transform="translate(2 11)">
			
				<linearGradient id="Ellipse_2-3_1_" gradientUnits="userSpaceOnUse" x1="622.9745" y1="-23.2954" x2="622.2535" y2="-23.7954" gradientTransform="matrix(144 0 0 88 -89722.5938 1980.3086)">
				<stop  offset="0" style="stop-color:#CEE0FB"/>
				<stop  offset="1" style="stop-color:#E4EDFB"/>
			</linearGradient>
			<path id="Ellipse_2-3" class="st45" d="M-38.9-140.8c4.6,7.9,7,17,7,26.1c0,33.4-32.2,60.5-72,60.5s-72-27.1-72-60.5
				c0-9.7,2.7-19.2,7.9-27.5C-136.1-137.1-72.6-137.4-38.9-140.8z"/>
		</g>
		<g id="Ellipse_1-2" transform="translate(8)">
			
				<linearGradient id="Ellipse_1-3_1_" gradientUnits="userSpaceOnUse" x1="609.491" y1="-44.6404" x2="609.491" y2="-43.6404" gradientTransform="matrix(131 0 0 31 -79952.7188 1240.6729)">
				<stop  offset="0" style="stop-color:#99BAE9"/>
				<stop  offset="1" style="stop-color:#BCD0F2"/>
			</linearGradient>
			<path id="Ellipse_1-3" class="st46" d="M-109.4-143.1c36.2,0,65.5,6.9,65.5,15.5s-29.3,15.5-65.5,15.5s-65.5-6.9-65.5-15.5
				S-145.5-143.1-109.4-143.1z"/>
		</g>
	</g>
	<g id="leaves">
		<g id="leaves-2">
			<g id="leaf" transform="translate(47)">
				<g id="Shape_2-4">
					
						<linearGradient id="Shape_2-5_1_" gradientUnits="userSpaceOnUse" x1="606.6704" y1="-18.2927" x2="607.1144" y2="-17.3427" gradientTransform="matrix(76.9467 0 0 183 -46828.0039 3210.3677)">
						<stop  offset="0" style="stop-color:#B1FFBE"/>
						<stop  offset="0.444" style="stop-color:#5CDB8E"/>
						<stop  offset="1" style="stop-color:#149654"/>
					</linearGradient>
					<path id="Shape_2-5" class="st47" d="M-112.9,39.9c-3.6-24.8-13.4-60.5-43-99c-17.4-22.7-17.5-78-20-84
						c13.7,4.7,38.2,16.8,63,51C-86.9-56.3-103.4,16.7-112.9,39.9z"/>
					<g>
						<g>
							<defs>
								<path id="SVGID_11_" d="M-112.9,39.9c-3.6-24.8-13.4-60.5-43-99c-17.4-22.7-17.5-78-20-84c13.7,4.7,38.2,16.8,63,51
									C-86.9-56.3-103.4,16.7-112.9,39.9z"/>
							</defs>
							<clipPath id="SVGID_12_">
								<use xlink:href="#SVGID_11_"  style="overflow:visible;"/>
							</clipPath>
							<g id="Shape_2-6" class="st48">
								<path id="Shape_3" class="st49" d="M-113.9,39.9c2.7-60.2-4.8-98.1-28.3-134"/>
							</g>
						</g>
					</g>
				</g>
			</g>
			<g id="leaf-2" transform="translate(0 89)">
				<g id="Shape_2-7">
					
						<linearGradient id="Shape_2-8_1_" gradientUnits="userSpaceOnUse" x1="705.5629" y1="-21.2851" x2="705.6808" y2="-20.3041" gradientTransform="matrix(109.591 0 0 118.6618 -77451.0469 2377.3823)">
						<stop  offset="0" style="stop-color:#B1FFBE"/>
						<stop  offset="0.444" style="stop-color:#5CDB8E"/>
						<stop  offset="1" style="stop-color:#149654"/>
					</linearGradient>
					<path id="Shape_2-8" class="st50" d="M-65.8-23.7c-11.1-17.7-30.6-41.6-66.1-61.1c-20.9-11.4-39.5-53.5-43.5-57.3
						c12-1,34.8,0,65.2,17.7C-78.3-105.8-66.3-44.5-65.8-23.7z"/>
					<g>
						<g>
							<defs>
								<path id="SVGID_13_" d="M-65.8-23.7c-11.1-17.7-30.6-41.6-66.1-61.1c-20.9-11.4-39.5-53.5-43.5-57.3c12-1,34.8,0,65.2,17.7
									C-78.3-105.8-66.3-44.5-65.8-23.7z"/>
							</defs>
							<clipPath id="SVGID_14_">
								<use xlink:href="#SVGID_13_"  style="overflow:visible;"/>
							</clipPath>
							<g id="Shape_2-9" class="st51">
								<path id="Shape_3-2" class="st49" d="M-66.5-23.4c-18.2-46.8-36.7-73.2-66.7-92.7"/>
							</g>
						</g>
					</g>
				</g>
			</g>
			<g id="leaf-3" transform="translate(115 78)">
				<g id="Shape_2-10">
					
						<linearGradient id="Shape_2-11_1_" gradientUnits="userSpaceOnUse" x1="473.5801" y1="-20.3292" x2="474.0241" y2="-19.3792" gradientTransform="matrix(94.2947 0 0 132.014 -44800.9961 2550.481)">
						<stop  offset="0" style="stop-color:#B1FFBE"/>
						<stop  offset="0.444" style="stop-color:#5CDB8E"/>
						<stop  offset="1" style="stop-color:#149654"/>
					</linearGradient>
					<path id="Shape_2-11" class="st52" d="M-172.8-10.3c8.7-19,25.1-45.4,57.9-69.3C-95.6-93.7-82.5-138-79-142.3
						c-12.1,0.5-34.7,4.5-62.7,26.1C-171-93.6-175-31.1-172.8-10.3z"/>
					<g>
						<g>
							<defs>
								<path id="SVGID_15_" d="M-172.8-10.3c8.7-19,25.1-45.4,57.9-69.3C-95.6-93.7-82.5-138-79-142.3
									c-12.1,0.5-34.7,4.5-62.7,26.1C-171-93.6-175-31.1-172.8-10.3z"/>
							</defs>
							<clipPath id="SVGID_16_">
								<use xlink:href="#SVGID_15_"  style="overflow:visible;"/>
							</clipPath>
							<g id="Shape_2-12" class="st53">
								<path id="Shape_3-3" class="st49" d="M-175.4-10.4c12-48.9,27-77.7,54.4-100.9"/>
							</g>
						</g>
					</g>
				</g>
			</g>
		</g>
	</g>
</g>
</svg>
