<?xml version="1.0" encoding="utf-8"?>
<!-- Generator: Adobe Illustrator 23.0.3, SVG Export Plug-In . SVG Version: 6.00 Build 0)  -->
<svg xmlns="http://www.w3.org/2000/svg" xmlns:xlink="http://www.w3.org/1999/xlink" x="0px" y="0px"
	 viewBox="0 0 925.4 1059.7" style="enable-background:new 0 0 925.4 1059.7;" xml:space="preserve">
<style type="text/css">
	.list-app-0{fill:#377DFF;}
	.list-app-1{fill:#FFFFFF;}
	.list-app-2{fill:none;stroke:#00C9A7;}
	.list-app-3{fill:#00C9A7;}
	.list-app-4{fill:none;stroke:#BDC5D1;}
	.list-app-5{fill:#E7EAF3;}
	.list-app-6{fill:#1E2022;}
	.list-app-7{fill:none;stroke:#1E2022;}
</style>
<rect x="786.2" y="126.7" class="list-app-0 fill-primary" width="125.1" height="171.7"/>
<rect class="list-app-0 fill-primary" width="305" height="97.7"/>
<circle class="list-app-1 fill-white" cx="49.8" cy="47.9" r="32"/>
<rect x="103.6" y="17.8" class="list-app-1 fill-white" width="179" height="11"/>
<rect x="103.6" y="43.4" class="list-app-1 fill-white" width="60.3" height="11"/>
<polyline class="list-app-2 fill-none stroke-success" stroke-width="6" stroke-linecap="round" stroke-miterlimit="10" points="66.4,38.4 46.7,58.2 38.5,49.9 "/>
<rect y="126" class="list-app-0 fill-primary" width="305" height="97.7"/>
<circle class="list-app-1 fill-white" cx="49.8" cy="173.9" r="32"/>
<rect x="103.6" y="143.8" class="list-app-1 fill-white" width="179" height="11"/>
<rect x="103.6" y="169.4" class="list-app-1 fill-white" width="60.3" height="11"/>
<polyline class="list-app-2 fill-none stroke-success" stroke-width="6" stroke-linecap="round" stroke-miterlimit="10" points="66.4,164.4 46.7,184.2 38.5,175.9 "/>
<rect x="773.4" y="143.1" class="list-app-3 fill-success" width="125.1" height="171.7"/>
<rect x="787.1" y="176" class="list-app-1 fill-white" width="98.6" height="8.2"/>
<rect x="787.1" y="192.4" class="list-app-1 fill-white" width="98.6" height="8.2"/>
<rect x="787.1" y="208.8" class="list-app-1 fill-white" width="98.6" height="8.2"/>
<path class="list-app-4 fill-none stroke-gray-400" stroke-width="10" stroke-miterlimit="10" stroke-dasharray="20" d="M567,376.9c0-9.1,16.4-23.7,44.7-23.7c34.7,0,82.2,74,135.1,74c36.5,0,86.8-30.1,86.8-84.9"/>
<path class="list-app-5 fill-gray-300" d="M553.2,575.7c-2.2-2.7-5.1-6.4-8.5-10.8l-3.2-4.1l-2.2-3c-3.5-4.6-7.1-9.6-10.7-14.6l0,0l0,0
	c-3.4-4.8-6.6-9.5-9.4-14v-0.1l0,0c-2.8-4.3-5.2-8.7-7.4-13.3l0.1-0.1l-4.2-0.5l-6.1-4.9l-9-11.6l-3.4-4.8l-1.5-0.6
	c0,2.4,2.6,23.4,3,53C508.9,555.5,529.9,565.6,553.2,575.7z"/>
<path class="list-app-5 fill-gray-300" d="M554.4,644.1c-20.1-10.1-43.5-24.7-66.2-39.8c-6.4,61.5-27.1,132-85.4,164.8c67.4,10,143-27.2,143-27.2l2.3-3.9
	l3.3-15.3l3-26.9v-24.9V644.1z"/>
<path class="list-app-6 fill-dark" d="M431.7,1059.7h-88.6c0,0-30.1-311.4-30.1-317.8c5.5,5.5,4.6,7.3,27.4,13.7c13.7,14.6,110.5,257.5,110.5,257.5
	L431.7,1059.7z"/>
<path class="list-app-6 fill-dark" d="M545.9,741.9v317.8H431.7l-91.4-304.3C372.4,761.1,493.8,765.6,545.9,741.9z"/>
<path class="list-app-1 fill-white" opacity=".05" d="M545.9,741.9v317.8H431.7l-91.4-304.3C372.4,761.1,493.8,765.6,545.9,741.9z"/>
<path class="list-app-7 fill-none stroke-dark" stroke-width="2.3" stroke-linecap="round" stroke-linejoin="round" d="M292.6,496.8c-6.4,39.1-21.6,169.9,21.3,292.6c1.1,0.3,2.3,0,3.2-0.8"/>
<path class="list-app-7 fill-none stroke-dark" stroke-width="2.3" stroke-linecap="round" stroke-linejoin="round" d="M310.3,507.1c-13-6.4-23.2-13.1-25.2-17.9c-4.9-11.4,27.2-97.7,72.6-117.5"/>
<path class="list-app-7 fill-none stroke-dark" stroke-width="2.3" stroke-linecap="round" stroke-linejoin="round" d="M450,338.9c10.8,4.1,20.5,11,29.3,20"/>
<path class="list-app-7 fill-none stroke-dark" stroke-width="2.3" stroke-linecap="round" stroke-linejoin="round" d="M554.1,643.3c1.5,53.3-2.4,93.5-8.2,98.6c-19.2,16.4-215.5,32-232.9,0c-16.4-30.1-32.7-365.6,89.5-403.7"/>
<path class="list-app-7 fill-none stroke-dark" stroke-width="2.3" stroke-linecap="round" stroke-linejoin="round" d="M468.5,367.7c2.1-2.4,4.4-4.7,7-6.6c35.6-26.5,118.7,79.4,117.8,98.6s-70.3,59.4-84.9,55.7
	c-3.8-0.9-11.1-9.1-19.1-21.4"/>
<path class="list-app-7 fill-none stroke-dark" stroke-width="2.3" stroke-linecap="round" stroke-linejoin="round" d="M402.5,338.2v-17.9"/>
<path class="list-app-7 fill-none stroke-dark" stroke-width="2.3" stroke-linecap="round" stroke-linejoin="round" d="M450,292.8V352c0,6.6-14.5,9.8-27.5,9.2"/>
<path class="list-app-7 fill-none stroke-dark" stroke-width="2.3" stroke-linecap="round" stroke-linejoin="round" d="M402.5,320.3c-20.5-9.1-35.6-41.9-35.6-81.1c0-9,0.8-18.1,2.5-26.9"/>
<path class="list-app-7 fill-none stroke-dark" stroke-width="2.3" stroke-linecap="round" stroke-linejoin="round" d="M413.9,322.8c-3.9,0-7.8-0.9-11.4-2.5"/>
<path class="list-app-7 fill-none stroke-dark" stroke-width="2.3" stroke-linecap="round" stroke-linejoin="round" d="M459,263.3c-1.6,10-4.6,19.8-8.7,29"/>
<path class="list-app-7 fill-none stroke-dark" stroke-width="2.3" stroke-linecap="round" stroke-linejoin="round" d="M452.1,288h8c11.9,0,17.4-4.6,35.6-4.6c32,0,76.7,39.3,131.5,39.3c59.4,0,84-44.7,84-95c0-66.7-63-84-93.1-84
	c-35.6,0-64.8,25.6-103.2,25.6c-27.4,0-53.9-32.9-92.2-32.9c-49.3,0-64.8,26.5-64.8,44.7c0,14.6,8.9,31,11.6,31
	c0.8-4.8,5.7-21,7.5-22.8c0.5,1.9,4.4,7.4,10.5,14"/>
<path class="list-app-7 fill-none stroke-dark" stroke-width="2.3" stroke-linecap="round" stroke-linejoin="round" d="M450.9,240.8c5.7-3.8,13.3-2.3,17.1,3.4c3.8,5.7,2.3,13.3-3.4,17.1c-1.7,1.1-3.6,1.8-5.6,2"/>
<path class="list-app-0 fill-primary" d="M376.9,530.4c-16.4-9.5-24.1-26.7-17.4-38.5c4.4-7.7,13.9-11.1,24.6-10l-6.8-45.1l-57,8.6l14.7,97.8l53.3-8
	C384.4,534,380.5,532.5,376.9,530.4z"/>
<path class="list-app-7 fill-none stroke-dark" stroke-width="2.3" stroke-linecap="round" stroke-linejoin="round" d="M511.7,515.7c7.7,17,32.2,48.4,41.5,60c-75.8-32.9-127.8-65.7-132.4-70.3c-0.7-0.5-1.5-0.7-2.3-0.4
	c-3.8-7.3-9.7-13.3-16.8-17.3c-16.4-9.5-35.2-7.6-42,4.2s0.9,29,17.4,38.5c5.8,3.4,12.4,5.5,19.2,6c0.3,0.4,0.6,0.7,0.9,1
	c10,9.1,154.3,120.5,198.2,120.5c11,0,28.3-17.4,28.3-52.1c0-12.1-8.1-78.7-37.5-133"/>
<circle cx="403.6" cy="239.3" r="1.9"/>
<circle cx="373.6" cy="236.1" r="1.9"/>
<path class="list-app-7 fill-none stroke-dark" stroke-width="2.3" stroke-linecap="round" stroke-linejoin="round" d="M388,249c0,0-9.7,15.9,6.8,15.3"/>
<path class="list-app-7 fill-none stroke-dark" stroke-width="2.3" stroke-linecap="round" stroke-linejoin="round" d="M389.3,284.6c0,0,7.4,8.7,16.1,0"/>
</svg>
