<?xml version="1.0" encoding="utf-8"?>
<!-- Generator: Adobe Illustrator 24.1.1, SVG Export Plug-In . SVG Version: 6.00 Build 0)  -->
<svg version="1.1" id="Layer_1" xmlns="http://www.w3.org/2000/svg" xmlns:xlink="http://www.w3.org/1999/xlink" x="0px" y="0px"
	 viewBox="0 0 1400.3 998.7" style="enable-background:new 0 0 1400.3 998.7;" xml:space="preserve">
<style type="text/css">
	.st0{opacity:0.5;fill:url(#phone_stack_shadow_1_);enable-background:new    ;}
	
		.st1{opacity:0.66;fill:none;stroke:#BDC5D1;stroke-width:5;stroke-linecap:round;stroke-miterlimit:10;stroke-dasharray:5,20;enable-background:new    ;}
	.st2{fill:url(#Shape_5_1_);}
	.st3{fill:#E19046;}
	.st4{fill:#E69F52;}
	.st5{fill:#E7EAF3;}
	.st6{fill:#377DFF;}
	.st7{fill:#21325B;}
	.st8{fill:url(#Shape_2-5_1_);}
	.st9{clip-path:url(#SVGID_2_);}
	.st10{opacity:0.5;stroke:#489C71;stroke-width:3;stroke-miterlimit:10;enable-background:new    ;}
	.st11{fill:url(#Shape_2-8_1_);}
	.st12{clip-path:url(#SVGID_4_);}
	.st13{fill:url(#Shape_2-11_1_);}
	.st14{clip-path:url(#SVGID_6_);}
	.st15{opacity:0.7;fill:url(#shadow-2_1_);enable-background:new    ;}
	.st16{fill:url(#side-2_1_);}
	.st17{fill:url(#paint-2_1_);}
	.st18{fill:url(#top_1_);}
	.st19{fill:#FFFFFF;stroke:#E7EAF3;stroke-width:4;stroke-miterlimit:10;}
	.st20{fill:#FFFFFF;}
	.st21{opacity:0.4;fill:none;stroke:#377DFF;stroke-width:5;stroke-miterlimit:10;enable-background:new    ;}
	.st22{opacity:0.7;fill:#377DFF;enable-background:new    ;}
	.st23{opacity:0.3;fill:#377DFF;enable-background:new    ;}
	.st24{fill:#09385B;}
	.st25{stroke:#FFFFFF;stroke-width:4;stroke-miterlimit:10;}
	.st26{fill:#1E2022;}
	.st27{display:none;fill:url(#Mask_Path-2_1_);}
	.st28{fill:url(#Mask_Path-3_1_);}
	.st29{fill:url(#SVGID_7_);}
	.st30{fill:url(#inside_pants_1_);}
	.st31{fill:#EDAF85;}
	.st32{opacity:0.6;clip-path:url(#SVGID_9_);fill:url(#Path_4_1_);enable-background:new    ;}
	.st33{fill:none;stroke:#FFFFFF;stroke-width:4;stroke-linecap:round;stroke-linejoin:round;stroke-miterlimit:10;}
	.st34{fill:url(#Mask_Path-5_1_);}
	.st35{fill:url(#Mask_Path-6_1_);}
	.st36{fill:url(#Mask_Path-7_1_);}
	.st37{fill:url(#SVGID_10_);}
	.st38{clip-path:url(#SVGID_12_);}
	.st39{fill:url(#Path_2_1_);}
	.st40{fill:none;stroke:#1E2022;stroke-width:3;stroke-miterlimit:10;}
	.st41{fill:#346CC7;}
	.st42{fill:#223762;}
	.st43{fill:url(#hand-2_1_);}
	.st44{clip-path:url(#SVGID_14_);}
	.st45{fill:none;stroke-linecap:square;stroke-miterlimit:10;enable-background:new    ;}
	.st46{fill:url(#shirt_bottom_2_);}
	.st47{fill:url(#colar_2_);}
	.st48{fill:url(#shirt_sleeve_2_);}
	.st49{fill:#4b91ff;}
	.st50{clip-path:url(#SVGID_16_);}
	.st51{clip-path:url(#SVGID_18_);}
	.st52{fill:url(#Path_3_1_);}
	.st53{fill:none;stroke:#E7EAF3;stroke-width:8;stroke-linecap:round;stroke-linejoin:round;stroke-miterlimit:10;}
	.st54{fill:url(#SVGID_19_);}
	.st55{opacity:0.2;fill:url(#SVGID_20_);enable-background:new    ;}
	.st56{fill:url(#SVGID_21_);}
	.st57{fill:none;stroke:#707070;stroke-width:8;stroke-linecap:round;stroke-linejoin:round;stroke-miterlimit:10;}
	.st58{fill:url(#SVGID_22_);}
	.st59{fill:url(#SVGID_23_);}
	.st60{opacity:0.8;fill:#BDC5D1;enable-background:new    ;}
	.st61{fill:none;stroke:#FFFFFF;stroke-width:6;stroke-miterlimit:10;}
	.st62{fill:url(#SVGID_24_);}
	.st63{fill:url(#SVGID_25_);}
	.st64{fill:#D6E3FA;}
</style>
<linearGradient id="phone_stack_shadow_1_" gradientUnits="userSpaceOnUse" x1="1327.4088" y1="62.0404" x2="1327.0206" y2="62.6385" gradientTransform="matrix(779.557 0 0 292.144 -1033713.6875 -17483.9297)">
	<stop  offset="0.1966" style="stop-color:#D0DCF1"/>
	<stop  offset="0.4155" style="stop-color:#D6E1F3"/>
	<stop  offset="0.7162" style="stop-color:#E8EEF8"/>
	<stop  offset="1" style="stop-color:#FFFFFF"/>
</linearGradient>
<path id="phone_stack_shadow" class="st0" d="M387.4,699.3l436.9-114.2l551.1,223.1L962.5,998.7"/>
<g id="message" transform="translate(118 291)">
	<path id="line" class="st1" d="M-23-162.7C-298.8,127,106.5,536.8,352.4,228.9c414.2-518.5,767-128.9,767-128.9"/>
	<g id="rocket" transform="translate(1079 212)">
		
			<linearGradient id="Shape_5_1_" gradientUnits="userSpaceOnUse" x1="-964.8309" y1="121.3868" x2="-963.6331" y2="121.2199" gradientTransform="matrix(124.988 0 0 111 120609.0859 -13537)">
			<stop  offset="0" style="stop-color:#FDAE6B"/>
			<stop  offset="1" style="stop-color:#FAE539"/>
		</linearGradient>
		<path id="Shape_5" class="st2" d="M18.9-62.4L42.4-93l76.1,47.7l-58.3-67l28.3-26.6l71.3,125.2L18.9-62.4z"/>
		<path id="Shape_6" class="st3" d="M41.7-92.2l17.8-2.4L121.9-43L41.7-92.2z"/>
		<path id="Shape_7" class="st4" d="M58.6-94.6l2.5-17.8l59.1,67.9L58.6-94.6z"/>
	</g>
</g>
<g>
	<g>
		<path id="Ellipse_3" class="st5" d="M101.5,725c33.1,0,60,5.8,60,13s-26.9,13-60,13s-60-5.8-60-13S68.3,725,101.5,725z"/>
		<path id="Ellipse_2-3" class="st6" d="M181.4,662.4c4.6,7.9,7,17,7,26.1c0,33.4-32.2,60.5-72,60.5s-72-27.1-72-60.5
			c0-9.7,2.7-19.2,7.9-27.5C84.2,666,147.7,665.7,181.4,662.4z"/>
		<path id="Ellipse_1-3" class="st7" d="M117,649c36.2,0,65.5,6.9,65.5,15.5S153.2,680,117,680s-65.5-6.9-65.5-15.5
			S80.8,649,117,649z"/>
	</g>
	<g>
		<g id="Shape_2-4">
			
				<linearGradient id="Shape_2-5_1_" gradientUnits="userSpaceOnUse" x1="1311.6278" y1="63.8249" x2="1312.0719" y2="64.7749" gradientTransform="matrix(76.9467 0 0 183 -100847.7422 -11204)">
				<stop  offset="0" style="stop-color:#B1FFBE"/>
				<stop  offset="0.444" style="stop-color:#5CDB8E"/>
				<stop  offset="1" style="stop-color:#149654"/>
			</linearGradient>
			<path id="Shape_2-5" class="st8" d="M111.5,653c-3.6-24.8-13.4-60.5-43-99c-17.4-22.7-17.5-77.9-20-84c13.7,4.7,38.2,16.8,63,51
				C137.4,556.8,121,629.9,111.5,653z"/>
			<g>
				<g>
					<defs>
						<path id="SVGID_1_" d="M111.5,653c-3.6-24.8-13.4-60.5-43-99c-17.4-22.7-17.5-77.9-20-84c13.7,4.7,38.2,16.8,63,51
							C137.4,556.8,121,629.9,111.5,653z"/>
					</defs>
					<clipPath id="SVGID_2_">
						<use xlink:href="#SVGID_1_"  style="overflow:visible;"/>
					</clipPath>
					<g id="Shape_2-6" class="st9">
						<path id="Shape_3" class="st10" d="M110.5,653c2.7-60.2-4.8-98.1-28.3-134"/>
					</g>
				</g>
			</g>
		</g>
		<g id="Shape_2-7">
			
				<linearGradient id="Shape_2-8_1_" gradientUnits="userSpaceOnUse" x1="1317.1265" y1="60.9184" x2="1317.2445" y2="61.8994" gradientTransform="matrix(109.591 0 0 118.6618 -144295.4844 -6674.9053)">
				<stop  offset="0" style="stop-color:#B1FFBE"/>
				<stop  offset="0.444" style="stop-color:#5CDB8E"/>
				<stop  offset="1" style="stop-color:#149654"/>
			</linearGradient>
			<path id="Shape_2-8" class="st11" d="M111.6,678.4c-11.1-17.7-30.6-41.6-66.1-61.1C24.6,605.9,6,563.8,2,560
				c12-1,34.8,0,65.2,17.7C99.1,596.3,111.1,657.6,111.6,678.4z"/>
			<g>
				<g>
					<defs>
						<path id="SVGID_3_" d="M111.6,678.4c-11.1-17.7-30.6-41.6-66.1-61.1C24.6,605.9,6,563.8,2,560c12-1,34.8,0,65.2,17.7
							C99.1,596.3,111.1,657.6,111.6,678.4z"/>
					</defs>
					<clipPath id="SVGID_4_">
						<use xlink:href="#SVGID_3_"  style="overflow:visible;"/>
					</clipPath>
					<g id="Shape_2-9" class="st12">
						<path id="Shape_3-2" class="st10" d="M110.8,678.7c-18.1-46.8-36.6-73.2-66.7-92.7"/>
					</g>
				</g>
			</g>
		</g>
		<g id="Shape_2-10">
			
				<linearGradient id="Shape_2-11_1_" gradientUnits="userSpaceOnUse" x1="1314.9111" y1="61.8501" x2="1315.3552" y2="62.8001" gradientTransform="matrix(94.2947 0 0 132.014 -123841.7031 -7607.1494)">
				<stop  offset="0" style="stop-color:#B1FFBE"/>
				<stop  offset="0.444" style="stop-color:#5CDB8E"/>
				<stop  offset="1" style="stop-color:#149654"/>
			</linearGradient>
			<path id="Shape_2-11" class="st13" d="M119.5,680.8c8.7-19,25.1-45.4,57.9-69.3c19.4-14.1,32.4-58.4,35.9-62.7
				c-12.1,0.5-34.7,4.5-62.7,26.1C121.4,597.5,117.4,660,119.5,680.8z"/>
			<g>
				<g>
					<defs>
						<path id="SVGID_5_" d="M119.5,680.8c8.7-19,25.1-45.4,57.9-69.3c19.4-14.1,32.4-58.4,35.9-62.7c-12.1,0.5-34.7,4.5-62.7,26.1
							C121.4,597.5,117.4,660,119.5,680.8z"/>
					</defs>
					<clipPath id="SVGID_6_">
						<use xlink:href="#SVGID_5_"  style="overflow:visible;"/>
					</clipPath>
					<g id="Shape_2-12" class="st14">
						<path id="Shape_3-3" class="st10" d="M117,680.8c12-48.9,27-77.7,54.4-100.9"/>
					</g>
				</g>
			</g>
		</g>
	</g>
</g>
<g>
	
		<linearGradient id="shadow-2_1_" gradientUnits="userSpaceOnUse" x1="1328.7935" y1="48.2827" x2="1327.7935" y2="48.2827" gradientTransform="matrix(245 0 0 52.983 -324284.0625 -1881.8109)">
		<stop  offset="0" style="stop-color:#D6E1F1;stop-opacity:0.247"/>
		<stop  offset="1" style="stop-color:#6F8EC2"/>
	</linearGradient>
	<path id="shadow-2" class="st15" d="M1147.8,702.8c67.7,0,122.5-11.9,122.5-26.5s-54.8-26.5-122.5-26.5s-122.5,11.9-122.5,26.5
		S1080.1,702.8,1147.8,702.8z"/>
	
		<linearGradient id="side-2_1_" gradientUnits="userSpaceOnUse" x1="1328.7369" y1="62.2939" x2="1327.8" y2="62.258" gradientTransform="matrix(245 0 0 155.834 -324272 -9087.1699)">
		<stop  offset="0" style="stop-color:#F4F6FD"/>
		<stop  offset="0.174" style="stop-color:#FFFFFF"/>
		<stop  offset="0.505" style="stop-color:#F3F4FA"/>
		<stop  offset="0.792" style="stop-color:#D9E2F9"/>
		<stop  offset="1" style="stop-color:#B0C3E6"/>
	</linearGradient>
	<path id="side-2" class="st16" d="M1049.4,675.5l-12.1-134.3h245l-12,134.3c0,0.2,0,0.4-0.1,0.6c-1,11.6-50.5,21-110.4,21
		s-109.4-9.4-110.4-21C1049.4,675.8,1049.4,675.6,1049.4,675.5z"/>
	
		<linearGradient id="paint-2_1_" gradientUnits="userSpaceOnUse" x1="1205.5759" y1="395.8063" x2="1083.786" y2="398.7825" gradientTransform="matrix(1 0 0 -1 0 1016)">
		<stop  offset="0" style="stop-color:#377DFF;stop-opacity:0"/>
		<stop  offset="0.174" style="stop-color:#377DFF;stop-opacity:0.1"/>
		<stop  offset="0.505" style="stop-color:#377DFF;stop-opacity:0.1"/>
		<stop  offset="0.792" style="stop-color:#377DFF;stop-opacity:0.3"/>
		<stop  offset="1" style="stop-color:#377DFF;stop-opacity:0.6"/>
	</linearGradient>
	<path id="paint-2" class="st17" d="M1085.2,557.5v52.3c0,4.8,0,12.4,8.1,12.4c5.4,0,7.6-4.1,6.6-12.4v-24c0-2.4,2.4-5,6.5-4.8
		s6.4,3,6.3,4.8c-0.1,1.9,0.2,58,0.1,60.5s0.3,8.2,4.5,8.2c4.2-0.1,5.5-2.5,5.2-8.2s0-49,0-52.1c0.1-2.4,2-4.3,4.5-4.4
		c1.4,0,6,0.7,5.8,6.1c-0.2,5.4,0,36.2,0,37.8c0,1.7,1.7,5.7,5.9,5.9c3.2,0.1,5.9-2.3,6-5.5c0-0.1,0-0.3,0-0.4
		c-0.2-2.3,0.4-49.3,0.2-52.8s2-5.6,4.7-5.8c2.8-0.3,5.5,2.9,5.4,5.8c-0.1,2.9,0.2,25.2,0.1,27s1.9,5.3,5.3,5.1
		c3.4-0.1,4.5-2.4,4.4-5.1c0-2.7-0.1-37.5,0-39.2c0.2-2.7,2.4-4.8,5.1-4.9c3.6-0.3,5.9,3,5.8,4.9c-0.1,1.8,0.1,101.6,0.1,104.2
		c-0.1,2.6,2.5,7.5,8.7,7.4c6.3-0.1,6.3-4.4,6.3-7.4c0-3.1-0.1-98.5-0.1-102.9c0.1-4.4,1.3-7,8-7.5s8.4-0.8,8.3-2.8
		c-9.7,1.5-38.7,2.6-65.3,1.5C1115.1,560.3,1094.9,559.8,1085.2,557.5z"/>
	
		<linearGradient id="top_1_" gradientUnits="userSpaceOnUse" x1="1328.2932" y1="43.2045" x2="1328.2932" y2="42.2045" gradientTransform="matrix(245 0 0 41.955 -324272 -1249.8948)">
		<stop  offset="0" style="stop-color:#829FCE"/>
		<stop  offset="0.564" style="stop-color:#AAC1E7"/>
		<stop  offset="1" style="stop-color:#C0D1F0"/>
	</linearGradient>
	<path id="top" class="st18" d="M1159.8,562.8c67.7,0,122.5-9.4,122.5-21s-54.8-21-122.5-21s-122.5,9.4-122.5,21
		S1092.2,562.8,1159.8,562.8z"/>
</g>
<g>
	<path class="st19" d="M1095.6,703h-626c-8.8,0-16-7.2-16-16V20c0-8.8,7.2-16,16-16h626c8.8,0,16,7.2,16,16v667
		C1111.5,695.8,1104.4,703,1095.6,703z"/>
	<path id="_copy_5" class="st5" d="M756.6,304h-176c-5.5,0-10-4.5-10-10V130c0-5.5,4.5-10,10-10h176c5.5,0,10,4.5,10,10v164
		C766.5,299.5,762.1,304,756.6,304z"/>
	<path class="st20" d="M745.6,293h-176c-5.5,0-10-4.5-10-10V119c0-5.5,4.5-10,10-10h176c5.5,0,10,4.5,10,10v164
		C755.5,288.5,751.1,293,745.6,293z"/>
	<path class="st21" d="M574.1,247.3l21.5-47.3l34.7,6.9l26.7-36.5l44.2-17.8l38.6,25.7"/>
	<path class="st6" d="M629.9,213.2c3.8,0,6.9-3.1,6.9-6.9c0-3.8-3.1-6.9-6.9-6.9c-3.8,0-6.9,3.1-6.9,6.9
		C623,210.1,626.1,213.2,629.9,213.2L629.9,213.2z"/>
	<path class="st6" d="M595.9,209.6c3.8,0,6.9-3.1,6.9-6.9s-3.1-6.9-6.9-6.9s-6.9,3.1-6.9,6.9l0,0C589,206.5,592.1,209.6,595.9,209.6
		z"/>
	<path class="st6" d="M656.9,177.2c3.8,0,6.9-3.1,6.9-6.9s-3.1-6.9-6.9-6.9s-6.9,3.1-6.9,6.9S653.1,177.2,656.9,177.2L656.9,177.2z"
		/>
	<path class="st6" d="M700.9,161.2c3.8,0,6.9-3.1,6.9-6.9c0-3.8-3.1-6.9-6.9-6.9c-3.8,0-6.9,3.1-6.9,6.9
		C694,158.1,697.1,161.2,700.9,161.2L700.9,161.2z"/>
	<path id="_copy_6" class="st5" d="M1005.6,304h-176c-5.5,0-10-4.5-10-10V130c0-5.5,4.5-10,10-10h176c5.5,0,10,4.5,10,10v164
		C1015.5,299.5,1011.1,304,1005.6,304z"/>
	<path class="st20" d="M994.6,293h-176c-5.5,0-10-4.5-10-10V119c0-5.5,4.5-10,10-10h176c5.5,0,10,4.5,10,10v164
		C1004.5,288.5,1000.1,293,994.6,293z"/>
	<path class="st6" d="M868.6,268h-23c-2.2,0-4-1.8-4-4v-94c0-2.2,1.8-4,4-4h23c2.2,0,4,1.8,4,4v94C872.5,266.2,870.8,268,868.6,268z
		"/>
	<path id="_copy_9" class="st22" d="M918.6,268h-23c-2.2,0-4-1.4-4-3.1V193c0-1.7,1.8-3.1,4-3.1h23c2.2,0,4,1.4,4,3.1v71.9
		C922.6,266.6,920.8,268,918.6,268z"/>
	<path id="_copy_10" class="st23" d="M967.6,268h-23c-2.2,0-4-1-4-2.3v-54.4c0-1.3,1.8-2.3,4-2.3h23c2.2,0,4,1,4,2.3v54.4
		C971.6,266.9,969.8,268,967.6,268z"/>
	<g id="list" transform="translate(106 338)">
		<path class="st5" d="M558.6,120h-95c-5.5,0-10-4.5-10-10V15c0-5.5,4.5-10,10-10h95c5.5,0,10,4.5,10,10v95
			C568.5,115.5,564.1,120,558.6,120z"/>
		<path class="st5" d="M558.6,260h-95c-5.5,0-10-4.5-10-10v-95c0-5.5,4.5-10,10-10h95c5.5,0,10,4.5,10,10v95
			C568.5,255.5,564.1,260,558.6,260z"/>
		<path class="st5" d="M895.6,37h-304c-1.7,0-3-1.3-3-3l0,0V10c0-1.7,1.3-3,3-3h304c1.7,0,3,1.3,3,3v24
			C898.5,35.7,897.2,37,895.6,37z"/>
		<path class="st5" d="M895.6,177h-304c-1.7,0-3-1.3-3-3v-24c0-1.7,1.3-3,3-3h304c1.7,0,3,1.3,3,3v24
			C898.5,175.7,897.2,177,895.6,177z"/>
		<path class="st5" d="M825.6,87h-234c-1.7,0-3-1.3-3-3V60c0-1.7,1.3-3,3-3h234c1.7,0,3,1.3,3,3v24C828.5,85.7,827.2,87,825.6,87z"
			/>
		<path class="st5" d="M825.6,227h-234c-1.7,0-3-1.3-3-3v-24c0-1.7,1.3-3,3-3h234c1.7,0,3,1.3,3,3v24
			C828.5,225.7,827.2,227,825.6,227z"/>
	</g>
</g>
<g>
	<g id="shoe" transform="translate(385 219)">
		<path class="st24" d="M208.9,589.8h-29.1c-4-8.4-6.7-15.6-8-21.6c-2-9-5-15.7-2-27.9s37.2-19.1,41.5-15.2c4.3,3.9,3.6,6,20.7,15.1
			c10.3,5.5,29.5,14.3,57.4,26.5c5.4,2.4,9,7.8,9,13.7c0,5.4-4.4,9.9-9.8,10c-30.4,0.5-49.3,0.8-56.8,0.8c-8-2.9-15.7-6.5-23-10.8
			v9.4H208.9z"/>
		<path id="Shape_9_copy_3" class="st25" d="M245.5,555c2-2.1,12.5-8.7,17-4.7"/>
	</g>
	<g id="leg" transform="translate(240)">
		<g>
			<path id="Mask_Path" class="st26" d="M182.5,599.3c0,0,89.2-49.6,111.6-58.7c22.4-9.1,58-18.7,62.8-15.2
				c4.9,3.5,34.7,29.1,44.2,68.4c9.5,39.3,16.1,153.7,27.4,162.3c-13.5,10.7-112.3,27.2-134.4,19.7c0-26.9-4.2-94.3,0-107.3
				c-8.3,4-62.8,31.7-85.3,37.6c-11,2.9-34.2-24.2-38-51C166.9,627.1,182.5,599.3,182.5,599.3z"/>
			
				<radialGradient id="Mask_Path-2_1_" cx="845.0964" cy="65.2344" r="0.438" gradientTransform="matrix(258.3484 0 0 253.075 -217966.125 -15984.5742)" gradientUnits="userSpaceOnUse">
				<stop  offset="0" style="stop-color:#E36359;stop-opacity:0.361"/>
				<stop  offset="1" style="stop-color:#704840;stop-opacity:0"/>
			</radialGradient>
			<path id="Mask_Path-2" class="st27" d="M182.5,599.3c0,0,89.2-49.6,111.6-58.7c22.4-9.1,58-18.7,62.8-15.2
				c4.9,3.5,34.7,29.1,44.2,68.4c9.5,39.3,16.1,153.7,27.4,162.3c-13.5,10.7-112.3,27.2-134.4,19.7c0-26.9-4.2-94.3,0-107.3
				c-8.3,4-62.8,31.7-85.3,37.6c-11,2.9-34.2-24.2-38-51C166.9,627.1,182.5,599.3,182.5,599.3z"/>
			
				<linearGradient id="Mask_Path-3_1_" gradientUnits="userSpaceOnUse" x1="845.0068" y1="65.7393" x2="844.6088" y2="65.8223" gradientTransform="matrix(258.3484 0 0 253.075 -217966.125 -15984.5742)">
				<stop  offset="0" style="stop-color:#2D4063;stop-opacity:0"/>
				<stop  offset="1" style="stop-color:#120F3B"/>
			</linearGradient>
			<path id="Mask_Path-3" class="st28" d="M182.5,599.3c0,0,89.2-49.6,111.6-58.7c22.4-9.1,58-18.7,62.8-15.2
				c4.9,3.5,34.7,29.1,44.2,68.4c9.5,39.3,16.1,153.7,27.4,162.3c-13.5,10.7-112.3,27.2-134.4,19.7c0-26.9-4.2-94.3,0-107.3
				c-8.3,4-62.8,31.7-85.3,37.6c-11,2.9-34.2-24.2-38-51C166.9,627.1,182.5,599.3,182.5,599.3z"/>
		</g>
		
			<linearGradient id="SVGID_7_" gradientUnits="userSpaceOnUse" x1="807.6633" y1="52.9464" x2="807.6633" y2="52.1254" gradientTransform="matrix(31.543 0 0 55.881 -25167.6836 -2258.5967)">
			<stop  offset="0" style="stop-color:#8DC6D5;stop-opacity:0"/>
			<stop  offset="1" style="stop-color:#377DFF;stop-opacity:0.3"/>
		</linearGradient>
		<path class="st29" d="M298.2,664.7c5.5-4.2,21.9-18.5,26-20.5c-7.1,14.2-13.8,42.8-13.8,55.9c-6.2-4-12.1-8.4-17.8-13.1
			C292.7,674.9,294.5,667.4,298.2,664.7z"/>
	</g>
	
		<linearGradient id="inside_pants_1_" gradientUnits="userSpaceOnUse" x1="1291.6537" y1="60.4365" x2="1291.1937" y2="59.7675" gradientTransform="matrix(34.7099 0 0 101.6208 -44526.0898 -5344.5288)">
		<stop  offset="0" style="stop-color:#221616"/>
		<stop  offset="1" style="stop-color:#503889"/>
	</linearGradient>
	<path id="inside_pants" class="st30" d="M290.9,714.3c-4.8,3.8-9.5,99.5,0,101.5s34.5-20.1,28.2-60.9
		C312.8,714.1,295.8,718.9,290.9,714.3z"/>
	<g id="ankle" transform="translate(96 243)">
		<path class="st31" d="M226,529.5c-10.8,5.6-25.7,3.1-44.5-7.7c-4.6,10.4-7.6,17.7-9,21.8c-6,18.3-4.1,27.8,5.7,28.5
			c13.2,0.9,29.1,1.4,47.8,1.4C236.9,538.6,236.9,523.9,226,529.5z"/>
		<g>
			<g>
				<defs>
					<path id="SVGID_8_" d="M226,529.5c-10.8,5.6-25.7,3.1-44.5-7.7c-4.6,10.4-7.6,17.7-9,21.8c-6,18.3-4.1,27.8,5.7,28.5
						c13.2,0.9,29.1,1.4,47.8,1.4C236.9,538.6,236.9,523.9,226,529.5z"/>
				</defs>
				<clipPath id="SVGID_9_">
					<use xlink:href="#SVGID_8_"  style="overflow:visible;"/>
				</clipPath>
				
					<linearGradient id="Path_4_1_" gradientUnits="userSpaceOnUse" x1="1095.1763" y1="52.6002" x2="1095.0704" y2="53.4302" gradientTransform="matrix(31.1899 0 0 57.5656 -33953.7578 -2499.1611)">
					<stop  offset="0" style="stop-color:#70B8F9;stop-opacity:0"/>
					<stop  offset="1" style="stop-color:#000000"/>
				</linearGradient>
				<path id="Path_4" class="st32" d="M199.2,575c3.9-10-0.5-43-8.7-52.2s30,5.9,30,5.9s-2.4,23.5-5.4,30.2
					C206.3,578.6,197.2,580,199.2,575z"/>
			</g>
		</g>
	</g>
	<g>
		<path class="st24" d="M264.5,756.6c7.3,4.6,14.9,8.7,22.8,12.4c3.8,1.8-7.2,6.4-18.2,21.7c-9.6,13.2,3.9,23.9,0,24.2
			c-5.8,0.5-6.8-1.4-25.2,4.9c-11,3.8-29.8,11-56.4,21.7l0,0c-5.5,2.2-11.9,1-16.2-3c-4-3.7-4.2-9.9-0.6-14c19-21,31-34.3,36-39.7
			c7.5-3.9,15.4-7,23.6-9.4l-6.9-6.4l19.8-21.3C252.1,750.5,259.2,753.4,264.5,756.6z"/>
		<path id="Shape_9" class="st25" d="M215.5,817c2.3,2,9.3,12.5,5,17"/>
		<path id="Shape_9_copy" class="st25" d="M225.5,812c2.3,2,9.3,12.5,5,17"/>
		<path id="Shape_9_copy_2" class="st33" d="M235.5,808c2.3,2,9.3,12.5,5,17"/>
	</g>
	<path id="Mask_Path-4" class="st26" d="M325.4,610.5c-12.4,17.6-16.2,47.4-7.8,67.9c7.4,18.2,36.6,38.2,43,40.9
		c-14.6,0-63.7-2.4-70-4.9c5.7,29.9,34.7,78.1,5.7,101.7c21.2,2.4,204,4.8,223.1,2.4c19-2.4,81.9,7.1,87.4-26
		c5.6-33.1-38.6-78.6-52.6-90s-92.6-60.5-106-75.3C435,612.5,337.8,592.9,325.4,610.5z"/>
	
		<linearGradient id="Mask_Path-5_1_" gradientUnits="userSpaceOnUse" x1="1325.4749" y1="64.7423" x2="1325.7339" y2="65.2943" gradientTransform="matrix(316.7008 0 0 215.9531 -419433.5938 -13344.1787)">
		<stop  offset="0" style="stop-color:#000000;stop-opacity:0.639"/>
		<stop  offset="1" style="stop-color:#000000;stop-opacity:0"/>
	</linearGradient>
	<path id="Mask_Path-5" class="st34" d="M325.4,610.5c-12.4,17.6-16.2,47.4-7.8,67.9c7.4,18.2,36.6,38.2,43,40.9
		c-14.6,0-63.7-2.4-70-4.9c5.7,29.9,34.7,78.1,5.7,101.7c21.2,2.4,204,4.8,223.1,2.4c19-2.4,81.9,7.1,87.4-26
		c5.6-33.1-38.6-78.6-52.6-90s-92.6-60.5-106-75.3C435,612.5,337.8,592.9,325.4,610.5z"/>
	
		<linearGradient id="Mask_Path-6_1_" gradientUnits="userSpaceOnUse" x1="1326.1003" y1="64.7672" x2="1325.8182" y2="65.1022" gradientTransform="matrix(316.7008 0 0 215.9531 -419433.5938 -13344.1787)">
		<stop  offset="0" style="stop-color:#377DFF;stop-opacity:0.5"/>
		<stop  offset="1" style="stop-color:#282828;stop-opacity:0"/>
	</linearGradient>
	<path id="Mask_Path-6" class="st35" d="M325.4,610.5c-12.4,17.6-16.2,47.4-7.8,67.9c7.4,18.2,36.6,38.2,43,40.9
		c-14.6,0-63.7-2.4-70-4.9c5.7,29.9,34.7,78.1,5.7,101.7c21.2,2.4,204,4.8,223.1,2.4c19-2.4,81.9,7.1,87.4-26
		c5.6-33.1-38.6-78.6-52.6-90s-92.6-60.5-106-75.3C435,612.5,337.8,592.9,325.4,610.5z"/>
	
		<linearGradient id="Mask_Path-7_1_" gradientUnits="userSpaceOnUse" x1="1325.802" y1="65.396" x2="1325.802" y2="65.587" gradientTransform="matrix(316.7008 0 0 215.9531 -419433.5938 -13344.1787)">
		<stop  offset="0" style="stop-color:#3D3068;stop-opacity:0"/>
		<stop  offset="1" style="stop-color:#000000;stop-opacity:0.588"/>
	</linearGradient>
	<path id="Mask_Path-7" class="st36" d="M325.4,610.5c-12.4,17.6-16.2,47.4-7.8,67.9c7.4,18.2,36.6,38.2,43,40.9
		c-14.6,0-63.7-2.4-70-4.9c5.7,29.9,34.7,78.1,5.7,101.7c21.2,2.4,204,4.8,223.1,2.4c19-2.4,81.9,7.1,87.4-26
		c5.6-33.1-38.6-78.6-52.6-90s-92.6-60.5-106-75.3C435,612.5,337.8,592.9,325.4,610.5z"/>
	
		<linearGradient id="SVGID_10_" gradientUnits="userSpaceOnUse" x1="1321.6924" y1="49.9509" x2="1322.0425" y2="49.63" gradientTransform="matrix(163.068 0 0 48.6011 -215175.6094 -1685.7383)">
		<stop  offset="0" style="stop-color:#8DC6D5;stop-opacity:0"/>
		<stop  offset="1" style="stop-color:#377DFF;stop-opacity:0.3"/>
	</linearGradient>
	<path class="st37" d="M290.6,714.7c3.8,17.6,22.1,31.7,55,42.4c49.3,16,97.8-4.3,108.1,0c-16.7-5.4-59.1-17.6-93.4-37.6
		C348.4,719.5,325.1,717.9,290.6,714.7z"/>
</g>
<g>
	<path class="st31" d="M412.6,209.2c8.6,10.2,10.2,14.8,19.4,23s22,11.2,25.6,12.5c3.7,1.3-7.4,9.5-3.7,20.2
		c3.7,10.6,11.5,26.3,11.5,30.5s-14.5,11.5-28.3,17.7S421.4,324.5,423,335s3.9,24.1,14.1,30c6.8,4-12.5-3.1-58.1-21.1
		c-19.3-43.3-24.2-78.7-14.5-106C379.1,197,404,199,412.6,209.2z"/>
	<g>
		<g>
			<defs>
				<path id="SVGID_11_" d="M412.6,209.2c8.6,10.2,10.2,14.8,19.4,23s22,11.2,25.6,12.5c3.7,1.3-7.4,9.5-3.7,20.2
					c3.7,10.6,11.5,26.3,11.5,30.5s-14.5,11.5-28.3,17.7S421.4,324.5,423,335s3.9,24.1,14.1,30c6.8,4-12.5-3.1-58.1-21.1
					c-19.3-43.3-24.2-78.7-14.5-106C379.1,197,404,199,412.6,209.2z"/>
			</defs>
			<clipPath id="SVGID_12_">
				<use xlink:href="#SVGID_11_"  style="overflow:visible;"/>
			</clipPath>
			<g id="face-2" class="st38">
				
					<linearGradient id="Path_2_1_" gradientUnits="userSpaceOnUse" x1="390.0175" y1="700.3345" x2="447.7136" y2="700.3345" gradientTransform="matrix(1 0 0 -1 0 1016)">
					<stop  offset="0" style="stop-color:#FFCCB5"/>
					<stop  offset="1" style="stop-color:#D25E13"/>
				</linearGradient>
				<path id="Path_2" class="st39" d="M393.4,287.8c4,4.8,10.7,13.9,19.2,19.1c8,4.8,22.1,5,30.7,5c17.6,0-23.6,32.6-23.6,32.6
					l-26.3-5.3C393.4,339.2,385.7,278.5,393.4,287.8z"/>
				<path class="st40" d="M413.9,236.4c0-3.7,4.6-10.1,8.5-10.1"/>
				<path class="st26" d="M428.7,245.9c1.7-0.4,2.2-2.8,1.2-5.2s-3.1-4.1-4.8-3.6c-1.7,0.4-2.2,2.8-1.3,5.2S427.1,246.4,428.7,245.9
					z"/>
				<path class="st26" d="M453.3,264.8c0.9-0.7,0.8,0.6,1.4,1.8c0.6,1.4,1.2,2.7,1.6,4.2c-3.7,2.8-11.1,1.4-16.2-0.5
					c-1-0.4-2.1-1.7-1.5-2.6c0.6-0.9,1.7-0.6,2.8-0.5C445.2,267.7,451,266.5,453.3,264.8z"/>
			</g>
		</g>
	</g>
	<g id="hand" transform="translate(418 70)">
		<path id="finger" class="st41" d="M189.5,248c-1.3-2.1-2.6-31.9,1-36c3.6-4.1,12.7-9.2,14-8s4.5,7.6,2,9s-7.4,6.3-7,8
			c0.4,1.7,1.1,6.9,3,9S192.6,252.9,189.5,248z"/>
		<g id="pen">
			<path class="st20" d="M233.4,189c2.9-2.5,16.7-9.2,18.2-4c1,3.4-3.6,7.9-13.6,13.3C233,193.8,231.4,190.7,233.4,189z"/>
			<path class="st42" d="M176.3,213.9l57-27.7c3.7-1.8,8.1-0.6,10.4,2.8c2.2,3.3,1.4,7.7-1.9,10l-52.4,37.2
				c-5.8,4.1-13.9,2.8-18-3.1l0,0c-0.2-0.3-0.4-0.6-0.6-0.9c-3.6-6.2-1.6-14.2,4.6-17.8l0,0C175.6,214.3,175.9,214.1,176.3,213.9z"
				/>
		</g>
		
			<linearGradient id="hand-2_1_" gradientUnits="userSpaceOnUse" x1="-243.3602" y1="697.5022" x2="-174.89" y2="697.5022" gradientTransform="matrix(1 0 0 -1 418 946)">
			<stop  offset="0" style="stop-color:#FFCCB5"/>
			<stop  offset="1" style="stop-color:#EDAF85"/>
		</linearGradient>
		<path id="hand-2" class="st43" d="M174.6,281.2c7-8.7,11.4-14.4,13.2-17c1.3-1.9-0.8-14,2-19c2.7-5,4.7-6.6,6.7-9.5
			c0.6-0.9,3.8-5.7,4.7-8.4c2.3-7.2,3-10.6,3.5-14.6c0.7-5.6,15.7-17,17.6-21c1.8-4,6-5.3,8.3,0c2.2,5.3-12.9,19.1-12.9,26.4
			c0,0.4,6.5-9.6,10.5-10.6c3.7,0,3.2,5,4.8,12c1.6,6.8,10.3,15.1,10.3,23.9c0,5.1,0,9.3,0,10.1c-0.1,7.6-27.6,29-33.6,37.5
			c-4,5.7-8.4,11.7-13.1,17.8L174.6,281.2z"/>
	</g>
	<path id="shirt_bottom" class="st20" d="M306.3,611.8c-3.8,16.3-6.4,26.4-7.9,30.1c-2.2,5.6,42.4,12.5,91,12c42-0.4,70.9-5.2,79-11
		c-7.8-7-9.8-13.1-10.8-17.5C449.9,616.4,399.4,611.8,306.3,611.8z"/>
	<path id="colar" class="st20" d="M390.4,328.3c9.8,2.5,32.8,6.1,37.5,6.1c4.7-0.1,12.5,34,12,37s-46.3-13.5-49.5-17.4
		C387.2,350,380.5,325.8,390.4,328.3z"/>
	<path id="Mask_Path-9" class="st6" d="M283.2,609.7c6.9-13.7,54.4-141.3,54.9-170.5s9.2-89.2,34.7-89s78.2,24.3,86.9,30.8
		s16.6,34.4,16.6,49.8c0,7.6,0.1,53.5,0,100.2c-0.1,44.9,14.5,90.5,15.3,92.3C451.3,636.7,293.9,629.9,283.2,609.7z"/>
	<g>
		<g>
			<defs>
				<path id="SVGID_13_" d="M283.2,609.7c6.9-13.7,54.4-141.3,54.9-170.5s9.2-89.2,34.7-89s78.2,24.3,86.9,30.8s16.6,34.4,16.6,49.8
					l0,0c0,5.1,0.1,27,0.1,54.8c0,14.1,0,29.7-0.1,45.3c0,0.2,0,0.4,0,0.5c0,44.7,14.5,90,15.3,91.8c-14.2,4.7-42.9,6.9-74.7,6.9
					C358.6,630.3,290.1,622.8,283.2,609.7z"/>
			</defs>
			<clipPath id="SVGID_14_">
				<use xlink:href="#SVGID_13_"  style="overflow:visible;"/>
			</clipPath>
			<g id="shirt-2" class="st44">
				<path id="Line" class="st45" d="M303,467.5l38,188"/>
				<path id="Line_Copy" class="st45" d="M337,433.5l50,220"/>
				<path id="Line_Copy_2" class="st45" d="M371,383.5l61,282"/>
				<path id="Line_2" class="st45" d="M303,505.5l203,56"/>
				<path id="Line_2_Copy" class="st45" d="M298,561.5l203,56"/>
				<path id="Line_2_Copy_2" class="st45" d="M298,451.5l203,56"/>
				<path id="Line_2_Copy_3" class="st45" d="M298,380.5l203,56"/>
			</g>
		</g>
	</g>
	<path id="shirt_sleeve" class="st20" d="M574.7,365.9c7.3-6.2,17.5-18.4,23.2-25.7c5.7-7.3,37.5,25.9,31.3,34.2
		c-6.2,8.3-18.7,23.8-24.7,28.3C598.4,407.2,567.4,372,574.7,365.9z"/>
	
		<linearGradient id="shirt_bottom_2_" gradientUnits="userSpaceOnUse" x1="298.3617" y1="383.1372" x2="468.4398" y2="383.1372" gradientTransform="matrix(1 0 0 -1 0 1016)">
		<stop  offset="0" style="stop-color:#377DFF;stop-opacity:0.6"/>
		<stop  offset="0.208" style="stop-color:#377DFF;stop-opacity:0.3"/>
		<stop  offset="0.495" style="stop-color:#377DFF;stop-opacity:0.1"/>
		<stop  offset="0.826" style="stop-color:#377DFF;stop-opacity:0.1"/>
		<stop  offset="1" style="stop-color:#377DFF;stop-opacity:0"/>
	</linearGradient>
	<path id="shirt_bottom_1_" class="st46" d="M306.3,611.8c-3.8,16.3-6.4,26.4-7.9,30.1c-2.2,5.6,42.4,12.5,91,12
		c42-0.4,70.9-5.2,79-11c-7.8-7-9.8-13.1-10.8-17.5C449.9,616.4,399.4,611.8,306.3,611.8z"/>
	
		<linearGradient id="colar_2_" gradientUnits="userSpaceOnUse" x1="385.239" y1="666.0592" x2="439.8842" y2="666.0592" gradientTransform="matrix(1 0 0 -1 0 1016)">
		<stop  offset="0" style="stop-color:#377DFF;stop-opacity:0.6"/>
		<stop  offset="0.208" style="stop-color:#377DFF;stop-opacity:0.3"/>
		<stop  offset="0.495" style="stop-color:#377DFF;stop-opacity:0.1"/>
		<stop  offset="0.826" style="stop-color:#377DFF;stop-opacity:0.1"/>
		<stop  offset="1" style="stop-color:#377DFF;stop-opacity:0"/>
	</linearGradient>
	<path id="colar_1_" class="st47" d="M390.4,328.3c9.8,2.5,32.8,6.1,37.5,6.1c4.7-0.1,12.5,34,12,37s-46.3-13.5-49.5-17.4
		C387.2,350,380.5,325.8,390.4,328.3z"/>
	
		<linearGradient id="shirt_sleeve_2_" gradientUnits="userSpaceOnUse" x1="573.6339" y1="644.8724" x2="630.0375" y2="644.8724" gradientTransform="matrix(1 0 0 -1 0 1016)">
		<stop  offset="0" style="stop-color:#377DFF;stop-opacity:0.6"/>
		<stop  offset="0.208" style="stop-color:#377DFF;stop-opacity:0.3"/>
		<stop  offset="0.495" style="stop-color:#377DFF;stop-opacity:0.1"/>
		<stop  offset="0.826" style="stop-color:#377DFF;stop-opacity:0.1"/>
		<stop  offset="1" style="stop-color:#377DFF;stop-opacity:0"/>
	</linearGradient>
	<path id="shirt_sleeve_1_" class="st48" d="M574.7,365.9c7.3-6.2,17.5-18.4,23.2-25.7c5.7-7.3,37.5,25.9,31.3,34.2
		c-6.2,8.3-18.7,23.8-24.7,28.3C598.4,407.2,567.4,372,574.7,365.9z"/>
	<path id="Mask_Path-10" class="st49" d="M427.4,467.6c13.9,9,108.8,35.2,119.4,31.4c10.5-3.9,76.3-83.3,80-91.9s-42.7-56.3-48.2-49
		s-51.4,64.3-56.6,64.3s-60.2-46.1-76.3-48.8s-28,17-31.1,27.3S413.4,458.6,427.4,467.6z"/>
	<g>
		<g>
			<defs>
				<path id="SVGID_15_" d="M427.4,467.6c-10.3-6.7-14.1-34.5-14.1-52.6c0-6.3,0.5-11.4,1.2-14.1c3.1-10.3,15-29.9,31.1-27.3
					s71.2,48.8,76.3,48.8s51-57.1,56.6-64.3c5.3-7,48.4,36.9,48.4,47.9c0,0.4-0.1,0.8-0.2,1.2c-3.7,8.6-69.5,88-80,91.9
					c-1.1,0.3-2.2,0.4-3.3,0.4C523.7,499.4,440.4,476,427.4,467.6z"/>
			</defs>
			<clipPath id="SVGID_16_">
				<use xlink:href="#SVGID_15_"  style="overflow:visible;"/>
			</clipPath>
			<g id="sleeve-2" class="st50">
				<path id="Path_5" class="st45" d="M401.4,419l131.7,45.9l72.1-102.6"/>
				<path id="Line_3" class="st45" d="M433,365.5l45,125"/>
				<path id="Line_3_Copy" class="st45" d="M465,365.5l45,125"/>
				<path id="Line_4" class="st45" d="M518,413.5l47,122"/>
				<path id="Line_5" class="st45" d="M527,406.5l68,70"/>
				<path id="Line_6" class="st45" d="M541,379.5l83,72"/>
				<path id="Line_7" class="st45" d="M555,363.5l91,54"/>
			</g>
		</g>
	</g>
	<path class="st7" d="M393,246.2c19.1-6.2,2.3-32.5,9.1-32.5c2.8,0,14.1-2.2,17-8.3c6.5-13.6-8.4-25.7-45.4-22.8
		c-63.2,4.8-66.6,70.4-61.2,103.2c5.3,32.8-64.7,132.5-42.6,175.2s66.3,26.3,103.9-10.9s27.7-163.5,17.8-169.6
		C381.7,274.4,373.9,252.4,393,246.2z"/>
	<g>
		<g>
			<defs>
				<path id="SVGID_17_" d="M393,246.2c19.1-6.2,2.3-32.5,9.1-32.5c2.8,0,14.1-2.2,17-8.3c6.5-13.6-8.4-25.7-45.4-22.8
					c-63.2,4.8-66.6,70.4-61.2,103.2c5.3,32.8-64.7,132.5-42.6,175.2s66.3,26.3,103.9-10.9s27.7-163.5,17.8-169.6
					C381.7,274.4,373.9,252.4,393,246.2z"/>
			</defs>
			<clipPath id="SVGID_18_">
				<use xlink:href="#SVGID_17_"  style="overflow:visible;"/>
			</clipPath>
			<g id="hair-2" class="st51">
				
					<linearGradient id="Path_3_1_" gradientUnits="userSpaceOnUse" x1="1310.9631" y1="64.4873" x2="1311.4983" y2="64.8373" gradientTransform="matrix(71.4874 0 0 196.1707 -93361.7188 -12300.0449)">
					<stop  offset="0" style="stop-color:#001630;stop-opacity:6.300000e-02"/>
					<stop  offset="1" style="stop-color:#081E41"/>
				</linearGradient>
				<path id="Path_3" class="st52" d="M396.3,283.4c0,12.9-24.6,174.7-46.6,187.3c-22,12.6,68,12.1,68-12.1S396.3,270.6,396.3,283.4
					z"/>
			</g>
		</g>
	</g>
</g>
<g id="brush_1_" transform="translate(786 799)">
	<path class="st5" d="M179.9-8.2c-0.1-0.1-0.2-0.1-0.3-0.2l0.1-0.1l-0.5-0.2c-3.3-2.1-7.1-3.2-10.9-3.5L64-45.6h-0.1
		c-9.8-2.7-21.7,2.2-28.8,12.8c-8.6,12.7-7,28.7,3.5,35.8C39,3.3,39.5,3.6,40,3.9l0.1,0.3c17.9,7.3,56.4,20.7,115.4,40l0.3-0.7
		c10.5,2.1,22.4-2.8,29.3-13.1C194.1,17.1,191.7-0.2,179.9-8.2z"/>
	<path class="st53" d="M163,19.9l27.7,9.2l-58,32.1L75.3,40.7L36.2,60.2"/>
	<path class="st5" d="M64,46.9c-2.3-6.9-7-9.8-14.1-8.6L1,62.7l0.1,0.2c-4.5,2.6-6.2,10.2-3.7,17.9C0.1,88.9,6.2,94.2,11.7,93
		l0.1,0.1l0.4-0.3c0.1,0,0.1,0,0.2,0c1.2-0.4,2.2-1.1,3-2l42.3-26.4C64.1,59.7,66.3,53.8,64,46.9z"/>
</g>
<g id="brush" transform="translate(786 799)">
	
		<linearGradient id="SVGID_19_" gradientUnits="userSpaceOnUse" x1="-250.8495" y1="58.6638" x2="-250.9505" y2="59.2618" gradientTransform="matrix(150.1802 0 0 90.4083 37781.168 -5337.3975)">
		<stop  offset="0" style="stop-color:#66A1FF"/>
		<stop  offset="0.376" style="stop-color:#1E57BC"/>
		<stop  offset="1" style="stop-color:#113984"/>
	</linearGradient>
	<path class="st54" d="M40-2.1c-0.5-0.3-1-0.6-1.4-0.9c-10.5-7.1-12.1-23.1-3.5-35.8c7.1-10.6,19-15.5,28.8-12.8H64l115.7,37.1
		l-24.2,52.7C96.5,18.9,58,5.5,40.1-1.8L40-2.1z"/>
	
		<linearGradient id="SVGID_20_" gradientUnits="userSpaceOnUse" x1="-250.8495" y1="58.6638" x2="-250.9505" y2="59.2618" gradientTransform="matrix(150.1802 0 0 90.4083 37781.168 -5337.3975)">
		<stop  offset="0" style="stop-color:#F4F6FD"/>
		<stop  offset="0.174" style="stop-color:#FFFFFF"/>
		<stop  offset="0.505" style="stop-color:#F3F4FA"/>
		<stop  offset="0.792" style="stop-color:#D9E2F9"/>
		<stop  offset="1" style="stop-color:#B0C3E6"/>
	</linearGradient>
	<path class="st55" d="M40-2.1c-0.5-0.3-1-0.6-1.4-0.9c-10.5-7.1-12.1-23.1-3.5-35.8c7.1-10.6,19-15.5,28.8-12.8H64l115.7,37.1
		l-24.2,52.7C96.5,18.9,58,5.5,40.1-1.8L40-2.1z"/>
	
		<linearGradient id="SVGID_21_" gradientUnits="userSpaceOnUse" x1="-266.9576" y1="52.6237" x2="-266.2566" y2="52.2747" gradientTransform="matrix(53.8342 0 0 56.2052 14526.46 -2943.3054)">
		<stop  offset="0" style="stop-color:#032B67"/>
		<stop  offset="1" style="stop-color:#26529B"/>
	</linearGradient>
	<path class="st56" d="M185.1,24.4c9-13.3,6.6-30.6-5.2-38.6c-11.8-8-28.7-3.7-37.7,9.6S135.6,26,147.4,34S176.2,37.7,185.1,24.4z"
		/>
	<path class="st57" d="M163,13.9l27.7,9.2l-58,32.1L75.3,34.7L36.2,54.2"/>
	
		<linearGradient id="SVGID_22_" gradientUnits="userSpaceOnUse" x1="-262.9203" y1="51.9924" x2="-262.7123" y2="52.4513" gradientTransform="matrix(63.9397 0 0 55.0521 16841.0586 -2813.5376)">
		<stop  offset="0" style="stop-color:#66A1FF"/>
		<stop  offset="0.376" style="stop-color:#1E57BC"/>
		<stop  offset="1" style="stop-color:#113984"/>
	</linearGradient>
	<path class="st58" d="M1,56.7l48.9-24.4C57,31.1,61.7,34,64,40.9c2.3,6.9,0.1,12.8-6.4,17.5L11.7,87.1L1,56.7z"/>
	
		<linearGradient id="SVGID_23_" gradientUnits="userSpaceOnUse" x1="-302.4133" y1="38.8807" x2="-301.4133" y2="38.8807" gradientTransform="matrix(22.2912 0 0 31.1253 6737.3477 -1138.6244)">
		<stop  offset="0" style="stop-color:#032B67"/>
		<stop  offset="1" style="stop-color:#26529B"/>
	</linearGradient>
	<path class="st59" d="M12.3,86.8c5.5-1.8,7.8-10.1,5-18.5s-9.4-13.8-14.9-12s-7.8,10.1-5,18.5S6.7,88.6,12.3,86.8z"/>
</g>
<g>
	<path id="Ellipse_4-2" class="st60" d="M168.2,0c34.2,0,62,27.8,62,62s-27.8,62-62,62s-62-27.8-62-62S134,0,168.2,0z"/>
	<path id="Shape_8" class="st61" d="M169,19.7v44.6l20.4,20.4"/>
</g>
<g id="laptop" transform="translate(1013 589)">
	
		<linearGradient id="SVGID_24_" gradientUnits="userSpaceOnUse" x1="-622.2908" y1="80.0427" x2="-621.9438" y2="80.4747" gradientTransform="matrix(293.8796 0 0 101.653 183016.3594 -7879.9893)">
		<stop  offset="0" style="stop-color:#47689B"/>
		<stop  offset="1" style="stop-color:#223762"/>
	</linearGradient>
	<path class="st62" d="M150.1,332.2l-98.5-43.4c-2.5-1.1-3.7-4.1-2.6-6.6c0.6-1.4,1.8-2.4,3.3-2.8l188.5-48.8l101.6,46.3
		L150.1,332.2z"/>
	
		<linearGradient id="SVGID_25_" gradientUnits="userSpaceOnUse" x1="-622.7785" y1="84.3757" x2="-623.6734" y2="85.3757" gradientTransform="matrix(235.9604 0 0 204.3763 147327.3438 -17124.6191)">
		<stop  offset="0" style="stop-color:#CFDDF3"/>
		<stop  offset="0.474" style="stop-color:#B3C7E9"/>
		<stop  offset="1" style="stop-color:#728FC5"/>
	</linearGradient>
	<path class="st63" d="M380.2,128.4l-178.6,34.4c-5.8,1.1-10.4,5.5-11.7,11.2l-38.5,158.7l183.3-45.6c4.4-1.1,8-4.5,9.3-8.8
		L387.1,136c1-3.2-0.8-6.5-4-7.5C382.1,128.2,381.1,128.2,380.2,128.4L380.2,128.4z"/>
	<path class="st64" d="M282.1,242.8c-8.5,5.6-18.1,6.9-23.1-0.8c-5-7.6,0.9-17.7,9.5-23.4c8.5-5.6,17.1-6.7,22.2,0.9
		C295.6,227.1,290.7,237.1,282.1,242.8z"/>
</g>
</svg>
