<?xml version="1.0" encoding="utf-8"?>
<!-- Generator: Adobe Illustrator 23.0.3, SVG Export Plug-In . SVG Version: 6.00 Build 0)  -->
<svg xmlns="http://www.w3.org/2000/svg" xmlns:xlink="http://www.w3.org/1999/xlink" x="0px" y="0px"
	 viewBox="0 0 1199.1 1186.7" style="enable-background:new 0 0 1199.1 1186.7;" xml:space="preserve">
<style type="text/css">
	.mobile-article-0{fill:#E7EAF3;}
	.mobile-article-1{fill:#1E2022;}
	.mobile-article-2{fill:#00C9A7;}
	.mobile-article-3{fill:none;stroke:#1E2022;}
	.mobile-article-4{fill:#377DFF;}
	.mobile-article-5{fill:#FFFFFF;}
</style>
<path class="mobile-article-0 fill-gray-300" d="M1039.7,467.2l-2.1,64c0,0,22.1-16.7,27.7-21.5c3.9-20-1-52.1-3.8-56.2L1039.7,467.2z"/>
<path class="mobile-article-0 fill-gray-300" d="M938.5,640c14.3,0.5,29.1,0.5,42-0.2c-55.3-62.9-36-220.9-36-229.4l-10.1,3.4c-2.3,22.7-9.9,73.4-20,100.3
	C917.5,530.4,930.6,598.7,938.5,640z"/>
<path class="mobile-article-1 fill-dark" opacity=".2" d="M872.8,576.2l-5.5-11.8l2,26.1l2.7,21.8l1.5,4.4l3,3.3l0.8,4.5l0.8,11.6c0,0,8.8,0.9,21.9,1.9
	c-9.2-20.3-19.2-42.8-27.2-61.9V576.2z"/>
<path class="mobile-article-1 fill-dark" d="M907.8,1009c0,0-54.2,44.7-54.2,50.6s17.5,39.9,21.8,39.9c4.2,0,232-186.1,232-191.8s-81.6-284.4-81.6-284.4
	L907.8,1009z"/>
<path class="mobile-article-3 fill-none stroke-dark" stroke-width="2.5" stroke-linecap="round" stroke-linejoin="round" d="M1037.6,531.2c26.1-15.9,89.2-79.8,93.3-84.8c49.6-12.9,51.8-33.8,51.8-36.9s1.5-13.6-16.3-13.6
	c-15.2,0-97.3,52.9-126.7,71.4"/>
<path class="mobile-article-3 fill-none stroke-dark" stroke-width="2.5" stroke-linecap="round" stroke-linejoin="round" d="M933.4,254.8c-15.1,4.2-27.1,16.1-36.5,33.2"/>
<path class="mobile-article-3 fill-none stroke-dark" stroke-width="2.5" stroke-linecap="round" stroke-linejoin="round" d="M867.1,562.1c1.8,28.6,4.2,48.6,5.4,52.4c1.9,6,10.6,10.3,22.9,13.2"/>
<path class="mobile-article-3 fill-none stroke-dark" stroke-width="2.5" stroke-linecap="round" stroke-linejoin="round" d="M937,632.4c40,1.5,84.5-3.2,88.7-9c6.7-9.4,46.4-307.8-47.6-361.9"/>
<polygon class="mobile-article-4 fill-primary" points="1109.3,410.2 1166.8,374 1199.1,391.8 1140.1,430.3 "/>
<path class="mobile-article-3 fill-none stroke-dark" stroke-width="2.5" stroke-linecap="round" stroke-linejoin="round" d="M862.5,405.8c-2.4,25.9-8,109.2-5.1,128.1c3.3,21.9,69.2,161.7,69.2,161.7l18-23.3c0,0-25.6-134.3-30.3-158.3
	c10.2-26.9,17.8-77.6,20-100.3"/>
<path class="mobile-article-3 fill-none stroke-dark" stroke-width="2.5" stroke-linecap="round" stroke-linejoin="round" d="M947.4,392.5c-0.1,9.3-1.2,15.9-2.9,17.9c-8.1,9-79.7,1.8-86.5-7.7s4.5-116.2,44.7-115.4
	c7.8,0.2,14.4,4.1,19.9,10.5"/>
<path class="mobile-article-3 fill-none stroke-dark" stroke-width="2.5" stroke-linecap="round" stroke-linejoin="round" d="M933.4,209.5v61.3c0,4.2,11.2,6.5,22.4,6.5"/>
<path class="mobile-article-3 fill-none stroke-dark" stroke-width="2.5" stroke-linecap="round" stroke-linejoin="round" d="M978.1,261.5v-23.1"/>
<path class="mobile-article-3 fill-none stroke-dark" stroke-width="2.5" stroke-linecap="round" stroke-linejoin="round" d="M1008.4,166c1.8,35.1-11.2,65.1-30.3,72.4"/>
<path class="mobile-article-3 fill-none stroke-dark" stroke-width="2.5" stroke-linecap="round" stroke-linejoin="round" d="M933.4,209.6c-0.5-1.2-1-2.4-1.5-3.6"/>
<path class="mobile-article-3 fill-none stroke-dark" stroke-width="2.5" stroke-linecap="round" stroke-linejoin="round" d="M914.8,190.4c-11.5-6-22.5-21.1-22.5-34.4c0-18,23-19,23-36c0-4,4-39,32-39c9,0,16,4,32,4c27,0,31-12,48-12
	c9,0,26,8,26,25c0,10-3,18-3,25c0,8,4,16,4,23c0,17-25,23-30,23"/>
<path class="mobile-article-3 fill-none stroke-dark" stroke-width="2.5" stroke-linecap="round" stroke-linejoin="round" d="M931.7,206c-5.8,0-10.5-4.7-10.5-10.5s4.7-10.5,10.5-10.5"/>
<path class="mobile-article-3 fill-none stroke-dark" stroke-width="2.5" stroke-linecap="round" stroke-linejoin="round" d="M1.3,938.3c0,80.7,104,112,167.1,181c9.1,10,47.4,46.4,47.4,66.1h61.8c5.1,0,24.9-54.7,24.9-118.9
	c0-72.8-61.4-171.1-67.1-198.5c-9.3-44.2-26.1-153.2-87.6-153.2c-37.4,0-54.4,26.2-61.7,51.3c0.7-0.1,1.3-0.1,2-0.1
	c15.2,0,27.5,8.8,27.5,19.7s-12.3,19.7-27.5,19.7c-2.3,0-4.6-0.2-6.9-0.6c1.9,34.1,25,87.1,25,101.4c0,8.4-2.3,17.2-10.7,17.2
	c-21.7,0-25.2-34.5-57.3-34.5C5.7,888.8,1.2,920.5,1.3,938.3z"/>
<path class="mobile-article-3 fill-none stroke-dark" stroke-width="2.5" stroke-linecap="round" stroke-linejoin="round" d="M996.9,191.6c-2.7-3.3-3.6-10.8-3.6-14.9"/>
<path class="mobile-article-3 fill-none stroke-dark" stroke-width="2.5" stroke-linecap="round" stroke-linejoin="round" d="M985.1,205.9c-5.3,0-7.7-5.9-7.7-8.9"/>
<ellipse cx="982.7" cy="176.9" rx="1.9" ry="3.2"/>
<path class="mobile-article-1 fill-dark" d="M895,626.7c-9.7-2.7-16.5-5.6-19.7-7.9l25.4,504.9l0.2,2.7h43.8c0,0,75.6-458.7,81-503
	c-28.8,8.1-58.7,11.4-88.5,9.8l7.5,39.1l-18,23.3C926.7,695.6,911.3,663,895,626.7z"/>
<path class="mobile-article-5 fill-white" opacity=".05" d="M895,626.7c-9.7-2.7-16.5-5.6-19.7-7.9l25.4,504.9l0.2,2.7h43.8c0,0,75.6-458.7,81-503
	c-28.8,8.1-58.7,11.4-88.5,9.8l7.5,39.1l-18,23.3C926.7,695.6,911.3,663,895,626.7z"/>
<polyline class="mobile-article-3 fill-none stroke-dark" stroke-width="2.5" stroke-linecap="round" stroke-linejoin="round" points="929.9,1124.4 929.9,1156.7 990.7,1184 906.5,1184 906.5,1126.4 "/>
<polyline class="mobile-article-3 fill-none stroke-dark" stroke-width="2.5" stroke-linecap="round" stroke-linejoin="round" points="870.4,1082.7 842.8,1099.3 850.9,1165.5 807.3,1093.5 856.6,1063.6 "/>
<path class="mobile-article-2 fill-success" d="M375.9,932.8c0-5.5,12.6-10.1,28.4-10.3c0.3-1.1,0.5-2.2,0.7-3.4c-16.1-0.1-29.1-4.6-29.1-10.3
	s13.3-10.3,29.7-10.3c1.2,0,2.4,0.1,3.6,0.1c6.3-34.2,9.5-68.9,9.6-103.7c0-11.5-2.6-25.5-8-25.5c-34.1,0-89.9,102.4-130.7,202.2
	c12.4,31.5,22.4,65.1,22.4,94.6c0,54.3-14.1,101.8-21.6,115.2c37.3-42.8,90.4-129.6,118.6-238.8C386,941.8,375.9,937.7,375.9,932.8z
	"/>
<path class="mobile-article-3 fill-none stroke-dark" stroke-width="2.5" stroke-linecap="round" stroke-linejoin="round" d="M302.4,1066.4c0-72.8-61.4-171.1-67.1-198.5c-9.3-44.2-26.1-153.2-87.6-153.2"/>
</svg>
