<?xml version="1.0" encoding="utf-8"?>
<!-- Generator: Adobe Illustrator 23.0.3, SVG Export Plug-In . SVG Version: 6.00 Build 0)  -->
<svg xmlns="http://www.w3.org/2000/svg" xmlns:xlink="http://www.w3.org/1999/xlink" x="0px" y="0px"
	 viewBox="0 0 1063.3 861.9" style="enable-background:new 0 0 1063.3 861.9;" xml:space="preserve">
<style type="text/css">
	.person-with-gallery-0{fill:#19A0FF;}
	.person-with-gallery-1{fill:#377DFF;}
	.person-with-gallery-2{fill:#2B44FF;}
	.person-with-gallery-3{fill:#FFFFFF;}
	.person-with-gallery-4{fill:#C5CFD6;}
	.person-with-gallery-5{fill:none;stroke:#CBCBCB;stroke-width:8;stroke-miterlimit:10;}
	.person-with-gallery-6{fill:#AFB9C5;}
	.person-with-gallery-7{fill:#F2F2F2;}
	.person-with-gallery-8{fill:#B28B67;}
	.person-with-gallery-9{fill:#191847;}
	.person-with-gallery-10{fill:#997659;}
	.person-with-gallery-11{fill:#E4E4E4;}
	.person-with-gallery-12{fill:#DB2721;}
	.person-with-gallery-13{fill:#FF4133;}
	.person-with-gallery-14{fill:#2026A2;}
	.person-with-gallery-15{fill:#1F28CF;}
	.person-with-gallery-16{opacity:0.2;}
</style>
<g>
	<g>
		<path id="Thi_Succs_" class="person-with-gallery-0" d="M846.4,543.2c8.8,21,23.8,35.6,31.8,57.4c4.7,12.9,6.7,27,6.8,41.4
			c0.1,7.8-0.1,15.7-0.1,23.5c0,7.6-0.2,15.2-0.9,22.8c-0.7,7.6-1.4,15.2-1.7,22.8c-0.3,6-0.4,12.9-2.4,18.4c-1.6,4.3-5.7,5-6.8-0.3
			c-0.5-3-0.6-6.1-0.5-9.2c0.1-3.9,0.3-7.7,0.4-11.6c0.5-15.5-0.1-30.9,0.2-46.4c0.3-15.1,2.2-30.2,0.1-45.2
			c-1.8-12.4-6.3-23.1-11.5-33.3c-5-9.8-10.4-19.4-13.8-30.6c-1-3.3-1.7-6.6-2.1-10C846.2,543,846.3,543,846.4,543.2z"/>
		<path id="Thi_Succs_2" class="person-with-gallery-1" d="M844,584.6c1.7,1.3,2.7,3.1,3.9,4.9c1.5,2.3,3.2,4.3,4.7,6.6c3.1,4.7,5.8,9.7,8.5,14.7
			c5.4,9.3,9.3,19.5,11.3,30.1c2.1,11.2,2.6,22.8,3.5,34.1c0.9,12,1.8,24.2,2,36.3c0.1,5.4,0.3,11.2-0.3,16.5
			c-0.4,3.3-1.9,6.2-5.3,6.2c-7.2-0.1-10.6-8.1-12.1-14.6c-2.1-9.7-2.5-20-2.2-29.9c0.4-11.9,2.5-23.7,3.4-35.6
			c0.9-12.6,0.4-25-3.9-36.8c-2.2-6-4.7-11.8-7-17.8c-0.8-2.6-1.9-5.1-3.1-7.5c-1.5-2.6-3.3-5-4.4-7.8L844,584.6z"/>
		<path id="Thi_Succs_3" class="person-with-gallery-0" d="M927.4,559.5l0.7-0.5c-0.7,2.5-1.6,4.9-2.7,7.3c-0.7,2.3-1.3,4.7-1.7,7.1
			c-1.3,5.7-2.7,11.2-3.9,17c-2.3,11.3-1.9,23.6-0.4,36.1c1.5,11.9,3.8,23.7,4.8,35.6c1,9.8,1.2,19.6,0.4,29.4
			c-0.6,6.4-2.5,14-7.8,13.4c-2.5-0.3-3.8-3.3-4.3-6.6c-0.8-5.4-1-11.1-1.3-16.4c-0.7-12-0.9-23.9-1-35.8
			c-0.1-11.2-0.5-22.6,0.2-33.5c0.7-9.8,2.8-19.5,6.2-28.8c1.7-4.6,3.3-9.3,5.2-13.7c0.9-2.1,2-4,2.9-6.1
			C925.6,562.3,926.2,560.6,927.4,559.5z"/>
		<path id="Thi_Succs_4" class="person-with-gallery-0" d="M846.2,619.3c1-1.6,3.1,3.7,3.4,4.4c-0.1-0.3-0.3-0.7-0.4-1c2,3.1,3.6,6.5,4.7,10.1
			c1.1,3.6,2,7.2,3,10.9c1.9,6.8,4.3,13.4,6,20.2c1.6,6.6,2.2,13.4,1.7,20.1c-0.5,7.2-0.6,14.4-0.2,21.6c0.2,3.4,1.3,6.6,2.1,9.9
			c0.8,3.3,1.4,6.6,2.3,9.9c0.2-0.4,0.2,1,0.2,1.1c0,0.8-0.1,1.5-0.4,2.3c-0.5,2-1.9,3.5-3.8,4.2c-3.5,1-6.7-2.2-7.8-5.5
			c-1.5-4.9-2.6-9.9-3.2-15c-0.7-4.6-0.9-9.2-0.7-13.9c0.4-9.2,2.1-18.2,2.5-27.4c0.5-10-1.5-19.4-3.1-29.1
			c-0.7-4.7-1.7-9.3-3.1-13.8c-0.6-1.7-1.4-3.4-2.3-5.1C846.6,622.1,845.6,620.4,846.2,619.3z"/>
		<path id="Thi_Succs_5" class="person-with-gallery-2" d="M874.3,603.7c-0.4,11.4-1.1,22.8-2.6,34.1c-1.6,11.6-3.3,23.1-4.8,34.6
			c-1.5,11.3-3,22.7-2.8,34.1c0.1,8.4-1.2,22.6,8.1,26.8c9.5,4.2,11.5-13.7,12.1-19.7c1.2-11.4,0.8-22.9,0.2-34.3
			c-0.6-11.7-1.6-23.4-2.8-35.1c-1.4-13-2.4-26-3.3-39c-0.4-6.4-0.5-12.9-0.4-19.3c0.1-6.1-0.1-12.2-2.3-18l-0.3,0.2"/>
		<path id="Thi_Succs_6" class="person-with-gallery-1" d="M923.1,640c-1.7,2.5-3.4,4.9-5,7.6c-2.9,4.7-5.5,9.9-6.3,16.6c-1.6,14.1-0.3,29.2,0,43.7
			c0.1,3-0.3,5.8,0.9,8.6c1.1,2.6,3,4.5,4.9,4.5c4,0,3.4-9.9,3.4-14.3c0-7.6-0.8-15.3-0.8-22.9c0-7.5,0.6-14.9,1.6-22.3
			c1-7,2.7-14,4.9-20.7c0.3-0.9,2.4-7.9,0.4-6.7"/>
		<path id="Thi_Succs_7" class="person-with-gallery-2" d="M905.3,565c-2.7,0-2.6,13.2-2.7,14.9c-0.3,6.1-0.2,12.3-0.4,18.4
			c-0.4,13.4-0.9,26.9-2.9,40.1c-1.1,7.1-2.3,14.2-3.7,21.3c-1.4,7.1-3.2,14.2-4.1,21.3c-0.9,6.9-0.4,13.9-0.3,20.9
			c0,7,0.4,13.9,1.2,20.9c0.2,1.7,0.5,3.4,0.8,5.1c0.1,1.5,0.2,3,0.5,4.5c0.6,2.2,3.4,2.9,5.2,2.5c5-0.9,8.2-7.2,9.9-11.8
			c2.2-5.8,3.3-12.2,4.5-18.4c1.3-7,2.1-14.1,2.4-21.2c0.7-14.4-0.2-28.9-1.2-43.3c-0.6-8-1.2-16-2.3-23.9c-1-7.9-2.3-15.8-3.2-23.8
			c-0.6-5.8-1.2-11.6-1.6-17.4C907.4,573.9,907.3,565,905.3,565"/>
		<path id="Thi_Succs_8" class="person-with-gallery-1" d="M902,661.1c-0.4-13.9-6-74.9-7.3-91.7c-0.3-4.2-3.4-21.7-3.8-26.5c-1.1,1.3-1,22.3-1,27.1
			s-0.6,9.4-0.9,14.2s-7.5,67.3-8.4,71.9c-1.8,9.2-3.1,18.7-4,28.2c-0.9,9.2-2.4,18.9-1.1,28.2c0.3,2.1,0.8,4.2,1.5,6.2
			c0.8,2.1,1.3,4.1,2,6.3c1,3.6,2.9,6.7,5.7,8.2c5.8,3,9-3.8,10.6-9.8c2.5-9.5,4.2-19.3,4.9-29.1C901.1,683.3,902.3,672.3,902,661.1
			"/>
	</g>
	<g id="Planter" transform="translate(0 159)">
		<path id="Vase" class="person-with-gallery-3" d="M842,543h87c1.1,0,2,0.9,2,2v87c0,1.1-0.9,2-2,2h-87c-1.1,0-2-0.9-2-2v-87
			C840,543.9,840.9,543,842,543z"/>
		<path id="Leg" class="person-with-gallery-4" d="M832,553h6c1.1,0,2,0.9,2,2v109c0,1.1-0.9,2-2,2h-6c-1.1,0-2-0.9-2-2V555
			C830,553.9,830.9,553,832,553z"/>
		<path id="Leg-2" class="person-with-gallery-4" d="M882,553h6c1.1,0,2,0.9,2,2v109c0,1.1-0.9,2-2,2h-6c-1.1,0-2-0.9-2-2V555
			C880,553.9,880.9,553,882,553z"/>
		<path id="Leg-3" class="person-with-gallery-4" d="M933,553h6c1.1,0,2,0.9,2,2v109c0,1.1-0.9,2-2,2h-6c-1.1,0-2-0.9-2-2V555
			C931,553.9,931.9,553,933,553z"/>
	</g>
</g>
<g id="Lamp" transform="translate(716.945 244.471)">
	<path id="Body" class="person-with-gallery-5" d="M21.1-195.1l60.1-40.3c10.2-6.8,26.4-6.8,36.6,0l159.9,107.2c9.8,6.5,15.2,15.3,15.2,24.6v710.1"/>
	<path id="Lamp_Base" class="person-with-gallery-6" d="M242.9,604.5h98c3.1,0,5.5,2.4,5.5,5.5v1.8c0,3.1-2.4,5.5-5.5,5.5h-98c-3.1,0-5.5-2.4-5.5-5.5
		V610C237.3,607,239.9,604.5,242.9,604.5z"/>
	<g id="Lamp_Top" transform="translate(47.066 0) rotate(45)">
		<path id="Lamp-2" class="person-with-gallery-4" d="M-160.7-153.2L-160.7-153.2c33.6,0,61,27.4,61,61v51.7l0,0h-122l0,0v-51.7
			C-221.7-125.9-194.5-153.2-160.7-153.2z"/>

			<ellipse id="Lamp-3" transform="matrix(1.014073e-05 1 -1 1.014073e-05 -202.7184 118.069)" class="person-with-gallery-7" cx="-160.4" cy="-42.3" rx="12" ry="61"/>
	</g>
</g>
<g>
	<g id="Head" transform="translate(48.06 27.507)">
		<path id="Head-2" class="person-with-gallery-8" d="M128,375.9l4.1-56.7c-7.6-6.8-13.5-15.6-14.3-26.3c-2.1-30.9,41.4-30.1,52-15.9
			c10.4,14.3,14.9,53.4,4.7,57.8c-4.1,1.6-13.6,0.3-23.7-4.1l11.5,40.3L128,375.9z"/>
	</g>
	<path id="hair" class="person-with-gallery-9" d="M201.9,289.6c-4.9-0.6-9.7-0.5-14.6,0.5c1.1-4.2,1.1-8.6,0-12.7c-1.3-3.9-3.2-7.5-5.7-10.7
		c-1-1.6-2.1-3.1-3.7-4.2c-1.5-1.1-3.4-1.8-5.2-1.9c-1.9-0.2-3.7,0.2-5.5,0.8c-0.8,0.3-1.5,0.8-2.3,1.1s-1.3-0.2-1.9-0.5
		c-1.8-1-3.7-1.5-5.7-1.3c-2.1,0-4.1,0.6-6,1.6c-1.8,1-3.4,2.3-4.5,3.9c-0.5,0.8-1,1.6-1.1,2.6c-0.2,0.3-0.2,0.6-0.5,0.8
		c-0.3,0.2-0.6,0.2-1,0.3c-3.1,1.6-5.5,4.4-6.5,7.8c-0.6,2.9-0.6,6,0,9.1c0.6,3.7,5.4,12.8,8.9,15.9c3.4,2.6,7.5,4.2,11.7,4.5
		c-2.1,3.4-3.6,7.3-4.2,11.4c-0.8,4.4-1.1,8.8-0.8,13.2c0.2,4.2,1,8.4,2.4,12.5c1.3,3.6,3.9,6.5,7.5,8.1c1.6,0.6,3.2,1.1,5,1.6
		c1.6,0.5,3.4,0.6,5,0.8c3.2,0.2,6.8-0.5,8.9-3.2c0.8-1.1,1.5-2.3,2.1-3.6c0.2-0.5,0.3-0.6,0-1.1c-0.5-0.3-1-0.6-1.5-1
		c-2.8-1.6-4.7-4.4-5.5-7.5c-0.8-3.2-0.5-7.8,2.4-9.6c3.7-2.4,8.4-1,12.3,0.5c0.5-5.5,3.4-10.6,7.8-14c5-3.4,11.2-4.7,16.4-7.8
		c1.5-0.8,2.6-1.8,3.6-3.1c0.5-0.6,0.8-1.3,0.8-2.1c0-0.8-0.5-1.6-1.1-2.3C216.9,296.6,206.8,290.5,201.9,289.6z"/>
	<path id="Leg_1_" class="person-with-gallery-10" d="M181.3,516.9l103.5,179l77.7,151.4h16.7l-130-330.4H181.3z"/>
	<path id="shoe" class="person-with-gallery-11" d="M356.1,838.3c-1.5-0.5-3.1,0.3-3.6,1.8v0.2l-2.6,9.4c0.2,3.7,0.6,7.5,1.3,11.2h78.5
		c0,0,3.1-10.2-3.6-11c-6.7-0.8-10.9-1.5-10.9-1.5l-36.6-16.4c-0.6-0.3-1.5,0-1.8,0.6l0,0l-2.3,5.7c0,0-6.2,2.9-9.9,2.9L356.1,838.3
		z"/>
	<path id="Pant" class="person-with-gallery-12" d="M340.8,823.1l32.2-10.1c0,0-21.1-65.5-52-144.3s-66-151.9-66-151.9h-91c0,0,39.2,92.6,83.2,168.3
		C275.5,733.1,306.7,779.1,340.8,823.1z"/>
	<path id="Leg-2_1_" class="person-with-gallery-8" d="M174.6,516.9c-9.7,62.9-28.6,143.3-30.4,145.9c-1.1,1.6-43.9,16.4-128,44.3l3.6,15.3
		c100.4-14.9,153.2-26.6,158.6-34.9c8.1-12.3,48.6-110.3,64.2-170.6L174.6,516.9L174.6,516.9z"/>
	<path id="Pant-2" class="person-with-gallery-13" d="M45.8,693.8l6.3,24.5c75.1,6.8,121,1.9,137.9-14.8s36.2-79,57.8-186.8h-86.8
		c-13.6,88.4-21.4,134.3-23.1,138.1C136.5,658.7,105.8,671.6,45.8,693.8z"/>
	<path id="shoe-2" class="person-with-gallery-11" d="M22.9,704.4c0.3-1.6-0.8-3.1-2.4-3.2c0,0,0,0-0.2,0l-9.7-1C7,701,3.4,702.1,0,703.4l13.6,80.1
		c0,0,10.6,1.3,10.1-5.5c-0.5-6.8-0.5-11.4-0.5-11.4l9.7-40.1c0.2-0.8-0.3-1.6-1-1.8l0,0l-6-1.3c0,0-3.9-5.7-4.5-9.6L22.9,704.4z"/>
	<path id="Skin" class="person-with-gallery-10" d="M324.7,436l20.1-14.9c0,0,2.1-18,8.4-19c1.5-1,1.3,2.4,1.6,5.8c0.2,3.2,0.8,6.7,3.9,5.5
		c6-2.1,19.5-15.4,22.4-13.6c4.4,2.8,2.3,13.6-1,19.3c-6.2,10.7-12,14.8-27,21.3c-11.7,5-24.4,17.2-24.4,17.2L324.7,436z M243.8,424
		l45.8-34.1c5.8-9.6,13-18.5,21.1-26.2c2.3-1.3,6.5-2.6,3.4,5c-2.9,7.6-5.8,15.9-3.4,17.7c1,0.8,2.4,0.6,4.1,0.3
		c1.9-0.3,4.2-0.6,5.8,1.1c1.9,2.1-6.2,7.3-24.4,15.1l-31.4,38L243.8,424z"/>
	<path id="Sleeve" class="person-with-gallery-14" d="M218.8,421.4c23.1-3.4,44.8-13.3,62.5-28.8l12.7,20.3c-14.6,19.3-36.7,36.6-57.7,39
		C219.6,453.7,208.4,434.9,218.8,421.4z"/>
	<path id="Clothes" class="person-with-gallery-15" d="M195.3,576.1c-17.7,0.2-34.3,0.2-43.5,3.4c-23.6-50.2,4.7-75.9,0-109.5
		c-5.2-36.7,16.4-97.5,20.8-98.1l39.6-5.5c6.2,27.8,21.4,57.2,34.8,86.4c29.7,2.4,90.5-29.2,90.5-29.2s20.8,31.2,21.6,45.5
		c-34.4,24.7-65.3,37.9-91.5,42.1c3.1,15.4,3.2,30.5-1.3,45c-3.4,10.9-16.1,15.8-32.3,18C222.2,575.7,208.4,575.9,195.3,576.1z"/>
	<path id="Fill_35" class="person-with-gallery-4" d="M379.2,368.8L379.2,368.8L379.2,368.8"/>
	<path id="Fill_37" class="person-with-gallery-4" d="M379.2,368.8L379.2,368.8L379.2,368.8"/>
	<path id="Fill_39" class="person-with-gallery-4" d="M379.3,368.6C379.3,368.6,379.2,368.6,379.3,368.6L379.3,368.6
		C379.2,369.1,379.2,368.8,379.3,368.6"/>
	<path id="Fill_41" class="person-with-gallery-4" d="M379.2,368.6L379.2,368.6C379.2,368.8,379.2,368.6,379.2,368.6"/>
	<path id="Fill_43" class="person-with-gallery-4" d="M379.2,368.8"/>
	<path id="Fill_45" class="person-with-gallery-4" d="M379.2,368.8L379.2,368.8"/>
	<path id="Fill_47" class="person-with-gallery-4" d="M379.2,368.8C379.2,368.8,379.3,368.6,379.2,368.8"/>
	<path id="Fill_49" class="person-with-gallery-4" d="M379.2,368.8L379.2,368.8L379.2,368.8"/>
	<path id="Photo_Background" class="person-with-gallery-2" d="M285.3,302.2l145.1-36.2c3.4-0.8,7,1.3,7.8,4.7l22.7,91.5c0.8,3.4-1.3,7-4.7,7.8
		l-145.1,36.2c-3.4,0.8-7-1.3-7.8-4.7L280.6,310C279.6,306.5,281.7,303,285.3,302.2z"/>
	<g id="icons8-night_landscape" transform="translate(9.058 20.093)" class="person-with-gallery-16">
		<path id="Mountains" d="M336.9,299.1l-27,85.5l91-22.7L336.9,299.1z"/>
		<path id="Mountains-2" d="M388.7,307.2l-26.6,64.3l80.4-20L388.7,307.2z"/>
	</g>
	<circle id="Sun" class="person-with-gallery-3" cx="411.5" cy="308.8" r="15.4"/>
</g>
</svg>
