<?xml version="1.0" encoding="utf-8"?>
<!-- Generator: Adobe Illustrator 24.1.1, SVG Export Plug-In . SVG Version: 6.00 Build 0)  -->
<svg version="1.1" id="Layer_1" xmlns="http://www.w3.org/2000/svg" xmlns:xlink="http://www.w3.org/1999/xlink" x="0px" y="0px"
	 viewBox="0 0 1141.7 567.1" style="enable-background:new 0 0 1141.7 567.1;" xml:space="preserve">
<style type="text/css">
	.st0{opacity:0.5;}
	.st1{fill:#BDC5D1;}
	.st2{fill:#97A4AF;}
	.st3{opacity:0.5;fill:#97A4AF;enable-background:new    ;}
	.st4{opacity:0.5;fill:url(#shadow-5_1_);enable-background:new    ;}
	.st5{opacity:0.5;fill:url(#shadow-6_1_);enable-background:new    ;}
	.st6{fill:#EDAF85;}
	.st7{clip-path:url(#SVGID_2_);}
	.st8{opacity:0.5;fill:#EDAF85;enable-background:new    ;}
	.st9{fill:url(#Path_90_1_);}
	.st10{fill:none;stroke:#FFFFFF;stroke-width:1.9992;stroke-linecap:round;stroke-miterlimit:9.9961;}
	.st11{fill:url(#Path_90-2_1_);}
	.st12{fill:none;stroke:#FFFFFF;stroke-width:1.9996;stroke-linecap:round;stroke-miterlimit:9.9979;}
	.st13{fill:url(#Mask-11_1_);}
	.st14{opacity:0.5;clip-path:url(#SVGID_4_);fill:#A1B8E3;enable-background:new    ;}
	.st15{opacity:0.5;clip-path:url(#SVGID_4_);fill:url(#Path_6_1_);enable-background:new    ;}
	.st16{opacity:0.5;clip-path:url(#SVGID_6_);}
	.st17{fill:none;}
	.st18{fill:#DB8A53;}
	.st19{fill:url(#hair_1_);}
	.st20{fill:url(#sleeve_1_);}
	.st21{fill:#D6E3FA;}
	.st22{opacity:0.5;clip-path:url(#SVGID_8_);fill:url(#Path_4_2_);enable-background:new    ;}
	.st23{opacity:0.5;clip-path:url(#SVGID_8_);fill:url(#Path_11_1_);enable-background:new    ;}
	.st24{fill:#E1ECFF;}
	.st25{opacity:0.5;fill:#E29460;enable-background:new    ;}
	.st26{clip-path:url(#SVGID_10_);}
	.st27{opacity:0.2;fill:none;stroke:#223762;stroke-width:2;stroke-linecap:round;stroke-miterlimit:10.0002;}
	.st28{fill:url(#Path_85_1_);}
	.st29{fill:#09385B;}
	.st30{stroke:#FFFFFF;stroke-width:4;stroke-miterlimit:10;}
	.st31{fill:#1E2022;}
	.st32{display:none;fill:url(#Mask_Path-2_1_);}
	.st33{fill:url(#Mask_Path-3_1_);}
	.st34{fill:url(#SVGID_11_);}
	.st35{fill:url(#inside_pants_1_);}
	.st36{opacity:0.6;clip-path:url(#SVGID_13_);fill:url(#Path_4_3_);enable-background:new    ;}
	.st37{fill:none;stroke:#FFFFFF;stroke-width:4;stroke-linecap:round;stroke-linejoin:round;stroke-miterlimit:10;}
	.st38{fill:url(#Mask_Path-5_1_);}
	.st39{fill:url(#Mask_Path-6_1_);}
	.st40{fill:url(#Mask_Path-7_1_);}
	.st41{fill:url(#SVGID_14_);}
	.st42{clip-path:url(#SVGID_16_);}
	.st43{fill:url(#Path_2_1_);}
	.st44{fill:none;stroke:#1E2022;stroke-width:3;stroke-miterlimit:10;}
	.st45{fill:#346CC7;}
	.st46{fill:#FFFFFF;}
	.st47{fill:#223762;}
	.st48{fill:url(#hand-2_1_);}
	.st49{fill:#377DFF;}
	.st50{clip-path:url(#SVGID_18_);}
	
		.st51{opacity:0.2;fill:none;stroke:#FFFFFF;stroke-width:3;stroke-linecap:square;stroke-miterlimit:10;enable-background:new    ;}
	.st52{fill:url(#shirt_bottom_2_);}
	.st53{fill:url(#colar_3_);}
	.st54{fill:url(#shirt_sleeve_2_);}
	.st55{fill:#236CE2;}
	.st56{clip-path:url(#SVGID_20_);}
	.st57{fill:#21325B;}
	.st58{clip-path:url(#SVGID_22_);}
	.st59{fill:url(#Path_3_2_);}
</style>
<g>
	<g id="Cells" transform="translate(100.086 99.66)" class="st0">
		<path id="Fill_5" class="st1" d="M-28.4-12.9c-1.6,1.6-1,7.2-1,9.2c-0.1,3.2,0.1,6.4,0.4,9.6c0.2,2.1,1.2,22.6,4,21
			c1.6-0.9,0.6-6.8,0.6-8.7c0-4.2-0.2-8.3-0.5-12.5c-0.2-3.7-0.3-7.6-0.2-11.4C-25.1-6.7-24.2-17.2-28.4-12.9"/>
		<path id="Fill_7" class="st1" d="M40.1-15.4c-13.5,0.1-27,0.8-40.5,1.2c-6.5,0.2-13,0.4-19.5,0.8c-2.2,0.1-7-0.6-8.8,0.5
			c-4.1,2.6,2.5,3.2,4.3,3.2c26.7-1,53.5-2.2,80.2-2.3c13.1,0,26.2,0.3,39.4,0.3c5,0,10.6-2.2,11.8,3.6c1.4,6.6-0.2,13.9-0.7,20.5
			c-0.2,4.4-0.2,8.8,0,13.2c0.1,2.8-0.2,6,0.3,8.8c0.5,2.7,2.4,4.3,4.2,1.3c1.1-1.8,0.5-6.2,0.6-8.3c0.1-2.8,0-5.6,0-8.4
			c0-6.8,1-13.6,0.8-20.4c-0.1-4.4-0.3-12.4-5.9-13.4c-6.1-1.2-13.6,0-19.9-0.1C71-15.1,55.6-15.6,40.1-15.4"/>
		<path id="Fill_9" class="st1" d="M2.9,27.2c-5.1,0-10.2,0-15.3,0.1c-4.4,0.1-11.3-0.8-15.3,0.7c-2.8,1.1-3.5,4.2,0,5
			c3.8,0.9,9.6-0.5,13.6-0.6c20.2-0.4,40.5-0.8,60.7,0.5c18.9,1.2,38.1,2.4,57,1.1c1.6-0.1,9.7-0.4,6-3.5
			c-2.2-1.8-10.9-0.6-13.7-0.7c-9.9-0.3-19.8-0.4-29.7-0.7c-9.8-0.4-19.5-1.5-29.2-1.7C25.6,27,14.2,27.2,2.9,27.2"/>
		<path id="face" class="st1" d="M-1.3,21.3L-1.3,21.3c-6.9,0-14.4-3.3-15.7-10.7c-0.1-0.4-0.1-0.9,0-1.3c0-0.5,0-0.9-0.1-1.4
			c-0.1-0.3-0.2-0.6-0.4-0.8C-17.8,6.8-17.9,6.4-18,6c0-2,1.2-3.1,2.5-4.4c0.5-0.5,1-1,1.5-1.5C-11.3-3-9.6-4.6-6-6
			c1.1-0.4,2.3-0.6,3.4-0.6c3.7,0.2,7.2,1.5,10,3.9c3.1,2.4,5.3,5.5,6,8.4c0.7,3.1,0.1,6.4-1.7,9.1c-2,3.1-5.1,5.2-8.7,6
			C1.6,21.2,0.1,21.3-1.3,21.3z M-12.1,5.4L-12.1,5.4c-1,2.5-0.8,5.3,0.8,7.5c2,2.9,6,4.7,10.1,4.7c2.4,0,4.7-0.6,6.7-2
			c2.8-1.8,4.1-5.3,3-8.5C7.1,2.4,2.3-1.6-2.3-1.8c-0.3,0.3-0.6,0.4-1,0.5c-0.1,0-0.3,0-0.4-0.1l0,0C-3.8-1.5-4-1.5-4.1-1.5
			s-0.2,0-0.3,0c-1.2,0.5-2.4,1.2-3.4,2L-8,0.7l-0.3,0.2c-1.1,0.7-2,1.6-2.9,2.5c0,0-0.1,0.2-0.2,0.5C-11.7,4.5-12.1,5.4-12.1,5.4
			L-12.1,5.4L-12.1,5.4z"/>
		<path id="Fill_13" class="st1" d="M-9.4,6.5c0,3.2,5.1,3.2,5.1,0C-4.3,3.4-9.4,3.2-9.4,6.5"/>
		<path id="Fill_15" class="st1" d="M-3,5.9c0,2.6,4,2.6,4,0C1,3.4-3,3.3-3,5.9"/>
		<path id="Fill_17" class="st1" d="M-1.8,11.2c-1.3,0.5-2.9-0.5-4,0.1c-1.9,1.2,0,2.3,1,2.8C-0.2,16.3,0.6,10.3-1.8,11.2"/>
		<path id="Fill_19" class="st1" d="M22.7,10.3c-0.2,0-0.4,0-0.6-0.1c-1.1-0.3-1.6-0.9-1.4-1.8c0.2-1.2,1.6-3,3.7-4.7
			c2.1-1.6,4.2-2.6,5.6-2.6c0.1,0,0.2,0,0.3,0C31.6,1.4,32.9,2,34,2.8c1.1,0.9,2.4,1.5,3.8,1.7c0.2,0,0.5,0,0.7,0
			c1.9-0.2,3.8-0.8,5.4-1.9c1.2-0.7,2.5-1.3,3.9-1.7c0.6-0.1,1.3-0.2,2-0.2c2.5,0,4.7,1.1,6.7,2.1l0,0c2.1,1,4.2,2.1,6.6,2.1
			c1,0,2-0.2,3-0.5c0.3-0.1,0.7-0.3,1.1-0.5l0,0c0.4-0.2,0.8-0.4,1.2-0.6c1.4-0.8,2.9-1.3,4.4-1.6c0.1,0,0.3,0,0.4,0
			c2.1,0,4,1.2,5.7,2.3c0.7,0.4,1.4,0.9,2.1,1.3c0.3,0.2,0.7,0.3,1.1,0.3C82.9,5.8,83.7,6,83.9,7c0.1,0.4,0,0.8-0.2,1.1
			c-0.3,0.3-0.7,0.4-1.1,0.4c-0.3,0-0.7,0-1-0.1c-0.1,0-0.3,0-0.4,0c-1.4-0.3-2.8-0.9-3.9-1.8s-2.4-1.5-3.8-1.7c-0.1,0-0.3,0-0.4,0
			c-1.8,0.2-3.5,0.8-5,1.7c-1.2,0.7-2.5,1.2-3.8,1.5c-0.6,0.1-1.2,0.2-1.8,0.2c-2.2-0.1-4.4-0.7-6.3-1.9l-0.7-0.3
			c-2-1.1-3.6-1.9-5.6-1.9c-1.1,0-2.1,0.2-3.1,0.7c-0.9,0.4-1.7,0.8-2.5,1.2c-2.1,1-4,1.9-6.3,1.9c-0.5,0-1,0-1.5-0.1
			c-1.1-0.3-2.1-0.7-3.1-1.3c-1.1-0.7-2.4-1.2-3.7-1.4c-0.1,0-0.2,0-0.3,0c-1.2,0.1-2.2,1.3-3.1,2.5C25.2,9,24.1,10.3,22.7,10.3z"/>
		<path id="Fill_21" class="st2" d="M53.8,47.5c-13.9,0.1-27.8,0.3-41.7,1.4c-3.3,0.3-36.8,3.4-36.7,3.7c0.1,0.4,4.4,1.1,4.4,1.2
			c-0.3-0.7-1-1-2-0.9c31.8,0,63.5-2.8,95.3-2.3c8,0.1,16,0.1,24,0.3c2,0.1,6.9,1.5,8.5,0.6c4.1-2.4-3.4-2.6-4.6-2.7
			C85.4,47.5,69.5,47.4,53.8,47.5"/>
		<path id="Fill_23" class="st2" d="M-28.7,54.3c-2.1,2.1-0.2,9.6-0.1,12.4c0.1,4.1,0,8.2,0.4,12.2c0.3,4.7,1.1,9.5,2.3,14.1
			c0.7,2.5,3,6.4,4,1.9c0.7-3.2-0.3-7.5-0.7-10.8c-0.4-4.4-0.6-8.7-0.6-13.1c0-3.8-0.1-7.7-0.4-11.5C-24.1,57.5-25.1,50.6-28.7,54.3
			"/>
		<path id="Fill_25" class="st2" d="M23.5,92.4c-9.9,0.2-19.7,0.4-29.6,1c-4,0.3-8.1,0.6-12.1,1.1c-0.8,0.1-9.9,0.5-5.8,3.8
			c1.8,1.5,9.4-0.6,11.8-0.8c4.2-0.4,8.4-0.6,12.6-0.8c9.7-0.4,19.5-0.8,29.2-0.6c17.8,0.3,35.4,0.4,53.2,0.1
			c2.5-0.1,22.3,0.5,23-2.2c0.5-2.1-6.5-1.1-7.8-1.1C93.3,93,88.5,93,83.8,93C63.7,92.9,43.5,92.1,23.5,92.4"/>
		<path id="Fill_27" class="st2" d="M102.4,50.7c0.3,8.8,1.8,17.5,2.3,26.3c0.2,4,0.5,8,0.7,12.1c0.1,1.3-0.5,4.4,1.1,5.2
			c2.1,1,2.4-1,2.8-2.4c1.1-4,0.4-9.3,0.3-13.4c-0.1-4-0.1-8-0.4-12c-0.3-4.1-1.1-8.1-1.5-12.2c-0.2-1.7,0.4-4.6-1.4-5.7
			c-1.2-0.7-2.7-0.3-3.4,0.9C102.5,49.9,102.4,50.3,102.4,50.7"/>
		<path id="face-2" class="st2" d="M1,87.7H0.9c-2.6,0-7.7-0.4-11.8-2.4s-6.2-5.2-6.3-9.3c0.1-4.1,1.6-8.1,4.2-11.3
			c1.3-1.6,2.9-3,4.6-4.1c1.7-1,3.7-1.7,5.7-1.8c0.2,0,0.5,0,0.7,0c1.9,0,3.9,0.4,5.7,1.1c1.9,0.7,3.6,1.7,5.2,3
			c1.6,1.2,3,2.7,4.1,4.4c1.1,1.6,1.9,3.4,2.4,5.2c0.9,3.4,0.2,7-2,9.8c-1.5,1.8-3.3,3.2-5.4,4C5.8,87.2,3.5,87.7,1,87.7L1,87.7
			L1,87.7z M-2.8,62.7c-3,0.1-5.9,1.6-7.8,3.9c-2,2.3-3.1,5.3-3.2,8.3c-0.2,2,0.6,4.1,2,5.5c1.6,1.5,3.6,2.5,5.8,3s4.5,0.8,6.8,0.7
			h0.5c3.9,0,7.5-1.6,9.4-4.1c1.5-2,1.9-4.5,1.1-6.9c-0.5-1.6-1.2-3-2.3-4.3c-1-1.3-2.2-2.4-3.5-3.4c-1.7-1.3-3.8-2-5.9-2.2
			C-1,63.2-1.9,63-2.8,62.7z"/>
		<path id="Fill_31" class="st2" d="M-10.8,71.2c0,2.6,4.1,2.6,4.1,0C-6.7,68.7-10.8,68.6-10.8,71.2"/>
		<path id="Fill_33" class="st2" d="M-2.2,70.1c0,2.6,4.1,2.6,4.1,0S-2.2,67.4-2.2,70.1"/>
		<path id="Fill_35" class="st2" d="M-6.9,76c-2.7,2.7,6.7,7.3,8.9,3.6c1.8-3-2.1-2-3.5-2.2C-3.1,77.2-5.7,74.8-6.9,76"/>
		<path id="Fill_37" class="st2" d="M23.1,75L23.1,75c-0.5,0-1.1-0.2-1.5-0.5c-0.4-0.6-0.6-1.3-0.6-2c0.1-3.2,8.9-6.2,11.7-6.7
			c0.5-0.1,1-0.1,1.4-0.1c2.1,0.1,4.1,0.8,5.9,1.9l0,0c1.8,1.1,3.9,1.7,6,1.9c0.6,0,1.2-0.1,1.8-0.2c1.1-0.3,2.2-0.6,3.2-1.1
			c1.4-0.6,2.9-1.1,4.5-1.3c0.3,0,0.5,0,0.7,0c1.6,0,3.2,0.6,4.5,1.6c0.8,0.5,1.6,1,2.5,1.4c0.6,0.2,1.2,0.4,1.8,0.4
			c0.4,0,0.9,0,1.3-0.1l0,0c0.5-0.1,0.9-0.1,1.4-0.1c0.1,0,0.3,0,0.4,0c1.3,0.1,2.2,0.5,2.3,1.2c0.2,0.8-0.6,1.6-1.9,2.3
			c-0.9,0.5-1.8,0.7-2.8,0.7c-1.6-0.1-3.1-0.7-4.4-1.6s-2.8-1.5-4.4-1.8c-0.2,0-0.5,0-0.7,0c-2,0.1-3.9,0.7-5.7,1.6h-0.1
			c-1.9,0.9-3.9,1.5-5.9,1.6c-0.1,0-0.2,0-0.3,0c-1.9-0.2-3.7-0.7-5.4-1.6c-1.5-0.8-3.1-1.3-4.8-1.4c-0.9,0-1.9,0.2-2.8,0.6
			c-0.3,0.1-0.9,0.4-1.5,0.8C27.9,73.4,25,75,23.1,75z"/>
		<path id="point" class="st2" d="M88.1,76.9L88.1,76.9c-1.6-0.1-3-0.8-4.1-1.9c-1.2-1.2-2-2.6-2.4-4.2c-0.7-2.5,0.6-5.1,3-6.1
			c0.4-0.2,0.8-0.3,1.3-0.2c2.1,0.2,4.2,1.1,5.8,2.5c1.1,1.1,1.8,2.6,1.7,4.2c0,1.8-0.8,3.4-2.1,4.6C90.4,76.5,89.3,76.9,88.1,76.9z
			 M86.2,68.4c-0.6,0.8-0.7,1.9-0.2,2.7c0.4,1,1.2,1.7,1.9,1.7c0.1,0,0.2,0,0.3,0c0.8-0.2,1.2-0.5,1.3-0.9
			C89.5,70.7,86.7,68.7,86.2,68.4L86.2,68.4z"/>
		<path id="Fill_41" class="st1" d="M12.2,114.3c-9.6,0-19.3-0.2-28.9,0.4c-1.6,0.1-7.8-0.2-8.6,1.5c-1.5,3.1,4.8,1.6,5.7,1.5
			c19.1-1.9,39.1-0.8,58.3-0.3c15.7,0.4,31.3,0.7,47,1.5c4.1,0.2,8.2,0.4,12.4,0.7c1.3,0.1,4.7,1,5-1.2c0.3-2-4-1.5-5-1.6
			c-8.4-0.4-16.7-0.9-25.1-1.4C52.8,114.3,32.4,114.3,12.2,114.3"/>
		<path id="Fill_43" class="st1" d="M-25.7,117.8c-1.8,1.8-1,8.6-1,10.9c-0.1,3.9-0.3,7.8-0.4,11.8c-0.1,4.1,0,8.3,0.3,12.4
			c0.1,1.7,1.5,10.1,3.8,5.3c1-2.1,0-8.1,0-10.5c0-4.4,0.3-8.8,0.5-13.2c0.2-3.8,0.2-7.6,0.4-11.3C-22.1,121.9-22,114-25.7,117.8"/>
		<path id="Fill_45" class="st1" d="M104.7,153c-9.4,1-18.9,0.5-28.3,1.2c-8.1,0.6-16.2,0.9-24.3,1c-18.4,0.4-36.8,0.8-55.2,2.3
			c-4.2,0.3-8.4,0.7-12.5,0.9c-2.1,0.1-10.9-0.9-11.5,1.3c-1.1,3.8,8.3,2.3,10.3,2.2c4.5-0.1,8.9-0.5,13.4-0.8
			c18.7-1.4,37.5-1.9,56.2-2.4c10.2-0.3,20.3-1.1,30.5-1.7c5.1-0.3,10.2-0.3,15.2-0.7c1.3-0.1,6,0.1,7-1
			C106,154.6,106.2,152.9,104.7,153"/>
		<path id="Fill_47" class="st1" d="M101.5,118.4c0.3,9,0.8,18,1.1,26.9c0.1,2.7-0.7,7.5,0.8,9.9c2.4,3.8,4.3-0.2,4.7-2.6
			c1.4-7.5-0.1-15.9-0.5-23.4c-0.1-2.9,0.7-9.3-0.6-11.9C105.7,114.8,101.4,115.1,101.5,118.4"/>
		<path id="hola_:_" class="st1" d="M85.8,143.8c-0.8,0-1.7-0.2-2.4-0.4c-1-0.4-2-1-2.7-1.8s-1.3-1.8-1.6-2.8
			c-0.4-1.5-0.2-3.1,0.6-4.4c0.4-0.8,0.7-1.7,0.8-2.6c0-0.3,0-0.6-0.1-0.9c-0.2-0.7-0.2-1.4,0.1-2.1c0.3-0.4,1.1-0.6,2.4-0.6
			c0.5,0,0.9,0,1.3,0c0.2,0,0.4,0,0.6,0c0.4-0.1,0.8-0.1,1.2-0.1c1.7,0,3.4,1,4.2,2.5c1,1.6,1.5,3.5,1.5,5.4
			c0.1,2.3-0.7,4.6-2.2,6.4C88.5,143.3,87.2,143.8,85.8,143.8z M85.8,131.2L85.8,131.2c-2.2,1-4,5-3.4,7.4c0.2,1.3,1.4,2.1,2.7,2
			c0.3,0,0.5,0,0.8-0.1c1.9-0.3,2.7-2.2,2.8-3.9c0.1-1.2-0.1-2.4-0.6-3.4C87.6,132.3,86.8,131.5,85.8,131.2z"/>
		<path id="Fill_51" class="st1" d="M-4.4,148L-4.4,148c-4.7,0-9.1-2.4-11.7-6.4c-2.2-3.6-2.3-8.1-0.3-11.8
			c-0.2,0.2-0.5,0.3-0.8,0.4c-0.7,0-1.1-1-1.2-1.6c-0.2-0.9,1.2-2.5,2.2-3.6c0.2-0.2,0.4-0.5,0.5-0.6c2.1-2.5,4.5-4.9,8.2-5
			c0.1,0,0.3,0,0.4,0c3.2,0.1,6.2,1.2,8.6,3.3c2.5,2.1,4.4,4.7,5.6,7.8c1,2.4,1.3,5,0.9,7.6c-0.4,2.6-1.7,5-3.8,6.7
			C1.8,146.9-1.2,148-4.4,148z M-7.8,126c-0.3,0-0.6,0-0.9,0.1c-1.4,0.5-2.7,1.5-3.5,2.8c-0.9,1.2-1.6,2.6-2,4.1
			c-0.8,2.5-0.5,5.1,0.7,7.4c1.3,2.1,3.5,3.7,5.9,4.2c1,0.3,2,0.4,3.1,0.4c1.9,0,3.8-0.5,5.4-1.5c1.6-1.1,2.8-2.8,3.3-4.7
			c0.9-3,0.4-6.3-1.4-8.9c-1.8-2.6-4.3-4.6-7.2-5.8c0,0.1,0,0.2,0,0.3l0,0v0.1l0,0v0.1l0,0l0.1,0.5c-0.2,0.9-1.2,1-2.1,1
			c-0.2,0-0.5,0-0.8,0h0.1C-7.3,126-7.5,126-7.8,126z M-7.6,122.8c-1.5,0-2.9,0.6-4.1,1.5C-10.5,123.5-9,122.9-7.6,122.8L-7.6,122.8
			z"/>
		<path id="Fill_53" class="st1" d="M-10.8,131.4c0,0.7,0.6,1.3,1.4,1.3c0.7,0,1.3-0.6,1.3-1.3s-0.6-1.3-1.4-1.3
			C-10.2,130.2-10.8,130.7-10.8,131.4"/>
		<path id="Fill_55" class="st1" d="M-6.3,131.7c0,0.8,0.7,1.3,1.4,1.3c0.7,0,1.3-0.6,1.3-1.3c0-0.8-0.7-1.3-1.4-1.3
			C-5.7,130.5-6.2,131-6.3,131.7"/>
		<path id="Fill_57" class="st1" d="M-4.2,137.9c-1.3,0.1-5.9-0.3-6.7,0.8c-1.4,1.9,0.8,1.9,1.9,2.1c1,0.2,5.2,0.1,5.8-0.8
			C-2.8,139.3-2.9,137.8-4.2,137.9"/>
		<path id="Fill_59" class="st1" d="M10.8,141.1L10.8,141.1c-0.7,0-1.2-0.5-1.6-1.4c-0.8-2,2.2-4.6,3.2-5.4c1.2-1.1,2.7-1.8,4.4-1.8
			c0.9,0,1.8,0.2,2.6,0.5c0.7,0.2,1.4,0.5,2,0.8c1,0.5,2.2,0.8,3.3,0.9c0.5,0,1.1-0.1,1.6-0.2c1.1-0.3,2.2-0.7,3.3-1.1
			c1.5-0.7,3.1-1.2,4.8-1.4c0.2,0,0.4,0,0.6,0c1.8,0.1,3.6,0.5,5.3,1.3c1.2,0.5,2.3,0.8,3.5,1.1c0.8,0.2,1.6,0.2,2.4,0.2
			c1.9,0,3.8-0.5,5.5-1.2s3.4-1.1,5.2-1.2c1.2,0,2.4,0.2,3.6,0.6c0.2,0.1,0.5,0.1,0.9,0.3c2.1,0.6,6.4,1.8,6.6,2.5
			c0.2,0.4,0.1,1-0.1,1.4c-0.3,0.4-0.8,0.5-1.3,0.5c-1.3-0.1-2.5-0.4-3.7-0.8l0,0l-0.2-0.1c-0.5-0.2-1-0.3-1.4-0.5
			c-1.6-0.7-3.3-1.1-5-1.2c-0.8,0-1.6,0.1-2.3,0.3c-0.9,0.3-1.7,0.5-2.5,0.8c-2,0.8-4.2,1.2-6.4,1.3c-0.6,0-1.2,0-1.8-0.1
			c-1.2-0.2-2.3-0.5-3.4-0.9c-1.5-0.6-3-0.9-4.5-1h-0.1c-1.9,0.1-3.8,0.7-5.4,1.5c-1.2,0.6-2.5,1-3.7,1.3c-0.4,0.1-0.8,0.1-1.3,0.1
			c-1.2-0.1-2.5-0.3-3.6-0.8h-0.1c-1.1-0.4-2.2-0.7-3.3-0.7c-0.3,0-0.5,0-0.8,0.1c-1,0.4-1.8,1.1-2.5,1.9
			C13.3,139.7,12,141.1,10.8,141.1z"/>
	</g>
	<g id="Big_Cards" transform="translate(491.163 0)" class="st0">
		<path id="Fill_67" class="st2" d="M-154.9,105.9L-154.9,105.9c-0.7,0-1.4,0-2.1-0.1c-1.4-0.2-2.3-0.5-2.6-1s-0.1-1.3,0.2-2.2
			c0.2-0.5,0.4-1.1,0.5-1.7c0.5-2.4,0.1-5.4-0.3-8.4c-0.2-1.6-0.4-3.1-0.5-4.4c-0.7-18.3-0.4-36.7,0-52.5c0.1-3.8,0.2-7.7,0.3-11.4
			c0-0.8,0-1.7,0.1-2.5c0-0.3,0-0.6,0-0.9c0.1-1.6,0.1-3.3-0.1-5c-0.1-0.4-0.2-0.8-0.3-1.1c-0.3-0.6-0.4-1,0.3-2.1
			c1-1.3,3.6-1.5,5.8-1.5c0.7,0,1.4,0,2.1,0h0.1c0.6,0,1.2,0,1.7,0s0.8,0,1.1,0c4.2-0.4,8.2-0.7,12-0.9c12.2-0.6,24.5-1.4,36.3-2.2
			c25.8-1.7,52.5-3.5,78.9-3.5h2.3c4.7-0.2,9.3,0.2,13.9,1.1c1,0.2,1.9,0.4,2.9,0.5c0.1,0,0.3,0,0.4,0c0.2,0,0.4,0,0.5,0l0,0
			c0.2,0,0.3,0,0.5,0c0.4,0,0.7,0.1,1,0.2c1.2,0.5,2.1,1.6,2.3,3c0.5,1.8,0,4.2-0.4,6.6c-0.2,1.2-0.4,2.3-0.5,3.2
			C1.2,23.1,1,27.5,1,32.5c0,0.5,0,1,0,1.6c-0.1,7.6,0.2,15.1,1,22.7c0.2,1.9,0.5,3.8,0.8,5.6c0.7,4.9,1.4,10,1.7,15.2
			c0.1,1.7,0.1,3.5,0.2,5.2l0,0c0.1,2.4,0.2,4.9,0.3,7.4c0,0.4,0,0.9,0,1.3c0,0.9,0,1.8,0.2,2.7c0.1,0.4,0.4,0.8,0.7,1
			c0.2,0.1,0.3,0.3,0.4,0.6c0.3,1.2,0.4,2,0,2.6c-0.4,0.5-1.1,0.8-2.5,1.2c-5.4,1.5-11.5,1.7-17.3,1.7c-1.2,0-2.3,0-3.4,0h-0.3
			c-1,0-2,0-3,0h0.1c-19.8,0-37.7,0.1-55.6,0.5c-5.4,0.1-11,0.2-16.3,0.3c-12.8,0.2-25.9,0.4-38.8,1.5c-3,0.3-6.1,0.6-9.1,0.8
			c-1.2,0.1-2.4,0.2-3.5,0.3c-1.3,0.1-2.6,0.3-4.1,0.5C-150,105.6-152.5,105.8-154.9,105.9z M-101.2,37.6c4.1,0,8.4,1.4,13.3,4.4
			c4.1,2.6,7.9,5.5,11.5,8.6l0.6,0.5c1.3,1.1,2.6,2.2,3.9,3.3c2.9,2.4,5.9,4.9,8.9,7.3l0.6,0.5l0.1,0.1c2.6,2,5.2,4,8,5.8
			c1,0.8,2.3,1.3,3.6,1.4c1.4,0,2.6-0.8,4.6-2.1c0.7-0.5,1.4-0.9,2-1.4c5.6-3.8,10.8-7.3,17.7-7.9c0.6-0.1,1.3-0.1,2-0.1
			c7.6,0,15.3,3.4,20.4,6.3c-2.7-14.2-3.5-28.7-2.4-43.2c0.2-2.5,0.4-5,0.7-7.3c0-0.2,0.1-0.6,0.2-1c0.3-0.9,0.4-1.8,0.3-2.8
			c-0.5-1-2.4-1.1-3.9-1.1c-0.4,0-0.8,0-1.3,0h-0.1c-0.4,0-0.8,0-1.1,0c-0.1,0-0.3,0-0.4,0c-1.9-0.1-3.9-0.1-6-0.1
			c-4.8,0-9.8,0.2-14.5,0.3c-2.2,0.1-4.4,0.1-6.6,0.2c-19.5,0.5-40,1.6-60.8,3.3c-7.7,0.6-15.6,1.1-23.3,1.5
			c-8.9,0.5-18.1,1-27.1,1.8c-3.4,0.3-3.4,0.6-3.4,3.3c0,0.3,0,0.7,0,1.1c0,0.9,0,1.8-0.1,2.7l0,0v0.5c-0.1,4.7-0.3,9.7-0.4,14.8
			c-0.2,6.4-0.6,12.8-0.9,19c-0.2,3.6-0.4,7.3-0.6,10.9c5.1-3.1,10-6.7,14.7-10.1c4.6-3.3,9.3-6.7,14.2-9.7c7-4.4,14-8.4,21.6-10.3
			C-103.9,37.7-102.5,37.6-101.2,37.6z"/>
		<path id="Fill_69" class="st1" d="M-42.7,23.6c0,2.8-0.4,6.9,0.8,9.5c1.6,3.3,3.7,2.3,4.2-0.8c0.3-1.8,0.3-7.1-0.3-8.7
			C-38.8,21.3-42.7,19.8-42.7,23.6"/>
		<path id="Fill_71" class="st1" d="M-38.1,24.7c-2.6,0.1-10.2-0.5-12,1.6c-3,3.6,2.3,4.2,4.5,4c2.6-0.2,10.7,0.3,12.5-1.8
			C-30.1,25-36,24.6-38.1,24.7"/>
		<path id="Fill_73" class="st1" d="M-139.5,138.8L-139.5,138.8c-3.2-0.1-6.4-1.1-9-2.9c-2.7-1.7-4.7-4.2-5.9-7.1
			c-1.2-3.4-0.8-7.1,1.1-10.1c0.9-1.6,2.2-3,3.7-4.1s3.3-1.9,5.2-2.2c1-0.2,2-0.2,2.9-0.2c2.9,0,5.7,0.7,8.1,2.1
			c2.5,1.4,4.4,3.7,5.4,6.4c1.1,3.4,0.9,7.1-0.5,10.3c-0.7,1.6-1.6,3.1-2.9,4.4c-1.2,1.3-2.7,2.2-4.3,2.8
			C-136.9,138.6-138.2,138.8-139.5,138.8z M-140.5,117.8c-3.5,0-7.9,1.8-9.4,5.2c-0.6,1.3-0.6,2.9,0,4.2c1.2,2.8,4.5,5.1,7.3,6.1
			c1,0.4,2.1,0.6,3.1,0.6c4.3,0,6.6-3.7,6.9-7.1c0.5-4.4-2.6-8.5-7.1-9C-139.9,117.8-140.2,117.8-140.5,117.8L-140.5,117.8z"/>
		<path id="Fill_75" class="st1" d="M-74.4,119.9c-2.9,0.2-5.3,2.2-8.2,2.6c-2.7,0.3-4.9-0.6-7.5-1.3c-2.9-1-6-1.2-9-0.5
			c-2.4,0.6-4.7,2.2-7.2,2.4c-4.9,0.4-10.5-5.2-14.3,1.1c-1.8,3,0.8,5,3.5,3.5c2.8-1.5,1.5-2,5-1.1c2.9,0.7,5.3,1.1,8.3,0.1
			c2.7-0.9,5-2.6,7.9-2.8c2.8-0.2,5.3,1.1,8,1.7c3.2,0.6,6.4,0.3,9.5-0.9c3-1,4.2-1.5,7.2-0.7c1.9,0.6,6.1,2.3,8,0.9
			c3.2-2.5-1.1-2.9-2.8-3.2C-68.7,121.2-71.6,119.6-74.4,119.9"/>
		<path id="Fill_77" class="st1" d="M-8.7,131.7L-8.7,131.7c-2.8,0-5.5-1.1-7.5-3c-1.9-1.8-3.1-4.2-3.4-6.8
			c-0.3-2.2,0.1-4.4,1.2-6.3c1.4-2.1,3.6-3.7,6.1-4.3c0.2,0,0.4-0.1,0.6-0.1c1.8,0,5.1,1.6,6.5,2.4c2,1.2,3.5,3,4.3,5.2
			c1.1,2.9,0.9,6.2-0.6,8.9c-1.1,2-3,3.4-5.3,3.7C-7.3,131.7-8,131.7-8.7,131.7z M-11.7,117.6c-1.6,0.3-2.6,1.8-2.3,3.4
			c0.3,1.3,0.9,2.4,1.9,3.3c0.9,0.9,2.1,1.5,3.4,1.5c0.1,0,0.1,0,0.2,0c1.6-0.1,2.6-0.8,2.6-2.1c-0.1-1.4-0.8-2.8-1.8-3.8
			C-8.7,118.6-10.1,117.8-11.7,117.6z"/>
		<path id="Image_Border" class="st2" d="M73.3,124.3c-0.9-2.3,0.4-3.3,2.3-3.8c-0.2-1.7-0.3-3.3-0.2-5c-0.1-2.9-0.1-5.8-0.2-8.6
			c-0.3-6.8-0.4-13.7-1-20.6c-0.5-6.5-1.8-12.9-1.8-19.4c0-4.5-1.3-15.7,2.6-18.8c6.7-3.9,4.1,9.9,3.9,12.3
			c-0.2,7.1,0,14.2,0.8,21.2c0.7,6.5-0.1,13.1-0.4,19.6c-0.1,3.5-0.2,7-0.5,10.4c-0.1,1.1,0,6-0.5,8.6c0.9,0,1.7,0,2.4,0
			c0.5,0,0.9,0,1.2,0c5.4-0.2,10.9-0.3,16.3-0.5c20.9-0.8,41.8-0.4,62.6-1.4c19.7-0.9,39.5-1.1,59.3-1.4c1.1,0,2,1,1.9,2.1
			c0,0.5-0.2,0.9-0.5,1.3c-1.1,1.4-6.1,1.1-7.7,1.2c-5.6,0.4-11.1,0.6-16.7,0.7c-11.8,0.1-23.5,0.6-35.2,1.3
			c-20.8,1.2-41.7,1.1-62.6,1.9c-5.1,0.2-10.1,0.4-15.2,0.5c-1.4,0-3.8,0.5-6.1,0.5C75.9,126.3,73.9,125.9,73.3,124.3z M224,106
			c-0.4-7.6-1-15.2-1.7-22.8c-1.1-12.3-2.1-24.2-2.1-36.5c0-2.9,3.5-3.5,5.1-1.5c1.5,1.9,0.5,7.7,0.6,9.9c0.1,7.5,0.8,14.9,1.5,22.4
			c0.7,7.4,1.1,14.8,1.7,22.2c0.2,3.4,2.9,17.1-1,19.1c-0.4,0.2-0.8,0.3-1.2,0.3C223.4,119.1,224.1,108.1,224,106L224,106z
			 M75.1,47.2c-1.3-0.5-2.3-1.2-1.6-2.7c0.6-1.2,2.6-1.1,4.1-1c0.5,0,0.9,0.1,1.2,0.1c4.9-0.1,9.8-0.4,14.8-0.7
			c11.2-0.7,22.3-1.5,33.5-1.7c21.3-0.4,42.6-1.5,63.9-1.7c6.3-0.1,12.6,0.1,18.9,0.4c2.8,0.2,5.6,0.3,8.4,0.4c0.5,0,1.2,0,2-0.1
			c1.7-0.1,3.7-0.2,4.7,0.3c5.6,2.9-5.8,3.3-7.2,3.2c-5.8-0.1-11.6-0.5-17.3-0.7c-21.3-0.5-42.7,0.8-64,1.6
			c-10.2,0.4-20.4,0.5-30.7,1.1c-5.6,0.3-11.2,0.7-16.8,1c-2.6,0.1-5.2,0.3-7.7,0.3c-1.1,0-3,0.3-4.5,0.3
			C76.3,47.4,75.7,47.4,75.1,47.2z"/>
		<path id="Image_X" class="st1" d="M100.5,107.5c-1.4,0-2.3-0.3-2.4-2c-0.2-2.1,3.2-3,4.6-3.7c4.7-2.4,9.4-4.7,14.2-6.9
			c9.4-4.5,18.9-8.8,28.5-13l0.2-0.1c-5.3-1.8-10.6-3.5-15.9-5.3c-3-1-24.4-6.2-23.6-9.1c0.9-3.2,19.7,4.3,22.7,5.2
			c7.1,2.3,14.3,4.6,21.4,7.1c17-7.6,34.2-15.8,52-21.4c1.1-0.3,1.8,0.8,1.6,1.8c-0.3,1.3-4.3,2.3-5.4,2.8c-4.4,2-8.8,3.9-13.1,5.8
			c-9.5,4.3-19.1,8.5-28.6,12.7l-0.6,0.3c6.7,2.4,13.4,4.9,20,7.4c3.5,1.4,7.1,2.8,10.6,4.2c1.8,0.7,9.1,2.4,9.6,4.2
			c0.6,2.5-7.3-0.6-8.5-1c-3.5-1.1-7-2.4-10.5-3.6c-7.8-2.8-15.6-5.7-23.4-8.4l-2.2-0.8c-8.3,3.7-16.6,7.5-24.9,11.3
			c-4.4,2.1-8.8,4.1-13.2,6.3C110,103,104.2,107.5,100.5,107.5L100.5,107.5z"/>
		<path id="Fill_117" class="st1" d="M89.3,156c-2.9,0.1-5.7-0.8-8-2.5c-1.4-1.1-2.4-2.5-2.9-4.2c-0.3-1.3-0.4-2.6-0.2-4
			c-0.1,0-0.3,0-0.4,0c-0.6,0-1.2-0.3-1.6-0.9c-0.3-3.7,3.1-6.9,5.1-8.5c2.8-2.2,6-3.7,9.5-4.4c0.4-0.1,0.8-0.1,1.2-0.1
			c2.9,0.1,5.7,1.3,7.6,3.5c2.3,2.5,3.6,5.7,3.5,9.1c-0.1,3.1-1.4,6-3.7,8.2c-2.3,2.1-5.2,3.4-8.2,3.7C90.6,156,90,156,89.3,156z
			 M92.2,135.3c-0.9-0.1-1.7,0.3-2.1,1.1c-0.3,0.7-0.9,1.2-1.6,1.5c-0.4,0.1-0.8,0.2-1.1,0.2c-0.5,0-1,0-1.4,0.2
			c-1.1,0.7-2,1.7-2.6,2.9l-0.1,0.1c-1.6,2.7-2,5.5-1,7.6c0.9,1.9,2.8,3.1,5.5,3.5c0.6,0.1,1.2,0.1,1.8,0.1c4.5,0,9.5-2.5,10.1-8
			c0.4-4.4-2.6-8.5-6.9-9.3C92.6,135.3,92.4,135.3,92.2,135.3z"/>
		<path id="Fill_119" class="st1" d="M116.6,139.5c-2.4,1.3-6.2,3.2-7.5,5.6c-1.5,2.5,0.1,5.3,3.2,4.1c2.5-1,4-4,6.7-4.9
			c2.3-0.9,3.3-0.4,5.7,0.4c2.5,0.9,4.7,1.7,7.5,1.5c3.4-0.3,6.4-2.3,9.8-2.7c2.8-0.4,5.2,0.7,7.9,1.2c3.1,0.5,5.2-0.7,8.2-1.3
			c2-0.4,5.5,1.3,7,0.7c3.3-1.4-0.2-3.2-2-3.8c-3.1-1-5-0.1-7.9,0.7c-3.2,0.9-4.5,0.2-7.6-0.6c-6.1-1.6-10.9,2.3-16.7,1.6
			C125.5,141.3,122.2,136.5,116.6,139.5"/>
		<path id="Fill_121" class="st1" d="M213.5,150.8L213.5,150.8c-3.1,0.1-6.1-1.1-8.4-3.2c-1.4-1.5-2.1-3.5-1.8-5.5
			c0.1-2.8,1.5-5.3,3.7-7c2.2-1.6,4.8-2.6,7.5-3c0.5-0.1,1.1-0.2,1.6-0.2c2,0,3.9,0.9,5.1,2.5c1.2,1.6,1.9,3.6,1.9,5.7
			c0.1,2.5-0.6,4.9-2,7c-1.5,2.2-4,3.5-6.7,3.7C214.2,150.7,213.9,150.8,213.5,150.8z M216.1,136.5c-2.5,0-5.7,0.8-7.1,2.7
			c-0.9,1-1.3,2.3-1.2,3.7c0.2,1.1,0.8,2,1.8,2.6c1.1,0.8,2.5,1.3,3.9,1.3c2.3,0,4.4-1.4,5.2-3.5c0.9-2.3,0.2-4.8-1.9-6.7
			C216.5,136.6,216.3,136.5,216.1,136.5z"/>
	</g>
	<path id="Fill_79" class="st3" d="M912,0c-7.8,0.1-26.9,2.4-29.8,9.9c-2.2,5.7,4.3,4.4,7.7,2.4c4.4-2.8,9.4-4.6,14.5-5.3
		c22-3.2,43.1,8.4,64.9,9.8c8.2,0.6,18.2,0.9,26.1-1.3c5.6-1.5,6.3-4.9-0.1-5.4c-5.4-0.4-11.5,0.9-17,0.9
		C955.2,10.8,934.7-0.4,912,0"/>
	<g id="Cards" transform="translate(0 448.49)" class="st0">
		<path id="Fill_173" class="st1" d="M54.9-45.4C46.4-45.3,38-45,29.6-44.5c-8,0.5-16.7,0.1-24.5,1.7c-2.2,0.4-5.3,2.4-2.3,4.7
			c2.1,1.6,9.7-0.2,12.2-0.4c9.2-0.6,18.4-1.2,27.6-1.6c8.7-0.3,17.4-0.4,26.1-0.5c1.3,0,3.5-0.4,4.9-0.1c1.9,0.6,1.5,0.7,1.6,3.1
			c0.3,4.4,0.2,8.8,0.1,13.1c-0.1,4.2-0.2,8.5-0.2,12.7c0,3-1,9,0.6,11.7c2.2,3.8,4.4-0.3,4.6-2.8c0.3-4.8,0.2-9.7,0.2-14.5
			c0-4.5,0-9-0.1-13.5c-0.1-3.3,0.4-9-1.4-11.9c-1.8-3-6.1-2.4-9.2-2.5C64.7-45.5,59.8-45.5,54.9-45.4"/>
		<path id="Fill_171" class="st1" d="M1.3-40c0,8.5-1,16.9-1.2,25.4C0-10.7-0.3-6.4,0.7-2.6c1,3.9,4.2,4.7,4.5,0.4
			C5.9-10.9,5.7-20,6.3-28.8c0.2-3.1,1.5-8.8,0.3-11.7C5.5-43.1,1.3-43.6,1.3-40"/>
		<path id="Fill_175" class="st1" d="M80.3-2.6C65.7-0.7,50.4-1.4,35.6-1.1C28.5-1,21.5-0.9,14.4-0.9c-2.5,0-8.7-0.9-10.9,0.5
			C0.1,1.8,3.8,3.5,6,3.6c14,0.3,28.1-0.3,42-0.8C54.3,2.6,60.6,2.5,66.8,2c4-0.2,7.9-0.8,11.8-1.7c0.8-0.2,2.5-0.2,2.7-1.3
			C81.5-1.6,81.3-2.7,80.3-2.6"/>
		<path id="Fill_177" class="st1" d="M19.4,9.7c-4.1,0-16.3-1.9-18,2.1c-2.2,5.3,6.5,4.1,8.9,4c5.3-0.1,10.7-0.2,16-0.2
			s10.5,0,15.7-0.2c1.5,0,5.1,0.6,5.9-1.2c0.6-1.1,0.2-2.5-0.9-3.1c-0.1,0-0.1-0.1-0.2-0.1c-3-1.8-10.6-0.7-14.1-0.9
			C28.4,10,23.9,9.7,19.4,9.7"/>
		<path id="Fill_179" class="st1" d="M68.9,10.7c-2.3,0.1-7-0.8-9.1,0.2c-2.4,1.2-1.5,3.1,0.5,3.9c1.4,0.6,7.2,0.3,8.6-0.4
			C70.3,13.8,72,10.5,68.9,10.7"/>
		<path id="Fill_181" class="st1" d="M94.4-39.2c-2.5,0.7-1.7,14.8-1.8,17c-0.2,6.1-0.9,13.8,1.2,19.7c1.3,3.8,3.8,3.2,3.4-0.7
			c-0.4-3.5-1-6.9-1.3-10.4c-0.7-7.9-1.5-16.3-1-24.2c0.3,0.5,2.6,4.7,3.2,4.4C97.9-33.3,95.4-39.4,94.4-39.2"/>
		<path id="Fill_183" class="st1" d="M122.3-44.3c-5,0.1-10,0.2-15.1,0.3c-4,0.1-10.3-0.5-13.9,1.1c-4.4,2-2.3,6.5,1.8,6.5
			c3.6,0.1,7.5-0.7,11.1-0.9c9.9-0.3,19.8-0.4,29.6-0.5c8.9-0.1,18.2,0.9,27.1-0.5c1.3,11.7-2.2,23.4-1,35.2
			c0.2,1.8,0.1,4.4,2.4,4.8c2.9,0.5,3.1-2.4,3.2-4.5c0.3-6,0.1-11.9,0.6-17.9c0.4-5.5,1.2-11.2,0.5-16.7c-0.8-6.8-4.1-6.3-9.9-6.6
			C146.6-44.4,134.5-44.5,122.3-44.3"/>
		<path id="Fill_185" class="st1" d="M105.5-2.9c-2.6,0.1-6.8-0.7-8.4,1.7c-1.7,2.6,0.3,4.8,2.8,5.3c2.9,0.6,6.8-0.2,9.8-0.2
			c3.2,0,6.3,0,9.5,0c13.6,0.1,27.3,0.3,40.9-0.3c1.9-0.1,7.3,0.6,8.6-1.3c1.2-1.6,0.4-3.1-1.2-3.9c-2.5-1.3-7.7-0.8-10.5-0.9
			c-3.5-0.1-6.9-0.2-10.4-0.2C132.9-2.9,119.1-3.3,105.5-2.9"/>
		<path id="Fill_187" class="st1" d="M117,8.9c-5.1,0.1-10.5-0.1-15.6,0.6c-4.4,0.7-5,5-0.2,5.5c4.4,0.5,9.7-0.4,14.1-0.7
			c1.6-0.1,3.4,0,4.1-1.7c0.5-1.4-0.2-3-1.7-3.6C117.5,8.9,117.3,8.9,117,8.9"/>
		<path id="Fill_189" class="st1" d="M155.5,9.3c-2.7,0.1-10.7-1.1-12,2c-2.2,5.2,8.5,3.2,10.6,3.1c2.6-0.1,12.7,1.4,12.7-2.7
			C166.8,7.7,158,9.3,155.5,9.3"/>
		<path id="Fill_191" class="st2" d="M0.8,35c0,9.4-0.6,18.9,0.3,28.3c0.4,3.9,0.3,11.3,2.5,14.6c1.6,2.3,3.8,2.2,4.7-0.6
			c0.6-1.9-0.3-5.6-0.5-7.6c-0.1-1.9-0.2-3.8-0.3-5.8C7.3,58.9,7.3,54,7.4,49c0.1-4.3,1.1-9.9,0.1-14C6.6,31.2,0.8,30.3,0.8,35"/>
		<path id="Fill_193" class="st2" d="M95.3,26.7c-16.3,0.4-32.7,0-49,0.9c-8,0.4-16,1.3-24,2.1c-3.9,0.4-7.9,0.9-11.8,1.4
			c-1.2,0.1-11,0.5-7.3,4.3C4.8,37,10,35.3,12,35.1c3.9-0.5,7.9-0.9,11.8-1.3c7.5-0.8,15-1.5,22.6-2c17.7-1,35.6-0.7,53.3-1.3
			c4.8-0.2,9.6-0.3,14.4-0.1c1.3,0.1,10.5,0.5,6.5-2.9c-1.9-1.6-9.1-0.8-11.5-0.8C104.6,26.5,100,26.6,95.3,26.7"/>
		<path id="Wireframy_Stuff" class="st2" d="M4.8,81.6c-0.4-5.3,13-5.3,16.9-5.7c16.5-1.5,33.2-1.2,49.7-1c8,0.1,16,0.4,23.9-0.1
			s16.2-0.4,24.1-1.2c-1-4-0.9-8.9-1.2-12.9c-0.7-10.4-0.5-20.8-1-31.1c-0.2-4.6,6-5.3,7.9-1.6c1.9,3.7,0.7,11.2,0.8,15.3
			c0.3,9.6,2.1,20.3,0.2,29.8c-0.7,3.3-3.4,5-5.3,3.2l0,0c-0.7,1-2.9,1-4.5,1c-0.4,0-0.8,0-1.1,0c-4.4,0.3-8.7,0.8-13,1.4
			c-8.6,1.3-17.3,2.1-26,2.3c-17.3,0.4-34.6,0-51.9,1.2c-3.8,0.2-7.6,0.7-11.3,1.4c-1.6,0.4-3.2,0.7-4.8,0.8
			C6.4,84.6,4.9,83.9,4.8,81.6z"/>
		<path id="Fill_199" class="st2" d="M130.8,32.9c-2.2,0.3-4,2.2-3.1,4.6c1.2,3,4.9,1.8,7.4,1.6c7.8-0.6,15.8,0.6,23.5-0.3
			c2.1-0.3,5.1-1.4,3.2-4.2c-1.4-2.1-6.6-1.7-8.7-1.9C145.7,32,138.2,32.1,130.8,32.9"/>
		<path id="Fill_201" class="st2" d="M143.9,46c-3,0.2-10,0-11.3,3.5c-2.3,6.1,6.6,4,9.3,3.6c3.1-0.4,10.6,0.7,12.2-2.4
			C157.2,45.3,146.5,45.9,143.9,46"/>
		<path id="Fill_203" class="st2" d="M136.1,59.5c-1.4,1.5-1.4,3.9,0,5.4c1.7,1.7,5.6,1.4,7.9,1.5c3.2,0.2,12.4,1.9,14-1.9
			c2.1-5.1-6.2-5-8.9-5.3C145.9,58.9,138.8,56.9,136.1,59.5"/>
		<path id="Fill_205" class="st1" d="M23.8-27.6c0,5.5,8.5,5.5,8.5,0S23.8-33.2,23.8-27.6"/>
		<path id="Fill_207" class="st1" d="M40-27.6c0,6.3,9.7,6.2,9.7,0S40-33.9,40-27.6"/>
		<path id="Fill_209" class="st1" d="M30.2-19.3C25.5-18,29.8-14,32-13.1c3.5,1.5,8.3,2.5,11.8,0.3c1.4-0.9,2.5-2,1.5-3.7
			c-1.1-1.8-2.6-1-4.2-0.8c-1.9,0.3-3.9,0.1-5.8-0.5C33.7-18.2,31.9-19.7,30.2-19.3"/>
		<path id="Fill_211" class="st1" d="M116.1-27.3c0,3.7,5.7,3.7,5.7,0S116.1-31,116.1-27.3"/>
		<path id="Fill_213" class="st1" d="M128.8-26.7c0,4.1,6.4,4.1,6.4,0S128.8-30.8,128.8-26.7"/>
		<path id="Fill_215" class="st1" d="M128.3-17.8c-3.4,0.4-13.1,1.4-13.6,5.6c-0.8,6.4,9.8,1.2,12.2,0.7c3-0.5,6-0.6,8.9-0.3
			c1.7,0.1,3.9,0.3,3.8-2.2C139.3-18.4,131.2-18.2,128.3-17.8"/>
		<path id="Fill_217" class="st2" d="M44,41c-2.4,0.6-5.6,4.9-3.9,7.4c2.7,4.2,4-2.3,5.1-2.9c2.1-1.1,3.8,3,6,0.8
			C54.5,43,46.1,40.4,44,41"/>
		<path id="Fill_221" class="st2" d="M49.7,55.2c-4.6,2.7,3,8.5,5.6,9.2c4,1.1,12-0.9,12.9-5.8c0.4-1.9-0.8-3.7-3-3.3
			c-1.8,0.3-2.9,2.5-4.5,3.3c-1.9,1.2-4.4,0.9-6-0.6C53.3,56.6,52.4,53.6,49.7,55.2"/>
		<path id="Fill_223" class="st2" d="M53.1,95.1c-4.1,0.9-8.3,0.3-12.4,1.1C36.5,97,34,98.6,30,97l-0.6-0.2c-3-1.3-6.2-1.7-9.4,0.4
			c-1.9,1.2-7.6,5.5-6.9,8.1c1.5,5.6,7.9-3.2,9.6-4.1c3.1-1.6,5.3,0.5,8.5,1c3.9,0.7,7-1.3,10.6-2.1c4.2-0.9,9-1.3,13.3-1.8
			c1.7-0.2,8.2,1.1,8.8-1C64.8,93.7,54.7,94.7,53.1,95.1"/>
		<path id="Fill_225" class="st2" d="M93.2,111.4L93.2,111.4c-3.1,0-5.5-0.1-7.7-0.3c-1.5-0.1-3-0.4-4.4-1c-1.3-0.7-2.2-2-2.5-3.5
			c-0.6-2.1-1.1-4.3-1.4-6.6c-0.4-3.3,0-5.2,1.1-5.8c0.4-0.2,0.8-0.2,1.2-0.2c0.2,0,0.5,0,0.7,0l0,0c0.2,0,0.4,0,0.6,0
			c0.1,0,0.3,0,0.4,0c1-0.2,2-0.4,3.1-0.7c1.4-0.4,2.8-0.7,4.3-0.9c4.1-0.5,8.5-0.9,13.5-1.1h0.1c0.8,0,1.7-0.1,2.7-0.1
			c1.9-0.1,3.8,0.2,5.6,0.7c1.7,0.4,3.1,1.6,3.9,3.2c1.4,3.2-0.3,9.8-2,12.8c-1.8,3.1-5.2,3.6-8.8,3.6c-0.7,0-1.3,0-1.9,0l0,0
			c-0.6,0-1.2,0-1.8,0h-0.4h-1.7l0,0C96.1,111.4,94.6,111.4,93.2,111.4z M81.4,96.4L81.4,96.4c0.1,0.5,0.1,1.4,0.2,2.5l0,0
			c0.2,2.8,0.4,6.5,1.2,7.5c0.8,0.9,3.6,0.9,5.2,0.9l0,0c0.4,0,0.7,0,1,0c2.6,0.2,5.2,0.2,7.8,0.3h0.1c1,0,2.2,0.1,3.3,0.1
			c0.6,0,1.4,0.1,2.2,0.2l0,0c1.2,0.2,2.4,0.3,3.7,0.3c0.8,0,1.5-0.1,2.2-0.4c1-0.5,2.2-2.6,2.9-5.4c0.7-2.3,1.1-5.5,0.2-6.9
			c-0.8-1.3-2.9-1.9-6.2-1.9c-2.9,0.1-5.7,0.4-8.5,0.8l0,0c-1,0.1-1.8,0.3-2.4,0.3c-1.3,0.2-2.6,0.4-4,0.7l0,0
			c-2.2,0.6-4.5,0.9-6.8,1C82.8,96.7,82.1,96.6,81.4,96.4z"/>
		<path id="quare" class="st1" d="M144.5,113.2L144.5,113.2c-4.7,0-9.4-0.2-14.1-0.7c-2.9-0.3-4.6-0.9-5.9-2c-1.4-1.2-2.1-3-2.4-5.7
			c-0.1-0.6-0.2-1.4-0.3-2.2c-0.6-4.1-1.4-10.4,1.8-12.4c2.4-1.5,7.2-1.7,10.8-1.8c0.8,0,1.6-0.1,2.3-0.1c0.4,0,0.8,0,1.2,0
			c2.2,0.1,4.4,0.2,6.6,0.6c1.8,0.2,3.6,0.5,5.4,0.5c3.1,0.1,5,0.4,6.4,1.3c1.4,0.9,2.3,2.5,2.9,5.4c0.1,0.4,0.2,0.7,0.4,1.1
			c0.3,0.5,0.4,1.1,0.5,1.7c-0.1,1.5-0.3,3-0.7,4.4c-0.2,0.7-0.3,1.3-0.4,1.9c-0.5,2.9-1.5,4.9-3.2,6.1c-1.5,1.2-3.6,1.7-6.6,1.8
			C147.6,113.2,146,113.2,144.5,113.2z M148.7,106.2c-1.7,0.3-3.6,0.7-6,1.1l-0.3,0.1l0,0l-0.6,0.1h-0.2c0.7,0.1,1.3,0.1,1.9,0.2
			c0.7,0.1,1.3,0.2,2,0.2C146.8,108,148,107.3,148.7,106.2L148.7,106.2z M134.7,105.9L134.7,105.9l-0.3,0.1l0,0l-1.2,0.4l0,0h-0.1
			H133l-0.2,0.1l-0.4,0.1c0.9,0.1,1.8,0.2,2.6,0.3C134.8,106.6,134.7,106.2,134.7,105.9L134.7,105.9z M129.2,102.8
			c-0.1,0-0.3,0-0.4,0.1c-0.1,0.1-0.1,0.2-0.1,0.3c0,0.2,0,0.3,0.1,0.5c0,0.1,0.1,0.1,0.2,0.1c0.3,0,0.7-0.3,1.3-0.8l0,0l0,0
			c-0.2,0-0.3,0-0.5-0.1l0,0l0,0l0,0l0,0l0,0l0,0C129.6,102.8,129.4,102.8,129.2,102.8z M144.8,95.1c-0.1,0-0.2,0.1-0.2,0.1
			c-0.2,0.1-0.3,0.2-0.2,0.3l0,0c0.2,0,0.4-0.1,0.6-0.2l0,0l0,0l0,0h0.1C145,95.2,144.9,95.2,144.8,95.1z M153.2,93.7
			c0.8,1.2,1.3,1.3,1.4,1.3c0.1,0,0.1-0.1,0.1-0.1l0,0C154.7,94.5,154.2,93.8,153.2,93.7z"/>
	</g>
	<g id="Profile" transform="translate(541.767 418.288)" class="st0">
		<path id="face-3" class="st1" d="M45.1-6.9L45.1-6.9C41-6.9,36.9-8,33.4-10c-3.5-1.9-6.4-4.7-8.4-8.2c-1.4-2.5-2.1-5.3-2.1-8.1
			c0.1-3.2,1.1-6.3,2.8-9c-1.1-0.2-1.7-0.6-1.8-1.2c-0.2-1.6,3.5-3.9,4.4-4.4l0.3-0.2c3.2-1.7,6.5-3.5,10-4c1.5-0.2,3-0.3,4.5-0.3
			c4,0,8,0.8,11.6,2.4c3.6,1.6,6.7,4.3,8.6,7.8c1.1,2,1.8,4.2,1.9,6.5c0.2,2.2-0.1,4.5-0.7,6.7c-0.6,2.2-1.6,4.3-2.8,6.2
			c-1.2,1.9-2.8,3.6-4.5,5C53.8-8.3,49.5-6.9,45.1-6.9z M42.7-40.8c-4.7,0-9.3,1.9-12.5,5.4c-2.6,2.9-3.7,6.7-3.2,10.6
			c1,7.8,8.9,14.4,17.2,14.4c0.4,0,0.7,0,1.1,0c7.9-0.7,14.3-6.7,15.5-14.6c0.6-3.4-0.4-7-2.7-9.6c-3.1-3.6-8.9-6-15.1-6.1
			C43-40.8,42.8-40.8,42.7-40.8L42.7-40.8z"/>
		<path id="Fill_231" class="st1" d="M36.5-29c0,3.5,5.5,3.5,5.5,0S36.5-32.5,36.5-29"/>
		<path id="Fill_233" class="st1" d="M46.7-28.4c0,3.8,6,3.8,6,0S46.7-32.3,46.7-28.4"/>
		<path id="Fill_235" class="st1" d="M39.8-20.8c-0.8,2.9,8.3,4.4,8.7,1C48.6-21.4,40.4-22.9,39.8-20.8"/>
		<path id="Fill_237" class="st1" d="M66.6-22.6c10.5-1.3,21.4-0.7,32-0.4c2.6,0.1,5.3,0.2,7.9,0.2c1.7,0,5.3,0.8,6.8,0
			c6-3.2-5.8-4.8-7.5-4.9c-12.4-0.9-24.9-1.1-37.3-0.8C65.4-28.3,64.8-22.4,66.6-22.6"/>
		<path id="Fill_241" class="st1" d="M62.6-2.1c-4.1,0.3-7.8,2.3-11.9,2.3c-3.4,0-6.8-1-10.3-0.9c-4.1,0.2-6.3,2.8-9.8,3.7
			c-2.8,0.7-4.6-1.5-7.1-2.4C20.4-0.6,18,0,15.4,1.8c-2,1.3-6.6,4.4-6.5,7.1c0.1,8.2,9.7-3.1,11.6-3.3c2.6-0.2,5.4,2.7,8.2,2.9
			c3.6,0.2,5.9-2.1,9.3-3c3.4-0.9,7,0.2,10.4,0.5c3.9,0.4,7.2-0.5,10.9-1.4c3.4-0.9,6.9-0.9,10.4-0.1c2.5,0.5,8.6,3.4,9.7-0.3
			C80.8-0.9,65.4-2.4,62.6-2.1"/>
		<path id="Fill_243" class="st1" d="M63.8,13.6c-8.3,0.8-16.7,1.5-25,1.7c-3.6,0.1-17.5-1.5-16.3,3.1c1.1,3.9,20,1.5,23.8,1.2
			c4.3-0.3,8.5-0.8,12.7-1.3c1.5-0.2,5.1,0,6.2-1.3C66.3,15.8,65.8,13.4,63.8,13.6"/>
		<path id="have_a_nice_day_:_" class="st1" d="M9.1,48c-2.6,0-5.1-1.3-6.7-3.3s-2.5-4.5-2.6-7.1c-0.1-3.9,2.1-8.2,8.4-8.4h0.1
			c0.5,0,0.9,0.2,1.2,0.5c0.2,0.2,0.5,0.4,0.8,0.5l0,0c0.2-0.1,0.5-0.2,0.6-0.3l0.1-0.1c0.3-0.2,0.6-0.3,0.9-0.4l0,0
			c2.7,0.2,4.4,0.7,5.9,2.9c0.7,1.2,1.1,2.5,1.2,3.9c0,1.5-0.2,3-0.7,4.4c-1.1,3.3-3.4,5.9-5.9,6.8C11.4,47.8,10.3,48,9.1,48z
			 M11,33.7c-0.3,0-0.7,0.1-1,0.3l0,0c-0.5,0.3-1.1,0.5-1.7,0.5c-2.2,0-3.4,1.2-3.4,3.1c0.1,1.3,0.6,2.6,1.4,3.6
			c0.8,1.1,2,1.7,3.3,1.8c1.1,0,2.1-0.5,2.8-1.3c0.9-1,1.5-2.1,1.7-3.4c0.2-0.9,0.5-2.6-0.4-3.7C13.2,34,13,34,12.6,33.9l0,0
			c-0.2,0-0.5-0.1-0.7-0.1C11.6,33.8,11.3,33.7,11,33.7z"/>
		<path id="espero" class="st1" d="M43.9,46.1L43.9,46.1h-0.2c-2.1,0-4.1-1-5.5-2.6c-1.6-1.9-2.3-4.4-2-6.8c0.5-4.4,3.3-6.8,8.6-7.5
			c0.3,0,0.7-0.1,1-0.1c1.6,0,3.1,0.6,4.2,1.8c1.5,1.9,2.3,4.3,2,6.7c-0.1,2.1-0.9,4.2-2.3,5.8C48.3,45.2,46.2,46.2,43.9,46.1z
			 M42.7,35.2L42.7,35.2L42.7,35.2c-1,0.7-1.4,2.1-1,3.3c0.2,1.2,1.2,2,2.4,2.1c0.3,0,0.6-0.1,0.9-0.2c1-0.6,1.7-1.6,2-2.7
			c0.2-0.6,0.1-1.2-0.3-1.7v0.1c0,0-0.1,0-0.2,0c-0.8-0.1-1.5-0.2-2.2-0.4c-0.7-0.2-1.3-0.3-1.5-0.4L42.7,35.2z"/>
		<path id="hola" class="st1" d="M91.8,45.3L91.8,45.3c-1.8,0-3.6-0.7-4.9-2c-1.2-1.2-1.9-2.8-2-4.6c-0.2-1.9,0.2-3.8,1.3-5.3
			c1.2-1.8,3.1-3,5.2-3.4c-1.2-0.7-1.7-2.2-1-3.4c0.4-0.8,1.2-1.4,2.1-1.5c3,0,6.5,7,6.8,8.8c0.4,2.3,0.3,4.6-0.5,6.8
			c-0.8,2.2-2.6,3.9-4.9,4.3C93.1,45.2,92.4,45.2,91.8,45.3z M93.9,35.4L93.9,35.4c-3.1,0.3-3.4,1.6-3.4,2.1
			c0.1,0.9,0.8,1.7,1.8,1.7c0.4,0,0.7-0.2,0.9-0.4C93.7,38.4,94.1,37.5,93.9,35.4L93.9,35.4z"/>
	</g>
	<path id="Fill_251" class="st3" d="M696.8,463.2c-5.3,0.8-17.8,5.5-17.7,10.6c0.2,8,10.8-0.7,13.1-1.9c12.7-6.3,29.1,1.9,42.3,3.6
		c6.1,0.8,17.9,2.3,23.2-1c9.5-5.9-12.5-4.4-15.3-4.6C727.3,468.5,712.2,461,696.8,463.2"/>
	<g id="List" transform="translate(1028.138 481.083)" class="st0">
		<path id="Fill_253" class="st2" d="M2.4-42.4c0,5.7-0.3,11.5,0.8,17.1c0.3,1.7,0.6,5,2.4,5.8c1.3,0.7,3,0.2,3.7-1.1
			c0.1-0.3,0.2-0.5,0.3-0.8c0.5-2.1-0.6-5.4-0.7-7.6c-0.2-3.1-0.2-6.2-0.2-9.2c0-2.2,0.7-5.8-1.9-7c-1.8-0.7-3.6,0.1-4.2,1.8
			C2.4-43.1,2.4-42.7,2.4-42.4"/>
		<path id="Fill_257" class="st1" d="M99.1-19.5c-16.3,1.5-33.1,0-49.5,0.6c-8.6,0.3-17.2,0.8-25.8,1.1c-3.7,0.1-7.4,0.1-11.2,0.2
			c-1.8,0-9.9,1.1-4.9,4.6c2.2,1.6,9.3,0.3,11.8,0.3c3.8,0,7.6-0.2,11.5-0.4c8.9-0.3,17.7-0.8,26.6-1.1c8.5-0.2,16.9-0.3,25.4-0.5
			c4.2,0,8.5-0.3,12.7-0.9c0.9-0.1,4-0.2,4.7-1.3C101-17.9,100.6-19.7,99.1-19.5"/>
		<path id="Fill_259" class="st2" d="M22.9-22.3L22.9-22.3c-2.4,0-4.8-0.9-6.5-2.6c-1.6-1.6-2.5-3.6-2.7-5.8c-0.2-2,0.4-4,1.6-5.7
			c1.6-1.9,3.8-3.1,6.3-3.5c0.1,0,0.3,0,0.4,0c0.5,0,0.9,0.2,1.3,0.4c0.3,0.2,0.7,0.3,1.1,0.4c0.1,0,0.2,0,0.3,0c0.3,0,0.7,0,1-0.1
			c0.3-0.1,0.7-0.1,1-0.1s0.5,0,0.8,0.1c2.3,0.7,3.8,3,4.5,4.9c0.4,1.2,0.6,2.6,0.5,3.9c-0.2,2.5-1.5,4.8-3.5,6.3
			c-1.1,0.8-2.3,1.3-3.6,1.6C24.5-22.4,23.7-22.3,22.9-22.3z M25.5-34L25.5-34c-2.1,0-5.9,0.5-6.6,2.1c-0.3,0.7,0,1.6,1,2.6
			c0.8,0.9,1.9,1.4,3.1,1.4c1.5,0,2.9-0.9,3.6-2.3C27-31.5,26.6-33,25.5-34L25.5-34z"/>
		<path id="Fill_261" class="st2" d="M71.7-34.9c-7.9,0-15.8,0.4-23.8,0.5c-2.4,0-8.7-1-8.7,2.8c0,4.1,6.9,2.6,9.3,2.5
			c7.9-0.2,15.7-0.5,23.6-1.3c2-0.2,8.8,0.1,8.8-2.6C80.9-35.8,73.3-34.9,71.7-34.9"/>
		<path id="Fill_263" class="st1" d="M90.6-8.2C71.1-7.7,51.5-7.5,31.9-6.5c-7.3,0.4-14.6,0.7-22,0.7c-1.4,0-4.3-0.5-5.6,0.3
			C0.7-3.1,4.8-1,7.2-0.9C23.3,0,39.6-2.2,55.7-2.7C65.1-3,74.5-3.1,83.9-3.6c2.6-0.1,5.1-0.3,7.7-0.5c1.5-0.1,5.4,0.2,6.6-0.7
			C103.4-8.5,92.4-8.3,90.6-8.2"/>
		<path id="Fill_265" class="st1" d="M0.8,1.3c-0.3,5-0.1,10.1,0.5,15.1c0.3,2,0.4,4.2,2.7,4.7c2.1,0.5,3.2-1.1,3.6-2.9
			C8.7,13.9,7.7,7.6,7.7,3.1c0-2.2,0-4.7-2.8-5.2C3-2.5,1.2-1.2,0.8,0.7C0.8,1,0.8,1.2,0.8,1.3"/>
		<path id="Fill_267" class="st1" d="M111.4,13.6c-31.7,1.7-63.4,3.2-95.1,4.5c-2.5,0.1-21.7-0.1-15,6.6c2.1,2.1,7.4,0.7,10.1,0.5
			c4-0.2,8.1-0.3,12.1-0.6c16-0.8,32-1,48-1.9c8.8-0.5,17.6-1.3,26.3-2.3c4.2-0.5,9.3-0.4,13.2-2.1
			C113.1,17.5,115.3,13.4,111.4,13.6"/>
		<path id="Fill_269" class="st1" d="M93.2-12.2c-2.4,2.4-1.2,7.1-1,10.1c0.3,4.1,0.6,8.2,1.1,12.2c0.3,2.6,0.2,6.7,1.6,9
			c1.1,1.8,3.5,2.4,5.4,1.3c0.6-0.4,1.1-0.9,1.4-1.5c1.3-2.3,0.7-7.1,0.6-9.6c0-3.5-0.3-7-0.5-10.5c-0.2-2.9,0.5-7.6-1.1-10.1
			c-1.4-2.3-4.3-3-6.6-1.7C93.7-12.6,93.4-12.4,93.2-12.2"/>
		<path id="Fill_271" class="st1" d="M23.3,15.2L23.3,15.2c-0.5,0-1.1,0-1.6-0.1c-2.7-0.4-5-2.1-6.4-4.4c-1-1.8-1-4,0-5.9
			c0.9-1.6,2.4-2.8,4.2-3.2c1.8-0.5,3.7-0.8,5.6-0.8h0.5c0.2,0,0.4,0,0.5,0c2.1,0,4,0.9,5.5,2.4c1.3,1.3,1.9,3.1,1.8,4.9
			c-0.2,2.3-1.5,4.3-3.5,5.4C27.9,14.6,25.6,15.2,23.3,15.2z M20.8,6.5c-0.1,0-0.3,0.1-0.4,0.2c-0.5,0.6-0.6,1.5,0,2
			c0.6,1,1.7,1.5,2.8,1.5c2.3,0,4.7-1.7,4.8-3c0-0.5-0.2-1.1-1.7-1.4h-0.1C24.7,6,23.3,6.3,22,6.9c-0.1,0-0.1,0-0.2,0
			c-0.2,0-0.4-0.1-0.5-0.2C21.2,6.6,21,6.6,20.8,6.5z"/>
		<path id="Fill_273" class="st1" d="M55.6,3.3c-3.7,0.1-11-1-14.3,0.8c-3.2,1.8-1.8,5,1.1,5.7c1.9,0.5,5.1-0.3,7.1-0.4
			c2.6-0.1,5.3-0.1,7.9-0.2c4.4-0.1,8.9,0,13.3,0c4.5,0,9.2,0.1,13.7-0.2c5.7-0.4,5.6-4.7,0-5.3C75,2.8,65.1,3.1,55.6,3.3"/>
		<path id="Fill_275" class="st1" d="M46.1,51.4c0,2,1.8,0,1.8,0S46.1,49.4,46.1,51.4"/>
		<path id="Fill_277" class="st1" d="M5.1,35c0.1,5.9,0.2,11.9,0.4,17.8c0.1,1.9-0.5,5.5,1.8,6.5c2.5,1.1,3.3-1.6,3.6-3.4
			c0.9-5.7,0-12.2-0.1-18c0-1.9,0.4-4.6-1.8-5.6c-1.4-0.5-3.1,0.2-3.7,1.7C5.2,34.3,5.1,34.7,5.1,35"/>
		<path id="Fill_279" class="st1" d="M105.6,51.4L105.6,51.4c-1-0.1-1.9-0.7-2.3-1.6c-0.9-1.4-0.5-4-0.1-6.4
			c0.2-1.3,0.4-2.6,0.3-3.9c0-0.2,0-0.5-0.1-0.7c-0.1-1.7-0.2-3.2-1.7-3.8c-0.7-0.2-1.4-0.4-2.1-0.3c-0.8,0-1.8,0.1-2.6,0.2
			C96.3,35,95.6,35,95.1,35c-4.5,0-9.1,0-13.5,0C68,35,53.9,35.1,40,35.4c-8.2,0.2-14.5,0.4-20.3,0.7c-3.1,0.1-6.2,0.5-9.3,1.1
			c-1.3,0.3-2.5,0.4-3.8,0.4c-1.6,0-2.5-0.3-2.8-0.9s0-1.4,0.9-2.5c1.5-1.9,6.7-2.3,9.9-2.5c0.6,0,1.1-0.1,1.5-0.1
			c3.4-0.3,6.9-0.5,10.2-0.6l1.5-0.1c8.1-0.3,16.4-0.5,24.4-0.6h3c4.8-0.1,9.8-0.1,15.2-0.1c4,0,8.2,0,12.8,0.1
			c5.3,0,10.7,0.3,16.5,0.8c2.3,0.2,4,0.3,5.3,1s2.1,2,2.8,4.4c1,3.4,2.1,7.7,1.4,11.4C108.7,49.5,107.2,51.4,105.6,51.4z"/>
		<path id="Fill_281" class="st1" d="M91,54.8c-19.8,2.3-40.1,0.9-60,1c-4.8,0-9.7,0.1-14.5,0.3c-2.5,0.1-8.6-0.6-10.3,1.4
			c-3.7,4.1,3,4.8,5.4,4.6c4.9-0.3,9.8-0.5,14.7-0.5c17.3-0.1,34.7,0.7,52-0.2c7.2-0.5,14.4-1.5,21.4-3c1.6-0.3,12.3-2.4,6.2-4.8
			C102.2,52.1,94.8,54.3,91,54.8"/>
		<path id="Fill_284" class="st1" d="M30.6,54.3L30.6,54.3c-2.7,0.1-5.4-1-7.3-3c-3.3-3.8-1.1-7.6,1.5-10.9c0.6-0.7,1.4-1,2.3-0.9
			c0.9,0,1.8,0.2,2.7,0.4c0.5,0.1,0.9,0.2,1.3,0.3c0.3,0,0.5,0.1,0.8,0.1c2.1,0.3,3.3,0.4,4.9,2.2c1.5,1.7,2.3,4.1,2,6.4
			c-0.3,1.7-1.3,3.2-2.8,4C34.4,53.8,32.5,54.3,30.6,54.3z M31.3,45.5c-0.8-0.1-1.5,0.1-2.1,0.6c-0.1,0.1-0.2,0.3-0.2,0.5
			c0.1,0.5,0.9,1.1,2.2,1.1c0.5,0,1.1-0.1,1.6-0.2c-0.2-0.7-0.5-1.4-1-1.9C31.7,45.5,31.5,45.5,31.3,45.5z"/>
		<path id="Fill_286" class="st1" d="M52.3,46.5c0,4.4,19,2.5,22.4,2.5c2.8,0,19.9,1.6,18.7-3c-1-3.7-17.9-1.9-21.4-1.9
			C68.8,44.2,52.3,42.1,52.3,46.5"/>
	</g>
	<g id="Checkmark_" transform="translate(572.212 644.498)" class="st0">
		<path id="Fill_292" class="st1" d="M-78.1-322.3L-78.1-322.3c-2,0-3.9-0.3-5.8-0.9c-2-0.6-3.9-1.5-5.7-2.6
			c-4.2-2.5-7.6-6.1-10-10.4c-2.4-4.2-3.5-9.1-3.1-14c-0.5,0.4-1.1,0.6-1.7,0.6c-0.5,0-1-0.3-1.3-0.8c-0.6-1.5-0.6-3.1,0.1-4.5
			c1.1-1.8,2.3-3.6,3.7-5.1c0.2-0.3,0.5-0.6,0.7-0.9c1.9-2.5,4.3-4.4,7.1-5.8c2.8-1.3,5.9-2,9.1-1.9h0.4c5,0,9.9,1,14.5,2.8
			c2.3,0.9,4.4,2.2,6.4,3.8c3.9,3.1,6.5,7.5,7.2,12.5c0.4,2.5,0.3,5-0.1,7.4c-0.8,4.9-3.1,9.5-6.5,13.1
			C-67-324.8-72.4-322.4-78.1-322.3z M-84.8-362.9c-4.5,0-7.7,1.4-9.8,4.4c-2.6,3.7-3.7,8.2-3.1,12.7c1.1,8.3,9.5,18.3,18.6,18.8
			c0.3,0,0.5,0,0.8,0c9.7,0,17-9.9,17.1-18.7c0.1-12.3-12.1-15.9-19.3-16.9C-81.9-362.7-83.3-362.8-84.8-362.9z"/>
		<path id="Fill_294" class="st1" d="M-64.3-371.2c-4.4,3.4-8.4,7.3-11.8,11.8c-3.3,4.2-5.4,9.5-9.3,13.1c-2-2.2-4.3-8-8.2-5.7
			c-3.3,1.9-1.2,5.2,0.4,7.4c4.1,5.6,8.7,7.8,14,2.3c4.8-5,7.5-11.7,12-17c2-2.3,5-4.6,6.6-7.2C-59.2-368.8-61-373.6-64.3-371.2"/>
	</g>
	<g id="Whiteboard_Stuff" transform="translate(911.03 120.696)" class="st0">
		<path id="Wireframy_Stuff-2" class="st1" d="M67.8-7.4c-2.2-1-2.1-2.1-1.3-3c-0.5-1.2-0.5-3.2-0.6-4.1c-0.5-3.9-0.8-7.9-0.8-11.8
			c0-7.8,0-15.9,2.2-23.4c-0.8-0.2-1.3-0.9-1.4-1.7c0-3.9,12-3.8,18.1-3.7c1.3,0,2.3,0,2.9,0c4.4-0.1,8.7-0.1,13.1-0.1
			c1,0,2-0.1,3.1-0.1c2.2-0.2,4.4-0.2,6.5,0.2c5.6,1.3,5.2,10.9,5.3,15.5c0.2,8.4,0,16.9-0.6,25.3c-0.2,2.9-2.3,6.5-4.7,2.5
			c-1.3-2.2-0.7-7.3-0.7-9.8c0-8.6,1.3-17.5,0.1-26.1c-0.4-2.8-0.3-3-3.2-2.9c-2.3,0-4.5,0.1-6.8,0.2c-4.5,0-9.1,0.1-13.8,0.3
			c-1.8,0.1-8.1,1.2-13,1.2v0.1c0.1,3.3-1.6,7.4-1.8,10.9c-0.5,8.4,0.2,17-0.6,25.4c0,0.3,0,0.5-0.1,0.8c0.1,0,0.3,0,0.4,0
			c3.7-0.2,7.4-0.1,11.1-0.2c2.3-0.1,4.7-0.1,7.1,0c5.3,0.1,10.5-0.1,15.7-0.6c1.5-0.2,2.1,1.8,1.4,2.8c-0.8,1.1-3.2,1.1-4.4,1.2
			c-3.3,0.4-6.7,0.7-10,0.8c-3.5,0.2-7,0.3-10.6,0.4c-2,0.1-5.8,0.6-8.8,0.6C70.3-6.7,69-6.9,67.8-7.4z"/>
		<path id="Wireframy_Stuff-3" class="st1" d="M135.7-8.4c0-0.3,0.1-0.7,0.3-0.9c-0.7-0.7-1.1-1.6-1.4-2.5c-1.2-3.8-1.3-8-1.4-12
			c-0.2-8.5-0.1-17.1-0.1-25.6c-0.8-1-0.3-2.2,0.7-3.1c2.6-2.2,10.1-1.7,13.4-1.8c4.8-0.3,9.5-0.3,14.3-0.3c5,0,10.1,0.1,15.1,0.2
			c1.9,0.1,14.9,0.4,9.1,3.5c-0.4,0.2-0.7,0.3-1.1,0.5c0.2,1.2,0.3,2.4,0.2,3.6c-0.2,4.5-0.4,9.1-0.6,13.6
			c-0.2,5.1-0.4,10.1-0.6,15.2c-0.1,2.7,0.8,8.9-1.3,10.8c-0.5,0.5-1.1,0.8-1.8,0.9c-0.5,0-1-0.3-1.3-0.7
			c-3.6,1.1-10.7,0.9-15.2,0.7c-1.8-0.1-3.1-0.2-3.7-0.1c-2,0-8.7,0.7-14.6,0.7C140.4-5.7,135.7-6.3,135.7-8.4z M155.9-50.2
			c-5.3,0-10.5,0.3-15.8,0.9c-0.3,0-0.6,0.1-1,0.2c0.8,3.2-0.2,8.6-0.2,11.7c0,8.6,0.3,17.2,0.5,25.8c0,0.3,0,0.5,0,0.8
			c4.1-0.9,10.8-0.7,15.1-0.5c1.7,0.1,3.1,0.1,3.8,0.1c4.2,0,8.5,0,12.7,0.2c0.5,0,1.2,0,2.1,0c1.7-0.1,3.3,0,5,0.1
			c0-0.2,0-0.4,0-0.6c-0.2-4.6,0-9.2,0.2-13.7c0.1-4.6,0.4-9.2,0.6-13.8c0.1-2.4-0.5-7.3,0.1-10.7c-3.1-0.1-6.3-0.4-8.4-0.4
			c-2.6,0-5.2,0-7.8,0C160.4-50.3,158.1-50.3,155.9-50.2z"/>
		<path id="Fill_135" class="st2" d="M87.2-7.6c-3.1,1.8-1.4,9.1-0.4,11.7c1.8,4.2,5.4,7.4,9.3,9.6c7.9,4.4,19.2,3.2,25.2,10.8
			c0.1,0.1,2.1,2.1,2.6-0.5c0.4-2.2-3.5-5.5-5-6.6c-4.2-3.1-9.7-4.1-14.6-5.6c-5.2-1.6-11-4.7-13.2-10.1
			C90.5-0.4,91.9-10.4,87.2-7.6"/>
		<path id="Fill_137" class="st2" d="M158.7-4.1c-2.9,0.8-1,4.7-1,6.7c0,2.5-0.8,5-2.3,7c-3.9,5-11.4,5.7-17,7.2
			c-4.1,1-13.9,3.3-14.3,8.8c-0.4,6.2,8.2-1.3,9-1.7c8.1-3,18.6-3.5,24.8-10.1c2.6-2.7,4.1-6.3,4.3-10
			C162.3,1.7,162.4-5.1,158.7-4.1"/>
		<path id="Fill_139" class="st1" d="M123.1,70.6L123.1,70.6c-2.8,0-5.6-0.5-8.3-1.4c-2.7-0.9-5.3-2.3-7.6-4
			c-2.3-1.7-4.1-3.8-5.6-6.2c-1.4-2.5-2.2-5.2-2.2-8.1c0-2.7,0.6-5.4,1.8-7.8c1.2-2.3,2.9-4.4,4.8-6.1c4.1-3.4,9-5.9,14.2-7.2
			c1.7-0.4,3.4-0.7,5.1-0.7c4.8,0,9.4,1.8,12.9,5.1c3.6,3.4,5.9,7.9,6.4,12.8c0.7,5.7-1,11.5-4.7,15.9c-1.9,2.3-4.3,4.1-7,5.4
			c-2.8,1.4-5.9,2.1-9,2.2C123.7,70.5,123.4,70.6,123.1,70.6z M106.7,43.6c-2.4,4.2-2.6,8.4-0.4,12.2c3.1,5.3,10.3,9,17.6,9
			c2.4,0,4.8-0.5,7.1-1.4c7.3-3.4,9.3-11.3,8-17.3c-1.1-5.2-5.1-10.7-12.9-10.8c0.5,0.6,0.7,1.3,0.7,2.1c-0.1,0.4-0.4,0.8-0.7,1
			c-0.3,0.2-0.6,0.3-0.9,0.3c-0.7,0-1.2-0.7-1.6-1.3c-0.3-0.6-0.8-1-1.4-1.3c-0.2,0-0.4-0.1-0.5-0.1c-1.4,0-3.2,1.1-4.5,2.1
			c-0.7,0.6-1.4,1.3-2,2c-1.9,2.1-4.4,4.9-6.4,4.9C107.9,45,107.1,44.4,106.7,43.6z"/>
		<path id="Fill_141" class="st1" d="M115.2,47c0,2.6,4.2,2.6,4.2,0C119.3,44.4,115.2,44.3,115.2,47"/>
		<path id="Fill_143" class="st1" d="M122.5,46.5c0,3.2,5.1,3.2,5.1,0S122.5,43.2,122.5,46.5"/>
		<path id="Fill_145" class="st1" d="M117.3,54c-4.2,2.5,7.7,7.3,8.2,2.3c0.2-2.1-1.9-1.6-3.3-1.7C120.9,54.5,118.5,53.3,117.3,54"
			/>
		<path id="Fill_147" class="st2" d="M115.5,71.4c0.2,6.3,0.1,12.5,1.3,18.7c0.2,1.2,0.4,5.4,1.3,6.3c2.3,2.1,2.3-2,2.4-3.5
			c0.3-5.6-0.3-11.4-0.4-17.1c0-1.2,0.3-3.7-0.3-4.9C118.9,69,115.4,68.4,115.5,71.4"/>
		<path id="Fill_149" class="st2" d="M111,66.3c-9.1,10.3-21.7,9.5-34.4,10.4c-6.7,0.5-13.5,1.4-18.9,5.8c-2.5,2-4.6,4.5-6.1,7.4
			c-0.6,1.3-3.6,8.5,0.9,6.8c1.6-0.6,3.2-5.4,4.2-6.8c1.9-2.7,4.5-4.9,7.5-6.4c5.8-2.8,12.8-2.7,19.2-3.1c6.6-0.4,13.7-0.7,19.8-3.6
			c2.9-1.3,5.5-3.1,7.9-5.2c0.8-0.8,2.6-2.1,2.7-3.3C114,66.9,112.7,64.4,111,66.3"/>
		<path id="Fill_151" class="st1" d="M64.9,97.8c-8.6,0.3-17.1,0.6-25.7,1.2c-1.8,0.1-7.6-0.2-6.1,3.4c1.2,2.9,8.3,1,10.7,0.8
			c8.9-0.5,17.9-0.7,26.8-1.5c2-0.2,11-0.1,7.3-3.7C76.1,96.3,67.4,97.7,64.9,97.8"/>
		<path id="Fill_153" class="st1" d="M27.6,101.9c-2.7,3.6-1.5,12.2-1.3,16.5c0.2,4.1-0.6,11.7,4.8,12.3c-1.7-0.2,1.3,0.1,1.8,0.1
			c1.1,0.1,2.2,0.1,3.3,0.1c2.5,0,5.1,0,7.6-0.1c5.7-0.1,11.5-0.3,17.2-0.6c2.4-0.1,15.5,0,16-2.5c0.7-3.2-11.9-1.4-14.1-1.3
			c-5.5,0.3-10.9,0.3-16.4,0.4c-2.7,0-5.4,0.1-8.1,0c-1.1,0-5.6,0.4-6.2-0.3c-0.6-0.6-0.1-6.5-0.1-7.4c0-2.9,0-5.8,0.1-8.8
			c0.1-2,1.1-5.7,0.3-7.5c-0.7-1.5-2.5-2.2-4-1.5C28.1,101.5,27.9,101.7,27.6,101.9"/>
		<path id="Fill_155" class="st1" d="M71.8,102.1c0.2,6.5,0.2,13.1,1.7,19.5c0.5,2.1,1.2,6.5,3.4,7.6c2.2,1.1,4.2-0.5,4.3-2.7
			c0.2-2.8-1.3-6.4-1.6-9.3c-0.4-3.3-0.6-6.7-0.7-10c-0.1-2.5,0.7-6.3-1.7-7.9c-1.6-1.1-3.7-0.6-4.8,1
			C72,100.8,71.8,101.4,71.8,102.1"/>
		<path id="Wireframy_Stuff-4" class="st1" d="M94.8,128.4c-2-0.1-4.2-0.8-3.7-3.4c0.5-2.3,2.8-2.4,4.7-2.6
			c5.8-0.6,11.6-0.8,17.4-0.8c12.2,0,24.5,0,36.7-0.1c0.5,0,1,0.2,1.4,0.5c-0.6-0.8-0.3-1.9-0.5-3c-0.3-3-0.5-6-1.1-9
			c-0.5-2.4-0.8-6.5-3-8.1c-1.9-1.3-5.6-1.2-8.6-1.2c-0.8,0-1.6,0-2.2,0c-7.9-0.1-15.8,0.3-23.6,1.1c-3.6,0.3-7.2,0.6-10.7,1.2
			c-2,0.4-7.7,3.2-9.3,1.5c-3.8-4.3,12.8-6,15.1-6.3c8-0.8,16-1.4,24.1-1.5c5.4,0,14.8-0.5,18.8,4c2.4,2.7,3.2,7.1,4.2,10.4
			c0.7,2.6,2.7,7.2,1.3,9.9c-0.6,1.2-1.6,2.2-3.2,1.8c-0.3-0.1-0.6-0.2-0.9-0.4c0.6,0.6,0.8,1.6,0.5,2.4c-0.9,2.1-4.3,1.7-6.1,1.8
			c-6.1,0.5-12.3,0.9-18.4,0.9c-2.9,0-5.8,0-8.8,0s-6-0.1-9,0c-4.5,0-9.2,0.9-13.6,0.9C95.7,128.5,95.2,128.5,94.8,128.4z"/>
		<path id="Line" class="st2" d="M196.8,93.2L196.8,93.2c-1.5,0-3-2.5-4-4.2c-0.3-0.5-0.5-0.9-0.9-1.3c-1.7-2.4-4.1-4.1-6.8-5.1
			c-5.2-1.8-11-2.4-16.5-3.1c-1.9-0.2-3.9-0.4-5.7-0.7c-1-0.1-2-0.3-3-0.4c-5-0.6-10.7-1.4-15-3.8c-1.9-1.1-7.8-6.5-7.9-10.1
			c0-1,0.5-1.9,1.4-2.4c0.4-0.3,1-0.4,1.5-0.5c1.4,0,2.2,1.6,2.9,2.9c0.2,0.4,0.4,0.9,0.7,1.2c1.6,2.6,4.2,4.5,7.2,5.2
			c4.6,1.2,9.2,2.1,13.9,2.7c1.2,0.2,2.4,0.4,3.7,0.6c1,0.2,2,0.3,3,0.5c5.5,0.8,11.2,1.7,16.2,3.9c2.3,1.4,4.4,3.1,6.2,5.1
			c1.7,1.8,4.6,5.1,4.8,7.4c0.1,0.8-0.3,1.5-1,1.8C197.3,93.2,197,93.2,196.8,93.2z"/>
		<path id="Wireframy_Stuff-5" class="st1" d="M168.3,127.5c-2.1-0.2-4.3-0.9-3.8-3.6c-1.5-2.8-2.1-8.2-2.3-9.2
			c-0.5-4.5-0.7-9.1-0.5-13.7c0-1.7,1.4-3,3.1-2.9c0.6,0,1.2,0.2,1.7,0.6c2.5-1,6.7-1.2,9-1.4c3.7-0.4,7.5-0.5,11.2-0.7
			c8.7-0.5,17.5-1.5,26.2-1.7c2.6-0.1,6.1-0.3,8.2,1.6c2.4,2.2,2.9,7.7,3.6,10.6c0.9,3.2,1.6,6.4,2,9.7c0.2,1.1,0.2,2.2,0.2,3.3
			c1.1,0.2,1.8,1.3,1.6,2.4c-0.2,2.1-3.2,2.4-4.9,2.8c-5.8,1.1-12,0.9-17.8,1c-9.5,0.3-19.5,1.5-29.2,1.5
			C173.9,127.9,171.1,127.8,168.3,127.5z M169.5,121.4c0.3,0,0.5,0,0.8,0c6.2-0.1,12.3-0.3,18.5-0.5c6.3-0.2,12.6-0.5,18.9-0.6
			c2.2,0,4.4,0,6.6,0.1c2.9,0.1,5.7,0.2,8.5,0.1c-1.1-2.8-0.9-7.3-1.5-10.2s-0.8-6.4-2-9.1c-1.3-3.1-2.5-2.4-5.9-2.1
			c-3.5,0.2-7.1,0.6-10.6,0.9c-7.8,0.6-15.5,1-23.3,1.6c-4,0.3-7.9,1.4-11.8,1.9c-0.1,1.4-0.3,2.8-0.2,3.8c0.1,3,0.4,6,0.6,9
			c0.1,1.2,0.6,3.3,0.7,5.2L169.5,121.4L169.5,121.4z"/>
	</g>
</g>
<g>
	
		<linearGradient id="shadow-5_1_" gradientUnits="userSpaceOnUse" x1="545.6572" y1="302.4341" x2="544.8343" y2="302.4341" gradientTransform="matrix(-405.715 0 0 -52.073 222124.6875 16298.8945)">
		<stop  offset="0" style="stop-color:#D0DCF1"/>
		<stop  offset="1" style="stop-color:#FFFFFF;stop-opacity:0"/>
	</linearGradient>
	<path id="shadow-5" class="st4" d="M921.2,565.8l-176.9-22c-7.4-1-14.4-4.1-20-9.1l0,0L966,550.2"/>
	
		<linearGradient id="shadow-6_1_" gradientUnits="userSpaceOnUse" x1="545.8182" y1="326.2908" x2="544.9954" y2="326.2908" gradientTransform="matrix(-400.339 0 0 -20.943 219360.1563 7366.5884)">
		<stop  offset="0" style="stop-color:#D0DCF1"/>
		<stop  offset="1" style="stop-color:#FFFFFF;stop-opacity:0"/>
	</linearGradient>
	<path id="shadow-6" class="st5" d="M1009.6,539.3L844,533.1c-5.6-0.3-10.9-2.5-15-6.3h238.5"/>
	<g id="elbow" transform="translate(1 235)">
		<path id="Mask-10" class="st6" d="M876.4,29.7c-10.3,0-11.2,20.6-11.2,20.6s10.1,28.1,21.6,22.7c11.4-5.4,2.7-26.3,2.7-36.9
			S886.8,29.7,876.4,29.7z"/>
		<g>
			<defs>
				<path id="SVGID_1_" d="M876.4,29.7c-10.3,0-11.2,20.6-11.2,20.6s10.1,28.1,21.6,22.7c11.4-5.4,2.7-26.3,2.7-36.9
					S886.8,29.7,876.4,29.7z"/>
			</defs>
			<use xlink:href="#SVGID_1_"  style="overflow:visible;fill:#EDAF85;"/>
			<clipPath id="SVGID_2_">
				<use xlink:href="#SVGID_1_"  style="overflow:visible;"/>
			</clipPath>
			<g id="elbow-2" class="st7">
				<path id="Path_7" class="st8" d="M870.8,44.2c0,0-1.2,18,0,18.6c1.2,0.6,1.7-5.5,3.7-7.8c2.1-2.3,14.6-12.3,15.6-14.1
					C891,39,870.8,44.2,870.8,44.2z"/>
			</g>
		</g>
	</g>
	<g id="shoe" transform="matrix(0.999, 0.035, -0.035, 0.999, 40.825, 639.723)">
		
			<linearGradient id="Path_90_1_" gradientUnits="userSpaceOnUse" x1="487.3675" y1="-353.3975" x2="487.7739" y2="-352.9828" gradientTransform="matrix(-73.322 3.5545 -0.6023 -45.3258 36354.875 -17884.8086)">
			<stop  offset="0" style="stop-color:#47689B"/>
			<stop  offset="1" style="stop-color:#223762"/>
		</linearGradient>
		<path id="Path_90" class="st9" d="M811.3-160.5c-6.5,6.3-11.2,8.9-15.8,9.3c-4.6,0.3-15,1.1-13.1,9.1s22.4,6.7,25.9,4.5
			s4.5,1.6,6.8,1.4s9.2-2.1,10.5-4.9c1.2-2.8-0.7-9.6-1.1-15.1S817.8-166.8,811.3-160.5z"/>
		<g id="Group_9" transform="translate(39 14)">
			<path id="Path_14" class="st10" d="M762.7-167.4c-0.8,0.1-4.1,3.4-2.7,6.1"/>
			<path id="Path_14_Copy" class="st10" d="M757-165.8c-0.9,0.1-3.2,1.4-2.7,4.6"/>
		</g>
	</g>
	<g id="shoe-2" transform="matrix(0.996, -0.087, 0.087, 0.996, 212.14, 659.312)">
		
			<linearGradient id="Path_90-2_1_" gradientUnits="userSpaceOnUse" x1="358.0484" y1="-324.4138" x2="358.4548" y2="-323.9991" gradientTransform="matrix(-72.7458 -8.8044 1.5283 -45.5457 27109.8477 -11686.5039)">
			<stop  offset="0" style="stop-color:#47689B"/>
			<stop  offset="1" style="stop-color:#223762"/>
		</linearGradient>
		<path id="Path_90-2" class="st11" d="M552.9-93.8c-7.8,4.6-13,6-17.6,5.2c-4.6-0.8-14.8-2.6-14.9,5.7c-0.1,8.3,20.1,12,24,10.6
			c3.9-1.4,4,2.6,6.3,3c2.3,0.4,9.5,0.2,11.4-2.2s1.7-9.5,2.6-14.9C565.6-91.8,560.7-98.4,552.9-93.8z"/>
		<g id="Group_9-2" transform="translate(39 14)">
			<path id="Path_14-2" class="st12" d="M502.8-103.3c-0.8-0.1-4.8,2.3-4.1,5.3"/>
			<path id="Path_14_Copy-2" class="st12" d="M496.9-103.1c-0.9-0.1-3.4,0.6-3.7,3.8"/>
		</g>
	</g>
	<g id="jeans" transform="translate(40 341)">
		
			<linearGradient id="Mask-11_1_" gradientUnits="userSpaceOnUse" x1="504.1555" y1="-53.0417" x2="504.3259" y2="-52.4053" gradientTransform="matrix(-200.1631 0 0 -329.0597 101702.5938 -17240.2266)">
			<stop  offset="0" style="stop-color:#CFDDF3"/>
			<stop  offset="1" style="stop-color:#A1B8E3"/>
		</linearGradient>
		<path id="Mask-11" class="st13" d="M824.5-13.8c3.3,13.8,1,37.8,0,50.1S821,78.8,821,95.4s9.4,64.5,9.4,74c-4.4,1-15.6,3.6-17.8,0
			c-4.7-10.1-18.5-72.6-18.5-72.6s-9.4-35.4-9.4-48.6c-12.2,20.3-30.8,38.9-39,59.1s-17.7,72.3-19.2,73.2s-10.3,3.9-15.2-1.1
			c-1-10.2,6.1-73.5,9.1-92.2c2.9-18.7,25.4-101,25.4-101H824.5z"/>
		<g>
			<defs>
				<path id="SVGID_3_" d="M824.5-13.8c3.3,13.8,1,37.8,0,50.1S821,78.8,821,95.4s9.4,64.5,9.4,74c-4.4,1-15.6,3.6-17.8,0
					c-4.7-10.1-18.5-72.6-18.5-72.6s-9.4-35.4-9.4-48.6c-12.2,20.3-30.8,38.9-39,59.1s-17.7,72.3-19.2,73.2s-10.3,3.9-15.2-1.1
					c-1-10.2,6.1-73.5,9.1-92.2c2.9-18.7,25.4-101,25.4-101H824.5z"/>
			</defs>
			<clipPath id="SVGID_4_">
				<use xlink:href="#SVGID_3_"  style="overflow:visible;"/>
			</clipPath>
			<path id="Path_10" class="st14" d="M783,52.5c0,0,7.4-14.6,8.4-17.3c1-2.7,5.1,63.1,5.1,71.2S783,52.5,783,52.5z"/>
			
				<linearGradient id="Path_6_1_" gradientUnits="userSpaceOnUse" x1="503.1909" y1="-39.4597" x2="503.1349" y2="-39.1171" gradientTransform="matrix(-130.8552 0 0 -45.1608 66620.3828 -1774.0768)">
				<stop  offset="0" style="stop-color:#CFDDF3;stop-opacity:0.478"/>
				<stop  offset="1" style="stop-color:#A1B8E3"/>
			</linearGradient>
			<path id="Path_6" class="st15" d="M745.8-15.3c-0.9,3.6-4.1,13-4.1,15.2c3.8,4.5,12.2,7.6,25.3,10c26.5,4.8,47.1-7.2,52.3-10
				C825.8-3.6,746.7-18.9,745.8-15.3z"/>
		</g>
	</g>
	<path id="Mask-12" class="st6" d="M846.3,164.3c10.1,12.1,4.1,35.9,4.1,35.9l-1,16.5h-22.3c0,0-3.1-12.7-6.5-16.5
		c-3.4-3.7-9.2-6.5-11.1-10.7c-1.9-4.2,2.2-16.7,2.2-16.7l-2.2-8.5c0,0,2.6-1.2,7.7-3.7c5.1-2.5,8.2-8.4,8.2-8.4
		S836.2,152.2,846.3,164.3z"/>
	<g>
		<defs>
			<path id="SVGID_5_" d="M846.3,164.3c10.1,12.1,4.1,35.9,4.1,35.9l-1,16.5h-22.3c0,0-3.1-12.7-6.5-16.5
				c-3.4-3.7-9.2-6.5-11.1-10.7c-1.9-4.2,2.2-16.7,2.2-16.7l-2.2-8.5c0,0,2.6-1.2,7.7-3.7c5.1-2.5,8.2-8.4,8.2-8.4
				S836.2,152.2,846.3,164.3z"/>
		</defs>
		<clipPath id="SVGID_6_">
			<use xlink:href="#SVGID_5_"  style="overflow:visible;"/>
		</clipPath>
		<g id="Path_3" class="st16">
			<path id="Path_3-2" class="st17" d="M823.6,214c2.3,0-1.4-0.7-2.4-3c-1.3-2.9,14.5-21.4,12.8-19.7c-1.7,1.7-10.5,6.7-16.1,6.7
				S815.1,214,823.6,214z"/>
			<path id="Path_3-3" class="st18" d="M823.6,214c2.3,0-1.4-0.7-2.4-3c-1.3-2.9,14.5-21.4,12.8-19.7c-1.7,1.7-10.5,6.7-16.1,6.7
				S815.1,214,823.6,214z"/>
		</g>
	</g>
	
		<linearGradient id="hair_1_" gradientUnits="userSpaceOnUse" x1="541.9493" y1="290.913" x2="542.1364" y2="290.5769" gradientTransform="matrix(-93.3559 0 0 -127.0419 51452.5547 37088.6406)">
		<stop  offset="0" style="stop-color:#164898"/>
		<stop  offset="1" style="stop-color:#223762"/>
	</linearGradient>
	<path id="hair" class="st19" d="M835,196.6c0,0-5.6-5.9-2.9-12.4c0-1.8,7.9-4.3,5.8-11.3c-2.1-7-10.4-1.8-10.4-1.8s-4.2-2.8,0-6.2
		c4.2-3.4,2.6-6.6,2.6-6.6c-5.3-4.3-8.4-10.7-8.4-17.5c5.8-26.6,37.1-19.2,50.6,2.6c13.4,21.9-2.1,37.6-21.8,56
		C837.9,199.5,835,196.6,835,196.6z"/>
	
		<linearGradient id="sleeve_1_" gradientUnits="userSpaceOnUse" x1="539.4512" y1="292.6469" x2="539.9011" y2="292.7452" gradientTransform="matrix(-58.2652 0 0 -97.274 32324.7285 28728.5293)">
		<stop  offset="0" style="stop-color:#EDF3FD"/>
		<stop  offset="1" style="stop-color:#D6E3FA"/>
	</linearGradient>
	<path id="sleeve" class="st20" d="M859.9,235.8l10.9,46.5c0,0,26.2-4.7,23.6-12.8c-2.5-8.1-23.6-45.1-23.6-45.1L859.9,235.8z"/>
	<g id="shirt" transform="translate(33 146)">
		<path id="Mask-13" class="st21" d="M811.4,67.4c6.3-1.2,6-2.4,6-2.4s13.1,7.8,18.8,11.8c5.6,4,5.6,51.9,5.6,51.9
			s-4.7,53.1-8.8,61.8s-54.5,11.2-72.3,0c-17.8-11.2-6.3-25.6-3.6-45.4s0.6-53.1,9.9-64.2s25.2-15.3,25.2-15.3S805,68.5,811.4,67.4z
			"/>
		<g>
			<defs>
				<path id="SVGID_7_" d="M811.4,67.4c6.3-1.2,6-2.4,6-2.4s13.1,7.8,18.8,11.8c5.6,4,5.6,51.9,5.6,51.9s-4.7,53.1-8.8,61.8
					s-54.5,11.2-72.3,0c-17.8-11.2-6.3-25.6-3.6-45.4s0.6-53.1,9.9-64.2s25.2-15.3,25.2-15.3S805,68.5,811.4,67.4z"/>
			</defs>
			<clipPath id="SVGID_8_">
				<use xlink:href="#SVGID_7_"  style="overflow:visible;"/>
			</clipPath>
			
				<linearGradient id="Path_4_2_" gradientUnits="userSpaceOnUse" x1="505.6006" y1="145.0009" x2="505.7359" y2="145.2041" gradientTransform="matrix(-57.4533 0 0 -135.2948 29814.0117 19764.9863)">
				<stop  offset="0" style="stop-color:#CFDDF3"/>
				<stop  offset="1" style="stop-color:#A1B8E3"/>
			</linearGradient>
			<path id="Path_4" class="st22" d="M761.9,108.4c0,0-13.4,26-16.3,36.6c-3,10.6,3,41.6,7.1,38.9c4.1-2.7,7.5-25.4,12.6-32.9
				c5.2-7.5,13.7-47.5,13.7-47.5L761.9,108.4z"/>
			
				<linearGradient id="Path_11_1_" gradientUnits="userSpaceOnUse" x1="507.2148" y1="203.612" x2="507.0408" y2="205.3323" gradientTransform="matrix(-67.0106 0 0 -9.7025 34774.957 2054.8865)">
				<stop  offset="0" style="stop-color:#CFDDF3"/>
				<stop  offset="1" style="stop-color:#A1B8E3"/>
			</linearGradient>
			<path id="Path_11" class="st23" d="M790.7,66c-4.1,0-11.7,1.8-14.1,1.8s-4,1.6,0,2.8c4,1.2,6.6,1.1,15,1.1
				c8.4,0,18.3-1.4,22.1-3.9S794.8,66,790.7,66z"/>
		</g>
	</g>
	<path id="colar" class="st24" d="M841.2,214.7c-15.9,1.3-18.9-2.7-18.9-3.1c0-0.9-0.2-1.3,1.1-6.2c11.8-1.1,28.3-3.9,28.3-1.9
		c0,2-0.5,8.1-0.5,8.1C848.1,213.4,844.7,214.4,841.2,214.7z"/>
	<path id="Oval" class="st25" d="M779,267.1c2.2-2.1,4.4-7.3,0.8-15.3c-3.6-8-8.9-16.5-12.6-14.8c-3.8,1.7-1.7,14,1.8,21.9
		S776.5,267.6,779,267.1z"/>
	<path id="Mask-14" class="st6" d="M780.7,240.8c3,3.7,4.5,13.6,4.5,13.6S761.5,267.2,750,268s-14.4-8.7-16.7-22.3
		c-2.3-13.6-9.3-47.5-8.8-49.5s-6.5-11.4-8-16.6c-1.2-3.7,0.1-7.7,3.3-9.9c1.8-1.1,8.2-3.2,8.6-4.9c0.4-1.6-3.2-11.1-3.9-12.8
		c-0.6-1.7-0.8-3.6,0.8-4.3c1.6-0.7,3.2,0.6,4.1,2.8c0.9,2.1,8.9,19.2,10.2,19.5c1.3,0.3,1.8-0.5,3.6,1.8c1.8,2.2,1.9,8.3,1.3,10.8
		s-4.6,9.8-3.7,14.9c0.9,5.1,15.7,44.5,15.7,44.5l16.6-6.9C773.1,235.2,777.8,237.1,780.7,240.8z"/>
	<g>
		<defs>
			<path id="SVGID_9_" d="M780.7,240.8c3,3.7,4.5,13.6,4.5,13.6S761.5,267.2,750,268s-14.4-8.7-16.7-22.3
				c-2.3-13.6-9.3-47.5-8.8-49.5s-6.5-11.4-8-16.6c-1.2-3.7,0.1-7.7,3.3-9.9c1.8-1.1,8.2-3.2,8.6-4.9c0.4-1.6-3.2-11.1-3.9-12.8
				c-0.6-1.7-0.8-3.6,0.8-4.3c1.6-0.7,3.2,0.6,4.1,2.8c0.9,2.1,8.9,19.2,10.2,19.5c1.3,0.3,1.8-0.5,3.6,1.8
				c1.8,2.2,1.9,8.3,1.3,10.8s-4.6,9.8-3.7,14.9c0.9,5.1,15.7,44.5,15.7,44.5l16.6-6.9C773.1,235.2,777.8,237.1,780.7,240.8z"/>
		</defs>
		<clipPath id="SVGID_10_">
			<use xlink:href="#SVGID_9_"  style="overflow:visible;"/>
		</clipPath>
		<g id="Path_2-2" class="st26">
			<path id="Path_2-3" class="st25" d="M776.8,248.4c1.9,4,2.1,12.9,2.1,12.9s-12.1,8.6-9.9,2.5s-1.3-26.7-1.3-26.7
				S774.9,244.3,776.8,248.4z"/>
			<path id="Path_9" class="st27" d="M752.5,244.9c1.1-1.5,2.6-2.6,4.3-3.3"/>
		</g>
	</g>
	
		<linearGradient id="Path_85_1_" gradientUnits="userSpaceOnUse" x1="544.913" y1="294.001" x2="544.913" y2="293.5934" gradientTransform="matrix(-71.5398 -34.8548 43.7941 -89.8879 26909.4766 45639.3008)">
		<stop  offset="0" style="stop-color:#D6E3FA"/>
		<stop  offset="1" style="stop-color:#E3EDFE"/>
	</linearGradient>
	<path id="Path_85" class="st28" d="M810.6,249.7c16.1-11.8,8.4-35.5,0-31.9c-8.4,3.6-16.8,7.7-43.6,19.2c7.5,7.7,10.2,20.6,12.1,30
		C783.6,265.1,794.6,261.5,810.6,249.7z"/>
</g>
<g>
	<g>
		<g id="shoe_1_" transform="translate(385 219)">
			<path class="st29" d="M64.1,332.3H50.5c-1.9-3.9-3.1-7.3-3.7-10.1c-0.9-4.2-2.3-7.3-0.9-13.1c1.4-5.7,17.4-8.9,19.4-7.1
				c2,1.8,1.7,2.8,9.7,7.1c4.8,2.6,13.8,6.7,26.9,12.4c2.5,1.1,4.2,3.6,4.2,6.4c0,2.5-2.1,4.6-4.6,4.7c-14.2,0.2-23.1,0.4-26.6,0.4
				c-3.7-1.4-7.3-3-10.8-5.1L64.1,332.3L64.1,332.3z"/>
			<path id="Shape_9_copy_3" class="st30" d="M81.2,316c0.9-1,5.8-4.1,8-2.2"/>
		</g>
		<g id="leg" transform="translate(240)">
			<g>
				<path id="Mask_Path" class="st31" d="M128.9,453.3c0,0,41.7-23.2,52.2-27.5c10.5-4.3,27.1-8.8,29.4-7.1
					c2.3,1.6,16.2,13.6,20.7,32c4.4,18.4,7.5,71.9,12.8,75.9c-6.3,5-52.5,12.7-62.9,9.2c0-12.6-2-44.1,0-50.2
					c-3.9,1.9-29.4,14.8-39.9,17.6c-5.1,1.4-16-11.3-17.8-23.9C121.6,466.3,128.9,453.3,128.9,453.3z"/>
				
					<radialGradient id="Mask_Path-2_1_" cx="1148.3245" cy="222.6306" r="0.205" gradientTransform="matrix(258.3484 0 0 -253.075 -296454.3438 56760.5703)" gradientUnits="userSpaceOnUse">
					<stop  offset="0" style="stop-color:#E36359;stop-opacity:0.361"/>
					<stop  offset="1" style="stop-color:#704840;stop-opacity:0"/>
				</radialGradient>
				<path id="Mask_Path-2" class="st32" d="M128.9,453.3c0,0,41.7-23.2,52.2-27.5c10.5-4.3,27.1-8.8,29.4-7.1
					c2.3,1.6,16.2,13.6,20.7,32c4.4,18.4,7.5,71.9,12.8,75.9c-6.3,5-52.5,12.7-62.9,9.2c0-12.6-2-44.1,0-50.2
					c-3.9,1.9-29.4,14.8-39.9,17.6c-5.1,1.4-16-11.3-17.8-23.9C121.6,466.3,128.9,453.3,128.9,453.3z"/>
				
					<linearGradient id="Mask_Path-3_1_" gradientUnits="userSpaceOnUse" x1="1148.2826" y1="222.3943" x2="1148.0963" y2="222.3555" gradientTransform="matrix(258.3484 0 0 -253.075 -296454.3438 56760.5703)">
					<stop  offset="0" style="stop-color:#2D4063;stop-opacity:0"/>
					<stop  offset="1" style="stop-color:#120F3B"/>
				</linearGradient>
				<path id="Mask_Path-3" class="st33" d="M128.9,453.3c0,0,41.7-23.2,52.2-27.5c10.5-4.3,27.1-8.8,29.4-7.1
					c2.3,1.6,16.2,13.6,20.7,32c4.4,18.4,7.5,71.9,12.8,75.9c-6.3,5-52.5,12.7-62.9,9.2c0-12.6-2-44.1,0-50.2
					c-3.9,1.9-29.4,14.8-39.9,17.6c-5.1,1.4-16-11.3-17.8-23.9C121.6,466.3,128.9,453.3,128.9,453.3z"/>
			</g>
			
				<linearGradient id="SVGID_11_" gradientUnits="userSpaceOnUse" x1="1092.4529" y1="241.3694" x2="1092.4529" y2="241.7536" gradientTransform="matrix(31.543 0 0 -55.881 -34271.4219 13988.4053)">
				<stop  offset="0" style="stop-color:#8DC6D5;stop-opacity:0"/>
				<stop  offset="1" style="stop-color:#377DFF;stop-opacity:0.3"/>
			</linearGradient>
			<path class="st34" d="M183,483.9c2.6-2,10.2-8.7,12.2-9.6c-3.3,6.6-6.5,20-6.5,26.2c-2.9-1.9-5.7-3.9-8.3-6.1
				C180.5,488.6,181.3,485.1,183,483.9z"/>
		</g>
		
			<linearGradient id="inside_pants_1_" gradientUnits="userSpaceOnUse" x1="1822.0712" y1="230.8736" x2="1821.856" y2="231.1866" gradientTransform="matrix(34.7099 0 0 -101.6208 -62929.0234 24007.4023)">
			<stop  offset="0" style="stop-color:#221616"/>
			<stop  offset="1" style="stop-color:#503889"/>
		</linearGradient>
		<path id="inside_pants" class="st35" d="M307.3,507.1c-2.2,1.8-4.4,46.6,0,47.5c4.4,0.9,16.1-9.4,13.2-28.5
			C317.6,507,309.6,509.2,307.3,507.1z"/>
		<g id="ankle" transform="translate(96 243)">
			<path class="st6" d="M225.9,291.3c-5.1,2.6-12,1.5-20.8-3.6c-2.2,4.9-3.6,8.3-4.2,10.2c-2.8,8.6-1.9,13,2.7,13.3
				c6.2,0.4,13.6,0.7,22.4,0.7C231,295.6,231,288.7,225.9,291.3z"/>
			<g>
				<g>
					<g>
						<defs>
							<path id="SVGID_12_" d="M225.9,291.3c-5.1,2.6-12,1.5-20.8-3.6c-2.2,4.9-3.6,8.3-4.2,10.2c-2.8,8.6-1.9,13,2.7,13.3
								c6.2,0.4,13.6,0.7,22.4,0.7C231,295.6,231,288.7,225.9,291.3z"/>
						</defs>
						<clipPath id="SVGID_13_">
							<use xlink:href="#SVGID_12_"  style="overflow:visible;"/>
						</clipPath>
						
							<linearGradient id="Path_4_3_" gradientUnits="userSpaceOnUse" x1="1527.9531" y1="-0.85" x2="1527.9037" y2="-1.2384" gradientTransform="matrix(31.1899 0 0 -57.5656 -47440.8203 242.0553)">
							<stop  offset="0" style="stop-color:#70B8F9;stop-opacity:0"/>
							<stop  offset="1" style="stop-color:#000000"/>
						</linearGradient>
						<path id="Path_4_1_" class="st36" d="M213.3,312.6c1.8-4.7-0.2-20.1-4.1-24.4s14,2.8,14,2.8s-1.1,11-2.5,14.1
							C216.7,314.3,212.4,314.9,213.3,312.6z"/>
					</g>
				</g>
			</g>
		</g>
		<g>
			<path class="st29" d="M295,526.9c3.4,2.2,7,4.1,10.7,5.8c1.8,0.8-3.4,3-8.5,10.2c-4.5,6.2,1.8,11.2,0,11.3
				c-2.7,0.2-3.2-0.7-11.8,2.3c-5.1,1.8-13.9,5.1-26.4,10.2l0,0c-2.6,1-5.6,0.5-7.6-1.4c-1.9-1.7-2-4.6-0.3-6.6
				c8.9-9.8,14.5-16,16.8-18.6c3.5-1.8,7.2-3.3,11-4.4l-3.2-3l9.3-10C289.2,524,292.5,525.4,295,526.9z"/>
			<path id="Shape_9" class="st30" d="M272,555.1c1.1,0.9,4.4,5.8,2.3,8"/>
			<path id="Shape_9_copy" class="st30" d="M276.7,552.8c1.1,0.9,4.4,5.8,2.3,8"/>
			<path id="Shape_9_copy_2" class="st37" d="M281.4,550.9c1.1,0.9,4.4,5.8,2.3,8"/>
		</g>
		<path id="Mask_Path-4" class="st31" d="M323.5,458.5c-5.8,8.2-7.6,22.2-3.6,31.8c3.5,8.5,17.1,17.9,20.1,19.1
			c-6.8,0-29.8-1.1-32.8-2.3c2.7,14,16.2,36.5,2.7,47.6c9.9,1.1,95.5,2.2,104.4,1.1c8.9-1.1,38.3,3.3,40.9-12.2
			c2.6-15.5-18.1-36.8-24.6-42.1c-6.6-5.3-43.3-28.3-49.6-35.2C374.8,459.4,329.3,450.3,323.5,458.5z"/>
		
			<linearGradient id="Mask_Path-5_1_" gradientUnits="userSpaceOnUse" x1="1869.6322" y1="223.6327" x2="1869.7533" y2="223.3744" gradientTransform="matrix(316.7008 0 0 -215.9531 -591781.1875 48765.1523)">
			<stop  offset="0" style="stop-color:#000000;stop-opacity:0.639"/>
			<stop  offset="1" style="stop-color:#000000;stop-opacity:0"/>
		</linearGradient>
		<path id="Mask_Path-5" class="st38" d="M323.5,458.5c-5.8,8.2-7.6,22.2-3.6,31.8c3.5,8.5,17.1,17.9,20.1,19.1
			c-6.8,0-29.8-1.1-32.8-2.3c2.7,14,16.2,36.5,2.7,47.6c9.9,1.1,95.5,2.2,104.4,1.1c8.9-1.1,38.3,3.3,40.9-12.2
			c2.6-15.5-18.1-36.8-24.6-42.1c-6.6-5.3-43.3-28.3-49.6-35.2C374.8,459.4,329.3,450.3,323.5,458.5z"/>
		
			<linearGradient id="Mask_Path-6_1_" gradientUnits="userSpaceOnUse" x1="1869.9248" y1="223.6211" x2="1869.7928" y2="223.4644" gradientTransform="matrix(316.7008 0 0 -215.9531 -591781.1875 48765.1523)">
			<stop  offset="0" style="stop-color:#377DFF;stop-opacity:0.5"/>
			<stop  offset="1" style="stop-color:#282828;stop-opacity:0"/>
		</linearGradient>
		<path id="Mask_Path-6" class="st39" d="M323.5,458.5c-5.8,8.2-7.6,22.2-3.6,31.8c3.5,8.5,17.1,17.9,20.1,19.1
			c-6.8,0-29.8-1.1-32.8-2.3c2.7,14,16.2,36.5,2.7,47.6c9.9,1.1,95.5,2.2,104.4,1.1c8.9-1.1,38.3,3.3,40.9-12.2
			c2.6-15.5-18.1-36.8-24.6-42.1c-6.6-5.3-43.3-28.3-49.6-35.2C374.8,459.4,329.3,450.3,323.5,458.5z"/>
		
			<linearGradient id="Mask_Path-7_1_" gradientUnits="userSpaceOnUse" x1="1869.7853" y1="223.3269" x2="1869.7853" y2="223.2375" gradientTransform="matrix(316.7008 0 0 -215.9531 -591781.1875 48765.1523)">
			<stop  offset="0" style="stop-color:#3D3068;stop-opacity:0"/>
			<stop  offset="1" style="stop-color:#000000;stop-opacity:0.588"/>
		</linearGradient>
		<path id="Mask_Path-7" class="st40" d="M323.5,458.5c-5.8,8.2-7.6,22.2-3.6,31.8c3.5,8.5,17.1,17.9,20.1,19.1
			c-6.8,0-29.8-1.1-32.8-2.3c2.7,14,16.2,36.5,2.7,47.6c9.9,1.1,95.5,2.2,104.4,1.1c8.9-1.1,38.3,3.3,40.9-12.2
			c2.6-15.5-18.1-36.8-24.6-42.1c-6.6-5.3-43.3-28.3-49.6-35.2C374.8,459.4,329.3,450.3,323.5,458.5z"/>
		
			<linearGradient id="SVGID_14_" gradientUnits="userSpaceOnUse" x1="1864.1727" y1="245.9921" x2="1864.3365" y2="246.1422" gradientTransform="matrix(163.068 0 0 -48.6011 -303651.875 12475.4961)">
			<stop  offset="0" style="stop-color:#8DC6D5;stop-opacity:0"/>
			<stop  offset="1" style="stop-color:#377DFF;stop-opacity:0.3"/>
		</linearGradient>
		<path class="st41" d="M307.2,507.3c1.8,8.2,10.3,14.8,25.7,19.8c23.1,7.5,45.8-2,50.6,0c-7.8-2.5-27.7-8.2-43.7-17.6
			C334.2,509.5,323.3,508.8,307.2,507.3z"/>
	</g>
	<g>
		<path class="st6" d="M364.3,270.7c4,4.8,4.8,6.9,9.1,10.8c4.3,3.8,10.3,5.2,12,5.8c1.7,0.6-3.5,4.4-1.7,9.5
			c1.7,5,5.4,12.3,5.4,14.3c0,2-6.8,5.4-13.2,8.3s-7.3,5.3-6.6,10.2s1.8,11.3,6.6,14c3.2,1.9-5.8-1.5-27.2-9.9
			c-9-20.3-11.3-36.8-6.8-49.6C348.6,265,360.3,266,364.3,270.7z"/>
		<g>
			<g>
				<g>
					<defs>
						<path id="SVGID_15_" d="M364.3,270.7c4,4.8,4.8,6.9,9.1,10.8c4.3,3.8,10.3,5.2,12,5.8c1.7,0.6-3.5,4.4-1.7,9.5
							c1.7,5,5.4,12.3,5.4,14.3c0,2-6.8,5.4-13.2,8.3s-7.3,5.3-6.6,10.2s1.8,11.3,6.6,14c3.2,1.9-5.8-1.5-27.2-9.9
							c-9-20.3-11.3-36.8-6.8-49.6C348.6,265,360.3,266,364.3,270.7z"/>
					</defs>
					<clipPath id="SVGID_16_">
						<use xlink:href="#SVGID_15_"  style="overflow:visible;"/>
					</clipPath>
					<g id="face-2_1_" class="st42">
						
							<linearGradient id="Path_2_1_" gradientUnits="userSpaceOnUse" x1="353.6893" y1="-645.4482" x2="380.687" y2="-645.4482" gradientTransform="matrix(1 0 0 1 0 966)">
							<stop  offset="0" style="stop-color:#FFCCB5"/>
							<stop  offset="1" style="stop-color:#D25E13"/>
						</linearGradient>
						<path id="Path_2" class="st43" d="M355.3,307.5c1.9,2.2,5,6.5,9,8.9c3.7,2.2,10.3,2.3,14.4,2.3c8.2,0-11,15.3-11,15.3
							l-12.3-2.5C355.3,331.6,351.7,303.2,355.3,307.5z"/>
						<path class="st44" d="M364.9,283.5c0-1.7,2.2-4.7,4-4.7"/>
						<path class="st31" d="M371.8,287.9c0.8-0.2,1-1.3,0.6-2.4c-0.5-1.1-1.5-1.9-2.2-1.7c-0.8,0.2-1,1.3-0.6,2.4
							C369.9,287.3,371.1,288.1,371.8,287.9z"/>
						<path class="st31" d="M383.3,296.8c0.4-0.3,0.4,0.3,0.7,0.8c0.3,0.7,0.6,1.3,0.7,2c-1.7,1.3-5.2,0.7-7.6-0.2
							c-0.5-0.2-1-0.8-0.7-1.2c0.3-0.4,0.8-0.3,1.3-0.2C379.5,298.1,382.2,297.5,383.3,296.8z"/>
					</g>
				</g>
			</g>
		</g>
		<g id="hand" transform="translate(418 70)">
			<path id="finger" class="st45" d="M37.5,251.6c-0.6-1-1.2-14.9,0.5-16.8c1.7-1.9,5.9-4.3,6.6-3.7c0.6,0.6,2.1,3.6,0.9,4.2
				c-1.2,0.7-3.5,2.9-3.3,3.7c0.2,0.8,0.5,3.2,1.4,4.2C44.4,244.2,38.9,253.9,37.5,251.6z"/>
			<g id="pen">
				<path class="st46" d="M58,224c1.4-1.2,7.8-4.3,8.5-1.9c0.5,1.6-1.7,3.7-6.4,6.2C57.8,226.3,57.1,224.8,58,224z"/>
				<path class="st47" d="M31.3,235.7l26.7-13c1.7-0.8,3.8-0.3,4.9,1.3c1,1.5,0.7,3.6-0.9,4.7l-24.5,17.4c-2.7,1.9-6.5,1.3-8.4-1.5
					l0,0c-0.1-0.1-0.2-0.3-0.3-0.4c-1.7-2.9-0.7-6.6,2.2-8.3l0,0C31,235.9,31.1,235.8,31.3,235.7z"/>
			</g>
			
				<linearGradient id="hand-2_1_" gradientUnits="userSpaceOnUse" x1="-805.4976" y1="-714.1229" x2="-773.4584" y2="-714.1229" gradientTransform="matrix(1 0 0 1 836 966)">
				<stop  offset="0" style="stop-color:#FFCCB5"/>
				<stop  offset="1" style="stop-color:#EDAF85"/>
			</linearGradient>
			<path id="hand-2" class="st48" d="M30.5,267.2c3.3-4.1,5.3-6.7,6.2-8c0.6-0.9-0.4-6.6,0.9-8.9c1.3-2.3,2.2-3.1,3.1-4.4
				c0.3-0.4,1.8-2.7,2.2-3.9c1.1-3.4,1.4-5,1.6-6.8c0.3-2.6,7.3-8,8.2-9.8c0.8-1.9,2.8-2.5,3.9,0c1,2.5-6,8.9-6,12.4
				c0,0.2,3-4.5,4.9-5c1.7,0,1.5,2.3,2.2,5.6c0.7,3.2,4.8,7.1,4.8,11.2c0,2.4,0,4.4,0,4.7c0,3.6-12.9,13.6-15.7,17.5
				c-1.9,2.7-3.9,5.5-6.1,8.3L30.5,267.2z"/>
		</g>
		<path id="shirt_bottom" class="st46" d="M314.5,459.1c-1.8,7.6-3,12.4-3.7,14.1c-1,2.6,19.8,5.8,42.6,5.6
			c19.7-0.2,33.2-2.4,37-5.1c-3.6-3.3-4.6-6.1-5.1-8.2C381.7,461.3,358.1,459.1,314.5,459.1z"/>
		<path id="colar_2_" class="st46" d="M353.9,326.5c4.6,1.2,15.3,2.9,17.5,2.9c2.2,0,5.8,15.9,5.6,17.3c-0.2,1.4-21.7-6.3-23.2-8.1
			C352.4,336.6,349.3,325.3,353.9,326.5z"/>
		<path id="Mask_Path-9" class="st49" d="M303.7,458.1c3.2-6.4,25.5-66.1,25.7-79.8c0.2-13.7,4.3-41.7,16.2-41.6
			c11.9,0.1,36.6,11.4,40.7,14.4c4.1,3,7.8,16.1,7.8,23.3c0,3.6,0,25,0,46.9c0,21,6.8,42.3,7.2,43.2
			C382.4,470.8,308.7,467.6,303.7,458.1z"/>
		<g>
			<g>
				<g>
					<defs>
						<path id="SVGID_17_" d="M303.7,458.1c3.2-6.4,25.5-66.1,25.7-79.8c0.2-13.7,4.3-41.7,16.2-41.6c11.9,0.1,36.6,11.4,40.7,14.4
							c4.1,3,7.8,16.1,7.8,23.3l0,0c0,2.4,0,12.6,0,25.6c0,6.6,0,13.9,0,21.2c0,0.1,0,0.2,0,0.2c0,20.9,6.8,42.1,7.2,43
							c-6.6,2.2-20.1,3.2-35,3.2C339,467.8,307,464.3,303.7,458.1z"/>
					</defs>
					<clipPath id="SVGID_18_">
						<use xlink:href="#SVGID_17_"  style="overflow:visible;"/>
					</clipPath>
					<g id="shirt-2" class="st50">
						<path id="Line_1_" class="st51" d="M313,391.6l17.8,88"/>
						<path id="Line_Copy" class="st51" d="M328.9,375.7l23.4,102.9"/>
						<path id="Line_Copy_2" class="st51" d="M344.8,352.3l28.5,132"/>
						<path id="Line_2" class="st51" d="M313,409.4l95,26.2"/>
						<path id="Line_2_Copy" class="st51" d="M310.7,435.6l95,26.2"/>
						<path id="Line_2_Copy_2" class="st51" d="M310.7,384.1l95,26.2"/>
						<path id="Line_2_Copy_3" class="st51" d="M310.7,350.9l95,26.2"/>
					</g>
				</g>
			</g>
		</g>
		<path id="shirt_sleeve" class="st46" d="M440.1,344.1c3.4-2.9,8.2-8.6,10.9-12s17.5,12.1,14.6,16c-2.9,3.9-8.8,11.1-11.6,13.2
			C451.2,363.4,436.7,346.9,440.1,344.1z"/>
		
			<linearGradient id="shirt_bottom_2_" gradientUnits="userSpaceOnUse" x1="310.8008" y1="-497.022" x2="390.3854" y2="-497.022" gradientTransform="matrix(1 0 0 1 0 966)">
			<stop  offset="0" style="stop-color:#377DFF;stop-opacity:0.6"/>
			<stop  offset="0.208" style="stop-color:#377DFF;stop-opacity:0.3"/>
			<stop  offset="0.495" style="stop-color:#377DFF;stop-opacity:0.1"/>
			<stop  offset="0.826" style="stop-color:#377DFF;stop-opacity:0.1"/>
			<stop  offset="1" style="stop-color:#377DFF;stop-opacity:0"/>
		</linearGradient>
		<path id="shirt_bottom_1_" class="st52" d="M314.5,459.1c-1.8,7.6-3,12.4-3.7,14.1c-1,2.6,19.8,5.8,42.6,5.6
			c19.7-0.2,33.2-2.4,37-5.1c-3.6-3.3-4.6-6.1-5.1-8.2C381.7,461.3,358.1,459.1,314.5,459.1z"/>
		
			<linearGradient id="colar_3_" gradientUnits="userSpaceOnUse" x1="351.4533" y1="-629.4097" x2="377.0234" y2="-629.4097" gradientTransform="matrix(1 0 0 1 0 966)">
			<stop  offset="0" style="stop-color:#377DFF;stop-opacity:0.6"/>
			<stop  offset="0.208" style="stop-color:#377DFF;stop-opacity:0.3"/>
			<stop  offset="0.495" style="stop-color:#377DFF;stop-opacity:0.1"/>
			<stop  offset="0.826" style="stop-color:#377DFF;stop-opacity:0.1"/>
			<stop  offset="1" style="stop-color:#377DFF;stop-opacity:0"/>
		</linearGradient>
		<path id="colar_1_" class="st53" d="M353.9,326.5c4.6,1.2,15.3,2.9,17.5,2.9c2.2,0,5.8,15.9,5.6,17.3c-0.2,1.4-21.7-6.3-23.2-8.1
			C352.4,336.6,349.3,325.3,353.9,326.5z"/>
		
			<linearGradient id="shirt_sleeve_2_" gradientUnits="userSpaceOnUse" x1="439.6089" y1="-619.4958" x2="466.0019" y2="-619.4958" gradientTransform="matrix(1 0 0 1 0 966)">
			<stop  offset="0" style="stop-color:#377DFF;stop-opacity:0.6"/>
			<stop  offset="0.208" style="stop-color:#377DFF;stop-opacity:0.3"/>
			<stop  offset="0.495" style="stop-color:#377DFF;stop-opacity:0.1"/>
			<stop  offset="0.826" style="stop-color:#377DFF;stop-opacity:0.1"/>
			<stop  offset="1" style="stop-color:#377DFF;stop-opacity:0"/>
		</linearGradient>
		<path id="shirt_sleeve_1_" class="st54" d="M440.1,344.1c3.4-2.9,8.2-8.6,10.9-12s17.5,12.1,14.6,16c-2.9,3.9-8.8,11.1-11.6,13.2
			C451.2,363.4,436.7,346.9,440.1,344.1z"/>
		<path id="Mask_Path-10" class="st55" d="M371.2,391.6c6.5,4.2,50.9,16.5,55.9,14.7c4.9-1.8,35.7-39,37.4-43s-20-26.3-22.6-22.9
			c-2.6,3.4-24.1,30.1-26.5,30.1c-2.4,0-28.2-21.6-35.7-22.8c-7.5-1.3-13.1,8-14.6,12.8C363.8,365.3,364.6,387.4,371.2,391.6z"/>
		<g>
			<g>
				<g>
					<defs>
						<path id="SVGID_19_" d="M371.2,391.6c-4.8-3.1-6.6-16.1-6.6-24.6c0-2.9,0.2-5.3,0.6-6.6c1.5-4.8,7-14,14.6-12.8
							c7.5,1.2,33.3,22.8,35.7,22.8c2.4,0,23.9-26.7,26.5-30.1c2.5-3.3,22.6,17.3,22.6,22.4c0,0.2,0,0.4-0.1,0.6
							c-1.7,4-32.5,41.2-37.4,43c-0.5,0.1-1,0.2-1.5,0.2C416.3,406.5,377.3,395.6,371.2,391.6z"/>
					</defs>
					<clipPath id="SVGID_20_">
						<use xlink:href="#SVGID_19_"  style="overflow:visible;"/>
					</clipPath>
					<g id="sleeve-2" class="st56">
						<path id="Path_5" class="st51" d="M359,368.9l61.6,21.5l33.7-48"/>
						<path id="Line_3" class="st51" d="M373.8,343.9l21.1,58.5"/>
						<path id="Line_3_Copy" class="st51" d="M388.8,343.9l21.1,58.5"/>
						<path id="Line_4" class="st51" d="M413.6,366.3l22,57.1"/>
						<path id="Line_5" class="st51" d="M417.8,363.1l31.8,32.8"/>
						<path id="Line_6" class="st51" d="M424.4,350.4l38.8,33.7"/>
						<path id="Line_7" class="st51" d="M430.9,342.9l42.6,25.3"/>
					</g>
				</g>
			</g>
		</g>
		<path class="st57" d="M355.1,288c8.9-2.9,1.1-15.2,4.3-15.2c1.3,0,6.6-1,8-3.9c3-6.4-3.9-12-21.2-10.7
			c-29.6,2.2-31.2,32.9-28.6,48.3c2.5,15.3-30.3,62-19.9,82c10.3,20,31,12.3,48.6-5.1c17.6-17.4,13-76.5,8.3-79.4
			S346.2,290.9,355.1,288z"/>
		<g>
			<g>
				<g>
					<defs>
						<path id="SVGID_21_" d="M355.1,288c8.9-2.9,1.1-15.2,4.3-15.2c1.3,0,6.6-1,8-3.9c3-6.4-3.9-12-21.2-10.7
							c-29.6,2.2-31.2,32.9-28.6,48.3c2.5,15.3-30.3,62-19.9,82c10.3,20,31,12.3,48.6-5.1c17.6-17.4,13-76.5,8.3-79.4
							S346.2,290.9,355.1,288z"/>
					</defs>
					<clipPath id="SVGID_22_">
						<use xlink:href="#SVGID_21_"  style="overflow:visible;"/>
					</clipPath>
					<g id="hair-2" class="st58">
						
							<linearGradient id="Path_3_2_" gradientUnits="userSpaceOnUse" x1="1848.9952" y1="223.2982" x2="1849.2457" y2="223.1344" gradientTransform="matrix(71.4874 0 0 -196.1707 -131842.25 44141.4219)">
							<stop  offset="0" style="stop-color:#001630;stop-opacity:6.300000e-02"/>
							<stop  offset="1" style="stop-color:#081E41"/>
						</linearGradient>
						<path id="Path_3_1_" class="st59" d="M356.6,305.5c0,6-11.5,81.7-21.8,87.6c-10.3,5.9,31.8,5.7,31.8-5.7
							C366.7,376.1,356.6,299.5,356.6,305.5z"/>
					</g>
				</g>
			</g>
		</g>
	</g>
</g>
</svg>
