<?xml version="1.0" encoding="utf-8"?>
<!-- Generator: Adobe Illustrator 23.0.3, SVG Export Plug-In . SVG Version: 6.00 Build 0)  -->
<svg xmlns="http://www.w3.org/2000/svg" xmlns:xlink="http://www.w3.org/1999/xlink" x="0px" y="0px"
	 viewBox="0 0 501.8 402.8" style="enable-background:new 0 0 501.8 402.8;" xml:space="preserve">
<style type="text/css">
	.server-woman-0{fill:#BDC5D1;}
	.server-woman-1{fill:#E7EAF3;}
	.server-woman-2{fill:none;stroke:#E7EAF3;}
	.server-woman-3{fill:none;stroke:#1E2022;}
	.server-woman-4{fill:#377DFF;}
	.server-woman-5{fill:#FFFFFF;}
	.server-woman-6{fill:none;stroke:#FFFFFF;}
	.server-woman-7{fill:#00C9A7;}
</style>
<path class="server-woman-0 fill-gray-400" d="M78.1,288V114.3H48.2v134C60.7,256.4,70.8,272.2,78.1,288z"/>
<path class="server-woman-0 fill-gray-400" d="M48.2,346.7v15.2h8.9C53.6,357.1,50.6,352,48.2,346.7z"/>
<path class="server-woman-1 fill-gray-300" d="M77.7,114.3v173c6.9,14.7,11.4,29.4,13.2,37.7c2.9,13.6,12.5,22.5,12.5,36.3c0,0.2,0,0.4,0,0.6h102.9V114.3
	H77.7z"/>
<polyline class="server-woman-2 fill-none stroke-gray-300" stroke-width="2" stroke-miterlimit="10" points="50.4,128.7 35.9,128.7 35.9,243.1 "/>
<polyline class="server-woman-2 fill-none stroke-gray-300" stroke-width="2" stroke-miterlimit="10" points="270.9,47.2 270.9,208.9 275.6,208.9 "/>
<line class="server-woman-3 fill-none stroke-dark" stroke-width="2" stroke-linecap="round" stroke-linejoin="round" x1="423.9" y1="386.2" x2="393.3" y2="334.7"/>
<line class="server-woman-3 fill-none stroke-dark" stroke-width="2" stroke-linecap="round" stroke-linejoin="round" x1="437.7" y1="386.2" x2="407.2" y2="334.8"/>
<line class="server-woman-3 fill-none stroke-dark" stroke-width="2" stroke-linecap="round" stroke-linejoin="round" x1="338.5" y1="382.2" x2="366.7" y2="334.8"/>
<path class="server-woman-3 fill-none stroke-dark" stroke-width="1.25" stroke-linecap="round" stroke-linejoin="round" d="M412.8,219.8h43.5l-31.6,114.6h-80.2v-4.1H404l1.3-26.7"/>
<polyline class="server-woman-3 fill-none stroke-dark" stroke-width="1.25" stroke-linecap="round" stroke-linejoin="round" points="285.3,378.9 279.1,389.3 256.4,375.7 277.1,379.2 279.6,375.1 "/>
<path d="M316.5,294.9c-6.6,0-39.5,76.6-39.5,79.4s7.1,6,8.2,6c1.6-1.5,33.1-47,36.4-50.2C324.9,326.9,316.5,294.9,316.5,294.9z"/>
<path class="server-woman-3 fill-none stroke-dark" stroke-width="1.25" stroke-linecap="round" stroke-linejoin="round" d="M334.9,256.8c-2-1.6-4.5-2.5-7.1-2.4c-5.2,0-9.5,3.2-9.5,7.2"/>
<path class="server-woman-3 fill-none stroke-dark" stroke-width="1.25" stroke-linecap="round" stroke-linejoin="round" d="M364.9,241.6c-3.3,3-7.7,8.2-9.8,14.2"/>
<path class="server-woman-3 fill-none stroke-dark" stroke-width="1.25" stroke-linecap="round" stroke-linejoin="round" d="M382.7,224.5c-1.1-0.5-2.4-0.8-3.6-0.8c-6.7,0-18.1,12.2-18.1,13.8c0,1.3,6.1,6.6,11.9,8.3"/>
<path class="server-woman-3 fill-none stroke-dark" stroke-width="1.25" stroke-linecap="round" stroke-linejoin="round" d="M371.3,257.8c1.2-18,6.8-35.2,21.9-39.8"/>
<path class="server-woman-3 fill-none stroke-dark" stroke-width="1.25" stroke-linecap="round" stroke-linejoin="round" d="M427.1,242.8c6.8,25.6,2.2,61.1-0.9,63.4c-4.8,3.6-47,4-49.8,0.3c-1.2-1.5-4.9-17.7-5.4-35.9"/>
<path class="server-woman-3 fill-none stroke-dark" stroke-width="1.25" stroke-linecap="round" stroke-linejoin="round" d="M408.4,217.8c5.8,1.8,10.3,6.2,13.5,11.9"/>
<path class="server-woman-3 fill-none stroke-dark" stroke-width="1.25" stroke-linecap="round" stroke-linejoin="round" d="M400.8,223.1c3.8,0,7.6-0.8,7.6-2.4v-16.3"/>
<line class="server-woman-3 fill-none stroke-dark" stroke-width="1.25" stroke-linecap="round" stroke-linejoin="round" x1="393.2" y1="212.1" x2="393.2" y2="218"/>
<path class="server-woman-3 fill-none stroke-dark" stroke-width="1.25" stroke-linecap="round" stroke-linejoin="round" d="M399.4,211.9c-1.6,0.5-3.3,0.7-4.9,0.4c-8.2-1.3-13.2-12.2-11.3-24.4c0.1-0.5,0.2-1,0.3-1.5"/>
<path class="server-woman-3 fill-none stroke-dark" stroke-width="1.25" stroke-linecap="round" stroke-linejoin="round" d="M411.6,197.5c-0.8,2.4-1.8,4.8-3.2,6.9"/>
<path class="server-woman-3 fill-none stroke-dark" stroke-width="1.25" stroke-miterlimit="10" d="M415.1,167.5c2.2-3.8,7.7-10.1,18.5-10.1c7.3,0,14.7,3.9,24,3.9c7.3,0,14.2-2.9,23-2.9
	c15.7,0,20.6,10.3,20.6,16.7c0,16.2-13.2,22.5-23,22.5c-15.7,0-17.6-10.8-36.3-10.8c-18.1,0-15.7-14.7-19.6-14.7
	c-0.9,0-1.9,0.1-2.8,0.3"/>
<path class="server-woman-3 fill-none stroke-dark" stroke-width="1.25" stroke-linecap="round" stroke-linejoin="round" d="M410.5,202c8,0,11.8-8.2,11.8-18.6c0-17.1-15.1-20.6-21.6-20.6c-17.3,0-21,13.2-21,17s2.4,6.6,3.6,6.7
	c0.8-4.6,4.4-10.8,4.6-11c1.6,1.6,3.5,2.8,5.6,3.7"/>
<path class="server-woman-3 fill-none stroke-dark" stroke-width="1.25" stroke-linecap="round" stroke-linejoin="round" d="M409.7,189.4c0.6-0.3,1.1-0.4,1.8-0.4c2.3,0,4.2,1.9,4.2,4.2s-1.9,4.2-4.2,4.2c-0.4,0-0.9-0.1-1.3-0.2"/>
<path class="server-woman-3 fill-none stroke-dark" stroke-width="1.25" stroke-linecap="round" stroke-linejoin="round" d="M371.1,270.6c5,2,9.7,3.6,15.6,3.6c4.6,0,13.4-2.9,20-10"/>
<path class="server-woman-3 fill-none stroke-dark" stroke-width="1.25" stroke-linecap="round" stroke-linejoin="round" d="M393.3,250.7c-3.5,2.6-6.5,5.9-8.7,9.7c-4-0.8-20.5-4.9-35.1-4.9c-1.4,0-4.9-1.1-6.4-1.1
	c-8.6,0-10.3,4.6-10.3,6s0.3,1.4,0.6,1.4c18.9,0,28.7,5.1,37.7,8.8"/>
<path class="server-woman-3 fill-none stroke-dark" stroke-width="1.25" stroke-linecap="round" stroke-linejoin="round" d="M414.1,230.4c4.8-1.4,9.3-1.4,12.1,1.3c9.2,8.9-14,33.6-17.8,33.2c-3.7-0.4-17.1-14.5-17.3-18.8
	c0-1.5,3-4.7,7.4-7.8"/>
<rect x="237.7" y="262.9" width="207.4" height="6.7"/>
<line class="server-woman-3 fill-none stroke-dark" stroke-width="2" stroke-linecap="round" stroke-linejoin="round" x1="433.9" y1="369.4" x2="433.9" y2="267.8"/>
<line class="server-woman-3 fill-none stroke-dark" stroke-width="2" stroke-linecap="round" stroke-linejoin="round" x1="261.6" y1="369.4" x2="261.6" y2="267.8"/>
<line class="server-woman-3 fill-none stroke-dark" stroke-width="2" stroke-linecap="round" stroke-linejoin="round" x1="419.3" y1="389.8" x2="419.3" y2="267.8"/>
<line class="server-woman-3 fill-none stroke-dark" stroke-width="2" stroke-linecap="round" stroke-linejoin="round" x1="246.2" y1="389.8" x2="246.2" y2="267.8"/>
<line class="server-woman-3 fill-none stroke-dark" stroke-width="2" stroke-linecap="round" stroke-linejoin="round" x1="349.1" y1="388.3" x2="380.9" y2="334.8"/>
<rect x="313.8" y="261.7" width="34.4" height="1.2"/>
<polyline class="server-woman-3 fill-none stroke-dark" stroke-width="1.25" stroke-linecap="round" stroke-linejoin="round" points="299.7,236.1 275.6,236.1 275.6,181.6 350.8,181.6 350.8,236.1 317.7,236.1 "/>
<polygon class="server-woman-3 fill-none stroke-dark" stroke-width="1.25" stroke-linecap="round" stroke-linejoin="round" points="302.6,225.9 292.2,262.9 310.4,262.9 320.5,225.9 "/>
<path class="server-woman-1 fill-gray-300" d="M317.3,49.9c8.7-8.5,8.8-22.3,0.3-31c-6.1-6.3-15.4-8.3-23.6-5.1c-9.2-14.1-28-18-42-8.8
	c-5.1,3.3-9,8-11.4,13.6c-11.2-4.5-24,0.9-28.5,12.1c-2.5,6.3-2,13.4,1.4,19.3L317.3,49.9z"/>
<polyline class="server-woman-2 fill-none stroke-gray-300" stroke-width="2" stroke-miterlimit="10" points="263.3,45.7 263.3,80.9 155.4,80.9 155.4,114.3 "/>
<path class="server-woman-3 fill-none stroke-dark" stroke-width="1.25" stroke-linecap="round" stroke-linejoin="round" d="M95,389.8c2.9,0,8.5-9.7,8.5-28.5c0-13.8-9.7-22.7-12.5-36.3c-4.4-20.9-26.2-82.4-60.3-82.4
	c-3.9,0-9.2,8.2-9.2,25.2c0,20.6,19.9,41.9,19.9,46.3C41.3,364.5,85.8,389.8,95,389.8z"/>
<path class="server-woman-3 fill-none stroke-dark" stroke-width="1.25" stroke-linecap="round" stroke-linejoin="round" d="M95.2,389.8c0-2.8-4-21.3-6.1-25.9s-10.2-27.8-11.5-34.1s-24.8-68.8-47-84.5"/>
<line class="server-woman-3 fill-none stroke-dark" stroke-width="1.25" stroke-linecap="round" stroke-linejoin="round" x1="85" y1="353" x2="47.8" y2="345.5"/>
<line class="server-woman-3 fill-none stroke-dark" stroke-width="1.25" stroke-linecap="round" stroke-linejoin="round" x1="86.9" y1="358.2" x2="52.8" y2="355.4"/>
<line class="server-woman-3 fill-none stroke-dark" stroke-width="1.25" stroke-linecap="round" stroke-linejoin="round" x1="76.2" y1="325" x2="41.6" y2="314.5"/>
<line class="server-woman-3 fill-none stroke-dark" stroke-width="1.25" stroke-linecap="round" stroke-linejoin="round" x1="79.5" y1="336.4" x2="90" y2="328.8"/>
<line class="server-woman-3 fill-none stroke-dark" stroke-width="1.25" stroke-linecap="round" stroke-linejoin="round" x1="59.5" y1="286" x2="69.9" y2="274.2"/>
<line class="server-woman-3 fill-none stroke-dark" stroke-width="1.25" stroke-linecap="round" stroke-linejoin="round" x1="56.2" y1="279.7" x2="65.1" y2="267.7"/>
<rect x="88.4" y="129.9" class="server-woman-4 fill-primary" width="107.3" height="20.7"/>
<circle class="server-woman-5 fill-white" cx="187.9" cy="137.7" r="3.6"/>
<line class="server-woman-6 fill-none stroke-white" stroke-width="2" stroke-linecap="round" stroke-linejoin="round" x1="125.4" y1="137.7" x2="181.3" y2="137.7"/>
<rect x="88.4" y="164.9" class="server-woman-4 fill-primary" width="107.3" height="20.7"/>
<circle class="server-woman-5 fill-white" cx="187.9" cy="172.6" r="3.6"/>
<line class="server-woman-6 fill-none stroke-white" stroke-width="2" stroke-linecap="round" stroke-linejoin="round" x1="125.4" y1="172.6" x2="181.3" y2="172.6"/>
<rect x="88.4" y="199.8" class="server-woman-4 fill-primary" width="107.3" height="20.7"/>
<circle class="server-woman-5 fill-white" cx="187.9" cy="207.6" r="3.6"/>
<line class="server-woman-6 fill-none stroke-white" stroke-width="2" stroke-linecap="round" stroke-linejoin="round" x1="125.4" y1="207.6" x2="181.3" y2="207.6"/>
<rect x="88.4" y="234.8" class="server-woman-4 fill-primary" width="107.3" height="20.7"/>
<circle class="server-woman-5 fill-white" cx="187.9" cy="242.5" r="3.6"/>
<line class="server-woman-6 fill-none stroke-white" stroke-width="2" stroke-linecap="round" stroke-linejoin="round" x1="125.4" y1="242.5" x2="181.3" y2="242.5"/>
<rect x="88.4" y="269.7" class="server-woman-4 fill-primary" width="107.3" height="20.7"/>
<circle class="server-woman-5 fill-white" cx="187.9" cy="277.5" r="3.6"/>
<line class="server-woman-6 fill-none stroke-white" stroke-width="2" stroke-linecap="round" stroke-linejoin="round" x1="125.4" y1="277.5" x2="181.3" y2="277.5"/>
<line class="server-woman-6 fill-none stroke-white" stroke-width="1" stroke-linecap="round" stroke-linejoin="round" x1="55.1" y1="144.8" x2="71.2" y2="144.8"/>
<line class="server-woman-6 fill-none stroke-white" stroke-width="1" stroke-linecap="round" stroke-linejoin="round" x1="55.1" y1="149" x2="71.2" y2="149"/>
<line class="server-woman-6 fill-none stroke-white" stroke-width="1" stroke-linecap="round" stroke-linejoin="round" x1="55.1" y1="173.1" x2="71.2" y2="173.1"/>
<line class="server-woman-6 fill-none stroke-white" stroke-width="1" stroke-linecap="round" stroke-linejoin="round" x1="55.1" y1="177.3" x2="71.2" y2="177.3"/>
<line class="server-woman-6 fill-none stroke-white" stroke-width="1" stroke-linecap="round" stroke-linejoin="round" x1="55.1" y1="207.6" x2="71.2" y2="207.6"/>
<line class="server-woman-6 fill-none stroke-white" stroke-width="1" stroke-linecap="round" stroke-linejoin="round" x1="55.1" y1="211.7" x2="71.2" y2="211.7"/>
<line class="server-woman-6 fill-none stroke-white" stroke-width="1" stroke-linecap="round" stroke-linejoin="round" x1="55.1" y1="240.9" x2="71.2" y2="240.9"/>
<line class="server-woman-6 fill-none stroke-white" stroke-width="1" stroke-linecap="round" stroke-linejoin="round" x1="55.1" y1="245.1" x2="71.2" y2="245.1"/>
<path class="server-woman-3 fill-none stroke-dark" stroke-width="1.25" stroke-linecap="round" stroke-linejoin="round" d="M386.7,173.4c0.3,0.8,0.7,1.5,1.3,2.1"/>
<polyline class="server-woman-3 fill-none stroke-dark" stroke-width="1.25" stroke-linecap="round" stroke-linejoin="round" points="339.1,385.3 341.3,397.2 315.8,402.1 333.2,390.9 332.4,386.2 "/>
<path d="M426.2,310.5c0-2.1,0.4-4.5-0.9-5.1c-31.2-12.9-76.8-14.5-83.8-14.5s-27.6,0.7-27.6,6.6c0,21.3,11.8,86.7,14.2,89.1
	c1.1,1.2,11.1,0.4,12.3-0.9c-0.1-5.4,3-59.5,0.2-66.1c26.2,9.6,55.9,14.1,63.8,14.1C427.1,333.8,426.2,313,426.2,310.5z"/>
<path class="server-woman-5 fill-white" opacity=".05" d="M426.2,310.5c0-2.1,0.4-4.5-0.9-5.1c-31.2-12.9-76.8-14.5-83.8-14.5s-27.6,0.7-27.6,6.6
	c0,21.3,11.8,86.7,14.2,89.1c1.1,1.2,11.1,0.4,12.3-0.9c-0.1-5.4,3-59.5,0.2-66.1c26.2,9.6,55.9,14.1,63.8,14.1
	C427.1,333.8,426.2,313,426.2,310.5z"/>
<path class="server-woman-7 fill-success" d="M41.3,314.1c0-2.6-6.8-10.9-12.4-21.4c-10.4-7.8-19.7-12.5-24.7-12.5c-2.9,0-4.3,5.3-4.3,8.1
	c0,29.3,31.4,63.3,58.8,76C49.1,351.9,41.3,335.2,41.3,314.1z"/>
<circle class="server-woman-5 fill-white" cx="400.1" cy="190.5" r="0.9"/>
<circle class="server-woman-5 fill-white" cx="388" cy="189.6" r="0.9"/>
<path class="server-woman-3 fill-none stroke-dark" stroke-width="1.1185" stroke-linecap="round" stroke-linejoin="round" d="M390.5,200.9c0,0,2.5,4.1,6.6,1"/>
</svg>
