<?xml version="1.0" encoding="utf-8"?>
<!-- Generator: Adobe Illustrator 23.0.3, SVG Export Plug-In . SVG Version: 6.00 Build 0)  -->
<svg xmlns="http://www.w3.org/2000/svg" xmlns:xlink="http://www.w3.org/1999/xlink" x="0px" y="0px"
	 viewBox="0 0 38.9 41.8" style="enable-background:new 0 0 38.9 41.8;" xml:space="preserve">
<style type="text/css">
	.sharing-files-0{fill:none;stroke:#1E2022;}
	.sharing-files-1{fill:#1E2022;}
</style>
<path class="sharing-files-0 fill-none stroke-dark" stroke-width="1.5" stroke-miterlimit="10" d="M31.6,31v5.6c0,1.3-1,2.3-2.3,2.3H5.5c-1.3,0-2.3-1-2.3-2.3V3.1c0-1.3,1-2.3,2.3-2.3
	c0,0,18.1,0,18.1,0l8,8v4.9"/>
<path class="sharing-files-1 fill-dark" d="M24.5,9c-0.7,0-1.2-0.6-1.2-1.2V0.7L31.6,9H24.5z"/>
<line class="sharing-files-0 fill-none stroke-dark" stroke-width="1.3" stroke-miterlimit="10" x1="22.5" y1="12.6" x2="9.3" y2="12.6"/>
<line class="sharing-files-0 fill-none stroke-dark" stroke-width="1.3" stroke-miterlimit="10" x1="22.5" y1="17.1" x2="9.3" y2="17.1"/>
<line class="sharing-files-0 fill-none stroke-dark" stroke-width="1.3" stroke-miterlimit="10" x1="22.5" y1="21.6" x2="9.3" y2="21.6"/>
<line class="sharing-files-0 fill-none stroke-dark" stroke-width="1.3" stroke-miterlimit="10" x1="22.5" y1="26.3" x2="9.3" y2="26.3"/>
<line class="sharing-files-0 fill-none stroke-dark" stroke-width="1.5" stroke-miterlimit="10" x1="29.2" y1="20.5" x2="34.4" y2="17.1"/>
<line class="sharing-files-0 fill-none stroke-dark" stroke-width="1.5" stroke-miterlimit="10" x1="34.4" y1="26.4" x2="29.2" y2="22.7"/>
<path class="sharing-files-0 fill-none stroke-dark" stroke-width="1.5" stroke-miterlimit="10" d="M27.3,19.4c1.2,0,2.1,1,2.1,2.1c0,1.2-1,2.1-2.1,2.1c-1.2,0-2.1-1-2.1-2.1
	C25.2,20.4,26.1,19.4,27.3,19.4z"/>
<path class="sharing-files-0 fill-none stroke-dark" stroke-width="1.5" stroke-miterlimit="10" d="M36.1,13.9c1.2,0,2.1,1,2.1,2.1c0,1.2-1,2.1-2.1,2.1c-1.2,0-2.1-1-2.1-2.1
	S35,13.9,36.1,13.9z"/>
<path class="sharing-files-0 fill-none stroke-dark" stroke-width="1.5" stroke-miterlimit="10" d="M36.1,25.3c1.2,0,2.1,1,2.1,2.1c0,1.2-1,2.1-2.1,2.1c-1.2,0-2.1-1-2.1-2.1
	C34,26.2,35,25.3,36.1,25.3z"/>
<path class="sharing-files-1 fill-dark" opacity=".2" d="M3.5,36.7V6.9c0-0.9-0.7-1.6-1.6-1.6H1.6C0.7,5.3,0,6,0,6.9v33.3c0,0.9,0.7,1.6,1.6,1.6h1.9h22.6
	c0.9,0,1.6-0.7,1.6-1.6v-0.3c0-0.9-0.7-1.6-1.6-1.6h-21C4.2,38.3,3.5,37.6,3.5,36.7z"/>
</svg>
