<?xml version="1.0" encoding="utf-8"?>
<!-- Generator: Adobe Illustrator 23.0.3, SVG Export Plug-In . SVG Version: 6.00 Build 0)  -->
<svg version="1.1" id="Layer_1" xmlns="http://www.w3.org/2000/svg" xmlns:xlink="http://www.w3.org/1999/xlink" x="0px" y="0px"
	 viewBox="0 0 99.7 90.2" style="enable-background:new 0 0 99.7 90.2;" xml:space="preserve">
<style type="text/css">
	.st0{fill-rule:evenodd;clip-rule:evenodd;fill:#EA6C00;}
	.st1{fill-rule:evenodd;clip-rule:evenodd;fill:#FDAD00;}
	.st2{fill-rule:evenodd;clip-rule:evenodd;fill:#FDD231;}
	.st3{fill-rule:evenodd;clip-rule:evenodd;fill:#FEEEB7;}
</style>
<path id="a" class="st0" d="M20.2,32.2l29.7,58L0,32.2H20.2z"/>
<path id="b" class="st0" d="M79.5,32.2l-29.7,58l49.8-58H79.5z"/>
<path id="c" class="st1" d="M20.2,32.2h59.3l-29.7,58L20.2,32.2z"/>
<path id="d" class="st2" d="M49.8,0L21.8,3l-1.6,29.2L49.8,0z"/>
<path id="e" class="st2" d="M49.8,0l28.1,3l1.6,29.2L49.8,0z"/>
<path id="f" class="st1" d="M99.7,32.2L77.9,3l1.6,29.2H99.7z"/>
<path id="g" class="st1" d="M0,32.2L21.8,3l-1.6,29.2H0z"/>
<path id="h" class="st3" d="M49.8,0L20.2,32.2h59.3L49.8,0z"/>
</svg>
