<?xml version="1.0" encoding="utf-8"?>
<!-- Generator: Adobe Illustrator 24.0.2, SVG Export Plug-In . SVG Version: 6.00 Build 0)  -->
<svg version="1.1" id="Layer_1" xmlns="http://www.w3.org/2000/svg" xmlns:xlink="http://www.w3.org/1999/xlink" x="0px" y="0px"
	 viewBox="0 0 250 150" style="enable-background:new 0 0 250 150;" xml:space="preserve">
<style type="text/css">
	.st0{fill:#FFFFFF;}
	.st1{fill:#21325B;}
	.st2{opacity:0.1;}
	.st3{opacity:3.000000e-02;}
</style>
<g>
	<path class="st0" d="M160.6,70.5H88.3c-1.6,0-2.8-1.3-2.8-2.8V3.3c0-1.6,1.3-2.8,2.8-2.8h72.3c1.6,0,2.8,1.3,2.8,2.8v64.3
		C163.5,69.2,162.2,70.5,160.6,70.5z"/>
	<path class="st1" d="M136.5,28.1h-22c-0.4,0-0.7,0.4-0.7,1V31c0,0.5,0.3,1,0.7,1h22c0.4,0,0.7-0.4,0.7-1v-1.9
		C137.2,28.5,136.9,28.1,136.5,28.1z M136.5,20.3h-22c-0.4,0-0.7,0.4-0.7,1v1.9c0,0.5,0.3,1,0.7,1h22c0.4,0,0.7-0.4,0.7-1v-1.9
		C137.2,20.8,136.9,20.3,136.5,20.3z"/>
	<g>
		<path class="st1" d="M114,51.9H113v-2.2h-2v2.2h-1.1v-5h1.1v2h2v-2h1.1V51.9z"/>
		<path class="st1" d="M118.2,51.9h-2.9v-5h2.9v0.9h-1.8v1.1h1.7v0.9h-1.7V51h1.8V51.9z"/>
		<path class="st1" d="M122.3,51.9l-0.4-1.2h-1.8l-0.4,1.2h-1.1l1.8-5h1.3l1.8,5H122.3z M121.7,49.8c-0.3-1.1-0.5-1.7-0.6-1.8
			c0-0.1-0.1-0.3-0.1-0.3c-0.1,0.3-0.3,1-0.6,2.2H121.7z"/>
		<path class="st1" d="M128.2,49.3c0,0.8-0.2,1.5-0.7,1.9c-0.5,0.4-1.1,0.7-2,0.7H124v-5h1.6c0.8,0,1.4,0.2,1.9,0.6
			S128.2,48.5,128.2,49.3z M127.1,49.3c0-1.1-0.5-1.6-1.4-1.6h-0.6V51h0.5C126.6,51,127.1,50.4,127.1,49.3z"/>
		<path class="st1" d="M132.1,51.9h-2.9v-5h2.9v0.9h-1.8v1.1h1.7v0.9h-1.7V51h1.8V51.9z"/>
		<path class="st1" d="M134.2,49.9v1.9h-1.1v-5h1.5c0.7,0,1.2,0.1,1.5,0.4c0.3,0.2,0.5,0.6,0.5,1.1c0,0.3-0.1,0.6-0.2,0.8
			c-0.2,0.2-0.4,0.4-0.7,0.5c0.8,1.1,1.2,1.8,1.5,2.2H136l-1.2-1.9H134.2z M134.2,49.1h0.3c0.3,0,0.6-0.1,0.7-0.2
			c0.2-0.1,0.2-0.3,0.2-0.5c0-0.2-0.1-0.4-0.2-0.5s-0.4-0.2-0.8-0.2h-0.3V49.1z"/>
		<path class="st1" d="M140.7,50.5c0,0.5-0.2,0.8-0.5,1.1c-0.3,0.3-0.8,0.4-1.4,0.4c-0.5,0-1-0.1-1.4-0.3v-1
			c0.3,0.2,0.6,0.3,0.9,0.3c0.2,0.1,0.4,0.1,0.6,0.1c0.2,0,0.4,0,0.5-0.1c0.1-0.1,0.2-0.2,0.2-0.4c0-0.1,0-0.2-0.1-0.3
			c-0.1-0.1-0.1-0.1-0.2-0.2c-0.1-0.1-0.3-0.2-0.6-0.3c-0.3-0.1-0.5-0.3-0.7-0.4c-0.2-0.1-0.3-0.3-0.4-0.5c-0.1-0.2-0.1-0.4-0.1-0.6
			c0-0.4,0.2-0.8,0.5-1c0.3-0.3,0.7-0.4,1.2-0.4c0.3,0,0.5,0,0.7,0.1c0.2,0.1,0.5,0.1,0.7,0.3l-0.3,0.8c-0.3-0.1-0.5-0.2-0.7-0.2
			c-0.2,0-0.3-0.1-0.5-0.1c-0.2,0-0.4,0-0.5,0.1c-0.1,0.1-0.2,0.2-0.2,0.4c0,0.1,0,0.2,0.1,0.2c0,0.1,0.1,0.1,0.2,0.2
			c0.1,0.1,0.3,0.2,0.7,0.4c0.5,0.2,0.8,0.4,1,0.7C140.6,49.9,140.7,50.2,140.7,50.5z"/>
	</g>
</g>
<g class="st2">
	<path class="st0" d="M75.5,70.5H3.2c-1.6,0-2.8-1.3-2.8-2.8V3.3c0-1.6,1.3-2.8,2.8-2.8h72.3c1.6,0,2.8,1.3,2.8,2.8v64.3
		C78.4,69.2,77.1,70.5,75.5,70.5z"/>
	<path class="st1" d="M48.7,14.7H35.9c-1.1,0-1.9,0.9-1.9,1.9v1.9h-1.9c-1.1,0-1.9,0.9-1.9,1.9v12.8c0,1.1,0.9,1.9,1.9,1.9h12.8
		c1.1,0,1.9-0.9,1.9-1.9v-1.9h1.9c1.1,0,1.9-0.9,1.9-1.9V16.6C50.6,15.5,49.8,14.7,48.7,14.7z M44.6,33.2H32.3
		c-0.1,0-0.2-0.1-0.2-0.2V20.7c0-0.1,0.1-0.2,0.2-0.2H34v9c0,1.1,0.9,1.9,1.9,1.9h9V33C44.9,33.1,44.8,33.2,44.6,33.2z M48.5,29.4
		H36.2c-0.1,0-0.2-0.1-0.2-0.2V16.8c0-0.1,0.1-0.2,0.2-0.2h12.3c0.1,0,0.2,0.1,0.2,0.2v12.3C48.7,29.3,48.6,29.4,48.5,29.4z"/>
	<g>
		<path class="st1" d="M27.8,51.9l-1.2-3.9h0c0,0.8,0.1,1.3,0.1,1.6v2.3h-0.9v-5h1.4l1.2,3.8h0l1.3-3.8h1.4v5h-1v-2.4
			c0-0.1,0-0.2,0-0.4c0-0.1,0-0.5,0-1.2h0l-1.3,3.9H27.8z"/>
		<path class="st1" d="M36.9,49.4c0,0.8-0.2,1.5-0.6,1.9s-1,0.7-1.8,0.7s-1.4-0.2-1.8-0.7s-0.6-1.1-0.6-1.9s0.2-1.5,0.6-1.9
			c0.4-0.4,1-0.7,1.8-0.7s1.4,0.2,1.8,0.7C36.6,47.9,36.9,48.5,36.9,49.4z M33.2,49.4c0,0.6,0.1,1,0.3,1.3s0.5,0.4,1,0.4
			c0.8,0,1.3-0.6,1.3-1.7c0-1.1-0.4-1.7-1.3-1.7c-0.4,0-0.7,0.1-1,0.4C33.3,48.4,33.2,48.8,33.2,49.4z"/>
		<path class="st1" d="M42,49.3c0,0.8-0.2,1.5-0.7,1.9c-0.5,0.4-1.1,0.7-2,0.7h-1.4v-5h1.6c0.8,0,1.4,0.2,1.9,0.6S42,48.5,42,49.3z
			 M40.9,49.3c0-1.1-0.5-1.6-1.4-1.6h-0.6V51h0.5C40.4,51,40.9,50.4,40.9,49.3z"/>
		<path class="st1" d="M46.1,51.9l-0.4-1.2h-1.8l-0.4,1.2h-1.1l1.8-5h1.3l1.8,5H46.1z M45.5,49.8c-0.3-1.1-0.5-1.7-0.6-1.8
			c0-0.1-0.1-0.3-0.1-0.3c-0.1,0.3-0.3,1-0.6,2.2H45.5z"/>
		<path class="st1" d="M47.9,51.9v-5H49V51h2v0.9H47.9z"/>
		<path class="st1" d="M54.8,50.5c0,0.5-0.2,0.8-0.5,1.1c-0.3,0.3-0.8,0.4-1.4,0.4c-0.5,0-1-0.1-1.4-0.3v-1c0.3,0.2,0.6,0.3,0.9,0.3
			c0.2,0.1,0.4,0.1,0.6,0.1c0.2,0,0.4,0,0.5-0.1c0.1-0.1,0.2-0.2,0.2-0.4c0-0.1,0-0.2-0.1-0.3c-0.1-0.1-0.1-0.1-0.2-0.2
			c-0.1-0.1-0.3-0.2-0.6-0.3c-0.3-0.1-0.5-0.3-0.7-0.4s-0.3-0.3-0.4-0.5s-0.1-0.4-0.1-0.6c0-0.4,0.1-0.8,0.4-1
			c0.3-0.3,0.7-0.4,1.2-0.4c0.3,0,0.5,0,0.7,0.1c0.2,0.1,0.5,0.1,0.7,0.3L54.4,48c-0.3-0.1-0.5-0.2-0.7-0.2c-0.2,0-0.3-0.1-0.5-0.1
			c-0.2,0-0.4,0-0.5,0.1s-0.2,0.2-0.2,0.4c0,0.1,0,0.2,0.1,0.2c0,0.1,0.1,0.1,0.2,0.2c0.1,0.1,0.3,0.2,0.7,0.4
			c0.5,0.2,0.8,0.4,1,0.7C54.7,49.9,54.8,50.2,54.8,50.5z"/>
	</g>
</g>
<g class="st2">
	<path class="st0" d="M246.9,70.5h-72.3c-1.6,0-2.8-1.3-2.8-2.8V3.3c0-1.6,1.3-2.8,2.8-2.8h72.3c1.6,0,2.8,1.3,2.8,2.8v64.3
		C249.8,69.2,248.5,70.5,246.9,70.5z"/>
	<path class="st1" d="M219.4,32.5v0.7c0,1.1-0.9,2-2,2h-15.8c-1.1,0-2-0.9-2-2V22.6c0-1.1,0.9-2,2-2h0.7v2h-0.4
		c-0.1,0-0.2,0.1-0.2,0.2v10c0,0.1,0.1,0.2,0.2,0.2h15.3c0.1,0,0.2-0.1,0.2-0.2v-0.4H219.4z M221.1,18.7h-15.3
		c-0.1,0-0.2,0.1-0.2,0.2v10c0,0.1,0.1,0.2,0.2,0.2h15.3c0.1,0,0.2-0.1,0.2-0.2v-10C221.4,18.8,221.3,18.7,221.1,18.7z M221.4,16.7
		c1.1,0,2,0.9,2,2v10.5c0,1.1-0.9,2-2,2h-15.8c-1.1,0-2-0.9-2-2V18.7c0-1.1,0.9-2,2-2H221.4z M210.5,21.3c0,0.9-0.7,1.6-1.6,1.6
		s-1.6-0.7-1.6-1.6c0-0.9,0.7-1.6,1.6-1.6S210.5,20.4,210.5,21.3z M207.6,25.2l1.6-1.6c0.2-0.2,0.5-0.2,0.7,0l1.6,1.6l4.3-4.3
		c0.2-0.2,0.5-0.2,0.7,0l2.9,2.9v3.3h-11.8V25.2z"/>
	<g>
		<path class="st1" d="M204.5,51.9h-1.1v-2.2h-2v2.2h-1.1v-5h1.1v2h2v-2h1.1V51.9z"/>
		<path class="st1" d="M208.7,51.9h-2.9v-5h2.9v0.9h-1.8v1.1h1.7v0.9h-1.7V51h1.8V51.9z"/>
		<path class="st1" d="M210.8,49.9v1.9h-1.1v-5h1.5c0.7,0,1.2,0.1,1.5,0.4c0.3,0.2,0.5,0.6,0.5,1.1c0,0.3-0.1,0.6-0.2,0.8
			c-0.2,0.2-0.4,0.4-0.7,0.5c0.8,1.1,1.2,1.8,1.5,2.2h-1.2l-1.2-1.9H210.8z M210.8,49.1h0.3c0.3,0,0.6-0.1,0.7-0.2
			c0.2-0.1,0.2-0.3,0.2-0.5c0-0.2-0.1-0.4-0.2-0.5c-0.2-0.1-0.4-0.2-0.8-0.2h-0.3V49.1z"/>
		<path class="st1" d="M218.9,49.4c0,0.8-0.2,1.5-0.6,1.9s-1,0.7-1.8,0.7s-1.4-0.2-1.8-0.7s-0.6-1.1-0.6-1.9s0.2-1.5,0.6-1.9
			c0.4-0.4,1-0.7,1.8-0.7c0.8,0,1.4,0.2,1.8,0.7C218.6,47.9,218.9,48.5,218.9,49.4z M215.2,49.4c0,0.6,0.1,1,0.3,1.3s0.5,0.4,1,0.4
			c0.8,0,1.3-0.6,1.3-1.7c0-1.1-0.4-1.7-1.3-1.7c-0.4,0-0.7,0.1-1,0.4C215.3,48.4,215.2,48.8,215.2,49.4z"/>
		<path class="st1" d="M222.8,50.5c0,0.5-0.2,0.8-0.5,1.1c-0.3,0.3-0.8,0.4-1.4,0.4c-0.5,0-1-0.1-1.4-0.3v-1
			c0.3,0.2,0.6,0.3,0.9,0.3s0.4,0.1,0.6,0.1c0.2,0,0.4,0,0.5-0.1s0.2-0.2,0.2-0.4c0-0.1,0-0.2-0.1-0.3c-0.1-0.1-0.1-0.1-0.2-0.2
			c-0.1-0.1-0.3-0.2-0.6-0.3c-0.3-0.1-0.5-0.3-0.7-0.4c-0.2-0.1-0.3-0.3-0.4-0.5c-0.1-0.2-0.1-0.4-0.1-0.6c0-0.4,0.1-0.8,0.4-1
			s0.7-0.4,1.2-0.4c0.3,0,0.5,0,0.7,0.1c0.2,0.1,0.5,0.1,0.7,0.3l-0.3,0.8c-0.3-0.1-0.5-0.2-0.7-0.2c-0.2,0-0.3-0.1-0.5-0.1
			c-0.2,0-0.4,0-0.5,0.1c-0.1,0.1-0.2,0.2-0.2,0.4c0,0.1,0,0.2,0.1,0.2c0,0.1,0.1,0.1,0.2,0.2c0.1,0.1,0.3,0.2,0.7,0.4
			c0.5,0.2,0.8,0.4,1,0.7C222.8,49.9,222.8,50.2,222.8,50.5z"/>
	</g>
</g>
<g class="st2">
	<path class="st0" d="M160.6,150.5H88.3c-1.6,0-2.8-1.3-2.8-2.8V83.3c0-1.6,1.3-2.8,2.8-2.8h72.3c1.6,0,2.8,1.3,2.8,2.8v64.3
		C163.5,149.2,162.2,150.5,160.6,150.5z"/>
	<path class="st1" d="M134.4,116.3h-18.5c-1.2,0-2.2-1-2.2-2.2V98.5c0-1.2,1-2.2,2.2-2.2h18.5c1.2,0,2.2,1,2.2,2.2v15.6
		C136.6,115.4,135.5,116.3,134.4,116.3z M119.6,100.3c-1,0-1.7,0.8-1.7,1.7c0,1,0.8,1.7,1.7,1.7c1,0,1.7-0.8,1.7-1.7
		S120.6,100.3,119.6,100.3z M119.6,104.6c-1,0-1.7,0.8-1.7,1.7c0,1,0.8,1.7,1.7,1.7c1,0,1.7-0.8,1.7-1.7S120.6,104.6,119.6,104.6z
		 M119.6,108.8c-1,0-1.7,0.8-1.7,1.7s0.8,1.7,1.7,1.7c1,0,1.7-0.8,1.7-1.7S120.6,108.8,119.6,108.8z M132.3,102.9v-1.4
		c0-0.3-0.2-0.5-0.5-0.5H123c-0.3,0-0.5,0.2-0.5,0.5v1.4c0,0.3,0.2,0.5,0.5,0.5h8.8C132.2,103.4,132.3,103.2,132.3,102.9z
		 M132.3,107.1v-1.4c0-0.3-0.2-0.5-0.5-0.5H123c-0.3,0-0.5,0.2-0.5,0.5v1.4c0,0.3,0.2,0.5,0.5,0.5h8.8
		C132.2,107.6,132.3,107.5,132.3,107.1z M132.3,111.4V110c0-0.3-0.2-0.5-0.5-0.5H123c-0.3,0-0.5,0.2-0.5,0.5v1.4
		c0,0.3,0.2,0.5,0.5,0.5h8.8C132.2,111.9,132.3,111.7,132.3,111.4z"/>
	<g>
		<path class="st1" d="M111.1,131.9h-1v-5h2.9v0.9h-1.8v1.3h1.7v0.9h-1.7V131.9z"/>
		<path class="st1" d="M118.4,129.4c0,0.8-0.2,1.5-0.6,1.9c-0.4,0.4-1,0.7-1.8,0.7s-1.4-0.2-1.8-0.7c-0.4-0.4-0.6-1.1-0.6-1.9
			c0-0.8,0.2-1.5,0.6-1.9c0.4-0.4,1-0.7,1.8-0.7s1.4,0.2,1.8,0.7C118.2,127.9,118.4,128.5,118.4,129.4z M114.8,129.4
			c0,0.6,0.1,1,0.3,1.3s0.5,0.4,1,0.4c0.8,0,1.3-0.6,1.3-1.7c0-1.1-0.4-1.7-1.3-1.7c-0.4,0-0.7,0.1-1,0.4
			C114.9,128.4,114.8,128.8,114.8,129.4z"/>
		<path class="st1" d="M124,129.4c0,0.8-0.2,1.5-0.6,1.9c-0.4,0.4-1,0.7-1.8,0.7s-1.4-0.2-1.8-0.7c-0.4-0.4-0.6-1.1-0.6-1.9
			c0-0.8,0.2-1.5,0.6-1.9c0.4-0.4,1-0.7,1.8-0.7s1.4,0.2,1.8,0.7C123.8,127.9,124,128.5,124,129.4z M120.4,129.4
			c0,0.6,0.1,1,0.3,1.3s0.5,0.4,1,0.4c0.8,0,1.3-0.6,1.3-1.7c0-1.1-0.4-1.7-1.3-1.7c-0.4,0-0.7,0.1-1,0.4
			C120.5,128.4,120.4,128.8,120.4,129.4z"/>
		<path class="st1" d="M127,131.9h-1.1v-4.1h-1.4v-0.9h3.8v0.9H127V131.9z"/>
		<path class="st1" d="M132,131.9h-2.9v-5h2.9v0.9h-1.8v1.1h1.7v0.9h-1.7v1.3h1.8V131.9z"/>
		<path class="st1" d="M134.1,129.9v1.9H133v-5h1.5c0.7,0,1.2,0.1,1.5,0.4c0.3,0.2,0.5,0.6,0.5,1.1c0,0.3-0.1,0.6-0.2,0.8
			c-0.2,0.2-0.4,0.4-0.7,0.5c0.8,1.1,1.2,1.8,1.5,2.2h-1.2l-1.2-1.9H134.1z M134.1,129.1h0.3c0.3,0,0.6-0.1,0.7-0.2
			c0.2-0.1,0.2-0.3,0.2-0.5c0-0.2-0.1-0.4-0.2-0.5s-0.4-0.2-0.8-0.2h-0.3V129.1z"/>
		<path class="st1" d="M140.6,130.5c0,0.5-0.2,0.8-0.5,1.1c-0.3,0.3-0.8,0.4-1.4,0.4c-0.5,0-1-0.1-1.4-0.3v-1
			c0.3,0.2,0.6,0.3,0.9,0.3c0.2,0.1,0.4,0.1,0.6,0.1c0.2,0,0.4,0,0.5-0.1c0.1-0.1,0.2-0.2,0.2-0.4c0-0.1,0-0.2-0.1-0.3
			c-0.1-0.1-0.1-0.1-0.2-0.2c-0.1-0.1-0.3-0.2-0.6-0.3c-0.3-0.1-0.5-0.3-0.7-0.4c-0.2-0.1-0.3-0.3-0.4-0.5c-0.1-0.2-0.1-0.4-0.1-0.6
			c0-0.4,0.2-0.8,0.5-1c0.3-0.3,0.7-0.4,1.2-0.4c0.3,0,0.5,0,0.7,0.1c0.2,0.1,0.5,0.1,0.7,0.3l-0.3,0.8c-0.3-0.1-0.5-0.2-0.7-0.2
			c-0.2,0-0.3-0.1-0.5-0.1c-0.2,0-0.4,0-0.5,0.1c-0.1,0.1-0.2,0.2-0.2,0.4c0,0.1,0,0.2,0.1,0.2c0,0.1,0.1,0.1,0.2,0.2
			c0.1,0.1,0.3,0.2,0.7,0.4c0.5,0.2,0.8,0.4,1,0.7C140.5,129.9,140.6,130.2,140.6,130.5z"/>
	</g>
</g>
<g class="st3">
	<path class="st0" d="M246.6,150.5h-72.3c-1.6,0-2.8-1.3-2.8-2.8V83.3c0-1.6,1.3-2.8,2.8-2.8h72.3c1.6,0,2.8,1.3,2.8,2.8v64.3
		C249.5,149.2,248.2,150.5,246.6,150.5z"/>
	<path class="st1" d="M220.5,96.3H202c-1.2,0-2.1,1-2.1,2.1v15.7c0,1.2,1,2.1,2.1,2.1h18.5c1.2,0,2.1-1,2.1-2.1V98.4
		C222.7,97.3,221.7,96.3,220.5,96.3z M209.8,113.4h-7.1v-4.3h7.1V113.4z M209.8,106.3h-7.1V102h7.1V106.3z M219.8,113.4h-7.1v-4.3
		h7.1V113.4z M219.8,106.3h-7.1V102h7.1V106.3z"/>
	<g>
		<path class="st1" d="M201.1,131.9H200v-4.1h-1.4v-0.9h3.8v0.9h-1.4V131.9z"/>
		<path class="st1" d="M206.2,131.9l-0.4-1.2h-1.8l-0.4,1.2h-1.1l1.8-5h1.3l1.8,5H206.2z M205.6,129.8c-0.3-1.1-0.5-1.7-0.6-1.8
			c0-0.1-0.1-0.3-0.1-0.3c-0.1,0.3-0.3,1-0.6,2.2H205.6z"/>
		<path class="st1" d="M208,126.9h1.6c0.7,0,1.2,0.1,1.5,0.3c0.3,0.2,0.5,0.5,0.5,1c0,0.3-0.1,0.5-0.2,0.7c-0.1,0.2-0.3,0.3-0.6,0.3
			v0c0.3,0.1,0.5,0.2,0.7,0.4c0.1,0.2,0.2,0.5,0.2,0.8c0,0.5-0.2,0.8-0.5,1.1s-0.8,0.4-1.3,0.4H208V126.9z M209.1,128.8h0.6
			c0.3,0,0.5,0,0.6-0.1c0.1-0.1,0.2-0.2,0.2-0.4c0-0.2-0.1-0.3-0.2-0.4c-0.1-0.1-0.4-0.1-0.7-0.1h-0.6V128.8z M209.1,129.7v1.3h0.7
			c0.3,0,0.5-0.1,0.6-0.2c0.1-0.1,0.2-0.3,0.2-0.5c0-0.4-0.3-0.6-0.9-0.6H209.1z"/>
		<path class="st1" d="M212.7,131.9v-5h1.1v4.1h2v0.9H212.7z"/>
		<path class="st1" d="M219.5,131.9h-2.9v-5h2.9v0.9h-1.8v1.1h1.7v0.9h-1.7v1.3h1.8V131.9z"/>
		<path class="st1" d="M223.5,130.5c0,0.5-0.2,0.8-0.5,1.1c-0.3,0.3-0.8,0.4-1.4,0.4c-0.5,0-1-0.1-1.4-0.3v-1
			c0.3,0.2,0.6,0.3,0.9,0.3c0.2,0.1,0.4,0.1,0.6,0.1c0.2,0,0.4,0,0.5-0.1c0.1-0.1,0.2-0.2,0.2-0.4c0-0.1,0-0.2-0.1-0.3
			c-0.1-0.1-0.1-0.1-0.2-0.2c-0.1-0.1-0.3-0.2-0.6-0.3c-0.3-0.1-0.5-0.3-0.7-0.4c-0.2-0.1-0.3-0.3-0.4-0.5c-0.1-0.2-0.1-0.4-0.1-0.6
			c0-0.4,0.2-0.8,0.5-1c0.3-0.3,0.7-0.4,1.2-0.4c0.3,0,0.5,0,0.7,0.1c0.2,0.1,0.5,0.1,0.7,0.3l-0.3,0.8c-0.3-0.1-0.5-0.2-0.7-0.2
			c-0.2,0-0.3-0.1-0.5-0.1c-0.2,0-0.4,0-0.5,0.1c-0.1,0.1-0.2,0.2-0.2,0.4c0,0.1,0,0.2,0.1,0.2c0,0.1,0.1,0.1,0.2,0.2
			c0.1,0.1,0.3,0.2,0.7,0.4c0.5,0.2,0.8,0.4,1,0.7C223.4,129.9,223.5,130.2,223.5,130.5z"/>
	</g>
</g>
<g class="st3">
	<path class="st0" d="M75.2,150.5H2.9c-1.6,0-2.8-1.3-2.8-2.8V83.3c0-1.6,1.3-2.8,2.8-2.8h72.3c1.6,0,2.8,1.3,2.8,2.8v64.3
		C78.1,149.2,76.8,150.5,75.2,150.5z"/>
	<path class="st1" d="M50.1,97.2H34.5c-0.6,0-1.1,0.5-1.1,1.1v3.4h5.6v-2.2h6.7v11.2h4.5c0.6,0,1.1-0.5,1.1-1.1V98.4
		C51.3,97.7,50.8,97.2,50.1,97.2z M37,100.9c0,0.2-0.1,0.3-0.3,0.3l0,0h-1c-0.2,0-0.3-0.1-0.3-0.3l0,0v-1c0-0.2,0.1-0.3,0.3-0.3h1
		c0.2,0,0.3,0.1,0.3,0.3V100.9z M49.3,108.1c0,0.2-0.1,0.3-0.3,0.3h-1c-0.2,0-0.3-0.1-0.3-0.3v-1c0-0.2,0.1-0.3,0.3-0.3h1
		c0.2,0,0.3,0.1,0.3,0.3V108.1z M49.3,104.5c0,0.2-0.1,0.3-0.3,0.3h-1c-0.2,0-0.3-0.1-0.3-0.3v-1c0-0.2,0.1-0.3,0.3-0.3h1
		c0.2,0,0.3,0.1,0.3,0.3V104.5z M49.3,100.9c0,0.2-0.1,0.3-0.3,0.3l0,0h-1c-0.2,0-0.3-0.1-0.3-0.3l0,0v-1c0-0.2,0.1-0.3,0.3-0.3h1
		c0.2,0,0.3,0.1,0.3,0.3V100.9z M43.4,102.8H30c-0.6,0-1.1,0.5-1.1,1.1V114c0,0.6,0.5,1.1,1.1,1.1h13.4c0.6,0,1.1-0.5,1.1-1.1V104
		C44.5,103.3,44,102.8,43.4,102.8z M32.2,105.1c0.6,0,1.1,0.5,1.1,1.1s-0.5,1.1-1.1,1.1c-0.6,0-1.1-0.5-1.1-1.1
		S31.6,105.1,32.2,105.1z M42.3,112.9H31.1v-1.1l2.2-2.2l1.1,1.1l4.5-4.5l3.4,3.4V112.9z"/>
	<g>
		<path class="st1" d="M3.7,126.9h1.6c0.7,0,1.2,0.1,1.5,0.3c0.3,0.2,0.5,0.5,0.5,1c0,0.3-0.1,0.5-0.2,0.7c-0.1,0.2-0.3,0.3-0.6,0.3
			v0c0.3,0.1,0.5,0.2,0.7,0.4c0.1,0.2,0.2,0.5,0.2,0.8c0,0.5-0.2,0.8-0.5,1.1c-0.3,0.3-0.8,0.4-1.3,0.4H3.7V126.9z M4.8,128.8h0.6
			c0.3,0,0.5,0,0.6-0.1c0.1-0.1,0.2-0.2,0.2-0.4c0-0.2-0.1-0.3-0.2-0.4c-0.1-0.1-0.4-0.1-0.7-0.1H4.8V128.8z M4.8,129.7v1.3h0.7
			c0.3,0,0.5-0.1,0.6-0.2c0.1-0.1,0.2-0.3,0.2-0.5c0-0.4-0.3-0.6-0.9-0.6H4.8z"/>
		<path class="st1" d="M11.5,131.9l-0.4-1.2H9.3l-0.4,1.2H7.8l1.8-5h1.3l1.8,5H11.5z M10.8,129.8c-0.3-1.1-0.5-1.7-0.6-1.8
			c0-0.1-0.1-0.3-0.1-0.3c-0.1,0.3-0.3,1-0.6,2.2H10.8z"/>
		<path class="st1" d="M15.4,127.7c-0.4,0-0.7,0.1-0.9,0.4c-0.2,0.3-0.3,0.7-0.3,1.3c0,1.1,0.4,1.7,1.3,1.7c0.4,0,0.8-0.1,1.3-0.3
			v0.9c-0.4,0.2-0.9,0.3-1.4,0.3c-0.7,0-1.3-0.2-1.7-0.7c-0.4-0.4-0.6-1.1-0.6-1.9c0-0.5,0.1-1,0.3-1.4c0.2-0.4,0.5-0.7,0.8-0.9
			c0.4-0.2,0.8-0.3,1.2-0.3c0.5,0,1,0.1,1.5,0.4l-0.3,0.9c-0.2-0.1-0.4-0.2-0.6-0.2S15.5,127.7,15.4,127.7z"/>
		<path class="st1" d="M21.7,131.9h-1.2l-1.3-2.1l-0.4,0.3v1.8h-1.1v-5h1.1v2.3l0.4-0.6l1.4-1.7h1.2l-1.7,2.2L21.7,131.9z"/>
		<path class="st1" d="M24.2,129.1h2v2.6c-0.3,0.1-0.6,0.2-0.9,0.2c-0.3,0-0.6,0.1-0.9,0.1c-0.8,0-1.3-0.2-1.7-0.7
			c-0.4-0.4-0.6-1.1-0.6-1.9c0-0.8,0.2-1.4,0.7-1.9c0.5-0.5,1.1-0.7,1.9-0.7c0.5,0,1,0.1,1.5,0.3l-0.4,0.8c-0.4-0.2-0.7-0.3-1.1-0.3
			c-0.5,0-0.8,0.2-1.1,0.5s-0.4,0.7-0.4,1.2c0,0.5,0.1,1,0.3,1.2c0.2,0.3,0.5,0.4,1,0.4c0.2,0,0.4,0,0.7-0.1v-1h-0.9V129.1z"/>
		<path class="st1" d="M28.5,129.9v1.9h-1.1v-5h1.5c0.7,0,1.2,0.1,1.5,0.4c0.3,0.2,0.5,0.6,0.5,1.1c0,0.3-0.1,0.6-0.2,0.8
			c-0.2,0.2-0.4,0.4-0.7,0.5c0.8,1.1,1.2,1.8,1.5,2.2h-1.2l-1.2-1.9H28.5z M28.5,129.1h0.3c0.3,0,0.6-0.1,0.7-0.2s0.2-0.3,0.2-0.5
			c0-0.2-0.1-0.4-0.2-0.5c-0.2-0.1-0.4-0.2-0.8-0.2h-0.3V129.1z"/>
		<path class="st1" d="M36.6,129.4c0,0.8-0.2,1.5-0.6,1.9c-0.4,0.4-1,0.7-1.8,0.7s-1.4-0.2-1.8-0.7c-0.4-0.4-0.6-1.1-0.6-1.9
			c0-0.8,0.2-1.5,0.6-1.9c0.4-0.4,1-0.7,1.8-0.7s1.4,0.2,1.8,0.7C36.4,127.9,36.6,128.5,36.6,129.4z M32.9,129.4
			c0,0.6,0.1,1,0.3,1.3s0.5,0.4,1,0.4c0.8,0,1.3-0.6,1.3-1.7c0-1.1-0.4-1.7-1.3-1.7c-0.4,0-0.7,0.1-1,0.4
			C33,128.4,32.9,128.8,32.9,129.4z"/>
		<path class="st1" d="M41.7,126.9v3.2c0,0.4-0.1,0.7-0.2,1c-0.2,0.3-0.4,0.5-0.7,0.6c-0.3,0.1-0.7,0.2-1.1,0.2
			c-0.6,0-1.1-0.2-1.5-0.5s-0.5-0.8-0.5-1.4v-3.2h1.1v3.1c0,0.4,0.1,0.7,0.2,0.8c0.2,0.2,0.4,0.3,0.8,0.3c0.3,0,0.6-0.1,0.8-0.3
			c0.2-0.2,0.2-0.5,0.2-0.9v-3.1H41.7z"/>
		<path class="st1" d="M47.3,131.9H46l-2.2-3.8h0c0,0.7,0.1,1.1,0.1,1.4v2.4h-0.9v-5h1.3l2.2,3.7h0c0-0.6-0.1-1.1-0.1-1.4v-2.4h1
			V131.9z"/>
		<path class="st1" d="M52.7,129.3c0,0.8-0.2,1.5-0.7,1.9c-0.5,0.4-1.1,0.7-2,0.7h-1.4v-5h1.6c0.8,0,1.4,0.2,1.9,0.6
			C52.5,127.9,52.7,128.5,52.7,129.3z M51.6,129.3c0-1.1-0.5-1.6-1.4-1.6h-0.6v3.3h0.5C51.1,131,51.6,130.4,51.6,129.3z"/>
		<path class="st1" d="M58.4,126.9h1.1l-1.7,5h-1.2l-1.7-5H56l0.9,3c0.1,0.2,0.1,0.4,0.2,0.6c0.1,0.2,0.1,0.4,0.1,0.5
			c0-0.2,0.1-0.6,0.3-1.1L58.4,126.9z"/>
		<path class="st1" d="M60.1,131.9v-5h1.1v5H60.1z"/>
		<path class="st1" d="M66.6,129.3c0,0.8-0.2,1.5-0.7,1.9c-0.5,0.4-1.1,0.7-2,0.7h-1.4v-5H64c0.8,0,1.4,0.2,1.9,0.6
			C66.4,127.9,66.6,128.5,66.6,129.3z M65.5,129.3c0-1.1-0.5-1.6-1.4-1.6h-0.6v3.3H64C65,131,65.5,130.4,65.5,129.3z"/>
		<path class="st1" d="M70.5,131.9h-2.9v-5h2.9v0.9h-1.8v1.1h1.7v0.9h-1.7v1.3h1.8V131.9z"/>
		<path class="st1" d="M76.1,129.4c0,0.8-0.2,1.5-0.6,1.9c-0.4,0.4-1,0.7-1.8,0.7s-1.4-0.2-1.8-0.7c-0.4-0.4-0.6-1.1-0.6-1.9
			c0-0.8,0.2-1.5,0.6-1.9s1-0.7,1.8-0.7c0.8,0,1.4,0.2,1.8,0.7C75.9,127.9,76.1,128.5,76.1,129.4z M72.4,129.4c0,0.6,0.1,1,0.3,1.3
			c0.2,0.3,0.5,0.4,0.9,0.4c0.8,0,1.3-0.6,1.3-1.7c0-1.1-0.4-1.7-1.3-1.7c-0.4,0-0.7,0.1-1,0.4C72.5,128.4,72.4,128.8,72.4,129.4z"
			/>
	</g>
</g>
</svg>
