<?xml version="1.0" encoding="utf-8"?>
<!-- Generator: Adobe Illustrator 23.0.1, SVG Export Plug-In . SVG Version: 6.00 Build 0)  -->
<svg xmlns="http://www.w3.org/2000/svg" xmlns:xlink="http://www.w3.org/1999/xlink" x="0px" y="0px"
	 viewBox="0 0 155 152.9" style="enable-background:new 0 0 155 152.9;" xml:space="preserve">
<style type="text/css">
	.social-responsibility-0{fill:#377DFF;}
	.social-responsibility-1{fill:#FFFFFF;}
	.social-responsibility-2{fill:#FFC107;}
</style>
<path class="social-responsibility-0" d="M32.4,18.7c0,0-5.2,2.9,0,6.6s8.4,16.9,8.4,16.9s7.5,20,32.1,21.8s41.8-13.5,41.8-13.5s23.1-16.6,0.6-12.4
	c0,0,7.7-13.5,7.4-29.3c0,0,2.3-7.2-5-5.8c0,0-26.5,0.9-36.4,11.2c0,0-13.8-23-34.6-9.3C46.7,4.8,38.7,11.3,32.4,18.7z"/>
<circle class="social-responsibility-1" cx="48.5" cy="21.1" r="3.6"/>
<path class="social-responsibility-2" d="M21.2,83.9c-1.9-6.9-3.8-13.8-5.8-20.7c-1.7-6.1-2.3-14.3-8.8-18c-3.6-2.1-5.6,1.4-5.8,4.2
	c-0.2,3.1,0.5,6.3,0.7,9.4c0.3,3.3,0.6,6.7,0.9,10C3.1,75.4,3.7,82,4.3,88.6c0.1,1.6,0.3,3.2,0.4,4.7c0,0-1,13.4,8.1,20.9
	c9.1,7.5,29.4,28.1,29.4,28.1s5.5,6.1,5.8,10.6h22.5c0,0-7.1-20.4-8.5-21.8c-1.4-1.4-0.4-8.3-18.8-24.5
	C43.1,106.6,22,86.8,21.2,83.9z"/>
<path class="social-responsibility-1" d="M25.4,89.1c-0.5-0.4-1.1-0.7-1.7-1.1c-0.5-0.3-1.1-0.7-1.7-1c-1.2-0.6-2.4-1.1-3.8-1.2c-1.6-0.1-3,0.7-3.6,2
	c-1.6,3.4,0.8,6.7,2.4,9.7c2.9,5.4,5.9,10.9,10,15.7c0.5,0.6,1,1.2,1.6,1.7c-4-3.8-7.8-7.9-11.1-12.2c-3.1-4.2-6.6-9.4-6.2-14.6
	c0.1-1.6,0.8-3.2,2.4-4.1c1.5-0.9,3.5-0.9,5.2-0.6c0.8,0.1,1.6,0.3,2.4,0.5c0.1,0,0.3,0.6,0.4,0.6c0.4,0.7,0.9,1.3,1.4,1.9
	C23.8,87.3,24.5,88.2,25.4,89.1z"/>
<path class="social-responsibility-2" d="M134.6,83.9c1.9-6.9,3.8-13.8,5.7-20.7c1.7-6.1,2.3-14.3,8.8-18c3.6-2.1,5.6,1.4,5.8,4.2
	c0.2,3.1-0.5,6.3-0.7,9.4c-0.3,3.3-0.6,6.7-0.9,10c-0.6,6.6-1.1,13.2-1.7,19.8c-0.1,1.6-0.3,3.2-0.4,4.7c0,0,1,13.4-8,20.9
	s-29.3,28.1-29.3,28.1s-5.4,6.1-5.8,10.6H85.6c0,0,7.1-20.4,8.5-21.8c1.4-1.4,0.4-8.3,18.8-24.5C112.8,106.6,133.8,86.8,134.6,83.9z
	"/>
<path class="social-responsibility-1" d="M130.4,89.1c0.5-0.4,1.1-0.7,1.7-1.1c0.5-0.3,1.1-0.7,1.7-1c1.2-0.6,2.4-1.1,3.8-1.2c1.6-0.1,3,0.7,3.6,2
	c1.6,3.4-0.8,6.7-2.3,9.7c-2.9,5.4-5.9,10.9-10,15.7c-0.5,0.6-1,1.2-1.6,1.7c4-3.8,7.8-7.9,11-12.2c3.1-4.2,6.6-9.4,6.2-14.6
	c-0.1-1.6-0.8-3.2-2.4-4.1c-1.5-0.9-3.5-0.9-5.2-0.6c-0.8,0.1-1.6,0.3-2.4,0.5c-0.1,0-0.3,0.6-0.4,0.6c-0.4,0.7-0.9,1.3-1.4,1.9
	C132.1,87.3,131.3,88.2,130.4,89.1z"/>
</svg>
