<?xml version="1.0" encoding="utf-8"?>
<!-- Generator: Adobe Illustrator 23.0.3, SVG Export Plug-In . SVG Version: 6.00 Build 0)  -->
<svg xmlns="http://www.w3.org/2000/svg" xmlns:xlink="http://www.w3.org/1999/xlink" x="0px" y="0px"
	 viewBox="0 0 38.9 41.8" style="enable-background:new 0 0 38.9 41.8;" xml:space="preserve">
<style type="text/css">
	.stars-0{fill:#FFC107;}
</style>
<path class="stars-0 fill-warning" d="M19.7,10.5l3.2,6.5c0,0.1,0.1,0.1,0.2,0.2l7.1,1c0.2,0,0.3,0.3,0.2,0.5l-5.2,5c-0.1,0.1-0.1,0.2-0.1,0.3
	l1.2,7.1c0,0.2-0.2,0.4-0.4,0.3l-6.4-3.4c-0.1,0-0.2,0-0.3,0l-6.4,3.4c-0.2,0.1-0.5-0.1-0.4-0.3l1.2-7.1c0-0.1,0-0.2-0.1-0.3l-5.2-5
	c-0.2-0.2-0.1-0.5,0.2-0.5l7.1-1c0.1,0,0.2-0.1,0.2-0.2l3.2-6.5C19.3,10.3,19.6,10.3,19.7,10.5z"/>
<path class="stars-0 fill-warning" opacity=".25" d="M31.4,5.2l0.9,1.7c0,0,0,0,0.1,0l1.9,0.3c0.1,0,0.1,0.1,0,0.1l-1.4,1.4c0,0,0,0,0,0.1l0.3,1.9
	c0,0.1-0.1,0.1-0.1,0.1l-1.7-0.9c0,0-0.1,0-0.1,0l-1.7,0.9c-0.1,0-0.1,0-0.1-0.1l0.3-1.9c0,0,0-0.1,0-0.1l-1.4-1.4c0,0,0-0.1,0-0.1
	l1.9-0.3c0,0,0,0,0.1,0l0.9-1.7C31.3,5.1,31.3,5.1,31.4,5.2z"/>
<path class="stars-0 fill-warning" opacity=".25" d="M4.8,1.8l0.8,1.7c0,0,0,0,0.1,0l1.8,0.3c0.1,0,0.1,0.1,0,0.1L6.2,5.2c0,0,0,0,0,0.1l0.3,1.8
	c0,0.1-0.1,0.1-0.1,0.1L4.8,6.3c0,0,0,0-0.1,0L3.1,7.2c-0.1,0-0.1,0-0.1-0.1l0.3-1.8c0,0,0,0,0-0.1L1.9,3.9c0,0,0-0.1,0-0.1l1.8-0.3
	c0,0,0,0,0.1,0l0.8-1.7C4.7,1.8,4.8,1.8,4.8,1.8z"/>
<path class="stars-0 fill-warning" opacity=".25" d="M5.8,32l0.9,1.7c0,0,0,0,0.1,0l1.9,0.3c0.1,0,0.1,0.1,0,0.1l-1.4,1.4c0,0,0,0,0,0.1l0.3,1.9
	c0,0.1-0.1,0.1-0.1,0.1l-1.7-0.9c0,0-0.1,0-0.1,0L4,37.6c-0.1,0-0.1,0-0.1-0.1l0.3-1.9c0,0,0-0.1,0-0.1l-1.4-1.4c0,0,0-0.1,0-0.1
	l1.9-0.3c0,0,0,0,0.1,0L5.6,32C5.7,31.9,5.8,31.9,5.8,32z"/>
<path class="stars-0 fill-warning" opacity=".25" d="M34.3,34.2l1,1.9c0,0,0,0,0.1,0l2.1,0.3c0.1,0,0.1,0.1,0,0.2l-1.5,1.5c0,0,0,0,0,0.1l0.4,2.1
	c0,0.1-0.1,0.1-0.1,0.1l-1.9-1c0,0-0.1,0-0.1,0l-1.9,1c-0.1,0-0.1,0-0.1-0.1l0.4-2.1c0,0,0-0.1,0-0.1l-1.5-1.5c-0.1-0.1,0-0.1,0-0.2
	l2.1-0.3c0,0,0.1,0,0.1,0l1-1.9C34.1,34.1,34.2,34.1,34.3,34.2z"/>
</svg>
