<?xml version="1.0" encoding="utf-8"?>
<!-- Generator: Adobe Illustrator 23.0.1, SVG Export Plug-In . SVG Version: 6.00 Build 0)  -->
<svg xmlns="http://www.w3.org/2000/svg" xmlns:xlink="http://www.w3.org/1999/xlink" x="0px" y="0px"
	 viewBox="0 0 120 120" style="enable-background:new 0 0 120 120;" xml:space="preserve">
<style type="text/css">
	.top-endorsed-0{fill:#00C9A7;}
	.top-endorsed-1{fill:#1DDDB9;}
	.top-endorsed-2{fill:#FFFFFF;}
</style>
<path class="top-endorsed-0" d="M51.9,115L51.9,115c-7,7-19,2.6-19.9-7.3l0,0c-0.6-6.4-6.2-11.1-12.6-10.6l0,0C9.5,97.9,3.1,86.9,8.7,78.7l0,0
	c3.6-5.3,2.4-12.5-2.9-16.3l0,0c-8-5.8-5.9-18.2,3.6-20.8l0,0c6.2-1.7,9.9-8,8.2-14.3l0,0C15.1,17.8,25,9.6,34,13.9l0,0
	c5.8,2.7,12.8,0.2,15.5-5.6l0,0c4.3-9,17-9,21.1,0l0,0c2.7,5.8,9.7,8.4,15.5,5.6l0,0c9-4.1,18.7,4.1,16.3,13.5l0,0
	c-1.7,6.2,2,12.6,8.2,14.3l0,0c9.6,2.6,11.7,15.2,3.6,20.8l0,0c-5.3,3.6-6.5,10.9-2.9,16.3l0,0c5.6,8-0.8,19.1-10.6,18.4l0,0
	c-6.4-0.6-12,4.3-12.6,10.6l0,0c-0.9,9.9-12.9,14.1-19.9,7.3l0,0C63.7,110.5,56.4,110.5,51.9,115z"/>
<path class="top-endorsed-1" d="M54,100.9L54,100.9c-5.2,5.2-14.1,1.9-14.8-5.4l0,0c-0.5-4.7-4.6-8.2-9.4-7.9l0,0c-7.3,0.6-12.1-7.6-7.9-13.6
	l0,0c2.7-3.9,1.8-9.2-2.1-12.1l0,0c-6-4.3-4.4-13.5,2.7-15.4l0,0c4.6-1.2,7.3-6,6.1-10.6l0,0c-1.9-7.1,5.4-13.2,12.1-10l0,0
	c4.3,2,9.5,0.1,11.5-4.2l0,0c3.2-6.7,12.6-6.7,15.7,0l0,0c2,4.3,7.1,6.2,11.5,4.2l0,0c6.7-3,13.9,3,12.1,10l0,0
	c-1.2,4.6,1.5,9.4,6.1,10.6l0,0c7.1,1.9,8.7,11.3,2.7,15.4l0,0c-3.9,2.7-4.8,8.1-2.1,12.1l0,0c4.2,6-0.6,14.2-7.9,13.6l0,0
	c-4.7-0.5-8.9,3.2-9.4,7.9l0,0c-0.7,7.3-9.6,10.5-14.8,5.4l0,0C62.8,97.5,57.4,97.5,54,100.9z"/>
<g>
	<path class="top-endorsed-2" d="M56.4,46.8v5.6H41.6v7.8c1.2-1.5,3.8-2.7,6.5-2.7c7.8,0,10.4,5.9,10.4,11c0,6.8-3.9,11.7-11.5,11.7
		c-7.2,0-11.3-4-11.9-9.4h6.2c0.5,2.3,2.4,4,5.5,4c3.8,0,5.4-2.7,5.4-6.2c0-3.8-1.9-5.8-5.5-5.8c-2.7,0-4.3,1.5-5,3.5h-6.1V46.8
		H56.4z"/>
	<path class="top-endorsed-2" d="M79.5,52.3v8.9h8.6v5.6h-8.6v8.9h-6v-8.9h-8.6v-5.6h8.6v-8.9H79.5z"/>
</g>
</svg>
