<?xml version="1.0" encoding="utf-8"?>
<!-- Generator: Adobe Illustrator 23.0.1, SVG Export Plug-In . SVG Version: 6.00 Build 0)  -->
<svg xmlns="http://www.w3.org/2000/svg" xmlns:xlink="http://www.w3.org/1999/xlink" x="0px" y="0px"
	 viewBox="0 0 155 152.9" style="enable-background:new 0 0 155 152.9;" xml:space="preserve">
<style type="text/css">
	.top-level-award-0{fill:#DE4437;}
	.top-level-award-1{fill:#FFFFFF;}
</style>
<circle class="top-level-award-0" cx="77.5" cy="76.5" r="76.2"/>
<path class="top-level-award-1" d="M106.4,103.7c2.3,10.3-9,12.6-13.9,11.2c-4.9-1.3-15-1.6-15-1.6s-10.1,0.2-15,1.6c-4.9,1.4-16.2-0.9-13.9-11.2
	c2.2-10.3,12.1-9.9,14.8-23.8c2.7-13.9,14.1-13,14.1-13s11.4-0.9,14.1,13C94.3,93.8,104.2,93.3,106.4,103.7z M87.9,65.9
	c6.1,1.8,12.8-3,15-10.7c2.2-7.7-0.9-15.3-7-17.1c-6.1-1.8-12.8,3-15,10.7C78.7,56.5,81.8,64.2,87.9,65.9z M113.1,63.1
	c-5.9-2.4-13,1.7-16.1,9.1c-3,7.4-0.7,15.3,5.1,17.7c5.9,2.4,13-1.7,16.1-9.1S118.9,65.5,113.1,63.1z M67.1,65.9
	c6.1-1.8,9.2-9.4,7-17.1c-2.2-7.7-8.9-12.5-15-10.7c-6.1,1.8-9.2,9.4-7,17.1C54.3,62.9,61,67.7,67.1,65.9z M52.8,89.9
	c5.9-2.4,8.2-10.3,5.1-17.7s-10.2-11.4-16.1-9.1c-5.9,2.4-8.2,10.3-5.1,17.7C39.8,88.2,47,92.3,52.8,89.9z"/>
</svg>
