<?xml version="1.0" encoding="utf-8"?>
<!-- Generator: Adobe Illustrator 23.0.3, SVG Export Plug-In . SVG Version: 6.00 Build 0)  -->
<svg xmlns="http://www.w3.org/2000/svg" xmlns:xlink="http://www.w3.org/1999/xlink" x="0px" y="0px" width="25" height="25"
	 viewBox="0 0 25.6 25.6" style="enable-background:new 0 0 25.6 25.6;" xml:space="preserve">
<g>
	<defs>
		<path id="topVendorSVGID_1" d="M25.6,12.8C25.6,12.8,25.6,12.8,25.6,12.8C25.6,12.8,25.6,12.8,25.6,12.8c0-1-0.5-1.9-1.3-2.3
			c0.5-0.7,0.6-1.7,0.3-2.6c-0.4-0.9-1.2-1.5-2-1.6c0.2-0.9-0.1-1.8-0.8-2.5C21.1,3,20.2,2.8,19.3,3c-0.2-0.9-0.8-1.7-1.7-2
			c-0.9-0.4-1.9-0.2-2.6,0.3C14.6,0.5,13.7,0,12.8,0c-1,0-1.8,0.5-2.3,1.3C9.7,0.7,8.8,0.6,7.9,1C7,1.4,6.4,2.1,6.2,3
			C5.4,2.8,4.4,3.1,3.7,3.8C3,4.5,2.8,5.4,3,6.3C2.1,6.4,1.3,7,1,7.9l0,0c-0.4,0.9-0.2,1.9,0.3,2.6C0.5,11,0,11.9,0,12.8
			c0,1,0.5,1.8,1.2,2.3c-0.5,0.7-0.6,1.7-0.3,2.6c0.4,0.9,1.2,1.5,2,1.6c-0.2,0.9,0.1,1.8,0.7,2.5c0.7,0.7,1.6,0.9,2.5,0.7
			c0.2,0.9,0.8,1.7,1.6,2c0.9,0.4,1.9,0.2,2.6-0.3c0.5,0.7,1.3,1.2,2.3,1.2c1,0,1.8-0.5,2.3-1.2c0.7,0.5,1.7,0.6,2.6,0.3
			c0.9-0.4,1.5-1.2,1.6-2c0.9,0.2,1.8-0.1,2.5-0.7c0.7-0.7,0.9-1.6,0.7-2.5c0.9-0.2,1.7-0.8,2-1.6c0.4-0.9,0.2-1.9-0.3-2.6
			C25.1,14.6,25.6,13.8,25.6,12.8z"/>
	</defs>
	<use xlink:href="#topVendorSVGID_1"  style="overflow:visible;fill:#377DFF;"/>
	<clipPath id="topVendorSVGID_2">
		<use xlink:href="#topVendorSVGID_1"  style="overflow:visible;"/>
	</clipPath>
	<polygon clip-path="url(#topVendorSVGID_2)" opacity=".1" points="20,25.6 9.2,18.4 12.8,7.2 25.6,16.3 	"/>
</g>
<polygon fill="#ffffff" points="12.8,7.2 14.6,10.9 18.7,11.5 15.7,14.4 16.4,18.4 12.8,16.5 9.2,18.4 9.9,14.4 6.9,11.5 11,10.9 "/>
</svg>
