<?xml version="1.0" encoding="utf-8"?>
<!-- Generator: Adobe Illustrator 23.0.1, SVG Export Plug-In . SVG Version: 6.00 Build 0)  -->
<svg xmlns="http://www.w3.org/2000/svg" xmlns:xlink="http://www.w3.org/1999/xlink" x="0px" y="0px"
	 viewBox="0 0 2244.6 1813.6" style="enable-background:new 0 0 2244.6 1813.6;" xml:space="preserve">
<style type="text/css">
	.visa-card-0{fill:#2D1582;}
	.visa-card-1{fill:#FFFFFF;}
	.visa-card-2{fill:#377DFF;}
</style>
<g>
	<path class="visa-card-0 fill-indigo" d="M1829.7,1811L46.3,1266.4c-31.8-9.7-49.8-43.4-40.1-75.3L343.2,87.6c9.7-31.8,43.4-49.8,75.3-40.1
		l1783.4,544.6c31.8,9.7,49.8,43.4,40.1,75.3L1905,1770.9C1895.3,1802.7,1861.6,1820.7,1829.7,1811z"/>
	<path class="visa-card-1 fill-white" d="M594,406l54.2,16.6l13.6-44.7L593.3,357l-8.3,27.3L594,406z M554.1,374.8l-20.9,68.5l65.1,19.9
		c18.9,5.8,38.9-4.8,44.7-23.8l3-9.9l-57.5-17.6l-12.4-30.2L554.1,374.8L554.1,374.8z M595.4,350.2l68.5,20.9l13.6-44.7l-54.2-16.6
		L603.7,323L595.4,350.2z M496.8,376.4l19.6-13.1l8.3-27.3l-68.5-20.9l-13.6,44.7L496.8,376.4L496.8,376.4z M477,246.8l-3.1,10
		l57.5,17.6l12.4,30.2l22.1,6.7l20.9-68.5l-65.1-19.9C502.8,217.3,482.8,227.9,477,246.8z M526.1,280.2l-54.2-16.6l-13.6,44.7
		l68.5,20.9l8.3-27.3L526.1,280.2z M594.9,320.3l27.2-18.2l57.5,17.6l3.1-10c5.8-18.8-4.8-38.9-23.8-44.7L593.8,245l-20.9,68.5
		L594.9,320.3L594.9,320.3z M525.2,366L498,384.1l-57.5-17.6l-3,9.9c-5.8,18.9,4.8,38.9,23.8,44.7l65.1,19.9l20.9-68.5L525.2,366
		L525.2,366z"/>
	<path class="visa-card-1 fill-white" d="M1874.9,739.8c-4.1,12.7,5.3,23.4,12.7,30.2c7.6,7,9.8,10.8,8.5,14.6c-1.9,5.9-9.7,6.4-16.3,4.5
		c-11.5-3.3-17.2-8.6-21.8-12.7l-10,18.2c4.6,4.1,13.8,9.2,24,12.5c24.1,7.4,43.4,0.3,49.1-18.1c7.2-23.3-24.8-34.5-21.4-44.9
		c1.1-3.1,5-5.6,12-4.4c3.4,0.5,12.6,3,21.4,10.8l9.7-17.5c-4.9-3.7-11.4-7.8-20.2-10.5C1899.9,715.4,1880.4,722.6,1874.9,739.8
		 M1982.3,742.3c-4.4-1.3-8.9,0.1-11.7,3.5l-59.4,71.6l24,7.3l8.8-11.7l29.4,9l-1.3,14l21.2,6.5l8.6-94.2L1982.3,742.3
		 M1978.3,767.3l-3.2,35.4l-19-5.8L1978.3,767.3 M1854.3,703.2l-46,82.8l23,7l46-82.8L1854.3,703.2 M1820.3,692.9l-42.2,53l6-54.2
		c0.6-6.1-2.9-10.7-7.8-12.2l-39-11.9l-1.4,2.4c7.5,4.2,15.7,9.7,20.3,14.4c2.8,2.8,3.3,4.8,3.1,9.4l-3.3,76.3l24.2,7.4l64.2-77.2
		L1820.3,692.9"/>
	<g>

			<ellipse transform="matrix(0.292 -0.9564 0.9564 0.292 -558.9844 899.9407)" class="visa-card-1 fill-white" cx="328.4" cy="827.5" rx="21.6" ry="21.6"/>

			<ellipse transform="matrix(0.292 -0.9564 0.9564 0.292 -519.6021 1010.9659)" class="visa-card-1 fill-white" cx="423.1" cy="856.5" rx="21.6" ry="21.6"/>

			<ellipse transform="matrix(0.292 -0.9564 0.9564 0.292 -480.2198 1121.9911)" class="visa-card-1 fill-white" cx="517.8" cy="885.4" rx="21.6" ry="21.6"/>

			<ellipse transform="matrix(0.292 -0.9564 0.9564 0.292 -440.8376 1233.0162)" class="visa-card-1 fill-white" cx="612.4" cy="914.3" rx="21.6" ry="21.6"/>
		<circle class="visa-card-1 fill-white" cx="784.6" cy="966.8" r="21.6"/>
		<circle class="visa-card-1 fill-white" cx="879.3" cy="995.8" r="21.6"/>
		<circle class="visa-card-1 fill-white" cx="974" cy="1024.7" r="21.6"/>
		<circle class="visa-card-1 fill-white" cx="1068.6" cy="1053.6" r="21.6"/>
		<circle class="visa-card-1 fill-white" cx="1240.8" cy="1106.1" r="21.6"/>
		<circle class="visa-card-1 fill-white" cx="1335.5" cy="1135.1" r="21.6"/>
		<circle class="visa-card-1 fill-white" cx="1430.2" cy="1164" r="21.6"/>
		<circle class="visa-card-1 fill-white" cx="1524.8" cy="1192.9" r="21.6"/>
		<g>
			<path class="visa-card-1 fill-white" d="M1713.3,1227.3l-4.1,13.6c-1,3.2-2.7,5.4-5.3,6.7c1.3,2.8,1.6,5.6,0.8,8.3l-4.3,14.2c-0.6,2-1.9,3.5-3.7,4.4
				c-1.9,1-3.8,1.1-5.8,0.5l-25.6-7.8c-1.1-0.3-1.7-0.9-2.3-1.8c-0.5-0.9-0.6-1.9-0.3-2.9c0.3-1.1,0.9-1.7,1.8-2.3
				c0.9-0.5,1.9-0.6,2.9-0.3l25.5,7.8l4.3-14.2c0.3-1.1,0.2-2-0.3-2.9c-0.4-1-1.2-1.5-2.3-1.8l-14.5-4.4c-1.1-0.3-1.7-0.9-2.3-1.8
				s-0.6-1.9-0.3-2.9c0.3-1.1,0.9-1.7,1.8-2.3c0.9-0.5,1.9-0.6,2.9-0.3l14.6,4.5c1,0.3,1.9,0.2,2.9-0.3c1-0.4,1.5-1.2,1.8-2.3
				l4.3-14l-25.8-7.9c-1.1-0.3-1.7-0.9-2.3-1.8c-0.5-0.9-0.6-1.9-0.3-2.9c0.3-1.1,0.9-1.7,1.8-2.3c0.9-0.5,1.9-0.6,2.9-0.3l25.8,7.9
				c2,0.6,3.5,1.8,4.5,3.7C1713.8,1223.4,1713.9,1225.3,1713.3,1227.3z"/>
			<path class="visa-card-1 fill-white" d="M1736.1,1226.3l3.6,1.1c1,0.3,1.7,0.9,2.3,1.8c0.4,1,0.6,1.9,0.3,2.9c-0.3,1.1-0.9,1.7-1.8,2.3
				c-0.9,0.5-1.9,0.6-2.9,0.3l-7.3,23.9l25.5,7.8c1,0.3,1.7,0.9,2.3,1.8c0.5,1,0.6,1.9,0.3,2.9l-5.7,18.7c-0.3,1.1-0.9,1.7-1.8,2.3
				c-1,0.4-1.9,0.6-2.9,0.3l-29.1-8.9c-1.1-0.3-1.8-1-2.3-1.8c-0.5-1-0.6-1.9-0.3-2.9l15.2-49.9c0.3-1.1,0.9-1.7,1.8-2.3
				C1734.1,1226.1,1735,1226,1736.1,1226.3z M1727.9,1265.9l-3.5,11.5l21.9,6.7l3.5-11.5L1727.9,1265.9z"/>
			<path class="visa-card-1 fill-white" d="M1801.1,1308.6l-3.6-1.1c-1-0.3-1.7-0.9-2.3-1.8c-0.6-0.9-0.6-1.9-0.3-2.9c0.3-1.1,0.9-1.7,1.8-2.3
				c0.9-0.5,1.9-0.6,2.9-0.3l7.3-23.9l-25.5-7.8c-1-0.3-1.7-0.9-2.3-1.8c-0.5-1-0.6-1.9-0.3-2.9l5.7-18.7c0.3-1,0.9-1.7,1.8-2.3
				c1-0.5,1.9-0.6,2.9-0.3l29.1,8.9c1,0.3,1.7,0.9,2.3,1.8c0.5,1,0.6,1.9,0.3,2.9l-15.2,49.9c-0.3,1.1-0.9,1.7-1.8,2.3
				C1803,1308.8,1802.1,1308.9,1801.1,1308.6z M1809.3,1269.1l3.5-11.4l-22-6.7l-3.5,11.4L1809.3,1269.1z"/>
			<path class="visa-card-1 fill-white" d="M1873.2,1276.1l-4.1,13.6c-1,3.2-2.7,5.4-5.3,6.7c1.3,2.8,1.6,5.6,0.8,8.3l-4.3,14.2c-0.6,2-1.9,3.5-3.7,4.4
				c-1.9,1-3.8,1.1-5.8,0.5l-25.6-7.8c-1.1-0.3-1.7-0.9-2.3-1.8c-0.5-0.9-0.6-1.9-0.3-2.9c0.3-1.1,0.9-1.7,1.8-2.3
				c0.9-0.5,1.9-0.6,2.9-0.3l25.5,7.8l4.3-14.2c0.3-1.1,0.2-2-0.3-2.9c-0.4-1-1.2-1.5-2.3-1.8l-14.5-4.4c-1.1-0.3-1.7-0.9-2.3-1.8
				c-0.6-0.9-0.6-1.9-0.3-2.9c0.3-1.1,0.9-1.7,1.8-2.3c0.9-0.5,1.9-0.6,2.9-0.3l14.6,4.5c1,0.3,1.9,0.2,2.9-0.3
				c1-0.4,1.5-1.2,1.8-2.3l4.3-14l-25.8-7.9c-1.1-0.3-1.7-0.9-2.3-1.8c-0.5-0.9-0.6-1.9-0.3-2.9c0.3-1.1,0.9-1.7,1.8-2.3
				c0.9-0.5,1.9-0.6,2.9-0.3l25.8,7.9c2,0.6,3.5,1.8,4.5,3.7C1873.6,1272.2,1873.8,1274.1,1873.2,1276.1z"/>
		</g>
	</g>
	<g>
		<path class="visa-card-1 fill-white" d="M206.6,1150.4l13.2-43.3c0.6-1.9,1.7-3.3,3.6-4.2c1.8-0.9,3.7-1.2,5.5-0.6l22.6,6.9c1.9,0.6,3.2,1.7,4.2,3.6
			c0.9,1.7,1.1,3.7,0.5,5.5l-13.2,43.3c-0.6,1.9-1.8,3.3-3.5,4.4c-1.7,0.9-3.6,1.1-5.6,0.5l-22.5-6.9c-1.9-0.6-3.4-1.8-4.4-3.5
			C206.2,1154.2,206,1152.3,206.6,1150.4z M236,1159.1l13-42.7l-22.1-6.7l-13,42.7L236,1159.1z"/>
		<path class="visa-card-1 fill-white" d="M290.8,1183.6l-3.6-1.1c-1-0.3-1.7-0.9-2.3-1.8s-0.6-1.9-0.3-2.9c0.3-1.1,0.9-1.7,1.8-2.3
			c0.9-0.5,1.9-0.6,2.9-0.3l7.3-23.9l-25.5-7.8c-1-0.3-1.7-0.9-2.3-1.8c-0.5-1-0.6-1.9-0.3-2.9l5.7-18.7c0.3-1,0.9-1.7,1.8-2.3
			c1-0.5,1.9-0.6,2.9-0.3l29.1,8.9c1,0.3,1.7,0.9,2.3,1.8c0.5,1,0.6,1.9,0.3,2.9l-15.2,49.9c-0.3,1.1-0.9,1.7-1.8,2.3
			C292.8,1183.9,291.8,1183.9,290.8,1183.6z M299,1144.1l3.5-11.4l-22-6.7l-3.5,11.4L299,1144.1z"/>
		<path class="visa-card-1 fill-white" d="M363.1,1150.1l-44.6,40.9c-0.7,0.6-1.5,0.8-2.6,0.5c-1-0.3-1.7-0.8-2.4-1.8c-0.7-0.9-0.8-1.8-0.5-2.9
			c0.3-0.9,0.8-1.7,1.7-2.6l44.5-40.8c0.7-0.6,1.6-0.8,2.6-0.4c1,0.3,1.7,0.8,2.3,1.7c0.7,0.8,0.8,1.8,0.5,2.8
			C364.5,1148.5,364,1149.4,363.1,1150.1z"/>
		<path class="visa-card-1 fill-white" d="M397.4,1216.2l-32.9-10l7.6-25c0.6-2,1.8-3.5,3.7-4.5c1.9-1,3.8-1.2,5.7-0.7l22,6.7l5.4-17.6l-25.8-7.9
			c-1.1-0.3-1.8-1-2.3-1.8s-0.6-1.9-0.3-2.9c0.3-1.1,0.9-1.7,1.8-2.3c0.9-0.5,1.9-0.6,2.9-0.3l25.8,7.9c2,0.6,3.5,1.8,4.5,3.7
			c1,1.9,1.2,3.8,0.7,5.7l-5.4,17.6c-0.6,2-1.9,3.5-3.8,4.5c-1.9,1-3.8,1.1-5.8,0.5l-22-6.7l-5.4,17.8l25.6,7.8
			c1,0.3,1.7,0.9,2.3,1.8c0.6,0.9,0.6,1.9,0.3,2.9c-0.3,1.1-0.9,1.7-1.8,2.3C399.3,1216.5,398.3,1216.5,397.4,1216.2z"/>
		<path class="visa-card-1 fill-white" d="M450.7,1232.5l-32.9-10l7.6-25c0.6-2,1.8-3.5,3.7-4.5c1.9-1,3.8-1.2,5.7-0.7l22,6.7l5.4-17.6l-25.8-7.9
			c-1.1-0.3-1.8-1-2.3-1.8c-0.5-0.9-0.6-1.9-0.3-2.9s0.9-1.7,1.8-2.3c0.9-0.5,1.9-0.6,2.9-0.3l25.8,7.9c2,0.6,3.5,1.8,4.5,3.7
			c1,1.9,1.2,3.8,0.7,5.7l-5.4,17.6c-0.6,2-1.9,3.5-3.8,4.5c-1.9,1-3.8,1.1-5.8,0.5l-22-6.7l-5.4,17.8l25.6,7.8
			c1,0.3,1.7,0.9,2.3,1.8c0.6,0.9,0.6,1.9,0.3,2.9s-0.9,1.7-1.8,2.3C452.6,1232.8,451.6,1232.8,450.7,1232.5z"/>
	</g>
	<g>
		<path class="visa-card-1 fill-white" d="M660.9,1294.7l14.3-47c0.3-1,0.8-1.7,1.7-2.2s1.8-0.6,2.7-0.3c1,0.3,1.6,0.8,2.1,1.7c0.5,0.9,0.5,1.7,0.2,2.7
			l-4.9,16.1l27.5-12c1-0.4,1.9-0.5,2.8-0.1c1,0.3,1.6,0.9,2.1,1.8c0.5,0.9,0.5,1.8,0.2,2.7c-0.3,1-0.9,1.6-1.8,1.9l-31.1,13.5
			l18.3,28.9c0.5,0.8,0.6,1.7,0.3,2.5c-0.3,0.9-0.8,1.6-1.7,2.1c-0.9,0.6-1.8,0.6-2.8,0.3c-1-0.3-1.6-0.8-2.2-1.7l-16-25.4l-5,16.3
			c-0.3,1-0.8,1.6-1.7,2.1c-0.9,0.5-1.7,0.5-2.7,0.2c-1-0.3-1.6-0.8-2.1-1.7C660.6,1296.5,660.6,1295.7,660.9,1294.7z"/>
		<path class="visa-card-1 fill-white" d="M755.3,1275.9l-24.1-7.4l-5.1,16.5l10.4,3.2c1,0.3,1.6,0.9,2.1,1.8c0.5,0.9,0.6,1.8,0.3,2.7
			c-0.3,1-0.8,1.7-1.7,2.2c-0.9,0.5-1.8,0.6-2.7,0.3l-10.4-3.2l-5.1,16.7l24.2,7.4c1,0.3,1.6,0.8,2.1,1.7s0.6,1.8,0.3,2.7
			s-0.9,1.6-1.8,2.1c-0.9,0.5-1.8,0.5-2.8,0.2l-30.9-9.4l16.4-53.8l30.9,9.4c1,0.3,1.6,0.9,2.2,1.8c0.5,0.9,0.6,1.9,0.3,2.8
			c-0.3,1-0.9,1.6-1.8,2.1C757.1,1276.1,756.2,1276.1,755.3,1275.9z"/>
		<path class="visa-card-1 fill-white" d="M760.2,1328.7l15.4-50.5c0.3-1,0.9-1.6,1.8-2.1c0.9-0.5,1.8-0.6,2.7-0.3c1,0.3,1.6,0.9,2.1,1.8
			c0.5,0.9,0.6,1.8,0.3,2.7l-13.3,43.6l24.1,7.4c1,0.3,1.6,0.8,2.2,1.7c0.5,0.9,0.6,1.8,0.3,2.7c-0.3,1-0.9,1.6-1.8,2.1
			c-0.9,0.5-1.8,0.5-2.8,0.2l-31-9.5L760.2,1328.7z"/>
		<path class="visa-card-1 fill-white" d="M810.3,1344l15.4-50.5c0.3-1,0.9-1.6,1.8-2.1c0.9-0.5,1.8-0.6,2.7-0.3s1.6,0.9,2.1,1.8s0.6,1.8,0.3,2.7
			l-13.3,43.6l24.1,7.4c1,0.3,1.6,0.8,2.2,1.7c0.5,0.9,0.6,1.8,0.3,2.7c-0.3,1-0.9,1.6-1.8,2.1c-0.9,0.5-1.8,0.5-2.8,0.2l-31-9.5
			L810.3,1344z"/>
		<path class="visa-card-1 fill-white" d="M889,1339.8l-6.9,22.5c-0.3,1-0.9,1.6-1.8,2.1c-0.9,0.5-1.7,0.5-2.7,0.2c-1-0.3-1.7-0.8-2.2-1.7
			c-0.5-0.9-0.6-1.8-0.3-2.7l6.8-22.4l-8.4-21.5l2.2-7.2c0.3-1,0.8-1.7,1.7-2.2s1.8-0.6,2.7-0.3c1,0.3,1.6,0.9,2.2,1.8
			c0.6,0.9,0.6,1.9,0.3,2.8l-1.4,4.7l6.2,16.2l14.3-9.9l1.4-4.7c0.3-1,0.9-1.6,1.8-2.2c0.9-0.5,1.8-0.6,2.7-0.3
			c0.9,0.3,1.6,0.8,2.1,1.7c0.5,0.9,0.6,1.8,0.3,2.8l-2.2,7.2L889,1339.8z"/>
		<path class="visa-card-1 fill-white" d="M962.3,1385.3l27.9-42.4c1.1-1.5,2.5-2,4.2-1.4c1.7,0.5,2.6,1.5,2.5,3.1l-0.9,51.5c0,0.4,0,0.7-0.1,1.1
			c-0.3,1-0.8,1.6-1.7,2.1c-0.9,0.5-1.7,0.5-2.5,0.3c-1.8-0.6-2.6-1.7-2.7-3.5l0.2-10.1l-15.6-4.8l-6,9c-0.2,0.4-0.6,0.7-1.4,0.9
			c-0.7,0.2-1.4,0.2-2.1,0c-1.1-0.3-1.7-0.9-2.2-1.8c-0.5-0.9-0.5-1.8-0.2-2.8C961.9,1386.1,962.1,1385.6,962.3,1385.3z
			 M989.6,1357.1l-11.8,17.7l11.5,3.5L989.6,1357.1z"/>
		<path class="visa-card-1 fill-white" d="M1060.5,1365.4l-15.4,50.4l-9.1-2.8l-5.6-47.4l-11.7,38.4c-0.3,1-0.8,1.6-1.7,2.1c-0.9,0.5-1.7,0.5-2.7,0.2
			s-1.6-0.8-2.1-1.7c-0.5-0.9-0.5-1.7-0.2-2.7l15.4-50.5l9,2.7l5.6,47.4l11.7-38.3c0.3-1,0.9-1.6,1.8-2.2c0.9-0.6,1.9-0.6,2.8-0.3
			c1,0.3,1.6,0.9,2.1,1.8C1060.8,1363.5,1060.8,1364.3,1060.5,1365.4z"/>
		<path class="visa-card-1 fill-white" d="M1080.8,1367.7l13.5,4.1c1.7,0.5,3.3,1.6,4.6,3.3c1.3,1.6,2.1,3.4,2.4,5.1l2.5,15.6c0.5,2.9,0.4,5.7-0.5,8.3
			c-0.8,2.5-2.2,4.9-4.3,7l-10.9,11.4c-1.4,1.5-3.1,2.5-5,3c-1.9,0.6-3.9,0.5-5.9-0.1l-13-4c-1-0.3-1.6-0.9-2.1-1.8
			c-0.5-0.9-0.5-1.7-0.2-2.7c0.3-1,0.8-1.6,1.7-2.2c0.9-0.5,1.8-0.6,2.7-0.3l3.5,1.1l12.2-40.1l-3.4-1.1c-1-0.3-1.6-0.9-2.1-1.8
			c-0.5-0.9-0.5-1.8-0.2-2.8c0.3-1,0.8-1.6,1.7-2.1C1078.9,1367.6,1079.9,1367.4,1080.8,1367.7z M1089,1377.7l-12.3,40.2l2.4,0.7
			c1.5,0.5,2.9,0.1,4.1-1.1l10.8-11.3c1.4-1.5,2.2-2.9,2.6-4c0.5-1.5,0.5-3,0.2-4.5l-2.7-16c-0.4-1.6-1.3-2.7-2.9-3.2L1089,1377.7z"
			/>
		<path class="visa-card-1 fill-white" d="M1156.4,1398.3l-24.1-7.4l-5.1,16.5l10.4,3.2c1,0.3,1.6,0.9,2.1,1.8c0.5,0.9,0.6,1.8,0.3,2.7
			c-0.3,1-0.8,1.7-1.7,2.2c-0.9,0.5-1.8,0.6-2.7,0.3l-10.4-3.2l-5.1,16.7l24.2,7.4c1,0.3,1.6,0.8,2.1,1.7c0.5,0.9,0.6,1.8,0.3,2.7
			c-0.3,1-0.9,1.6-1.8,2.1c-0.9,0.5-1.8,0.5-2.8,0.2l-30.9-9.4l16.4-53.8l30.9,9.4c1,0.3,1.6,0.9,2.2,1.8c0.5,0.9,0.6,1.9,0.3,2.8
			s-0.9,1.6-1.8,2.1C1158.3,1398.6,1157.3,1398.6,1156.4,1398.3z"/>
		<path class="visa-card-1 fill-white" d="M1162.4,1447.8l15.4-50.5l24.1,7.4c2.8,0.8,4.8,2.6,6.2,5.3s1.7,5.3,0.8,8.2l-1.2,3.9c-0.9,2.9-2.6,5-5.2,6.4
			c-2.6,1.4-5.3,1.7-8.1,0.9l-4.3-1.3l6.6,28.1c0.3,0.8,0.2,1.6,0,2.3c-0.3,1-0.9,1.6-1.8,2.1c-0.9,0.5-1.8,0.5-2.7,0.2
			c-1.3-0.4-2.2-1.3-2.5-2.8l-7.6-32.4l-4.9-1.5l-7.9,26c-0.3,1-0.9,1.6-1.8,2.1c-0.9,0.5-1.8,0.5-2.8,0.2s-1.6-0.8-2.1-1.7
			C1162.3,1449.8,1162.1,1448.8,1162.4,1447.8z M1179.2,1417.1l17.3,5.3c1,0.3,1.8,0.2,2.7-0.2c0.9-0.5,1.4-1.1,1.7-2.1l1.2-4
			c0.3-1,0.2-1.8-0.2-2.7c-0.5-0.9-1.1-1.4-2.1-1.7l-17.3-5.3L1179.2,1417.1z"/>
		<path class="visa-card-1 fill-white" d="M1235.6,1415l17.7,5.4c2.2,0.7,3.9,2.2,5.3,4.6s1.6,4.9,0.9,7.5c-0.3,1-0.9,1.7-1.8,2.2
			c-0.9,0.5-1.8,0.6-2.6,0.4c-1.1-0.4-1.8-0.9-2.2-1.5c-0.3-0.7-0.4-1.8-0.3-3.3c0.1-1.6-0.6-2.5-1.9-2.9l-16.8-5.1
			c-0.8-0.2-1.3-0.1-1.5,0.4c-0.1,0.3,0,0.7,0.1,1.3l15.5,40.1c0.8,1.9,0.8,3.8,0.3,5.6c-0.6,2-1.9,3.6-3.8,4.7s-3.9,1.3-5.6,0.8
			l-18.4-5.6c-2.4-0.7-4.3-2.4-5.5-4.7c-1.3-2.4-1.5-4.7-0.8-6.9c0.8-2.6,2.3-3.5,4.7-2.7c1,0.3,1.6,0.8,2.1,1.7
			c0.5,0.9,0.5,1.7,0.3,2.6c-0.2,0.8-0.1,1.4,0.2,2.1c0.3,0.6,0.9,1.1,1.7,1.3l16.9,5.2c0.8,0.2,1.1,0,1.3-0.5
			c0.1-0.3,0-0.7-0.2-1.2l-15.4-40c-0.7-1.9-0.8-3.8-0.3-5.6c0.6-2.1,2-3.7,4-4.8S1233.5,1414.3,1235.6,1415z"/>
		<path class="visa-card-1 fill-white" d="M1301.8,1440.6l2.8,17.6c0.4,2.4,0.3,4.8-0.4,7.3c-0.7,2.4-2,4.4-3.7,6.2l-12.1,12.8
			c-2.6,2.9-5.8,3.7-9.6,2.5c-1.8-0.6-3.3-1.5-4.4-2.9s-1.8-2.9-2.2-4.5l-2.9-17.4c-0.3-2.3-0.2-4.7,0.5-7.2
			c0.8-2.5,1.9-4.6,3.6-6.3l12.2-13c2.7-2.8,5.9-3.6,9.6-2.5C1298.9,1434.3,1301.1,1436.9,1301.8,1440.6z M1290.3,1440.9l-11.5,12.2
			c-1.1,1.2-1.8,2.6-2.2,3.9c-0.5,1.5-0.6,3-0.4,4.6l2.8,16.8c0.1,1,0.6,1.7,1.7,2c0.9,0.3,1.7,0,2.4-0.7l11.7-12.3
			c1.1-1.2,1.9-2.5,2.4-4c0.5-1.5,0.5-3,0.2-4.5l-2.8-16.5c-0.2-1.2-0.7-2-1.6-2.3C1292.1,1439.7,1291.2,1440,1290.3,1440.9z"/>
		<path class="visa-card-1 fill-white" d="M1361.4,1457.3l-15.4,50.4l-9.1-2.8l-5.6-47.4l-11.7,38.4c-0.3,1-0.8,1.6-1.7,2.1c-0.9,0.5-1.7,0.5-2.7,0.2
			c-1-0.3-1.6-0.8-2.1-1.7c-0.5-0.9-0.5-1.7-0.2-2.7l15.4-50.5l9,2.7l5.6,47.4l11.7-38.3c0.3-1,0.9-1.6,1.8-2.2
			c0.9-0.6,1.9-0.6,2.8-0.3c1,0.3,1.6,0.9,2.1,1.8C1361.6,1455.3,1361.7,1456.2,1361.4,1457.3z"/>
	</g>
	<g opacity=".7">
		<path class="visa-card-1 fill-white" d="M263.9,1028.2l-14.3-4.4l-3,9.9l6.1,1.9c0.6,0.2,1,0.5,1.3,1c0.3,0.5,0.3,1,0.1,1.6c-0.2,0.6-0.5,1-1,1.3
			c-0.5,0.3-1,0.3-1.6,0.1l-6.1-1.9l-3,9.9l14.3,4.4c0.6,0.2,1,0.5,1.3,1c0.3,0.5,0.3,1,0.1,1.6c-0.2,0.6-0.5,1-1,1.3
			c-0.5,0.3-1,0.3-1.6,0.1l-18.3-5.6l9.7-31.8l18.3,5.6c0.6,0.2,1,0.5,1.3,1c0.3,0.5,0.3,1,0.1,1.6c-0.2,0.6-0.5,1-1,1.3
			C265,1028.3,264.5,1028.3,263.9,1028.2z"/>
		<path class="visa-card-1 fill-white" d="M280.9,1050.7l-9.8,9c-0.6,0.6-1.2,0.7-2,0.4c-0.6-0.2-1-0.5-1.2-1.1c-0.3-0.5-0.3-1-0.2-1.5
			c0.1-0.4,0.3-0.7,0.7-1L280,1046l-3.5-14.9c-0.1-0.6-0.2-1.1-0.1-1.5c0.1-0.5,0.5-0.9,1-1.2s1-0.3,1.6-0.1
			c0.8,0.2,1.3,0.7,1.4,1.5l3.2,12.9l9.7-8.9c0.6-0.6,1.2-0.7,2-0.4c0.6,0.2,1,0.5,1.3,1c0.3,0.5,0.4,1.1,0.2,1.6
			c-0.1,0.4-0.3,0.7-0.6,1l-11.5,10.6l3.6,15.2c0.1,0.3,0.1,0.8,0,1.1c-0.2,0.6-0.5,1-1,1.3c-0.5,0.3-1,0.3-1.6,0.1
			c-0.8-0.2-1.3-0.7-1.4-1.5L280.9,1050.7z"/>
		<path class="visa-card-1 fill-white" d="M297.1,1066.4l9.1-29.8l14.3,4.4c1.6,0.5,2.9,1.5,3.7,3.1c0.8,1.6,1,3.2,0.5,4.9l-2.3,7.6
			c-0.5,1.6-1.5,2.9-3.1,3.7c-1.5,0.8-3.1,1-4.9,0.5l-10.2-3.1l-3.1,10.1c-0.2,0.6-0.5,1-1,1.3c-0.5,0.3-1,0.3-1.6,0.1
			c-0.6-0.2-1-0.5-1.3-1C297,1067.5,296.9,1067,297.1,1066.4z M305.5,1053.5l10.2,3.1c0.6,0.2,1.1,0.1,1.6-0.1
			c0.5-0.3,0.8-0.7,1-1.3l2.3-7.6c0.2-0.6,0.1-1.1-0.1-1.6c-0.3-0.5-0.7-0.8-1.3-1l-10.2-3.1L305.5,1053.5z"/>
		<path class="visa-card-1 fill-white" d="M337.8,1046.2l16.4,5c0.6,0.2,0.9,0.5,1.3,1c0.4,0.5,0.3,1,0.1,1.6c-0.2,0.6-0.5,1-1,1.3
			c-0.5,0.3-1,0.3-1.6,0.1l-6.1-1.9l-7.3,23.8l6.1,1.9c0.6,0.2,1,0.5,1.3,1c0.3,0.5,0.3,1,0.1,1.6s-0.5,1-1,1.3s-1,0.3-1.6,0.1
			l-16.4-5c-0.6-0.2-1-0.5-1.3-1c-0.3-0.5-0.3-1-0.1-1.6c0.2-0.6,0.5-1,1-1.3c0.5-0.3,1-0.3,1.6-0.1l6.2,1.9l7.2-23.7l-6.2-1.9
			c-0.6-0.2-1-0.5-1.3-1c-0.3-0.5-0.3-1-0.1-1.6c0.2-0.6,0.5-1,1-1.3C336.7,1046.1,337.3,1046.1,337.8,1046.2z"/>
		<path class="visa-card-1 fill-white" d="M356.5,1084.6l9.1-29.8l14.3,4.4c1.6,0.5,2.9,1.5,3.7,3.1c0.8,1.6,1,3.2,0.5,4.9l-0.7,2.3
			c-0.5,1.7-1.5,3-3.1,3.7c-1.5,0.8-3.1,1-4.9,0.5l-2.6-0.8l3.9,16.7c0.2,0.5,0.1,1,0,1.4c-0.2,0.6-0.5,1-1.1,1.2
			c-0.5,0.3-1,0.3-1.6,0.1c-0.8-0.2-1.3-0.8-1.5-1.6l-4.5-19.2l-2.9-0.9l-4.7,15.4c-0.2,0.6-0.5,1-1,1.3c-0.5,0.3-1,0.3-1.6,0.1
			c-0.6-0.2-1-0.5-1.3-1C356.4,1085.7,356.4,1085.1,356.5,1084.6z M366.5,1066.5l10.2,3.1c0.6,0.2,1.1,0.1,1.6-0.1
			c0.5-0.3,0.8-0.7,1-1.3l0.7-2.4c0.2-0.6,0.1-1.1-0.1-1.6s-0.7-0.8-1.3-1l-10.2-3.1L366.5,1066.5z"/>
		<path class="visa-card-1 fill-white" d="M412.2,1073.4l-14.3-4.4l-3,9.9l6.1,1.9c0.6,0.2,1,0.5,1.3,1c0.3,0.5,0.3,1,0.1,1.6c-0.2,0.6-0.5,1-1,1.3
			s-1,0.3-1.6,0.1l-6.1-1.9l-3,9.9l14.3,4.4c0.6,0.2,1,0.5,1.3,1c0.3,0.5,0.3,1,0.1,1.6c-0.2,0.6-0.5,1-1,1.3
			c-0.5,0.3-1,0.3-1.6,0.1l-18.3-5.6l9.7-31.8l18.3,5.6c0.6,0.2,1,0.5,1.3,1c0.3,0.5,0.3,1,0.1,1.6c-0.2,0.6-0.5,1-1,1.3
			C413.3,1073.6,412.8,1073.6,412.2,1073.4z"/>
		<path class="visa-card-1 fill-white" d="M429.5,1074.2l10.5,3.2c1.2,0.4,2.3,1.3,3.1,2.7c0.8,1.4,1,2.9,0.5,4.4c-0.2,0.6-0.5,1-1,1.3
			c-0.5,0.3-1,0.3-1.5,0.2c-0.7-0.2-1.1-0.5-1.3-0.9s-0.2-1-0.2-2c0.1-0.9-0.4-1.5-1.2-1.7l-9.9-3c-0.5-0.1-0.8,0-0.9,0.2
			c-0.1,0.2,0,0.4,0.1,0.8l9.2,23.7c0.5,1.2,0.5,2.2,0.1,3.3c-0.4,1.2-1.2,2.1-2.3,2.7c-1.2,0.7-2.2,0.8-3.3,0.5l-10.9-3.3
			c-1.4-0.4-2.5-1.4-3.2-2.8c-0.7-1.4-0.9-2.8-0.5-4.1c0.5-1.5,1.4-2.1,2.8-1.7c0.6,0.2,1,0.5,1.3,1c0.3,0.5,0.3,1,0.2,1.5
			c-0.1,0.5,0,0.8,0.2,1.2s0.5,0.7,1,0.8l10,3.1c0.5,0.1,0.7,0,0.8-0.3c0.1-0.2,0-0.4-0.1-0.8l-9.1-23.7c-0.4-1.2-0.5-2.2-0.1-3.3
			c0.4-1.2,1.2-2.1,2.3-2.8C427.2,1073.8,428.2,1073.8,429.5,1074.2z"/>
	</g>
	<g opacity=".7">
		<path class="visa-card-1 fill-white" d="M701.9,1187.8l7.3,2.2c0.6,0.2,1,0.5,1.3,1c0.3,0.5,0.3,1,0.1,1.6s-0.5,1-1,1.3s-1,0.3-1.6,0.1l-7.6-2.3
			c-1-0.3-1.8-0.9-2.7-1.9s-1.3-1.8-1.5-2.7l-1.9-10.4c-0.3-1.5-0.2-2.9,0.3-4.3c0.5-1.5,1.1-2.7,2.1-3.7l7.4-7.5
			c0.7-0.7,1.6-1.2,2.8-1.6s2.1-0.4,3.1-0.1l7.9,2.4c0.6,0.2,1,0.5,1.3,1c0.3,0.5,0.3,1,0.1,1.6c-0.2,0.6-0.5,1-1,1.3
			c-0.5,0.3-1,0.3-1.6,0.1l-7.7-2.3c-0.7-0.2-1.3,0-1.9,0.7l-7,6.9c-0.6,0.6-1,1.3-1.2,2.1c-0.3,1-0.4,1.9-0.2,2.7l1.8,9.5
			C700.4,1187,701,1187.6,701.9,1187.8z"/>
		<path class="visa-card-1 fill-white" d="M720.2,1194.8l16.5-25.1c0.6-0.9,1.4-1.2,2.5-0.9c1,0.3,1.5,0.9,1.5,1.8l-0.5,30.5c0,0.2,0,0.4-0.1,0.6
			c-0.2,0.6-0.5,1-1,1.3c-0.5,0.3-1,0.3-1.5,0.2c-1.1-0.3-1.6-1-1.6-2l0-5.9l-9.2-2.8l-3.5,5.3c-0.1,0.3-0.4,0.4-0.8,0.6
			c-0.4,0.2-0.9,0.1-1.3,0c-0.6-0.2-1-0.5-1.3-1c-0.3-0.5-0.3-1-0.1-1.6C720,1195.2,720.1,1195.1,720.2,1194.8z M736.4,1178.2
			l-7,10.5l6.8,2.1L736.4,1178.2z"/>
		<path class="visa-card-1 fill-white" d="M749.6,1204.6l9.1-29.8l14.3,4.4c1.6,0.5,2.9,1.5,3.7,3.1c0.8,1.6,1,3.2,0.5,4.9l-0.7,2.3
			c-0.5,1.7-1.5,3-3.1,3.7c-1.5,0.8-3.1,1-4.9,0.5l-2.6-0.8l3.9,16.7c0.2,0.5,0.1,1,0,1.4c-0.2,0.6-0.5,1-1.1,1.2
			c-0.5,0.3-1,0.3-1.6,0.1c-0.8-0.2-1.3-0.8-1.5-1.6l-4.5-19.2l-2.9-0.9l-4.7,15.4c-0.2,0.6-0.5,1-1,1.3s-1,0.3-1.6,0.1
			c-0.6-0.2-1-0.5-1.3-1C749.5,1205.7,749.5,1205.2,749.6,1204.6z M759.5,1186.5l10.2,3.1c0.6,0.2,1.1,0.1,1.6-0.1s0.8-0.7,1-1.3
			l0.7-2.4c0.2-0.6,0.1-1.1-0.1-1.6s-0.7-0.8-1.3-1l-10.2-3.1L759.5,1186.5z"/>
		<path class="visa-card-1 fill-white" d="M790.3,1184.4l7.9,2.4c1.1,0.3,1.9,1,2.7,2c0.8,1,1.3,2,1.5,3.1l1.6,9.3c0.3,1.7,0.2,3.3-0.3,4.9
			c-0.4,1.4-1.3,2.8-2.6,4.1l-6.4,6.7c-0.8,0.9-1.8,1.4-3,1.8c-1.1,0.3-2.3,0.3-3.5,0l-7.7-2.4c-0.6-0.2-1-0.5-1.3-1
			c-0.3-0.5-0.3-1-0.1-1.6s0.5-1,1-1.3s1-0.3,1.6-0.1l2.1,0.6l7.3-23.8l-2.1-0.6c-0.6-0.2-1-0.5-1.3-1c-0.3-0.5-0.3-1-0.1-1.6
			c0.2-0.6,0.5-1,1-1.3C789.2,1184.3,789.7,1184.2,790.3,1184.4z M795.2,1190.4l-7.3,23.8l1.4,0.4c0.9,0.3,1.7,0,2.4-0.7l6.4-6.7
			c0.8-0.9,1.3-1.7,1.6-2.3c0.3-0.9,0.3-1.8,0.2-2.7l-1.6-9.5c-0.2-1-0.8-1.6-1.7-1.9L795.2,1190.4L795.2,1190.4z"/>
		<path class="visa-card-1 fill-white" d="M808.8,1222.7l8.5-27.8c0.2-0.6,0.5-1,1-1.3c0.5-0.3,1-0.3,1.6-0.1c0.6,0.2,1,0.5,1.3,1
			c0.3,0.5,0.3,1,0.1,1.6l-3.6,11.9l12.2,3.7l3.6-11.9c0.2-0.6,0.5-1,1-1.3s1-0.3,1.6-0.1c0.6,0.2,1,0.5,1.3,1
			c0.3,0.5,0.3,1,0.1,1.6l-8.5,27.8c-0.2,0.6-0.5,1-1,1.3c-0.5,0.3-1,0.3-1.6,0.1c-0.6-0.2-1-0.5-1.3-1c-0.3-0.5-0.3-1-0.1-1.6
			l3.7-12l-12.2-3.7l-3.7,12c-0.2,0.6-0.5,1-1,1.3c-0.5,0.3-1,0.3-1.6,0.1c-0.6-0.2-1-0.5-1.3-1
			C808.7,1223.8,808.7,1223.2,808.8,1222.7z"/>
		<path class="visa-card-1 fill-white" d="M861.7,1209.4l1.6,10.4c0.3,1.4,0.2,2.9-0.3,4.3s-1.1,2.7-2.2,3.7l-7.1,7.6c-1.6,1.7-3.5,2.2-5.7,1.5
			c-1.1-0.3-1.9-0.9-2.6-1.7c-0.7-0.8-1.2-1.7-1.3-2.7l-1.8-10.4c-0.2-1.3-0.1-2.7,0.4-4.3c0.5-1.5,1.2-2.8,2.1-3.8l7.3-7.7
			c1.7-1.7,3.5-2.2,5.7-1.5C860.1,1205.7,861.4,1207.1,861.7,1209.4z M855,1209.6l-6.8,7.2c-0.6,0.7-1.1,1.5-1.3,2.3
			c-0.3,0.9-0.3,1.8-0.2,2.7l1.7,9.9c0,0.6,0.4,1,1,1.1c0.5,0.1,0.9,0,1.4-0.4l6.9-7.3c0.6-0.7,1.1-1.5,1.3-2.3
			c0.3-0.9,0.3-1.8,0.2-2.7l-1.6-9.8c-0.1-0.8-0.4-1.2-1-1.3C856,1208.9,855.4,1209.1,855,1209.6z"/>
		<path class="visa-card-1 fill-white" d="M867.7,1242.9l9.1-29.8c0.2-0.6,0.5-1,1-1.3c0.5-0.3,1-0.3,1.6-0.1c0.6,0.2,1,0.5,1.3,1
			c0.3,0.5,0.3,1,0.1,1.6l-7.9,25.8l14.3,4.4c0.6,0.2,1,0.5,1.3,1c0.3,0.5,0.3,1,0.1,1.6c-0.2,0.6-0.5,1-1,1.3
			c-0.5,0.3-1,0.3-1.6,0.1L867.7,1242.9L867.7,1242.9z"/>
		<path class="visa-card-1 fill-white" d="M909,1220.6l7.9,2.4c1.1,0.3,1.9,1,2.7,2c0.8,1,1.3,2,1.5,3.1l1.6,9.3c0.3,1.7,0.2,3.3-0.3,4.9
			c-0.4,1.4-1.3,2.8-2.6,4.1l-6.4,6.7c-0.8,0.9-1.8,1.4-3,1.8c-1.1,0.3-2.3,0.3-3.5,0l-7.7-2.3c-0.6-0.2-1-0.5-1.3-1
			c-0.3-0.5-0.3-1-0.1-1.6c0.2-0.6,0.5-1,1-1.3s1-0.3,1.6-0.1l2.1,0.6l7.3-23.8l-2.1-0.6c-0.6-0.2-1-0.5-1.3-1
			c-0.3-0.5-0.3-1-0.1-1.6c0.2-0.6,0.5-1,1-1.3C908,1220.5,908.5,1220.5,909,1220.6z M913.9,1226.6l-7.3,23.8l1.4,0.4
			c0.9,0.3,1.7,0,2.4-0.7l6.4-6.7c0.8-0.9,1.3-1.7,1.6-2.3c0.3-0.9,0.3-1.8,0.2-2.7l-1.6-9.5c-0.2-1-0.8-1.6-1.7-1.9L913.9,1226.6
			L913.9,1226.6z"/>
		<path class="visa-card-1 fill-white" d="M953.7,1238.8l-14.3-4.4l-3,9.9l6.1,1.9c0.6,0.2,1,0.5,1.3,1c0.3,0.5,0.3,1,0.1,1.6c-0.2,0.6-0.5,1-1,1.3
			c-0.5,0.3-1,0.3-1.6,0.1l-6.1-1.9l-3,9.9l14.3,4.4c0.6,0.2,1,0.5,1.3,1c0.3,0.5,0.3,1,0.1,1.6c-0.2,0.6-0.5,1-1,1.3
			c-0.5,0.3-1,0.3-1.6,0.1L927,1261l9.7-31.8l18.3,5.6c0.6,0.2,1,0.5,1.3,1c0.3,0.5,0.3,1,0.1,1.6s-0.5,1-1,1.3
			C954.9,1238.9,954.3,1239,953.7,1238.8z"/>
		<path class="visa-card-1 fill-white" d="M957.4,1268l9.1-29.8l14.3,4.4c1.6,0.5,2.9,1.5,3.7,3.1c0.8,1.6,1,3.2,0.5,4.9l-0.7,2.3
			c-0.5,1.7-1.5,3-3.1,3.7c-1.5,0.8-3.1,1-4.9,0.5l-2.6-0.8l3.9,16.7c0.2,0.5,0.1,1,0,1.4c-0.2,0.6-0.5,1-1.1,1.2
			c-0.5,0.3-1,0.3-1.6,0.1c-0.8-0.2-1.3-0.8-1.5-1.6l-4.5-19.2l-2.9-0.9l-4.7,15.4c-0.2,0.6-0.5,1-1,1.3c-0.5,0.3-1,0.3-1.6,0.1
			c-0.6-0.2-1-0.5-1.3-1C957.2,1269.1,957.2,1268.6,957.4,1268z M967.3,1249.9l10.2,3.1c0.6,0.2,1.1,0.1,1.6-0.1
			c0.5-0.3,0.8-0.7,1-1.3l0.7-2.4c0.2-0.6,0.1-1.1-0.1-1.6s-0.7-0.8-1.3-1l-10.2-3.1L967.3,1249.9z"/>
		<path class="visa-card-1 fill-white" d="M1045.4,1264.6l-9.1,29.8l-5.5-1.7l-3.3-28.1l-7,22.8c-0.2,0.6-0.5,1-1,1.3c-0.5,0.3-1,0.3-1.6,0.1
			c-0.6-0.2-1-0.5-1.3-1c-0.3-0.5-0.3-1-0.1-1.6l9.1-29.8l5.4,1.6l3.4,28l6.9-22.7c0.2-0.6,0.5-1,1-1.3c0.5-0.3,1-0.3,1.6-0.1
			c0.6,0.2,1,0.5,1.3,1C1045.5,1263.5,1045.6,1264,1045.4,1264.6z"/>
		<path class="visa-card-1 fill-white" d="M1046.7,1294.5l16.5-25.1c0.6-0.9,1.4-1.2,2.5-0.9c1,0.3,1.5,0.9,1.5,1.8l-0.5,30.5c0,0.2,0,0.4-0.1,0.6
			c-0.2,0.6-0.5,1-1,1.3s-1,0.3-1.5,0.2c-1.1-0.3-1.6-1-1.6-2l0-5.9l-9.2-2.8l-3.5,5.3c-0.1,0.3-0.4,0.4-0.8,0.6
			c-0.4,0.2-0.9,0.1-1.3,0c-0.6-0.2-1-0.5-1.3-1s-0.3-1-0.1-1.6C1046.4,1294.9,1046.6,1294.7,1046.7,1294.5z M1062.8,1277.8l-7,10.5
			l6.8,2.1L1062.8,1277.8z"/>
		<path class="visa-card-1 fill-white" d="M1089.4,1289.4l0.3-1.1l-2.4-7.2l-7.4,24.3c-0.2,0.6-0.5,1-1,1.3s-1,0.3-1.6,0.1c-0.6-0.2-1-0.5-1.3-1
			s-0.3-1-0.1-1.6l9.1-29.8l5.3,1.6l2.8,8.8l7.3-5.7l5.1,1.5l-9.1,29.8c-0.2,0.6-0.5,1-1,1.3s-1,0.3-1.6,0.1c-0.6-0.2-1-0.5-1.3-1
			c-0.3-0.5-0.3-1-0.1-1.6l7.4-24.2l-5.9,4.5l-0.4,1.1c-0.2,0.6-0.5,1-1,1.3s-1,0.3-1.6,0.1c-0.6-0.2-1-0.5-1.3-1
			S1089.2,1290,1089.4,1289.4z"/>
		<path class="visa-card-1 fill-white" d="M1131.8,1293.2l-14.3-4.4l-3,9.9l6.1,1.9c0.6,0.2,1,0.5,1.3,1c0.3,0.5,0.3,1,0.1,1.6c-0.2,0.6-0.5,1-1,1.3
			c-0.5,0.3-1,0.3-1.6,0.1l-6.1-1.9l-3,9.9l14.3,4.4c0.6,0.2,1,0.5,1.3,1c0.3,0.5,0.3,1,0.1,1.6s-0.5,1-1,1.3s-1,0.3-1.6,0.1
			l-18.3-5.6l9.7-31.8l18.3,5.6c0.6,0.2,1,0.5,1.3,1s0.3,1,0.1,1.6c-0.2,0.6-0.5,1-1,1.3C1132.9,1293.3,1132.4,1293.3,1131.8,1293.2
			z"/>
	</g>
</g>
<g>
	<path class="visa-card-2 fill-primary" d="M1925,1274.4H60.3c-33.3,0-60.3-27-60.3-60.3V60.3C0,27,27,0,60.3,0H1925c33.3,0,60.3,27,60.3,60.3v1153.8
		C1985.3,1247.4,1958.3,1274.4,1925,1274.4z"/>
	<path class="visa-card-1 fill-white" d="M332.8,291.6h56.7v-46.7h-71.6v28.5L332.8,291.6z M285.6,273.4V345h68.1c19.8,0,35.8-16,35.8-35.8v-10.4h-60.1
		l-20.7-25.3h-23.1V273.4z M317.9,237.8h71.6v-46.7h-56.7l-14.9,18.2V237.8z M231.2,291.6l14.9-18.2v-28.5h-71.6v46.7H231.2
		L231.2,291.6z M174.5,173.5V184h60.1l20.7,25.3h23.1v-71.6h-68.1C190.5,137.7,174.5,153.7,174.5,173.5z M231.2,191.1h-56.7v46.7
		h71.6v-28.5L231.2,191.1z M308.7,209.3l20.7-25.3h60.1v-10.5c0-19.7-16-35.8-35.8-35.8h-68.1v71.6L308.7,209.3L308.7,209.3z
		 M255.3,273.4l-20.7,25.3h-60.1v10.4c0,19.8,16,35.8,35.8,35.8h68.1v-71.6h-23.1V273.4z"/>
	<path class="visa-card-1 fill-white" d="M1655.4,236.7c-0.2,13.3,11.9,20.8,21,25.2c9.3,4.5,12.5,7.5,12.4,11.5c-0.1,6.2-7.4,9-14.3,9.1
		c-12,0.2-19-3.2-24.6-5.8l-4.3,20.3c5.6,2.6,15.9,4.8,26.6,4.9c25.2,0,41.6-12.4,41.7-31.7c0.1-24.4-33.8-25.8-33.6-36.7
		c0.1-3.3,3.2-6.8,10.2-7.7c3.4-0.5,12.9-0.8,23.6,4.1l4.2-19.6c-5.8-2.1-13.2-4.1-22.4-4.1C1672.2,206.1,1655.6,218.7,1655.4,236.7
		 M1758.8,207.8c-4.6,0-8.5,2.7-10.2,6.8l-35.9,85.8h25.1l5-13.8h30.7l2.9,13.8h22.2l-19.3-92.6L1758.8,207.8 M1762.3,232.8
		l7.3,34.8h-19.9L1762.3,232.8 M1625,207.8l-19.8,92.6h24l19.8-92.6L1625,207.8 M1589.5,207.8l-24.9,63l-10.1-53.6
		c-1.2-6-5.9-9.4-11-9.4h-40.8l-0.6,2.7c8.4,1.8,17.9,4.7,23.6,7.9c3.5,1.9,4.5,3.6,5.7,8.1l19.1,73.9h25.3l38.8-92.6L1589.5,207.8"
		/>
	<g>
		<circle class="visa-card-1 fill-white" cx="201.9" cy="772.3" r="21.6"/>
		<circle class="visa-card-1 fill-white" cx="300.9" cy="772.3" r="21.6"/>
		<circle class="visa-card-1 fill-white" cx="399.9" cy="772.3" r="21.6"/>
		<circle class="visa-card-1 fill-white" cx="498.9" cy="772.3" r="21.6"/>
		<circle class="visa-card-1 fill-white" cx="678.9" cy="772.3" r="21.6"/>
		<circle class="visa-card-1 fill-white" cx="777.9" cy="772.3" r="21.6"/>
		<circle class="visa-card-1 fill-white" cx="876.9" cy="772.3" r="21.6"/>
		<circle class="visa-card-1 fill-white" cx="975.9" cy="772.3" r="21.6"/>
		<circle class="visa-card-1 fill-white" cx="1155.9" cy="772.3" r="21.6"/>
		<circle class="visa-card-1 fill-white" cx="1254.9" cy="772.3" r="21.6"/>
		<circle class="visa-card-1 fill-white" cx="1353.9" cy="772.3" r="21.6"/>
		<circle class="visa-card-1 fill-white" cx="1452.9" cy="772.3" r="21.6"/>
		<g>
			<path class="visa-card-1 fill-white" d="M1643.2,750.2v14.2c0,3.3-1,6-3.1,8c2.1,2.3,3.2,4.9,3.2,7.7v14.8c0,2.1-0.8,3.9-2.3,5.3
				c-1.5,1.5-3.3,2.2-5.4,2.2h-26.8c-1.1,0-1.9-0.4-2.7-1.1c-0.7-0.7-1.1-1.6-1.1-2.7c0-1.1,0.4-1.9,1.1-2.7
				c0.7-0.7,1.6-1.1,2.7-1.1h26.7V780c0-1.1-0.4-2-1.1-2.7c-0.7-0.8-1.6-1.1-2.7-1.1h-15.2c-1.1,0-1.9-0.4-2.7-1.1s-1.1-1.6-1.1-2.7
				c0-1.1,0.4-1.9,1.1-2.7c0.7-0.7,1.6-1.1,2.7-1.1h15.3c1,0,1.9-0.4,2.7-1.1c0.8-0.7,1.1-1.6,1.1-2.7v-14.6h-27
				c-1.1,0-1.9-0.4-2.7-1.1c-0.7-0.7-1.1-1.6-1.1-2.7c0-1.1,0.4-1.9,1.1-2.7c0.7-0.7,1.6-1.1,2.7-1.1h27c2.1,0,3.9,0.7,5.4,2.2
				C1642.5,746.3,1643.2,748.1,1643.2,750.2z"/>
			<path class="visa-card-1 fill-white" d="M1664.7,742.6h3.8c1,0,1.9,0.4,2.7,1.1c0.7,0.8,1.1,1.6,1.1,2.7c0,1.1-0.4,1.9-1.1,2.7
				c-0.7,0.7-1.6,1.1-2.7,1.1v25h26.7c1,0,1.9,0.4,2.7,1.1c0.8,0.8,1.1,1.7,1.1,2.7v19.5c0,1.1-0.4,1.9-1.1,2.7
				c-0.8,0.7-1.7,1.1-2.7,1.1h-30.4c-1.1,0-2-0.4-2.7-1.1c-0.8-0.8-1.1-1.6-1.1-2.7v-52.2c0-1.1,0.4-1.9,1.1-2.7
				C1662.7,743,1663.6,742.6,1664.7,742.6z M1668.4,782.8v12h22.9v-12H1668.4z"/>
			<path class="visa-card-1 fill-white" d="M1750.9,802.3h-3.8c-1,0-1.9-0.4-2.7-1.1s-1.1-1.6-1.1-2.7s0.4-1.9,1.1-2.7c0.7-0.7,1.6-1.1,2.7-1.1v-25
				h-26.7c-1,0-1.9-0.4-2.7-1.1c-0.8-0.8-1.1-1.6-1.1-2.7v-19.6c0-1,0.4-1.9,1.1-2.7c0.8-0.8,1.6-1.1,2.7-1.1h30.4
				c1,0,1.9,0.4,2.7,1.1c0.8,0.8,1.1,1.6,1.1,2.7v52.2c0,1.1-0.4,1.9-1.1,2.7C1752.8,801.9,1751.9,802.3,1750.9,802.3z
				 M1747.2,762.1v-11.9h-23v11.9H1747.2z"/>
			<path class="visa-card-1 fill-white" d="M1810.4,750.2v14.2c0,3.3-1,6-3.1,8c2.1,2.3,3.2,4.9,3.2,7.7v14.8c0,2.1-0.8,3.9-2.3,5.3
				c-1.5,1.5-3.3,2.2-5.4,2.2H1776c-1.1,0-1.9-0.4-2.7-1.1c-0.7-0.7-1.1-1.6-1.1-2.7c0-1.1,0.4-1.9,1.1-2.7c0.7-0.7,1.6-1.1,2.7-1.1
				h26.7V780c0-1.1-0.4-2-1.1-2.7c-0.7-0.8-1.6-1.1-2.7-1.1h-15.2c-1.1,0-1.9-0.4-2.7-1.1s-1.1-1.6-1.1-2.7c0-1.1,0.4-1.9,1.1-2.7
				c0.7-0.7,1.6-1.1,2.7-1.1h15.3c1,0,1.9-0.4,2.7-1.1c0.8-0.7,1.1-1.6,1.1-2.7v-14.6h-27c-1.1,0-1.9-0.4-2.7-1.1
				c-0.7-0.7-1.1-1.6-1.1-2.7c0-1.1,0.4-1.9,1.1-2.7c0.7-0.7,1.6-1.1,2.7-1.1h27c2.1,0,3.9,0.7,5.4,2.2
				C1809.6,746.3,1810.4,748.1,1810.4,750.2z"/>
		</g>
	</g>
	<g>
		<path class="visa-card-1 fill-white" d="M179.7,1116.6v-45.3c0-2,0.7-3.7,2.2-5.1s3.2-2.2,5.1-2.2h23.6c2,0,3.6,0.7,5.1,2.2c1.4,1.4,2.1,3.2,2.1,5.1
			v45.3c0,2-0.7,3.7-2.1,5.2c-1.4,1.4-3.1,2.1-5.2,2.1H187c-2,0-3.8-0.7-5.2-2.1C180.4,1120.4,179.7,1118.6,179.7,1116.6z
			 M210.4,1116.4v-44.6h-23.1v44.6H210.4z"/>
		<path class="visa-card-1 fill-white" d="M269.9,1123.8h-3.8c-1,0-1.9-0.4-2.7-1.1s-1.1-1.6-1.1-2.7s0.4-1.9,1.1-2.7c0.7-0.7,1.6-1.1,2.7-1.1v-25
			h-26.7c-1,0-1.9-0.4-2.7-1.1c-0.8-0.8-1.1-1.6-1.1-2.7v-19.6c0-1,0.4-1.9,1.1-2.7c0.8-0.8,1.6-1.1,2.7-1.1h30.4
			c1,0,1.9,0.4,2.7,1.1c0.8,0.8,1.1,1.6,1.1,2.7v52.2c0,1.1-0.4,1.9-1.1,2.7C271.9,1123.5,271,1123.8,269.9,1123.8z M266.2,1083.6
			v-11.9h-23v11.9H266.2z"/>
		<path class="visa-card-1 fill-white" d="M329.3,1070.7l-30.7,52.1c-0.5,0.8-1.2,1.2-2.3,1.2c-1,0-1.9-0.3-2.8-1s-1.3-1.5-1.3-2.6c0-0.9,0.3-1.9,0.9-3
			l30.7-52c0.5-0.8,1.3-1.2,2.4-1.2c1,0,1.9,0.3,2.7,1c0.9,0.6,1.3,1.5,1.3,2.5S329.9,1069.7,329.3,1070.7z"/>
		<path class="visa-card-1 fill-white" d="M381.4,1123.9H347v-26.1c0-2.1,0.7-3.9,2.2-5.4s3.3-2.3,5.3-2.3h23v-18.4h-27c-1.1,0-2-0.4-2.7-1.1
			s-1.1-1.6-1.1-2.7s0.4-1.9,1.1-2.7c0.7-0.7,1.6-1.1,2.7-1.1h27c2.1,0,3.9,0.7,5.4,2.2s2.3,3.3,2.3,5.3v18.4c0,2.1-0.8,3.9-2.3,5.4
			s-3.3,2.2-5.4,2.2h-23v18.6h26.8c1,0,1.9,0.4,2.7,1.1c0.8,0.7,1.1,1.6,1.1,2.7s-0.4,1.9-1.1,2.7
			C383.3,1123.6,382.4,1123.9,381.4,1123.9z"/>
		<path class="visa-card-1 fill-white" d="M437.1,1123.9h-34.4v-26.1c0-2.1,0.7-3.9,2.2-5.4s3.3-2.3,5.3-2.3h23v-18.4h-27c-1.1,0-2-0.4-2.7-1.1
			s-1.1-1.6-1.1-2.7s0.4-1.9,1.1-2.7c0.7-0.7,1.6-1.1,2.7-1.1h27c2.1,0,3.9,0.7,5.4,2.2s2.3,3.3,2.3,5.3v18.4c0,2.1-0.8,3.9-2.3,5.4
			s-3.3,2.2-5.4,2.2h-23v18.6H437c1,0,1.9,0.4,2.7,1.1c0.8,0.7,1.1,1.6,1.1,2.7s-0.4,1.9-1.1,2.7
			C439,1123.6,438.1,1123.9,437.1,1123.9z"/>
	</g>
	<g>
		<path class="visa-card-1 fill-white" d="M656.3,1122v-49.1c0-1,0.3-1.9,1-2.6s1.5-1.1,2.5-1.1s1.8,0.3,2.5,1s1,1.5,1,2.5v16.8l22.8-19.5
			c0.8-0.7,1.7-1,2.7-0.9c1,0,1.8,0.4,2.5,1.1s1,1.6,1,2.5c0,1-0.4,1.8-1.2,2.4l-25.8,22l25.9,22.3c0.7,0.6,1.1,1.4,1,2.3
			c0,0.9-0.3,1.8-1,2.5c-0.7,0.8-1.5,1.1-2.6,1.1c-1,0-1.8-0.3-2.6-1l-22.7-19.6v17c0,1-0.3,1.8-1,2.5s-1.5,1-2.5,1s-1.8-0.3-2.5-1
			C656.6,1123.8,656.3,1123,656.3,1122z"/>
		<path class="visa-card-1 fill-white" d="M741.1,1076.4h-25.2v17.3h10.9c1,0,1.8,0.4,2.5,1.1s1.1,1.5,1.1,2.5s-0.3,1.9-1,2.6s-1.5,1.1-2.5,1.1H716
			v17.5h25.3c1,0,1.8,0.3,2.5,1s1.1,1.5,1.1,2.5s-0.4,1.8-1.1,2.5c-0.7,0.7-1.6,1-2.6,1h-32.3v-56.3h32.3c1,0,1.8,0.4,2.6,1.1
			c0.7,0.7,1.1,1.6,1.1,2.6s-0.4,1.8-1.1,2.5C742.9,1076.1,742.1,1076.4,741.1,1076.4z"/>
		<path class="visa-card-1 fill-white" d="M761.2,1125.5v-52.8c0-1,0.4-1.8,1.1-2.5c0.7-0.7,1.5-1.1,2.5-1.1s1.8,0.4,2.5,1.1s1.1,1.5,1.1,2.5v45.6h25.2
			c1,0,1.8,0.3,2.6,1c0.7,0.7,1.1,1.5,1.1,2.5s-0.4,1.8-1.1,2.5c-0.7,0.7-1.6,1-2.6,1h-32.4V1125.5z"/>
		<path class="visa-card-1 fill-white" d="M813.6,1125.5v-52.8c0-1,0.4-1.8,1.1-2.5c0.7-0.7,1.5-1.1,2.5-1.1s1.8,0.4,2.5,1.1s1.1,1.5,1.1,2.5v45.6H846
			c1,0,1.8,0.3,2.6,1c0.7,0.7,1.1,1.5,1.1,2.5s-0.4,1.8-1.1,2.5c-0.7,0.7-1.6,1-2.6,1h-32.4V1125.5z"/>
		<path class="visa-card-1 fill-white" d="M887.7,1098.5v23.5c0,1-0.4,1.8-1.1,2.5c-0.7,0.7-1.5,1-2.5,1s-1.9-0.3-2.6-1c-0.7-0.7-1.1-1.5-1.1-2.5v-23.4
			l-14.3-18.1v-7.5c0-1,0.3-1.9,1-2.6s1.5-1.1,2.5-1.1s1.8,0.4,2.6,1.1s1.1,1.6,1.1,2.6v4.9l10.7,13.7l10.8-13.7v-4.9
			c0-1,0.4-1.8,1.1-2.6c0.7-0.7,1.5-1.1,2.5-1.1c0.9,0,1.8,0.3,2.5,1s1.1,1.5,1.1,2.6v7.5L887.7,1098.5z"/>
		<path class="visa-card-1 fill-white" d="M971.1,1120.6l14.3-48.7c0.6-1.8,1.8-2.6,3.6-2.6s2.9,0.7,3.3,2.2l14.2,49.5c0.1,0.4,0.2,0.7,0.2,1.1
			c0,1-0.3,1.8-1,2.5s-1.5,1-2.3,1c-1.9,0-3-0.9-3.6-2.6l-2.8-9.7h-16.3l-3.1,10.4c-0.1,0.5-0.4,0.9-1.1,1.3c-0.6,0.4-1.3,0.6-2,0.6
			c-1.1,0-1.9-0.4-2.6-1.1c-0.7-0.7-1-1.6-1-2.6C970.9,1121.5,971,1121,971.1,1120.6z M989,1085.7l-6.1,20.4h12L989,1085.7z"/>
		<path class="visa-card-1 fill-white" d="M1059.2,1072.9v52.7h-9.5l-19.2-43.7v40.2c0,1-0.3,1.8-1,2.5s-1.5,1-2.5,1s-1.8-0.3-2.5-1
			c-0.7-0.7-1-1.5-1-2.5v-52.8h9.4l19.2,43.7v-40c0-1,0.4-1.8,1.1-2.6s1.6-1.1,2.6-1.1s1.8,0.4,2.5,1.1
			C1058.9,1071,1059.2,1071.8,1059.2,1072.9z"/>
		<path class="visa-card-1 fill-white" d="M1079.3,1069.2h14.1c1.8,0,3.6,0.6,5.4,1.8c1.7,1.2,3,2.6,3.8,4.2l7,14.2c1.3,2.6,2,5.3,2,8.1
			c0,2.6-0.7,5.3-2.1,8l-7.1,14.1c-0.9,1.8-2.2,3.3-3.9,4.3c-1.7,1.1-3.6,1.6-5.7,1.6h-13.6c-1,0-1.8-0.4-2.5-1.1s-1-1.5-1-2.5
			s0.3-1.8,1-2.6c0.7-0.7,1.5-1.1,2.5-1.1h3.7v-41.9h-3.6c-1,0-1.8-0.4-2.5-1.1s-1-1.6-1-2.6s0.3-1.8,1-2.5
			C1077.4,1069.6,1078.3,1069.2,1079.3,1069.2z M1090,1076.4v42h2.5c1.6,0,2.8-0.8,3.6-2.3l7-14c0.9-1.8,1.3-3.4,1.3-4.6
			c0-1.6-0.4-3-1.1-4.4l-7.3-14.5c-0.8-1.4-2-2.2-3.7-2.2H1090z"/>
		<path class="visa-card-1 fill-white" d="M1160.5,1076.4h-25.2v17.3h10.9c1,0,1.8,0.4,2.5,1.1s1.1,1.5,1.1,2.5s-0.3,1.9-1,2.6s-1.5,1.1-2.5,1.1h-10.9
			v17.5h25.3c1,0,1.8,0.3,2.5,1s1.1,1.5,1.1,2.5s-0.4,1.8-1.1,2.5s-1.6,1-2.6,1h-32.3v-56.3h32.3c1,0,1.8,0.4,2.6,1.1
			c0.7,0.7,1.1,1.6,1.1,2.6s-0.4,1.8-1.1,2.5C1162.4,1076.1,1161.5,1076.4,1160.5,1076.4z"/>
		<path class="visa-card-1 fill-white" d="M1180.7,1122v-52.8h25.2c2.9,0,5.4,1.1,7.5,3.2s3.2,4.6,3.2,7.6v4.1c0,3-1,5.5-3.1,7.6s-4.6,3.2-7.5,3.2h-4.5
			l14.5,25c0.5,0.7,0.7,1.5,0.7,2.2c0,1-0.4,1.8-1.1,2.5s-1.6,1-2.5,1c-1.4,0-2.5-0.6-3.2-1.9l-16.7-28.8h-5.1v27.2
			c0,1-0.4,1.8-1.1,2.5s-1.6,1-2.6,1s-1.8-0.3-2.5-1S1180.7,1123,1180.7,1122z M1187.8,1087.7h18.1c1,0,1.8-0.3,2.5-1s1-1.5,1-2.5
			v-4.2c0-1-0.3-1.8-1-2.5s-1.5-1-2.5-1h-18.1V1087.7z"/>
		<path class="visa-card-1 fill-white" d="M1241.1,1069.2h18.5c2.3,0,4.4,1,6.4,2.9s3,4.2,3,6.9c0,1-0.4,1.9-1.1,2.6s-1.5,1.1-2.4,1.1
			c-1.2,0-2-0.3-2.5-0.8c-0.5-0.6-0.9-1.6-1.3-3.1s-1.3-2.2-2.7-2.2h-17.6c-0.8,0-1.3,0.3-1.3,0.8c0,0.3,0.2,0.7,0.5,1.2l26.5,33.8
			c1.3,1.6,1.9,3.4,1.9,5.3c0,2.1-0.8,4-2.3,5.6s-3.3,2.4-5.1,2.4h-19.2c-2.5,0-4.8-1-6.6-2.9c-1.9-1.9-2.8-4.1-2.8-6.4
			c0-2.7,1.2-4,3.7-4c1,0,1.8,0.3,2.5,1s1,1.5,1,2.4c0,0.8,0.3,1.4,0.8,1.9s1.2,0.8,2,0.8h17.7c0.8,0,1.1-0.3,1.1-0.9
			c0-0.3-0.2-0.7-0.5-1.1l-26.4-33.8c-1.2-1.6-1.9-3.4-1.9-5.3c0-2.2,0.8-4.1,2.4-5.7S1238.9,1069.2,1241.1,1069.2z"/>
		<path class="visa-card-1 fill-white" d="M1311.9,1074.4l7.8,16c1.1,2.2,1.7,4.5,1.7,7.1c0,2.5-0.6,4.8-1.7,7l-7.8,15.8c-1.7,3.5-4.5,5.2-8.5,5.2
			c-1.9,0-3.6-0.5-5.1-1.5s-2.6-2.2-3.4-3.7l-7.9-15.8c-1-2.1-1.6-4.4-1.6-7s0.5-5,1.6-7.1l7.9-16c1.8-3.5,4.6-5.2,8.5-5.2
			C1307.3,1069.2,1310.2,1071,1311.9,1074.4z M1301,1078l-7.4,15c-0.7,1.5-1,3-1,4.4c0,1.6,0.3,3,1,4.5l7.6,15.2
			c0.4,0.9,1.1,1.4,2.2,1.4c0.9,0,1.6-0.5,2.1-1.4l7.6-15.2c0.7-1.5,1.1-3,1.1-4.5c0-1.6-0.4-3-1.1-4.4l-7.5-15
			c-0.5-1.1-1.2-1.7-2.2-1.7C1302.4,1076.3,1301.6,1076.9,1301,1078z"/>
		<path class="visa-card-1 fill-white" d="M1373.8,1072.9v52.7h-9.5l-19.2-43.7v40.2c0,1-0.3,1.8-1,2.5s-1.5,1-2.5,1s-1.8-0.3-2.5-1s-1-1.5-1-2.5v-52.8
			h9.4l19.2,43.7v-40c0-1,0.4-1.8,1.1-2.6s1.6-1.1,2.6-1.1s1.8,0.4,2.5,1.1C1373.4,1071,1373.8,1071.8,1373.8,1072.9z"/>
	</g>
	<g opacity=".7">
		<path class="visa-card-1 fill-white" d="M198.8,983h-14.9v10.3h6.4c0.6,0,1.1,0.2,1.5,0.6c0.4,0.4,0.6,0.9,0.6,1.5s-0.2,1.1-0.6,1.5
			c-0.4,0.4-0.9,0.6-1.5,0.6h-6.4v10.3h15c0.6,0,1.1,0.2,1.5,0.6c0.4,0.4,0.6,0.9,0.6,1.5s-0.2,1.1-0.6,1.5
			c-0.4,0.4-0.9,0.6-1.5,0.6h-19.1v-33.3h19.1c0.6,0,1.1,0.2,1.5,0.6c0.4,0.4,0.6,0.9,0.6,1.5s-0.2,1.1-0.6,1.5
			C199.9,982.8,199.4,983,198.8,983z"/>
		<path class="visa-card-1 fill-white" d="M221.7,999.6l-6.7,11.5c-0.4,0.7-1,1-1.8,1c-0.6,0-1.1-0.2-1.5-0.7c-0.4-0.4-0.6-0.9-0.6-1.4
			c0-0.4,0.1-0.8,0.4-1.2l7.9-13.4l-7.7-13.2c-0.3-0.5-0.5-1-0.5-1.4c0-0.5,0.2-1,0.6-1.4c0.4-0.4,0.9-0.6,1.5-0.6
			c0.8,0,1.4,0.3,1.8,1l6.8,11.4l6.7-11.4c0.4-0.7,1-1,1.8-1c0.6,0,1.1,0.2,1.5,0.6c0.4,0.4,0.7,0.9,0.7,1.5c0,0.4-0.1,0.8-0.3,1.1
			l-7.9,13.5l7.9,13.5c0.2,0.3,0.3,0.7,0.3,1.1c0,0.6-0.2,1.1-0.6,1.5s-0.9,0.6-1.5,0.6c-0.8,0-1.4-0.3-1.8-1L221.7,999.6z"/>
		<path class="visa-card-1 fill-white" d="M241.7,1009.9v-31.2h15c1.7,0,3.2,0.6,4.5,1.9c1.2,1.3,1.9,2.8,1.9,4.5v7.9c0,1.7-0.6,3.2-1.9,4.5
			c-1.2,1.2-2.7,1.9-4.5,1.9H246v10.6c0,0.6-0.2,1.1-0.6,1.5c-0.4,0.4-0.9,0.6-1.5,0.6s-1.1-0.2-1.5-0.6
			C242,1011,241.7,1010.5,241.7,1009.9z M246,995.1h10.7c0.6,0,1.1-0.2,1.5-0.6c0.4-0.4,0.6-0.9,0.6-1.5v-7.9c0-0.6-0.2-1.1-0.6-1.5
			s-0.9-0.6-1.5-0.6H246V995.1z"/>
		<path class="visa-card-1 fill-white" d="M274.8,978.7h17.1c0.6,0,1,0.2,1.5,0.6s0.6,0.9,0.6,1.5s-0.2,1.1-0.6,1.5s-0.9,0.6-1.5,0.6h-6.4v24.9h6.4
			c0.6,0,1.1,0.2,1.5,0.6c0.4,0.4,0.6,0.9,0.6,1.5s-0.2,1.1-0.6,1.5s-0.9,0.6-1.5,0.6h-17.1c-0.6,0-1.1-0.2-1.5-0.6
			c-0.4-0.4-0.6-0.9-0.6-1.5s0.2-1.1,0.6-1.5s0.9-0.6,1.5-0.6h6.5V983h-6.5c-0.6,0-1.1-0.2-1.5-0.6c-0.4-0.4-0.6-0.9-0.6-1.5
			s0.2-1.1,0.6-1.5C273.7,978.9,274.2,978.7,274.8,978.7z"/>
		<path class="visa-card-1 fill-white" d="M303.9,1009.9v-31.2h14.9c1.7,0,3.2,0.6,4.5,1.9c1.2,1.3,1.9,2.8,1.9,4.5v2.4c0,1.8-0.6,3.3-1.9,4.5
			c-1.2,1.2-2.7,1.9-4.5,1.9h-2.7l8.6,14.8c0.3,0.4,0.4,0.9,0.4,1.3c0,0.6-0.2,1.1-0.7,1.5c-0.4,0.4-0.9,0.6-1.5,0.6
			c-0.8,0-1.5-0.4-1.9-1.1l-9.9-17.1h-3v16.1c0,0.6-0.2,1.1-0.6,1.5s-0.9,0.6-1.5,0.6s-1.1-0.2-1.5-0.6
			C304.1,1011,303.9,1010.5,303.9,1009.9z M308.1,989.7h10.7c0.6,0,1.1-0.2,1.5-0.6c0.4-0.4,0.6-0.9,0.6-1.5v-2.5
			c0-0.6-0.2-1.1-0.6-1.5s-0.9-0.6-1.5-0.6h-10.7V989.7z"/>
		<path class="visa-card-1 fill-white" d="M353.9,983H339v10.3h6.4c0.6,0,1.1,0.2,1.5,0.6c0.4,0.4,0.6,0.9,0.6,1.5s-0.2,1.1-0.6,1.5s-0.9,0.6-1.5,0.6
			H339v10.3h15c0.6,0,1.1,0.2,1.5,0.6c0.4,0.4,0.6,0.9,0.6,1.5s-0.2,1.1-0.6,1.5s-0.9,0.6-1.5,0.6h-19.1v-33.3H354
			c0.6,0,1.1,0.2,1.5,0.6c0.4,0.4,0.6,0.9,0.6,1.5s-0.2,1.1-0.6,1.5C355,982.8,354.5,983,353.9,983z"/>
		<path class="visa-card-1 fill-white" d="M370.6,978.7h11c1.3,0,2.6,0.6,3.8,1.7c1.2,1.1,1.8,2.5,1.8,4.1c0,0.6-0.2,1.1-0.6,1.5s-0.9,0.6-1.4,0.6
			c-0.7,0-1.2-0.2-1.5-0.5s-0.5-0.9-0.8-1.8c-0.2-0.9-0.8-1.3-1.6-1.3h-10.4c-0.5,0-0.8,0.2-0.8,0.5c0,0.2,0.1,0.4,0.3,0.7l15.7,20
			c0.8,1,1.1,2,1.1,3.1c0,1.3-0.5,2.4-1.4,3.3c-0.9,1-1.9,1.4-3,1.4h-11.4c-1.5,0-2.8-0.6-3.9-1.7c-1.1-1.1-1.7-2.4-1.7-3.8
			c0-1.6,0.7-2.4,2.2-2.4c0.6,0,1.1,0.2,1.5,0.6c0.4,0.4,0.6,0.9,0.6,1.4s0.2,0.8,0.5,1.1s0.7,0.5,1.2,0.5h10.5
			c0.5,0,0.7-0.2,0.7-0.5c0-0.2-0.1-0.4-0.3-0.7l-15.6-20c-0.7-1-1.1-2-1.1-3.1c0-1.3,0.5-2.4,1.4-3.4S369.3,978.7,370.6,978.7z"/>
	</g>
	<g opacity=".7">
		<path class="visa-card-1 fill-white" d="M664.3,1007.8h7.6c0.6,0,1.1,0.2,1.5,0.6c0.4,0.4,0.6,0.9,0.6,1.5s-0.2,1.1-0.6,1.5c-0.4,0.4-0.9,0.6-1.5,0.6
			H664c-1,0-2-0.3-3.1-1s-1.8-1.3-2.2-2.1l-4.9-9.4c-0.7-1.4-1-2.7-1-4.2c0-1.6,0.3-2.9,0.9-4.1l4.9-9.3c0.5-0.9,1.2-1.6,2.2-2.3
			s1.9-1,2.9-1h8.3c0.6,0,1.1,0.2,1.5,0.6c0.4,0.4,0.6,0.9,0.6,1.5s-0.2,1.1-0.6,1.5c-0.4,0.4-0.9,0.6-1.5,0.6h-8
			c-0.7,0-1.2,0.4-1.6,1.2l-4.7,8.7c-0.4,0.7-0.6,1.5-0.5,2.4c0,1,0.2,1.9,0.6,2.6l4.5,8.6C662.7,1007.4,663.4,1007.8,664.3,1007.8z
			"/>
		<path class="visa-card-1 fill-white" d="M683.9,1009.1l8.5-28.8c0.3-1,1-1.6,2.1-1.6c1,0,1.7,0.4,2,1.3l8.4,29.3c0.1,0.2,0.1,0.4,0.1,0.6
			c0,0.6-0.2,1.1-0.6,1.5c-0.4,0.4-0.9,0.6-1.4,0.6c-1.1,0-1.8-0.5-2.1-1.5l-1.7-5.7h-9.6l-1.8,6.1c0,0.3-0.3,0.5-0.6,0.8
			s-0.8,0.4-1.2,0.4c-0.6,0-1.1-0.2-1.5-0.6c-0.4-0.4-0.6-0.9-0.6-1.5C683.8,1009.6,683.9,1009.4,683.9,1009.1z M694.5,988.5
			l-3.6,12.1h7.1L694.5,988.5z"/>
		<path class="visa-card-1 fill-white" d="M714.9,1009.9v-31.2h14.9c1.7,0,3.2,0.6,4.5,1.9c1.2,1.3,1.9,2.8,1.9,4.5v2.4c0,1.8-0.6,3.3-1.9,4.5
			c-1.2,1.2-2.7,1.9-4.5,1.9h-2.7l8.6,14.8c0.3,0.4,0.4,0.9,0.4,1.3c0,0.6-0.2,1.1-0.7,1.5c-0.4,0.4-0.9,0.6-1.5,0.6
			c-0.8,0-1.5-0.4-1.9-1.1l-9.9-17.1h-3v16.1c0,0.6-0.2,1.1-0.6,1.5c-0.4,0.4-0.9,0.6-1.5,0.6s-1.1-0.2-1.5-0.6
			C715.1,1011,714.9,1010.5,714.9,1009.9z M719.1,989.7h10.7c0.6,0,1.1-0.2,1.5-0.6c0.4-0.4,0.6-0.9,0.6-1.5v-2.5
			c0-0.6-0.2-1.1-0.6-1.5c-0.4-0.4-0.9-0.6-1.5-0.6h-10.7V989.7z"/>
		<path class="visa-card-1 fill-white" d="M747.9,978.7h8.3c1.1,0,2.1,0.4,3.2,1.1c1,0.7,1.8,1.5,2.3,2.5l4.2,8.4c0.8,1.5,1.2,3.1,1.2,4.8
			c0,1.5-0.4,3.1-1.3,4.7l-4.2,8.3c-0.5,1.1-1.3,1.9-2.3,2.6c-1,0.6-2.1,1-3.4,1h-8.1c-0.6,0-1.1-0.2-1.5-0.6
			c-0.4-0.4-0.6-0.9-0.6-1.5s0.2-1.1,0.6-1.5c0.4-0.4,0.9-0.6,1.5-0.6h2.2V983h-2.2c-0.6,0-1.1-0.2-1.5-0.6
			c-0.4-0.4-0.6-0.9-0.6-1.5s0.2-1.1,0.6-1.5C746.8,978.9,747.3,978.7,747.9,978.7z M754.3,983v24.9h1.5c0.9,0,1.6-0.5,2.1-1.4
			l4.2-8.3c0.5-1.1,0.8-2,0.8-2.7c0-0.9-0.2-1.8-0.6-2.6l-4.3-8.6c-0.5-0.9-1.2-1.3-2.2-1.3L754.3,983L754.3,983z"/>
		<path class="visa-card-1 fill-white" d="M776.8,1009.9v-29.1c0-0.6,0.2-1.1,0.6-1.5c0.4-0.4,0.9-0.6,1.5-0.6s1.1,0.2,1.5,0.6c0.4,0.4,0.6,0.9,0.6,1.5
			v12.4h12.8v-12.4c0-0.6,0.2-1.1,0.6-1.5c0.4-0.4,0.9-0.6,1.5-0.6s1.1,0.2,1.5,0.6s0.6,0.9,0.6,1.5v29.1c0,0.6-0.2,1.1-0.6,1.5
			c-0.4,0.4-0.9,0.6-1.5,0.6s-1.1-0.2-1.5-0.6c-0.4-0.4-0.6-0.9-0.6-1.5v-12.5H781v12.5c0,0.6-0.2,1.1-0.6,1.5s-0.9,0.6-1.5,0.6
			s-1.1-0.2-1.5-0.6C777,1011,776.8,1010.5,776.8,1009.9z"/>
		<path class="visa-card-1 fill-white" d="M823.5,981.8l4.6,9.5c0.7,1.3,1,2.7,1,4.2s-0.3,2.9-1,4.2l-4.6,9.4c-1,2.1-2.7,3.1-5,3.1
			c-1.1,0-2.1-0.3-3-0.9c-0.9-0.6-1.6-1.3-2-2.2l-4.7-9.4c-0.6-1.2-0.9-2.6-0.9-4.2c0-1.6,0.3-3,0.9-4.2l4.7-9.5
			c1.1-2.1,2.7-3.1,5-3.1C820.9,978.7,822.5,979.7,823.5,981.8z M817.1,983.9l-4.4,8.9c-0.4,0.9-0.6,1.8-0.6,2.6
			c0,0.9,0.2,1.8,0.6,2.6l4.5,9c0.2,0.6,0.7,0.8,1.3,0.8c0.5,0,0.9-0.3,1.2-0.8l4.5-9c0.4-0.9,0.6-1.8,0.6-2.6
			c0-0.9-0.2-1.8-0.6-2.6l-4.4-8.9c-0.3-0.7-0.7-1-1.3-1C817.9,982.9,817.4,983.3,817.1,983.9z"/>
		<path class="visa-card-1 fill-white" d="M839,1012.1v-31.2c0-0.6,0.2-1.1,0.6-1.5s0.9-0.6,1.5-0.6s1.1,0.2,1.5,0.6s0.6,0.9,0.6,1.5v27h14.9
			c0.6,0,1.1,0.2,1.5,0.6c0.4,0.4,0.6,0.9,0.6,1.5s-0.2,1.1-0.6,1.5c-0.4,0.4-0.9,0.6-1.5,0.6L839,1012.1L839,1012.1z"/>
		<path class="visa-card-1 fill-white" d="M872,978.7h8.3c1.1,0,2.1,0.4,3.2,1.1c1,0.7,1.8,1.5,2.3,2.5l4.2,8.4c0.8,1.5,1.2,3.1,1.2,4.8
			c0,1.5-0.4,3.1-1.3,4.7l-4.2,8.3c-0.5,1.1-1.3,1.9-2.3,2.6c-1,0.6-2.1,1-3.4,1h-8c-0.6,0-1.1-0.2-1.5-0.6
			c-0.4-0.4-0.6-0.9-0.6-1.5s0.2-1.1,0.6-1.5c0.4-0.4,0.9-0.6,1.5-0.6h2.2V983H872c-0.6,0-1.1-0.2-1.5-0.6c-0.4-0.4-0.6-0.9-0.6-1.5
			s0.2-1.1,0.6-1.5C871,978.9,871.5,978.7,872,978.7z M878.4,983v24.9h1.5c0.9,0,1.6-0.5,2.1-1.4l4.2-8.3c0.5-1.1,0.8-2,0.8-2.7
			c0-0.9-0.2-1.8-0.6-2.6l-4.3-8.6c-0.5-0.9-1.2-1.3-2.2-1.3L878.4,983L878.4,983z"/>
		<path class="visa-card-1 fill-white" d="M920.1,983h-14.9v10.3h6.4c0.6,0,1.1,0.2,1.5,0.6c0.4,0.4,0.6,0.9,0.6,1.5s-0.2,1.1-0.6,1.5
			c-0.4,0.4-0.9,0.6-1.5,0.6h-6.4v10.3h15c0.6,0,1.1,0.2,1.5,0.6c0.4,0.4,0.6,0.9,0.6,1.5s-0.2,1.1-0.6,1.5
			c-0.4,0.4-0.9,0.6-1.5,0.6H901v-33.3h19.1c0.6,0,1.1,0.2,1.5,0.6c0.4,0.4,0.6,0.9,0.6,1.5s-0.2,1.1-0.6,1.5
			C921.2,982.8,920.7,983,920.1,983z"/>
		<path class="visa-card-1 fill-white" d="M932.1,1009.9v-31.2H947c1.7,0,3.2,0.6,4.5,1.9c1.2,1.3,1.9,2.8,1.9,4.5v2.4c0,1.8-0.6,3.3-1.9,4.5
			c-1.2,1.2-2.7,1.9-4.5,1.9h-2.7l8.6,14.8c0.3,0.4,0.4,0.9,0.4,1.3c0,0.6-0.2,1.1-0.7,1.5c-0.4,0.4-0.9,0.6-1.5,0.6
			c-0.8,0-1.5-0.4-1.9-1.1l-9.9-17.1h-3v16.1c0,0.6-0.2,1.1-0.6,1.5c-0.4,0.4-0.9,0.6-1.5,0.6s-1.1-0.2-1.5-0.6
			C932.3,1011,932.1,1010.5,932.1,1009.9z M936.3,989.7H947c0.6,0,1.1-0.2,1.5-0.6c0.4-0.4,0.6-0.9,0.6-1.5v-2.5
			c0-0.6-0.2-1.1-0.6-1.5c-0.4-0.4-0.9-0.6-1.5-0.6h-10.7V989.7z"/>
		<path class="visa-card-1 fill-white" d="M1015.3,980.9v31.2h-5.7l-11.4-25.9v23.8c0,0.6-0.2,1.1-0.6,1.5c-0.4,0.4-0.9,0.6-1.5,0.6s-1.1-0.2-1.5-0.6
			c-0.4-0.4-0.6-0.9-0.6-1.5v-31.2h5.6l11.4,25.8v-23.7c0-0.6,0.2-1.1,0.6-1.5c0.4-0.4,0.9-0.6,1.5-0.6s1.1,0.2,1.5,0.6
			C1015.1,979.8,1015.3,980.3,1015.3,980.9z"/>
		<path class="visa-card-1 fill-white" d="M1025.3,1009.1l8.5-28.8c0.3-1,1-1.6,2.1-1.6c1,0,1.7,0.4,2,1.3l8.4,29.3c0.1,0.2,0.1,0.4,0.1,0.6
			c0,0.6-0.2,1.1-0.6,1.5s-0.9,0.6-1.4,0.6c-1.1,0-1.8-0.5-2.1-1.5l-1.7-5.7h-9.6l-1.8,6.1c0,0.3-0.3,0.5-0.6,0.8s-0.8,0.4-1.2,0.4
			c-0.6,0-1.1-0.2-1.5-0.6c-0.4-0.4-0.6-0.9-0.6-1.5C1025.1,1009.6,1025.2,1009.4,1025.3,1009.1z M1035.8,988.5l-3.6,12.1h7.1
			L1035.8,988.5z"/>
		<path class="visa-card-1 fill-white" d="M1064.6,991.8v-1.1l-4.4-6.2v25.4c0,0.6-0.2,1.1-0.6,1.5s-0.9,0.6-1.5,0.6s-1.1-0.2-1.5-0.6
			c-0.4-0.4-0.6-0.9-0.6-1.5v-31.2h5.5l5.2,7.6l5.3-7.6h5.3v31.2c0,0.6-0.2,1.1-0.6,1.5s-0.9,0.6-1.5,0.6s-1.1-0.2-1.5-0.6
			s-0.6-0.9-0.6-1.5v-25.3l-4.3,6v1.2c0,0.6-0.2,1.1-0.6,1.5s-0.9,0.6-1.5,0.6s-1.1-0.2-1.5-0.6
			C1064.8,992.9,1064.6,992.4,1064.6,991.8z"/>
		<path class="visa-card-1 fill-white" d="M1106.3,983h-14.9v10.3h6.4c0.6,0,1.1,0.2,1.5,0.6c0.4,0.4,0.6,0.9,0.6,1.5s-0.2,1.1-0.6,1.5
			s-0.9,0.6-1.5,0.6h-6.4v10.3h15c0.6,0,1.1,0.2,1.5,0.6c0.4,0.4,0.6,0.9,0.6,1.5s-0.2,1.1-0.6,1.5s-0.9,0.6-1.5,0.6h-19.1v-33.3
			h19.1c0.6,0,1.1,0.2,1.5,0.6c0.4,0.4,0.6,0.9,0.6,1.5s-0.2,1.1-0.6,1.5C1107.4,982.8,1106.9,983,1106.3,983z"/>
	</g>
</g>
</svg>
