<?xml version="1.0" encoding="utf-8"?>
<!-- Generator: Adobe Illustrator 23.0.3, SVG Export Plug-In . SVG Version: 6.00 Build 0)  -->
<svg xmlns="http://www.w3.org/2000/svg" xmlns:xlink="http://www.w3.org/1999/xlink" x="0px" y="0px"
	 viewBox="0 0 1329.1 717.8" style="enable-background:new 0 0 1329.1 717.8;" xml:space="preserve">
<style type="text/css">
	.we-are-in-office-0{fill:#F2F2F2;}
	.we-are-in-office-1{fill:#AFB9C5;}
	.we-are-in-office-2{fill:#C5CFD6;}
	.we-are-in-office-3{opacity:0.346;}
	.we-are-in-office-4{fill:#DDE3E9;}
	.we-are-in-office-5{opacity:0.7;}
	.we-are-in-office-6{fill:none;stroke:#CBCBCB;stroke-width:8;stroke-miterlimit:10;}
	.we-are-in-office-7{fill:#89C5CC;}
	.we-are-in-office-8{fill:#C1DEE2;}
	.we-are-in-office-9{fill:#69A1AC;}
	.we-are-in-office-10{fill:#FFFFFF;}
	.we-are-in-office-11{fill:#B28B67;}
	.we-are-in-office-12{fill:#191847;}
	.we-are-in-office-13{fill:#997659;}
	.we-are-in-office-14{fill:#E4E4E4;}
	.we-are-in-office-15{fill:#EFA02E;}
	.we-are-in-office-16{opacity:0.2;enable-background:new    ;}
	.we-are-in-office-17{opacity:0.2;fill:#FFFFFF;enable-background:new    ;}
	.we-are-in-office-18{fill:#DB2721;}
	.we-are-in-office-19{fill:#FF4133;}
	.we-are-in-office-20{fill:#2026A2;}
	.we-are-in-office-21{fill:#1F28CF;}
	.we-are-in-office-22{fill:#2B44FF;}
	.we-are-in-office-23{opacity:0.2;}
</style>
<g id="Clock" transform="translate(720.86 101.585)">
	<circle id="Clock_Frame" class="we-are-in-office-0" cx="229.8" cy="-46" r="53"/>
	<circle id="Time" cx="229.8" cy="-88" r="3"/>
	<circle id="Time-2" cx="187.8" cy="-46" r="3"/>
	<circle id="Time-3" cx="271.8" cy="-46" r="3"/>
	<circle id="Time-4" cx="229.8" cy="-4" r="3"/>
	<path id="Hand" class="we-are-in-office-1" d="M229.8-82l2,35h-4L229.8-82z"/>
	<path id="Hand-2" class="we-are-in-office-1" d="M247.5-28.3l-18.4-15.6l2.8-2.8L247.5-28.3z"/>
	<circle id="Time-5" class="we-are-in-office-2" cx="229.8" cy="-46" r="4"/>
</g>
<g id="Background_Shape_2" transform="translate(39.62 284.188)" class="we-are-in-office-3">
	<path id="Background_Shape" class="we-are-in-office-0" d="M915.8,101.8c-10.5-89.8-574.6-263-679.4-178s-4,244.5,215.4,285.4
		S926.3,191.5,915.8,101.8z"/>
	<path id="Background_Shape-2" class="we-are-in-office-4" d="M439,160.1c9.7-76.2,530.7-223.4,627.4-151.2S1138.6,233,936,267.7
		S429.3,236.3,439,160.1z"/>
</g>
<g id="Hanging_Lamp" transform="translate(35.569)">
	<g id="Light" transform="translate(0 187.208)">
		<ellipse id="Hanging_Lamp_Light" class="we-are-in-office-0" cx="136.3" cy="34.5" rx="42.5" ry="22.5"/>
		<path id="Hanging_Lamp-2" class="we-are-in-office-4" d="M185.8,50c0-27.6-22.2-50-49.5-50S86.8,22.4,86.8,50"/>
	</g>
	<rect id="Wire" x="133.8" class="we-are-in-office-4" width="5" height="194.5"/>
</g>
<g id="Hanging_Lamp-3" transform="translate(161.794)" class="we-are-in-office-5">
	<g id="Light-2" transform="translate(0 139.188)">
		<ellipse id="Hanging_Lamp_Light-2" class="we-are-in-office-0" cx="123.8" cy="27.8" rx="31.8" ry="18.2"/>
		<path id="Hanging_Lamp-4" class="we-are-in-office-4" d="M160.8,40.4c0-22.3-16.6-40.4-37-40.4s-37,18.1-37,40.4"/>
	</g>
	<rect id="Wire-2" x="121.8" class="we-are-in-office-4" width="5" height="162.2"/>
</g>
<g id="Lamp" transform="translate(716.945 244.471)">
	<path id="Body" class="we-are-in-office-6" d="M436.1-61.1l32.5-21.8c5.5-3.7,14.3-3.7,19.8,0l86.5,58c5.3,3.5,8.2,8.3,8.2,13.3v384.2"/>
	<path id="Lamp_Base" class="we-are-in-office-1" d="M556.1,371.5h53c1.7,0,3,1.3,3,3v1c0,1.7-1.3,3-3,3h-53c-1.7,0-3-1.3-3-3v-1
		C553.1,372.9,554.5,371.5,556.1,371.5z"/>
	<g id="Lamp_Top" transform="translate(47.066 0) rotate(45)">
		<path id="Lamp-2" class="we-are-in-office-2" d="M229.5-336.5L229.5-336.5c18.2,0,33,14.8,33,33v28l0,0h-66l0,0v-28
			C196.5-321.7,211.2-336.5,229.5-336.5z"/>

			<ellipse id="Lamp-3" transform="matrix(7.605544e-06 1 -1 7.605544e-06 -46.8442 -506.1971)" class="we-are-in-office-0" cx="229.7" cy="-276.5" rx="6.5" ry="33"/>
	</g>
</g>
<g id="Big_Leaf_Plant" transform="translate(23.179 484)">
	<g id="Big_Ass_Leaf" transform="translate(23)">
		<path id="leaf" class="we-are-in-office-4" d="M1.1-98.8C4-99.3,6.9-99,9.7-97.9c5.7,2.4,7.3,9.1,7.2,14.5c-0.1,5.9-1.3,12.2,3.1,17
			c2,2.2,4.6,3.8,6.6,6c2.1,2.4,3.8,5,5.1,8c2.3,5.3,3.4,11.6,1.3,17.2c-1.8,4.9-6.5,9.4-5.5,15c1,5.8,6.9,10.3,10.6,14.6
			c4.2,4.9,8,11.2,8.6,17.7c0.6,6.2-2.1,12.4-6.2,17.1C32.3,38.5,19.9,43,7.4,43C2.1,43-4,42.7-8.5,39.9c-1.3-0.8-2.3-1.9-3-3.2
			c-0.8-1.1-1.8-2.1-2.9-2.9c-2.5-1.9-4.4-4.5-5.5-7.4c-4.5-11.2-0.9-25.1,5.4-35.1c1.5-2.4,2.7-4.6,2-7.5c-0.8-2.9-2.6-5.6-4.3-8.1
			c-1.8-2.4-3.4-4.9-4.8-7.6c-1.3-2.8-1.8-5.8-1.5-8.9c0.6-5.8,2.9-11.3,6.5-15.9c3.4-4.5,7.4-8.8,7.5-14.7c0-6.3-4.2-11.8-2.4-18.2
			c0.7-2.8,2.3-5.2,4.6-6.9C-4.6-98-1.6-98.5,1.1-98.8z"/>
		<path id="middle_thing" class="we-are-in-office-2" d="M-0.8-88.8c0.1-0.8,0.9-1.3,1.7-1.2C1-90,1-90,1.1-90c1,0.3,1,1.3,1,2.1
			c0,2.6,0.3,5.2,0.9,7.8c1.3,5.3,3.8,10.2,5.7,15.4c1.9,5.1,2.8,10.4,1.7,15.8c-1.1,5.1-2.7,10.1-3.8,15.2c-1,4.5-2,9.3-0.5,13.8
			c1.4,4.3,4.5,7.8,6.8,11.8c4.5,8.1,6.9,17.1,7,26.3c0.2,4.3-0.1,8.6-1,12.8c-0.6,2.4-1.3,5.7-3.4,7.4c-1,0.8-2.6,1-3.4-0.1
			c-0.8-1.1-0.1-2.7,0.1-3.9c1-4.9,1.3-10,1-15c-0.2-4.9-1-9.8-2.4-14.4C9.3,0.7,7.2-3.3,4.7-7c-2.6-3.8-5.3-7.7-6.3-12.2
			c-1.1-4.6-0.2-9.3,1-13.9c1.2-4.8,2.9-9.5,4.6-14.1c1.7-4.3,2.2-9,1.3-13.6C3.4-70.2-1.4-79-0.8-88.8z"/>
	</g>
	<g id="Big_Ass_Leaf-2" transform="translate(32 10)">
		<path id="leaf-2" class="we-are-in-office-4" d="M67.7-97.4c3.6,1,6.9,2.9,9.6,5.5c5.4,5.8,3.7,14.5,0.8,20.9c-3.2,6.9-8,13.8-5.3,21.7
			c1.3,3.6,3.4,6.9,4.6,10.6c1.2,3.9,1.8,8,1.7,12.1c-0.1,7.5-2.1,15.5-7.5,21C66.8-0.8,59,2.1,57.2,9.2C55.3,16.7,59.9,25,61.9,32
			c2.3,8,3.5,17.4,0.8,25.4c-2.6,7.6-9,13.6-16.3,17c-14.6,6.8-31.6,5.7-46.2-0.8c-6.2-2.8-13.1-6.2-17-11.9
			c-1.1-1.6-1.7-3.5-1.8-5.4c-0.3-1.8-0.9-3.4-1.9-5c-1.9-3.6-2.8-7.6-2.6-11.6C-22.5,24-10.9,9.5,1.8,1c3-2,5.7-4.1,6.3-7.8
			c0.7-3.9-0.1-8-0.7-11.8s-1.5-7.6-1.6-11.5c0-4,1-7.8,3-11.3c3.6-6.6,9.4-11.7,16-15.4c6.4-3.5,13.4-6.6,16.5-13.5
			c3.3-7.4,1.4-16.2,6.8-22.8c2.3-2.7,5.4-5.2,9.1-5.8C60.6-99.4,64.4-98.4,67.7-97.4z"/>
		<path id="middle_thing-2" class="we-are-in-office-2" d="M60.5-85.2c0.6-0.8,1.7-1.1,2.5-0.5c0.1,0,0.1,0.1,0.2,0.1c1.1,0.9,0.5,2,0,3
			c-1.4,3.1-2.4,6.3-3,9.7c-1.2,7-1,14.1-1.4,21.2s-2,13.8-6.2,19.7c-3.9,5.5-8.5,10.5-12.4,16c-3.5,4.8-7.2,9.9-7.8,16
			c-0.6,5.9,1.2,11.7,1.8,17.5c1.2,12-1.1,23.7-5.6,34.8c-2,5.2-4.6,10.1-7.9,14.7c-1.9,2.6-4.6,6-7.9,6.9c-1.5,0.4-3.6-0.1-3.9-1.9
			c-0.3-1.7,1.3-3.3,2.2-4.5c3.7-5.3,6.8-11.1,9-17.3c2.4-5.8,4-12,4.8-18.2c0.5-5.8,0.2-11.6-0.9-17.4c-1-5.9-2.1-11.9-1-17.8
			c1.2-6,4.6-11.2,8.4-15.9c4-5,8.3-9.7,12.7-14.3c4.3-4.2,7.3-9.6,8.7-15.4C55.6-61,54.6-73.9,60.5-85.2z"/>
	</g>
	<g id="Big_Ass_Leaf-3" transform="translate(0 56)">
		<path id="leaf-3" class="we-are-in-office-2" d="M-9.9-99c5.9,0,11.1,3.1,14.6,7.6c4.2,5.2,5,11.5,6.7,17.7c0.7,3.2,2.4,6,4.8,8.2
			c2.3,1.9,5.3,2.3,8,3.2c5.6,1.9,9.9,6.2,11.8,11.8c2.2,6.7-0.1,13.4,0.3,20.1c0.4,6.2,6.5,10.1,11.4,13c4.9,3,9.3,5.7,10.8,11.4
			c1.5,6.1,2.1,12.8-0.1,18.8c-3.6,10-14,14.3-24.1,15c-9.2,0.6-20.7-0.4-27.6-7c-4.1-4-5.6-9.5-5.4-15.1C1.5,2.3,2-1.1,3-4.4
			c0.8-2.3,1.3-4.7,1.7-7.1C5.3-18-0.7-19.2-5.8-21C-12-23.2-17.1-27.7-20-33.6c-2.9-5.5-4.2-11.8-2.4-17.9c0.9-3.1,2.5-6,4.7-8.4
			c1-1.1,2.3-1.9,3.2-3.1c0.7-1.1,0.8-2.4,0.4-3.6c-1.3-5.6-5.4-10.3-6.8-15.9c-1.3-5.1-0.5-11.4,4.1-14.6
			C-14.7-98.3-12.3-99-9.9-99z"/>
		<path id="middle_thing-3" class="we-are-in-office-1" d="M-1.8-84.4C4.4-77.7,6.1-68.7,6.6-60c0.3,5,0,10.2,1.4,14.9c1.2,4.1,4.1,7.2,7.1,10.1
			c6,5.9,12.7,11.9,14.4,20.5c1,5,0.3,10.2,1.8,15.2c1.4,4.6,3.5,8.9,6.3,12.8c2.2,3.1,5.1,5.4,7.6,8.3c0.7,0.9,1.8,2.2,1.5,3.4
			c-0.4,1.4-2.2,1.9-3.5,1.7c-3-0.5-5.6-3.4-7.6-5.6c-2.9-3-5.4-6.5-7.4-10.2c-2.3-4-3.9-8.4-4.8-13.1c-0.8-4.8-0.4-9.9-2.2-14.5
			C18.1-24.3,10.7-28.9,5.3-35c-6.7-7.6-5.7-17-5-26.3c0.4-5.1,0.8-10.9-1.8-15.6c-1-1.8-3.2-3.4-3.6-5.5C-5.5-84.1-3.4-86-1.8-84.4
			z"/>
	</g>
	<path id="Base" class="we-are-in-office-7" d="M4.8,81c0,38.1,6.2,58,39,58s39-19.9,39-58H4.8z"/>
</g>
<g id="Table" transform="translate(194.488 465)">
	<g id="Lamp-4" transform="translate(23)">
		<path id="Lamp_Base-2" class="we-are-in-office-1" d="M19.8,45h34c1.1,0,2,0.9,2,2v5c0,1.1-0.9,2-2,2h-34c-1.1,0-2-0.9-2-2v-5
			C17.8,45.9,18.7,45,19.8,45z"/>
		<path id="Lamp_Body" class="we-are-in-office-4" d="M20.3,16h33c8.6,0,15.5,6.9,15.5,15.5S61.9,47,53.3,47h-33c-8.6,0-15.5-6.9-15.5-15.5
			S11.8,16,20.3,16z"/>
		<path id="Shade" class="we-are-in-office-2" d="M1.4-97.3c0,0,17.2-1.7,34.4-1.7s34.4,1.7,34.4,1.7l4.6,79.5c0,0-19.5,1.9-39,1.9s-39-1.9-39-1.9
			L1.4-97.3z"/>
	</g>
	<path id="Table-2" class="we-are-in-office-0" d="M100.8,158V76h-83v82h-21V54h125v104H100.8z"/>
</g>
<g id="Plant" transform="translate(768.362 440)">
	<g id="Succulents" transform="translate(13 0)">
		<path id="Thi_Succs_" class="we-are-in-office-8" d="M380.2-98.8c8.8,21,23.8,35.6,31.8,57.4c4.7,12.9,6.7,27,6.8,41.4c0.1,7.8-0.1,15.7-0.1,23.5
			c0,7.6-0.2,15.2-0.9,22.8c-0.7,7.6-1.4,15.2-1.7,22.8c-0.3,6-0.4,12.9-2.4,18.4c-1.6,4.3-5.7,5-6.8-0.3c-0.5-3-0.6-6.1-0.5-9.2
			c0.1-3.9,0.3-7.7,0.4-11.6c0.5-15.5-0.1-30.9,0.2-46.4c0.3-15.1,2.2-30.2,0.1-45.2c-1.8-12.4-6.3-23.1-11.5-33.3
			c-5-9.8-10.4-19.4-13.8-30.6c-1-3.3-1.7-6.6-2.1-10C380-99,380.1-99,380.2-98.8z"/>
		<path id="Thi_Succs_2" class="we-are-in-office-7" d="M377.8-57.4c1.7,1.3,2.7,3.1,3.9,4.9c1.5,2.3,3.2,4.3,4.7,6.6c3.1,4.7,5.8,9.7,8.5,14.7
			c5.4,9.3,9.3,19.5,11.3,30.1c2.1,11.2,2.6,22.8,3.5,34.1c0.9,12,1.8,24.2,2,36.3c0.1,5.4,0.3,11.2-0.3,16.5
			c-0.4,3.3-1.9,6.2-5.3,6.2c-7.2-0.1-10.6-8.1-12.1-14.6c-2.1-9.7-2.5-20-2.2-29.9c0.4-11.9,2.5-23.7,3.4-35.6
			c0.9-12.6,0.4-25-3.9-36.8c-2.2-6-4.7-11.8-7-17.8c-0.8-2.6-1.9-5.1-3.1-7.5c-1.5-2.6-3.3-5-4.4-7.8L377.8-57.4z"/>
		<path id="Thi_Succs_3" class="we-are-in-office-8" d="M461.2-82.5l0.7-0.5c-0.7,2.5-1.6,4.9-2.7,7.3c-0.7,2.3-1.3,4.7-1.7,7.1
			c-1.3,5.7-2.7,11.2-3.9,17c-2.3,11.3-1.9,23.6-0.4,36.1c1.5,11.9,3.8,23.7,4.8,35.6c1,9.8,1.2,19.6,0.4,29.4
			c-0.6,6.4-2.5,14-7.8,13.4c-2.5-0.3-3.8-3.3-4.3-6.6c-0.8-5.4-1-11.1-1.3-16.4c-0.7-12-0.9-23.9-1-35.8
			c-0.1-11.2-0.5-22.6,0.2-33.5c0.7-9.8,2.8-19.5,6.2-28.8c1.7-4.6,3.3-9.3,5.2-13.7c0.9-2.1,2-4,2.9-6.1
			C459.4-79.7,460-81.4,461.2-82.5z"/>
		<path id="Thi_Succs_4" class="we-are-in-office-8" d="M380-22.7c1-1.6,3.1,3.7,3.4,4.4c-0.1-0.3-0.3-0.7-0.4-1c2,3.1,3.6,6.5,4.7,10.1
			s2,7.2,3,10.9c1.9,6.8,4.3,13.4,6,20.2c1.6,6.6,2.2,13.4,1.7,20.1c-0.5,7.2-0.6,14.4-0.2,21.6c0.2,3.4,1.3,6.6,2.1,9.9
			c0.8,3.3,1.4,6.6,2.3,9.9c0.2-0.4,0.2,1,0.2,1.1c0,0.8-0.1,1.5-0.4,2.3c-0.5,2-1.9,3.5-3.8,4.2c-3.5,1-6.7-2.2-7.8-5.5
			c-1.5-4.9-2.6-9.9-3.2-15c-0.7-4.6-0.9-9.2-0.7-13.9c0.4-9.2,2.1-18.2,2.5-27.4c0.5-10-1.5-19.4-3.1-29.1
			c-0.7-4.7-1.7-9.3-3.1-13.8c-0.6-1.7-1.4-3.4-2.3-5.1C380.4-19.9,379.4-21.6,380-22.7z"/>
		<path id="Thi_Succs_5" class="we-are-in-office-9" d="M408.1-38.3c-0.4,11.4-1.1,22.8-2.6,34.1c-1.6,11.6-3.3,23.1-4.8,34.6
			c-1.5,11.3-3,22.7-2.8,34.1c0.1,8.4-1.2,22.6,8.1,26.8c9.5,4.2,11.5-13.7,12.1-19.7c1.2-11.4,0.8-22.9,0.2-34.3
			c-0.6-11.7-1.6-23.4-2.8-35.1c-1.4-13-2.4-26-3.3-39c-0.4-6.4-0.5-12.9-0.4-19.3c0.1-6.1-0.1-12.2-2.3-18l-0.3,0.2"/>
		<path id="Thi_Succs_6" class="we-are-in-office-7" d="M456.9-2c-1.7,2.5-3.4,4.9-5,7.6c-2.9,4.7-5.5,9.9-6.3,16.6c-1.6,14.1-0.3,29.2,0,43.7
			c0.1,3-0.3,5.8,0.9,8.6c1.1,2.6,3,4.5,4.9,4.5c4,0,3.4-9.9,3.4-14.3c0-7.6-0.8-15.3-0.8-22.9c0-7.5,0.6-14.9,1.6-22.3
			c1-7,2.7-14,4.9-20.7c0.3-0.9,2.4-7.9,0.4-6.7"/>
		<path id="Thi_Succs_7" class="we-are-in-office-9" d="M439.1-77c-2.7,0-2.6,13.2-2.7,14.9c-0.3,6.1-0.2,12.3-0.4,18.4
			c-0.4,13.4-0.9,26.9-2.9,40.1c-1.1,7.1-2.3,14.2-3.7,21.3c-1.4,7.1-3.2,14.2-4.1,21.3c-0.9,6.9-0.4,13.9-0.3,20.9
			c0,7,0.4,13.9,1.2,20.9c0.2,1.7,0.5,3.4,0.8,5.1c0.1,1.5,0.2,3,0.5,4.5c0.6,2.2,3.4,2.9,5.2,2.5c5-0.9,8.2-7.2,9.9-11.8
			c2.2-5.8,3.3-12.2,4.5-18.4c1.3-7,2.1-14.1,2.4-21.2c0.7-14.4-0.2-28.9-1.2-43.3c-0.6-8-1.2-16-2.3-23.9c-1-7.9-2.3-15.8-3.2-23.8
			c-0.6-5.8-1.2-11.6-1.6-17.4C441.2-68.1,441.1-77,439.1-77"/>
		<path id="Thi_Succs_8" class="we-are-in-office-7" d="M435.8,19.1c-0.4-13.9-6-74.9-7.3-91.7c-0.3-4.2-3.4-21.7-3.8-26.5c-1.1,1.3-1,22.3-1,27.1
			s-0.6,9.4-0.9,14.2s-7.5,67.3-8.4,71.9c-1.8,9.2-3.1,18.7-4,28.2c-0.9,9.2-2.4,18.9-1.1,28.2c0.3,2.1,0.8,4.2,1.5,6.2
			c0.8,2.1,1.3,4.1,2,6.3c1,3.6,2.9,6.7,5.7,8.2c5.8,3,9-3.8,10.6-9.8c2.5-9.5,4.2-19.3,4.9-29.1C434.9,41.3,436.1,30.3,435.8,19.1"
			/>
	</g>
	<g id="Planter" transform="translate(0 159)">
		<path id="Vase" class="we-are-in-office-10" d="M388.8-99h87c1.1,0,2,0.9,2,2v87c0,1.1-0.9,2-2,2h-87c-1.1,0-2-0.9-2-2v-87
			C386.8-98.1,387.7-99,388.8-99z"/>
		<path id="Leg" class="we-are-in-office-2" d="M378.8-89h6c1.1,0,2,0.9,2,2V22c0,1.1-0.9,2-2,2h-6c-1.1,0-2-0.9-2-2V-87
			C376.8-88.1,377.7-89,378.8-89z"/>
		<path id="Leg-2" class="we-are-in-office-2" d="M428.8-89h6c1.1,0,2,0.9,2,2V22c0,1.1-0.9,2-2,2h-6c-1.1,0-2-0.9-2-2V-87
			C426.8-88.1,427.7-89,428.8-89z"/>
		<path id="Leg-3" class="we-are-in-office-2" d="M479.8-89h6c1.1,0,2,0.9,2,2V22c0,1.1-0.9,2-2,2h-6c-1.1,0-2-0.9-2-2V-87
			C477.8-88.1,478.7-89,479.8-89z"/>
	</g>
</g>
<g>
	<g id="Head-5" transform="translate(60.75 -34.875)">
		<path id="Head-6" class="we-are-in-office-11" d="M784.7,400.4l-7.8-36.1c4.3-5.1,7.3-11.3,6.8-18.3c-1.4-20.1-29.4-15.7-34.8-5.5
			c-5.4,10.1-4.8,35.8,2.2,37.7c2.8,0.7,8.8-1,14.8-4.7l-3.8,27h22.6V400.4z"/>
	</g>
	<path id="Hair" class="we-are-in-office-12" d="M826.6,337.4c1.5-4.6,2.1-17.7,2.2-21.6c0.2,0,0.4,0,0.7,0c3.1,0,5.6,2.5,5.6,5.6
		c0,1.5-0.6,3-1.7,4c1.3,1.8,2.8,3.8,4.4,5.7c6.3-3.8,11-14.8,4.8-25.4c-1.7-5.2-5.5-8-10.1-9.3c-3.4-1.5-7.2-1.7-10.7-0.8
		c-6.3,0.5-12,2.5-13.6,3.6c0,6,1.2,7.8,11.1,7.6c2.4,1.3,4.3,3.5,6.3,6.4c0,0.2-1.3,18-6.8,18s-10.3-3.5-12.7-3.5
		c-1.8,0-1.4,2.2-0.2,3.9c1,1.4,5.7,2.7,5.7,4.8c0,1.2-1.2,1.2-2.2,1.2c-0.8,0-1.5,0-1.5,0.5c0,2.1-0.7,6,2.9,6
		C814.4,344.1,824.8,342.8,826.6,337.4z"/>
	<path id="Leg-4" class="we-are-in-office-13" d="M865.2,446.6l-35.3,115.5l-17.1,98.2h-13.4l18-213.7L865.2,446.6L865.2,446.6z"/>
	<path id="Leg-5" class="we-are-in-office-11" d="M877.8,446.6c-2.4,63.4,0.4,96.1,1,101.9c0.5,5.8,7.9,43.1,25.3,113.8l-14.3-4.9
		c-27.5-64.8-36.8-98.5-40-107c-3.1-8.5-11.5-43.1-25.1-103.8L877.8,446.6L877.8,446.6z"/>
	<path id="shoe-3" class="we-are-in-office-14" d="M901.3,656c1-0.3,2,0.2,2.3,1.2v0.1l1.8,6.3c-0.1,2.5-0.4,5-0.8,7.4h-52.3c0,0-2-6.8,2.4-7.4
		s7.3-1,7.3-1l24.3-11c0.5-0.2,1,0,1.2,0.5l0,0l1.6,3.8c0,0,4.1,1.9,6.6,1.9L901.3,656z"/>
	<path id="shoe-4" class="we-are-in-office-14" d="M813.2,656c1-0.3,2,0.2,2.3,1.2v0.1l1.8,6.3c-0.1,2.5-0.4,5-0.8,7.4h-52.3c0,0-2-6.8,2.4-7.4
		s7.3-1,7.3-1l24.3-11c0.5-0.2,1,0,1.2,0.5l0,0l1.6,3.8c0,0,4.1,1.9,6.6,1.9L813.2,656z"/>
	<path id="Bottom-3" class="we-are-in-office-9" d="M869.9,446.6l-15,58.8h-45.8l6.8-58.8H869.9z"/>
	<path id="Bottom-4" class="we-are-in-office-7" d="M878.3,446.6c7.4,22.2,2.8,58.8,2.8,58.8h-46.7l-12.9-58.8H878.3z"/>
	<path id="Skin-3" class="we-are-in-office-11" d="M940.5,502.1c0.9-0.8,1.7-3.3-1.3-4.8c-7.5-3.7-18.5-10.5-20.2-13c-3.5-5.1-20.3-57.6-20.3-57.6
		l-19.4,2.8c0,0,26.1,55.4,28.1,58.8c2.9,5-0.5,13.8-1.8,18.4c3.3,0.9,4.4-1,5.8-3c1.4-2.1,3-4.2,7.4-2.9c5.6,1.7,10.5,5,15.7,4.3
		C936.7,504.7,938.8,503.7,940.5,502.1z M767.1,473.3l25.1-20l-10.9-13.9l-22.7,29.3c-7.2,4.3-13,8.8-17.3,13.4
		c-0.9,1.5-1.8,4.2,3.3,2.3c5-1.9,10.4-3.6,11.6-2.1s-1.3,4.5,0.8,6.5c0.2,0.2,0.4,0.2,0.6,0.2C759.2,489,762.4,483.7,767.1,473.3z"
		/>
	<path id="Coat_Back" class="we-are-in-office-15" d="M832.1,353.1l-8.2-0.2c-9,36.4-28.7,71.2-59.3,104.2l30.5,27.9
		C823.9,440,839.4,395.6,832.1,353.1z"/>
	<path id="Shirt" class="we-are-in-office-4" d="M881.3,449l-71.6,10c0,0,16.4-63.9,10.5-106l21.1-6.2C862.1,371.6,871.6,404.5,881.3,449z"/>
	<path id="Coat_Front" class="we-are-in-office-15" d="M918.1,475c-20.2-87-76.3-128.3-76.3-128.3l0,0l0,0l-1.4,0.2c-2.5,0.4-7.7,1.4-7.7,1.4
		l-3.1,15.6c3,27.3,5.7,111,5.7,111l46.8-6.6c0.5,3.8,0.8,7.6,1.1,11.6L918.1,475z"/>
	<path id="Shade-3" class="we-are-in-office-16" d="M869.2,470.6l13-1.8c-1.8-15.4-5.2-30.6-10-45.4c0.6,8.7,0.8,17.4,0.5,26.1
		C872.3,458.9,871.1,466,869.2,470.6L869.2,470.6z"/>
	<path id="Light-3" class="we-are-in-office-17" d="M867.8,441.4l-24.6-7.5l1.5,10.7L867.8,441.4z"/>
</g>
<g>
	<g id="Head" transform="translate(48.06 27.507)">
		<path id="Head-2" class="we-are-in-office-11" d="M378.8,408.7l2.5-34.9c-4.7-4.2-8.3-9.6-8.8-16.2c-1.3-19,25.5-18.5,32-9.8
			c6.4,8.8,9.2,32.9,2.9,35.6c-2.5,1-8.4,0.2-14.6-2.5l7.1,24.8L378.8,408.7z"/>
	</g>
	<path id="hair" class="we-are-in-office-12" d="M442.8,366.2c-3-0.4-6-0.3-9,0.3c0.7-2.6,0.7-5.3,0-7.8c-0.8-2.4-2-4.6-3.5-6.6
		c-0.6-1-1.3-1.9-2.3-2.6c-0.9-0.7-2.1-1.1-3.2-1.2c-1.2-0.1-2.3,0.1-3.4,0.5c-0.5,0.2-0.9,0.5-1.4,0.7s-0.8-0.1-1.2-0.3
		c-1.1-0.6-2.3-0.9-3.5-0.8c-1.3,0-2.5,0.4-3.7,1c-1.1,0.6-2.1,1.4-2.8,2.4c-0.3,0.5-0.6,1-0.7,1.6c-0.1,0.2-0.1,0.4-0.3,0.5
		c-0.2,0.1-0.4,0.1-0.6,0.2c-1.9,1-3.4,2.7-4,4.8c-0.4,1.8-0.4,3.7,0,5.6c0.4,2.3,3.3,7.9,5.5,9.8c2.1,1.6,4.6,2.6,7.2,2.8
		c-1.3,2.1-2.2,4.5-2.6,7c-0.5,2.7-0.7,5.4-0.5,8.1c0.1,2.6,0.6,5.2,1.5,7.7c0.8,2.2,2.4,4,4.6,5c1,0.4,2,0.7,3.1,1
		c1,0.3,2.1,0.4,3.1,0.5c2,0.1,4.2-0.3,5.5-2c0.5-0.7,0.9-1.4,1.3-2.2c0.1-0.3,0.2-0.4,0-0.7c-0.3-0.2-0.6-0.4-0.9-0.6
		c-1.7-1-2.9-2.7-3.4-4.6c-0.5-2-0.3-4.8,1.5-5.9c2.3-1.5,5.2-0.6,7.6,0.3c0.3-3.4,2.1-6.5,4.8-8.6c3.1-2.1,6.9-2.9,10.1-4.8
		c0.9-0.5,1.6-1.1,2.2-1.9c0.3-0.4,0.5-0.8,0.5-1.3s-0.3-1-0.7-1.4C452,370.5,445.8,366.7,442.8,366.2z"/>
	<path id="Leg_1_" class="we-are-in-office-13" d="M430.1,506.1l63.7,110.2l47.8,93.2h10.3l-80-203.4H430.1z"/>
	<path id="shoe" class="we-are-in-office-14" d="M537.7,703.9c-0.9-0.3-1.9,0.2-2.2,1.1v0.1l-1.6,5.8c0.1,2.3,0.4,4.6,0.8,6.9H583
		c0,0,1.9-6.3-2.2-6.8s-6.7-0.9-6.7-0.9L551.6,700c-0.4-0.2-0.9,0-1.1,0.4l0,0l-1.4,3.5c0,0-3.8,1.8-6.1,1.8L537.7,703.9z"/>
	<path id="Pant" class="we-are-in-office-18" d="M528.3,694.6l19.8-6.2c0,0-13-40.3-32-88.8s-40.6-93.5-40.6-93.5h-56c0,0,24.1,57,51.2,103.6
		C488.1,639.2,507.3,667.5,528.3,694.6z"/>
	<path id="Leg-2_1_" class="we-are-in-office-11" d="M426,506.1c-6,38.7-17.6,88.2-18.7,89.8c-0.7,1-27,10.1-78.8,27.3l2.2,9.4
		c61.8-9.2,94.3-16.4,97.6-21.5c5-7.6,29.9-67.9,39.5-105L426,506.1L426,506.1z"/>
	<path id="Pant-2" class="we-are-in-office-19" d="M346.7,615l3.9,15.1c46.2,4.2,74.5,1.2,84.9-9.1s22.3-48.6,35.6-115h-53.4
		c-8.4,54.4-13.2,82.7-14.2,85C402.5,593.4,383.6,601.3,346.7,615z"/>
	<path id="shoe-2" class="we-are-in-office-14" d="M332.6,621.5c0.2-1-0.5-1.9-1.5-2c0,0,0,0-0.1,0l-6-0.6c-2.2,0.5-4.4,1.2-6.5,2l8.4,49.3
		c0,0,6.5,0.8,6.2-3.4s-0.3-7-0.3-7l6-24.7c0.1-0.5-0.2-1-0.6-1.1l0,0l-3.7-0.8c0,0-2.4-3.5-2.8-5.9L332.6,621.5z"/>
	<path id="Skin" class="we-are-in-office-13" d="M518.4,456.3l12.4-9.2c0,0,1.3-11.1,5.2-11.7c0.9-0.6,0.8,1.5,1,3.6c0.1,2,0.5,4.1,2.4,3.4
		c3.7-1.3,12-9.5,13.8-8.4c2.7,1.7,1.4,8.4-0.6,11.9c-3.8,6.6-7.4,9.1-16.6,13.1c-7.2,3.1-15,10.6-15,10.6L518.4,456.3z
		 M468.6,448.9l28.2-21c3.6-5.9,8-11.4,13-16.1c1.4-0.8,4-1.6,2.1,3.1c-1.8,4.7-3.6,9.8-2.1,10.9c0.6,0.5,1.5,0.4,2.5,0.2
		c1.2-0.2,2.6-0.4,3.6,0.7c1.2,1.3-3.8,4.5-15,9.3l-19.3,23.4L468.6,448.9z"/>
	<path id="Sleeve" class="we-are-in-office-20" d="M453.2,447.3c14.2-2.1,27.6-8.2,38.5-17.7l7.8,12.5c-9,11.9-22.6,22.5-35.5,24
		C453.7,467.2,446.8,455.6,453.2,447.3z"/>
	<path id="Clothes" class="we-are-in-office-21" d="M438.7,542.5c-10.9,0.1-21.1,0.1-26.8,2.1c-14.5-30.9,2.9-46.7,0-67.4
		c-3.2-22.6,10.1-60,12.8-60.4l24.4-3.4c3.8,17.1,13.2,35.2,21.4,53.2c18.3,1.5,55.7-18,55.7-18s12.8,19.2,13.3,28
		c-21.2,15.2-40.2,23.3-56.3,25.9c1.9,9.5,2,18.8-0.8,27.7c-2.1,6.7-9.9,9.7-19.9,11.1C455.3,542.3,446.8,542.4,438.7,542.5z"/>
	<path id="Fill_35" class="we-are-in-office-2" d="M551.9,414.9L551.9,414.9L551.9,414.9"/>
	<path id="Fill_37" class="we-are-in-office-2" d="M551.9,414.9L551.9,414.9L551.9,414.9"/>
	<path id="Fill_39" class="we-are-in-office-2" d="M552,414.8C552,414.8,551.9,414.8,552,414.8L552,414.8C551.9,415.1,551.9,414.9,552,414.8"/>
	<path id="Fill_41" class="we-are-in-office-2" d="M551.9,414.8L551.9,414.8C551.9,414.9,551.9,414.8,551.9,414.8"/>
	<path id="Fill_43" class="we-are-in-office-2" d="M551.9,414.9"/>
	<path id="Fill_45" class="we-are-in-office-2" d="M551.9,414.9L551.9,414.9"/>
	<path id="Fill_47" class="we-are-in-office-2" d="M551.9,414.9C551.9,414.9,552,414.8,551.9,414.9"/>
	<path id="Fill_49" class="we-are-in-office-2" d="M551.9,414.9L551.9,414.9L551.9,414.9"/>
	<path id="Photo_Background" class="we-are-in-office-22" d="M494.1,373.9l89.3-22.3c2.1-0.5,4.3,0.8,4.8,2.9l14,56.3c0.5,2.1-0.8,4.3-2.9,4.8
		L510,437.9c-2.1,0.5-4.3-0.8-4.8-2.9l-14-56.3C490.6,376.6,491.9,374.4,494.1,373.9z"/>
	<g id="icons8-night_landscape" transform="translate(9.058 20.093)" class="we-are-in-office-23">
		<path id="Mountains" d="M522.4,364.3l-16.6,52.6l56-14L522.4,364.3z"/>
		<path id="Mountains-2" d="M554.3,369.3l-16.4,39.6l49.5-12.3L554.3,369.3z"/>
	</g>
	<circle id="Sun" class="we-are-in-office-10" cx="571.8" cy="378" r="9.5"/>
</g>
</svg>
