<?xml version="1.0" encoding="utf-8"?>
<!-- Generator: Adobe Illustrator 23.0.3, SVG Export Plug-In . SVG Version: 6.00 Build 0)  -->
<svg xmlns="http://www.w3.org/2000/svg" xmlns:xlink="http://www.w3.org/1999/xlink" x="0px" y="0px"
	 viewBox="0 0 990.5 528.2" style="enable-background:new 0 0 990.5 528.2;" xml:space="preserve">
<style type="text/css">
	.we-are-in-office-2-0{fill:none;stroke:#CBCBCB;stroke-width:8;stroke-miterlimit:10;}
	.we-are-in-office-2-1{fill:#AFB9C5;}
	.we-are-in-office-2-2{fill:#C5CFD6;}
	.we-are-in-office-2-3{fill:#F2F2F2;}
	.we-are-in-office-2-4{fill:#C1DEE2;}
	.we-are-in-office-2-5{fill:#89C5CC;}
	.we-are-in-office-2-6{fill:#69A1AC;}
	.we-are-in-office-2-7{fill:#FFFFFF;}
	.we-are-in-office-2-8{fill:#DDE3E9;}
	.we-are-in-office-2-9{fill:#B28B67;}
	.we-are-in-office-2-10{fill:#191847;}
	.we-are-in-office-2-11{fill:#997659;}
	.we-are-in-office-2-12{fill:#E4E4E4;}
	.we-are-in-office-2-13{fill:#DB2721;}
	.we-are-in-office-2-14{fill:#FF4133;}
	.we-are-in-office-2-15{fill:#1F28CF;}
	.we-are-in-office-2-16{fill:#2B44FF;}
	.we-are-in-office-2-17{fill:#2026A2;}
</style>
<g id="Lamp" transform="translate(716.945 244.471)">
	<path id="Body" class="we-are-in-office-2-0" d="M97.6-215.9l32.5-21.8c5.5-3.7,14.3-3.7,19.8,0l86.5,58c5.3,3.5,8.2,8.3,8.2,13.3v384.2"/>
	<path id="Lamp_Base" class="we-are-in-office-2-1" d="M217.6,216.7h53c1.7,0,3,1.3,3,3v1c0,1.7-1.3,3-3,3h-53c-1.7,0-3-1.3-3-3v-1
		C214.6,218.1,216,216.7,217.6,216.7z"/>
	<g id="Lamp_Top" transform="translate(47.066 0) rotate(45)">
		<path id="Lamp-2" class="we-are-in-office-2-2" d="M-119.4-206.6L-119.4-206.6c18.2,0,33,14.8,33,33v28l0,0h-66l0,0v-28
			C-152.4-191.8-137.7-206.6-119.4-206.6z"/>

			<ellipse id="Lamp-3" transform="matrix(5.070363e-06 1 -1 5.070363e-06 -265.7354 -27.2921)" class="we-are-in-office-2-3" cx="-119.2" cy="-146.5" rx="6.5" ry="33"/>
	</g>
</g>
<g id="Plant" transform="translate(768.362 440)">
	<g id="Succulents" transform="translate(13 0)">
		<path id="Thi_Succs_" class="we-are-in-office-2-4" d="M41.7-253.6c8.8,21,23.8,35.6,31.8,57.4c4.7,12.9,6.7,27,6.8,41.4c0.1,7.8-0.1,15.7-0.1,23.5
			c0,7.6-0.2,15.2-0.9,22.8c-0.7,7.6-1.4,15.2-1.7,22.8c-0.3,6-0.4,12.9-2.4,18.4c-1.6,4.3-5.7,5-6.8-0.3c-0.5-3-0.6-6.1-0.5-9.2
			c0.1-3.9,0.3-7.7,0.4-11.6c0.5-15.5-0.1-30.9,0.2-46.4c0.3-15.1,2.2-30.2,0.1-45.2c-1.8-12.4-6.3-23.1-11.5-33.3
			c-5-9.8-10.4-19.4-13.8-30.6c-1-3.3-1.7-6.6-2.1-10C41.5-253.8,41.6-253.8,41.7-253.6z"/>
		<path id="Thi_Succs_2" class="we-are-in-office-2-5" d="M39.3-212.2c1.7,1.3,2.7,3.1,3.9,4.9c1.5,2.3,3.2,4.3,4.7,6.6c3.1,4.7,5.8,9.7,8.5,14.7
			c5.4,9.3,9.3,19.5,11.3,30.1c2.1,11.2,2.6,22.8,3.5,34.1c0.9,12,1.8,24.2,2,36.3c0.1,5.4,0.3,11.2-0.3,16.5
			c-0.4,3.3-1.9,6.2-5.3,6.2c-7.2-0.1-10.6-8.1-12.1-14.6c-2.1-9.7-2.5-20-2.2-29.9c0.4-11.9,2.5-23.7,3.4-35.6
			c0.9-12.6,0.4-25-3.9-36.8c-2.2-6-4.7-11.8-7-17.8c-0.8-2.6-1.9-5.1-3.1-7.5c-1.5-2.6-3.3-5-4.4-7.8L39.3-212.2z"/>
		<path id="Thi_Succs_3" class="we-are-in-office-2-4" d="M122.7-237.3l0.7-0.5c-0.7,2.5-1.6,4.9-2.7,7.3c-0.7,2.3-1.3,4.7-1.7,7.1
			c-1.3,5.7-2.7,11.2-3.9,17c-2.3,11.3-1.9,23.6-0.4,36.1c1.5,11.9,3.8,23.7,4.8,35.6c1,9.8,1.2,19.6,0.4,29.4
			c-0.6,6.4-2.5,14-7.8,13.4c-2.5-0.3-3.8-3.3-4.3-6.6c-0.8-5.4-1-11.1-1.3-16.4c-0.7-12-0.9-23.9-1-35.8
			c-0.1-11.2-0.5-22.6,0.2-33.5c0.7-9.8,2.8-19.5,6.2-28.8c1.7-4.6,3.3-9.3,5.2-13.7c0.9-2.1,2-4,2.9-6.1
			C120.9-234.5,121.5-236.2,122.7-237.3z"/>
		<path id="Thi_Succs_4" class="we-are-in-office-2-4" d="M41.5-177.5c1-1.6,3.1,3.7,3.4,4.4c-0.1-0.3-0.3-0.7-0.4-1c2,3.1,3.6,6.5,4.7,10.1
			s2,7.2,3,10.9c1.9,6.8,4.3,13.4,6,20.2c1.6,6.6,2.2,13.4,1.7,20.1c-0.5,7.2-0.6,14.4-0.2,21.6c0.2,3.4,1.3,6.6,2.1,9.9
			c0.8,3.3,1.4,6.6,2.3,9.9c0.2-0.4,0.2,1,0.2,1.1c0,0.8-0.1,1.5-0.4,2.3c-0.5,2-1.9,3.5-3.8,4.2c-3.5,1-6.7-2.2-7.8-5.5
			c-1.5-4.9-2.6-9.9-3.2-15c-0.7-4.6-0.9-9.2-0.7-13.9c0.4-9.2,2.1-18.2,2.5-27.4c0.5-10-1.5-19.4-3.1-29.1
			c-0.7-4.7-1.7-9.3-3.1-13.8c-0.6-1.7-1.4-3.4-2.3-5.1C41.9-174.7,40.9-176.4,41.5-177.5z"/>
		<path id="Thi_Succs_5" class="we-are-in-office-2-6" d="M69.6-193.1c-0.4,11.4-1.1,22.8-2.6,34.1c-1.6,11.6-3.3,23.1-4.8,34.6
			c-1.5,11.3-3,22.7-2.8,34.1c0.1,8.4-1.2,22.6,8.1,26.8C77-59.3,79-77.2,79.6-83.2c1.2-11.4,0.8-22.9,0.2-34.3
			c-0.6-11.7-1.6-23.4-2.8-35.1c-1.4-13-2.4-26-3.3-39c-0.4-6.4-0.5-12.9-0.4-19.3c0.1-6.1-0.1-12.2-2.3-18l-0.3,0.2"/>
		<path id="Thi_Succs_6" class="we-are-in-office-2-5" d="M118.4-156.8c-1.7,2.5-3.4,4.9-5,7.6c-2.9,4.7-5.5,9.9-6.3,16.6c-1.6,14.1-0.3,29.2,0,43.7
			c0.1,3-0.3,5.8,0.9,8.6c1.1,2.6,3,4.5,4.9,4.5c4,0,3.4-9.9,3.4-14.3c0-7.6-0.8-15.3-0.8-22.9c0-7.5,0.6-14.9,1.6-22.3
			c1-7,2.7-14,4.9-20.7c0.3-0.9,2.4-7.9,0.4-6.7"/>
		<path id="Thi_Succs_7" class="we-are-in-office-2-6" d="M100.6-231.8c-2.7,0-2.6,13.2-2.7,14.9c-0.3,6.1-0.2,12.3-0.4,18.4
			c-0.4,13.4-0.9,26.9-2.9,40.1c-1.1,7.1-2.3,14.2-3.7,21.3c-1.4,7.1-3.2,14.2-4.1,21.3c-0.9,6.9-0.4,13.9-0.3,20.9
			c0,7,0.4,13.9,1.2,20.9c0.2,1.7,0.5,3.4,0.8,5.1c0.1,1.5,0.2,3,0.5,4.5c0.6,2.2,3.4,2.9,5.2,2.5c5-0.9,8.2-7.2,9.9-11.8
			c2.2-5.8,3.3-12.2,4.5-18.4c1.3-7,2.1-14.1,2.4-21.2c0.7-14.4-0.2-28.9-1.2-43.3c-0.6-8-1.2-16-2.3-23.9c-1-7.9-2.3-15.8-3.2-23.8
			c-0.6-5.8-1.2-11.6-1.6-17.4C102.7-222.9,102.6-231.8,100.6-231.8"/>
		<path id="Thi_Succs_8" class="we-are-in-office-2-5" d="M97.3-135.7c-0.4-13.9-6-74.9-7.3-91.7c-0.3-4.2-3.4-21.7-3.8-26.5c-1.1,1.3-1,22.3-1,27.1
			s-0.6,9.4-0.9,14.2c-0.3,4.8-7.5,67.3-8.4,71.9c-1.8,9.2-3.1,18.7-4,28.2c-0.9,9.2-2.4,18.9-1.1,28.2c0.3,2.1,0.8,4.2,1.5,6.2
			c0.8,2.1,1.3,4.1,2,6.3c1,3.6,2.9,6.7,5.7,8.2c5.8,3,9-3.8,10.6-9.8c2.5-9.5,4.2-19.3,4.9-29.1C96.4-113.5,97.6-124.5,97.3-135.7"
			/>
	</g>
	<g id="Planter" transform="translate(0 159)">
		<path id="Vase" class="we-are-in-office-2-7" d="M50.3-253.8h87c1.1,0,2,0.9,2,2v87c0,1.1-0.9,2-2,2h-87c-1.1,0-2-0.9-2-2v-87
			C48.3-252.9,49.2-253.8,50.3-253.8z"/>
		<path id="Leg" class="we-are-in-office-2-2" d="M40.3-243.8h6c1.1,0,2,0.9,2,2v109c0,1.1-0.9,2-2,2h-6c-1.1,0-2-0.9-2-2v-109
			C38.3-242.9,39.2-243.8,40.3-243.8z"/>
		<path id="Leg-2" class="we-are-in-office-2-2" d="M90.3-243.8h6c1.1,0,2,0.9,2,2v109c0,1.1-0.9,2-2,2h-6c-1.1,0-2-0.9-2-2v-109
			C88.3-242.9,89.2-243.8,90.3-243.8z"/>
		<path id="Leg-3" class="we-are-in-office-2-2" d="M141.3-243.8h6c1.1,0,2,0.9,2,2v109c0,1.1-0.9,2-2,2h-6c-1.1,0-2-0.9-2-2v-109
			C139.3-242.9,140.2-243.8,141.3-243.8z"/>
	</g>
</g>
<g id="Mobile3-2" transform="translate(229.199 95.331)">
	<g id="Group" transform="translate(0 218)">
		<path id="Fill_16-2" class="we-are-in-office-2-5" d="M31.8-86.9c-0.9,0-1.7,0-2.6,0.1c-0.7,0-1.7-0.1-2.2,0.3c-0.6,0.4-0.5,1.3-0.5,1.9
			c0.5,3.3,1.7,6.2,4.1,8.6c3.8,3.6,8.2,5.4,13.3,6.2c3.6,0.6,7-0.2,9.6-2.8c2,3.7,3.4,7.6,4.2,11.7c0.4,2,0.5,4,0.4,6
			c0,1.3-0.1,2.6-0.3,3.9c-0.1,0.6-0.3,1.4-0.1,1.9c0.2,0.4,0.7,0.6,1.2,0.4c0.1-0.1,0.3-0.2,0.3-0.3c0.3-0.4,0.3-1.3,0.3-1.8
			c0.1-0.9,0.2-1.7,0.3-2.6c0.1-1.4,0.2-2.8,0.2-4.3c-0.1-3.2-0.7-6.4-1.7-9.4c-1.9-5.8-4.9-11-9.6-15c-2.9-2.5-6.2-3.5-10-4
			C36.6-86.6,34.2-86.8,31.8-86.9"/>
		<path id="Fill_18" class="we-are-in-office-2-5" d="M45.3-63.8c-9.5,0-15.8,7.6-18.8,15.5c-1.1,3-1.4,6.3-1.8,9.4c-0.1,1-0.1,2.5-0.5,3.4
			c-0.1,0.3-0.5,0.4-0.3,0.9c0.1,0.3,0.3,0.4,0.6,0.5c0.6,0.1,1.4-0.5,1.9-0.8c4.2-2.1,7-5.4,9.3-9.4c1.5-2.5,2.7-5.1,3.7-7.8
			c0.5-1.7,0.8-3.4,1-5.2c0.1-0.7,0.1-1.4,0.1-2.1c-0.1-0.6-0.3-1.1-0.5-1.6c3.2-1.2,6.7-1.5,9.9-0.3c2.9,1.1,5.4,3.3,6.8,6.1
			c0.4,0.7,0.6,1.5,0.8,2.3c0.1,0.6,0.2,1.1,0.4,1.6c0.6,1.1,1.8,0.4,1.7-0.7c-0.4-3-1.9-5.7-4.1-7.8C52.7-62.2,49.1-63.7,45.3-63.8
			"/>
	</g>
	<path id="Container-2" class="we-are-in-office-2-8" d="M60.8-13h94.5c2.9,0,5.3,2.4,5.3,5.3v189c0,2.9-2.4,5.3-5.3,5.3H60.8c-2.9,0-5.3-2.4-5.3-5.3
		v-189C55.5-10.6,57.9-13,60.8-13z"/>
	<circle id="Touch-2" class="we-are-in-office-2-7" cx="107.8" cy="164.1" r="9.9"/>
	<g id="Camera-2" transform="translate(112 16)">
		<circle id="Lens-2" class="we-are-in-office-2-7" cx="-12.8" cy="-17.1" r="1.3"/>
		<path id="Sensor-2" class="we-are-in-office-2-7" d="M-6.9-18.4H4.3c0.7,0,1.3,0.6,1.3,1.3l0,0c0,0.7-0.6,1.3-1.3,1.3H-6.9c-0.7,0-1.3-0.6-1.3-1.3
			l0,0C-8.2-17.8-7.6-18.4-6.9-18.4z"/>
	</g>
	<g id="Rows-2" transform="translate(62 28)">
		<g id="Row-5">
			<path id="Container-3" class="we-are-in-office-2-7" d="M5.4-22.5h81.3c1.5,0,2.6,1.2,2.6,2.6v30.4c0,1.5-1.2,2.6-2.6,2.6H5.4
				c-1.5,0-2.6-1.2-2.6-2.6v-30.4C2.8-21.3,4-22.5,5.4-22.5z"/>
			<g id="Text_Stuff" transform="translate(9 16.2)">
				<path id="Label" class="we-are-in-office-2-8" d="M1.7-28H46c1.1,0,2,0.9,2,2v1.4c0,1.1-0.9,2-2,2H1.7c-1.1,0-2-0.9-2-2V-26
					C-0.3-27.1,0.6-28,1.7-28z"/>
				<path id="Label-2" class="we-are-in-office-2-8" d="M1.7-19.1h28.4c1.1,0,2,0.9,2,2v1.4c0,1.1-0.9,2-2,2H1.7c-1.1,0-2-0.9-2-2v-1.4
					C-0.3-18.2,0.6-19.1,1.7-19.1z"/>
			</g>
			<g id="Check" transform="translate(110 20)">
				<circle id="Background-5" class="we-are-in-office-2-8" cx="-29.9" cy="-24.7" r="4.6"/>
				<circle id="Indicator" class="we-are-in-office-2-3" cx="-29.9" cy="-24.7" r="2"/>
			</g>
		</g>
		<g id="Row-6" transform="translate(0 62)">
			<path id="Background-6" class="we-are-in-office-2-7" d="M5.4-43.5h81.3c1.5,0,2.6,1.2,2.6,2.6v22.5c0,1.5-1.2,2.6-2.6,2.6H5.4
				c-1.5,0-2.6-1.2-2.6-2.6v-22.5C2.8-42.3,4-43.5,5.4-43.5z"/>
			<g id="Text-5" transform="translate(39 12.6)">
				<path id="Name-9" class="we-are-in-office-2-8" d="M-8.4-47.8h44.3c1.1,0,2,0.9,2,2v0.2c0,1.1-0.9,2-2,2H-8.4c-1.1,0-2-0.9-2-2v-0.2
					C-10.4-46.9-9.5-47.8-8.4-47.8z"/>
				<path id="Name-10" class="we-are-in-office-2-8" d="M-8.4-40.9H20c1.1,0,2,0.9,2,2v0.2c0,1.1-0.9,2-2,2H-8.4c-1.1,0-2-0.9-2-2v-0.2
					C-10.4-40-9.5-40.9-8.4-40.9z"/>
			</g>
			<circle id="Avatar-5" class="we-are-in-office-2-2" cx="16.7" cy="-29.6" r="7.9"/>
		</g>
		<g id="Row-7" transform="translate(0 112)">
			<path id="Container-4" class="we-are-in-office-2-7" d="M5.4-60.5h81.3c1.5,0,2.6,1.2,2.6,2.6v22.5c0,1.5-1.2,2.6-2.6,2.6H5.4
				c-1.5,0-2.6-1.2-2.6-2.6v-22.5C2.8-59.3,4-60.5,5.4-60.5z"/>
			<g id="Text_Stuff-2" transform="translate(9 12.6)">
				<path id="Label-3" class="we-are-in-office-2-8" d="M1.7-64.7H46c1.1,0,2,0.9,2,2v0.2c0,1.1-0.9,2-2,2H1.7c-1.1,0-2-0.9-2-2v-0.2
					C-0.3-63.9,0.6-64.7,1.7-64.7z"/>
				<path id="Label-4" class="we-are-in-office-2-1" d="M1.7-57.8h28.4c1.1,0,2,0.9,2,2v0.2c0,1.1-0.9,2-2,2H1.7c-1.1,0-2-0.9-2-2v-0.2
					C-0.3-56.9,0.6-57.8,1.7-57.8z"/>
			</g>
			<g id="Check-2" transform="translate(110 14)">
				<circle id="Background-7" class="we-are-in-office-2-8" cx="-29.9" cy="-60.6" r="4.6"/>
				<circle id="Indicator-2" class="we-are-in-office-2-3" cx="-29.9" cy="-60.6" r="2"/>
			</g>
		</g>
		<g id="Row-8" transform="translate(0 162)">
			<path id="Background-8" class="we-are-in-office-2-7" d="M5.4-77.4h81.3c1.5,0,2.6,1.2,2.6,2.6v22.5c0,1.5-1.2,2.6-2.6,2.6H5.4
				c-1.5,0-2.6-1.2-2.6-2.6v-22.5C2.8-76.2,4-77.4,5.4-77.4z"/>
			<g id="Text-6" transform="translate(39 12.6)">
				<path id="Name-11" class="we-are-in-office-2-8" d="M-8.4-81.7h44.3c1.1,0,2,0.9,2,2v0.2c0,1.1-0.9,2-2,2H-8.4c-1.1,0-2-0.9-2-2v-0.2
					C-10.4-80.8-9.5-81.7-8.4-81.7z"/>
				<path id="Name-12" class="we-are-in-office-2-8" d="M-8.4-74.8H20c1.1,0,2,0.9,2,2v0.2c0,1.1-0.9,2-2,2H-8.4c-1.1,0-2-0.9-2-2v-0.2
					C-10.4-73.9-9.5-74.8-8.4-74.8z"/>
			</g>
			<circle id="Avatar-6" class="we-are-in-office-2-2" cx="16.7" cy="-63.5" r="7.9"/>
		</g>
	</g>
</g>
<g id="Web" transform="translate(442.929 157.042)">
	<path id="Container-5" class="we-are-in-office-2-3" d="M26.6-23.9h210.9c2.9,0,5.3,2.4,5.3,5.3v218.1c0,2.9-2.4,5.3-5.3,5.3H26.6
		c-2.9,0-5.3-2.4-5.3-5.3V-18.6C21.4-21.6,23.7-23.9,26.6-23.9z"/>
	<path id="Background-9" class="we-are-in-office-2-7" d="M191.2,4.5h35.7c2.9,0,5.3,2.4,5.3,5.3v43c0,2.9-2.4,5.3-5.3,5.3h-35.7
		c-2.9,0-5.3-2.4-5.3-5.3v-43C185.9,6.9,188.3,4.5,191.2,4.5z"/>
	<g id="Profile_Info" transform="translate(259 58)">
		<circle id="Avatar-7" class="we-are-in-office-2-8" cx="-49.9" cy="-33" r="10.6"/>
		<path id="Name-13" class="we-are-in-office-2-8" d="M-64.5-19.8h29.1c1.1,0,2,0.9,2,2l0,0c0,1.1-0.9,2-2,2h-29.1c-1.1,0-2-0.9-2-2l0,0
			C-66.4-18.9-65.6-19.8-64.5-19.8z"/>
		<path id="Name-14" class="we-are-in-office-2-8" d="M-59.2-13.2h18.5c1.1,0,2,0.9,2,2l0,0c0,1.1-0.9,2-2,2h-18.5c-1.1,0-2-0.9-2-2l0,0
			C-61.2-12.3-60.3-13.2-59.2-13.2z"/>
	</g>
	<path id="Header" class="we-are-in-office-2-2" d="M26.6-23.9h210.9c2.9,0,5.3,2.4,5.3,5.3v12.6l0,0H21.4l0,0v-12.6C21.4-21.6,23.7-23.9,26.6-23.9z"
		/>
	<g id="Buttons" transform="translate(9 10)">
		<circle id="buttons-2" class="we-are-in-office-2-3" cx="20.9" cy="-24.7" r="2.6"/>
		<circle id="buttons-3" class="we-are-in-office-2-3" cx="28.9" cy="-24.7" r="2.6"/>
		<circle id="buttons-4" class="we-are-in-office-2-3" cx="36.8" cy="-24.7" r="2.6"/>
	</g>
	<g id="Components" transform="translate(249 132)">
		<path id="Background-10" class="we-are-in-office-2-7" d="M-57.8-68.7h35.7c2.9,0,5.3,2.4,5.3,5.3V54.3c0,2.9-2.4,5.3-5.3,5.3h-35.7
			c-2.9,0-5.3-2.4-5.3-5.3V-63.4C-63.1-66.3-60.7-68.7-57.8-68.7z"/>
		<g id="Rows-3" transform="translate(18 18)">
			<path id="Data" class="we-are-in-office-2-8" d="M-66.5-74.8h17.2c1.5,0,2.6,1.2,2.6,2.6v11.9c0,1.5-1.2,2.6-2.6,2.6h-17.2c-1.5,0-2.6-1.2-2.6-2.6
				v-11.9C-69.2-73.6-68-74.8-66.5-74.8z"/>
			<path id="Data-2" class="we-are-in-office-2-1" d="M-66.5-52.3h17.2c1.5,0,2.6,1.2,2.6,2.6v11.2c0,1.5-1.2,2.6-2.6,2.6h-17.2
				c-1.5,0-2.6-1.2-2.6-2.6v-11.2C-69.2-51.1-68-52.3-66.5-52.3z"/>
			<path id="Data-3" class="we-are-in-office-2-8" d="M-66.5-30.5h17.2c1.5,0,2.6,1.2,2.6,2.6v11.2c0,1.5-1.2,2.6-2.6,2.6h-17.2
				c-1.5,0-2.6-1.2-2.6-2.6v-11.2C-69.2-29.3-68-30.5-66.5-30.5z"/>
			<path id="Data-4" class="we-are-in-office-2-8" d="M-66.5,13.1h17.2c1.5,0,2.6,1.2,2.6,2.6V27c0,1.5-1.2,2.6-2.6,2.6h-17.2c-1.5,0-2.6-1.2-2.6-2.6
				V15.8C-69.2,14.3-68,13.1-66.5,13.1z"/>
			<path id="Data-5" class="we-are-in-office-2-2" d="M-66.5-8.7h17.2c1.5,0,2.6,1.2,2.6,2.6V5.2c0,1.5-1.2,2.6-2.6,2.6h-17.2c-1.5,0-2.6-1.2-2.6-2.6
				V-6C-69.2-7.5-68-8.7-66.5-8.7z"/>
		</g>
	</g>
	<g id="Rows-4" transform="translate(16 44)">
		<g id="Row-9">
			<path id="Container-6" class="we-are-in-office-2-7" d="M18.6-38.8H162c1.5,0,2.6,1.2,2.6,2.6v25.8c0,1.5-1.2,2.6-2.6,2.6H18.6
				c-1.5,0-2.6-1.2-2.6-2.6v-25.8C15.9-37.7,17.1-38.8,18.6-38.8z"/>
			<g id="Text_Stuff-3" transform="translate(9 14.1)">
				<path id="Label-5" class="we-are-in-office-2-8" d="M14.9-43.6h106.4c1.1,0,2,0.9,2,2v0.7c0,1.1-0.9,2-2,2H14.9c-1.1,0-2-0.9-2-2v-0.7
					C12.9-42.7,13.8-43.6,14.9-43.6z"/>
				<path id="Label-6" class="we-are-in-office-2-8" d="M14.9-35.9H85c1.1,0,2,0.9,2,2v0.7c0,1.1-0.9,2-2,2H14.9c-1.1,0-2-0.9-2-2v-0.7
					C12.9-35,13.8-35.9,14.9-35.9z"/>
			</g>
			<g id="Check-3" transform="translate(193.954 16.5)">
				<circle id="Background-11" class="we-are-in-office-2-8" cx="-45.2" cy="-39.8" r="4.6"/>
				<circle id="Indicator-3" class="we-are-in-office-2-3" cx="-45.2" cy="-39.8" r="2"/>
			</g>
		</g>
		<g id="Row-10" transform="translate(0 55)">
			<path id="Container-7" class="we-are-in-office-2-7" d="M18.6-57.5H162c1.5,0,2.6,1.2,2.6,2.6v20.5c0,1.5-1.2,2.6-2.6,2.6H18.6
				c-1.5,0-2.6-1.2-2.6-2.6v-20.5C15.9-56.3,17.1-57.5,18.6-57.5z"/>
			<g id="Text_Stuff-4" transform="translate(9 11.7)">
				<path id="Label-7" class="we-are-in-office-2-8" d="M14.8-61.5h106.5c1.1,0,1.9,0.9,1.9,1.9l0,0c0,1.1-0.9,1.9-1.9,1.9H14.8
					c-1.1,0-1.9-0.9-1.9-1.9l0,0C12.9-60.6,13.7-61.5,14.8-61.5z"/>
				<path id="Label-8" class="we-are-in-office-2-8" d="M14.8-55H85c1.1,0,1.9,0.9,1.9,1.9l0,0c0,1.1-0.9,1.9-1.9,1.9H14.8c-1.1,0-1.9-0.9-1.9-1.9
					l0,0C12.9-54.1,13.7-55,14.8-55z"/>
			</g>
			<g id="Check-4" transform="translate(193.954 12.5)">
				<circle id="Background-12" class="we-are-in-office-2-8" cx="-45.2" cy="-57.1" r="4.6"/>
				<circle id="Indicator-4" class="we-are-in-office-2-3" cx="-45.2" cy="-57.1" r="2"/>
			</g>
		</g>
		<g id="Row-11" transform="translate(0 102)">
			<path id="Container-8" class="we-are-in-office-2-7" d="M18.6-73.4H162c1.5,0,2.6,1.2,2.6,2.6v20.5c0,1.5-1.2,2.6-2.6,2.6H18.6
				c-1.5,0-2.6-1.2-2.6-2.6v-20.5C15.9-72.2,17.1-73.4,18.6-73.4z"/>
			<g id="Text_Stuff-5" transform="translate(9 11.7)">
				<path id="Label-9" class="we-are-in-office-2-8" d="M14.8-77.4h106.5c1.1,0,1.9,0.9,1.9,1.9l0,0c0,1.1-0.9,1.9-1.9,1.9H14.8
					c-1.1,0-1.9-0.9-1.9-1.9l0,0C12.9-76.5,13.7-77.4,14.8-77.4z"/>
				<path id="Label-10" class="we-are-in-office-2-8" d="M14.8-70.9H85c1.1,0,1.9,0.9,1.9,1.9l0,0c0,1.1-0.9,1.9-1.9,1.9H14.8c-1.1,0-1.9-0.9-1.9-1.9
					l0,0C12.9-70.1,13.7-70.9,14.8-70.9z"/>
			</g>
			<g id="Check-5" transform="translate(193.954 12.5)">
				<circle id="Background-13" class="we-are-in-office-2-8" cx="-45.2" cy="-73" r="4.6"/>
				<circle id="Indicator-5" class="we-are-in-office-2-1" cx="-45.2" cy="-73" r="2"/>
			</g>
		</g>
		<g id="Row-12" transform="translate(0 243)">
			<path id="Container-9" class="we-are-in-office-2-7" d="M18.6-121.2H162c1.5,0,2.6,1.2,2.6,2.6v20.5c0,1.5-1.2,2.6-2.6,2.6H18.6
				c-1.5,0-2.6-1.2-2.6-2.6v-20.5C15.9-120,17.1-121.2,18.6-121.2z"/>
			<g id="Text_Stuff-6" transform="translate(9 11.7)">
				<path id="Label-11" class="we-are-in-office-2-8" d="M14.8-125.2h106.5c1.1,0,1.9,0.9,1.9,1.9l0,0c0,1.1-0.9,1.9-1.9,1.9H14.8
					c-1.1,0-1.9-0.9-1.9-1.9l0,0C12.9-124.3,13.7-125.2,14.8-125.2z"/>
				<path id="Label-12" class="we-are-in-office-2-8" d="M14.8-118.7H85c1.1,0,1.9,0.9,1.9,1.9l0,0c0,1.1-0.9,1.9-1.9,1.9H14.8
					c-1.1,0-1.9-0.9-1.9-1.9l0,0C12.9-117.9,13.7-118.7,14.8-118.7z"/>
			</g>
			<g id="Check-6" transform="translate(193.954 12.5)">
				<circle id="Background-14" class="we-are-in-office-2-8" cx="-45.2" cy="-120.8" r="4.6"/>
				<circle id="Indicator-6" class="we-are-in-office-2-3" cx="-45.2" cy="-120.8" r="2"/>
			</g>
		</g>
		<g id="Row-13" transform="translate(0 196)">
			<path id="Container-10" class="we-are-in-office-2-7" d="M18.6-105.3H162c1.5,0,2.6,1.2,2.6,2.6v20.5c0,1.5-1.2,2.6-2.6,2.6H18.6
				c-1.5,0-2.6-1.2-2.6-2.6v-20.5C15.9-104.1,17.1-105.3,18.6-105.3z"/>
			<g id="Text_Stuff-7" transform="translate(9 11.7)">
				<path id="Label-13" class="we-are-in-office-2-8" d="M14.8-109.3h106.5c1.1,0,1.9,0.9,1.9,1.9l0,0c0,1.1-0.9,1.9-1.9,1.9H14.8
					c-1.1,0-1.9-0.9-1.9-1.9l0,0C12.9-108.4,13.7-109.3,14.8-109.3z"/>
				<path id="Label-14" class="we-are-in-office-2-8" d="M14.8-102.8H85c1.1,0,1.9,0.9,1.9,1.9l0,0c0,1.1-0.9,1.9-1.9,1.9H14.8
					c-1.1,0-1.9-0.9-1.9-1.9l0,0C12.9-101.9,13.7-102.8,14.8-102.8z"/>
			</g>
			<g id="Check-7" transform="translate(193.954 12.5)">
				<circle id="Background-15" class="we-are-in-office-2-8" cx="-45.2" cy="-104.9" r="4.6"/>
				<circle id="Indicator-7" class="we-are-in-office-2-3" cx="-45.2" cy="-104.9" r="2"/>
			</g>
		</g>
		<g id="Row-14" transform="translate(0 149)">
			<path id="Container-11" class="we-are-in-office-2-7" d="M18.6-89.4H162c1.5,0,2.6,1.2,2.6,2.6v20.5c0,1.5-1.2,2.6-2.6,2.6H18.6
				c-1.5,0-2.6-1.2-2.6-2.6v-20.5C15.9-88.2,17.1-89.4,18.6-89.4z"/>
			<g id="Text_Stuff-8" transform="translate(9 11.7)">
				<path id="Label-15" class="we-are-in-office-2-8" d="M14.8-93.3h106.5c1.1,0,1.9,0.9,1.9,1.9l0,0c0,1.1-0.9,1.9-1.9,1.9H14.8
					c-1.1,0-1.9-0.9-1.9-1.9l0,0C12.9-92.5,13.7-93.3,14.8-93.3z"/>
				<path id="Label-16" class="we-are-in-office-2-8" d="M14.8-86.9H85c1.1,0,1.9,0.9,1.9,1.9l0,0c0,1.1-0.9,1.9-1.9,1.9H14.8c-1.1,0-1.9-0.9-1.9-1.9
					l0,0C12.9-86,13.7-86.9,14.8-86.9z"/>
			</g>
			<g id="Check-8" transform="translate(193.954 12.5)">
				<circle id="Background-16" class="we-are-in-office-2-8" cx="-45.2" cy="-89" r="4.6"/>
				<circle id="Indicator-8" class="we-are-in-office-2-3" cx="-45.2" cy="-89" r="2"/>
			</g>
		</g>
	</g>
</g>
<g id="Image" transform="translate(104.256 7.349)">
	<path id="Fill_35_1_" class="we-are-in-office-2-2" d="M7.9,61.2C7.9,61.2,7.9,61.2,7.9,61.2C7.9,61.2,7.9,61.2,7.9,61.2"/>
	<path id="Fill_37_1_" class="we-are-in-office-2-2" d="M7.9,61.2C7.9,61.2,7.9,61.2,7.9,61.2C7.9,61.2,7.9,61.2,7.9,61.2"/>
	<path id="Fill_39_1_" class="we-are-in-office-2-2" d="M7.9,61.1C7.9,61.1,7.9,61.1,7.9,61.1C7.9,61.1,7.9,61.1,7.9,61.1C7.8,61.5,7.9,61.2,7.9,61.1
		"/>
	<path id="Fill_41_1_" class="we-are-in-office-2-2" d="M7.9,61.2L7.9,61.2C7.9,61.3,7.9,61.2,7.9,61.2"/>
	<path id="Fill_43_1_" class="we-are-in-office-2-2" d="M7.9,61.2L7.9,61.2L7.9,61.2z"/>
	<path id="Fill_45_1_" class="we-are-in-office-2-2" d="M7.9,61.2L7.9,61.2L7.9,61.2"/>
	<path id="Fill_47_1_" class="we-are-in-office-2-2" d="M7.9,61.2C7.9,61.2,7.9,61.1,7.9,61.2"/>
	<path id="Fill_49_1_" class="we-are-in-office-2-2" d="M7.9,61.2L7.9,61.2L7.9,61.2"/>
	<path id="Photo_Background_1_" class="we-are-in-office-2-8" d="M-21.2,26.8h57.5c1.5,0,2.6,1.2,2.6,2.6v36.4c0,1.5-1.2,2.6-2.6,2.6h-57.5
		c-1.5,0-2.6-1.2-2.6-2.6V29.5C-23.8,28-22.7,26.8-21.2,26.8z"/>
	<g id="icons8-night_landscape_1_" transform="translate(8 18)">
		<path id="Mountains_1_" class="we-are-in-office-2-1" d="M-8,20.7l-18.5,29.7h37L-8,20.7z"/>
		<path id="Mountains-2_1_" class="we-are-in-office-2-2" d="M10.1,28.6L-6.1,50.5h32.4L10.1,28.6z"/>
	</g>
	<circle id="Sun_1_" class="we-are-in-office-2-7" cx="25.1" cy="40.7" r="5.9"/>
</g>
<g>
	<path id="Head-6_1_" class="we-are-in-office-2-9" d="M595.2,251.4l-5.1-26.8c2.8-3.8,4.7-8.4,4.4-13.6c-0.9-14.9-19.2-11.6-22.7-4.1
		s-3.1,26.6,1.5,28c1.8,0.5,5.7-0.8,9.7-3.5l-2.5,20H595.2z"/>
	<path id="hair-2_1_" class="we-are-in-office-2-10" d="M580.2,195.3c1.9-0.3,7.2-0.5,8.1-0.5c0.6,0,1.3,0.1,1.6-0.4c0.3-0.5,0.2-1.2,0.3-1.8
		c0.1-0.6,0.3-1.2,0.4-1.9c0.4-1.7,1.1-3.4,2-5c1.6-2.9,4.2-5.2,7.2-6.6c3.5-1.4,7.3-1.9,11-1.5c3.9,0.3,7.5,1.6,11.2,2.8
		c3.5,1.2,7.3,1.6,11,1.1c3.7-0.6,6.6-2.6,9.7-4.5c3.2-2,6.9-3.3,10.7-3c3.5,0.4,6.9,1.7,9.8,3.7c2.8,1.8,5,4.1,6.3,7.2
		c1.4,3.4,1.4,7-0.9,10c-3.3,4.3-9.4,5.4-14.5,5.3c-2.9-0.1-5.8-0.6-8.6-1.6c-3.7-1.3-6.9-3.5-10.4-5.3c-1.6-0.8-3.3-1.5-5.1-2
		c-1.7-0.5-3.4-0.7-4.9,0.3c-1.5,1.2-3.2,2.1-5,2.9c-1.8,0.7-3.7,1-5.6,1c-3.7,0-7.4-1.2-11-2c-3-0.6-6.1-1.3-9.1-0.7
		c-1.3,0.3-3.1,0.8-3.5,2.1c7.6,1.4,10.6,10.8,8.5,17.8c-1.2,3.7-8.1,8.1-10.9,6.1c-1.7-1.2-0.7-2.9,0-4c1.3-2.1,1.7-4.7-0.7-6.2
		c-2.1-1.2-4.2,1.7-4.3,1.7c-0.6,0-5.5-2.8-8.9-6.9c-3.3,0.2-3.8-2-3-3.8C572.5,198,577.5,195.8,580.2,195.3z"/>
</g>
<g id="Bottom-2" transform="translate(415 212)">
	<path id="Leg_2_" class="we-are-in-office-2-11" d="M199.4,120.9L165,212.4l-16.7,77.8h-13.1l17.6-169.4H199.4z"/>
	<path id="Leg-2_2_" class="we-are-in-office-2-9" d="M211.7,120.9c-2.3,50.3,0.4,76.2,0.9,80.7c0.5,4.6,7.7,34.2,24.6,90.2l-13.9-3.9
		c-26.8-51.3-35.9-78-39-84.8c-3.1-6.7-11.2-34.2-24.5-82.2H211.7z"/>
	<path id="shoe-3_2_" class="we-are-in-office-2-12" d="M142.6,286.8c-1.7,0-4.4-1.5-4.4-1.5l-1-3c0,0,0,0,0,0c-0.1-0.4-0.5-0.5-0.8-0.4l-16,8.7
		c0,0-1.9,0.3-4.8,0.8c-2.9,0.4-1.6,5.8-1.6,5.8h34.5c0.3-1.9,0.5-3.9,0.6-5.9l-1.2-5c0,0,0-0.1,0-0.1c-0.2-0.8-0.9-1.2-1.5-0.9
		L142.6,286.8z"/>
	<path id="shoe-4_2_" class="we-are-in-office-2-12" d="M232,287.9c-1.5,0-3.8-1.5-3.8-1.5l-0.9-3c0,0,0,0,0,0c-0.1-0.4-0.4-0.5-0.7-0.4l-14.1,8.7
		c0,0-1.7,0.3-4.2,0.8c-2.5,0.4-1.4,5.8-1.4,5.8h30.2c0.2-1.9,0.4-3.9,0.5-5.9l-1-5c0,0,0-0.1,0-0.1c-0.2-0.8-0.8-1.2-1.4-0.9
		L232,287.9z"/>
	<path id="Bottom-3_1_" class="we-are-in-office-2-6" d="M204,120.9l-14.6,46.6h-44.7l6.7-46.6H204z"/>
	<path id="Bottom-4_1_" class="we-are-in-office-2-5" d="M212.2,120.9c7.2,17.6,2.7,46.6,2.7,46.6h-45.6l-12.5-46.6H212.2z"/>
</g>
<g>
	<path id="Skin-3_1_" class="we-are-in-office-2-9" d="M690.1,365.7c0.9-0.7,1.6-2.8-1.1-4c-6.7-3-16.4-8.6-17.9-10.6c-3.1-4.2-23.5-61.3-23.5-61.3
		l-18.2,2.6c0,0,29.5,59.4,31.2,62.1c2.5,4.1-0.6,11.4-1.8,15.3c2.9,0.7,4-0.9,5.2-2.5c1.3-1.8,2.7-3.5,6.6-2.5c5,1.4,9.4,4,14,3.4
		C686.6,367.8,688.5,367,690.1,365.7z M522.2,353.3l22.6-16.8l-9.6-11.4l-20.5,24.5c-6.5,3.7-11.7,7.4-15.6,11.3
		c-0.8,1.2-1.6,3.5,2.9,1.9s9.3-3.1,10.4-1.8c1.1,1.3-1.2,3.8,0.7,5.4c0.1,0.1,0.3,0.2,0.5,0.1C515.1,366.4,517.9,361.9,522.2,353.3
		z"/>
	<path id="Clothes_Back" class="we-are-in-office-2-13" d="M585.5,249.8l-7.3-0.1c-6.1,38.6-60.7,72-62.3,86.3c-0.6,5.3,3.7,7.3,1.9,9.1l10.2,5
		c1.3-1.9,5.2,0.7,11.9-2.5C546.6,344.4,591.7,293.6,585.5,249.8z"/>
	<path id="Clothes_Front" class="we-are-in-office-2-14" d="M669.6,347.4c-1.4-4.1,4-7,1.2-16.2c-16.3-52.3-53.8-76.4-68.7-84.1l-1-4.5
		c-0.5-1.7-2.2-2.8-3.9-2.4l-22.2,4.6c-1.7,0.3-2.9,1.9-2.6,3.7c0,0,0,0,0,0l1.7,7.8c7.7,48.9-21.1,65.7-11.6,84.4
		c7.9,15.4,64.3,25.3,71.3,8.1c2.8-6.9,3.5-14.8,2.5-23.2c3.2,6,6,11.4,8,15.8c3.5,7.8,13,7.7,13.4,10.9L669.6,347.4z"/>
</g>
<g>
	<path id="Head-2" class="we-are-in-office-2-9" d="M69.8,320.4l8.1-32c-4.5-4.5-7.6-10-7.1-16.2c1.5-17.8,30.8-13.9,36.4-4.9s5,31.8-2.3,33.4
		c-2.9,0.6-9.2-0.9-15.6-4.2l4,23.9L69.8,320.4z"/>
	<path id="Hair" class="we-are-in-office-2-10" d="M74.5,292.3c-2.5-11.2-9.6-18.8-8.5-23.7c0.7-3,2.9-5.3,5.8-6.2c0,0,2.4-9.9,15.7-8.4
		c13.3,1.5,21.4,7,17.9,19.2c-3.2,0-7.1-1.2-12.5,0.8c-2.6,1-3.7,5.9-3.7,5.9h-2.4c0,0-3.5-5.9-7-4.3s-1.6,7.6-1.6,7.6l-1.2,9.2
		L74.5,292.3z"/>
</g>
<g>
	<path id="Seat_Stuff" class="we-are-in-office-2-2" d="M27.1,424.4h75.9l9.9,103.2H0L27.1,424.4z"/>
	<path id="Seat_Stuff-2" class="we-are-in-office-2-8" d="M27.1,424.4h23.4l14,103.2H0L27.1,424.4z"/>
	<path id="Skin" class="we-are-in-office-2-9" d="M179.1,519.7c-1-10.5-2.8-47-1-63.8c0.8-7.1,1.6-13.9,2.4-19.9c-17.6,26.7-46.3,65.8-46.3,65.8
		l-11.3-4.4c0,0,13.3-37.2,21.9-52.5c9.7-17.5,18.9-32.5,22.7-37.7c6-8.3,16.6-5.4,22.1-0.4c8.1-4.1,21.7,1.2,21.7,7.1
		c0,17.6-19,100.6-20,105.9c-0.5,2.8-3.7,4.5-6.8,4.5C181.9,524.1,179.4,522.8,179.1,519.7z"/>
	<path id="LegLower" class="we-are-in-office-2-15" d="M123.7,483.6l38.8-77.9c9.3-12.7,35.4,2.6,32.2,9.9c-7.2,16.7-43.8,70.7-46,75.7L123.7,483.6z"
		/>
	<path id="shoe" class="we-are-in-office-2-12" d="M124.8,494.4c-0.6-0.7-1.7-0.8-2.4-0.2c0,0,0,0-0.1,0.1l-4.2,4.1c-1,2-1.9,4-2.7,6.1l41,23.7
		c0,0,4.7-4.4,1.5-6.8c-3.2-2.4-5.3-4.1-5.3-4.1l-14.2-19.5c-0.3-0.4-0.8-0.5-1.2-0.2c0,0,0,0,0,0l-2.9,2.3c0,0-4.1-0.4-6-1.5
		L124.8,494.4z"/>
	<path id="shoe-2" class="we-are-in-office-2-12" d="M178.6,514.3c-0.9-0.3-1.8,0.2-2.1,1c0,0,0,0.1,0,0.1l-1.6,5.6c0.1,2.2,0.4,4.4,0.7,6.6H222
		c0,0,1.8-6-2.1-6.5c-3.9-0.5-6.5-0.9-6.5-0.9l-21.5-9.7c-0.4-0.2-0.9,0-1.1,0.4c0,0,0,0,0,0l-1.4,3.4c-1.8,0.9-3.8,1.5-5.9,1.7
		L178.6,514.3z"/>
	<path id="Leg_and_Butt" class="we-are-in-office-2-16" d="M214,419.8c0,22.1-12.4,73.7-12.4,78.5l-26.7,0c0,0,5.9-69,4.2-69.8
		c-1.7-0.7-69.8,5.8-90.3,5.8c-29.5,0-41.7-15.7-42.6-44.9h58.4c11.9,1.1,73.9,11.7,96.9,15.3C211.3,406.3,214,413.7,214,419.8z"/>
</g>
<g>
	<path id="Skin-2" class="we-are-in-office-2-9" d="M166.7,385l-31-10.9l6.9-14.5l31.3,19.5c7.4,1.6,14.5,4,21.3,7.3c1.3,1,3,3.1-2.6,2.8
		s-11.5-0.5-12.3,1.1c-0.8,1.6,2.6,3.5,1.1,5.7c-0.2,0.2-0.4,0.3-0.7,0.3C178.9,396.3,174.2,392.5,166.7,385z M145.9,304l37.3-9.5
		c6.1-4.2,12.7-7.5,19.7-10c1.8-0.3,4.8-0.1,1.1,3.4c-3.7,3.6-7.4,7.4-6.4,8.9c1.1,1.5,4.9,0.4,6,2.7c0.7,1.6-5.6,2.7-19.2,3.4
		l-29,14.4L145.9,304z"/>
	<path id="Coat_Back" class="we-are-in-office-2-17" d="M93.9,307.1c17.1,27,41.8,47.6,77.5,69.1l-13.6,12.9c-40-12.6-61.1-20.2-71.4-45.6
		c-2.6-6.4-4.4-26.8-6-37.5L93.9,307.1z"/>
	<path id="Shirt" class="we-are-in-office-2-3" d="M46.2,396.9h75.7c0,0-25.7-66.4-26.3-91.2c0-0.8-1.9-2.3-2.7-2.1c-8.9,2.1-19.1-1.6-19.1-1.6
		C55.9,326.5,49.7,356.6,46.2,396.9z"/>
	<path id="Coat_Front" class="we-are-in-office-2-15" d="M37.7,417.4c-6.4-36.5,10.4-87,26-112.5c1-1.8,2.8-2.9,4.9-2.8h11.7l0,0
		c3.9,0,8.3,0.2,13.1,0.3c21.5,0.6,51.1,1.2,84.3-7.8l4,17c-30.7,16.7-61.7,29.7-89,27.8c11.8,42.9,11.3,78.1-14.8,78.1L37.7,417.4z
		"/>
</g>
</svg>
