<?xml version="1.0" encoding="utf-8"?>
<!-- Generator: Adobe Illustrator 23.0.3, SVG Export Plug-In . SVG Version: 6.00 Build 0)  -->
<svg xmlns="http://www.w3.org/2000/svg" xmlns:xlink="http://www.w3.org/1999/xlink" x="0px" y="0px"
	 viewBox="0 0 1070.3 547.9" style="enable-background:new 0 0 1070.3 547.9;" xml:space="preserve">
<style type="text/css">
	.we-are-in-office-4-0{opacity:0.346;}
	.we-are-in-office-4-1{fill:#DDE3E9;}
	.we-are-in-office-4-2{fill:#19A0FF;}
	.we-are-in-office-4-3{fill:#377DFF;}
	.we-are-in-office-4-4{fill:#2B44FF;}
	.we-are-in-office-4-5{fill:#FFFFFF;}
	.we-are-in-office-4-6{fill:#C5CFD6;}
	.we-are-in-office-4-7{fill:#B28B67;}
	.we-are-in-office-4-8{fill:#191847;}
	.we-are-in-office-4-9{fill:#2F3676;}
	.we-are-in-office-4-10{fill:#323337;}
	.we-are-in-office-4-11{opacity:0.2;}
	.we-are-in-office-4-12{opacity:0.3;fill:#231F20;enable-background:new    ;}
	.we-are-in-office-4-13{fill:#89C5CC;}
	.we-are-in-office-4-14{opacity:0.2;fill:#191C3C;enable-background:new    ;}
	.we-are-in-office-4-15{fill:#E4E4E4;}
	.we-are-in-office-4-16{fill:#5C63AB;}
	.we-are-in-office-4-17{fill:#E87613;}
	.we-are-in-office-4-18{fill:#FF9B21;}
	.we-are-in-office-4-19{fill:#A6DFE2;}
	.we-are-in-office-4-20{fill:none;stroke:#CBCBCB;stroke-width:8;stroke-miterlimit:10;}
	.we-are-in-office-4-21{fill:#AFB9C5;}
	.we-are-in-office-4-22{fill:#F2F2F2;}
	.we-are-in-office-4-23{opacity:0.7;}
</style>
<g id="Background_Shape_2" transform="translate(39.62 284.188)" class="we-are-in-office-4-0">
	<path id="Background_Shape-2" class="we-are-in-office-4-1" d="M92,29.6c9.7-76.2,530.7-223.4,627.4-151.2S791.6,102.5,589,137.2S82.3,105.8,92,29.6
		z"/>
</g>
<g>
	<g>
		<path id="Thi_Succs_" class="we-are-in-office-4-2" d="M893,237c8.8,21,23.8,35.6,31.8,57.4c4.7,12.9,6.7,27,6.8,41.4c0.1,7.8-0.1,15.7-0.1,23.5
			c0,7.6-0.2,15.2-0.9,22.8c-0.7,7.6-1.4,15.2-1.7,22.8c-0.3,6-0.4,12.9-2.4,18.4c-1.6,4.3-5.7,5-6.8-0.3c-0.5-3-0.6-6.1-0.5-9.2
			c0.1-3.9,0.3-7.7,0.4-11.6c0.5-15.5-0.1-30.9,0.2-46.4c0.3-15.1,2.2-30.2,0.1-45.2c-1.8-12.4-6.3-23.1-11.5-33.3
			c-5-9.8-10.4-19.4-13.8-30.6c-1-3.3-1.7-6.6-2.1-10C892.8,236.8,892.9,236.8,893,237z"/>
		<path id="Thi_Succs_2" class="we-are-in-office-4-3" d="M890.6,278.4c1.7,1.3,2.7,3.1,3.9,4.9c1.5,2.3,3.2,4.3,4.7,6.6c3.1,4.7,5.8,9.7,8.5,14.7
			c5.4,9.3,9.3,19.5,11.3,30.1c2.1,11.2,2.6,22.8,3.5,34.1c0.9,12,1.8,24.2,2,36.3c0.1,5.4,0.3,11.2-0.3,16.5
			c-0.4,3.3-1.9,6.2-5.3,6.2c-7.2-0.1-10.6-8.1-12.1-14.6c-2.1-9.7-2.5-20-2.2-29.9c0.4-11.9,2.5-23.7,3.4-35.6
			c0.9-12.6,0.4-25-3.9-36.8c-2.2-6-4.7-11.8-7-17.8c-0.8-2.6-1.9-5.1-3.1-7.5c-1.5-2.6-3.3-5-4.4-7.8L890.6,278.4z"/>
		<path id="Thi_Succs_3" class="we-are-in-office-4-2" d="M974,253.3l0.7-0.5c-0.7,2.5-1.6,4.9-2.7,7.3c-0.7,2.3-1.3,4.7-1.7,7.1
			c-1.3,5.7-2.7,11.2-3.9,17c-2.3,11.3-1.9,23.6-0.4,36.1c1.5,11.9,3.8,23.7,4.8,35.6c1,9.8,1.2,19.6,0.4,29.4
			c-0.6,6.4-2.5,14-7.8,13.4c-2.5-0.3-3.8-3.3-4.3-6.6c-0.8-5.4-1-11.1-1.3-16.4c-0.7-12-0.9-23.9-1-35.8
			c-0.1-11.2-0.5-22.6,0.2-33.5c0.7-9.8,2.8-19.5,6.2-28.8c1.7-4.6,3.3-9.3,5.2-13.7c0.9-2.1,2-4,2.9-6.1
			C972.2,256.1,972.8,254.4,974,253.3z"/>
		<path id="Thi_Succs_4" class="we-are-in-office-4-2" d="M892.8,313.1c1-1.6,3.1,3.7,3.4,4.4c-0.1-0.3-0.3-0.7-0.4-1c2,3.1,3.6,6.5,4.7,10.1
			c1.1,3.6,2,7.2,3,10.9c1.9,6.8,4.3,13.4,6,20.2c1.6,6.6,2.2,13.4,1.7,20.1c-0.5,7.2-0.6,14.4-0.2,21.6c0.2,3.4,1.3,6.6,2.1,9.9
			c0.8,3.3,1.4,6.6,2.3,9.9c0.2-0.4,0.2,1,0.2,1.1c0,0.8-0.1,1.5-0.4,2.3c-0.5,2-1.9,3.5-3.8,4.2c-3.5,1-6.7-2.2-7.8-5.5
			c-1.5-4.9-2.6-9.9-3.2-15c-0.7-4.6-0.9-9.2-0.7-13.9c0.4-9.2,2.1-18.2,2.5-27.4c0.5-10-1.5-19.4-3.1-29.1
			c-0.7-4.7-1.7-9.3-3.1-13.8c-0.6-1.7-1.4-3.4-2.3-5.1C893.2,315.9,892.2,314.2,892.8,313.1z"/>
		<path id="Thi_Succs_5" class="we-are-in-office-4-4" d="M920.9,297.5c-0.4,11.4-1.1,22.8-2.6,34.1c-1.6,11.6-3.3,23.1-4.8,34.6
			c-1.5,11.3-3,22.7-2.8,34.1c0.1,8.4-1.2,22.6,8.1,26.8c9.5,4.2,11.5-13.7,12.1-19.7c1.2-11.4,0.8-22.9,0.2-34.3
			c-0.6-11.7-1.6-23.4-2.8-35.1c-1.4-13-2.4-26-3.3-39c-0.4-6.4-0.5-12.9-0.4-19.3c0.1-6.1-0.1-12.2-2.3-18l-0.3,0.2"/>
		<path id="Thi_Succs_6" class="we-are-in-office-4-3" d="M969.7,333.8c-1.7,2.5-3.4,4.9-5,7.6c-2.9,4.7-5.5,9.9-6.3,16.6c-1.6,14.1-0.3,29.2,0,43.7
			c0.1,3-0.3,5.8,0.9,8.6c1.1,2.6,3,4.5,4.9,4.5c4,0,3.4-9.9,3.4-14.3c0-7.6-0.8-15.3-0.8-22.9c0-7.5,0.6-14.9,1.6-22.3
			c1-7,2.7-14,4.9-20.7c0.3-0.9,2.4-7.9,0.4-6.7"/>
		<path id="Thi_Succs_7" class="we-are-in-office-4-4" d="M951.9,258.8c-2.7,0-2.6,13.2-2.7,14.9c-0.3,6.1-0.2,12.3-0.4,18.4
			c-0.4,13.4-0.9,26.9-2.9,40.1c-1.1,7.1-2.3,14.2-3.7,21.3c-1.4,7.1-3.2,14.2-4.1,21.3c-0.9,6.9-0.4,13.9-0.3,20.9
			c0,7,0.4,13.9,1.2,20.9c0.2,1.7,0.5,3.4,0.8,5.1c0.1,1.5,0.2,3,0.5,4.5c0.6,2.2,3.4,2.9,5.2,2.5c5-0.9,8.2-7.2,9.9-11.8
			c2.2-5.8,3.3-12.2,4.5-18.4c1.3-7,2.1-14.1,2.4-21.2c0.7-14.4-0.2-28.9-1.2-43.3c-0.6-8-1.2-16-2.3-23.9c-1-7.9-2.3-15.8-3.2-23.8
			c-0.6-5.8-1.2-11.6-1.6-17.4C954,267.7,953.9,258.8,951.9,258.8"/>
		<path id="Thi_Succs_8" class="we-are-in-office-4-3" d="M948.6,354.9c-0.4-13.9-6-74.9-7.3-91.7c-0.3-4.2-3.4-21.7-3.8-26.5c-1.1,1.3-1,22.3-1,27.1
			c0,4.8-0.6,9.4-0.9,14.2c-0.3,4.8-7.5,67.3-8.4,71.9c-1.8,9.2-3.1,18.7-4,28.2c-0.9,9.2-2.4,18.9-1.1,28.2
			c0.3,2.1,0.8,4.2,1.5,6.2c0.8,2.1,1.3,4.1,2,6.3c1,3.6,2.9,6.7,5.7,8.2c5.8,3,9-3.8,10.6-9.8c2.5-9.5,4.2-19.3,4.9-29.1
			C947.7,377.1,948.9,366.1,948.6,354.9"/>
	</g>
	<g id="Planter" transform="translate(0 159)">
		<path id="Vase" class="we-are-in-office-4-5" d="M888.6,236.8h87c1.1,0,2,0.9,2,2v87c0,1.1-0.9,2-2,2h-87c-1.1,0-2-0.9-2-2v-87
			C886.6,237.7,887.5,236.8,888.6,236.8z"/>
		<path id="Leg" class="we-are-in-office-4-6" d="M878.6,246.8h6c1.1,0,2,0.9,2,2v109c0,1.1-0.9,2-2,2h-6c-1.1,0-2-0.9-2-2v-109
			C876.6,247.7,877.5,246.8,878.6,246.8z"/>
		<path id="Leg-2" class="we-are-in-office-4-6" d="M928.6,246.8h6c1.1,0,2,0.9,2,2v109c0,1.1-0.9,2-2,2h-6c-1.1,0-2-0.9-2-2v-109
			C926.6,247.7,927.5,246.8,928.6,246.8z"/>
		<path id="Leg-3" class="we-are-in-office-4-6" d="M979.6,246.8h6c1.1,0,2,0.9,2,2v109c0,1.1-0.9,2-2,2h-6c-1.1,0-2-0.9-2-2v-109
			C977.6,247.7,978.5,246.8,979.6,246.8z"/>
	</g>
</g>
<g>
	<g id="Head_Front" transform="translate(109.325)">
		<path id="Head-2" class="we-are-in-office-4-7" d="M214.3,258.5l6.8-31.5c-3.8-4.4-6.3-9.8-5.9-15.9c1.2-17.5,25.6-13.6,30.3-4.8
			c4.7,8.8,4.2,31.2-1.9,32.8c-2.4,0.6-7.6-0.9-12.9-4.1l3.3,23.5H214.3z"/>
		<path id="Hair" class="we-are-in-office-4-8" d="M230.7,234c-1.3-4-1.8-15.4-1.9-18.8c-0.2,0-0.4,0-0.6,0c-2.7,0-4.9,2.2-4.9,4.9
			c0,1.3,0.5,2.6,1.5,3.5c-1.1,1.6-2.4,3.3-3.9,5c-5.5-3.3-9.5-12.9-4.2-22.1c1.5-4.5,4.8-6.9,8.8-8.1c2.9-1.3,6.2-1.5,9.3-0.7
			c5.5,0.5,10.4,2.2,11.8,3.1c0,5.2-1,6.8-9.6,6.6c-2.1,1.1-3.7,3-5.4,5.6c0,0.2,1.2,15.7,6,15.7c4.8,0,8.9-3.1,11.1-3.1
			c1.5,0,1.2,1.9,0.2,3.4c-0.8,1.2-5,2.3-5,4.2c0,1,1,1,1.9,1c0.7,0,1.3,0,1.3,0.5c0,1.8,0.6,5.2-2.6,5.2
			C241.3,239.8,232.3,238.7,230.7,234z"/>
	</g>
	<g id="Bottom_Skinny_Jeans_1" transform="translate(45.436 157.98)">
		<path id="Leg_1_" class="we-are-in-office-4-8" d="M271.7,168.3l29.6,104l21.6,76.6h15.8l-23-180.6H271.7z"/>
		<path id="Leg-2_1_" class="we-are-in-office-4-9" d="M263.7,168.3c-0.7,53.6-3,82.8-3.7,87.7c-0.7,4.9-11.6,35.8-32.6,92.9h16.3
			c26.8-54.8,41.7-85.7,44.9-92.9c3.1-7.2,12.7-36.4,27.2-87.7H263.7z"/>
		<path id="Shoe" class="we-are-in-office-4-8" d="M225.9,363.6l0.8-17.2h17.2c12.2,8.6,31.9,13.9,31.9,13.9v3.3h-31.1l-10.6-1.6v1.6H225.9z"/>
		<path id="Shoe-2" class="we-are-in-office-4-8" d="M320.7,363.6l0.8-17.2h17.2c12.2,8.6,31.9,13.9,31.9,13.9v3.3h-31.1l-10.6-1.6v1.6H320.7z"/>
	</g>
	<g id="Body_Long_Sleeve_1" transform="translate(0 52.461)">
		<path id="Skin" class="we-are-in-office-4-7" d="M260.4,320.4c-1.2-1.8-2.6-3.6-6.4-2.5c-6.8,2.1-12.4,6.7-19.1,1.2c-0.8-0.7-1.5-2.9,1.1-4.2
			c6.5-3.2,16.1-9.2,17.6-11.4c3-4.5,20.7-52.1,20.7-52.1l14.5,2.1c0,0-23.3,50.6-25,53.5c-2.5,4.4,0.4,12,1.6,16
			c-0.4,0.1-0.9,0.2-1.4,0.2C262.2,323.2,261.3,321.8,260.4,320.4z M404.3,286.7l-25-12.5l6.7-13.8l24.7,20.9
			c6.1,2,11.9,4.8,17.2,8.3c1,1.1,2.3,3.3-2.4,2.6c-4.6-0.7-9.5-1.2-10.2,0.3c-0.8,1.5,1.9,3.6,0.5,5.7c-0.1,0.2-0.3,0.3-0.5,0.3
			C413.8,298.5,410.1,294.6,404.3,286.7L404.3,286.7z"/>
		<path id="Coat_Back" class="we-are-in-office-4-6" d="M334.8,192.4l9-3c12.2,30.4,30.3,59.8,60.6,84.6l-7.5,12.9c-26.6-15.7-51.9-27.9-62.1-51.4
			C331.4,227.6,334.5,201.8,334.8,192.4z"/>
		<path id="Shirt" class="we-are-in-office-4-10" d="M304,277.9c0,0,38.5,4.1,60.7,0c1.8-0.3,2.1-3.4,1.3-5.5c-13.2-32.3-22.3-60.6-22.3-83
			c-3.6,1.8-12.7,0.5-12.7,0.5C314.7,213.1,307.2,239.7,304,277.9z"/>
		<path id="Coat_Front" class="we-are-in-office-4-1" d="M272.5,364.2c1.8-36.7,15.3-80.5,29.3-117.8c-10.3,10.3-22.4,27.5-32.2,56.2l-15.6-4
			c15.9-68.4,62.4-103.7,71.4-110l0.3-0.6h0.6c0.4-0.3,0.6-0.4,0.6-0.4l0,0.4h6.8c1.6,9.3,6.6,135.1,21.9,176.2L272.5,364.2z"/>
	</g>
</g>
<g>
	<g>
		<path id="Photo_Background" class="we-are-in-office-4-4" d="M145.3,388.6l22.9,38.1c0.9,1.4,0.4,3.3-1,4.2l-60.5,36.3c-1.4,0.9-3.3,0.4-4.2-1
			l-22.9-38.1c-0.9-1.4-0.4-3.3,1-4.2l60.5-36.3C142.6,386.6,144.5,387.1,145.3,388.6z"/>
		<g id="icons8-night_landscape" transform="translate(9.058 20.093)" class="we-are-in-office-4-11">
			<path id="Mountains" d="M117.1,435.7l38-22.8l-37.5-19.5L117.1,435.7z"/>
			<path id="Mountains-2" d="M99.8,446.2l33.5-20.2l-30.4-12.6L99.8,446.2z"/>
		</g>
		<circle id="Sun" class="we-are-in-office-4-5" cx="101.2" cy="431.9" r="7.3"/>
	</g>
	<path id="appDevelopment_58_" class="we-are-in-office-4-12" d="M126.2,404c-1.9,9.7,2.8,19.9,12.1,24.6c9.4,4.4,20.4,2.2,27-5.2L126.2,404z"/>
	<g>
		<path id="appDevelopment_57_" class="we-are-in-office-4-13" d="M168.3,432.5c5.5,11.3,1.1,25.1-10.2,30.6s-25.1,1.1-30.6-10.2
			c-5.5-11.3-1.1-25.1,10.2-30.6C149,416.8,162.8,421.2,168.3,432.5z"/>
		<polygon id="appDevelopment_55_" class="we-are-in-office-4-5" points="154.8,448.8 151.5,450.4 144.9,437.2 141.8,438.9 140.2,435.5 146.5,432.2
					"/>
	</g>
	<path id="appDevelopment_42_" class="we-are-in-office-4-1" d="M83.7,487.1v-40.8h79.2v46.6H89.8C86.4,492.9,83.7,490.4,83.7,487.1z"/>
	<path id="appDevelopment_41_" class="we-are-in-office-4-6" d="M171.2,487.1v-40.8h-8.3v46.6h2.2C168.4,492.9,171.2,490.4,171.2,487.1z"/>
	<polygon id="appDevelopment_40_" class="we-are-in-office-4-14" points="171.2,448.2 162.9,446.2 165.9,456.2 171.2,456.2 	"/>
	<path id="appDevelopment_39_" class="we-are-in-office-4-1" d="M173.4,450.9l-2.2-4.4h-8.3l2.5,5.2c0.3,0.3,0.8,0.6,1.1,0.6h5.8
		C173.1,452.3,173.6,451.5,173.4,450.9z"/>
	<polygon id="appDevelopment_38_" class="we-are-in-office-4-14" points="158.7,456.2 162.9,446.2 83.7,448.2 83.7,456.2 	"/>
	<path id="appDevelopment_37_" class="we-are-in-office-4-1" d="M80.7,450.4l3-4.1h79.2l-4.1,5.5c-0.3,0.3-0.6,0.6-0.8,0.6H81.5
		C80.7,452.3,80.1,451.2,80.7,450.4z"/>
</g>
<g>
	<g>
		<path id="Head-4" class="we-are-in-office-4-7" d="M650.4,303.4l3.2-22.6c-5.1,3.1-10.1,4.5-12.4,3.9c-5.9-1.5-6.4-23-1.9-31.5s27.9-12.2,29.1,4.6
			c0.4,5.8-2,11-5.7,15.3l6.5,30.2H650.4z"/>
		<path id="Hair-2" class="we-are-in-office-4-8" d="M661.8,277l-1.1-8.7c0,0,1.8-5.7-1.5-7.1s-6.6,4.1-6.6,4.1h-2.3c0,0-1-4.7-3.5-5.6
			c-5.1-1.9-8.7-0.8-11.8-0.8c-3.3-11.5,4.4-16.7,16.9-18.1s14.9,7.9,14.9,7.9c2.7,0.8,4.8,3.1,5.5,5.9c1,4.7-5.7,11.9-8.1,22.4
			H661.8z"/>
	</g>
	<g id="Bottom_Skinny_Jeans_1-2" transform="translate(0 163.252)">
		<path id="Seat-2" class="we-are-in-office-4-6" d="M621,344.4v-72.2c0-6.9,5.6-12.6,12.6-12.6h90.3c6.9,0,12.6,5.6,12.6,12.6v72.2
			c0,6.9-5.6,12.6-12.6,12.6h-90.3C626.7,357,621,351.3,621,344.4z M646.2,281.6c-1.7,0-3.1,1.4-3.1,3.1v47.1c0,1.7,1.4,3.1,3.1,3.1
			h65.2c1.7,0,3.1-1.4,3.1-3.1v-47.1c0-1.7-1.4-3.1-3.1-3.1H646.2z"/>
		<path id="LegLower" class="we-are-in-office-4-7" d="M534.7,347.9c21.3-47.3,35.3-75.5,41.8-84.4c4.3-5.9,23.4,0,17.6,12.7
			c-2.4,5.3-10.1,19.2-19.4,34.8c-5.5,9.1-15.9,23.1-31.4,42L534.7,347.9z"/>
		<path id="LegLower-2" class="we-are-in-office-4-9" d="M537.8,332.5c3.1-4.2,27.5-59.3,37.8-73.2c4.5-6.2,34.3,2.5,28.1,15.8l-28.8,72.5
			L537.8,332.5z"/>
		<path id="LegLower-3" class="we-are-in-office-4-7" d="M644,339.2c-2.7-2.4-34.4-29-56.2-48.8c-8.7-7.9,8.7-22.6,17.5-13.9c3,2.9,6.1,6.1,9.3,9.3
			c11.1,11.4,31.5,38.9,37.2,47.1C655.2,338.1,647.7,342.5,644,339.2z"/>
		<path id="shoe-3" class="we-are-in-office-4-15" d="M644.6,333.2c-1.9,1.1-5.7,1.4-5.7,1.4l-2.8-2.1c0,0,0,0,0,0c-0.4-0.3-0.8-0.2-1.1,0.2
			l-13.2,18.2c0,0-1.9,1.5-4.9,3.8s1.4,6.3,1.4,6.3l38.4-22.1c-0.7-2-1.5-3.9-2.5-5.7l-3.9-3.8c0,0,0,0-0.1-0.1
			c-0.7-0.6-1.6-0.5-2.2,0.1L644.6,333.2z"/>
		<path id="shoe-4" class="we-are-in-office-4-15" d="M543,350.8c-2.1,0-5.5-1.6-5.5-1.6l-1.3-3.2c0,0,0,0,0,0c-0.2-0.4-0.6-0.6-1-0.4l-20.3,9.2
			c0,0-2.4,0.4-6.1,0.8c-3.7,0.5-2,6.2-2,6.2h43.7c0.4-2.1,0.6-4.1,0.7-6.2l-1.5-5.3c0,0,0-0.1,0-0.1c-0.3-0.8-1.2-1.2-2-1
			L543,350.8z"/>
		<path id="Leg_and_Butt" class="we-are-in-office-4-16" d="M614,281.3l28.6,36.7l-34.9,22.3c0,0-37.8-64.6-37.8-64.8c-1.4-3.6-2.8-14.6,4.7-18.3
			c0,0,62.4-27.8,70.9-30.3h42.7c4,27.2-2.8,39.7-25.9,43.8c-12.2,2.2-48.1,8-48.1,8C612.9,279,614,281.3,614,281.3z"/>
	</g>
	<g id="Body_Long_Sleeve_1-2" transform="translate(79.118 54.437)">
		<path id="Skin-2" class="we-are-in-office-4-7" d="M641.6,377.2c-4.4,0-8.1-3.3-12.5-5.4c-3.5-1.6-5,0-6.4,1.5c-1.3,1.5-2.5,3-5.1,1.8
			c1.6-3.7,5.5-10.5,3.7-15c-1.2-3-16.4-52.1-16.4-52.1l16.4-0.1c0,0,7.8,45.5,10.1,50.2c1.1,2.3,9.5,9.2,15.2,13.2
			c2.3,1.6,1.4,3.6,0.5,4.2C645.5,376.6,643.6,377.2,641.6,377.2z M494.6,342c-0.2,0-0.4-0.1-0.5-0.3c-1.2-2.1,1.5-3.9,0.8-5.4
			c-0.6-1.5-5.3-1.4-9.8-1s-3.2-1.6-2.1-2.6c5.3-3,11.1-5.3,17-6.8l25-18.4l5.5,13.7l-24.8,10.3C499.8,338.4,496,342,494.6,342z"/>
		<path id="Coat_Back_1_" class="we-are-in-office-4-17" d="M508.8,332.9l-7.4-9.2c30.9-22.1,41.2-63.9,66.4-85.7l6.8,1.2
			C575.7,275.3,562.4,326.3,508.8,332.9z"/>
		<path id="Shirt-2" class="we-are-in-office-4-1" d="M582.1,235l-17.3,3.2c0,38.9-17.9,68.4-22.5,95.7c-0.4,2.4-0.9,7.1,1.8,7.1h60.1
			C601.4,295.9,596.4,262.3,582.1,235z"/>
		<path id="Coat_Front_1_" class="we-are-in-office-4-18" d="M618.8,357.5c-2.9-5.3-5.6-10.8-7.8-16.5h-47.5c-10.5-26.5,12.9-105.6,12.9-105.6
			l5.8-0.3c0.4-0.1,0.9-0.1,1.3-0.1c10.8,0,16.8-4.3,23.6-2.2s9.1,8.4,2.7,19.8c-1.6,2.9-4.5,4.7-7.8,4.8
			c14.2,20.8,31.2,55.3,29.8,100.1H618.8z"/>
		<path id="Shade-2" class="we-are-in-office-4-17" d="M593.2,341c3.1-5.2,5.5-14.9,7.1-28.7c3.8,11.2,7.4,20.9,10.7,28.7L593.2,341L593.2,341z"/>
	</g>
</g>
<g id="appDevelopment_121_">
	<g id="appDevelopment_307_">
		<path id="appDevelopment_319_" class="we-are-in-office-4-6" d="M785.5,542.2c-7.9,6.6-19.6,5.5-26-2.3c-6.6-7.9-5.5-19.6,2.3-26
			c7.9-6.6,19.6-5.5,26,2.3C794.4,524.1,793.4,535.8,785.5,542.2z"/>
		<g>
			<path class="we-are-in-office-4-5" d="M778.7,524.5l-6,12.6c0,0.2-0.2,0.2-0.4,0.2c0,0,0,0-0.2,0c-0.2,0-0.4-0.2-0.4-0.6l2.1-8.7l-4.5,1.1
				c0,0,0,0-0.2,0c-0.2,0-0.2,0-0.4-0.2c-0.2-0.2-0.2-0.2-0.2-0.4l2.1-8.9c0-0.2,0.2-0.4,0.4-0.4h3.6c0.2,0,0.4,0.2,0.4,0.4v0.2
				l-1.9,5.1l4.3-1.1c0,0,0,0,0.2,0s0.2,0,0.4,0.2C778.7,524.1,778.7,524.3,778.7,524.5z"/>
		</g>
	</g>
	<path id="appDevelopment_306_" class="we-are-in-office-4-12" d="M771.2,528.6c0-6.2-2.8-11.5-7-15.3c-0.9,0.4-1.7,1.1-2.6,1.7
		c-4.3,3.6-6.4,8.5-6.6,13.6c0.2,4,1.5,7.9,4.3,11.3c1.3,1.7,3,3,4.7,4C768.4,540.3,771.2,534.8,771.2,528.6z"/>
	<g id="appDevelopment_150_">
		<path id="appDevelopment_305_" class="we-are-in-office-4-4" d="M768,526.2c0,11.3-9.2,20.2-20.2,20.2c-11.3,0-20.2-9.2-20.2-20.2
			c0-11.3,9.2-20.2,20.2-20.2C758.8,506,768,515.2,768,526.2z"/>
		<g>
			<path class="we-are-in-office-4-5" d="M753.1,533.3c0,0.2,0,0.4-0.2,0.4c0,0-1.1,0.4-2.3,0.4c-3.4,0-6.4-2.1-7.2-5.3h-1.1c-0.2,0-0.4-0.2-0.4-0.4
				v-1.3c0-0.2,0.2-0.4,0.4-0.4h0.6c0-0.4,0-0.9,0-1.3H742c-0.2,0-0.4-0.2-0.4-0.4v-1.3c0-0.2,0.2-0.4,0.4-0.4h1.1
				c1.1-3.2,3.8-5.1,7.2-5.1c1.1,0,2.1,0.2,2.1,0.2s0.2,0,0.2,0.2v0.2l-0.4,1.7c0,0.2-0.2,0.2-0.4,0.2c0,0-0.9-0.2-1.5-0.2
				c-1.9,0-3.4,1.1-4.3,2.8h5.3c0.2,0,0.2,0,0.2,0.2v0.2l-0.2,1.3c0,0.2-0.2,0.2-0.4,0.2h-5.5c0,0.4,0,0.6,0,1.3h5.1
				c0.2,0,0.2,0,0.2,0.2v0.2l-0.2,1.3c0,0.2-0.2,0.2-0.4,0.2h-4.3c0.6,1.7,2.3,2.8,4.3,2.8c1.1,0,1.7-0.2,1.7-0.2h0.2l0.2,0.2
				L753.1,533.3z"/>
		</g>
	</g>
	<path id="appDevelopment_149_" class="we-are-in-office-4-12" d="M739.9,509.8c-7,3-12.1,9.8-12.6,17.9c0.4,6.8,4.5,12.8,10,16.2
		c8.5-6.2,11.5-17.7,7-27.5C743.3,513.9,741.8,511.8,739.9,509.8z"/>
	<g id="appDevelopment_134_">
		<ellipse id="appDevelopment_148_" class="we-are-in-office-4-1" cx="720.7" cy="524.3" rx="22.4" ry="22.4"/>
		<g>
			<path class="we-are-in-office-4-13" d="M733.7,516v14.7c0,1.1-0.9,1.9-1.9,1.9h-19.4c-1.1,0-1.9-0.9-1.9-1.9V516c0-1.1,0.9-1.9,1.9-1.9h19.4
				C732.6,514.1,733.7,514.9,733.7,516z M711.8,516v2.8H732V516c0-0.2-0.2-0.4-0.4-0.4h-19.4C712,515.6,711.8,515.8,711.8,516z
				 M732,530.9v-7.5h-20.2v7.5c0,0.2,0.2,0.4,0.4,0.4h19.4C731.8,531.4,732,531.1,732,530.9z M713.5,528.2h3.2v1.5h-3.2V528.2z
				 M718.2,528.2h4.7v1.5h-4.7V528.2z"/>
		</g>
	</g>
	<path id="appDevelopment_133_" class="we-are-in-office-4-12" d="M700.5,533.7c1.5,3.2,3.6,5.8,6,7.7c1.3-1.7,2.6-3.8,3.2-6c3-8.7,0.4-18.1-6.2-23.9
		c-3.2,3.8-5.1,8.7-5.1,13.8C698.6,528.2,699.2,530.9,700.5,533.7z"/>
	<g id="appDevelopment_122_">
		<path id="appDevelopment_132_" class="we-are-in-office-4-13" d="M705.4,531.8c-4,11.5-16.8,17.7-28.3,13.6c-11.5-4-17.7-16.8-13.6-28.3
			c4-11.5,16.6-17.7,28.3-13.6C703.5,507.7,709.4,520.3,705.4,531.8z"/>
		<g>
			<path class="we-are-in-office-4-5" d="M685.1,532.2v1.9c0,0.2-0.2,0.4-0.4,0.4h-1.5c-0.2,0-0.4-0.2-0.4-0.4v-1.9c-2.6-0.4-4-1.9-4.3-2.1
				s-0.2-0.4,0-0.4l1.3-1.5l0.2-0.2h0.2c0,0,1.7,1.5,3.6,1.5c1.1,0,2.3-0.6,2.3-1.9c0-1.1-1.3-1.7-3-2.3c-2.1-0.9-4.7-1.9-4.7-4.7
				c0-2.1,1.7-3.8,4-4.3v-2.1c0-0.2,0.2-0.4,0.4-0.4h1.5c0.2,0,0.4,0.2,0.4,0.4v1.9c2.3,0.2,3.6,1.5,3.6,1.5c0.2,0.2,0.2,0.2,0,0.4
				l-0.9,1.7l-0.2,0.2c-0.2,0-0.2,0-0.2,0s-1.5-1.3-3.2-1.3c-1.5,0-2.3,0.6-2.3,1.7c0,1.3,1.5,1.7,3,2.3c2.1,0.9,4.5,1.7,4.5,4.5
				C689.2,529.9,687.5,531.8,685.1,532.2z"/>
		</g>
	</g>
</g>
<g>
	<path id="XMLID_854_" class="we-are-in-office-4-13" d="M387.3,200.3l-8.9-13.1c-6.8-2.6-12.9-7.3-17.3-14.2c-7.5-11.8-7.2-27.4,0.7-38.8
		c14.4-20.6,44.4-20.6,58.6,0.3c7.8,11.4,8,26.8,0.6,38.5c-5.4,8.6-13.5,13.7-22.1,15.7l-8,11.6C390,201.6,388.2,201.6,387.3,200.3z
		"/>
	<path id="XMLID_871_" class="we-are-in-office-4-19" d="M408.8,136.4c10,10,10,26,0,35.9c-10,10-26,10-35.9,0s-10-26,0-35.9
		C382.8,126.5,398.9,126.5,408.8,136.4z"/>
	<g id="XMLID_346_">
		<g id="XMLID_344_">
			<path id="XMLID_363_" class="we-are-in-office-4-5" d="M384.3,168.6c-0.3,0-0.6-0.1-0.8-0.2c-0.8-0.5-1.1-1.5-0.6-2.3L397,141
				c0.5-0.8,1.5-1.1,2.3-0.6s1.1,1.5,0.6,2.3l-14.2,25C385.4,168.2,384.8,168.6,384.3,168.6z"/>
		</g>
		<g id="XMLID_343_">
			<path id="XMLID_354_" class="we-are-in-office-4-5" d="M381.5,157.4c-3.3,0-6.1-3.3-6.1-7.4c0-4.1,2.8-7.4,6.1-7.4s6.1,3.3,6.1,7.4
				C387.6,154,384.9,157.4,381.5,157.4z M381.5,145.8c-1.6,0-2.9,1.9-2.9,4.1c0,2.2,1.3,4.1,2.9,4.1s2.9-1.9,2.9-4.1
				C384.4,147.8,383.1,145.8,381.5,145.8z"/>
		</g>
		<g id="XMLID_345_">
			<path id="XMLID_350_" class="we-are-in-office-4-5" d="M400.1,166.8c-3.3,0-6.1-3.3-6.1-7.4c0-4.1,2.8-7.4,6.1-7.4c3.3,0,6.1,3.3,6.1,7.4
				C406.2,163.5,403.6,166.8,400.1,166.8z M400.1,155.3c-1.6,0-2.9,1.9-2.9,4.1c0,2.2,1.3,4.1,2.9,4.1c1.6,0,2.9-1.9,2.9-4.1
				S401.7,155.3,400.1,155.3z"/>
		</g>
	</g>
</g>
<g id="Lamp" transform="translate(716.945 244.471)">
	<path id="Body" class="we-are-in-office-4-20" d="M177.4-136.2l32.5-21.8c5.5-3.7,14.3-3.7,19.8,0l86.5,58c5.3,3.5,8.2,8.3,8.2,13.3v384.2"/>
	<path id="Lamp_Base" class="we-are-in-office-4-21" d="M297.4,296.4h53c1.7,0,3,1.3,3,3v1c0,1.7-1.3,3-3,3h-53c-1.7,0-3-1.3-3-3v-1
		C294.4,297.8,295.8,296.4,297.4,296.4z"/>
	<g id="Lamp_Top" transform="translate(47.066 0) rotate(45)">
		<path id="Lamp-2" class="we-are-in-office-4-6" d="M-6.5-206.7L-6.5-206.7c18.2,0,33,14.8,33,33v28l0,0h-66l0,0v-28
			C-39.5-191.9-24.8-206.7-6.5-206.7z"/>

			<ellipse id="Lamp-3" transform="matrix(1.014073e-05 1 -1 1.014073e-05 -153.0509 -140.2741)" class="we-are-in-office-4-22" cx="-6.4" cy="-146.7" rx="6.5" ry="33"/>
	</g>
</g>
<g id="Hanging_Lamp" transform="translate(35.569)">
	<g id="Light" transform="translate(0 187.208)">
		<ellipse id="Hanging_Lamp_Light" class="we-are-in-office-4-22" cx="13.9" cy="34.5" rx="42.5" ry="22.5"/>
		<path id="Hanging_Lamp-2" class="we-are-in-office-4-1" d="M63.4,50c0-27.6-22.2-50-49.5-50s-49.5,22.4-49.5,50"/>
	</g>
	<rect id="Wire" x="11.4" y="0" class="we-are-in-office-4-1" width="5" height="194.5"/>
</g>
<g id="Hanging_Lamp-3" transform="translate(161.794)" class="we-are-in-office-4-23">
	<g id="Light-2" transform="translate(0 139.188)">
		<ellipse id="Hanging_Lamp_Light-2" class="we-are-in-office-4-22" cx="1.4" cy="27.8" rx="31.8" ry="18.2"/>
		<path id="Hanging_Lamp-4" class="we-are-in-office-4-1" d="M38.4,40.4C38.4,18.1,21.8,0,1.4,0s-37,18.1-37,40.4"/>
	</g>
	<rect id="Wire-2" x="-0.6" y="0" class="we-are-in-office-4-1" width="5" height="162.2"/>
</g>
</svg>
