<?xml version="1.0" encoding="utf-8"?>
<!-- Generator: Adobe Illustrator 23.0.3, SVG Export Plug-In . SVG Version: 6.00 Build 0)  -->
<svg xmlns="http://www.w3.org/2000/svg" xmlns:xlink="http://www.w3.org/1999/xlink" x="0px" y="0px"
	 viewBox="0 0 1306.2 711.1" style="enable-background:new 0 0 1306.2 711.1;" xml:space="preserve">
<style type="text/css">
	.we-are-in-office-3-0{fill:#F2F2F2;}
	.we-are-in-office-3-1{fill:#FFFFFF;}
	.we-are-in-office-3-2{fill:#DDE3E9;}
	.we-are-in-office-3-3{fill:#C5CFD6;}
	.we-are-in-office-3-4{fill:#AFB9C5;}
	.we-are-in-office-3-5{opacity:0.5;}
	.we-are-in-office-3-6{fill:#89C5CC;}
	.we-are-in-office-3-7{fill:#69A1AC;}
	.we-are-in-office-3-8{opacity:0.5;fill:#C1DEE2;enable-background:new    ;}
	.we-are-in-office-3-9{fill:#C1DEE2;}
	.we-are-in-office-3-10{fill:#B28B67;}
	.we-are-in-office-3-11{fill:#191847;}
	.we-are-in-office-3-12{fill:#997659;}
	.we-are-in-office-3-13{fill:#E4E4E4;}
	.we-are-in-office-3-14{fill:#EFA02E;}
	.we-are-in-office-3-15{opacity:0.2;enable-background:new    ;}
	.we-are-in-office-3-16{opacity:0.2;fill:#FFFFFF;enable-background:new    ;}
	.we-are-in-office-3-17{fill:#DB2721;}
	.we-are-in-office-3-18{fill:#FF4133;}
	.we-are-in-office-3-19{fill:#2026A2;}
	.we-are-in-office-3-20{fill:#1F28CF;}
	.we-are-in-office-3-21{fill:#2B44FF;}
	.we-are-in-office-3-22{opacity:0.2;}
</style>
<g id="Web" transform="translate(442.929 157.042)">
	<path id="Container-5" class="we-are-in-office-3-0" d="M166.5-156.7h210.9c2.9,0,5.3,2.4,5.3,5.3V66.7c0,2.9-2.4,5.3-5.3,5.3H166.5
		c-2.9,0-5.3-2.4-5.3-5.3v-218.1C161.3-154.4,163.6-156.7,166.5-156.7z"/>
	<path id="Background-9" class="we-are-in-office-3-1" d="M331.1-128.3h35.7c2.9,0,5.3,2.4,5.3,5.3v43c0,2.9-2.4,5.3-5.3,5.3h-35.7
		c-2.9,0-5.3-2.4-5.3-5.3v-43C325.8-125.9,328.2-128.3,331.1-128.3z"/>
	<g id="Profile_Info" transform="translate(259 58)">
		<circle id="Avatar-7" class="we-are-in-office-3-2" cx="90" cy="-165.8" r="10.6"/>
		<path id="Name-13" class="we-are-in-office-3-2" d="M75.4-152.6h29.1c1.1,0,2,0.9,2,2l0,0c0,1.1-0.9,2-2,2H75.4c-1.1,0-2-0.9-2-2l0,0
			C73.5-151.7,74.3-152.6,75.4-152.6z"/>
		<path id="Name-14" class="we-are-in-office-3-2" d="M80.7-146h18.5c1.1,0,2,0.9,2,2l0,0c0,1.1-0.9,2-2,2H80.7c-1.1,0-2-0.9-2-2l0,0
			C78.7-145.1,79.6-146,80.7-146z"/>
	</g>
	<path id="Header" class="we-are-in-office-3-3" d="M166.5-156.7h210.9c2.9,0,5.3,2.4,5.3,5.3v12.6l0,0H161.3l0,0v-12.6
		C161.3-154.4,163.6-156.7,166.5-156.7z"/>
	<g id="Buttons" transform="translate(9 10)">
		<circle id="buttons-2" class="we-are-in-office-3-0" cx="160.8" cy="-157.5" r="2.6"/>
		<circle id="buttons-3" class="we-are-in-office-3-0" cx="168.8" cy="-157.5" r="2.6"/>
		<circle id="buttons-4" class="we-are-in-office-3-0" cx="176.7" cy="-157.5" r="2.6"/>
	</g>
	<g id="Components" transform="translate(249 132)">
		<path id="Background-10" class="we-are-in-office-3-1" d="M82.1-201.5h35.7c2.9,0,5.3,2.4,5.3,5.3v117.7c0,2.9-2.4,5.3-5.3,5.3H82.1
			c-2.9,0-5.3-2.4-5.3-5.3v-117.7C76.8-199.1,79.2-201.5,82.1-201.5z"/>
		<g id="Rows-3" transform="translate(18 18)">
			<path id="Data" class="we-are-in-office-3-2" d="M73.4-207.6h17.2c1.5,0,2.6,1.2,2.6,2.6v11.9c0,1.5-1.2,2.6-2.6,2.6H73.4c-1.5,0-2.6-1.2-2.6-2.6
				V-205C70.7-206.4,71.9-207.6,73.4-207.6z"/>
			<path id="Data-2" class="we-are-in-office-3-4" d="M73.4-185.1h17.2c1.5,0,2.6,1.2,2.6,2.6v11.2c0,1.5-1.2,2.6-2.6,2.6H73.4
				c-1.5,0-2.6-1.2-2.6-2.6v-11.2C70.7-183.9,71.9-185.1,73.4-185.1z"/>
			<path id="Data-3" class="we-are-in-office-3-2" d="M73.4-163.3h17.2c1.5,0,2.6,1.2,2.6,2.6v11.2c0,1.5-1.2,2.6-2.6,2.6H73.4
				c-1.5,0-2.6-1.2-2.6-2.6v-11.2C70.7-162.1,71.9-163.3,73.4-163.3z"/>
			<path id="Data-4" class="we-are-in-office-3-2" d="M73.4-119.7h17.2c1.5,0,2.6,1.2,2.6,2.6v11.3c0,1.5-1.2,2.6-2.6,2.6H73.4
				c-1.5,0-2.6-1.2-2.6-2.6V-117C70.7-118.5,71.9-119.7,73.4-119.7z"/>
			<path id="Data-5" class="we-are-in-office-3-3" d="M73.4-141.5h17.2c1.5,0,2.6,1.2,2.6,2.6v11.3c0,1.5-1.2,2.6-2.6,2.6H73.4
				c-1.5,0-2.6-1.2-2.6-2.6v-11.2C70.7-140.3,71.9-141.5,73.4-141.5z"/>
		</g>
	</g>
	<g id="Rows-4" transform="translate(16 44)">
		<g id="Row-9">
			<path id="Container-6" class="we-are-in-office-3-1" d="M158.5-171.6h143.4c1.5,0,2.6,1.2,2.6,2.6v25.8c0,1.5-1.2,2.6-2.6,2.6H158.5
				c-1.5,0-2.6-1.2-2.6-2.6V-169C155.8-170.5,157-171.6,158.5-171.6z"/>
			<g id="Text_Stuff-3" transform="translate(9 14.1)">
				<path id="Label-5" class="we-are-in-office-3-2" d="M154.8-176.4h106.4c1.1,0,2,0.9,2,2v0.7c0,1.1-0.9,2-2,2H154.8c-1.1,0-2-0.9-2-2v-0.7
					C152.8-175.5,153.7-176.4,154.8-176.4z"/>
				<path id="Label-6" class="we-are-in-office-3-2" d="M154.8-168.7h70.1c1.1,0,2,0.9,2,2v0.7c0,1.1-0.9,2-2,2h-70.1c-1.1,0-2-0.9-2-2v-0.7
					C152.8-167.8,153.7-168.7,154.8-168.7z"/>
			</g>
			<g id="Check-3" transform="translate(193.954 16.5)">
				<circle id="Background-11" class="we-are-in-office-3-2" cx="94.7" cy="-172.6" r="4.6"/>
				<circle id="Indicator-3" class="we-are-in-office-3-0" cx="94.7" cy="-172.6" r="2"/>
			</g>
		</g>
		<g id="Row-10" transform="translate(0 55)">
			<path id="Container-7" class="we-are-in-office-3-1" d="M158.5-190.3h143.4c1.5,0,2.6,1.2,2.6,2.6v20.5c0,1.5-1.2,2.6-2.6,2.6H158.5
				c-1.5,0-2.6-1.2-2.6-2.6v-20.5C155.8-189.1,157-190.3,158.5-190.3z"/>
			<g id="Text_Stuff-4" transform="translate(9 11.7)">
				<path id="Label-7" class="we-are-in-office-3-2" d="M154.7-194.3h106.5c1.1,0,1.9,0.9,1.9,1.9l0,0c0,1.1-0.9,1.9-1.9,1.9H154.7
					c-1.1,0-1.9-0.9-1.9-1.9l0,0C152.8-193.4,153.6-194.3,154.7-194.3z"/>
				<path id="Label-8" class="we-are-in-office-3-2" d="M154.7-187.8h70.2c1.1,0,1.9,0.9,1.9,1.9l0,0c0,1.1-0.9,1.9-1.9,1.9h-70.2
					c-1.1,0-1.9-0.9-1.9-1.9l0,0C152.8-186.9,153.6-187.8,154.7-187.8z"/>
			</g>
			<g id="Check-4" transform="translate(193.954 12.5)">
				<circle id="Background-12" class="we-are-in-office-3-2" cx="94.7" cy="-189.9" r="4.6"/>
				<circle id="Indicator-4" class="we-are-in-office-3-0" cx="94.7" cy="-189.9" r="2"/>
			</g>
		</g>
		<g id="Row-11" transform="translate(0 102)">
			<path id="Container-8" class="we-are-in-office-3-1" d="M158.5-206.2h143.4c1.5,0,2.6,1.2,2.6,2.6v20.5c0,1.5-1.2,2.6-2.6,2.6H158.5
				c-1.5,0-2.6-1.2-2.6-2.6v-20.5C155.8-205,157-206.2,158.5-206.2z"/>
			<g id="Text_Stuff-5" transform="translate(9 11.7)">
				<path id="Label-9" class="we-are-in-office-3-2" d="M154.7-210.2h106.5c1.1,0,1.9,0.9,1.9,1.9l0,0c0,1.1-0.9,1.9-1.9,1.9H154.7
					c-1.1,0-1.9-0.9-1.9-1.9l0,0C152.8-209.3,153.6-210.2,154.7-210.2z"/>
				<path id="Label-10" class="we-are-in-office-3-2" d="M154.7-203.7h70.2c1.1,0,1.9,0.9,1.9,1.9l0,0c0,1.1-0.9,1.9-1.9,1.9h-70.2
					c-1.1,0-1.9-0.9-1.9-1.9l0,0C152.8-202.9,153.6-203.7,154.7-203.7z"/>
			</g>
			<g id="Check-5" transform="translate(193.954 12.5)">
				<circle id="Background-13" class="we-are-in-office-3-2" cx="94.7" cy="-205.8" r="4.6"/>
				<circle id="Indicator-5" class="we-are-in-office-3-4" cx="94.7" cy="-205.8" r="2"/>
			</g>
		</g>
		<g id="Row-12" transform="translate(0 243)">
			<path id="Container-9" class="we-are-in-office-3-1" d="M158.5-254h143.4c1.5,0,2.6,1.2,2.6,2.6v20.5c0,1.5-1.2,2.6-2.6,2.6H158.5
				c-1.5,0-2.6-1.2-2.6-2.6v-20.5C155.8-252.8,157-254,158.5-254z"/>
			<g id="Text_Stuff-6" transform="translate(9 11.7)">
				<path id="Label-11" class="we-are-in-office-3-2" d="M154.7-258h106.5c1.1,0,1.9,0.9,1.9,1.9l0,0c0,1.1-0.9,1.9-1.9,1.9H154.7
					c-1.1,0-1.9-0.9-1.9-1.9l0,0C152.8-257.1,153.6-258,154.7-258z"/>
				<path id="Label-12" class="we-are-in-office-3-2" d="M154.7-251.5h70.2c1.1,0,1.9,0.9,1.9,1.9l0,0c0,1.1-0.9,1.9-1.9,1.9h-70.2
					c-1.1,0-1.9-0.9-1.9-1.9l0,0C152.8-250.7,153.6-251.5,154.7-251.5z"/>
			</g>
			<g id="Check-6" transform="translate(193.954 12.5)">
				<circle id="Background-14" class="we-are-in-office-3-2" cx="94.7" cy="-253.6" r="4.6"/>
				<circle id="Indicator-6" class="we-are-in-office-3-0" cx="94.7" cy="-253.6" r="2"/>
			</g>
		</g>
		<g id="Row-13" transform="translate(0 196)">
			<path id="Container-10" class="we-are-in-office-3-1" d="M158.5-238.1h143.4c1.5,0,2.6,1.2,2.6,2.6v20.5c0,1.5-1.2,2.6-2.6,2.6H158.5
				c-1.5,0-2.6-1.2-2.6-2.6v-20.5C155.8-236.9,157-238.1,158.5-238.1z"/>
			<g id="Text_Stuff-7" transform="translate(9 11.7)">
				<path id="Label-13" class="we-are-in-office-3-2" d="M154.7-242.1h106.5c1.1,0,1.9,0.9,1.9,1.9l0,0c0,1.1-0.9,1.9-1.9,1.9H154.7
					c-1.1,0-1.9-0.9-1.9-1.9l0,0C152.8-241.2,153.6-242.1,154.7-242.1z"/>
				<path id="Label-14" class="we-are-in-office-3-2" d="M154.7-235.6h70.2c1.1,0,1.9,0.9,1.9,1.9l0,0c0,1.1-0.9,1.9-1.9,1.9h-70.2
					c-1.1,0-1.9-0.9-1.9-1.9l0,0C152.8-234.7,153.6-235.6,154.7-235.6z"/>
			</g>
			<g id="Check-7" transform="translate(193.954 12.5)">
				<circle id="Background-15" class="we-are-in-office-3-2" cx="94.7" cy="-237.7" r="4.6"/>
				<circle id="Indicator-7" class="we-are-in-office-3-0" cx="94.7" cy="-237.7" r="2"/>
			</g>
		</g>
		<g id="Row-14" transform="translate(0 149)">
			<path id="Container-11" class="we-are-in-office-3-1" d="M158.5-222.2h143.4c1.5,0,2.6,1.2,2.6,2.6v20.5c0,1.5-1.2,2.6-2.6,2.6H158.5
				c-1.5,0-2.6-1.2-2.6-2.6v-20.5C155.8-221,157-222.2,158.5-222.2z"/>
			<g id="Text_Stuff-8" transform="translate(9 11.7)">
				<path id="Label-15" class="we-are-in-office-3-2" d="M154.7-226.1h106.5c1.1,0,1.9,0.9,1.9,1.9l0,0c0,1.1-0.9,1.9-1.9,1.9H154.7
					c-1.1,0-1.9-0.9-1.9-1.9l0,0C152.8-225.3,153.6-226.1,154.7-226.1z"/>
				<path id="Label-16" class="we-are-in-office-3-2" d="M154.7-219.7h70.2c1.1,0,1.9,0.9,1.9,1.9l0,0c0,1.1-0.9,1.9-1.9,1.9h-70.2
					c-1.1,0-1.9-0.9-1.9-1.9l0,0C152.8-218.8,153.6-219.7,154.7-219.7z"/>
			</g>
			<g id="Check-8" transform="translate(193.954 12.5)">
				<circle id="Background-16" class="we-are-in-office-3-2" cx="94.7" cy="-221.8" r="4.6"/>
				<circle id="Indicator-8" class="we-are-in-office-3-0" cx="94.7" cy="-221.8" r="2"/>
			</g>
		</g>
	</g>
</g>
<g id="Cells" transform="translate(100.086 99.66)" class="we-are-in-office-3-5">
	<path id="Fill_5" class="we-are-in-office-3-6" d="M130.5-69.5c-1.6,1.6-1,7.2-1,9.2c-0.1,3.2,0.1,6.4,0.4,9.6c0.2,2.1,1.2,22.6,4,21
		c1.6-0.9,0.6-6.8,0.6-8.7c0-4.2-0.2-8.3-0.5-12.5c-0.2-3.7-0.3-7.6-0.2-11.4C133.8-63.3,134.7-73.8,130.5-69.5"/>
	<path id="Fill_7" class="we-are-in-office-3-6" d="M199-72c-13.5,0.1-27,0.8-40.5,1.2c-6.5,0.2-13,0.4-19.5,0.8c-2.2,0.1-7-0.6-8.8,0.5
		c-4.1,2.6,2.5,3.2,4.3,3.2c26.7-1,53.5-2.2,80.2-2.3c13.1,0,26.2,0.3,39.4,0.3c5,0,10.6-2.2,11.8,3.6c1.4,6.6-0.2,13.9-0.7,20.5
		c-0.2,4.4-0.2,8.8,0,13.2c0.1,2.8-0.2,6,0.3,8.8c0.5,2.7,2.4,4.3,4.2,1.3c1.1-1.8,0.5-6.2,0.6-8.3c0.1-2.8,0-5.6,0-8.4
		c0-6.8,1-13.6,0.8-20.4c-0.1-4.4-0.3-12.4-5.9-13.4c-6.1-1.2-13.6,0-19.9-0.1C229.9-71.7,214.5-72.2,199-72"/>
	<path id="Fill_9" class="we-are-in-office-3-6" d="M161.8-29.4c-5.1,0-10.2,0-15.3,0.1c-4.4,0.1-11.3-0.8-15.3,0.7c-2.8,1.1-3.5,4.2,0,5
		c3.8,0.9,9.6-0.5,13.6-0.6c20.2-0.4,40.5-0.8,60.7,0.5c18.9,1.2,38.1,2.4,57,1.1c1.6-0.1,9.7-0.4,6-3.5c-2.2-1.8-10.9-0.6-13.7-0.7
		c-9.9-0.3-19.8-0.4-29.7-0.7c-9.8-0.4-19.5-1.5-29.2-1.7C184.5-29.6,173.1-29.4,161.8-29.4"/>
	<path id="face" class="we-are-in-office-3-6" d="M157.6-35.3L157.6-35.3c-6.9,0-14.4-3.3-15.7-10.7c-0.1-0.4-0.1-0.9,0-1.3c0-0.5,0-0.9-0.1-1.4
		c-0.1-0.3-0.2-0.6-0.4-0.8c-0.3-0.3-0.4-0.7-0.5-1.1c0-2,1.2-3.1,2.5-4.4c0.5-0.5,1-1,1.5-1.5c2.7-3.1,4.4-4.7,8-6.1
		c1.1-0.4,2.3-0.6,3.4-0.6c3.7,0.2,7.2,1.5,10,3.9c3.1,2.4,5.3,5.5,6,8.4c0.7,3.1,0.1,6.4-1.7,9.1c-2,3.1-5.1,5.2-8.7,6
		C160.5-35.4,159-35.3,157.6-35.3z M146.8-51.2L146.8-51.2c-1,2.5-0.8,5.3,0.8,7.5c2,2.9,6,4.7,10.1,4.7c2.4,0,4.7-0.6,6.7-2
		c2.8-1.8,4.1-5.3,3-8.5c-1.4-4.7-6.2-8.7-10.8-8.9c-0.3,0.3-0.6,0.4-1,0.5c-0.1,0-0.3,0-0.4-0.1l0,0c-0.1-0.1-0.3-0.1-0.4-0.1
		c-0.1,0-0.2,0-0.3,0c-1.2,0.5-2.4,1.2-3.4,2l-0.2,0.2l-0.3,0.2c-1.1,0.7-2,1.6-2.9,2.5c0,0-0.1,0.2-0.2,0.5
		C147.2-52.1,146.8-51.2,146.8-51.2L146.8-51.2L146.8-51.2z"/>
	<path id="Fill_13" class="we-are-in-office-3-6" d="M149.5-50.1c0,3.2,5.1,3.2,5.1,0C154.6-53.2,149.5-53.4,149.5-50.1"/>
	<path id="Fill_15" class="we-are-in-office-3-6" d="M155.9-50.7c0,2.6,4,2.6,4,0C159.9-53.2,155.9-53.3,155.9-50.7"/>
	<path id="Fill_17" class="we-are-in-office-3-6" d="M157.1-45.4c-1.3,0.5-2.9-0.5-4,0.1c-1.9,1.2,0,2.3,1,2.8C158.7-40.3,159.5-46.3,157.1-45.4"/>
	<path id="Fill_19" class="we-are-in-office-3-6" d="M181.6-46.3c-0.2,0-0.4,0-0.6-0.1c-1.1-0.3-1.6-0.9-1.4-1.8c0.2-1.2,1.6-3,3.7-4.7
		c2.1-1.6,4.2-2.6,5.6-2.6c0.1,0,0.2,0,0.3,0c1.3,0.3,2.6,0.9,3.7,1.7c1.1,0.9,2.4,1.5,3.8,1.7c0.2,0,0.5,0,0.7,0
		c1.9-0.2,3.8-0.8,5.4-1.9c1.2-0.7,2.5-1.3,3.9-1.7c0.6-0.1,1.3-0.2,2-0.2c2.5,0,4.7,1.1,6.7,2.1l0,0c2.1,1,4.2,2.1,6.6,2.1
		c1,0,2-0.2,3-0.5c0.3-0.1,0.7-0.3,1.1-0.5l0,0c0.4-0.2,0.8-0.4,1.2-0.6c1.4-0.8,2.9-1.3,4.4-1.6c0.1,0,0.3,0,0.4,0
		c2.1,0,4,1.2,5.7,2.3c0.7,0.4,1.4,0.9,2.1,1.3c0.3,0.2,0.7,0.3,1.1,0.3c0.8,0.2,1.6,0.4,1.8,1.4c0.1,0.4,0,0.8-0.2,1.1
		c-0.3,0.3-0.7,0.4-1.1,0.4c-0.3,0-0.7,0-1-0.1c-0.1,0-0.3,0-0.4,0c-1.4-0.3-2.8-0.9-3.9-1.8c-1.1-0.9-2.4-1.5-3.8-1.7
		c-0.1,0-0.3,0-0.4,0c-1.8,0.2-3.5,0.8-5,1.7c-1.2,0.7-2.5,1.2-3.8,1.5c-0.6,0.1-1.2,0.2-1.8,0.2c-2.2-0.1-4.4-0.7-6.3-1.9l-0.7-0.3
		c-2-1.1-3.6-1.9-5.6-1.9c-1.1,0-2.1,0.2-3.1,0.7c-0.9,0.4-1.7,0.8-2.5,1.2c-2.1,1-4,1.9-6.3,1.9c-0.5,0-1,0-1.5-0.1
		c-1.1-0.3-2.1-0.7-3.1-1.3c-1.1-0.7-2.4-1.2-3.7-1.4c-0.1,0-0.2,0-0.3,0c-1.2,0.1-2.2,1.3-3.1,2.5C184.1-47.6,183-46.3,181.6-46.3z
		"/>
	<path id="Fill_21" class="we-are-in-office-3-7" d="M212.7-9.1C198.8-9,184.9-8.8,171-7.7c-3.3,0.3-36.8,3.4-36.7,3.7c0.1,0.4,4.4,1.1,4.4,1.2
		c-0.3-0.7-1-1-2-0.9c31.8,0,63.5-2.8,95.3-2.3c8,0.1,16,0.1,24,0.3c2,0.1,6.9,1.5,8.5,0.6c4.1-2.4-3.4-2.6-4.6-2.7
		C244.3-9.1,228.4-9.2,212.7-9.1"/>
	<path id="Fill_23" class="we-are-in-office-3-7" d="M130.2-2.3c-2.1,2.1-0.2,9.6-0.1,12.4c0.1,4.1,0,8.2,0.4,12.2c0.3,4.7,1.1,9.5,2.3,14.1
		c0.7,2.5,3,6.4,4,1.9c0.7-3.2-0.3-7.5-0.7-10.8c-0.4-4.4-0.6-8.7-0.6-13.1c0-3.8-0.1-7.7-0.4-11.5C134.8,0.9,133.8-6,130.2-2.3"/>
	<path id="Fill_25" class="we-are-in-office-3-7" d="M182.4,35.8c-9.9,0.2-19.7,0.4-29.6,1c-4,0.3-8.1,0.6-12.1,1.1c-0.8,0.1-9.9,0.5-5.8,3.8
		c1.8,1.5,9.4-0.6,11.8-0.8c4.2-0.4,8.4-0.6,12.6-0.8c9.7-0.4,19.5-0.8,29.2-0.6c17.8,0.3,35.4,0.4,53.2,0.1
		c2.5-0.1,22.3,0.5,23-2.2c0.5-2.1-6.5-1.1-7.8-1.1c-4.7,0.1-9.5,0.1-14.2,0.1C222.6,36.3,202.4,35.5,182.4,35.8"/>
	<path id="Fill_27" class="we-are-in-office-3-7" d="M261.3-5.9c0.3,8.8,1.8,17.5,2.3,26.3c0.2,4,0.5,8,0.7,12.1c0.1,1.3-0.5,4.4,1.1,5.2
		c2.1,1,2.4-1,2.8-2.4c1.1-4,0.4-9.3,0.3-13.4c-0.1-4-0.1-8-0.4-12c-0.3-4.1-1.1-8.1-1.5-12.2C266.4-4,267-6.9,265.2-8
		c-1.2-0.7-2.7-0.3-3.4,0.9C261.4-6.7,261.3-6.3,261.3-5.9"/>
	<path id="face-2" class="we-are-in-office-3-7" d="M159.9,31.1L159.9,31.1c-2.7,0-7.8-0.4-11.9-2.4s-6.2-5.2-6.3-9.3c0.1-4.1,1.6-8.1,4.2-11.3
		c1.3-1.6,2.9-3,4.6-4.1c1.7-1,3.7-1.7,5.7-1.8c0.2,0,0.5,0,0.7,0c1.9,0,3.9,0.4,5.7,1.1c1.9,0.7,3.6,1.7,5.2,3
		c1.6,1.2,3,2.7,4.1,4.4c1.1,1.6,1.9,3.4,2.4,5.2c0.9,3.4,0.2,7-2,9.8c-1.5,1.8-3.3,3.2-5.4,4C164.7,30.6,162.4,31.1,159.9,31.1
		L159.9,31.1L159.9,31.1z M156.1,6.1c-3,0.1-5.9,1.6-7.8,3.9c-2,2.3-3.1,5.3-3.2,8.3c-0.2,2,0.6,4.1,2,5.5c1.6,1.5,3.6,2.5,5.8,3
		c2.2,0.5,4.5,0.8,6.8,0.7h0.5c3.9,0,7.5-1.6,9.4-4.1c1.5-2,1.9-4.5,1.1-6.9c-0.5-1.6-1.2-3-2.3-4.3c-1-1.3-2.2-2.4-3.5-3.4
		c-1.7-1.3-3.8-2-5.9-2.2C157.9,6.6,157,6.4,156.1,6.1z"/>
	<path id="Fill_31" class="we-are-in-office-3-7" d="M148.1,14.6c0,2.6,4.1,2.6,4.1,0C152.2,12.1,148.1,12,148.1,14.6"/>
	<path id="Fill_33" class="we-are-in-office-3-7" d="M156.7,13.5c0,2.6,4.1,2.6,4.1,0S156.7,10.8,156.7,13.5"/>
	<path id="Fill_35_1_" class="we-are-in-office-3-7" d="M152,19.4c-2.7,2.7,6.7,7.3,8.9,3.6c1.8-3-2.1-2-3.5-2.2C155.8,20.6,153.2,18.2,152,19.4"/>
	<path id="Fill_37_1_" class="we-are-in-office-3-7" d="M182,18.4L182,18.4c-0.5,0-1.1-0.2-1.5-0.5c-0.4-0.6-0.6-1.3-0.6-2c0.1-3.2,8.9-6.2,11.7-6.7
		c0.5-0.1,1-0.1,1.4-0.1c2.1,0.1,4.1,0.8,5.9,1.9l0,0c1.8,1.1,3.9,1.7,6,1.9c0.6,0,1.2-0.1,1.8-0.2c1.1-0.3,2.2-0.6,3.2-1.1
		c1.4-0.6,2.9-1.1,4.5-1.3c0.3,0,0.5,0,0.7,0c1.6,0,3.2,0.6,4.5,1.6c0.8,0.5,1.6,1,2.5,1.4c0.6,0.2,1.2,0.4,1.8,0.4
		c0.4,0,0.9,0,1.3-0.1l0,0c0.5-0.1,0.9-0.1,1.4-0.1c0.1,0,0.3,0,0.4,0c1.3,0.1,2.2,0.5,2.3,1.2c0.2,0.8-0.6,1.6-1.9,2.3
		c-0.9,0.5-1.8,0.7-2.8,0.7c-1.6-0.1-3.1-0.7-4.4-1.6s-2.8-1.5-4.4-1.8c-0.2,0-0.5,0-0.7,0c-2,0.1-3.9,0.7-5.7,1.6h-0.1
		c-1.9,0.9-3.9,1.5-5.9,1.6c-0.1,0-0.2,0-0.3,0c-1.9-0.2-3.7-0.7-5.4-1.6c-1.5-0.8-3.1-1.3-4.8-1.4c-0.9,0-1.9,0.2-2.8,0.6
		c-0.3,0.1-0.9,0.4-1.5,0.8C186.8,16.8,183.9,18.4,182,18.4z"/>
	<path id="point" class="we-are-in-office-3-7" d="M247,20.3L247,20.3c-1.6-0.1-3-0.8-4.1-1.9c-1.2-1.2-2-2.6-2.4-4.2c-0.7-2.5,0.6-5.1,3-6.1
		c0.4-0.2,0.8-0.3,1.3-0.2c2.1,0.2,4.2,1.1,5.8,2.5c1.1,1.1,1.8,2.6,1.7,4.2c0,1.8-0.8,3.4-2.1,4.6C249.3,19.9,248.2,20.3,247,20.3z
		 M245.1,11.8c-0.6,0.8-0.7,1.9-0.2,2.7c0.4,1,1.2,1.7,1.9,1.7c0.1,0,0.2,0,0.3,0c0.8-0.2,1.2-0.5,1.3-0.9
		C248.4,14.1,245.6,12.1,245.1,11.8L245.1,11.8z"/>
	<path id="Fill_41_1_" class="we-are-in-office-3-6" d="M171.1,57.7c-9.6,0-19.3-0.2-28.9,0.4c-1.6,0.1-7.8-0.2-8.6,1.5c-1.5,3.1,4.8,1.6,5.7,1.5
		c19.1-1.9,39.1-0.8,58.3-0.3c15.7,0.4,31.3,0.7,47,1.5c4.1,0.2,8.2,0.4,12.4,0.7c1.3,0.1,4.7,1,5-1.2c0.3-2-4-1.5-5-1.6
		c-8.4-0.4-16.7-0.9-25.1-1.4C211.7,57.7,191.3,57.7,171.1,57.7"/>
	<path id="Fill_43_1_" class="we-are-in-office-3-6" d="M133.2,61.2c-1.8,1.8-1,8.6-1,10.9c-0.1,3.9-0.3,7.8-0.4,11.8c-0.1,4.1,0,8.3,0.3,12.4
		c0.1,1.7,1.5,10.1,3.8,5.3c1-2.1,0-8.1,0-10.5c0-4.4,0.3-8.8,0.5-13.2c0.2-3.8,0.2-7.6,0.4-11.3C136.8,65.3,136.9,57.4,133.2,61.2"
		/>
	<path id="Fill_45_1_" class="we-are-in-office-3-6" d="M263.6,96.4c-9.4,1-18.9,0.5-28.3,1.2c-8.1,0.6-16.2,0.9-24.3,1c-18.4,0.4-36.8,0.8-55.2,2.3
		c-4.2,0.3-8.4,0.7-12.5,0.9c-2.1,0.1-10.9-0.9-11.5,1.3c-1.1,3.8,8.3,2.3,10.3,2.2c4.5-0.1,8.9-0.5,13.4-0.8
		c18.7-1.4,37.5-1.9,56.2-2.4c10.2-0.3,20.3-1.1,30.5-1.7c5.1-0.3,10.2-0.3,15.2-0.7c1.3-0.1,6,0.1,7-1
		C264.9,98,265.1,96.3,263.6,96.4"/>
	<path id="Fill_47_1_" class="we-are-in-office-3-6" d="M260.4,61.8c0.3,9,0.8,18,1.1,26.9c0.1,2.7-0.7,7.5,0.8,9.9c2.4,3.8,4.3-0.2,4.7-2.6
		c1.4-7.5-0.1-15.9-0.5-23.4c-0.1-2.9,0.7-9.3-0.6-11.9C264.6,58.2,260.3,58.5,260.4,61.8"/>
	<path id="hola_:_" class="we-are-in-office-3-6" d="M244.7,87.2c-0.8,0-1.7-0.2-2.4-0.4c-1-0.4-2-1-2.7-1.8s-1.3-1.8-1.6-2.8
		c-0.4-1.5-0.2-3.1,0.6-4.4c0.4-0.8,0.7-1.7,0.8-2.6c0-0.3,0-0.6-0.1-0.9c-0.2-0.7-0.2-1.4,0.1-2.1c0.3-0.4,1.1-0.6,2.4-0.6
		c0.5,0,0.9,0,1.3,0c0.2,0,0.4,0,0.6,0c0.4-0.1,0.8-0.1,1.2-0.1c1.7,0,3.4,1,4.2,2.5c1,1.6,1.5,3.5,1.5,5.4c0.1,2.3-0.7,4.6-2.2,6.4
		C247.4,86.7,246.1,87.2,244.7,87.2z M244.7,74.6L244.7,74.6c-2.2,1-4,5-3.4,7.4c0.2,1.3,1.4,2.1,2.7,2c0.3,0,0.5,0,0.8-0.1
		c1.9-0.3,2.7-2.2,2.8-3.9c0.1-1.2-0.1-2.4-0.6-3.4C246.5,75.7,245.7,74.9,244.7,74.6z"/>
	<path id="Fill_51" class="we-are-in-office-3-6" d="M154.5,91.4L154.5,91.4c-4.7,0-9.1-2.4-11.7-6.4c-2.2-3.6-2.3-8.1-0.3-11.8
		c-0.2,0.2-0.5,0.3-0.8,0.4c-0.7,0-1.1-1-1.2-1.6c-0.2-0.9,1.2-2.5,2.2-3.6c0.2-0.2,0.4-0.5,0.5-0.6c2.1-2.5,4.5-4.9,8.2-5
		c0.1,0,0.3,0,0.4,0c3.2,0.1,6.2,1.2,8.6,3.3c2.5,2.1,4.4,4.7,5.6,7.8c1,2.4,1.3,5,0.9,7.6c-0.4,2.6-1.7,5-3.8,6.7
		C160.7,90.3,157.7,91.4,154.5,91.4z M151.1,69.4c-0.3,0-0.6,0-0.9,0.1c-1.4,0.5-2.7,1.5-3.5,2.8c-0.9,1.2-1.6,2.6-2,4.1
		c-0.8,2.5-0.5,5.1,0.7,7.4c1.3,2.1,3.5,3.7,5.9,4.2c1,0.3,2,0.4,3.1,0.4c1.9,0,3.8-0.5,5.4-1.5c1.6-1.1,2.8-2.8,3.3-4.7
		c0.9-3,0.4-6.3-1.4-8.9c-1.8-2.6-4.3-4.6-7.2-5.8c0,0.1,0,0.2,0,0.3l0,0v0.1l0,0V68l0,0l0.1,0.5c-0.2,0.9-1.2,1-2.1,1
		c-0.2,0-0.5,0-0.8,0h0.1C151.6,69.4,151.4,69.4,151.1,69.4z M151.3,66.2c-1.5,0-2.9,0.6-4.1,1.5C148.4,66.9,149.9,66.3,151.3,66.2
		L151.3,66.2z"/>
	<path id="Fill_53" class="we-are-in-office-3-6" d="M148.1,74.8c0,0.7,0.6,1.3,1.4,1.3c0.7,0,1.3-0.6,1.3-1.3s-0.6-1.3-1.4-1.3
		C148.7,73.6,148.1,74.1,148.1,74.8"/>
	<path id="Fill_55" class="we-are-in-office-3-6" d="M152.6,75.1c0,0.8,0.7,1.3,1.4,1.3s1.3-0.6,1.3-1.3c0-0.8-0.7-1.3-1.4-1.3
		C153.2,73.9,152.7,74.4,152.6,75.1"/>
	<path id="Fill_57" class="we-are-in-office-3-6" d="M154.7,81.3c-1.3,0.1-5.9-0.3-6.7,0.8c-1.4,1.9,0.8,1.9,1.9,2.1c1,0.2,5.2,0.1,5.8-0.8
		C156.1,82.7,156,81.2,154.7,81.3"/>
	<path id="Fill_59" class="we-are-in-office-3-6" d="M169.7,84.5L169.7,84.5c-0.7,0-1.2-0.5-1.6-1.4c-0.8-2,2.2-4.6,3.2-5.4c1.2-1.1,2.7-1.8,4.4-1.8
		c0.9,0,1.8,0.2,2.6,0.5c0.7,0.2,1.4,0.5,2,0.8c1,0.5,2.2,0.8,3.3,0.9c0.5,0,1.1-0.1,1.6-0.2c1.1-0.3,2.2-0.7,3.3-1.1
		c1.5-0.7,3.1-1.2,4.8-1.4c0.2,0,0.4,0,0.6,0c1.8,0.1,3.6,0.5,5.3,1.3c1.2,0.5,2.3,0.8,3.5,1.1c0.8,0.2,1.6,0.2,2.4,0.2
		c1.9,0,3.8-0.5,5.5-1.2s3.4-1.1,5.2-1.2c1.2,0,2.4,0.2,3.6,0.6c0.2,0.1,0.5,0.1,0.9,0.3c2.1,0.6,6.4,1.8,6.6,2.5
		c0.2,0.4,0.1,1-0.1,1.4c-0.3,0.4-0.8,0.5-1.3,0.5c-1.3-0.1-2.5-0.4-3.7-0.8l0,0l-0.2-0.1c-0.5-0.2-1-0.3-1.4-0.5
		c-1.6-0.7-3.3-1.1-5-1.2c-0.8,0-1.6,0.1-2.3,0.3c-0.9,0.3-1.7,0.5-2.5,0.8c-2,0.8-4.2,1.2-6.4,1.3c-0.6,0-1.2,0-1.8-0.1
		c-1.2-0.2-2.3-0.5-3.4-0.9c-1.5-0.6-3-0.9-4.5-1h-0.1c-1.9,0.1-3.8,0.7-5.4,1.5c-1.2,0.6-2.5,1-3.7,1.3c-0.4,0.1-0.8,0.1-1.3,0.1
		c-1.2-0.1-2.5-0.3-3.6-0.8h-0.1c-1.1-0.4-2.2-0.7-3.3-0.7c-0.3,0-0.5,0-0.8,0.1c-1,0.4-1.8,1.1-2.5,1.9
		C172.2,83.1,170.9,84.5,169.7,84.5z"/>
</g>
<path id="Fill_79" class="we-are-in-office-3-8" d="M977.1,0c-7.8,0.1-26.9,2.4-29.8,9.9c-2.2,5.7,4.3,4.4,7.7,2.4c4.4-2.8,9.4-4.6,14.5-5.3
	c22-3.2,43.1,8.4,64.9,9.8c8.2,0.6,18.2,0.9,26.1-1.3c5.6-1.5,6.3-4.9-0.1-5.4c-5.4-0.4-11.5,0.9-17,0.9
	C1020.3,10.8,999.8-0.4,977.1,0"/>
<g id="Whiteboard_Stuff" transform="translate(911.03 120.696)" class="we-are-in-office-3-5">
	<path id="Wireframy_Stuff-2" class="we-are-in-office-3-6" d="M142,14.3c-2.2-1-2.1-2.1-1.3-3c-0.5-1.2-0.5-3.2-0.6-4.1c-0.5-3.9-0.8-7.9-0.8-11.8
		c0-7.8,0-15.9,2.2-23.4c-0.8-0.2-1.3-0.9-1.4-1.7c0-3.9,12-3.8,18.1-3.7c1.3,0,2.3,0,2.9,0c4.4-0.1,8.7-0.1,13.1-0.1
		c1,0,2-0.1,3.1-0.1c2.2-0.2,4.4-0.2,6.5,0.2c5.6,1.3,5.2,10.9,5.3,15.5c0.2,8.4,0,16.9-0.6,25.3c-0.2,2.9-2.3,6.5-4.7,2.5
		c-1.3-2.2-0.7-7.3-0.7-9.8c0-8.6,1.3-17.5,0.1-26.1c-0.4-2.8-0.3-3-3.2-2.9c-2.3,0-4.5,0.1-6.8,0.2c-4.5,0-9.1,0.1-13.8,0.3
		c-1.8,0.1-8.1,1.2-13,1.2v0.1c0.1,3.3-1.6,7.4-1.8,10.9c-0.5,8.4,0.2,17-0.6,25.4c0,0.3,0,0.5-0.1,0.8c0.1,0,0.3,0,0.4,0
		c3.7-0.2,7.4-0.1,11.1-0.2c2.3-0.1,4.7-0.1,7.1,0c5.3,0.1,10.5-0.1,15.7-0.6c1.5-0.2,2.1,1.8,1.4,2.8c-0.8,1.1-3.2,1.1-4.4,1.2
		c-3.3,0.4-6.7,0.7-10,0.8c-3.5,0.2-7,0.3-10.6,0.4c-2,0.1-5.8,0.6-8.8,0.6C144.5,15,143.2,14.8,142,14.3z"/>
	<path id="Wireframy_Stuff-3" class="we-are-in-office-3-6" d="M209.9,13.3c0-0.3,0.1-0.7,0.3-0.9c-0.7-0.7-1.1-1.6-1.4-2.5c-1.2-3.8-1.3-8-1.4-12
		c-0.2-8.5-0.1-17.1-0.1-25.6c-0.8-1-0.3-2.2,0.7-3.1c2.6-2.2,10.1-1.7,13.4-1.8c4.8-0.3,9.5-0.3,14.3-0.3c5,0,10.1,0.1,15.1,0.2
		c1.9,0.1,14.9,0.4,9.1,3.5c-0.4,0.2-0.7,0.3-1.1,0.5c0.2,1.2,0.3,2.4,0.2,3.6c-0.2,4.5-0.4,9.1-0.6,13.6
		c-0.2,5.1-0.4,10.1-0.6,15.2c-0.1,2.7,0.8,8.9-1.3,10.8c-0.5,0.5-1.1,0.8-1.8,0.9c-0.5,0-1-0.3-1.3-0.7c-3.6,1.1-10.7,0.9-15.2,0.7
		c-1.8-0.1-3.1-0.2-3.7-0.1c-2,0-8.7,0.7-14.6,0.7C214.6,16,209.9,15.4,209.9,13.3z M230.1-28.5c-5.3,0-10.5,0.3-15.8,0.9
		c-0.3,0-0.6,0.1-1,0.2c0.8,3.2-0.2,8.6-0.2,11.7c0,8.6,0.3,17.2,0.5,25.8c0,0.3,0,0.5,0,0.8c4.1-0.9,10.8-0.7,15.1-0.5
		c1.7,0.1,3.1,0.1,3.8,0.1c4.2,0,8.5,0,12.7,0.2c0.5,0,1.2,0,2.1,0c1.7-0.1,3.3,0,5,0.1c0-0.2,0-0.4,0-0.6c-0.2-4.6,0-9.2,0.2-13.7
		c0.1-4.6,0.4-9.2,0.6-13.8c0.1-2.4-0.5-7.3,0.1-10.7c-3.1-0.1-6.3-0.4-8.4-0.4c-2.6,0-5.2,0-7.8,0
		C234.6-28.6,232.3-28.6,230.1-28.5z"/>
	<path id="Fill_135" class="we-are-in-office-3-9" d="M161.4,14.1c-3.1,1.8-1.4,9.1-0.4,11.7c1.8,4.2,5.4,7.4,9.3,9.6c7.9,4.4,19.2,3.2,25.2,10.8
		c0.1,0.1,2.1,2.1,2.6-0.5c0.4-2.2-3.5-5.5-5-6.6c-4.2-3.1-9.7-4.1-14.6-5.6c-5.2-1.6-11-4.7-13.2-10.1
		C164.7,21.3,166.1,11.3,161.4,14.1"/>
	<path id="Fill_137" class="we-are-in-office-3-9" d="M232.9,17.6c-2.9,0.8-1,4.7-1,6.7c0,2.5-0.8,5-2.3,7c-3.9,5-11.4,5.7-17,7.2
		c-4.1,1-13.9,3.3-14.3,8.8c-0.4,6.2,8.2-1.3,9-1.7c8.1-3,18.6-3.5,24.8-10.1c2.6-2.7,4.1-6.3,4.3-10
		C236.5,23.4,236.6,16.6,232.9,17.6"/>
	<path id="Fill_139" class="we-are-in-office-3-6" d="M197.3,92.3L197.3,92.3c-2.8,0-5.6-0.5-8.3-1.4s-5.3-2.3-7.6-4s-4.1-3.8-5.6-6.2
		c-1.4-2.5-2.2-5.2-2.2-8.1c0-2.7,0.6-5.4,1.8-7.8c1.2-2.3,2.9-4.4,4.8-6.1c4.1-3.4,9-5.9,14.2-7.2c1.7-0.4,3.4-0.7,5.1-0.7
		c4.8,0,9.4,1.8,12.9,5.1c3.6,3.4,5.9,7.9,6.4,12.8c0.7,5.7-1,11.5-4.7,15.9c-1.9,2.3-4.3,4.1-7,5.4c-2.8,1.4-5.9,2.1-9,2.2
		C197.9,92.2,197.6,92.3,197.3,92.3z M180.9,65.3c-2.4,4.2-2.6,8.4-0.4,12.2c3.1,5.3,10.3,9,17.6,9c2.4,0,4.8-0.5,7.1-1.4
		c7.3-3.4,9.3-11.3,8-17.3c-1.1-5.2-5.1-10.7-12.9-10.8c0.5,0.6,0.7,1.3,0.7,2.1c-0.1,0.4-0.4,0.8-0.7,1c-0.3,0.2-0.6,0.3-0.9,0.3
		c-0.7,0-1.2-0.7-1.6-1.3c-0.3-0.6-0.8-1-1.4-1.3c-0.2,0-0.4-0.1-0.5-0.1c-1.4,0-3.2,1.1-4.5,2.1c-0.7,0.6-1.4,1.3-2,2
		c-1.9,2.1-4.4,4.9-6.4,4.9C182.1,66.7,181.3,66.1,180.9,65.3z"/>
	<path id="Fill_141" class="we-are-in-office-3-6" d="M189.4,68.7c0,2.6,4.2,2.6,4.2,0C193.5,66.1,189.4,66,189.4,68.7"/>
	<path id="Fill_143" class="we-are-in-office-3-6" d="M196.7,68.2c0,3.2,5.1,3.2,5.1,0S196.7,64.9,196.7,68.2"/>
	<path id="Fill_145" class="we-are-in-office-3-6" d="M191.5,75.7c-4.2,2.5,7.7,7.3,8.2,2.3c0.2-2.1-1.9-1.6-3.3-1.7C195.1,76.2,192.7,75,191.5,75.7"
		/>
	<path id="Fill_147" class="we-are-in-office-3-9" d="M189.7,93.1c0.2,6.3,0.1,12.5,1.3,18.7c0.2,1.2,0.4,5.4,1.3,6.3c2.3,2.1,2.3-2,2.4-3.5
		c0.3-5.6-0.3-11.4-0.4-17.1c0-1.2,0.3-3.7-0.3-4.9C193.1,90.7,189.6,90.1,189.7,93.1"/>
	<path id="Fill_149" class="we-are-in-office-3-9" d="M185.2,88c-9.1,10.3-21.7,9.5-34.4,10.4c-6.7,0.5-13.5,1.4-18.9,5.8c-2.5,2-4.6,4.5-6.1,7.4
		c-0.6,1.3-3.6,8.5,0.9,6.8c1.6-0.6,3.2-5.4,4.2-6.8c1.9-2.7,4.5-4.9,7.5-6.4c5.8-2.8,12.8-2.7,19.2-3.1c6.6-0.4,13.7-0.7,19.8-3.6
		c2.9-1.3,5.5-3.1,7.9-5.2c0.8-0.8,2.6-2.1,2.7-3.3C188.2,88.6,186.9,86.1,185.2,88"/>
	<path id="Fill_151" class="we-are-in-office-3-6" d="M139.1,119.5c-8.6,0.3-17.1,0.6-25.7,1.2c-1.8,0.1-7.6-0.2-6.1,3.4c1.2,2.9,8.3,1,10.7,0.8
		c8.9-0.5,17.9-0.7,26.8-1.5c2-0.2,11-0.1,7.3-3.7C150.3,118,141.6,119.4,139.1,119.5"/>
	<path id="Fill_153" class="we-are-in-office-3-6" d="M101.8,123.6c-2.7,3.6-1.5,12.2-1.3,16.5c0.2,4.1-0.6,11.7,4.8,12.3c-1.7-0.2,1.3,0.1,1.8,0.1
		c1.1,0.1,2.2,0.1,3.3,0.1c2.5,0,5.1,0,7.6-0.1c5.7-0.1,11.5-0.3,17.2-0.6c2.4-0.1,15.5,0,16-2.5c0.7-3.2-11.9-1.4-14.1-1.3
		c-5.5,0.3-10.9,0.3-16.4,0.4c-2.7,0-5.4,0.1-8.1,0c-1.1,0-5.6,0.4-6.2-0.3c-0.6-0.6-0.1-6.5-0.1-7.4c0-2.9,0-5.8,0.1-8.8
		c0.1-2,1.1-5.7,0.3-7.5c-0.7-1.5-2.5-2.2-4-1.5C102.3,123.2,102.1,123.4,101.8,123.6"/>
	<path id="Fill_155" class="we-are-in-office-3-6" d="M146,123.8c0.2,6.5,0.2,13.1,1.7,19.5c0.5,2.1,1.2,6.5,3.4,7.6s4.2-0.5,4.3-2.7
		c0.2-2.8-1.3-6.4-1.6-9.3c-0.4-3.3-0.6-6.7-0.7-10c-0.1-2.5,0.7-6.3-1.7-7.9c-1.6-1.1-3.7-0.6-4.8,1
		C146.2,122.5,146,123.1,146,123.8"/>
	<path id="Wireframy_Stuff-4" class="we-are-in-office-3-6" d="M169,150.1c-2-0.1-4.2-0.8-3.7-3.4c0.5-2.3,2.8-2.4,4.7-2.6c5.8-0.6,11.6-0.8,17.4-0.8
		c12.2,0,24.5,0,36.7-0.1c0.5,0,1,0.2,1.4,0.5c-0.6-0.8-0.3-1.9-0.5-3c-0.3-3-0.5-6-1.1-9c-0.5-2.4-0.8-6.5-3-8.1
		c-1.9-1.3-5.6-1.2-8.6-1.2c-0.8,0-1.6,0-2.2,0c-7.9-0.1-15.8,0.3-23.6,1.1c-3.6,0.3-7.2,0.6-10.7,1.2c-2,0.4-7.7,3.2-9.3,1.5
		c-3.8-4.3,12.8-6,15.1-6.3c8-0.8,16-1.4,24.1-1.5c5.4,0,14.8-0.5,18.8,4c2.4,2.7,3.2,7.1,4.2,10.4c0.7,2.6,2.7,7.2,1.3,9.9
		c-0.6,1.2-1.6,2.2-3.2,1.8c-0.3-0.1-0.6-0.2-0.9-0.4c0.6,0.6,0.8,1.6,0.5,2.4c-0.9,2.1-4.3,1.7-6.1,1.8c-6.1,0.5-12.3,0.9-18.4,0.9
		c-2.9,0-5.8,0-8.8,0s-6-0.1-9,0c-4.5,0-9.2,0.9-13.6,0.9C169.9,150.2,169.4,150.2,169,150.1z"/>
	<path id="Line" class="we-are-in-office-3-9" d="M271,114.9L271,114.9c-1.5,0-3-2.5-4-4.2c-0.3-0.5-0.5-0.9-0.9-1.3c-1.7-2.4-4.1-4.1-6.8-5.1
		c-5.2-1.8-11-2.4-16.5-3.1c-1.9-0.2-3.9-0.4-5.7-0.7c-1-0.1-2-0.3-3-0.4c-5-0.6-10.7-1.4-15-3.8c-1.9-1.1-7.8-6.5-7.9-10.1
		c0-1,0.5-1.9,1.4-2.4c0.4-0.3,1-0.4,1.5-0.5c1.4,0,2.2,1.6,2.9,2.9c0.2,0.4,0.4,0.9,0.7,1.2c1.6,2.6,4.2,4.5,7.2,5.2
		c4.6,1.2,9.2,2.1,13.9,2.7c1.2,0.2,2.4,0.4,3.7,0.6c1,0.2,2,0.3,3,0.5c5.5,0.8,11.2,1.7,16.2,3.9c2.3,1.4,4.4,3.1,6.2,5.1
		c1.7,1.8,4.6,5.1,4.8,7.4c0.1,0.8-0.3,1.5-1,1.8C271.5,114.9,271.2,114.9,271,114.9z"/>
	<path id="Wireframy_Stuff-5" class="we-are-in-office-3-6" d="M242.5,149.2c-2.1-0.2-4.3-0.9-3.8-3.6c-1.5-2.8-2.1-8.2-2.3-9.2
		c-0.5-4.5-0.7-9.1-0.5-13.7c0-1.7,1.4-3,3.1-2.9c0.6,0,1.2,0.2,1.7,0.6c2.5-1,6.7-1.2,9-1.4c3.7-0.4,7.5-0.5,11.2-0.7
		c8.7-0.5,17.5-1.5,26.2-1.7c2.6-0.1,6.1-0.3,8.2,1.6c2.4,2.2,2.9,7.7,3.6,10.6c0.9,3.2,1.6,6.4,2,9.7c0.2,1.1,0.2,2.2,0.2,3.3
		c1.1,0.2,1.8,1.3,1.6,2.4c-0.2,2.1-3.2,2.4-4.9,2.8c-5.8,1.1-12,0.9-17.8,1c-9.5,0.3-19.5,1.5-29.2,1.5
		C248.1,149.6,245.3,149.5,242.5,149.2z M243.7,143.1c0.3,0,0.5,0,0.8,0c6.2-0.1,12.3-0.3,18.5-0.5c6.3-0.2,12.6-0.5,18.9-0.6
		c2.2,0,4.4,0,6.6,0.1c2.9,0.1,5.7,0.2,8.5,0.1c-1.1-2.8-0.9-7.3-1.5-10.2s-0.8-6.4-2-9.1c-1.3-3.1-2.5-2.4-5.9-2.1
		c-3.5,0.2-7.1,0.6-10.6,0.9c-7.8,0.6-15.5,1-23.3,1.6c-4,0.3-7.9,1.4-11.8,1.9c-0.1,1.4-0.3,2.8-0.2,3.8c0.1,3,0.4,6,0.6,9
		c0.1,1.2,0.6,3.3,0.7,5.2L243.7,143.1L243.7,143.1z"/>
</g>
<g id="Big_Leaf_Plant" transform="translate(23.179 484)">
	<g id="Big_Ass_Leaf" transform="translate(23)">
		<path id="leaf" class="we-are-in-office-3-2" d="M1.1-98.7c2.9-0.5,5.8-0.2,8.6,0.9c5.7,2.4,7.3,9.1,7.2,14.5c-0.1,5.9-1.3,12.2,3.1,17
			c2,2.2,4.6,3.8,6.6,6c2.1,2.4,3.8,5,5.1,8C34-47,35.1-40.7,33-35.1c-1.8,4.9-6.5,9.4-5.5,15c1,5.8,6.9,10.3,10.6,14.6
			c4.2,4.9,8,11.2,8.6,17.7c0.6,6.2-2.1,12.4-6.2,17.1c-8.2,9.3-20.6,13.8-33.1,13.8C2.1,43.1-4,42.8-8.5,40c-1.3-0.8-2.3-1.9-3-3.2
			c-0.8-1.1-1.8-2.1-2.9-2.9c-2.5-1.9-4.4-4.5-5.5-7.4c-4.5-11.2-0.9-25.1,5.4-35.1c1.5-2.4,2.7-4.6,2-7.5c-0.8-2.9-2.6-5.6-4.3-8.1
			c-1.8-2.4-3.4-4.9-4.8-7.6c-1.3-2.8-1.8-5.8-1.5-8.9c0.6-5.8,2.9-11.3,6.5-15.9c3.4-4.5,7.4-8.8,7.5-14.7c0-6.3-4.2-11.8-2.4-18.2
			c0.7-2.8,2.3-5.2,4.6-6.9C-4.6-97.9-1.6-98.4,1.1-98.7z"/>
		<path id="middle_thing" class="we-are-in-office-3-3" d="M-0.8-88.7c0.1-0.8,0.9-1.3,1.7-1.2c0.1,0,0.1,0,0.2,0c1,0.3,1,1.3,1,2.1
			c0,2.6,0.3,5.2,0.9,7.8c1.3,5.3,3.8,10.2,5.7,15.4c1.9,5.1,2.8,10.4,1.7,15.8c-1.1,5.1-2.7,10.1-3.8,15.2c-1,4.5-2,9.3-0.5,13.8
			C7.5-15.5,10.6-12,12.9-8c4.5,8.1,6.9,17.1,7,26.3c0.2,4.3-0.1,8.6-1,12.8c-0.6,2.4-1.3,5.7-3.4,7.4c-1,0.8-2.6,1-3.4-0.1
			c-0.8-1.1-0.1-2.7,0.1-3.9c1-4.9,1.3-10,1-15c-0.2-4.9-1-9.8-2.4-14.4c-1.5-4.3-3.6-8.3-6.1-12c-2.6-3.8-5.3-7.7-6.3-12.2
			c-1.1-4.6-0.2-9.3,1-13.9c1.2-4.8,2.9-9.5,4.6-14.1c1.7-4.3,2.2-9,1.3-13.6C3.4-70.1-1.4-78.9-0.8-88.7z"/>
	</g>
	<g id="Big_Ass_Leaf-2" transform="translate(32 10)">
		<path id="leaf-2" class="we-are-in-office-3-2" d="M67.7-97.3c3.6,1,6.9,2.9,9.6,5.5c5.4,5.8,3.7,14.5,0.8,20.9c-3.2,6.9-8,13.8-5.3,21.7
			c1.3,3.6,3.4,6.9,4.6,10.6c1.2,3.9,1.8,8,1.7,12.1C79-19,77-11,71.6-5.5C66.8-0.7,59,2.2,57.2,9.3c-1.9,7.5,2.7,15.8,4.7,22.8
			c2.3,8,3.5,17.4,0.8,25.4c-2.6,7.6-9,13.6-16.3,17c-14.6,6.8-31.6,5.7-46.2-0.8c-6.2-2.8-13.1-6.2-17-11.9
			c-1.1-1.6-1.7-3.5-1.8-5.4c-0.3-1.8-0.9-3.4-1.9-5c-1.9-3.6-2.8-7.6-2.6-11.6C-22.5,24.1-10.9,9.6,1.8,1.1c3-2,5.7-4.1,6.3-7.8
			c0.7-3.9-0.1-8-0.7-11.8S5.9-26.1,5.8-30c0-4,1-7.8,3-11.3c3.6-6.6,9.4-11.7,16-15.4c6.4-3.5,13.4-6.6,16.5-13.5
			c3.3-7.4,1.4-16.2,6.8-22.8c2.3-2.7,5.4-5.2,9.1-5.8C60.6-99.3,64.4-98.3,67.7-97.3z"/>
		<path id="middle_thing-2" class="we-are-in-office-3-3" d="M60.5-85.1c0.6-0.8,1.7-1.1,2.5-0.5c0.1,0,0.1,0.1,0.2,0.1c1.1,0.9,0.5,2,0,3
			c-1.4,3.1-2.4,6.3-3,9.7c-1.2,7-1,14.1-1.4,21.2s-2,13.8-6.2,19.7c-3.9,5.5-8.5,10.5-12.4,16c-3.5,4.8-7.2,9.9-7.8,16
			c-0.6,5.9,1.2,11.7,1.8,17.5c1.2,12-1.1,23.7-5.6,34.8c-2,5.2-4.6,10.1-7.9,14.7c-1.9,2.6-4.6,6-7.9,6.9c-1.5,0.4-3.6-0.1-3.9-1.9
			c-0.3-1.7,1.3-3.3,2.2-4.5c3.7-5.3,6.8-11.1,9-17.3c2.4-5.8,4-12,4.8-18.2c0.5-5.8,0.2-11.6-0.9-17.4c-1-5.9-2.1-11.9-1-17.8
			c1.2-6,4.6-11.2,8.4-15.9c4-5,8.3-9.7,12.7-14.3c4.3-4.2,7.3-9.6,8.7-15.4C55.6-60.9,54.6-73.8,60.5-85.1z"/>
	</g>
	<g id="Big_Ass_Leaf-3" transform="translate(0 56)">
		<path id="leaf-3" class="we-are-in-office-3-3" d="M-9.9-98.9c5.9,0,11.1,3.1,14.6,7.6c4.2,5.2,5,11.5,6.7,17.7c0.7,3.2,2.4,6,4.8,8.2
			c2.3,1.9,5.3,2.3,8,3.2c5.6,1.9,9.9,6.2,11.8,11.8c2.2,6.7-0.1,13.4,0.3,20.1c0.4,6.2,6.5,10.1,11.4,13c4.9,3,9.3,5.7,10.8,11.4
			c1.5,6.1,2.1,12.8-0.1,18.8c-3.6,10-14,14.3-24.1,15c-9.2,0.6-20.7-0.4-27.6-7c-4.1-4-5.6-9.5-5.4-15.1C1.5,2.4,2-1,3-4.3
			C3.8-6.6,4.3-9,4.7-11.4c0.6-6.5-5.4-7.7-10.5-9.5C-12-23.1-17.1-27.6-20-33.5c-2.9-5.5-4.2-11.8-2.4-17.9c0.9-3.1,2.5-6,4.7-8.4
			c1-1.1,2.3-1.9,3.2-3.1c0.7-1.1,0.8-2.4,0.4-3.6c-1.3-5.6-5.4-10.3-6.8-15.9c-1.3-5.1-0.5-11.4,4.1-14.6
			C-14.7-98.2-12.3-98.9-9.9-98.9z"/>
		<path id="middle_thing-3" class="we-are-in-office-3-4" d="M-1.8-84.3c6.2,6.7,7.9,15.7,8.4,24.4c0.3,5,0,10.2,1.4,14.9c1.2,4.1,4.1,7.2,7.1,10.1
			c6,5.9,12.7,11.9,14.4,20.5c1,5,0.3,10.2,1.8,15.2c1.4,4.6,3.5,8.9,6.3,12.8c2.2,3.1,5.1,5.4,7.6,8.3c0.7,0.9,1.8,2.2,1.5,3.4
			c-0.4,1.4-2.2,1.9-3.5,1.7c-3-0.5-5.6-3.4-7.6-5.6c-2.9-3-5.4-6.5-7.4-10.2c-2.3-4-3.9-8.4-4.8-13.1c-0.8-4.8-0.4-9.9-2.2-14.5
			c-3.1-7.8-10.5-12.4-15.9-18.5c-6.7-7.6-5.7-17-5-26.3c0.4-5.1,0.8-10.9-1.8-15.6c-1-1.8-3.2-3.4-3.6-5.5
			C-5.5-84-3.4-85.9-1.8-84.3z"/>
	</g>
	<path id="Base" class="we-are-in-office-3-6" d="M4.8,81.1c0,38.1,6.2,58,39,58s39-19.9,39-58H4.8z"/>
</g>
<g id="Table" transform="translate(194.488 465)">
	<g id="Lamp-4" transform="translate(23)">
		<path id="Lamp_Base-2" class="we-are-in-office-3-4" d="M19.8,25.1h34c1.1,0,2,0.9,2,2v5c0,1.1-0.9,2-2,2h-34c-1.1,0-2-0.9-2-2v-5
			C17.8,26,18.7,25.1,19.8,25.1z"/>
		<path id="Lamp_Body" class="we-are-in-office-3-2" d="M20.3-3.9h33c8.6,0,15.5,6.9,15.5,15.5s-6.9,15.5-15.5,15.5h-33c-8.6,0-15.5-6.9-15.5-15.5
			S11.8-3.9,20.3-3.9z"/>
		<path id="Shade" class="we-are-in-office-3-3" d="M1.4-117.2c0,0,17.2-1.7,34.4-1.7s34.4,1.7,34.4,1.7l4.6,79.5c0,0-19.5,1.9-39,1.9s-39-1.9-39-1.9
			L1.4-117.2z"/>
	</g>
	<path id="Table-2" class="we-are-in-office-3-0" d="M100.8,138.1v-82h-83v82h-21v-104h125v104H100.8z"/>
</g>
<g id="Plant" transform="translate(768.362 440)">
	<g id="Succulents" transform="translate(13 0)">
		<path id="Thi_Succs_" class="we-are-in-office-3-9" d="M430.2-88.7c8.8,21,23.8,35.6,31.8,57.4c4.7,12.9,6.7,27,6.8,41.4c0.1,7.8-0.1,15.7-0.1,23.5
			c0,7.6-0.2,15.2-0.9,22.8c-0.7,7.6-1.4,15.2-1.7,22.8c-0.3,6-0.4,12.9-2.4,18.4c-1.6,4.3-5.7,5-6.8-0.3c-0.5-3-0.6-6.1-0.5-9.2
			c0.1-3.9,0.3-7.7,0.4-11.6c0.5-15.5-0.1-30.9,0.2-46.4c0.3-15.1,2.2-30.2,0.1-45.2c-1.8-12.4-6.3-23.1-11.5-33.3
			c-5-9.8-10.4-19.4-13.8-30.6c-1-3.3-1.7-6.6-2.1-10C430-88.9,430.1-88.9,430.2-88.7z"/>
		<path id="Thi_Succs_2" class="we-are-in-office-3-6" d="M427.8-47.3c1.7,1.3,2.7,3.1,3.9,4.9c1.5,2.3,3.2,4.3,4.7,6.6c3.1,4.7,5.8,9.7,8.5,14.7
			c5.4,9.3,9.3,19.5,11.3,30.1c2.1,11.2,2.6,22.8,3.5,34.1c0.9,12,1.8,24.2,2,36.3c0.1,5.4,0.3,11.2-0.3,16.5
			c-0.4,3.3-1.9,6.2-5.3,6.2c-7.2-0.1-10.6-8.1-12.1-14.6c-2.1-9.7-2.5-20-2.2-29.9c0.4-11.9,2.5-23.7,3.4-35.6
			c0.9-12.6,0.4-25-3.9-36.8c-2.2-6-4.7-11.8-7-17.8c-0.8-2.6-1.9-5.1-3.1-7.5c-1.5-2.6-3.3-5-4.4-7.8L427.8-47.3z"/>
		<path id="Thi_Succs_3" class="we-are-in-office-3-9" d="M511.2-72.4l0.7-0.5c-0.7,2.5-1.6,4.9-2.7,7.3c-0.7,2.3-1.3,4.7-1.7,7.1
			c-1.3,5.7-2.7,11.2-3.9,17c-2.3,11.3-1.9,23.6-0.4,36.1c1.5,11.9,3.8,23.7,4.8,35.6c1,9.8,1.2,19.6,0.4,29.4
			c-0.6,6.4-2.5,14-7.8,13.4c-2.5-0.3-3.8-3.3-4.3-6.6c-0.8-5.4-1-11.1-1.3-16.4c-0.7-12-0.9-23.9-1-35.8
			c-0.1-11.2-0.5-22.6,0.2-33.5c0.7-9.8,2.8-19.5,6.2-28.8c1.7-4.6,3.3-9.3,5.2-13.7c0.9-2.1,2-4,2.9-6.1
			C509.4-69.6,510-71.3,511.2-72.4z"/>
		<path id="Thi_Succs_4" class="we-are-in-office-3-9" d="M430-12.6c1-1.6,3.1,3.7,3.4,4.4c-0.1-0.3-0.3-0.7-0.4-1c2,3.1,3.6,6.5,4.7,10.1
			s2,7.2,3,10.9c1.9,6.8,4.3,13.4,6,20.2c1.6,6.6,2.2,13.4,1.7,20.1c-0.5,7.2-0.6,14.4-0.2,21.6c0.2,3.4,1.3,6.6,2.1,9.9
			c0.8,3.3,1.4,6.6,2.3,9.9c0.2-0.4,0.2,1,0.2,1.1c0,0.8-0.1,1.5-0.4,2.3c-0.5,2-1.9,3.5-3.8,4.2c-3.5,1-6.7-2.2-7.8-5.5
			c-1.5-4.9-2.6-9.9-3.2-15c-0.7-4.6-0.9-9.2-0.7-13.9c0.4-9.2,2.1-18.2,2.5-27.4c0.5-10-1.5-19.4-3.1-29.1
			c-0.7-4.7-1.7-9.3-3.1-13.8c-0.6-1.7-1.4-3.4-2.3-5.1C430.4-9.8,429.4-11.5,430-12.6z"/>
		<path id="Thi_Succs_5" class="we-are-in-office-3-7" d="M458.1-28.2c-0.4,11.4-1.1,22.8-2.6,34.1c-1.6,11.6-3.3,23.1-4.8,34.6
			c-1.5,11.3-3,22.7-2.8,34.1c0.1,8.4-1.2,22.6,8.1,26.8c9.5,4.2,11.5-13.7,12.1-19.7c1.2-11.4,0.8-22.9,0.2-34.3
			c-0.6-11.7-1.6-23.4-2.8-35.1c-1.4-13-2.4-26-3.3-39c-0.4-6.4-0.5-12.9-0.4-19.3c0.1-6.1-0.1-12.2-2.3-18l-0.3,0.2"/>
		<path id="Thi_Succs_6" class="we-are-in-office-3-6" d="M506.9,8.1c-1.7,2.5-3.4,4.9-5,7.6c-2.9,4.7-5.5,9.9-6.3,16.6c-1.6,14.1-0.3,29.2,0,43.7
			c0.1,3-0.3,5.8,0.9,8.6c1.1,2.6,3,4.5,4.9,4.5c4,0,3.4-9.9,3.4-14.3c0-7.6-0.8-15.3-0.8-22.9c0-7.5,0.6-14.9,1.6-22.3
			c1-7,2.7-14,4.9-20.7c0.3-0.9,2.4-7.9,0.4-6.7"/>
		<path id="Thi_Succs_7" class="we-are-in-office-3-7" d="M489.1-66.9c-2.7,0-2.6,13.2-2.7,14.9c-0.3,6.1-0.2,12.3-0.4,18.4
			c-0.4,13.4-0.9,26.9-2.9,40.1c-1.1,7.1-2.3,14.2-3.7,21.3c-1.4,7.1-3.2,14.2-4.1,21.3C474.4,56,474.9,63,475,70
			c0,7,0.4,13.9,1.2,20.9c0.2,1.7,0.5,3.4,0.8,5.1c0.1,1.5,0.2,3,0.5,4.5c0.6,2.2,3.4,2.9,5.2,2.5c5-0.9,8.2-7.2,9.9-11.8
			c2.2-5.8,3.3-12.2,4.5-18.4c1.3-7,2.1-14.1,2.4-21.2c0.7-14.4-0.2-28.9-1.2-43.3c-0.6-8-1.2-16-2.3-23.9c-1-7.9-2.3-15.8-3.2-23.8
			c-0.6-5.8-1.2-11.6-1.6-17.4C491.2-58,491.1-66.9,489.1-66.9"/>
		<path id="Thi_Succs_8" class="we-are-in-office-3-6" d="M485.8,29.2c-0.4-13.9-6-74.9-7.3-91.7c-0.3-4.2-3.4-21.7-3.8-26.5c-1.1,1.3-1,22.3-1,27.1
			s-0.6,9.4-0.9,14.2s-7.5,67.3-8.4,71.9c-1.8,9.2-3.1,18.7-4,28.2c-0.9,9.2-2.4,18.9-1.1,28.2c0.3,2.1,0.8,4.2,1.5,6.2
			c0.8,2.1,1.3,4.1,2,6.3c1,3.6,2.9,6.7,5.7,8.2c5.8,3,9-3.8,10.6-9.8c2.5-9.5,4.2-19.3,4.9-29.1C484.9,51.4,486.1,40.4,485.8,29.2"
			/>
	</g>
	<g id="Planter" transform="translate(0 159)">
		<path id="Vase" class="we-are-in-office-3-1" d="M438.8-88.9h87c1.1,0,2,0.9,2,2v87c0,1.1-0.9,2-2,2h-87c-1.1,0-2-0.9-2-2v-87
			C436.8-88,437.7-88.9,438.8-88.9z"/>
		<path id="Leg" class="we-are-in-office-3-3" d="M428.8-78.9h6c1.1,0,2,0.9,2,2v109c0,1.1-0.9,2-2,2h-6c-1.1,0-2-0.9-2-2v-109
			C426.8-78,427.7-78.9,428.8-78.9z"/>
		<path id="Leg-2" class="we-are-in-office-3-3" d="M478.8-78.9h6c1.1,0,2,0.9,2,2v109c0,1.1-0.9,2-2,2h-6c-1.1,0-2-0.9-2-2v-109
			C476.8-78,477.7-78.9,478.8-78.9z"/>
		<path id="Leg-3" class="we-are-in-office-3-3" d="M529.8-78.9h6c1.1,0,2,0.9,2,2v109c0,1.1-0.9,2-2,2h-6c-1.1,0-2-0.9-2-2v-109
			C527.8-78,528.7-78.9,529.8-78.9z"/>
	</g>
</g>
<g>
	<g id="Head-5" transform="translate(60.75 -34.875)">
		<path id="Head-6" class="we-are-in-office-3-10" d="M784.7,440.5l-7.8-36.1c4.3-5.1,7.3-11.3,6.8-18.3c-1.4-20.1-29.4-15.7-34.8-5.5
			c-5.4,10.1-4.8,35.8,2.2,37.7c2.8,0.7,8.8-1,14.8-4.7l-3.8,27h22.6V440.5z"/>
	</g>
	<path id="Hair" class="we-are-in-office-3-11" d="M826.6,377.5c1.5-4.6,2.1-17.7,2.2-21.6c0.2,0,0.4,0,0.7,0c3.1,0,5.6,2.5,5.6,5.6
		c0,1.5-0.6,3-1.7,4c1.3,1.8,2.8,3.8,4.4,5.7c6.3-3.8,11-14.8,4.8-25.4c-1.7-5.2-5.5-8-10.1-9.3c-3.4-1.5-7.2-1.7-10.7-0.8
		c-6.3,0.5-12,2.5-13.6,3.6c0,6,1.2,7.8,11.1,7.6c2.4,1.3,4.3,3.5,6.3,6.4c0,0.2-1.3,18-6.8,18s-10.3-3.5-12.7-3.5
		c-1.8,0-1.4,2.2-0.2,3.9c1,1.4,5.7,2.7,5.7,4.8c0,1.2-1.2,1.2-2.2,1.2c-0.8,0-1.5,0-1.5,0.5c0,2.1-0.7,6,2.9,6
		C814.4,384.2,824.8,382.9,826.6,377.5z"/>
	<path id="Leg-4" class="we-are-in-office-3-12" d="M865.2,486.7l-35.3,115.5l-17.1,98.2h-13.4l18-213.7L865.2,486.7L865.2,486.7z"/>
	<path id="Leg-5" class="we-are-in-office-3-10" d="M877.8,486.7c-2.4,63.4,0.4,96.1,1,101.9c0.5,5.8,7.9,43.1,25.3,113.8l-14.3-4.9
		c-27.5-64.8-36.8-98.5-40-107c-3.1-8.5-11.5-43.1-25.1-103.8L877.8,486.7L877.8,486.7z"/>
	<path id="shoe-3" class="we-are-in-office-3-13" d="M901.3,696.1c1-0.3,2,0.2,2.3,1.2v0.1l1.8,6.3c-0.1,2.5-0.4,5-0.8,7.4h-52.3c0,0-2-6.8,2.4-7.4
		s7.3-1,7.3-1l24.3-11c0.5-0.2,1,0,1.2,0.5l0,0l1.6,3.8c0,0,4.1,1.9,6.6,1.9L901.3,696.1z"/>
	<path id="shoe-4" class="we-are-in-office-3-13" d="M813.2,696.1c1-0.3,2,0.2,2.3,1.2v0.1l1.8,6.3c-0.1,2.5-0.4,5-0.8,7.4h-52.3c0,0-2-6.8,2.4-7.4
		s7.3-1,7.3-1l24.3-11c0.5-0.2,1,0,1.2,0.5l0,0l1.6,3.8c0,0,4.1,1.9,6.6,1.9L813.2,696.1z"/>
	<path id="Bottom-3" class="we-are-in-office-3-7" d="M869.9,486.7l-15,58.8h-45.8l6.8-58.8H869.9z"/>
	<path id="Bottom-4" class="we-are-in-office-3-6" d="M878.3,486.7c7.4,22.2,2.8,58.8,2.8,58.8h-46.7l-12.9-58.8H878.3z"/>
	<path id="Skin-3" class="we-are-in-office-3-10" d="M940.5,542.2c0.9-0.8,1.7-3.3-1.3-4.8c-7.5-3.7-18.5-10.5-20.2-13c-3.5-5.1-20.3-57.6-20.3-57.6
		l-19.4,2.8c0,0,26.1,55.4,28.1,58.8c2.9,5-0.5,13.8-1.8,18.4c3.3,0.9,4.4-1,5.8-3c1.4-2.1,3-4.2,7.4-2.9c5.6,1.7,10.5,5,15.7,4.3
		C936.7,544.8,938.8,543.8,940.5,542.2z M767.1,513.4l25.1-20l-10.9-13.9l-22.7,29.3c-7.2,4.3-13,8.8-17.3,13.4
		c-0.9,1.5-1.8,4.2,3.3,2.3c5-1.9,10.4-3.6,11.6-2.1s-1.3,4.5,0.8,6.5c0.2,0.2,0.4,0.2,0.6,0.2C759.2,529.1,762.4,523.8,767.1,513.4
		z"/>
	<path id="Coat_Back" class="we-are-in-office-3-14" d="M832.1,393.2l-8.2-0.2c-9,36.4-28.7,71.2-59.3,104.2l30.5,27.9
		C823.9,480.1,839.4,435.7,832.1,393.2z"/>
	<path id="Shirt" class="we-are-in-office-3-2" d="M881.3,489.1l-71.6,10c0,0,16.4-63.9,10.5-106l21.1-6.2C862.1,411.7,871.6,444.6,881.3,489.1z"/>
	<path id="Coat_Front" class="we-are-in-office-3-14" d="M918.1,515.1c-20.2-87-76.3-128.3-76.3-128.3l0,0l0,0l-1.4,0.2c-2.5,0.4-7.7,1.4-7.7,1.4
		l-3.1,15.6c3,27.3,5.7,111,5.7,111l46.8-6.6c0.5,3.8,0.8,7.6,1.1,11.6L918.1,515.1z"/>
	<path id="Shade-3" class="we-are-in-office-3-15" d="M869.2,510.7l13-1.8c-1.8-15.4-5.2-30.6-10-45.4c0.6,8.7,0.8,17.4,0.5,26.1
		C872.3,499,871.1,506.1,869.2,510.7L869.2,510.7z"/>
	<path id="Light-3" class="we-are-in-office-3-16" d="M867.8,481.5l-24.6-7.5l1.5,10.7L867.8,481.5z"/>
</g>
<g>
	<g id="Head" transform="translate(48.06 27.507)">
		<path id="Head-2" class="we-are-in-office-3-10" d="M396.3,416.8l2.3-31.4c-4.2-3.8-7.5-8.6-7.9-14.6c-1.2-17.1,23-16.7,28.8-8.8
			c5.8,7.9,8.3,29.6,2.6,32.1c-2.3,0.9-7.6,0.2-13.1-2.3l6.4,22.3L396.3,416.8z"/>
	</g>
	<path id="hair" class="we-are-in-office-3-11" d="M458.7,381.2c-2.7-0.4-5.4-0.3-8.1,0.3c0.6-2.3,0.6-4.8,0-7c-0.7-2.2-1.8-4.1-3.2-5.9
		c-0.5-0.9-1.2-1.7-2.1-2.3c-0.8-0.6-1.9-1-2.9-1.1c-1.1-0.1-2.1,0.1-3.1,0.5c-0.5,0.2-0.8,0.5-1.3,0.6c-0.5,0.2-0.7-0.1-1.1-0.3
		c-1-0.5-2.1-0.8-3.2-0.7c-1.2,0-2.3,0.4-3.3,0.9c-1,0.5-1.9,1.3-2.5,2.2c-0.3,0.5-0.5,0.9-0.6,1.4c-0.1,0.2-0.1,0.4-0.3,0.5
		c-0.2,0.1-0.4,0.1-0.5,0.2c-1.7,0.9-3.1,2.4-3.6,4.3c-0.4,1.6-0.4,3.3,0,5c0.4,2.1,3,7.1,5,8.8c1.9,1.4,4.1,2.3,6.5,2.5
		c-1.2,1.9-2,4.1-2.3,6.3c-0.5,2.4-0.6,4.9-0.5,7.3c0.1,2.3,0.5,4.7,1.4,6.9c0.7,2,2.2,3.6,4.1,4.5c0.9,0.4,1.8,0.6,2.8,0.9
		c0.9,0.3,1.9,0.4,2.8,0.5c1.8,0.1,3.8-0.3,5-1.8c0.5-0.6,0.8-1.3,1.2-2c0.1-0.3,0.2-0.4,0-0.6c-0.3-0.2-0.5-0.4-0.8-0.5
		c-1.5-0.9-2.6-2.4-3.1-4.1c-0.5-1.8-0.3-4.3,1.4-5.3c2.1-1.4,4.7-0.5,6.8,0.3c0.3-3.1,1.9-5.9,4.3-7.7c2.8-1.9,6.2-2.6,9.1-4.3
		c0.8-0.5,1.4-1,2-1.7c0.3-0.4,0.5-0.7,0.5-1.2s-0.3-0.9-0.6-1.3C467,385.1,461.4,381.7,458.7,381.2z"/>
	<path id="Leg_1_" class="we-are-in-office-3-12" d="M447.3,507.2l57.4,99.3l43.1,83.9h9.3l-72.1-183.2H447.3z"/>
	<path id="shoe" class="we-are-in-office-3-13" d="M544.2,685.4c-0.8-0.3-1.7,0.2-2,1v0.1l-1.4,5.2c0.1,2.1,0.4,4.1,0.7,6.2H585c0,0,1.7-5.7-2-6.1
		s-6-0.8-6-0.8l-20.3-9.1c-0.4-0.2-0.8,0-1,0.4l0,0l-1.3,3.2c0,0-3.4,1.6-5.5,1.6L544.2,685.4z"/>
	<path id="Pant" class="we-are-in-office-3-17" d="M535.7,677l17.8-5.6c0,0-11.7-36.3-28.8-80c-17.1-43.7-36.6-84.2-36.6-84.2h-50.4
		c0,0,21.7,51.3,46.1,93.3C499.5,627.1,516.8,652.6,535.7,677z"/>
	<path id="Leg-2_1_" class="we-are-in-office-3-10" d="M443.6,507.2c-5.4,34.9-15.9,79.4-16.8,80.9c-0.6,0.9-24.3,9.1-71,24.6l2,8.5
		c55.7-8.3,84.9-14.8,87.9-19.4c4.5-6.8,26.9-61.2,35.6-94.6L443.6,507.2L443.6,507.2z"/>
	<path id="Pant-2" class="we-are-in-office-3-18" d="M372.1,605.3l3.5,13.6c41.6,3.8,67.1,1.1,76.5-8.2c9.4-9.3,20.1-43.8,32.1-103.6h-48.1
		c-7.6,49-11.9,74.5-12.8,76.6C422.4,585.9,405.4,593,372.1,605.3z"/>
	<path id="shoe-2" class="we-are-in-office-3-13" d="M359.4,611.2c0.2-0.9-0.5-1.7-1.4-1.8c0,0,0,0-0.1,0l-5.4-0.5c-2,0.5-4,1.1-5.9,1.8l7.6,44.4
		c0,0,5.9,0.7,5.6-3.1c-0.3-3.8-0.3-6.3-0.3-6.3l5.4-22.2c0.1-0.5-0.2-0.9-0.5-1l0,0l-3.3-0.7c0,0-2.2-3.2-2.5-5.3L359.4,611.2z"/>
	<path id="Skin" class="we-are-in-office-3-12" d="M526.8,462.4l11.2-8.3c0,0,1.2-10,4.7-10.5c0.8-0.5,0.7,1.4,0.9,3.2c0.1,1.8,0.5,3.7,2.2,3.1
		c3.3-1.2,10.8-8.6,12.4-7.6c2.4,1.5,1.3,7.6-0.5,10.7c-3.4,5.9-6.7,8.2-15,11.8c-6.5,2.8-13.5,9.5-13.5,9.5L526.8,462.4z
		 M481.9,455.7l25.4-18.9c3.2-5.3,7.2-10.3,11.7-14.5c1.3-0.7,3.6-1.4,1.9,2.8c-1.6,4.2-3.2,8.8-1.9,9.8c0.5,0.5,1.4,0.4,2.3,0.2
		c1.1-0.2,2.3-0.4,3.2,0.6c1.1,1.2-3.4,4.1-13.5,8.4l-17.4,21.1L481.9,455.7z"/>
	<path id="Sleeve" class="we-are-in-office-3-19" d="M468.1,454.3c12.8-1.9,24.9-7.4,34.7-15.9l7,11.3c-8.1,10.7-20.4,20.3-32,21.6
		C468.5,472.2,462.3,461.8,468.1,454.3z"/>
	<path id="Clothes" class="we-are-in-office-3-20" d="M455,540c-9.8,0.1-19,0.1-24.1,1.9c-13.1-27.8,2.6-42.1,0-60.7c-2.9-20.4,9.1-54,11.5-54.4
		l22-3.1c3.4,15.4,11.9,31.7,19.3,47.9c16.5,1.4,50.2-16.2,50.2-16.2s11.5,17.3,12,25.2c-19.1,13.7-36.2,21-50.7,23.3
		c1.7,8.6,1.8,16.9-0.7,24.9c-1.9,6-8.9,8.7-17.9,10C470,539.8,462.3,539.9,455,540z"/>
	<path id="Fill_35" class="we-are-in-office-3-3" d="M557,425.1L557,425.1L557,425.1"/>
	<path id="Fill_37" class="we-are-in-office-3-3" d="M557,425.1L557,425.1L557,425.1"/>
	<path id="Fill_39" class="we-are-in-office-3-3" d="M557,425C557,425,557,425,557,425L557,425C557,425.3,557,425.1,557,425"/>
	<path id="Fill_41" class="we-are-in-office-3-3" d="M557,425L557,425C557,425.1,557,425,557,425"/>
	<path id="Fill_43" class="we-are-in-office-3-3" d="M557,425.1"/>
	<path id="Fill_45" class="we-are-in-office-3-3" d="M557,425.1L557,425.1"/>
	<path id="Fill_47" class="we-are-in-office-3-3" d="M557,425.1C557,425.1,557,425,557,425.1"/>
	<path id="Fill_49" class="we-are-in-office-3-3" d="M557,425.1L557,425.1L557,425.1"/>
	<path id="Photo_Background" class="we-are-in-office-3-21" d="M504.9,388.2l80.4-20.1c1.9-0.5,3.9,0.7,4.3,2.6l12.6,50.7c0.5,1.9-0.7,3.9-2.6,4.3
		l-80.4,20.1c-1.9,0.5-3.9-0.7-4.3-2.6l-12.6-50.7C501.7,390.6,502.9,388.6,504.9,388.2z"/>
	<g id="icons8-night_landscape" transform="translate(9.058 20.093)" class="we-are-in-office-3-22">
		<path id="Mountains" d="M529.5,377.5l-15,47.4l50.4-12.6L529.5,377.5z"/>
		<path id="Mountains-2" d="M558.2,382l-14.8,35.7l44.6-11.1L558.2,382z"/>
	</g>
	<circle id="Sun" class="we-are-in-office-3-1" cx="574.9" cy="391.9" r="8.6"/>
</g>
<g id="Checkmark_" transform="translate(572.212 644.498)" class="we-are-in-office-3-5">
	<path id="Fill_292" class="we-are-in-office-3-6" d="M-497-363.8L-497-363.8c-2,0-3.9-0.3-5.8-0.9c-2-0.6-3.9-1.5-5.7-2.6c-4.2-2.5-7.6-6.1-10-10.4
		c-2.4-4.2-3.5-9.1-3.1-14c-0.5,0.4-1.1,0.6-1.7,0.6c-0.5,0-1-0.3-1.3-0.8c-0.6-1.5-0.6-3.1,0.1-4.5c1.1-1.8,2.3-3.6,3.7-5.1
		c0.2-0.3,0.5-0.6,0.7-0.9c1.9-2.5,4.3-4.4,7.1-5.8c2.8-1.3,5.9-2,9.1-1.9h0.4c5,0,9.9,1,14.5,2.8c2.3,0.9,4.4,2.2,6.4,3.8
		c3.9,3.1,6.5,7.5,7.2,12.5c0.4,2.5,0.3,5-0.1,7.4c-0.8,4.9-3.1,9.5-6.5,13.1C-485.9-366.3-491.3-363.9-497-363.8z M-503.7-404.4
		c-4.5,0-7.7,1.4-9.8,4.4c-2.6,3.7-3.7,8.2-3.1,12.7c1.1,8.3,9.5,18.3,18.6,18.8c0.3,0,0.5,0,0.8,0c9.7,0,17-9.9,17.1-18.7
		c0.1-12.3-12.1-15.9-19.3-16.9C-500.8-404.2-502.2-404.3-503.7-404.4z"/>
	<path id="Fill_294" class="we-are-in-office-3-6" d="M-483.2-412.7c-4.4,3.4-8.4,7.3-11.8,11.8c-3.3,4.2-5.4,9.5-9.3,13.1c-2-2.2-4.3-8-8.2-5.7
		c-3.3,1.9-1.2,5.2,0.4,7.4c4.1,5.6,8.7,7.8,14,2.3c4.8-5,7.5-11.7,12-17c2-2.3,5-4.6,6.6-7.2C-478.1-410.3-479.9-415.1-483.2-412.7
		"/>
</g>
<g id="Profile" transform="translate(541.767 418.288)" class="we-are-in-office-3-5">
	<path id="face-3" class="we-are-in-office-3-6" d="M535.2,52.4L535.2,52.4c-4.1,0-8.2-1.1-11.7-3.1c-3.5-1.9-6.4-4.7-8.4-8.2
		c-1.4-2.5-2.1-5.3-2.1-8.1c0.1-3.2,1.1-6.3,2.8-9c-1.1-0.2-1.7-0.6-1.8-1.2c-0.2-1.6,3.5-3.9,4.4-4.4l0.3-0.2c3.2-1.7,6.5-3.5,10-4
		c1.5-0.2,3-0.3,4.5-0.3c4,0,8,0.8,11.6,2.4s6.7,4.3,8.6,7.8c1.1,2,1.8,4.2,1.9,6.5c0.2,2.2-0.1,4.5-0.7,6.7
		c-0.6,2.2-1.6,4.3-2.8,6.2s-2.8,3.6-4.5,5C543.9,51,539.6,52.4,535.2,52.4z M532.8,18.5c-4.7,0-9.3,1.9-12.5,5.4
		c-2.6,2.9-3.7,6.7-3.2,10.6c1,7.8,8.9,14.4,17.2,14.4c0.4,0,0.7,0,1.1,0c7.9-0.7,14.3-6.7,15.5-14.6c0.6-3.4-0.4-7-2.7-9.6
		c-3.1-3.6-8.9-6-15.1-6.1C533.1,18.5,532.9,18.5,532.8,18.5L532.8,18.5z"/>
	<path id="Fill_231" class="we-are-in-office-3-6" d="M526.6,30.3c0,3.5,5.5,3.5,5.5,0S526.6,26.8,526.6,30.3"/>
	<path id="Fill_233" class="we-are-in-office-3-6" d="M536.8,30.9c0,3.8,6,3.8,6,0S536.8,27,536.8,30.9"/>
	<path id="Fill_235" class="we-are-in-office-3-6" d="M529.9,38.5c-0.8,2.9,8.3,4.4,8.7,1C538.7,37.9,530.5,36.4,529.9,38.5"/>
	<path id="Fill_237" class="we-are-in-office-3-6" d="M556.7,36.7c10.5-1.3,21.4-0.7,32-0.4c2.6,0.1,5.3,0.2,7.9,0.2c1.7,0,5.3,0.8,6.8,0
		c6-3.2-5.8-4.8-7.5-4.9c-12.4-0.9-24.9-1.1-37.3-0.8C555.5,31,554.9,36.9,556.7,36.7"/>
	<path id="Fill_241" class="we-are-in-office-3-6" d="M552.7,57.2c-4.1,0.3-7.8,2.3-11.9,2.3c-3.4,0-6.8-1-10.3-0.9c-4.1,0.2-6.3,2.8-9.8,3.7
		c-2.8,0.7-4.6-1.5-7.1-2.4c-3.1-1.2-5.5-0.6-8.1,1.2c-2,1.3-6.6,4.4-6.5,7.1c0.1,8.2,9.7-3.1,11.6-3.3c2.6-0.2,5.4,2.7,8.2,2.9
		c3.6,0.2,5.9-2.1,9.3-3c3.4-0.9,7,0.2,10.4,0.5c3.9,0.4,7.2-0.5,10.9-1.4c3.4-0.9,6.9-0.9,10.4-0.1c2.5,0.5,8.6,3.4,9.7-0.3
		C570.9,58.4,555.5,56.9,552.7,57.2"/>
	<path id="Fill_243" class="we-are-in-office-3-6" d="M553.9,72.9c-8.3,0.8-16.7,1.5-25,1.7c-3.6,0.1-17.5-1.5-16.3,3.1c1.1,3.9,20,1.5,23.8,1.2
		c4.3-0.3,8.5-0.8,12.7-1.3c1.5-0.2,5.1,0,6.2-1.3C556.4,75.1,555.9,72.7,553.9,72.9"/>
	<path id="have_a_nice_day_:_" class="we-are-in-office-3-6" d="M499.2,107.3c-2.6,0-5.1-1.3-6.7-3.3s-2.5-4.5-2.6-7.1c-0.1-3.9,2.1-8.2,8.4-8.4h0.1
		c0.5,0,0.9,0.2,1.2,0.5c0.2,0.2,0.5,0.4,0.8,0.5l0,0c0.2-0.1,0.5-0.2,0.6-0.3l0.1-0.1c0.3-0.2,0.6-0.3,0.9-0.4l0,0
		c2.7,0.2,4.4,0.7,5.9,2.9c0.7,1.2,1.1,2.5,1.2,3.9c0,1.5-0.2,3-0.7,4.4c-1.1,3.3-3.4,5.9-5.9,6.8
		C501.5,107.1,500.4,107.3,499.2,107.3z M501.1,93c-0.3,0-0.7,0.1-1,0.3l0,0c-0.5,0.3-1.1,0.5-1.7,0.5c-2.2,0-3.4,1.2-3.4,3.1
		c0.1,1.3,0.6,2.6,1.4,3.6c0.8,1.1,2,1.7,3.3,1.8c1.1,0,2.1-0.5,2.8-1.3c0.9-1,1.5-2.1,1.7-3.4c0.2-0.9,0.5-2.6-0.4-3.7
		c-0.5-0.6-0.7-0.6-1.1-0.7l0,0c-0.2,0-0.5-0.1-0.7-0.1C501.7,93.1,501.4,93,501.1,93z"/>
	<path id="espero" class="we-are-in-office-3-6" d="M534,105.4L534,105.4h-0.2c-2.1,0-4.1-1-5.5-2.6c-1.6-1.9-2.3-4.4-2-6.8c0.5-4.4,3.3-6.8,8.6-7.5
		c0.3,0,0.7-0.1,1-0.1c1.6,0,3.1,0.6,4.2,1.8c1.5,1.9,2.3,4.3,2,6.7c-0.1,2.1-0.9,4.2-2.3,5.8C538.4,104.5,536.3,105.5,534,105.4z
		 M532.8,94.5L532.8,94.5L532.8,94.5c-1,0.7-1.4,2.1-1,3.3c0.2,1.2,1.2,2,2.4,2.1c0.3,0,0.6-0.1,0.9-0.2c1-0.6,1.7-1.6,2-2.7
		c0.2-0.6,0.1-1.2-0.3-1.7v0.1c0,0-0.1,0-0.2,0c-0.8-0.1-1.5-0.2-2.2-0.4c-0.7-0.2-1.3-0.3-1.5-0.4L532.8,94.5z"/>
	<path id="hola" class="we-are-in-office-3-6" d="M581.9,104.6L581.9,104.6c-1.8,0-3.6-0.7-4.9-2c-1.2-1.2-1.9-2.8-2-4.6c-0.2-1.9,0.2-3.8,1.3-5.3
		c1.2-1.8,3.1-3,5.2-3.4c-1.2-0.7-1.7-2.2-1-3.4c0.4-0.8,1.2-1.4,2.1-1.5c3,0,6.5,7,6.8,8.8c0.4,2.3,0.3,4.6-0.5,6.8
		c-0.8,2.2-2.6,3.9-4.9,4.3C583.2,104.5,582.5,104.5,581.9,104.6z M584,94.7L584,94.7c-3.1,0.3-3.4,1.6-3.4,2.1
		c0.1,0.9,0.8,1.7,1.8,1.7c0.4,0,0.7-0.2,0.9-0.4C583.8,97.7,584.2,96.8,584,94.7L584,94.7z"/>
</g>
</svg>
