<?xml version="1.0" encoding="UTF-8"?>
<svg xmlns="http://www.w3.org/2000/svg" xmlns:xlink="http://www.w3.org/1999/xlink" width="375pt" height="374.999991pt" viewBox="0 0 375 374.999991" version="1.2">
<defs>
<clipPath id="clip1">
  <path d="M 0 19 L 374 19 L 374 357.046875 L 0 357.046875 Z M 0 19 "/>
</clipPath>
</defs>
<g id="surface1">
<path style=" stroke:none;fill-rule:nonzero;fill:rgb(90.19928%,91.369629%,92.939758%);fill-opacity:1;" d="M 319.382812 223.167969 L 170.136719 234.636719 L 163.972656 235.125 C 152.371094 235.125 141.980469 230.453125 134.390625 222.863281 C 126.804688 215.273438 122.132812 204.859375 122.132812 193.273438 L 122.601562 187.109375 L 134.089844 37.824219 L 178.917969 82.664062 L 169.367188 92.21875 C 158.230469 103.335938 152.019531 118.351562 152.019531 134.070312 C 152.019531 142.382812 154.960938 150.207031 157.996094 157.402344 L 187.882812 133.484375 C 187.882812 132.996094 187.882812 132.527344 187.882812 132.039062 C 187.882812 125.289062 190.566406 118.816406 195.308594 114.101562 L 202.824219 106.582031 L 319.382812 223.167969 "/>
<path style=" stroke:none;fill-rule:nonzero;fill:rgb(0%,29.019165%,67.83905%);fill-opacity:1;" d="M 343.289062 67.71875 C 343.289062 57.792969 335.28125 49.78125 325.359375 49.78125 C 315.433594 49.78125 307.425781 57.792969 307.425781 67.71875 C 307.425781 77.644531 315.433594 85.65625 325.359375 85.65625 C 335.28125 85.65625 343.289062 77.644531 343.289062 67.71875 Z M 318.074219 26.449219 C 346.886719 21.617188 371.449219 46.183594 366.613281 75.003906 C 363.90625 90.957031 351.71875 104.128906 336.050781 108.191406 C 326.804688 110.574219 318.003906 109.734375 310.296875 106.695312 L 256.621094 160.390625 L 232.710938 136.472656 L 286.390625 82.78125 C 283.402344 75.050781 282.492188 66.269531 284.894531 57 C 288.957031 41.351562 302.101562 29.136719 318.074219 26.449219 "/>
<path style=" stroke:none;fill-rule:nonzero;fill:rgb(0%,29.019165%,67.83905%);fill-opacity:1;" d="M 247.65625 61.738281 L 195.308594 114.101562 C 190.566406 118.816406 187.882812 125.289062 187.882812 132.039062 C 187.882812 132.527344 187.882812 132.996094 187.882812 133.484375 L 157.996094 157.402344 C 154.960938 150.207031 152.019531 142.382812 152.019531 134.070312 C 152.019531 118.351562 158.230469 103.335938 169.367188 92.21875 L 178.917969 82.664062 L 180.457031 81.101562 C 188.605469 72.972656 198.15625 66.621094 208.570312 62.324219 C 218.960938 58.027344 230.191406 55.761719 241.675781 55.761719 L 247.65625 61.738281 "/>
<path style=" stroke:none;fill-rule:nonzero;fill:rgb(66.668701%,69.799805%,74.119568%);fill-opacity:1;" d="M 134.089844 37.824219 L 122.601562 187.109375 L 8.566406 163.378906 Z M 134.089844 37.824219 "/>
<path style=" stroke:none;fill-rule:nonzero;fill:rgb(66.668701%,69.799805%,74.119568%);fill-opacity:1;" d="M 319.382812 223.167969 L 193.859375 348.722656 L 170.136719 234.636719 Z M 319.382812 223.167969 "/>
<path style=" stroke:none;fill-rule:nonzero;fill:rgb(79.998779%,81.959534%,85.099792%);fill-opacity:1;" d="M 170.136719 234.636719 L 193.859375 348.722656 L 8.566406 163.378906 L 122.601562 187.109375 L 122.132812 193.273438 C 122.132812 204.859375 126.804688 215.273438 134.390625 222.863281 C 141.980469 230.453125 152.371094 235.125 163.972656 235.125 L 170.136719 234.636719 "/>
<path style=" stroke:none;fill-rule:nonzero;fill:rgb(0%,0%,0%);fill-opacity:1;" d="M 272.03125 208.804688 L 271.097656 196.894531 L 259.140625 197.804688 L 260.074219 209.738281 L 272.03125 208.804688 "/>
<path style=" stroke:none;fill-rule:nonzero;fill:rgb(0%,0%,0%);fill-opacity:1;" d="M 164.441406 217.09375 L 248.121094 210.648438 L 247.1875 198.738281 L 163.507812 205.160156 L 164.441406 217.09375 "/>
<path style=" stroke:none;fill-rule:nonzero;fill:rgb(0%,0%,0%);fill-opacity:1;" d="M 96.332031 139.066406 L 108.242188 139.976562 L 109.152344 128.066406 L 97.246094 127.132812 L 96.332031 139.066406 "/>
<path style=" stroke:none;fill-rule:nonzero;fill:rgb(0%,0%,0%);fill-opacity:1;" d="M 99.066406 103.289062 L 98.15625 115.222656 L 110.085938 116.132812 L 110.996094 104.222656 L 99.066406 103.289062 "/>
<path style=" stroke:none;fill-rule:nonzero;fill:rgb(0%,0%,0%);fill-opacity:1;" d="M 94.488281 162.914062 L 106.421875 163.824219 L 107.332031 151.910156 L 95.421875 150.976562 L 94.488281 162.914062 "/>
<path style=" stroke:none;fill-rule:nonzero;fill:rgb(0%,0%,0%);fill-opacity:1;" d="M 325.359375 79.675781 C 318.773438 79.675781 313.402344 74.304688 313.402344 67.71875 C 313.402344 61.109375 318.773438 55.761719 325.359375 55.761719 C 331.941406 55.761719 337.3125 61.109375 337.3125 67.71875 C 337.3125 74.304688 331.941406 79.675781 325.359375 79.675781 Z M 325.359375 43.800781 C 312.167969 43.800781 301.449219 54.523438 301.449219 67.71875 C 301.449219 80.890625 312.167969 91.632812 325.359375 91.632812 C 338.550781 91.632812 349.265625 80.890625 349.265625 67.71875 C 349.265625 54.523438 338.550781 43.800781 325.359375 43.800781 "/>
<g clip-path="url(#clip1)" clip-rule="nonzero">
<path style=" stroke:none;fill-rule:nonzero;fill:rgb(0%,0%,0%);fill-opacity:1;" d="M 360.683594 74.023438 C 358.417969 87.5 347.914062 98.898438 334.558594 102.375 C 327.0625 104.339844 319.613281 103.917969 312.445312 101.140625 L 308.804688 99.738281 L 256.621094 151.933594 L 241.164062 136.472656 L 293.347656 84.277344 L 291.945312 80.632812 C 289.144531 73.464844 288.746094 66.011719 290.6875 58.515625 C 294.164062 45.15625 305.558594 34.648438 319.054688 32.359375 C 330.84375 30.375 342.378906 34.015625 350.714844 42.332031 C 359.050781 50.667969 362.667969 62.207031 360.683594 74.023438 Z M 239.15625 61.761719 L 191.082031 109.875 C 185.570312 115.363281 182.371094 122.554688 181.953125 130.566406 L 160.589844 147.660156 C 159.070312 143.222656 157.996094 138.648438 157.996094 134.070312 C 157.996094 119.871094 163.53125 106.511719 173.570312 96.445312 L 184.683594 85.351562 C 199.324219 70.707031 218.5625 62.394531 239.15625 61.761719 Z M 177.351562 240.078125 L 303.738281 230.359375 L 197.457031 336.671875 Z M 116.25 191.917969 L 116.15625 193.273438 C 116.15625 219.617188 137.589844 241.082031 164.394531 241.082031 C 164.417969 241.082031 164.417969 241.082031 164.441406 241.082031 L 165.328125 241.011719 L 183.9375 330.320312 L 26.941406 173.304688 Z M 117.183594 179.890625 L 20.613281 159.78125 L 126.898438 53.472656 Z M 305.957031 218.191406 L 163.972656 229.148438 C 144.199219 229.148438 128.109375 213.054688 128.085938 193.71875 L 139.039062 51.230469 L 170.464844 82.664062 L 165.117188 87.988281 C 152.8125 100.296875 146.042969 116.667969 146.042969 134.070312 C 146.042969 143.410156 149.148438 151.933594 152.511719 159.757812 L 155.59375 166.976562 L 191.617188 138.132812 L 194.046875 135.726562 L 193.859375 132.015625 C 193.859375 126.851562 195.867188 121.972656 199.535156 118.304688 L 202.824219 115.035156 Z M 359.167969 33.875 C 348.074219 22.785156 332.734375 17.925781 317.070312 20.585938 C 298.742188 23.671875 283.84375 37.378906 279.128906 55.503906 C 276.886719 64.050781 277.050781 72.855469 279.5 81.195312 L 232.710938 128.019531 L 211.277344 106.582031 L 256.105469 61.738281 L 244.152344 49.78125 L 241.675781 49.78125 C 218.234375 49.78125 196.171875 58.515625 179.058594 74.328125 L 134.089844 29.371094 L 0.117188 163.378906 L 193.859375 357.175781 L 327.832031 223.167969 L 265.074219 160.390625 L 311.863281 113.5625 C 320.222656 116.039062 329.023438 116.179688 337.570312 113.960938 C 355.40625 109.3125 369.417969 94.0625 372.476562 76.007812 C 375.113281 60.335938 370.257812 44.992188 359.167969 33.875 "/>
</g>
<path style=" stroke:none;fill-rule:nonzero;fill:rgb(0%,0%,0%);fill-opacity:1;" d="M 117.90625 251.308594 L 125.941406 259.320312 L 134.390625 250.867188 L 126.359375 242.855469 L 117.90625 251.308594 "/>
<path style=" stroke:none;fill-rule:nonzero;fill:rgb(0%,0%,0%);fill-opacity:1;" d="M 142.84375 259.320312 L 134.390625 267.773438 L 142.84375 276.230469 L 151.296875 267.773438 L 142.84375 259.320312 "/>
<path style=" stroke:none;fill-rule:nonzero;fill:rgb(0%,0%,0%);fill-opacity:1;" d="M 159.75 276.253906 L 151.296875 284.707031 L 159.75 293.160156 L 168.199219 284.707031 L 159.75 276.253906 "/>
</g>
</svg>
