<?xml version="1.0" encoding="utf-8"?>
<!-- Generator: Adobe Illustrator 23.0.1, SVG Export Plug-In . SVG Version: 6.00 Build 0)  -->
<svg xmlns="http://www.w3.org/2000/svg" xmlns:xlink="http://www.w3.org/1999/xlink" x="0px" y="0px"
	 viewBox="0 0 613 769.5" style="enable-background:new 0 0 613 769.5;" xml:space="preserve">
<style type="text/css">
	.abstract-shapes-13-0{fill:#00DFFC;}
	.abstract-shapes-13-1{fill:#FFC107;}
	.abstract-shapes-13-2{fill:#377DFF;}
	.abstract-shapes-13-3{fill:none;stroke:#00DFFC;}
</style>
<g>
	<circle class="abstract-shapes-13-0 fill-info" cx="201.5" cy="153.5" r="3.5"/>
	<circle class="abstract-shapes-13-0 fill-info" cx="201.5" cy="63.5" r="3.5"/>
	<circle class="abstract-shapes-13-0 fill-info" cx="201.5" cy="135.5" r="3.5"/>
	<circle class="abstract-shapes-13-0 fill-info" cx="201.5" cy="117.5" r="3.5"/>
	<circle class="abstract-shapes-13-0 fill-info" cx="201.5" cy="99.5" r="3.5"/>
	<circle class="abstract-shapes-13-0 fill-info" cx="201.5" cy="81.5" r="3.5"/>
	<circle class="abstract-shapes-13-0 fill-info" cx="183.5" cy="153.5" r="3.5"/>
	<circle class="abstract-shapes-13-0 fill-info" cx="183.5" cy="63.5" r="3.5"/>
	<circle class="abstract-shapes-13-0 fill-info" cx="183.5" cy="135.5" r="3.5"/>
	<circle class="abstract-shapes-13-0 fill-info" cx="183.5" cy="117.5" r="3.5"/>
	<circle class="abstract-shapes-13-0 fill-info" cx="183.5" cy="99.5" r="3.5"/>
	<circle class="abstract-shapes-13-0 fill-info" cx="183.5" cy="81.5" r="3.5"/>
	<circle class="abstract-shapes-13-0 fill-info" cx="165.5" cy="153.5" r="3.5"/>
	<circle class="abstract-shapes-13-0 fill-info" cx="165.5" cy="63.5" r="3.5"/>
	<circle class="abstract-shapes-13-0 fill-info" cx="165.5" cy="135.5" r="3.5"/>
	<circle class="abstract-shapes-13-0 fill-info" cx="165.5" cy="117.5" r="3.5"/>
	<circle class="abstract-shapes-13-0 fill-info" cx="165.5" cy="99.5" r="3.5"/>
	<circle class="abstract-shapes-13-0 fill-info" cx="165.5" cy="81.5" r="3.5"/>
	<circle class="abstract-shapes-13-0 fill-info" cx="147.5" cy="153.5" r="3.5"/>
	<circle class="abstract-shapes-13-0 fill-info" cx="147.5" cy="63.5" r="3.5"/>
	<circle class="abstract-shapes-13-0 fill-info" cx="147.5" cy="135.5" r="3.5"/>
	<circle class="abstract-shapes-13-0 fill-info" cx="147.5" cy="117.5" r="3.5"/>
	<circle class="abstract-shapes-13-0 fill-info" cx="147.5" cy="99.5" r="3.5"/>
	<circle class="abstract-shapes-13-0 fill-info" cx="147.5" cy="81.5" r="3.5"/>
	<circle class="abstract-shapes-13-0 fill-info" cx="129.5" cy="153.5" r="3.5"/>
	<circle class="abstract-shapes-13-0 fill-info" cx="129.5" cy="63.5" r="3.5"/>
	<circle class="abstract-shapes-13-0 fill-info" cx="129.5" cy="135.5" r="3.5"/>
	<circle class="abstract-shapes-13-0 fill-info" cx="129.5" cy="117.5" r="3.5"/>
	<circle class="abstract-shapes-13-0 fill-info" cx="129.5" cy="99.5" r="3.5"/>
	<circle class="abstract-shapes-13-0 fill-info" cx="129.5" cy="81.5" r="3.5"/>
	<circle class="abstract-shapes-13-0 fill-info" cx="111.5" cy="153.5" r="3.5"/>
	<circle class="abstract-shapes-13-0 fill-info" cx="111.5" cy="63.5" r="3.5"/>
	<circle class="abstract-shapes-13-0 fill-info" cx="111.5" cy="135.5" r="3.5"/>
	<circle class="abstract-shapes-13-0 fill-info" cx="111.5" cy="117.5" r="3.5"/>
	<circle class="abstract-shapes-13-0 fill-info" cx="111.5" cy="99.5" r="3.5"/>
	<circle class="abstract-shapes-13-0 fill-info" cx="111.5" cy="81.5" r="3.5"/>
	<circle class="abstract-shapes-13-0 fill-info" cx="93.5" cy="153.5" r="3.5"/>
	<circle class="abstract-shapes-13-0 fill-info" cx="93.5" cy="63.5" r="3.5"/>
	<circle class="abstract-shapes-13-0 fill-info" cx="93.5" cy="135.5" r="3.5"/>
	<circle class="abstract-shapes-13-0 fill-info" cx="93.5" cy="117.5" r="3.5"/>
	<circle class="abstract-shapes-13-0 fill-info" cx="93.5" cy="99.5" r="3.5"/>
	<circle class="abstract-shapes-13-0 fill-info" cx="93.5" cy="81.5" r="3.5"/>
	<circle class="abstract-shapes-13-0 fill-info" cx="75.5" cy="63.5" r="3.5"/>
	<circle class="abstract-shapes-13-0 fill-info" cx="75.5" cy="135.5" r="3.5"/>
	<circle class="abstract-shapes-13-0 fill-info" cx="75.5" cy="117.5" r="3.5"/>
	<circle class="abstract-shapes-13-0 fill-info" cx="75.5" cy="99.5" r="3.5"/>
	<circle class="abstract-shapes-13-0 fill-info" cx="75.5" cy="81.5" r="3.5"/>
	<circle class="abstract-shapes-13-0 fill-info" cx="57.5" cy="63.5" r="3.5"/>
	<circle class="abstract-shapes-13-0 fill-info" cx="57.5" cy="117.5" r="3.5"/>
	<circle class="abstract-shapes-13-0 fill-info" cx="57.5" cy="99.5" r="3.5"/>
	<circle class="abstract-shapes-13-0 fill-info" cx="57.5" cy="81.5" r="3.5"/>
	<circle class="abstract-shapes-13-0 fill-info" cx="39.5" cy="63.5" r="3.5"/>
	<circle class="abstract-shapes-13-0 fill-info" cx="39.5" cy="99.5" r="3.5"/>
	<circle class="abstract-shapes-13-0 fill-info" cx="39.5" cy="81.5" r="3.5"/>
	<circle class="abstract-shapes-13-0 fill-info" cx="21.5" cy="63.5" r="3.5"/>
	<circle class="abstract-shapes-13-0 fill-info" cx="3.5" cy="63.5" r="3.5"/>
	<circle class="abstract-shapes-13-0 fill-info" cx="21.5" cy="81.5" r="3.5"/>
</g>
<circle class="abstract-shapes-13-1 fill-warning" cx="601" cy="12" r="12"/>
<path class="abstract-shapes-13-2 fill-primary" d="M535.5,769L535.5,769c42.8,0,77.5-34.7,77.5-77.5v0c0-42.8-34.7-77.5-77.5-77.5h0c-42.8,0-77.5,34.7-77.5,77.5
	v0C458,734.3,492.7,769,535.5,769z"/>
<path class="abstract-shapes-13-3 fill-none stroke-info" stroke-width="4" stroke-miterlimit="10" d="M535.5,747.9L535.5,747.9c31.2,0,56.4-25.3,56.4-56.4v0c0-31.2-25.3-56.4-56.4-56.4h0
	c-31.2,0-56.4,25.3-56.4,56.4v0C479.1,722.7,504.3,747.9,535.5,747.9z"/>
<path class="abstract-shapes-13-3 fill-none stroke-info" stroke-width="4" stroke-miterlimit="10" d="M535.5,711.2L535.5,711.2c10.9,0,19.7-8.8,19.7-19.7l0,0c0-10.9-8.8-19.7-19.7-19.7l0,0
	c-10.9,0-19.7,8.8-19.7,19.7l0,0C515.8,702.4,524.6,711.2,535.5,711.2z"/>
</svg>
