<?xml version="1.0" encoding="utf-8"?>
<!-- Generator: Adobe Illustrator 23.0.3, SVG Export Plug-In . SVG Version: 6.00 Build 0)  -->
<svg xmlns="http://www.w3.org/2000/svg" xmlns:xlink="http://www.w3.org/1999/xlink" x="0px" y="0px"
	 viewBox="0 0 359 176" style="enable-background:new 0 0 359 176;" xml:space="preserve">
<style type="text/css">
	.abstract-shapes-18-0{fill:#FFFFFF;}
</style>
<rect x="89.8" y="-25.6" transform="matrix(0.7071 0.7071 -0.7071 0.7071 34.1268 -81.7319)" class="abstract-shapes-18-0 fill-white" width="51.9" height="51.9"/>
<rect x="153.5" y="20.6" transform="matrix(0.7071 0.7071 -0.7071 0.7071 85.5285 -113.2785)" class="abstract-shapes-18-0 fill-white" opacity=".6" width="51.9" height="51.9"/>
<rect x="15.3" y="11.6" transform="matrix(0.7071 0.7071 -0.7071 0.7071 38.685 -18.1885)" class="abstract-shapes-18-0 fill-white" opacity=".5" width="51.9" height="51.9"/>
<rect x="291.7" y="11.6" transform="matrix(0.7071 0.7071 -0.7071 0.7071 119.6439 -213.6405)" class="abstract-shapes-18-0 fill-white" opacity=".5" width="51.9" height="51.9"/>
<rect x="219.3" y="-25.6" transform="matrix(0.7071 0.7071 -0.7071 0.7071 72.0665 -173.3265)" class="abstract-shapes-18-0 fill-white" width="51.9" height="51.9"/>
<rect x="89.8" y="67.4" transform="matrix(0.7071 0.7071 -0.7071 0.7071 99.9168 -54.4808)" class="abstract-shapes-18-0 fill-white"  opacity=".25" width="51.9" height="51.9"/>
<rect x="219.3" y="67.4" transform="matrix(0.7071 0.7071 -0.7071 0.7071 137.8565 -146.0754)" class="abstract-shapes-18-0 fill-white"  opacity=".25" width="51.9" height="51.9"/>
</svg>
