<?xml version="1.0" encoding="utf-8"?>
<!-- Generator: Adobe Illustrator 24.0.2, SVG Export Plug-In . SVG Version: 6.00 Build 0)  -->
<svg version="1.1" id="Layer_1" xmlns="http://www.w3.org/2000/svg" xmlns:xlink="http://www.w3.org/1999/xlink" x="0px" y="0px"
	 viewBox="0 0 900 900" style="enable-background:new 0 0 900 900;" xml:space="preserve">
<style type="text/css">
	.st0{clip-path:url(#SVGID_2_);}
	.st1{opacity:0.1;clip-path:url(#SVGID_4_);fill:#FFFFFF;enable-background:new    ;}
	.st2{clip-path:url(#SVGID_2_);fill:#45CECE;}
	.st3{clip-path:url(#SVGID_2_);fill:#3ABAB6;}
	.st4{opacity:0.2;clip-path:url(#SVGID_2_);fill:#FFFFFF;}
	.st5{clip-path:url(#SVGID_2_);fill:#1C6D68;}
	.st6{opacity:6.000000e-02;clip-path:url(#SVGID_2_);enable-background:new    ;}
	.st7{clip-path:url(#SVGID_2_);fill:#5584CE;}
	.st8{clip-path:url(#SVGID_2_);fill:#F8F9EF;}
</style>
<g>
	<defs>
		<rect id="SVGID_1_" width="900" height="900"/>
	</defs>
	<use xlink:href="#SVGID_1_"  style="overflow:visible;fill:#71D3C0;"/>
	<clipPath id="SVGID_2_">
		<use xlink:href="#SVGID_1_"  style="overflow:visible;"/>
	</clipPath>
	<g class="st0">
		<defs>
			<polygon id="SVGID_3_" points="-510,-90 -510,990 -67,990 799.5,-90.5 			"/>
		</defs>
		<use xlink:href="#SVGID_3_"  style="overflow:visible;fill:#91E8D8;"/>
		<clipPath id="SVGID_4_">
			<use xlink:href="#SVGID_3_"  style="overflow:visible;"/>
		</clipPath>
		<path class="st1" d="M424.5,663.4l1.9-2.5c-21.8,0.3-43.8,0.4-49.3,0.6c-36.1,1.1-65,4.3-90.4,10.9c-23.1,6-46.3,6.5-76.9,3
			c-4.4-0.5-9-1-14.7-1.8l-14.3-1.9c-29.5-3.9-45.7-4.7-62-1.5c-16.5,3.2-33.9,2.4-54.6-1.5c-5.6-1.1-11.4-2.4-18.4-4.1l-17.2-4.3
			c-14.8-3.6-23.7-5.1-31.4-4.8c-10.5,0.4-21.2-1.1-38.7-4.8c-4.6-1-9.2-2-13.7-3c-5.8-1.3-10.3-2.2-14.8-3.1
			c-11-2.2-22.1-3.9-33.4-5c-8.3-0.8-19.6,1.7-34.8,7.4c-10.1,3.8-20.1,7.9-29.9,12.4c-28.7,12.6-37.5,16.1-48.4,18.8
			c-5.9,1.5-11.9,2.6-17.9,3.5c-8.7,1.2-37.2,3.5-42.6,4.4c-5.4,0.6-10.7,2.2-15.6,4.5c-6.8,3.5-12.1,7.6-21.3,15.8
			c-22.7,20.1-32.9,27.6-56.1,37.6c-20.2,8.7-32.5,13-44.9,16c-1.9,0.5-3.9,0.9-6,1.4l-14.8,3.1c-6.6,1.4-12.7,2.8-19.7,4.6
			c-18.8,4.8-36.5,13.1-51.6,24.5c-19.4,14.5-32.1,30.2-49.2,56.8c-8.5,13.2-9.3,14.4-12.3,18.4c-17.4,22.8-28.7,38.1-41.1,56.6
			c-6.1,9.1-11.6,17.6-16.2,25.5l2.1,1.1c13.1-22.2,32.5-49.1,57.6-82c3.1-4,3.9-5.2,12.4-18.5c17-26.4,29.5-41.8,48.5-56
			c14.7-11.1,32-19.3,50.4-24c6.9-1.8,13-3.2,19.5-4.6c2.5-0.5,12.4-2.6,14.8-3.1c2-0.4,4.1-0.9,6.1-1.4c12.6-3,25.1-7.4,45.5-16.2
			c23.6-10.2,34-17.8,57-38.3c9-8.1,14.2-12,20.6-15.3c3.7-1.9,8.4-3.2,14.6-4.1c5.2-0.8,33.7-3.1,42.6-4.3
			c6.4-0.9,12.4-2.1,18.3-3.5c11.2-2.8,20-6.4,49-19c9.8-4.4,19.6-8.5,29.7-12.3c14.8-5.4,25.7-7.9,33.3-7.2
			c10.8,1.1,21.4,2.7,33.1,5c7.3,1.4,14.5,3,21.8,4.6l6.8,1.5c17.7,3.8,28.6,5.3,39.5,4.8c7.3-0.2,16,1.2,30.5,4.8l17.2,4.3
			c7,1.7,12.8,3,18.6,4.1c21,4,38.9,4.8,55.9,1.5c15.8-3.1,31.7-2.3,60.9,1.6l14.3,1.9c5.6,0.7,10.2,1.3,14.7,1.8
			c30.9,3.5,54.5,3,78.1-3.1c25.1-6.5,53.8-9.7,89.7-10.8C382.3,663.8,403.2,663.7,424.5,663.4l106.8-140
			c-23,12.7-44.9,21.7-59.9,23.1c-9,0.8-19.5,2.1-33,3.8c-7.7,1-15.4,2-23.1,3.1l-4.7,0.6c-6,0.8-12,1.6-18.1,2.4
			c-27.9,3.7-47.4,5.9-63.8,6.9c-10.8,0.6-13.8,1.3-31,5.5c-24,6-42.2,4.2-87.6-12.2c-29.4-10.7-55.9-14.1-91.6-13.9
			c-5.5,0-24.4,0.3-23.4,0.3c-9,0.1-15.6,0-21.9-0.3c-18.1-0.9-31.9-3.9-44.4-10.3c-40.8-21-117.8-26-160.8-14
			c-50.9,14.2-120.7,21.3-159.4,11.7c-20.7-5.1-39.9,0.7-57.8,14.5c-10.3,8-17.5,16-26.6,28c-1.4,1.8-1.6,2.1-5.4,8.2
			c-7.5,11.8-13.6,19.3-23.8,27.8c-13.9,11.5-32.5,21.3-57.4,29c-60.6,19-131.6,72.7-173.1,127.1c-4,5.2-7,9.3-14.3,19
			c-17.6,23.5-25.9,34.4-36.8,47.3c-19.8,23.5-39.3,42.3-60.4,57.3l-2.5-1.3c21.2-14.9,40.7-33.7,60.6-57.4
			c10.9-12.9,19.2-23.6,36.7-47.2c7.3-9.8,10.4-13.9,14.3-19c41.9-54.9,113.3-109,174.7-128.2c24.5-7.7,42.7-17.2,56.2-28.4
			c9.9-8.2,15.8-15.6,23.1-27.1c3.9-6.1,4.2-6.5,5.6-8.4c9.3-12.2,16.6-20.3,27.2-28.6c18.6-14.4,38.8-20.5,60.6-15.1
			c38,9.4,107.3,2.4,157.7-11.6c43.8-12.2,121.6-7.1,163.2,14.4c12.1,6.3,25.5,9.2,43.1,10c6.2,0.3,12.7,0.4,21.7,0.3
			c-1,0,17.9-0.3,23.4-0.3c36.1-0.1,62.9,3.3,92.7,14.1c44.9,16.3,62.5,17.9,85.7,12.2c17.4-4.3,20.5-5,31.6-5.6
			c16.3-1,35.7-3.1,63.6-6.8c6-0.8,12-1.6,18-2.4l4.7-0.6c7.7-1,15.4-2.1,23.1-3.1c13.5-1.8,24.1-3,33.1-3.9
			c15.7-1.5,39.3-11.6,63.8-25.6L424.5,663.4L424.5,663.4z M616.6,411.6c-1.5-0.7-3.1-1.4-4.9-2.1c-15.7-6.2-38.7-9.6-64.4-10.8
			c-11.7-0.5-24.6-4.6-38.3-11.6c-11.3-5.7-22.4-13-32.9-21c-3.6-2.7-6.8-5.3-9.6-7.8c-2.4-2-4.9-3.9-7.5-5.6
			c-12.5-7.8-25.2-15.3-38.3-22.5c-24.6-13.2-42.2-19.6-47.4-16.2c-2.5,1.6-2.8,6.3-0.8,14.3c0.8,3.3,1.9,7.1,3.8,12.7
			c1.6,4.9,3.2,9.7,4.8,14.6c1.3,4.3,4.2,8,9,12.2c1.4,1.2,1.7,1.5,5.4,4.4c7.3,5.9,9.9,8.9,10.3,13.3c0.5,5.6-4.2,11.6-15,19.1
			c-17.1,11.8-30.3,14.7-41.4,9.8c-9-4-16-12.2-26.3-28.9c-6.7-10.9-4.2-24.2,5.4-43.3c1-2.1,2.2-4.3,3.5-6.8l3.5-6.5
			c8.4-15.6,10.7-22.3,7.8-26.5c-1.3-1.9-2.6-3.6-4-5.1c-4.1-4.5-9.3-7.9-17.8-12c-5.6-2.7-36.7-16-34.4-15
			c-51.3-22.4-77-24.6-113.2-13.3c-6.4,2-12.8,4.2-19.1,6.5l-10.6,3.9l-11.5,4.1c-18.6,6.6-30.9,9.7-43.2,11.3
			c-2.4,0.3-4.9,0.6-7.8,0.9L67,285c-6.3,0.6-12.6,1.4-18.9,2.3c-17,2.5-37.4,6.6-64.2,13.3c-33.9,8.4-50.5,14.8-54.3,20.1
			c-2.6,3.7,0.4,6.6,12.3,13.5c3.7,2.2,4.9,2.9,6.8,4.1c6.6,4.2,10.9,7.9,13.5,12c11,18.2,15.7,30.1,14.1,42.3
			c-2.3,17.4-19.4,28.9-54.7,32.9c-30.2,3.4-43.6,8.8-51.7,18.5c-2.1,2.5-3.2,4.2-6.7,9.9c-9.1,14.9-17,23.4-35.5,34.3
			c-7.1,4.3-14.6,8.1-22.4,11.2c-13.3,5.1-22.5,5.7-38,3.6c-1.3-0.2-10-1.5-12.8-1.8c-5.4-0.7-10.3-1.2-15.5-1.5
			c-13.3-0.8-27.6-0.4-44.9,1.7c-30.9,3.7-55.6,15.2-79.5,34.6c-9.6,7.7-15,12.8-31.8,29.5c-17.2,17.1-26.1,24.7-37.1,30.8
			c-11.7,6.7-72,42.9-78.3,46.6c-12.3,7.3-24.8,14.3-37.4,21.2c-23.1,12.6-41.4,21.1-55,25.4c-23.5,7.4-45.2,20.1-79.8,44.6
			c-4.6,3.3-9.2,6.5-13.8,9.8c-13.1,9.4-21.3,15-29.8,20.4c-39.9,25.6-104.1,25.6-154.3-0.3c-26.7-13.8-44.5-31.3-59.8-56.8
			c-8.2-13.7-6.8-10.9-29-59c-18-38.9-24.5-45.1-37.4-40.2c-1.7,0.6-8.8,3.7-8.9,3.7c-7,2.7-14.2,4.9-21.5,6.7
			c-3,0.8-22.9,5.9-28.9,7.5c-10,2.7-18.2,5.1-25.7,7.6c-8.6,2.7-16.9,6.2-24.8,10.3c-7.3,4-13.2,9-23.9,19.7
			c-2.1,2.1-4.2,4.2-6.4,6.3l-2.4-1.2l6.6-6.6c10.8-10.9,16.9-16,24.6-20.2c8.1-4.2,16.6-7.8,25.4-10.6c7.6-2.5,15.9-5,25.9-7.7
			c6.1-1.7,25.9-6.8,28.9-7.6c7.2-1.8,14.2-3.9,21.1-6.6c0,0,7.2-3.1,9.1-3.8c15.2-5.7,22.6,1.3,41,41.4c22.2,48,20.8,45.2,29,58.7
			c15.1,25.1,32.6,42.3,58.8,55.9c49.2,25.5,112.2,25.5,151.1,0.5c10.1-6.6,20-13.3,29.6-20.3c4.6-3.3,9.2-6.5,13.7-9.8
			c34.9-24.7,56.8-37.5,80.8-45c13.3-4.2,31.5-12.6,54.4-25.1c11.2-6.1,23.4-13,37.3-21.2c6.2-3.7,66.6-39.9,78.8-46.6
			c10.7-5.9,19.4-13.4,36.4-30.3c16.9-16.8,22.4-21.9,32-29.7c24.4-19.7,49.7-31.5,81.3-35.3c15.2-2,30.4-2.5,45.5-1.7
			c5.3,0.3,10.2,0.8,15.7,1.5c2.8,0.4,11.6,1.7,12.8,1.8c14.9,2,23.6,1.5,36.3-3.4c6.4-2.5,13.5-6,21.9-11
			c18-10.6,25.6-18.8,34.4-33.3c2-3.6,4.3-7,6.9-10.3c8.7-10.4,22.9-16.1,53.9-19.6c34-3.9,49.9-14.5,52-30.5
			c1.5-11.6-3.1-23.1-13.8-40.9c-2.3-3.8-6.4-7.3-12.7-11.3c-1.8-1.1-3-1.9-6.7-4c-13.3-7.8-16.8-11.3-12.9-16.8
			c4.4-6.2,21.4-12.7,56.1-21.4c26.8-6.7,47.3-10.8,64.5-13.3c6.7-1,12.7-1.7,19.1-2.3l14.7-1.3c2.8-0.3,5.3-0.5,7.6-0.9
			c12.1-1.6,24-4.6,42.4-11.1c3.8-1.4,7.6-2.7,11.5-4.1l10.6-3.8c8.2-3,13.9-4.9,19.3-6.6c37-11.6,63.6-9.3,114.2,12.8
			c-1.1-0.5,30.1,12.8,35.8,15.5c8.8,4.2,14.2,7.8,18.5,12.6c1.5,1.6,2.8,3.3,4.2,5.3c3.5,5.3,1.2,12.3-7.8,28.8l-3.5,6.5
			c-1.4,2.5-2.5,4.7-3.5,6.7c-9.3,18.4-11.7,31.1-5.5,41.2c10,16.3,16.8,24.2,25.2,28c10,4.4,21.9,1.8,38.2-9.5
			c10.1-7,14.2-12.3,13.9-16.8c-0.3-3.5-2.8-6.3-9.5-11.8c-1.9-1.5-3.7-2.9-5.5-4.5c-5.1-4.4-8.2-8.4-9.7-13.2
			c-1.5-4.9-3.1-9.7-4.8-14.6c-1.4-4.2-2.7-8.5-3.8-12.8c-2.2-9-1.9-14.4,2-16.9c6.8-4.5,24.5,2,50.7,16c13.2,7.1,26,14.6,38.4,22.5
			c5.9,4.2,6.8,5,7.8,5.8c2.8,2.4,6,5,9.5,7.7c10,7.8,20.9,14.8,32.5,20.8c13.3,6.8,25.8,10.8,37,11.3c26,1.2,49.3,4.6,65.4,11
			c1.8,0.7,3.5,1.5,5.1,2.2L616.6,411.6L616.6,411.6z M783.6,192.9l-2.5,3.3c-47.1,24.1-90,42.7-115.8,48.7
			c-12.9,3-26.3,1.2-41.5-4.6c-11.4-4.4-20.4-9.3-45.4-24.1c-22.7-13.4-35.8-19.8-50.2-23.6c-13.7-3.6-26.8-8.2-39.3-13.9l-5.6-2.5
			c-31-13.8-49.1-20-87.5-27.9c-12.9-2.7-26.2-6-39.8-10.1c-29.1-8.8-57.2-19.4-84.3-31.6c-18.8-8.3-32.4-15.1-49.2-23.7
			c-12.9-6.7-31-11.2-51.5-11c-27.8,0.3-57.2,9.3-87.1,29c-8.6,5.8-17.6,11-27.1,15.6c-18.8,9-31.4,10.9-52,9.9L-8,125.7
			c-17.6-1-35.5,0.2-53.1,3.5c-31.7,5.8-60.2,19.1-112.6,49.3l-12.4,7.2c-43.4,25-65.9,36.3-90.8,43.3c-32.7,9.3-72.1,6.3-129.3-6.2
			c-12.5-2.7-53.8-12.5-54.4-12.6c-19.6-4.5-33.4-7.2-45.4-8.6c-32.1-3.9-62-0.3-130.6,12.6l-6.6,1.2c-33.3,6.2-51.6,9.2-71.1,11.2
			c-14.2,1.4-28.4,2.4-45.7,3.3c-7.1,0.4-35.5,1.6-42.5,2c-39.9,2-65.7,5.4-91.9,13.1c-10.3,3-20.3,6.8-30,11.2
			c-21.3,9.9-36.7,20.8-63.5,43.1l-14,11.7c-5.5,4.6-10.2,8.4-15,12.1c-24.8,19.5-45.2,29.1-79.7,40.1l-18,5.7
			c-6.3,2-12.5,4.1-18.8,6.3c-6.6,2.3-12.9,5.5-18.6,9.4c-8.1,5.6-13.4,10.9-24.2,23.6c-18,21.1-28.3,30.8-48.5,43.4
			c-9.9,6.1-36.7,23.4-41.4,26.3c-6.7,4.2-13.6,8.1-20.7,11.6c-15.2,7.5-32.6,13.6-59.2,20.5c-24.7,6.4-39.2,12.7-51.8,21.6
			c-3.9,2.8-7.6,5.7-11.3,8.7l-4.1,3.4l-2.5-1.3l4.7-3.9c4.7-3.9,8-6.4,11.4-8.9c13-9.2,27.8-15.6,52.9-22.1
			c26.4-6.9,43.5-12.9,58.7-20.3c7-3.5,13.9-7.3,20.4-11.5c4.7-2.9,31.5-20.2,41.4-26.3c20-12.3,30-21.9,47.8-42.8
			c11-12.9,16.4-18.4,24.8-24.1c5.9-4,12.5-7.3,19.3-9.8c5.8-2.1,11.8-4.1,18.9-6.4l18-5.7c34.2-10.9,54.3-20.3,78.7-39.5
			c4.7-3.7,9.4-7.6,14.9-12.1l14-11.7c27-22.4,42.6-33.5,64.2-43.5c9.5-4.4,19.5-8.2,30.5-11.4c26.5-7.8,52.6-11.2,92.7-13.3
			c7.1-0.4,35.4-1.6,42.5-2c17.1-0.9,31.3-1.9,45.5-3.3c19.3-1.9,37.7-4.9,70.8-11.2l6.6-1.2c68.9-13,99-16.6,131.6-12.6
			c12.2,1.5,26.1,4.2,45.8,8.7c0.6,0.1,41.9,9.9,54.3,12.6c56.7,12.4,95.8,15.3,127.7,6.3c24.4-6.9,46.9-18.1,90-43l12.4-7.2
			c52.7-30.4,81.5-43.9,113.6-49.7c17.9-3.4,36-4.6,53.9-3.6l12.9,0.7c20.1,1.1,32.1-0.8,50.4-9.5c9.3-4.6,18.2-9.7,26.7-15.4
			c30.4-20,60.5-29.2,89-29.5c21-0.2,39.6,4.4,52.9,11.3c16.7,8.6,30.4,15.3,49,23.6c27,12.1,55,22.7,84,31.5
			c13.5,4,26.8,7.4,39.6,10.1c38.6,7.9,56.9,14.3,88.1,28.1l5.6,2.5c14.3,6.3,24.9,10.1,38.9,13.8c14.7,3.8,28,10.4,55,26.4
			c20.7,12.2,29.7,17.1,40.9,21.4c14.6,5.7,27.4,7.4,39.6,4.6C690.8,236.4,735,217.2,783.6,192.9L783.6,192.9z M39.1,1168.4
			c4.6-11.5,12.2-25.6,25.5-48l2.8-4.7l2.8-4.7c21.6-36.3,29-51.4,27.2-59.9c-1.8-8.4,1.1-14.6,8.3-21.8c1.2-1.2,2.2-2.2,4.5-4.2
			c7.5-6.8,10.2-10,11.5-14.7c1.8-6.3-0.6-13.6-8.2-23.2c-8.7-10.8-7.5-18.5,2.3-24.3c4-2.3,9.3-4.3,16.7-6.5
			c4.5-1.3,22.9-6.2,21.3-5.7c25.7-6.9,40.2-13.5,48.7-24.6c8.1-11.3,22-18.7,36.8-19.9l-2.1,2.7c-13.1,1.6-25.2,8.4-32.3,18.4
			c-9,11.9-24,18.7-50.4,25.8c1.6-0.4-16.8,4.4-21.2,5.7c-7.2,2.1-12.2,4-15.9,6.2c-8.3,4.9-9.2,11-1.3,20.8c8,10,10.6,18,8.6,25.1
			c-1.5,5.4-4.4,8.8-12.3,16c-2.2,2-3.2,2.9-4.4,4.1c-6.7,6.6-9.2,12.1-7.6,19.7c2,9.3-5.3,24.3-27.5,61.5l-2.8,4.7l-2.8,4.7
			c-9.6,16.2-16.3,28-20.9,37.6L39.1,1168.4L39.1,1168.4z M141.9,1033.7c1.8-8.5,5.8-26.9,6.7-30.3c1.8-6.7,3.3-9.8,6.4-12.3
			c1.9-1.6,12.6-7.6,14.3-8.7c9.5-6,18.6-12.7,27-19.9l-6.6,8.6c-6,4.7-12.3,9.2-18.8,13.2c-2,1.2-12.4,7.1-14,8.4
			c-2.5,2.1-3.9,4.7-5.5,11c-0.7,2.7-3.5,15.4-5.4,24.7L141.9,1033.7z M282.6,849.3c-6.7,1.6-13.5,1.8-22.1,1.1
			c-0.8-0.1-42.4-5.4-62.6-6.9c-29.4-2.2-49.6-7.8-63.6-17c-11.2-7.4-17.8-16-25.4-31l-4.2-8.4c-2.3-4.7-4.8-9.3-7.6-13.8
			c-6.1-9.7,1.8-16.6,20.8-20.9c14.9-3.4,36-5.3,67.5-6.8l15.3-0.6c61.5-2.4,62.5-2.4,77.5-4.5c41.7-5.6,70.1-6.1,87.7-0.3l-1.7,2.2
			c-17-5.5-44.8-5-85.8,0.5c-15.2,2.1-16,2.1-77.8,4.5c-5.1,0.2-10.2,0.4-15.3,0.6c-31.3,1.4-52.2,3.4-66.9,6.7
			c-17.4,4-23.6,9.3-18.7,17.1c2.5,4.1,4.7,8.1,7.7,13.9l4.2,8.5c7.5,14.7,13.8,23,24.7,30.2c13.6,8.9,33.2,14.5,62.2,16.6
			c20.3,1.5,61.9,6.8,62.6,6.9c9.5,0.8,16.6,0.4,24-1.8L282.6,849.3L282.6,849.3z M351,759.7l-1.7,2.2c-16.1-7.5-34-8.2-62-4.6
			l-17.1,2.3c-5.2,0.7-10.5,1.2-15.7,1.4c-2.8,0.1-18.6,0.4-21,0.5c-11.2,0.3-20.9,0.6-30.4,1.2c-9.8,0.5-19.5,1.5-29.2,2.8
			c-17.1,2.4-29.1,5.8-34.5,10.4c-5.9,5-4,11.6,7.8,20.5c22.6,17.1,50,25.7,80.3,27.5c20.2,1.2,40.8-0.6,60.9-5.3
			c8.6-2.4,17-5.6,25-9.5l-3.2,4.2c-6.8,3.1-14,5.7-21.3,7.7c-20.5,4.8-41.4,6.7-62,5.4c-30.9-1.8-58.8-10.6-81.9-28
			c-12.8-9.6-15.2-17.8-7.7-24.1c6.1-5.1,18.4-8.8,36.2-11.2c8.7-1.2,18.6-2.1,29.5-2.8c9.5-0.6,19.3-0.9,30.5-1.2
			c2.4-0.1,18.2-0.4,21-0.5c4.3-0.2,9.1-0.6,15.4-1.4c2.9-0.4,14.4-1.9,17.1-2.2C315.8,751.1,334.3,751.8,351,759.7L351,759.7z
			 M606.6,424.7l-1.7,2.2c-3.8-2.7-10.6-4.8-21.2-6.3c-30.1-4.2-41.3-6-56.8-9c-5.2-1-7.6-1.4-11.3-2.1c-4.4-0.7-8.8-2.2-18-5.8
			c-2.3-0.9-4.5-1.7-6.8-2.6c-20.2-7.6-31-8.6-36.9-0.8c-7.4,9.6-14.9,32.1-23.7,65.7c-1.8,6.5-4.2,13-7,19.3
			c-1.2,2.8-2.5,5.7-3.7,8.5c-8.2,18.8-10.2,27.1-6,32.1c3.8,4.6,10.2,7.1,19,7.7c11.1,0.6,25.4-1.8,42.4-6.7
			c6.4-1.8,12.9-3.9,20.2-6.4l14.3-5c11.5-3.8,34.7-19,53.5-33.5l-5.7,7.5c-17.4,12.8-36.5,24.9-46.9,28.3c-2,0.6-12.1,4.2-14.3,5
			c-7.4,2.5-13.8,4.6-20.3,6.5c-17.4,5-32,7.5-43.5,6.8c-9.5-0.6-16.7-3.3-21-8.6c-4.9-6-2.8-14.6,5.8-34.3c1.2-2.8,2.5-5.7,3.7-8.5
			c3.4-7.9,5.5-13.6,6.9-19c8.9-34.1,16.5-56.6,24.1-66.7c7.2-9.5,19.2-8.4,40.7-0.3c2.3,0.9,4.6,1.7,6.8,2.6c9,3.5,13.3,5,17.4,5.7
			c3.7,0.6,6.2,1.1,11.3,2.1c15.5,2.9,26.7,4.7,56.7,8.9C595.1,419.6,602.3,421.8,606.6,424.7L606.6,424.7z M-951.3-148.2
			c42.9-12,81.6-27.9,113.5-48.2c21.3-13.6,41.2-27.4,76.3-52.9l11.8-8.5c48.5-35.2,73.4-52.1,100.6-67.5
			c35.5-20.1,64.9-30.4,90.6-30.3c22.1,0.1,37.3-4.5,50.9-13.4c5.4-3.7,10.5-7.7,15.3-12c11.5-9.8,17.4-13.9,26.5-17.6
			c11.8-4.8,25.7-6.4,43.7-4.5c48.5,5.2,51.5,5.4,57.9,2.7c3.2-1.3,5.5-3.6,9.2-8.9c1.1-1.6,5.8-8.6,6-9c2.8-4.1,5.7-8.2,8.8-12.2
			c16.6-21.8,19.2-24.4,27.4-25.6c1.9-0.3,4-0.3,7.1-0.3c0.9,0,7,0.3,9.2,0.3c10.4,0.2,21-0.3,31.4-1.5c7.5-0.8,9.8-1.4,32.2-7.3
			c15.8-4.2,25.3-6.1,34.8-6.5c12.5-0.6,22.3,2.1,29.5,8.9c8.5,8,22.5,17.7,40.7,28.5c15.8,9.4,29.9,17,51.5,28.2
			c11.6,6,20.6,12.1,34.1,22.4c16.3,12.5,19.6,14.8,27,18.6c9.7,5,19.2,7.3,30.3,6.8c17.4-0.7,27.1-0.1,35.3,2.5
			c9.7,3.1,12.1,4.9,36.1,24.9c35,29.3,71.3,41,113.9,29.6c21.3-5.7,27.8-12.5,32.8-27.8c2-6.3,2.7-8,4.3-10.8
			c3.5-5.8,9-9.6,17.9-11.7c10.7-2.5,26.4-14,45.1-32l4.8,2.5c-19.8,19.1-36.5,31.4-48.9,34.3c-7.2,1.7-11.2,4.4-13.8,8.8
			c-1.4,2.3-2,3.9-3.9,9.8c-5.5,16.9-13.4,25.3-37.1,31.6c-45,12-83.1-0.3-119.4-30.6C59-346.3,56.6-348,48-350.8
			c-7.4-2.4-16.4-2.9-33.1-2.3c-12.1,0.5-23.7-2.1-33.4-7.4c-7.7-4-11.1-6.4-27.8-19.1c-13.3-10.1-22.1-16.1-33.3-21.9
			c-21.7-11.2-35.9-18.8-51.8-28.3c-18.5-11-32.7-20.8-41.6-29.2c-10.9-10.2-26.5-9.6-58.5-1.1c-22.9,6.1-25.3,6.7-33.3,7.5
			c-10.8,1.2-21.6,1.7-32.3,1.5c-2.2,0-8.4-0.3-9.2-0.3c-2.7-0.1-4.5,0-6,0.2c-5.5,0.8-7.9,3.2-23.1,23.1c-3.1,4-5.7,7.7-8.6,12
			c-0.3,0.4-4.9,7.4-6.1,9c-4.3,6.1-7.4,9.1-12,11c-8.1,3.4-10,3.3-61.3-2.3c-16.9-1.8-29.6-0.3-40.3,4c-8.2,3.3-13.7,7.2-24.7,16.5
			c-7.8,6.6-11,9.2-15.9,12.4c-14.7,9.7-31.3,14.6-54.7,14.6c-24.2-0.1-52.6,9.9-87.2,29.4c-26.9,15.2-51.7,32.1-100,67.1l-11.8,8.5
			c-35.3,25.5-55.1,39.4-76.6,53.1c-34.1,21.7-75.7,38.4-121.6,50.7L-951.3-148.2L-951.3-148.2z M-1080.3,20.8l0.8-1.1l2.4,1.2
			c15.1,7.8,9.2,20.5-11.1,34.6c-10,6.8-20.8,12.6-32,17.6l3.2-4.2c9.5-4.4,18.6-9.5,27.2-15.3c19-13.2,24-23.9,11.2-30.5
			c-0.8-0.4-1.6-0.8-2.4-1.2l77-100.9c15.5-0.1,31-0.5,46.5-1.2c48.2-3.7,133.2-44.7,159.6-79.4c29.9-39.2,171.5-130.8,208.2-132.3
			c43.7-1.9,123.1-20.8,147.8-37.6c13.4-9.1,25.1-9,49.9-2.5c17,4.5,24.6,5.4,33.4,2.8c6.5-1.9,14.4-7,27.4-17
			c1.8-1.4,15.6-12.1,19.8-15.3c28.6-21.7,48-31.1,65.8-27.6c7.2,1.4,8.8,1.6,29.3,4c22.9,2.7,35.9,5.2,49,10.5
			c17.2,6.9,30.1,17.8,38.9,34.2c7.5,13.9,21.3,25.3,40.5,34.8c14.6,7.2,30.9,12.7,51.9,18.4c5,1.4,20.5,5.3,22.9,6
			c7.4,2,11.8,3.4,14.5,4.8c11.8,6.1,21.4,10.9,34.3,16.9c19.4,9,38.6,17.2,57.3,24c22.2,8,42.4,13.7,60.1,16.5
			c56,9,108.1,0.6,125.9-18.3c4.9-5.2,5.8-5.9,25-20.6c18.7-14.4,29-24.1,36.6-36.1c3.2-5.1,5.6-10.3,7.1-15.7
			c2.9-10.3,9.3-23.6,18.6-39.3l2.1,1.1c-8.9,15-14.9,27.7-17.9,38.6c-1.6,5.7-4.1,11.2-7.4,16.4c-7.8,12.4-18.4,22.3-37.4,36.9
			s-19.9,15.3-24.6,20.3c-18.7,19.8-71.8,28.4-128.8,19.2c-18-2.9-38.4-8.6-60.7-16.7c-18.8-6.8-38.2-15-57.6-24.1
			c-13-6.1-22.5-10.8-34.4-17c-2.5-1.3-6.7-2.7-14-4.6c-2.4-0.6-17.9-4.6-22.9-6c-21.2-5.7-37.7-11.3-52.4-18.6
			c-19.7-9.7-33.9-21.4-41.6-35.7c-8.6-15.9-21-26.5-37.6-33.2c-12.8-5.2-25.6-7.6-48.2-10.2c-20.6-2.4-22.3-2.6-29.6-4
			c-16.6-3.3-35.3,5.8-63.1,26.9c-4.2,3.2-17.9,13.9-19.8,15.3c-13.3,10.2-21.5,15.4-28.4,17.5c-9.6,2.9-17.5,1.9-37.4-3.3
			c-21.6-5.7-32.6-5.8-44.9,2.6c-25.3,17.3-105.3,36.4-149.6,38.2c-35.5,1.5-176.3,92.5-205.7,131.1c-27,35.4-112.9,76.9-162,80.6
			c-7.5,0.6-28.1,0.9-48.4,1.2l1.9-2.5L-1080.3,20.8L-1080.3,20.8z M-793.1-355.5l1.8-2.4c24,0.9,51.6-4.2,83.5-14.2
			c16.6-5.2,64.9-23.2,71.6-25.1c7.7-2.2,16.2-3.6,28.4-4.8c3.9-0.4,17.6-1.7,19.7-1.9c33.6-3.3,53.2-8.7,70.1-22.2
			c6.8-5.5,14.9-12.8,26.2-23.6c2.9-2.8,25.4-24.5,32.2-31.1c34.6-32.8,58-51,77.1-57.1c47.8-15.3,93-35.1,101.4-46.3
			c4.2-5.5,6.3-6.8,40.4-26.6c4.1-2.4,7.5-4.4,10.7-6.3c15.5-9.4,25.9-16.9,32-23.8l2.4,1.2c-6.3,7.3-17,15-32.8,24.6
			c-3.2,2-6.6,4-10.8,6.4c-33.1,19.2-35.7,20.8-39.5,25.8c-9,11.9-54.5,31.8-103,47.4c-18.5,5.9-41.7,24-75.8,56.4
			c-6.9,6.5-29.3,28.2-32.2,31c-11.4,10.8-19.5,18.2-26.5,23.7c-17.6,14.1-37.6,19.6-71.9,23l-19.7,1.9c-11.9,1.2-20.3,2.6-27.8,4.7
			c-6.5,1.9-54.8,19.8-71.5,25C-739.9-359.5-768.3-354.3-793.1-355.5L-793.1-355.5z M-1391.4,428.5l7.2-9.4
			c-2.8,5.7-4.8,10.7-6.4,15.3c-5.2,15.5-2.7,23.6,8.6,24.4c59.9,4.2,120.3-10.7,145.8-44.1c26.8-35.1,68.1-61.5,117.3-79.2
			c8.6-3.1,16-5,23.1-6.2c2.8-0.4,5.4-0.8,8.5-1.1l7.1-0.6c13.2-1.3,21.4-4.9,37.7-18.5c6.9-5.7,11.6-9.2,31.9-23.6l4.6-3.3
			c23.6-16.8,35.6-26.8,40.8-35.3c6.2-10.2-0.4-16-24.2-17.5c-9.4-0.6-18.8-1.7-27.9-3.3c-40.8-7-73.9-20.7-110.7-40.9l-4.6-2.5
			l-3.4-1.8c-12.3-6.4-26.2-10.5-40.8-12.1c-5.5-0.6-11-0.5-16.6,0.2l2.1-2.7c5.1-0.5,10.1-0.5,15.1,0c16.4,1.8,31.9,6.7,45.3,14.3
			l4.6,2.5c36.6,20.1,69.4,33.6,109.8,40.6c9.1,1.6,18.3,2.6,27.6,3.2c25.5,1.6,33.7,8.8,26.3,21c-5.4,8.9-17.6,19.1-41.6,36.1
			l-4.6,3.3c-20.2,14.3-25,17.8-31.7,23.4c-16.8,14-25.7,18-39.6,19.3l-7.1,0.6c-3,0.3-5.6,0.6-8.3,1c-7.7,1.3-15.2,3.3-22.5,6
			c-48.7,17.6-89.5,43.6-115.9,78.2c-26.3,34.4-87.8,49.6-148.6,45.4c-13.6-0.9-16.5-10.5-10.9-27.3
			C-1392.8,432.1-1392.1,430.3-1391.4,428.5L-1391.4,428.5z M-1288.6,293.8l4.1-5.3l-1.9,8.9c-2.9,13-8.8,26.6-17.6,41.6
			c-7.2,12.3-13.4,21.2-28.1,41.4c-14.9,20.4-19.9,28.2-21,34.6c-1.2,7.2,4.9,9.6,22.2,7c64.5-9.8,89.9-22.7,115.9-56.8
			c11.9-15.5,23.1-25.5,38.1-33.7c13.1-7.3,19.6-9.8,64.4-26c10.6-4,21.6-7.2,32.7-9.7c4.5-1,9-1.7,13.5-2.3
			c1.4-0.2,2.4-0.3,3.3-0.5c4.1-0.6,8.1-2,11.8-4c5.4-3,10.5-6.4,15.2-10.1l2.9-2.1l2.8-2c2.2-1.6,3.7-2.8,5.1-3.9
			c3.6-2.8,6.2-4.9,8.2-6.8c4.5-4.3,6.1-7.4,4.8-10c-2.9-6.4-21.7-12-64.9-18.6c-28.4-4.4-45.3-10.8-73.4-25.1
			c-18.5-9.4-25.5-12-35.1-11.7c-11.8,0.3-24.5,6.7-41.7,21.6c-4.8,4.2-9.3,7.9-13.4,11.1l6.6-8.6l4.9-4.2
			c17.7-15.3,31-22,43.8-22.4c10.3-0.3,17.6,2.5,36.6,12.1c27.8,14.1,44.5,20.5,72.5,24.8c44.4,6.9,63.4,12.5,66.9,20
			c1.7,3.7-0.2,7.7-5.5,12.7c-2.7,2.5-5.5,4.8-8.5,7l-5.2,3.9l-2.8,2l-2.9,2.1c-4.9,3.8-10.1,7.3-15.6,10.3c-4.4,2.3-8,3.5-12.8,4.3
			l-3.5,0.5l-3.8,0.5c-3.4,0.5-6.2,1-9.5,1.7c-10.9,2.4-21.7,5.6-32.2,9.5c-44.5,16.1-51,18.6-63.9,25.8
			c-14.5,8.1-25.5,17.7-37.1,32.9c-26.5,34.8-52.7,48-118,58c-19,2.9-27-0.2-25.4-9.6c1.2-6.9,6.2-14.7,21.5-35.7
			c14.7-20.1,20.8-29,28-41.1c8.6-14.7,14.5-28.2,17.3-40.9L-1288.6,293.8L-1288.6,293.8z M435.8-313.2l2.5,1.3l-5.1,13.2
			c-11.3,29.1-20.3,47.9-33.4,66.7c-17,24.5-38.8,44.2-67.3,59.4c-43.6,23.2-92.6,32.2-142.7,29.2c-39.4-2.4-77.4-12.3-101.5-24.8
			c-16.3-8.4-43.4-18.3-96.5-35.9l-6-2c-65-21.6-83.7-28.2-97.6-35.4c-8.3-4.3-9.6-5.2-42-30.2c-7.4-5.8-13.2-10.2-19-14.3
			c-43.3-31.4-71.9-40.8-89.2-22.4c-1.6,1.7-3.3,3.5-5.3,5.7l-5.2,5.6c-20.6,22.3-30.8,31.6-43.3,37.9c-15.7,8-31.7,7.6-50.4-2
			c-24.3-12.6-31.8-14.6-42.2-12.2c2.1-0.5-21.7,6.5-33.8,8.8c-10.7,2-54.9,9.5-60.5,10.5c-8.5,1.5-16.9,3.1-25.4,4.8
			c-27.3,5.5-47.6,10.9-61.5,17c-29.5,12.9-54.8,26.2-67.7,37.8c-17.7,15.9-7,25.2,43.3,26.1c47.7,0.9,95.2,3.4,142.4,7.5
			c10.9,0.9,43.7,3.9,48.9,4.3c15.8,1.4,26.1,2,34.2,2.1l6.4,0.1l7.1,0.1c5.8,0.1,11,0.4,16.1,0.6c57.6,3.4,99.5,19.9,122,59.5
			c32.5,57.1,30.1,127.4-2.1,169.5c-31.6,41.4-43.3,53.6-67.2,65.5c-7.6,3.7-15.4,6.9-23.6,9.3c-28.3,8.9-54.9,20.5-65.6,30.4
			c-13.3,12.3-0.4,21,48.2,24.8c41.8,3.2,78.1-4.8,111.5-21.9c14-7.3,27.3-15.8,39.6-25.3c7.1-5.3,26.8-21.3,28.8-22.8
			c3.8-3.1,7.9-5.8,12.2-8.3c42.5-23.1,100.7-40.1,148-36c23.7,2.1,47-4.9,80.6-21.1c4.4-2.2,22.8-11.3,27.4-13.5
			c18.5-8.9,30.9-13.3,42.1-14.4c36.4-3.5,86.8,11.3,138.3,38c17.9,9.3,41.5,17.7,71.5,26.2c13.7,3.8,27.6,7.4,41.5,10.8
			c-3.6-0.9,43.6,10.5,54.4,13.4c39.2,10.2,106.2,39.8,161.1,68.2c41.4,21.4,81.6,14.3,155.8-36.3c45.9-31.3,59.4-49,63.2-71.1
			l1.1-6.6c0.7-5.3,3-10.5,6.4-15.1c6.7-8.7,6.6-8.7,46.6-50.1c7.3-7.5,13.1-13.6,18.6-19.5c16.1-17.2,28.4-31.2,37.7-43.4
			c1.6-2,3.2-4.2,4.9-6.5l2.4,1.2c-1.7,2.3-3.3,4.5-4.9,6.5c-9.3,12.2-21.7,26.3-37.9,43.6c-5.5,5.9-11.4,12-18.6,19.6
			c-39.8,41.2-39.8,41.3-46.4,49.9c-3.3,4.3-4.8,8.3-5.9,14.1c-0.3,1.4-1.1,6.5-1.1,6.6c-3.9,22.9-17.9,41.1-64.4,72.8
			c-75.1,51.2-116.6,58.5-159.1,36.5c-54.7-28.3-121.6-57.8-160.6-68c-10.7-2.8-57.9-14.2-54.3-13.3c-14-3.4-27.8-7-41.6-10.8
			c-30.2-8.5-53.9-17-72-26.4c-51-26.4-100.9-41.1-136.5-37.7c-10.8,1-22.9,5.4-41,14.1c-4.6,2.2-22.9,11.4-27.4,13.5
			C40.6,88.7,16.9,95.8-7.6,93.6c-46.5-4-104.1,12.7-146,35.6c-4.2,2.4-8.1,5.1-11.8,8c-1.9,1.4-21.7,17.5-28.8,22.9
			c-12.4,9.6-25.9,18.1-40.1,25.5c-33.9,17.4-70.8,25.6-113.3,22.3c-50.6-3.9-65.7-14.2-49.7-28.9c11.1-10.2,38.1-22.1,66.9-31.1
			c7.9-2.4,15.6-5.5,23-9.1c23.4-11.7,34.8-23.6,66.2-64.7c31.5-41.3,33.9-110.6,1.9-166.9c-22.1-38.9-63.2-55-119.9-58.4
			c-7.7-0.5-15.4-0.7-23.2-0.8l-6.4-0.1c-11.5-0.3-23-1-34.5-2.1c-5.2-0.4-37.9-3.4-48.9-4.3c-47.1-4.1-94.5-6.6-142.1-7.5
			c-52.3-0.9-65.2-12.1-45-30.2c13.2-11.9,38.7-25.4,68.6-38.3c14.2-6.2,34.7-11.7,62.2-17.2c7.8-1.6,16.1-3.1,25.5-4.8
			c5.6-1,49.8-8.5,60.4-10.5c12-2.3,35.6-9.2,33.7-8.7c11.4-2.6,19.4-0.4,44.3,12.5c17.9,9.2,32.7,9.6,47.4,2.1
			c12-6.1,22-15.3,42.4-37.3l5.1-5.6l5.4-5.7c10.3-11.1,24.7-12.9,42.6-7c14.4,4.8,30.7,14.3,50.7,28.8c5.8,4.2,11.6,8.6,19.1,14.4
			c32.1,24.8,33.4,25.7,41.5,29.9c13.7,7.1,32.5,13.7,97.2,35.2l6,2c53.3,17.7,80.4,27.6,96.9,36.1c23.7,12.3,61.4,22.1,100.3,24.4
			c49.5,2.9,97.9-5.9,140.9-28.8c28.1-14.9,49.5-34.3,66.2-58.4c13-18.6,21.9-37.3,33.1-66.2L435.8-313.2z M468.4-296.3l2.4,1.3
			c-4.6,9.4-9.8,21.2-16.2,36.6c-14.6,34.9-37.4,62.3-65.9,83.1c-18.2,13.4-39,23.9-61.3,30.8c-25.2,7.7-51,13.4-77.1,16.8
			c-41.9,5.6-81.3,4.8-116.1-4.5c-20.6-5.5-40.8-11.9-60.5-19c-8.3-3-16.6-6-26.7-9.8l-24.2-9.2c-29.8-11.2-45.8-16-59-17
			c-29.1-2.3-77.6-21.9-127.3-47.6c-3.3-1.7-6.5-3.7-9.7-6.1c-5.6-4.1-10.2-8.4-18-16.2c-13.8-13.8-18.4-17.8-25.9-21.1
			c-9.7-4.3-19.6-3.2-31.6,4.5c-12.1,7.8-18.2,13.3-32.7,28.3c-17.5,18.1-26.9,22.7-47.4,18.7c-6.7-1.4-13.6-2.3-20.6-2.6
			c-2-0.1-3.8,0-5.9,0l-4.6,0.2c-6.4,0.1-11.7-1.5-24.5-8.2c-7.6-3.9-20.1-12.1-22-12.6c-3.4-0.9-1.6-1.2-27.3,4.7
			c-6.1,1.4-13.6,2.6-23.9,3.8c-5.6,0.7-26,2.9-28.9,3.3c-18.1,2.1-30.8,4-41.9,6.7c-19.9,4.8-31.5,11.4-34.3,20.7
			c-2.9,9.6,2.4,14.6,16.6,17.1c8,1.2,16.1,1.9,24.3,2c4.8,0.2,25.4,0.6,30.5,0.8c13,0.3,26,1.3,38.7,2.9
			c11.4,1.4,22.8,2.5,34.3,3.1c6.5,0.4,34.1,2.1,41.3,2.6c14,0.9,25.6,1.8,36.5,2.9c52.9,5.3,86.3,14.7,100.8,32l9.5,11.2
			c4,4.7,7.3,8.7,10.4,12.6c7.6,9.4,14.7,19.1,21.2,29.1c27.8,43.5,35.8,85.4,17,129.3C-211.1,103.8-248.3,138-304,160.1
			c-19,7.6-23.6,15.6-14.7,19.5c10.3,4.5,32.5,1.9,56.7-8.5c15.3-6.6,29.4-16.4,54.8-36.7l14.5-11.7c5.7-4.5,10.4-8.3,15.1-11.8
			c39.1-29.8,71.3-45.5,108.9-48.7c25.4-2.1,82.2-4.3,88.4-4.9c24-2.1,40.7-7.5,64-21.3C131,7.8,174.2,9.3,230,38.1
			c22.3,11.5,44.6,19.6,76.2,28.9c5.6,1.6,11.3,3.3,16.9,4.9c6.5,1.9,11.1,3.2,15.4,4.5c10.8,3.4,18.6,6.3,24.7,9.5
			c10.6,5.5,24,9.4,84.7,25.7l8.1,2.2c45,12.2,70,20,84.3,27.4c3.7,1.9,5.7,3,15.1,8.1c18.3,9.9,29,15.4,41.6,20.9
			c40.9,17.9,72.6,21.3,95.1,5.2c7.4-5.3,15.1-10.2,23.1-14.8c-0.9,0.5,13.7-7.9,17.5-10.2c33.2-20,49.5-40.6,61.8-87.2
			c4.8-17.6,12.1-34.9,21.7-51.4c16-27.9,35-51.8,67-87.3l4-4.3l2.4,1.2l-4.1,4.5c-31.9,35.3-50.7,59.1-66.6,86.8
			C809.4,29,802.2,46,797.4,63.5c-12.5,47.3-29.3,68.5-63.1,88.9c-3.8,2.3-18.4,10.8-17.5,10.3c-7.9,4.5-15.5,9.4-22.8,14.6
			c-23.8,17.1-56.5,13.5-98.3-4.8c-12.7-5.6-23.4-11.1-41.9-21c-9.3-5.1-11.4-6.2-15-8.1c-14.1-7.3-39-15.1-83.8-27.2l-8.1-2.2
			c-61.1-16.4-74.4-20.3-85.3-26c-6-3.1-13.6-5.9-24.3-9.3c-4.2-1.3-8.8-2.7-15.3-4.5c-5.6-1.6-11.3-3.2-16.9-4.9
			c-31.8-9.3-54.2-17.4-76.7-29.1c-54.9-28.4-96.9-29.9-142.9-2.4c-23.8,14.3-41.1,19.8-65.6,22c-6.3,0.6-63.1,2.7-88.4,4.9
			c-36.8,3.1-68.4,18.6-107.1,48c-4.6,3.5-9.4,7.2-15,11.8l-14.5,11.7c-25.6,20.5-39.9,30.5-55.5,37.2c-25,10.7-48.1,13.5-59.3,8.5
			c-11.7-5.1-5.6-15.7,15.2-24c55-21.8,91.6-55.5,120.7-123.7c18-43,10.2-84.2-17.3-127.2c-6.1-9.5-12.9-18.8-21.1-29
			c-3.1-3.9-6.4-7.8-10.4-12.6l-9.5-11.2c-14-16.7-46.8-25.9-99-31.2c-10.9-1.1-22.5-2-36.4-2.9l-41.3-2.6
			c-14.9-1-25.7-1.9-34.6-3.1c-12.5-1.4-25.3-2.4-38.3-2.7c-5.1-0.1-25.7-0.6-30.5-0.8c-8.3-0.1-16.6-0.8-24.7-2.1
			c-15.5-2.7-22-8.8-18.6-20c3.2-10.5,15.6-17.6,36.5-22.6c11.2-2.7,24-4.7,42.3-6.8c2.9-0.3,23.3-2.6,28.9-3.3
			c7.9-0.8,15.8-2.1,23.6-3.8c27.2-6.3,24.7-5.8,28.9-4.7c2.4,0.6,15.4,9,22.6,12.8c12.4,6.4,17.3,8,23.1,7.9l4.5-0.2
			c2.1-0.1,4-0.1,6.2,0c7.2,0.3,14.2,1.2,21.1,2.7c19.2,3.8,27.6-0.4,44.4-17.7c14.7-15.2,20.9-20.8,33.3-28.8
			c12.9-8.3,24-9.5,34.7-4.8c7.9,3.5,12.5,7.5,26.6,21.6c5.4,5.7,11.4,11.1,17.8,16c3.1,2.3,6.2,4.2,9.3,5.8
			c49.4,25.5,97.7,45,126.2,47.3c13.5,1.1,29.7,6,59.8,17.2l24.3,9.2c10.1,3.8,18.4,6.9,26.7,9.8c21.3,7.6,40.7,13.7,60.3,18.9
			c34.3,9.1,73.3,9.9,114.9,4.4c25.9-3.5,51.5-9.1,76.6-16.7c21.8-6.8,42.3-17.1,60.2-30.3c28.1-20.4,50.6-47.5,65-81.9
			C457-271.6,462.5-284,468.4-296.3L468.4-296.3z M739.6-156l3,1.6c-2.3,0.8-4.1,1.4-5.3,1.8c-17.6,5.9-29.5,8.7-39.2,8.6
			c-5.1,0.1-10-1-14.2-3.1c-5.7-2.9-11.2-3.8-19.7-3.5l-9.1,0.4c-15.1,0.7-25.8-1-39.3-8c-13.4-6.9-21.7-15-31.6-28.6
			c-1.3-1.7-2.5-3.4-3.7-5.1l-3.6-4.8c-2.7-3.5-5-6.1-7.5-8.3c-2.1-1.9-4.5-3.6-7.1-5c-5.5-2.8-9.1-6.8-20.7-20.9l-2.7-3.3
			c-8.7-10.4-14.6-16.1-20.7-18.7c-7.3-3.2-13.9-1.1-20.7,7.9c-34.3,45-95.8,102.8-123.8,109.3c-30.6,7.1-102.5,18.6-129.3,21
			c-46.9,4.1-107.7,5.3-146.6-0.1c-13.1-1.8-25.9-4.4-38.4-7.7c-9.1-2.4-18.1-5-30.5-9c-1.4-0.4-23.5-7.6-30.7-9.9
			c-13-4.1-25.1-7.7-37.9-11.3c-56.6-15.7-68.1-20.1-99.1-36.1c-5.9-3.1-6.8-3.7-30.2-21.7c-5.1-3.9-9.1-6.9-13-9.8
			c-17.4-12.6-30.7-20-41.7-22.2c-13.1-2.6-21.8,2.8-26.2,18.2c-3.9,13.9-2.7,24.6,3.3,34.2c4.9,7.8,11.8,14,26.8,25.1
			c20,14.8,23.2,17.3,32.1,25.4c12.8,11.6,23.6,24.7,32.2,38.9c12.2,20.2,15.7,42.9,13.1,69.9c-1.3,13.6-9.4,53.5-9.9,58.9
			c-1.6,16.9,4,22.1,22.7,17.8c20-4.6,38.5-5.4,73.6-4.4c1.5,0,6.7,0.2,6.9,0.2c26,0.7,39.2,0.6,53.6-1.1c18.6-2.1,34-6.9,47.4-15.1
			C105.6-7.8,156.3-21,184.3-6.6l13.1,6.8c25,13.2,41.3,21.4,59.9,30c33.6,15.5,60.2,24.8,77.8,26.1c18.4,1.4,41.1,4.7,72.6,10.3
			c10.1,1.8,18.4,3.3,37.1,6.8c22.4,4.2,32.3,6,44.3,8.1c11.1,1.9,22.1,3.9,33.2,5.9c10.7,1.9,17.5,3,23.7,3.9
			c6.8,1,13.8,1.6,20.7,1.8c6.1,0.2,12.4,0.1,19.8-0.4c12.1-0.8,19.8,0.8,35.5,5.9l3.1,1c15.3,4.9,25.3,6.1,39.7,3.5
			c30.2-5.4,58.8-39.6,82.8-91.7c8.6-18.7,26.9-44.4,54.9-78.8c10.8-13.2,21.7-26.3,32.8-39.4l2.4,1.2L832-99
			c-11.4,13.5-19.5,23.2-27.4,33c-27.8,34.3-46,59.8-54.5,78.2c-24.4,52.9-53.5,87.8-85.1,93.4c-15.1,2.7-25.6,1.4-41.3-3.6l-3.1-1
			c-15.4-5-22.7-6.5-34.4-5.7c-6.7,0.4-13.4,0.6-20.1,0.4c-7.1-0.3-14.1-0.9-21.1-1.9c-6.3-0.9-13.1-2-23.9-3.9
			c-11-2-22.1-3.9-33.1-5.9c-12-2.1-21.9-3.9-44.3-8.1c-18.7-3.5-26.9-5-37-6.8c-31.4-5.6-54-8.9-72.2-10.2
			c-18.1-1.3-44.9-10.7-78.9-26.4c-18.6-8.6-35-16.9-60-30.1l-13-6.8c-26.7-13.8-76.4-0.8-129.3,32C39.5,36.1,23.6,41,4.5,43.2
			c-14.7,1.7-28,1.8-54.1,1.1l-6.9-0.2c-34.9-1-53.2-0.2-72.8,4.3c-20.8,4.8-27.7-1.8-26-20.2c0.5-5.5,8.6-45.4,9.9-58.9
			c2.6-26.6-0.9-48.9-12.8-68.6c-8.5-14.1-19.2-27-31.8-38.5c-8.8-8.1-12-10.5-31.9-25.3c-15.2-11.3-22.3-17.6-27.4-25.7
			c-6.3-10.1-7.6-21.4-3.5-35.9c4.8-16.8,15.1-23.2,29.9-20.3c11.6,2.3,25.1,9.8,42.8,22.7c3.9,2.9,8,5.9,13.1,9.8
			c23.1,17.7,24.1,18.4,29.8,21.4c30.9,16,42.2,20.3,98.6,35.9c12.9,3.6,25,7.2,38,11.3c7.3,2.3,29.3,9.4,30.7,9.9
			c12.4,4,21.4,6.6,30.4,9c12.6,3.3,24.8,5.7,38.1,7.6c38.5,5.4,99.2,4.2,145.9,0.1c26.6-2.3,98.3-13.8,128.8-20.9
			c26.9-6.3,88-63.7,121.9-108.1c7.6-10,15.8-12.7,24.6-8.9c6.6,2.9,12.7,8.7,21.6,19.4l2.7,3.3c11.2,13.7,14.9,17.7,19.9,20.3
			c2.7,1.4,5.2,3.2,7.6,5.3c2.6,2.3,5,5.1,7.8,8.7c1.9,2.4,3.7,4.9,5.4,7.4l1.8,2.6c9.7,13.3,17.9,21.2,30.8,27.9
			c12.9,6.7,23.1,8.3,37.7,7.7c0.7,0,7.3-0.4,9.2-0.4c8.9-0.3,15,0.6,21.2,3.8c3.5,1.8,7.7,2.7,12.8,2.7c9.2,0,20.9-2.7,38.1-8.4
			L739.6-156L739.6-156z M-686.8,919.4l-4.8-2.5c6.1-5.8,12.4-12.3,19-19.4c7.8-8.3,15.5-16.9,22.5-25.2c2.5-2.9,4.7-5.6,11.2-16.2
			c2.1-4.8,4.6-10.1,7.6-15.8c13.8-26.9,31.5-52.9,53.1-74.6c12.2-12.5,26.3-23.5,42-32.5c18.7-10.5,39-18.6,60.2-23.9
			c14-3.6,22.3-5.1,46-8.8c17-2.6,24.3-4.2,30.3-7c3.3-1.5,5.7-3.3,7.3-5.5c2.9-3.8,2.9-3.8,13.5-20.9c5.3-8.5,9.1-14.4,13.2-20.3
			c18.8-26.8,36.3-40.5,55.3-37.1c46.7,8.1,81.7,5.7,122-14.1c50.5-24.9,113.4-36.6,137.6-24c29.5,15.2,50.9,20.4,84.7,17.2
			c24.3-2.3,33.6-2.6,42.1-0.8c6.4,1.4,10.3,3.1,23,9.6c4.4,2.3,9.8,2.6,17.6,1.2c4.2-0.7,20.6-4.8,22.6-5.2
			c24.1-5.2,43.1-4.3,64.2,6.7c5.8,3,10.8,5.7,17.3,9.3c17.5,9.8,20.9,11.3,28,12.4c9,1.4,18.2,0.3,53.6-6
			c30.7-5.4,40.3-6.1,81.8-7.5c4.9-0.2,8.9-0.3,12.7-0.6c11.7-0.7,23.4-2.2,35-4.6c16.2-3.3,32.1-7.1,47.4-11.4l-4.9,6.5
			c-13.8,3.7-27.7,7-41.6,9.8c-12.5,2.6-23.6,3.9-35.9,4.7c-3.9,0.3-7.9,0.4-12.9,0.6c-41.1,1.4-50.5,2.1-80.8,7.4
			c-36.4,6.4-45.7,7.6-55.8,6c-8.2-1.2-11.7-2.9-30-13c-6.4-3.6-11.3-6.2-17.1-9.2c-19.7-10.2-37.2-11.1-59.9-6.1
			c-1.8,0.4-18.4,4.5-22.9,5.3c-9.1,1.6-15.8,1.3-21.6-1.7c-12.2-6.3-15.9-7.9-21.5-9.1c-7.7-1.6-16.5-1.4-40.1,0.9
			c-35.2,3.4-57.8-2.1-88.1-17.8c-22-11.4-83,0-131.8,24c-41.7,20.5-78.2,23.1-126.1,14.7c-15.6-2.7-31.3,9.5-48.8,34.5
			c-4.1,5.8-7.8,11.6-13,20c-10.8,17.4-10.7,17.3-13.8,21.4c-2.3,3-5.5,5.4-9.7,7.3c-6.8,3.1-14.5,4.8-32.2,7.5
			c-23.6,3.6-31.7,5.1-45.4,8.6c-20.5,5.2-40.3,13-58.5,23.3c-15.2,8.8-28.9,19.4-40.6,31.4c-21.2,21.3-38.6,46.8-52.1,73.2
			c-2.9,5.7-5.4,10.9-7.5,15.6c-0.7,1.6-1.4,3.1-5.3,9.5c-9.4,11.4-19.2,22.6-29.4,33.5C-674.7,907.3-680.9,913.7-686.8,919.4
			L-686.8,919.4z M-718.8,902.9l-2.5-1.3l0.7-0.5c19.2-11.7,29.8-20.3,41.2-35.3c5.9-7.7,8-10.8,24.1-34.8
			c18.1-27,30.1-43.8,45.5-62c20.4-24.2,42.3-44.9,67-62.5c9.4-6.6,19.1-12.8,29.2-18.4c20.1-11.2,36.8-18.4,52.3-23.1
			c5.9-1.8,11.9-3.3,17.9-4.5c1.7-0.3,11.8-2.4,14.5-2.9c22.9-5.1,37-15.7,66.2-54c31.2-40.8,46.2-47.9,84.4-41.7
			c3.2,0.5,5.7,0.9,8.2,1.3c6.3,0.9,12.6,1.5,19,1.7c16.1,0.5,33.3-1.6,53.3-6.9c106.5-28.4,146.7-30.4,192.5-6.7
			c19.7,10.2,37.9,13.7,62.9,13.5c5.9,0,47.5-2.1,61.9-2c9.4,0,18.5,0.4,27.8,1.1c24.8,2,40.7,7.6,71.4,22.4
			c18.3,8.9,26.3,12.1,36.6,14.2c13.2,2.6,25.8,1.3,40-4.8c10.9-4.7,28-6.9,54.9-8.1c5.5-0.2,11.2-0.4,19.3-0.6
			c32.4-0.9,39.4-1.2,51.1-2.5c19.3-2.1,36-6.7,57-15.1c9.4-3.8,18.7-7.8,27.9-12l-3.1,4.1c-9.9,4.4-17,7.5-23.7,10.2
			c-21.3,8.6-38.2,13.2-57.9,15.4c-11.9,1.3-18.9,1.6-51.4,2.5c-6.4,0.2-12.8,0.4-19.2,0.6c-26.5,1.1-43.3,3.3-53.7,7.8
			c-14.8,6.3-28.2,7.8-42,5c-10.6-2.1-18.8-5.4-37.3-14.4c-30.4-14.7-45.9-20.2-70.2-22.1c-9.1-0.7-18.4-1.1-27.6-1.1
			c-14.3,0-55.9,2-61.9,2c-25.4,0.2-44.1-3.4-64.3-13.8c-45-23.3-84.5-21.3-190.2,6.9c-20.4,5.4-37.9,7.5-54.3,7.1
			c-6.5-0.2-12.7-0.8-19.4-1.7c-2.6-0.4-5.1-0.8-15.9-2.6c-15-2.5-23.1-2.1-32.7,2.4c-11.6,5.4-24.3,17.5-41,39.4
			c-29.6,38.8-44.3,49.8-68,55.1c-2.8,0.6-12.9,2.6-14.5,2.9c-5.9,1.2-11.8,2.7-17.6,4.5c-15.3,4.6-31.8,11.7-51.6,22.8
			c-10,5.6-19.7,11.7-28.9,18.3c-24.5,17.4-46.2,38-66.5,62c-15.3,18.1-27.3,34.8-45.3,61.7c-16.1,24.2-18.2,27.2-24.2,35
			C-687.5,880.8-697.4,889.4-718.8,902.9L-718.8,902.9z M-659,933.8l-2.4-1.2c7.7-10.3,15.7-20.3,25.5-32.2
			c11.2-13.6,18.5-26,34.3-55.9l2.3-4.4c15.7-29.8,25.4-45.3,39.1-59.8c17.8-18.8,38.9-30.3,66.1-34.3
			c82.6-12.3,121-28.6,144.8-59.9c4.3-5.6,7.2-10.8,11.2-18.9c5.6-11.6,6.8-13.7,10.2-17.6c4.7-5.3,10.8-8.6,19.6-10.2
			c10.3-1.8,24.4-1.3,44.3,1.7c29,4.4,52.2-0.8,93.6-16.8l8.4-3.2c21.1-8.2,32.9-12.1,46-14.8c17-3.5,32.6-3.6,48.2,0.2
			c37.2,9.2,57.6,13.3,73,14.7c5.6,0.5,11.3,0.7,17.1,0.7c3.7-0.1,5.9-0.1,14.4-0.4c9.2-0.3,15.9,1.9,30.9,9.1
			c13.3,6.3,19.5,8.8,28.5,10.5c10.7,2,22.1,1.4,33-1.7c20.4-5.5,36.5-4.1,57.1,2.7c2.8,0.9,5,1.7,10.2,3.5
			c18.1,6.4,26.5,8.6,38.1,8.8c14.8,0.2,23.5-1.2,88.5-13.7l12.2-2.3c37.4-7,61.3-10.1,78.3-9.3c13.6,0.6,25.9-0.8,41-4.8l-2.4,3.1
			c-14.1,3.5-25.9,4.8-39,4.1c-16.6-0.8-40.4,2.3-77.5,9.2l-12.2,2.3c-65.4,12.5-74,14-89.2,13.8c-12.1-0.2-20.8-2.4-39.1-9
			c-5.2-1.8-7.3-2.6-10.1-3.5c-20.1-6.6-35.6-7.9-55.3-2.6c-11.4,3.2-23.3,3.9-34.5,1.8c-9.3-1.8-15.7-4.3-29.2-10.7
			c-14.6-6.9-20.9-9.1-29.5-8.8c-4.8,0.2-9.6,0.3-14.4,0.4c-5.8,0.1-11.7-0.2-17.4-0.7c-15.7-1.4-36.2-5.5-73.5-14.8
			c-27.3-6.7-49-2.2-92.2,14.5l-8.4,3.2c-42,16.2-65.7,21.5-95.3,17c-19.6-3-33.4-3.5-43.2-1.7c-8.1,1.4-13.5,4.3-17.7,9.1
			c-3.2,3.7-4.3,5.7-9.8,17c-4,8.3-7,13.6-11.5,19.4c-24.5,32-63.6,48.7-147,61.1c-26.4,3.9-46.9,15-64.1,33.3
			c-13.4,14.2-23,29.6-38.6,59.2l-2.3,4.4c-15.8,30.1-23.2,42.6-34.6,56.4C-643.3,913.5-651.2,923.4-659,933.8L-659,933.8z
			 M-1232,637.4l-4.9-2.5c7.9-7.4,17.3-17.7,30.3-32.6c5.6-6.5,7.4-8.5,10.2-11.7c32.1-36.4,54.5-53.8,82.3-57.8
			c17.3-2.4,32-10.4,47.1-24c5.4-4.8,8.1-7.5,18.3-18.2c10.7-11.1,16.1-16,22.5-19.7c8.6-4.9,16.9-5.5,25.4-1
			c34,17.6,76.7,67.2,94.4,109.9c10.1,24.4,28.7,55.1,47.4,76.2c23.3,26.3,44.9,36.5,61.9,26.8c10.1-5.8,11.4-6.5,15.9-9.2
			c18-10.8,31.4-20.7,41.5-31.4c4.1-4.4,7.6-8.9,10.3-13.4c3.8-6.4,4.1-11.6,2.4-21l-0.9-4.6c-0.6-3-1-6-1.1-9
			c-0.1-4,0.2-7.9,0.8-11.9l0.8-6c1.3-8.7,1.2-13.3-0.6-17.1c-6.8-14.1-26.2-30.2-56.8-50c-6.7-4.3-13.5-8.6-20.4-12.7l-4.9-3.1
			c-21.6-13.4-33.5-22-40.2-30.4c-23.8-30-38.8-99.9-21.5-122.7c8.8-11.6,19.9-18.5,36.4-23.9c8.8-2.8,45.9-11.7,52.9-13.6
			c19-5.2,40-8.1,66.4-10c9.8-0.7,51.1-2.6,60.7-3.3c8.1-0.8,16.1-2.1,24.1-3.9c6.1-1.4,28.4-6.9,29-7c29.2-7,49.4-9.4,70.8-6.8
			c10.2,1.2,24,4,50.5,9.9c11.2,2.5,22.3,4.9,33.5,7.4c12.1,2.7,24.2,5.2,36.3,7.6c59,11.6,101,15.8,127.7,10.3
			c34.4-7,51-15.5,80.5-37c15.1-11,22.3-15.8,33.1-21.3c52-26.6,133.5-49.9,178.9-44.8c43.4,4.8,65.6-1.5,76.1-15.3
			c4.8-6.3,20.4-14.8,39-21.3c21.6-7.6,44.2-11.5,63.4-10.1c39.3,2.9,96.6,19.4,129.7,36.6c12.7,6.6,25.9,8.9,47.2,9.7
			c29.7,1.1,32.5,1.4,40.8,5.7c24.8,12.8,80.7,34,119,43.5l10.9,2.7l9.7,2.4c7.3,1.8,12.1,3,16.5,4.2c10.7,2.9,18.2,5.7,24.8,9.3
			c6.4,3.5,12.2,7.9,18.2,13.9c8.6,8.6,34.2,15,63.9,15.9c11.2,0.4,22.5,0,33.7-1.3l-4,5.2c-39.9,4-84-2.2-98.2-16.4
			c-4.9-5.1-10.6-9.5-17.1-13.1c-6.2-3.4-13.3-6-23.6-8.8c-8.6-2.3-17.3-4.5-26-6.5l-10.9-2.7c-38.8-9.6-95-30.9-120.2-44
			c-7.1-3.7-10-4-38.3-5c-22.1-0.8-36.1-3.2-49.8-10.3c-32.5-16.8-88.9-33.1-127.4-36c-18.2-1.3-39.8,2.4-60.6,9.7
			c-17.5,6.1-32.2,14.2-36,19.2c-12,15.8-36.7,22.8-82.1,17.7c-43.7-4.9-124.1,18.1-175,44.1c-10.4,5.3-17.4,10-32.3,20.8
			c-30.3,22-47.6,30.9-83.2,38.1c-27.9,5.7-70.5,1.5-130.3-10.3c-12.2-2.4-24.3-5-36.4-7.6c-11.2-2.4-22.4-4.9-33.6-7.4
			c-26.3-5.8-39.9-8.5-49.9-9.7c-20.5-2.5-40-0.1-68.4,6.7c-0.6,0.1-22.9,5.7-29.2,7c-8.3,2-16.7,3.3-25.1,4.1
			c-9.7,0.8-51.1,2.7-60.7,3.3c-26,1.8-46.6,4.7-65,9.7c-7.2,2-44.1,10.8-52.6,13.5c-15.3,5-25.3,11.2-33.3,21.7
			c-15.7,20.6-1.1,88.6,21.6,117.2c6.2,7.8,17.8,16.3,38.9,29.4c3.3,2,6.5,4,9.8,6c7.3,4.5,11.5,7.1,15.6,9.7
			c31.3,20.3,51.2,36.7,58.4,51.9c2.4,4.8,2.4,10,1,19.5l-0.9,6c-0.6,3.7-0.8,7.4-0.7,11.1c0.1,2.6,0.5,5.1,1.1,8.4
			c0.2,0.8,0.7,3.9,0.9,4.6c1.9,10.3,1.5,16.6-3.1,24.1c-2.9,4.9-6.6,9.7-11,14.4c-10.6,11.3-24.3,21.4-42.8,32.5
			c-4.5,2.7-5.8,3.5-15.9,9.3c-20.7,11.9-44.7,0.5-69.5-27.6c-19.1-21.5-37.8-52.6-48.2-77.4c-17.3-41.7-59.2-90.5-92.2-107.6
			c-11.9-6.2-20.3-1.3-40.2,19.4c-5.9,6.4-12.1,12.6-18.7,18.5c-16,14.4-31.8,23-50.7,25.6c-25.6,3.6-47.1,20.3-78.3,55.6
			c-2.8,3.2-4.5,5.1-10.1,11.6C-1214.7,619.7-1224,629.9-1232,637.4L-1232,637.4z M-1212.8,647.4l-2.4-1.3c3-2.7,6.2-5.7,9.7-8.8
			l11.8-10.9c28-25.7,43-38,55.7-43.9c8.7-4.1,17.9-7.4,37.4-14c36.7-12.3,50-18.1,56.9-27.1l2.7-3.7c2.9-3.9,4.4-5.9,6.3-8.1
			c8.9-10.7,17.1-16,26.6-14.6c11.8,1.6,24,13.8,37.3,38.7c13.1,24.5,24.1,44.8,35.9,65.9c1.8,3.3,20.1,35.8,24.8,44.4
			c3,5.4,5.9,10.9,8.9,16.4c18.9,35.5,84.5,59,123.3,40.1c19-9.2,24.9-12.9,47.2-27.9c2.6-1.8,5.2-3.5,7.9-5.2
			c7-4.5,14.5-8.3,22.3-11.5c45.4-18.8,78.7-38.2,96.3-61.2c6.1-7.9,12.7-13.4,32.6-28c4-2.9,6.4-4.7,8.9-6.7
			c28.9-22,38.9-37.7,29.5-57.3c-3.8-8.1-9.8-15.1-17.5-20.5c-15.6-10.9-36.5-15.3-66.7-16.7c-5-0.2-21.5-0.7-24.6-0.9
			c-4.5-0.2-9.1-0.2-13.7-0.1l-14.9,0.3c-39.1,0.7-63.8-5.3-88.3-27.3c-6.5-5.9-12.6-10.7-26.9-21.9c-27.6-21.5-38.4-31.2-44.9-42.8
			c-8.8-15.6-2.9-28.7,20.7-39.6c20.7-9.5,42.4-16.9,64.7-21.9c10.8-2.4,21.6-4.6,32.5-6.3c-0.2,0,23.5-3.9,29.8-5
			c8.7-1.5,17.4-3.4,26-5.7c32.3-8.8,52.6-13.2,78.6-15.5c35.4-3.1,71.5-0.4,109.6,9.6c102.6,26.9,142.6,35.4,169.9,33.7
			c30-1.8,91.7-27.4,178.5-73.3c29.1-15.4,59.7-24.7,92.9-29.7c19.2-2.9,34.8-3.9,62.1-4.9c25.3-0.9,33.1-1.4,40.6-3.6
			c5.3-1.7,10.4-4.1,15.1-6.9c3.6-2.1,17.5-10.5,18.3-11c8.2-4.8,15-8.5,22.2-11.9c33.7-15.7,68-19.2,109.3-6.3
			c34.2,10.7,51.8,18.6,74.6,31.6c7.5,4.3,9.6,5.4,13.1,7.2c12.4,6.2,24.9,9.7,45.9,12.2c63.2,7.6,112.3,21.7,161,46.9
			c7.3,3.8,14.1,7.8,24.2,14l4.7,2.9c28.1,17.4,41.5,24.4,61.5,29.9c13.6,3.7,28,5.6,42.6,5.6l-1.9,2.5c-14.4-0.1-28.5-2-41.8-5.7
			c-20.3-5.6-33.8-12.6-62.2-30.2l-4.7-2.9c-10-6.2-16.8-10.2-24-13.9c-48.4-25-97.2-39-160-46.6c-21.3-2.6-34.2-6.2-46.9-12.5
			c-3.6-1.8-5.7-3-13.3-7.3c-22.6-12.9-40-20.7-74.1-31.4c-40.4-12.7-73.8-9.2-106.8,6.1c-7.5,3.6-14.8,7.5-21.9,11.7
			c-0.7,0.5-14.7,8.9-18.4,11c-4.9,3-10.3,5.4-15.8,7.2c-8,2.3-15.8,2.9-41.5,3.8c-27.2,0.9-42.6,2-61.7,4.8
			c-32.8,4.9-63,14-91.8,29.3c-87.2,46.2-149.2,71.9-179.9,73.8c-27.8,1.7-67.9-6.7-171-33.8c-37.8-9.9-73.4-12.6-108.5-9.5
			c-25.7,2.3-45.8,6.6-78,15.4c-8.7,2.3-17.4,4.2-26.2,5.8c-6.4,1.1-30.2,5-29.9,5c-12.5,2.1-22.4,4-32.3,6.3
			c-22.1,5-43.6,12.3-64,21.7c-22.1,10.2-27.3,21.8-19.2,36.2c6.3,11.2,17,20.8,44.8,42.5c9.2,6.9,18,14.1,26.5,21.6
			c23.9,21.5,47.8,27.3,86.3,26.6l14.9-0.3c5.6-0.1,9.9-0.1,13.9,0.1c3.1,0.1,19.6,0.6,24.6,0.9c30.8,1.4,52.1,6,68.3,17.2
			c8.1,5.6,14.4,12.9,18.3,21.3c10,20.9-0.6,37.5-30.3,60.2c-2.5,1.9-5,3.8-8.9,6.7c-19.6,14.4-26.1,19.8-32,27.4
			c-18,23.6-51.8,43.2-97.6,62.2c-7.6,3.1-14.9,6.9-21.8,11.3c-2.4,1.5-4.7,3-7.8,5.1c-22.4,15.2-28.4,18.9-47.6,28.2
			c-40.5,19.6-107.7-4.5-127.3-41.1c-2.9-5.5-5.8-10.9-8.8-16.3c-4.7-8.6-23-41.1-24.8-44.4c-11.8-21.1-22.8-41.4-35.9-65.9
			c-13-24.4-24.7-36-35.4-37.5c-8.1-1.1-15.4,3.6-23.6,13.5c-2.2,2.6-4.2,5.3-6.2,8l-2.8,3.7c-7.4,9.8-20.8,15.6-60.3,28.8
			c-17.5,5.9-26.5,9.2-35.2,13.2c-12.3,5.7-27.2,17.8-54.9,43.3l-11.8,10.9L-1212.8,647.4L-1212.8,647.4z M-1187.7,660.3l-2.4-1.2
			c0.6-0.7,1.2-1.4,1.7-2.1c20.5-26.8,75.7-62.3,117.4-70.3c5.3-1,10.6-2.5,15.6-4.5c5.2-2,10.2-4.4,15-7.1c2-1.1,10.2-5.8,12.2-6.9
			c18.1-9.7,27.1-5.7,39.8,21.8c1.7,3.6,7.6,16.5,8,17.4c3.3,7.1,5.8,12.7,8.4,18.1c6.4,13.5,12.1,25,17.8,35.5
			c19.8,36.5,38.8,60.2,59.4,70.8c40.2,20.8,87.8,27.4,118.9,16.8c7.2-2.5,16.2-7.3,28-14.6c5.1-3.2,10.6-6.8,17.6-11.4l18.7-12.5
			c31.7-21.2,50-31.7,66-36.2c33.4-9.3,95-59.7,122.5-95.8c3.1-4.1,5.5-6.5,16.1-16.7c4.5-4.3,7.3-7.1,10.1-10.1
			c10.6-11.2,16.1-20.2,16.5-28.9c0.8-21.1-31.7-44.3-83.8-57.8c-17.9-4.8-36.6-8.1-55.6-9.7c-16.2-1.2-56.9,0-54.9,0
			c-22-0.4-37.8-7-61.3-27.8c-58.6-51.9-58.3-56.2,7.9-76.9c76.2-23.8,188.7-42,210.8-30.5c23.7,12.2,148.2,40.4,186.5,42.2
			c30.4,1.4,93-15.9,150.4-36.6c3.3-1.2,67.9-30.2,94.7-40.5c44-16.9,80.7-26.4,109.8-26.4c24.3,0,48.4-6,75.8-17.4
			c9.4-3.9,54.3-25.3,64.1-28.5c6.9-2.3,12.5-3.3,17.2-2.9c43.9,3.8,72.7,10.3,108.4,28.8l69.1,35.8c9.7,5,18.2,8.2,58.8,22.9
			l11.2,4.1c25.8,9.4,42.7,16.3,55.1,22.7c4,2,7,3.7,14.3,7.5c44.1,23.4,68.9,34.2,113.6,46.6c8.5,2.4,17.6,3.7,27.2,4.1l-1.9,2.4
			c-9.1-0.4-18-1.8-26.5-4.1c-45-12.5-70-23.4-114.2-46.8c-7.3-3.9-10.3-5.5-14.3-7.5c-12.3-6.4-29.1-13.1-54.8-22.5l-11.2-4
			c-40.8-14.7-49.3-17.9-59.1-23l-69.1-35.8c-35.3-18.3-63.8-24.7-107.3-28.4c-4.2-0.4-9.4,0.5-15.8,2.7
			c-9.6,3.1-54.3,24.5-63.8,28.4c-27.8,11.5-52.4,17.6-77.1,17.7c-28.5,0-64.9,9.4-108.5,26.2c-26.7,10.3-91.4,39.3-94.8,40.5
			c-57.8,20.9-120.7,38.3-151.7,36.8c-38.7-1.8-163.7-30.1-187.7-42.5c-21-10.9-133.1,7.2-208.4,30.7c-63.8,20-63.9,22-6.5,72.8
			c23,20.4,38.2,26.7,59.4,27.1c-2.2-0.1,38.6-1.3,55.1,0c17,1.3,35.2,4.4,56.1,9.8c53.1,13.8,86.5,37.6,85.6,60.1
			c-0.4,9.4-6.2,18.9-17.2,30.5c-3.3,3.5-6.7,6.9-10.3,10.2c-10.4,10-12.8,12.4-15.8,16.3c-27.9,36.6-90.1,87.4-124.3,96.9
			c-15.5,4.3-33.7,14.7-65.1,35.7c-2.4,1.6-15.1,10.2-18.6,12.5c-7,4.7-12.6,8.3-17.7,11.5c-12,7.5-21.2,12.4-28.7,14.9
			c-32,11-80.5,4.2-121.4-16.9c-21.1-10.9-40.4-34.9-60.4-71.8c-5.7-10.6-11.5-22-17.9-35.6c-2.9-6-5.7-12.1-8.5-18.2l-8-17.4
			c-12.1-26.3-19.4-29.5-35.7-20.7c-2,1-10.1,5.7-12.2,6.8c-4.9,2.7-10.1,5.2-15.4,7.2s-10.6,3.6-16.2,4.7
			c-40.8,7.9-95.4,42.9-115.4,69.1L-1187.7,660.3L-1187.7,660.3z M-1258.4,623.8l-2.6-1.4c7-4,12.9-9.1,17.5-15.1
			c33.1-43.3,81-85.1,110.6-91.9c20.9-4.8,32.4-8.6,44.7-15.4c15.2-8.5,29.3-21.1,44-40.4c11.3-14.8,21.9-23.7,33-28.5
			c8.6-3.7,15.5-4.7,33.7-5.3c4.6-0.1,9.3-0.5,13.9-1.2c17.5-2.9,25.9-5.3,34-10.9c10.1-6.9,17.2-18.4,22.1-37
			c1.8-7.4,3.1-14.9,3.8-22.4l0.6-4.8c0.5-4.7,1.1-9.4,2-14.1c5.4-29.6,22.3-45.6,67.6-55.1c32.9-6.9,66.2-11.5,99.6-13.6
			c13.9-0.9,57.9-2.7,66.5-3.4c7.1-0.6,15.8-1.8,28.9-4.1c0,0,27.8-4.9,36.3-6.3c18.9-3.1,34.1-5,47.9-5.9c16.5-1,30.1-0.4,41.1,2.2
			c36.1,8.4,44.1,10.2,61.8,13.9c35.9,7.6,63.8,12.1,83.6,13c7.6,0.5,15.1,1.5,22.4,3.2c25,4.9,35.4,5.9,53.9,3.4
			c25.2-3.5,54.7-14.8,92.2-36.6c95.6-55.6,110.6-61.8,158-66.9c11.4-1.2,22-1,37.8,0.2l7.3,0.6c37.3,3.1,55,1.5,79-11.6
			c10.7-5.9,16.3-10.6,28.3-22.4c10.4-10.3,16-14.6,25.4-17.9c11.7-4.2,27.1-4.9,49.1-1.8c10.1,1.4,21.7,3.7,34.9,6.8
			c46,10.8,69.1,19.6,104,36.2c16.8,8,23.6,10.5,33.5,11.3c3.7,0.3,7.7,0.2,12-0.2c13.3-1.3,26.9,0.2,40.9,4
			c15.7,4.3,28,9.8,47,19.9l5.6,2.9c6.7,3.5,17.9,6.2,54.7,14.1c30.9,6.7,45.2,10.3,53.1,14.5c2,1,4.3,2.6,7.8,5.3l10.5,8.1
			c20.6,15.7,38.5,25.6,60.3,30.6c22.6,5.1,46.5,3.6,71.9-5.8l-2.7,3.6c-24.7,8.5-48,9.7-70.2,4.7c-22.3-5.1-40.5-15.1-61.4-31
			L577,243c-3.4-2.5-5.6-4.1-7.4-5c-7.6-3.9-21.9-7.6-54.5-14.6c-35.3-7.6-46.3-10.3-53.4-14l-5.6-3c-18.8-10-30.9-15.5-46.4-19.7
			c-13.7-3.7-27-5.2-39.8-4c-4.2,0.4-8.4,0.5-12.6,0.2c-10.4-0.8-17.4-3.3-34.5-11.6c-34.7-16.6-57.6-25.3-103.4-36
			c-11.3-2.7-22.9-5-34.6-6.7c-21.6-3-36.4-2.3-47.6,1.6c-8.7,3.1-14,7.1-24.1,17.1c-12.2,12.1-18,16.9-29,22.9
			c-12.8,7.1-27.3,11.6-42,12.9c-11.2,1-20.4,0.7-39-0.8l-7.2-0.6c-15.7-1.3-26.1-1.4-37.2-0.2c-46.8,5.1-61.4,11.1-156.6,66.5
			c-37.8,22-67.8,33.5-93.4,37c-18.9,2.6-29.5,1.6-54.9-3.4c-7.2-1.6-14.5-2.6-22-3.1c-20-0.9-48-5.5-84.1-13.1
			c-20.7-4.4-41.3-9.1-61.8-13.9c-10.7-2.5-24-3.1-40.2-2.1c-15.9,1.1-31.7,3.1-47.5,5.9c-8.5,1.4-36.3,6.3-36.3,6.3
			c-9.7,1.8-19.5,3.2-29.2,4.1c-8.7,0.7-52.8,2.4-66.6,3.3c-33.2,2.1-66.3,6.7-99.1,13.6c-44,9.2-59.9,24.3-65.2,52.8
			c-0.8,4.6-1.5,9.3-1.9,14l-0.6,4.8c-0.7,7.6-2,15.2-3.9,22.7c-5,19.2-12.5,31.2-23.2,38.6c-8.6,5.9-17.4,8.5-35.4,11.4
			c-4.3,0.7-8.5,1-18.7,1.4c-13.4,0.5-20,1.4-28,4.9c-10.5,4.5-20.7,13.1-31.7,27.5c-15,19.6-29.3,32.6-44.9,41.2
			c-12.6,7-24.4,10.9-45.6,15.7c-28.5,6.6-76,48-108.7,90.8C-1245.8,614.5-1251.6,619.6-1258.4,623.8L-1258.4,623.8z M-584.8,972.2
			l-2.4-1.2l7-13.9c19.5-39,33.7-61.8,55.1-84.1c11.3-11.7,17.8-20,26.6-32.5c6.9-9.9,9-12.5,13.1-16.3c9-8.4,22.3-14.2,51.8-22.6
			c38.5-10.9,54.7-18.3,97.1-40.9c7.6-4.1,12.9-6.8,18.5-9.5c4.8-2.3,9.4-4.4,14-6.3c15.3-6.3,30.7-9.6,67.9-15.7
			c42.6-7,59.9-10.9,74.9-19.1c4-2.2,7.7-4.5,11.9-7.2c3.4-2.3,6.9-4.6,10.2-6.9c25.1-17.1,42.1-20.3,84-10.4
			c14,3.3,57.5,14.2,59.8,14.8c45.4,11.1,72.6,15.3,100.7,14c20.2-0.9,20.1-0.9,93.3-1.7l8.7-0.1c34.3-0.4,57.6-1,77.3-2.2
			c10.5-0.6,20.9-1.5,31.4-2.8c7.9-1,15.7-2.1,23.6-3.2c18.5-2.5,37.1-3.3,55.4-2.3l-1.9,2.4c-17.6-0.9-35.5-0.1-53.3,2.3
			c0.7-0.1-17.7,2.5-23.6,3.2c-10.5,1.3-21.1,2.2-31.6,2.8c-19.7,1.2-43,1.8-77.4,2.2l-8.7,0.1c-73.1,0.7-73,0.7-93.2,1.7
			c-28.5,1.3-55.9-2.9-101.6-14.1c-2.3-0.6-45.8-11.5-59.7-14.8c-22.6-5.4-38.8-6.5-51.6-4c-10.3,2-17.6,5.6-29.8,13.9l-10.3,7
			c-3.9,2.6-7.9,5-12.1,7.3c-15.5,8.5-32.9,12.4-76,19.5c-37,6-52.3,9.3-67.1,15.4c-4.7,2-9.3,4-13.9,6.3
			c-5.5,2.6-10.8,5.4-18.3,9.4c-42.6,22.7-59,30.2-97.8,41.2c-29,8.3-41.9,13.9-50.4,21.8c-3.9,3.6-5.8,6.2-12.6,15.8
			c-8.9,12.6-15.5,21-26.9,32.8c-21.2,22.1-35.2,44.6-54.6,83.4L-584.8,972.2L-584.8,972.2z M-767.4,877.7l-5-2.6l10.4-7.6
			c7.9-5.9,15.8-12.3,23.6-19.2c27.4-24.3,46.9-47.2,76.1-85.5c9.4-12.4,11.7-23.4,6.3-26.2c-7-3.6-25.9,3.6-54.3,23.5
			c-70.2,49.4-122.9,62.4-171.3,37.3c-53.5-27.6-67.5-39-98.8-81.6c-5.3-7.2-10-14.7-14.1-22.5c-4.1-7.5-16.3-34.3-19.3-39.4
			c-6.1-10.3-12.2-14.5-21.5-14.1c-2.2,0.1-4.5,0.4-7.1,1c-5.5,1.3-11.1,2.3-16.7,3c-3.8,0.5-7.6,1.1-11.3,1.5l-3.7,0.5
			c-30.8,4.1-45.8,10.7-62.1,31.9c-1.7,2.2-3.4,4.3-5.1,6.4l-4.8-2.5c1.8-2.1,3.4-4.2,5.1-6.4c17.4-22.8,34-30.1,66.5-34.4
			c2.5-0.3,4.9-0.7,7.4-1c3-0.4,5.3-0.7,7.5-1c5.4-0.8,10.8-1.7,16.1-3c3-0.7,5.7-1.1,8.4-1.2c11.9-0.5,19.6,4.8,26.5,16.5
			c3.1,5.3,15.5,32.2,19.4,39.5c4.1,7.6,8.7,15,13.8,22.1c30.8,41.9,44.2,52.8,97.1,80.1c45.9,23.7,96.1,11.3,164.6-36.8
			c30.4-21.3,51.1-29.2,61-24.1c9.1,4.7,6.2,18.5-4.8,33c-29.4,38.6-49.1,61.6-76.8,86.3c-8,7.1-16,13.6-24.1,19.6
			C-761.5,873.5-764.5,875.7-767.4,877.7L-767.4,877.7z M-1123.2,693.7l2.7-1.4c12.8-6.4,25.3-13.3,37.5-20.7
			c16.9-10.3,29.7-13.8,39.4-11.4c10.5,2.6,15.8,10.4,21.5,26.6c5.7,16.2,6.4,18,10,20.6c3.5,2.4,8.3,7.7,16.2,17.3
			c2.3,2.7,18.5,22.7,23.8,29.1c5.3,6.4,10.2,12.1,15,17.4c5.6,6.2,10.9,11.8,16,16.8l-8.2-4.3c-3.3-3.4-6.6-7-10.1-10.9
			c-5.1-5.7-10.1-11.5-15-17.4c-5.4-6.4-21.6-26.4-23.9-29.1c-7.8-9.4-12.6-14.6-15.8-16.9c-4.2-3-4.9-4.6-10.8-21.6
			c-5.4-15.5-10.4-22.8-19.7-25.1c-8.7-2.1-20.6,1.2-36.9,11c-12.7,7.7-25.7,14.8-39.1,21.5L-1123.2,693.7L-1123.2,693.7z
			 M-854.1,832.9c12,2.4,24.7,2.5,37.2,0.3c5.9-1,13.6-3.4,23.1-7c4.9-1.9,10.3-4.1,16.5-6.7c4.1-1.8,8.3-3.6,12.4-5.4l2.4-1l4.6-2
			c5.2-2.3,10.5-4.5,15.8-6.5c4.9-1.8,8-2.6,9.9-2.3c3,0.5,2.8,2.9,0.2,6.3l-3.5,4.6c-11.3,15-18.9,24.4-28.7,34.5
			c-6.9,7.3-14.7,14-23.1,19.9l-2.6-1.3c8.7-6,16.5-12.7,23.5-20.1c9.7-10,17.2-19.3,28.5-34.2l3.5-4.6c1.6-2.1,1.7-2.5,1.5-2.6
			c-1.1-0.1-3.9,0.5-8.2,2.1c-5.3,2-10.5,4.2-15.6,6.5l-4.6,2l-2.4,1c-4.1,1.8-8.3,3.6-12.4,5.4c-6.2,2.7-11.6,4.9-16.6,6.8
			c-9.7,3.7-17.6,6.1-23.8,7.2c-10.2,1.8-20.5,2.1-30.4,0.9L-854.1,832.9L-854.1,832.9z M-1292.1,606.3l-3.3-1.7
			c13.7-3.3,26.1-11.6,37.2-26.1c30.8-40.3,28.6-37.6,36.8-43.7c4.6-3.4,9.8-6.3,18.8-10.3c2.2-1,24.6-10.8,34.1-15.2
			c15.5-7,53.6-22.1,59.8-25.2c18.4-8.9,31.2-20.3,51.2-46.6c13-17,29.4-27.7,58.1-40.8l14.4-6.5c4.5-2,8.9-4.2,13.2-6.5
			c9.1-4.8,15.5-9.5,19.9-14.7c6.7-7.9,9-17.4,6.3-29.7c-3.8-17.4-11.5-22.4-23.6-17.8c-9.9,3.7-21.1,12.5-39.3,29.4
			c-2.2,2-9.6,9-9.5,8.9c-9.7,9.1-15.5,14.2-20.9,18.2c-10.5,7.9-21.4,11.9-40.2,16.3l-13.1,2.9c-25.8,6-42.1,13-59.3,28.2
			l-11.9,10.5c-8.9,7.8-15.4,13.3-22,18.7c-31.5,25.2-65.9,44.4-127.8,69c-36.7,14.7-57.5,27.3-65.3,37.9l-2.4-1.2
			c8.2-11.3,29.6-24.1,66.6-38.9c61.6-24.6,95.8-43.6,127-68.6c6.6-5.3,13-10.8,21.9-18.6l11.9-10.5c17.7-15.7,34.6-22.9,60.8-29
			c2.6-0.6,11.4-2.6,13.1-2.9c18.4-4.2,28.9-8.1,38.9-15.6c7.2-5.7,14.1-11.7,20.6-18l9.5-8.9c18.6-17.3,30-26.2,40.4-30.1
			c14-5.3,23.4,0.7,27.4,19.4c2.8,12.9,0.4,23.1-6.9,31.7c-4.8,5.6-11.4,10.4-20.9,15.4c-4.4,2.3-8.8,4.5-13.4,6.6l-14.4,6.5
			c-28.2,12.9-44.3,23.3-56.9,39.8c-20.3,26.6-33.5,38.4-52.4,47.5c-6.3,3.1-44.5,18.2-59.9,25.2c-9.5,4.3-32,14.2-34.1,15.2
			c-8.8,4-13.8,6.7-18.1,10c-7.9,5.8-5.8,3.3-36.2,43.2C-1266.6,593.9-1278.8,602.5-1292.1,606.3L-1292.1,606.3z M270.8-398.5
			l2.5,1.3c-2.4,1.5-4.9,3-7.5,4.6c-24.3,14.8-38,26.1-54.6,47.8c-12.6,16.6-24.2,22.5-37.4,20.1c-10.1-1.9-15.3-4.9-41.2-22.6
			c-25.3-17.2-43.1-27.1-66.9-35c-19-2.3-73.4-16.7-88.2-24.4c-26.6-13.7-82.9-51.6-117.4-81.9c-11.3-10.3-27.3-15.9-44.5-15.5
			c-13.5,0.1-25.2,2.2-52.9,8.8c-25.5,6.1-38,8.2-51.9,7.9c-23.2-0.5-39.4,2.7-52.2,10.1c-10.7,6.1-18.5,14.1-30.8,30.3
			c-7.3,9.5-17.4,11.2-38.6,9.5c0.3,0-9.2-0.8-12-1c-27.6-2-44,2.3-57.7,20.2c-20.9,26.9-43.5,35.5-87.8,39l-16.1,1.2
			c-6.7,0.5-11.7,0.9-16.6,1.4c-3.3,0.3-6.5,0.7-9.6,1.1c-26.4,3.3-50.3,17.9-92.1,52.9c-5.8,4.8-31,26.3-38,32.1
			c-14.4,12.2-29.2,24-44.4,35.5c-10.7,8.1-35.6,27.1-39.2,29.7c-8.1,6.1-12.1,8.7-16.3,10.7c-4.3,2-31.3,11.2-60.3,24l-27.3,12.2
			l3.1-4.1l23.1-10.3c19.8-8.7,39.8-16.6,60.2-23.9c-1.5,0.7,7.8-4.4,15.8-10.3c3.5-2.6,28.4-21.6,39.1-29.7
			c14.3-10.8,28.2-22,44.2-35.4c7-5.8,32.3-27.3,38-32.1c42.3-35.4,66.6-50.2,93.9-53.7c3.1-0.4,6.3-0.8,9.6-1.1
			c5-0.5,10-0.9,16.7-1.4l16-1.2c43.4-3.5,65.2-11.7,85.2-37.9c14.5-18.9,31.9-23.6,60.5-21.4c2.8,0.2,12.4,1,12,1
			c20.2,1.7,29.3,0.2,35.7-8.2c12.6-16.5,20.6-24.7,31.7-31.1c13.5-7.7,30.3-11.1,54-10.5c13.5,0.3,25.8-1.8,53.5-8.4
			c25.6-6.1,37.4-8.2,51.3-8.3c18-0.4,34.7,5.4,46.5,16.2c34.4,30.2,90.5,67.9,116.9,81.6c14.5,7.5,68.8,21.9,87.7,24.2
			c24.2,8.1,42.2,18,67.7,35.4c25.4,17.3,30.7,20.4,40.1,22.2c11.8,2.2,22.2-3.2,34.2-18.9C225.5-367.8,239.5-379.3,270.8-398.5
			L270.8-398.5z M330.7-367.5l2.4,1.2c-9.2,12.2-18.4,25.2-30.5,42.8c-14.9,21.6-22.6,32.4-34.2,47.6c-16.2,21.3-40,32.1-69.5,34
			c-22.9,1.5-48-2.3-73.4-9.8C115.6-255,102-262,71-279.1c-15.8-8.7-21.9-12-29.2-15.8c-6.6-3.4-12.6-5.2-20.4-6.5
			c-2.6-0.4-13.7-1.8-16.8-2.3c-19.5-3-38.2-9.1-64.9-22.9c-19.3-10-30.1-19.7-45.4-38.3l-5.5-6.6c-21.9-26-42.2-37.4-90.5-43.4
			c-33.8-4.2-58.4-2.4-77.6,4.6c-14.6,5.3-23.2,11.6-40.3,26.9c-13,11.7-19.1,16.6-28.4,22c-9.8,5.6-19.1,7.7-28.8,6.9
			c-7.3-0.6-12.9-2.1-25.8-6.7c-23.7-8.4-35.6-9.1-53.1,1.5c-22.9,13.8-41.3,20.5-66.6,25.3c-9.3,1.8-49.6,7.7-60.1,9.5
			c-31.3,5.3-61.7,20.6-97.4,46.2c-8.6,6.2-17.1,12.6-25.5,19.2c-0.1,0.1-18.6,14.5-23.6,18.3c-67.9,52-130.2,92.7-163.5,100.4
			c-11.3,2.6-21.4,6-46.2,15.3c-15.8,5.9-28.5,10.2-39.7,13l2.6-3.4c11.5-3.1,24.9-7.7,42.4-14.2c18.7-7,29-10.4,40.4-13
			c32.6-7.6,94.7-48.1,162.2-99.8c5-3.8,23.4-18.2,23.5-18.3c9.9-7.7,17.7-13.6,25.6-19.2c36.1-25.9,66.9-41.4,98.9-46.8
			c10.6-1.8,50.8-7.7,60-9.4c24.8-4.7,42.9-11.3,65.4-24.9c10.3-6.2,20.1-8.7,30.2-8.2c7.7,0.4,13.8,2.1,26.6,6.6
			c11.9,4.2,17.2,5.7,24.1,6.3c9.1,0.7,17.6-1.2,26.8-6.5c9.1-5.3,15.1-10,27.9-21.6c17.4-15.6,26.3-22,41.4-27.6
			c19.8-7.3,44.9-9.1,79.3-4.8c49,6.1,70,17.8,92.2,44.3l5.5,6.7c15.2,18.3,25.7,27.9,44.7,37.7c26.4,13.7,44.9,19.7,64.1,22.6
			c3,0.5,14.1,1.9,16.8,2.3c7.6,1.1,14.9,3.4,21.3,6.7c7.3,3.8,13.4,7.1,33.1,17.9c27,14.8,40.6,21.8,50.1,25.1
			c25.1,7.4,49.8,11.2,72.2,9.7c28.6-1.9,51.5-12.3,67.1-32.8c11.6-15.2,19.2-25.9,35.9-50C313-343.3,321.8-355.6,330.7-367.5z
			 M-244.7-665.1l4.9,2.5c-8.3,7.8-15.1,12.8-22.9,16.8c-12.8,6.6-16.3,8.9-34.1,21.7c-4.1,3.1-8.4,5.9-12.9,8.5
			c-13,7.3-28.7,11.8-54.7,14.8c-29.2,3.4-61.4,18.3-99.9,43.7c-16,10.5-63.2,44.7-69.3,48.8c-18.3,12.2-36.6,19.4-76.4,32
			l-11.7,3.7c-26.5,8.5-42.3,14.6-56.3,22.7c-13.7,7.9-33.3,12.7-54.2,14.7l4-5.2c18.8-2.2,35.4-6.8,47.3-13.6
			c14.6-8.4,30.7-14.6,57.6-23.3l11.8-3.8c39.2-12.4,57.1-19.5,74.7-31.2c6-4,53.2-38.2,69.4-48.8c39.4-25.9,72.3-41.2,102.9-44.7
			c25.3-3,40-7.1,52.2-14c3.8-2.1,7.2-4.4,12.3-8.1c18.1-13,21.8-15.4,34.9-22.2C-257.7-654.1-250.7-659.2-244.7-665.1z
			 M-223.1-653.9l2.4,1.3c-17.7,15.9-27.9,23.9-36.1,27.5c-8.1,3.7-15.9,8-23.4,12.7c-8,4.9-16.1,10.4-23.9,16.1
			c-2.8,2-5.2,3.8-14.7,8.7c-17.6,3.8-35.2,8.1-52.5,13c-14.8,4.3-26.2,8.4-33,12.1c-5.4,2.9-14.8,10.4-30.1,23.7
			c-6.3,5.5-37.1,32.7-45.6,40.1c-35.9,31.2-59.9,49.7-76.5,57.1c-38.8,17.5-51.3,20.9-156.4,43.3c-17.2,3.8-34.7,5.8-52.2,5.8
			l1.9-2.5c16.6-0.2,33.3-2.1,49.8-5.7c105.1-22.4,117.4-25.8,155.9-43.2c16.2-7.3,40.1-25.7,75.7-56.6c8.5-7.4,39.3-34.6,45.6-40.1
			c15.5-13.4,25-20.9,30.6-24c7.1-3.9,18.7-8.1,33.7-12.4c3.8-1.1,7.9-2.3,12.1-3.4c10-2.7,20.5-5.2,30.8-7.5
			c3.6-0.8,6.9-1.6,13.7-3.2c10.8-8.2,22-16,33.7-23.3c7.6-4.8,15.5-9.1,23.8-12.9C-250.2-630.8-240.2-638.5-223.1-653.9
			L-223.1-653.9z M-268.9-677.6l2.6,1.4c-12.8,7.7-29.1,11.9-47.6,12.6c-24.6,0.9-51.2-4.7-70.1-14.5c-21.2-11-39.7,0.6-63.6,32.2
			c-2.8,3.7-5.1,6.9-9.6,13.1c-5.2,7.3-7.1,9.8-9.6,13.1c-9.5,12.4-20.5,23.5-32.1,33.3c-5.3,4.4-10.9,8.5-16.7,12.5
			c-14.3,8.6-28.6,17.2-42.9,25.7c-39.9,23.7-79.9,47.2-120,70.5c-10.5,6.2-21.6,11.4-33.2,15.5l2.7-3.6
			c10.1-3.8,19.9-8.5,29.1-13.9c51-29.7,101.7-59.6,152.2-89.9c3.2-1.9,6-3.6,15.6-9.8c16.5-12,31-26,42.9-41.5
			c2.5-3.3,4.3-5.8,9.6-13c4.5-6.2,6.8-9.5,9.7-13.2c11.2-14.7,20.5-24.5,30.3-30.7c12.4-7.7,24.7-8.9,37.3-2.4
			c18.4,9.5,44.4,15,68.5,14.1C-296.4-666.8-281-670.7-268.9-677.6L-268.9-677.6z M404.9-329.1l2.4,1.2
			c-12.1,24-15.8,30.1-24.7,42.5c-12.5,21.5-27.6,41.8-45.1,60.8c-16.8,17.8-33.9,30.9-50.8,37.7c-54.3,21.7-143.2,14.2-206.7-18.6
			c-12.1-6.3-25.4-12.3-40.3-18.3c-20.8-8.3-41.9-16-63.3-23.2c-56.8-19.5-72.6-25.4-93.2-36.1c-16.5-8.5-27.4-17.3-45.3-35.2
			l-5.3-5.2c-2.6-2.6-4.8-4.7-7-6.7c-15.7-14.3-30.5-22-52.9-25.2c-11.9-1.8-24.6,0.5-35.4,6.4c-8.9,4.6-16,10-30.8,22.8
			c-14.6,12.5-21.3,17.7-30.4,22.5c-11.4,6.3-24.9,8.5-37.3,6c-9.3-1.8-18.8-3.3-28.3-4.3c-20.2-2-33.3-0.4-50.2,5.7
			c-6.1,2.2-4.6,1.5-26,10.4c-9.6,4-20.7,6.8-35.3,9.3c-7.7,1.3-40.1,5.9-48.4,7.3c-28.1,4.7-50.1,10.8-71.3,21
			c-22.1,10.6-48.9,30-81.9,58.2c-8.2,7-16.7,14.4-26.4,23l-12.4,11.1l-11.6,10.4c-19.1,17.2-28.6,25.4-35.9,30.6
			c-50,35.9-110.9,70.1-149.3,77.5c-20,3.9-31,5.3-41.1,5.5c-3,0.1-6.1,0-9.6-0.2c-1.4-0.1-30.2-2.3-44.6-3l-3.9-0.2l1.9-2.4
			l2.5,0.1c14.5,0.7,43.2,2.9,44.6,3c3.1,0.2,6.2,0.2,9.3,0.2c9.9-0.2,20.8-1.6,40.5-5.4c37.9-7.3,98.4-41.3,148-76.9
			c7.1-5.1,16.6-13.3,35.6-30.4l11.7-10.5c12.7-11.6,25.6-23,38.8-34.2c33.2-28.3,60.2-47.9,82.6-58.6
			c21.6-10.3,43.9-16.5,72.2-21.3c8.3-1.4,40.7-6,48.4-7.3c14.4-2.5,25.2-5.2,34.6-9.1c21.5-8.9,20-8.3,26.2-10.5
			c17.4-6.2,31-7.9,51.7-5.8c8.1,0.8,17.4,2.2,28.6,4.3c11.7,2.4,24.4,0.3,35.1-5.6c8.8-4.6,15.4-9.7,31.1-23.2
			c13.7-11.8,21-17.4,30.1-22.1c11.4-6.3,24.8-8.7,37.4-6.8c23,3.4,38.3,11.2,54.4,25.9c2.2,2,4.4,4.1,7.1,6.8l7.1,7
			c16,15.9,26.6,24.6,42.9,33c20.5,10.6,36.2,16.5,92.9,35.9c21.5,7.2,42.6,14.9,63.4,23.2c14.9,6.1,28.3,12.1,40.5,18.4
			c62.7,32.4,150.6,39.9,204,18.5c16.4-6.6,33.1-19.3,49.6-36.9c14.8-15.7,28.2-33.8,39.6-51.8c2.5-3.9,4.8-7.8,7.1-11.8
			C389.4-299.3,392.7-305,404.9-329.1L404.9-329.1z M-423.5-757.6l2.5,1.3c-17.1,14-23.4,18.7-39.8,28.4
			c-11.9,7.1-21.6,16.6-30.4,29.3c-6.7,9.6-11,17.6-21.2,37.8c-7.2,14-10.8,20.8-15.6,28.7c-12.4,20.5-26,35.1-44.4,45.9
			c-25.2,14.8-50.9,28.9-77.1,42.4l3.5-4.6c24.4-12.7,48.5-26,72.1-39.8c17.9-10.5,31.1-24.8,43.3-44.9c4.8-7.8,8.3-14.6,15.4-28.6
			c10.4-20.3,14.7-28.4,21.6-38.1c9-13,19-22.8,31.3-30.1C-446.3-739.5-440-744-423.5-757.6z M245.2-411.7
			c-9.5,6.8-19.7,12.9-30.3,18.3c-13.9,7-23.5,13.4-31.4,20l-3.9,3.4l-3.1,2.8c-1.4,1.5-3.2,2.7-5.2,3.6c-3.5,1.3-6.7,0.4-14.3-3.6
			c2.2,1.1-23-12.8-35.4-19.2c-24.3-12.6-45.3-21-74.5-30.8c-44.6-15-46.9-15.9-60.6-23.7c-6.2-3.6-12-7.7-17.3-12.2
			C-66-484-131-522.8-156.1-527.2c-8-1.4-18.6-1.2-31.9,0.4c-8.2,1-16.5,2.3-24.7,3.8c-5.4,1-35.9,7.1-42,8
			c-5.4,0.8-31.8,6-34.4,6.5c-5.7,1.1-11.5,2-17.3,2.8c-18.6,2.6-31.5,2.5-38.7-1.3c-8.5-4.2-10.3-5.3-11.6-7.2
			c-1.8-2.6-0.7-5.6,3.2-9.1c7.8-7,28.6-18,71.6-37.9c29.2-13.5,52.2-27.4,71.4-42.2c11.8-9.1,16.9-13.6,31.1-27.8l2.4,1.2
			c-14.6,14.5-19.7,19.1-31.7,28.4c-19.4,15-42.6,29-72.1,42.6c-42.7,19.8-63.4,30.7-70.8,37.4c-3.1,2.8-3.7,4.5-2.7,6.1
			c0.9,1.4,2.6,2.4,7.8,4.9c9.3,4.8,21.8,4.9,39.7,2.5c5.2-0.7,10.8-1.6,17.1-2.8c2.5-0.5,29-5.7,34.5-6.5c6-0.9,36.4-7,41.9-8
			c9.3-1.7,17.4-3,24.9-3.8c13.6-1.6,24.6-1.8,32.9-0.3c25.7,4.5,91.2,43.5,126.8,74.6c5.1,4.5,10.7,8.4,16.9,11.9
			c13.5,7.7,15.7,8.6,60.1,23.5c29.2,9.8,50.4,18.3,74.8,30.9c12.4,6.4,37.6,20.4,35.4,19.2c6.8,3.6,9.4,4.4,11.6,3.5
			c1.1-0.4,2.3-1.2,4.2-3l3-2.8l4-3.5c8.1-6.7,17.9-13.2,32-20.4c10.1-5.1,19.8-10.9,29.1-17.5L245.2-411.7L245.2-411.7z
			 M224.7-422.3c-43.8,31.6-59.1,35.9-83.5,23.3c-10.7-5.5-24.9-11.9-70.9-32.1l-3.8-1.7c-38.8-17.1-58.3-25.9-70.9-32.5
			c-12.8-6.6-30-18.4-63.4-42.7l-3.3-2.4c-39.4-28.7-51.8-37.3-62.4-42.8s-19.1-6.8-31.7-6.3c-0.3,0-6.2,0.3-7.9,0.3
			c-8.3,0.3-13.9-0.6-19.7-3.6c-6.7-3.5-7.4-8.2-2.8-14.2c1.7-2.3,4.2-4.8,8-8.3c1.7-1.6,9.4-8.4,11.3-10.2
			c8.7-7.9,15.8-15,22.3-22.8l4.8,2.5c-6.7,8.1-14,15.4-23,23.6c-2,1.8-9.6,8.6-11.3,10.2c-2.7,2.3-5.1,4.8-7.3,7.5
			c-2.8,3.7-2.6,5.4,1.4,7.4c4.7,2.5,9.4,3.1,16.7,2.9c1.6,0,7.4-0.3,7.8-0.3c13.6-0.6,23.1,0.9,34.8,6.9
			c11,5.7,23.3,14.3,63.1,43.2l3.3,2.4c33.2,24.1,50.3,35.9,62.7,42.3c12.5,6.5,31.9,15.3,70.6,32.3l3.8,1.7
			c46.2,20.3,60.3,26.6,71.2,32.3c21.3,11,34.6,7.6,75.2-21.6L224.7-422.3z M-131.1-606.4l2.7,1.4c-11.3,5.8-14.7,7.8-16.8,10
			c-2.2,2.2-1.7,4.1,2.3,7.1c3.8,2.9,8.6,5.5,25.2,14.1c14.4,7.4,30.1,17.2,48.2,29.8c8.6,6,17.3,12.3,28.2,20.3
			c51.1,37.6,47.9,35.3,58.2,40.6c57.3,29.6,127.3,59.1,155.6,59.5c9.5,0.1,19.5-3.5,29.9-10.4l2.6,1.3
			c-11.3,7.7-22.2,11.8-32.8,11.6c-29-0.4-99.1-29.9-156.9-59.8c-10.5-5.4-7.1-3-58.5-40.9c-10.8-8-19.6-14.3-28.1-20.2
			c-18.1-12.5-33.7-22.3-47.9-29.7c-16.8-8.7-21.6-11.3-25.5-14.3c-5-3.8-5.9-7-2.4-10.5C-145-598.9-141.8-600.8-131.1-606.4
			L-131.1-606.4z M51-512.2c10.9,10.6,20.6,18.2,29.5,22.8c22.9,11.8,41,19.1,57.5,22.2l7.1,3.7c-19.1-2.2-39.6-9.9-66.3-23.7
			c-10.7-5.5-22.6-15.3-36-29.2L51-512.2L51-512.2z M-300-693.7c-12.2,3.5-25.5,3.1-39.5-0.7c-11-3-19.7-6.9-32.5-13.8
			c-1.4-0.8-2.7-1.5-4.1-2.2c-12.8-6.6-19.1-13.6-15.9-23.2c0.7-2.1,1.8-4.1,3.2-6l2.4,1.2c-1.3,1.8-2.2,3.6-2.8,5.3
			c-2.7,8.2,2.9,14.4,14.7,20.6l4.2,2.2c12.6,6.8,21.1,10.6,31.9,13.5c12.4,3.4,24.1,4,35,1.4L-300-693.7L-300-693.7z M-812.2-330.5
			c17.7,8.7,21.9,21.4,9,38.3c-18.9,24.7-58.9,55.2-96,75.7l3.8-5c35.2-20.2,72.1-48.7,89.9-72c11.9-15.6,8.2-26.9-8.3-34.9
			L-812.2-330.5L-812.2-330.5z M-823.9-315.2c2.7,1.8,4.2,3.9,4.7,6.4c0.9,4.9-2.3,10-9.8,17.9l-2.5,2.6c-2.6,2.5-5.1,5.2-7.3,8
			c-5.3,6.9-19.3,18.8-34.6,30.1l5.7-7.5c12-9.3,22.3-18.3,26.5-23.9c1.6-2.1,3.1-3.7,7.5-8.3l2.5-2.6c6.9-7.2,9.8-11.8,9.1-15.8
			c-0.3-1.8-1.4-3.4-3.5-4.8L-823.9-315.2z M-1147.9,109.5l2.4-3.2c5.2-1.6,10.2-3.8,14.9-6.5c7.6-4.2,16.8-10.3,30.5-20.1
			c57.7-41.3,62.7-48,50.9-65.6c-3.5-5.2-9.1-9-17-11.6l1.7-2.2c7.5,2.2,13.8,6.6,17.9,12.4c12.8,19.1,7.1,26.7-51.7,68.8
			c-13.8,9.9-23.1,16.1-30.8,20.4C-1135,105.2-1141.3,107.8-1147.9,109.5z M-1135.7,240c4,2.1,7.6,3.3,22.1,7.4l6.5,1.9
			c22.3,6.8,32.5,12.9,30.8,23c-1.3,7.7-10.8,12.1-27.3,15.1c-6.3,1.1-12.5,1.9-18.8,2.6c-3.4,0.4-17.6,1.7-20.9,2.1
			c-6.7,0.7-11,1.5-13.3,2.3c-5.7,2.1-11.1,4.9-16,8.4c0.5-0.3-32.2,24.6-53.3,39.6c-19.4,13.7-31,16.4-35.2,7.7
			c-2.7-5.6-1.7-13.7,2.5-32c2.9-12.5,3.6-15.6,4.1-20.2c2.7-23.3,30.2-56.6,54.2-71.3c7.8-5.2,17.8-6.8,26.5-4.3
			c7.3,1.8,12.8,4.4,29.2,13.1L-1135.7,240L-1135.7,240z M-1139,244.3c-2.7-1.4-5-2.6-9.1-4.8c-28.6-15.2-36.3-17.1-49.2-9.1
			c-22.7,13.9-49.1,45.8-51.6,67.4c-0.6,4.9-1.2,8.1-4.2,20.7c-3.9,17-4.9,24.9-2.8,29.2c2.1,4.4,9.7,2.6,26.4-9.2
			c18-13,35.8-26.2,53.4-39.6c5.3-3.8,11.3-6.9,17.6-9.2c3-1.1,7.6-1.8,14.9-2.7c3.4-0.4,17.5-1.7,20.9-2.1
			c7.3-0.8,13.2-1.6,18.4-2.5c14-2.5,21.6-6.1,22.3-10.5c1.1-6.7-7.7-12-27.4-18l-6.4-1.9C-1130.8,247.8-1134.5,246.6-1139,244.3
			L-1139,244.3z M-556.4,986.9c12-30.8,14.4-35.3,22.4-45.8c5.5-7.2,10.1-13.7,17.7-25.1c15.6-23.2,20.8-30.1,28.8-36.7
			c10.7-8.8,21.8-10.2,34.8-3.5l62,32.1c9.7,5,9.3,10.4,2.4,22.7c-1.1,1.8-1.3,2.3-1.7,3.1c-6.8,12.6-5.9,19.9,8.6,27.4
			c8.7,4.5,12.5,7.7,13.1,10.9c0.4,2.7-0.6,4.1-5.6,9c-10.7,10.3-13.4,19.8-4.9,39.1c7.7,17.4,18.9,26,33.9,27.7
			c11.6,1.3,22.9-0.7,45-7l4.7-1.3l4.6-1.3c3.7-1,7.4-2,11.2-2.9c11.2-2.5,22.7-3.5,33.9-2.8c4.9,0.2,5.5,0.3,17.8,1.3
			c19.1,1.6,28.9,1.4,40.6-2c11.2-3.3,19.2-4.7,26-4.8c10.6-0.1,16.5,2.1,36.1,12.3c14.3,7.4,32.3,3.7,67.7-10.3l13.4-5.3
			c5-1.9,9.1-3.5,12.9-4.8c35.5-12.2,63.4,1.4,71.7,40c4.1,18.8-7.9,54.6-31.2,100.3c-16.8,32.9-38.7,69-55.2,91.8l-2.4-1.2
			c16.3-22.7,38.3-58.7,55-91.4c23-45.1,34.9-80.6,31-98.8c-8-37.2-34.2-50-68-38.3c-3.7,1.3-7.8,2.8-12.8,4.7l-13.3,5.2
			c-36.3,14.3-55,18.1-70.4,10.2c-19.2-9.9-24.8-12-34.7-11.9c-6.4,0.1-14.1,1.5-25,4.7c-12.2,3.5-22.4,3.8-41.9,2.2
			c-5.9-0.6-11.8-1-17.7-1.3c-10.9-0.7-22.1,0.2-33,2.7c-5.3,1.2-10.5,2.6-15.6,4.2l-4.7,1.3c-22.4,6.4-34.1,8.5-46.2,7.1
			c-16.1-1.9-28-10.9-36-29.1c-8.9-20.2-5.9-30.7,5.5-41.8c4.3-4.2,5.1-5.2,4.9-6.8c-0.4-2.3-3.9-5.1-11.9-9.3
			c-15.8-8.2-17-16.7-9.6-30.4l1.7-3.2c6.4-11.3,6.7-15.4-1.4-19.6l-62-32.1c-11.9-6.2-21.5-5-31.2,3c-7.8,6.3-12.9,13.2-28.3,36
			c-5.6,8.5-11.6,17-17.8,25.2c-7.9,10.4-10.2,14.8-22.3,45.9L-556.4,986.9L-556.4,986.9z M-523.7,1003.7
			c10.5-21.6,17.3-29.8,30.4-44c11.7-10.6,26.4-41.2,43.7-36.7c6.6,1.7,12.4,8,17,17.8c28,64.3-29.5,93.7,61.7,137.4
			c20.5,10.6,38,12.6,62.3,8.4c28.2-4.8,110.9-32.6,146.1-10c13.9,5.8,20.5,7.9,31.2,9c21.9,7.6,98.7-28.7,103,6.1
			c1.9,12-4.5,29.7-17.2,52.3c-18,28.7-21.1,39-57,77.5l-2.4-1.2c34.3-36.7,75.4-95.1,73.7-128c-2.2-13.5-16.2-17.7-45.3-10.4
			c-23.2,5.8-40.8,7.6-55.4,6.1c-11.1-1.1-17.9-3.2-31.7-9c-35-22.5-116.7,5.6-144.7,10.1c-24.9,4.3-43.2,2.2-64.3-8.7
			c-92.7-45.1-35.1-73.3-62.8-138.5c-4.3-9.2-9.6-15.1-15.3-16.6c-15.5-3.4-29.3,26.5-40.4,35.8c-13.1,14.1-19.7,22.2-30.2,43.9
			L-523.7,1003.7L-523.7,1003.7z M-252.5,1144c36.4-13,85.1-33.3,118.9-23.8c41.9,14.4,7.3,37.7-21,74.5l-2.4-1.2
			c27.1-35.7,61.3-57.7,22.4-70.8c-33.3-8.9-78.3,9.8-114.9,23C-249.5,1145.6-252.5,1144-252.5,1144z M284.4,397.4
			c6.5,18.4,18.6,37.8,29.1,56.9c29.8,42.5-15.8,86.9-58.7,89.8c-13.5,1-26.3-0.7-49.2-5.6c-101-28.2-132.3,25.6-175.7-82.6
			c-27.4-50.8-74.6-133-5-139.1c18.9-3,49.3-4.8,64.2-10.3c89.8-29.4,237.7-62.5,194.5,64.1C280.5,384.6,280.8,388.1,284.4,397.4
			L284.4,397.4z M276.6,392.5c-3.3-7.4,3.4-31.3,5.6-40.7c24.5-103.6-116.3-64-191.4-40.7c-15.7,5.8-45.4,7.5-65.2,10.5
			c-14.7,2.4-23.4,6-27.7,11.9c-12.9,16.8,15,85.1,37.4,119.9c17.1,36.7,28.8,76.1,89.8,69.8c35-0.2,35.8,0.8,82.4,10.3
			c22.3,4.8,34.7,6.4,47.4,5.5c39.2-2.9,81.2-42.9,53.3-82.5C296.1,435,283.3,414.4,276.6,392.5L276.6,392.5z M-658.8-149.2
			c22.7-1.9,41.1-0.3,62.6,2c63.4,3.7,155.1,3.2,213.7,10.9c60,5,78.5,19.6,104.7,78.5c9.7,21.8,9.7,45,1.8,69.4
			c-11.8,34.2-42.3,82.3-77.1,101.3c-23.8,13-56,19.8-99.8,19.3c-80.6-1-138.1,11.8-205,38.5c-42.2,16.8-187,36.9-244.9,37
			c-100.3-0.6-319.7-24.6-149.9-124.8c33.7-17.4,27.2-59.1,43.2-82.9c5.5-7.3,15.9-12.6,31.5-17.2c11.2-3.3,14.7-4,47.4-10.2
			c131.3-15.4,154.1-119.8,237.7-121.1C-681.9-148.5-669.7-148.4-658.8-149.2L-658.8-149.2z M-658.9-146.7
			c-10.2,0.7-23.9,0.9-34.3,0.7c-81.1,1.1-105.4,105.6-237.2,121c-42.4,9.5-56.1,7.3-76.9,26.3c-16,25.1-8.9,64.7-44,83.6
			c-166.7,97.6,51.2,119.2,148.6,120.3c57.5-0.1,201.9-20.1,243.6-36.7c67.3-26.9,125.3-39.7,206.4-38.8
			c43.2,0.5,74.9-6.2,98.1-18.9c34.1-18.7,64-66.3,75.7-99.7c7.7-23.9,7.8-46.6-1.7-67.9c-25.8-58.1-43.5-72.2-102.4-77
			c-59.1-7.8-150.1-7.2-213.8-11C-617.4-147-638.1-148.7-658.9-146.7z M-697.2-129.7c28.7-4,42.8-2.5,75.1,4.8
			c17.4,3.9,26.6,4.9,38.8,2.8c27.7-6.7,72,20.7,102.6,13.8c38.9-5.6,83.9,0.7,109.9,14.2c32.9,20.5,53.6,132.1,9.6,155
			c-38,29-138,39.2-188.3,36.5c-11.9-0.6-23.8,2.4-39.8,9.6c-125.2,70.2-168.8,57.7-312.7,73.8c-45.4,8.8-114.2-12.1-119-34.4
			c-2.4-19.5,39.5-42.6,34.9-75.7c-0.4-8.2-2.2-16.2-5.3-23.7c-13.4-40.6,20.5-49.5,69.7-58.2c79.9-6.5,81.3-30.8,141-79.3
			C-744.2-118.3-760.9-122.2-697.2-129.7L-697.2-129.7z M-696.9-127.2c-52.1,8.8-36.5,1.3-59.1,18.7c-21.8,19.5-40.1,33.1-60.6,53.1
			C-845.2-27.8-863.4-16-895-12.6c-41.1,6.7-113.3,10.8-93.6,58.5c3.4,8.6,5.2,16.7,5.5,24.4c4.1,34.9-35.6,55.7-34.9,75.4
			c4.5,20.7,71.8,41.1,115.8,32.6c144-16.2,186.5-3.3,311.9-73.5c16.5-7.4,28.8-10.5,41.4-9.9c49.4,2.7,148.8-7.4,186.1-35.8
			c42.1-21.6,21.8-131.7-9.6-151c-25.4-13.2-69.7-19.4-108-13.9c-30.6,7.1-75-20.2-102.5-13.9c-12.8,2.2-22.4,1.2-40.1-2.8
			C-654.9-129.7-668.7-131.2-696.9-127.2z M-379.5,26.3c-18.8,29.4-42.9,32.2-69,41.7c-27.3,9.9-39.2,10.8-63.9,8.5
			c-22.4,0.1-59.2-10.2-72.4,9.8c-47.4,48.7-176.9,68.8-254.2,39.9c-36.6-10.1-57.7-22.4-54.9-35.4c1.8-8.1-3.4-14.7-19-27.4
			c-43.4-31-13.3-47.3,22.5-62.8c31.5-12.4,73.2-33.8,86.8-54.8c30.4-39.9,81.9-58.5,136.4-59c34-3,44.3,29.2,60,20
			c39.2-22.7,46.9,6.7,83.7,5.2c44-3.5,68.1-7.1,118.7,2.1c20.7,3.2,34.1,21.5,38.2,47.3C-362.9-15-367.8,11-379.5,26.3z
			 M-384.3,23.8c10.7-14.1,15.5-38.8,11.9-61.3c-3.8-24.1-16-40.7-33.9-43.5c-40.8-6.3-47.1-6.7-78.5-5.1c-24.1,1.1-51.7,8-72.2-3.6
			c-37-23.5-47.3,20.6-74.7-5.4c-45.2-34.6-140.1,4-167.2,43.5c-17.5,27.1-69.8,48.3-105.5,64.2c-26.6,13.6-35.9,23.8-4.3,47.1
			c16.9,13.9,22.7,21.2,20.5,31.6c-4.2,19.4,85.8,44.4,147.5,44.7c49.7,0.2,134.4-30.2,151.2-52.2c9.8-12.8,23.9-16.3,45-14.7
			c35,2.2,58.7,8.4,94.3-5.8C-424.7,53.6-402.7,52.5-384.3,23.8L-384.3,23.8z M-435.9-70.6c3.2,0,14.3-0.9,17.8,0.1
			c7.5,1.4,12.2,6,21.2,20.4c40,54.6-42,121.3-105.1,96.2c-13.6-4-33.8-9.4-42.3-8.8c-12-0.1-22.8,3.3-33.5,11.2
			c-60,44.3-118.7,69.6-169.7,64.3c-70.8-9.6-77.1-3.7-113.3-40.5c-9.9-11.7-19.7-25.3-4.5-38.3c13.5-11.8,49.1-40.6,65.9-57.6
			c53.2-54.5,81.7-82,154.6-47.6c11.8,5.3,17,6.8,24.8,6.7c10-0.2,22.8-4.6,31.7-7.5c29.3-11.6,38.9,13,63.6,6
			C-492.4-78-468.5-69.8-435.9-70.6L-435.9-70.6z M-484.3-70.4c-13.4-0.5-26.8,2.8-39.7,6.7c-24.8,7.7-36.4-17.2-63.4-6.1
			C-607.8-63-624-57.3-646.3-69c-73-33.9-97.7-6.8-151,46.9C-814-5.2-850.2,24-863.1,35.5c-8.3,8.3-9.4,13.8-4.2,22.9
			c34.1,46.2,46.6,42.4,120.5,51.9c49.9,5.2,107.9-19.8,167.3-63.7c11.3-8.3,22.8-12,35.5-11.8c29.9,1.1,74.9,24.6,103.9,8.1
			c49-21,62.1-57.2,40.6-91.7c-8.6-13.8-12.9-18-19.4-19.2c-3.3-0.9-14-0.1-17.1-0.1C-452-67.1-468.6-70-484.3-70.4L-484.3-70.4z
			 M-639.4-51.8c98.2,30.5,78.6,79.3-5.7,123.1c-38,30.4-193.7,41.9-200.3-15.8c8.2-34.6,73.8-76.4,104.8-107.1
			C-701-89.5-680.5-66-639.4-51.8L-639.4-51.8z M-640.6-49.5c-39.6-13.2-59.8-37.6-98-0.5c-30.5,30.1-95.2,71.8-103.9,105.3
			c7.3,54.9,159.5,43.3,196,13.9C-564.5,26.1-544.5-19.4-640.6-49.5z M-611-19c36,20.7,6.5,42.7-20.5,63.8
			c-40.9,23.5-149,60-181.6,3.6c-9.3-21.4,65.2-74.2,90.8-93.7C-688.5-69.8-644.4-35.6-611-19z M-612.6-16.8
			c-32.3-15.8-75.3-49.9-107.8-26.6c-24.8,18.8-97.6,70.9-89.9,90.8c7.4,17.2,39,30.6,62.3,29.2c30.2-1.8,95.2-18.7,114.7-33.5
			C-607.9,22.7-578.7,2.7-612.6-16.8L-612.6-16.8z M-666.6-23.6c69.5,41.1-9.4,80.3-66.6,65.2c-28.8-5-29.5-20.7-0.4-50.2
			C-715-27.7-689.7-32-666.6-23.6z M-669.8-22c-21.6-7-44.4-2.8-61.6,14.9c-27.8,28.2-27.3,41.7-0.9,46.2
			c36.6,6.4,70.7,1.7,85.6-17.8C-633,4.6-653.9-14.9-669.8-22z M-438.3,26.9c-22.7,17.9-51.9,3-69.2-25.8
			c-14.9-24.8-3.2-56,25.9-55.7c7.1,0.1,15-0.3,22.1-0.6C-403.3-60.7-382.3-12.5-438.3,26.9L-438.3,26.9z M-446.6-52.9
			c-11.5-0.4-23.9,1-35.2,0.8c-69,8.2,0.5,112.7,41.7,77.2C-394-6.7-399.5-49.7-446.6-52.9L-446.6-52.9z M-424.1-4.5
			c-9.4,12.4-20.7,16.5-32.3,13.4C-469,5.7-479.1-5.9-485.3-17c-5.7-10.2-1.6-15.9,18.9-23.3C-435.2-51.5-404.7-30-424.1-4.5
			L-424.1-4.5z M-426.5-5.8c19.9-26.6-16.5-41.5-39-32.2c-19.1,6.9-22.1,11.1-17.2,19.7c5.9,10.5,15.5,21.8,27.3,24.7
			C-445.1,9.2-435.2,5.6-426.5-5.8L-426.5-5.8z M-422.7,845.4c17.8-36.1,95.2-47.5,147.2-42.2c54.5,6.9,71.3,9.6,113.1-20
			c40.1-29.4,57.1-18.1,98-30.8c46.1-17.3,37.3-2.4,77.7,4c64.1,4.1,14.5,56.7,71.4,82.5c26.1,14.3,80.8,48.9,92,42.3
			c65.5-7.3-13,81.7-63.4,51.1c-11.4-5.9-22.2-7.2-28.3-3.6c-6.8,4-8.5,14.2-3.2,30.3c13.7,41.3-7.5,58.8-52.5,35.6
			c-38.6-22.7-87.9,11.4-126.8,21.2c-32,7.2-35,4.7-50.2-7c-3.8-2-6.9-1.5-29.8,3.4c-19.3,4.1-30.5,4.7-39.4,0.1
			c-3.2-1.6-10.2-1.8-21.1-0.5c-28,2.6-103.6,24.1-111.8-2.4c-5.1-16.8,0.8-24,13.7-36.9c11.7-11.6,15.5-17.4,14.8-27.4
			c-0.6-9.3-1.7-10.6-5-9.8c-11.3,4.2-22.5,6.1-33.2-2.8c-9.6-7.5-6.5-15.8,5.4-27.7c5.4-5,14.2-13.8,13.3-15.3
			c0.4-2.4-3-4.4-13.1-5.6C-399.1,877.4-444.1,878-422.7,845.4L-422.7,845.4z M-417.9,847.9c-29.3,37.4,86.1,19.7,82.8,41.8
			c0.5,8.4-35.8,29.7-20.4,38.9c9.4,7.9,17.9,5.2,28,1.8c7.8-1.9,11.2,2,11.9,13.9c0.7,11.7-3.6,18.6-16.4,31.2
			c-13.5,13.4-16.8,19.7-12.4,32c1.1,14,45.5,10.1,69.9,5.1c9.7-1.9,27.5-4.7,36-5.8c31.1-4.3,24.3,9.6,59.8,0.5
			c9.9-1.9,25.8-7,34-2.9c15,10.7,14.7,13.6,45.9,6.5c40.5-10.9,91.1-44.4,131.2-20.7c40.2,20.8,56,7.8,43.7-29.5
			c-5.9-17.9-3.8-30.4,5.8-36.1c8.5-5,21.5-3.5,34.6,3.3c44.4,26.5,112.4-49.9,60.7-41.8c-13.4,3-34.4-6.7-70.4-28.5
			c-26.8-16-54.5-25-58.8-54.3c-3-9.8-2.3-31.3-13.4-36.5c-4.6-2.8-7.6-3.4-22.9-5.6c-25.6-1.8-34.9-18.6-60.5-8.9
			c-17.2,5.7-32.8,11.1-50.6,12c-23.2,0.9-39.4,8.8-59.9,22.7c-43.1,30.4-61.6,28.4-117.5,21.1
			C-325.7,802.9-401.9,813.9-417.9,847.9L-417.9,847.9z M31.6,839.3c10.9,18.8,51.3,24.4,68.5,31.4c11,3.8,18.8,14.8,8.7,21.5
			c-3.9,2.2-5.4,2.5-20.4,4.8c-13.3,2-20,4.3-23.7,9.2c-26.5,27.3,7.4,50.1-10.5,70.9c-7.2,6.1-20.1,4.8-38.4-4.7
			c-24.9-17-80.8,13.2-115.5,22c-14.9,2.4-21.4-0.3-37.3-7.5c-18.7-8.9-28.3-10.3-47.5-3.1c-17.6,6.7-33.9,9.9-52.1,10.2
			c-0.5,0-35.7,0.2-49.9,0.9c-13,0.6-18.8-3.5-18.3-11.8c-1.8-6.7,19.4-40.5,20.1-47.9c5.6-16.7-24.2-11-31.3-24.3
			c-8-16.6,26.1-28.3,7.6-37.7c-7.6-5.8-58.7-18-58.9-24.5c-8.4-19.4,78-33.1,90.2-31.1c25.5-0.2,58.6,18.8,84.6,3.3
			c37.2-15.5,74.6-42,108.5-41.1c8.5,0.2,15.9-0.3,31.9-1.8c26.3-3,48.3-3.2,60.3,4C32,792.9,14.8,817.9,31.6,839.3L31.6,839.3z
			 M29.1,840.7c-17.3-22.4-0.3-46.5-22.4-56.8c-11.1-6.9-33.1-6.6-58.6-3.7c-16.1,1.6-23.6,2.1-32.3,1.9
			c-33.1-0.8-70.3,25.6-107,40.8c-19.1,8.5-30.2,8.5-51.1,3c-37.7-9.9-53.7-7.4-93.9,3.8c-23.6,7.3-31.6,12.9-28.5,17.5
			c0.5,5.9,51.3,18.2,58.2,23.9c7.3,4.4,9.3,9.3,4.4,14.7c-20.4,24.3-15,26.7,13.9,35.8c29.1,10.7-44.3,72.8,2,70.7
			c36.5-1.9,53.7,1.5,80.9-4.7c25.8-7.5,44.4-18.1,70-3c15.3,6.9,21.2,9.5,35.3,7.3c35.6-9.4,91.7-39.4,117.6-21.8
			c17.3,8.9,28.9,10.1,34.8,5.2c15.8-20.4-17.1-41.2,10-70.4c4.4-5.8,11.7-8.2,25.8-10.4c16.2-3,23.8-2,21.9-12.1
			c-2.3-6.8-8.5-9.4-33.4-16.2C56.8,860.5,39.4,855.5,29.1,840.7L29.1,840.7z M-31.3,797.7c44.5,1,16.6,41.8,55.6,58.8
			c36,16.9,29.1,27.4,19.7,51.6c-5.1,12.5-9.1,39.9-19,44.1c-4.7,4.8-21.9-2.4-28-3.5c-11-2.2-18.2,0.7-29.3,3.9
			c-28.9,10-64.6,19-82.2,7.3c-9-4.6-18.7-5.8-31.9-4.4c-19.7,2.8-64.8,12.7-88.9,11.2c-15.1-0.1-22.8-2.1-25.1-6.2
			c-1.8-3.4-0.5-6.5,4.5-14.3c25.8-33.1-31.3-25.7-17.4-51.5c15.2-22.9-18.4-40.6,10.3-48.7c9-3.9,66.8,2.1,75.9-1.7
			c18-3.7,34.5-12.5,50.9-21.8C-100.4,803-78.2,794.9-31.3,797.7L-31.3,797.7z M-120.4,817.2c-21.2,10.6-42.3,25-66.1,29.6
			c-9.1,3.9-66.7-2.1-75.9,1.7c-24.5,6.2,7.3,23.3-8.2,47.1c-12.4,24,44,15.9,17.2,51.8c-30,35.3,98.3,6,107,5.8
			c44.8-3.3,36.6,22.9,98.3,1.9c14.4-3.9,30.9-12.1,46-8.7c4.8,0.6,22,7.8,25.7,3.9c4.4-2.5,8.1-9.4,11.4-22.6
			c2.7-11,7.5-23.8,11.5-34.2C61.1,860.9,1.3,864-3.2,827.4c-3.3-15.8-6.4-27-28.6-27.1C-72.4,798.3-90.2,802.2-120.4,817.2z
			 M-6.9,911.9c-12.3,12-124.7,16.1-92.9-25.7c11.2-12.2,28.2-19.2,43.3-24.8C-16.7,843,28.1,881.9-6.9,911.9L-6.9,911.9z
			 M-8.4,909.9c15.1-8.7,14.9-35.4-5-45.7c-12.9-6.7-26.3-6.1-42.2-0.5c-13.9,5.1-31.5,12.4-42,23.9
			C-126.7,925.1-18.1,920.9-8.4,909.9L-8.4,909.9z M-208.8,868.9c43.3,29.5-47,34.6-28,5.2C-229.1,864-218,863.2-208.8,868.9
			L-208.8,868.9z M-210.7,871c-8-5-17.1-4.3-23.7,4.3C-250.2,898.6-172.4,896.2-210.7,871z M233.5,417.9
			c17.7,28.5,42.7,49.2,38.5,81.1c-7.2,38.7-135.4,3.6-164.8,1.3c-41.4-5.6-64-71.4-79.5-108.4C20,369.6-2.4,354.5,37,342.8
			c8.8-5.1,92.4-14.8,123.1-23.1C224.3,301.5,205.7,382.6,233.5,417.9L233.5,417.9z M230.9,419.3c-28.2-36.5-9.7-114.7-70.2-97.1
			c-28.6,7.9-115,18.3-122.9,23.1c-36.1,10.9-15.4,22.2-7.3,45.7C45.1,425.8,68,492.5,108,497.9c27.4,2.2,153.8,35.6,161.2,1.2
			C273.2,467.8,248.5,447.5,230.9,419.3L230.9,419.3z M125,388.9c25.7,8.6,35.4,39.4,55.5,59c36,42-13,36.5-52.8,29.9
			c-42.8-7.7-59.7-29.8-58.2-70C71,378,101.5,379.9,125,388.9L125,388.9z M123.7,391.2c-21.9-8-49.7-11.4-51.3,16.5
			c-1.4,39,14.5,60.1,56.1,67.7c37.6,5.5,83.8,13.4,49.6-25.9C158.6,430.5,148.3,399.3,123.7,391.2L123.7,391.2z M-813.1,553
			c-17.9,20.9-27.7,16-53,3.2c-23.9-9.7-33.6-38.3-19.1-56.8c12.5-16.4,42.7-9.7,56.1,12.6c4.1,6.8,6.8,9.4,15.9,16.5
			C-804.1,535.8-803.5,540.5-813.1,553L-813.1,553z M-815.5,551.8c8.8-11.5,8.3-14.8,0.1-21.4c-9.2-7.3-12.1-10.1-16.4-17.1
			c-12.6-20.9-40.1-27.1-51.1-12.6c-13.6,17.3-4.2,44.4,18.4,53.4C-840.5,565.9-832.2,571.5-815.5,551.8z M-541.1,337.6
			c53.4,9.2,175.1,47.3,216.5,42.6c52-3.1,143.9-27.9,183.5-49.5c17.9-9.3,27.1-9,37,3.9c9,13.1,18.3,27.7,32.1,34
			c40.3,23.3-14.5,40.3-39.5,39.8c-28,0.6-56.6,23-83.5,58.2c-13.6,16.2-28.1,14.8-50.4,11.8c-40.2-7.3-50.5,10.4-91.5-11.1
			c-13.9-4.6-33.8,17-51.6,6.6c-22.8-17.7-73.5-4.2-104.4-21.9c-25.1-15.4-64.3-14.6-89-16.5c-47.9-3.8-101-6.1-116.2-49.5
			c-6.8-20.2,32.8-23.8,51.7-28.4c27.4-5.8,25.4-3.3,48.9-14.5C-577.6,333.2-564.5,334.4-541.1,337.6L-541.1,337.6z M-541.9,340
			c-22.8-3.1-35-4.4-54.5,5.2c-23.8,11.3-22.1,8.9-49.8,14.8c-17,4.2-55.2,7.8-49.3,24.9c15,42.6,67,44.2,114,48.1
			c11.4,0.6,45,2.3,59.9,5.4c23.4,4.2,43.5,23,70,21.2c69.7-2.8,56.7,27.2,99,7.3c8.1-3.2,13-3.9,17.3-1.7
			c39.2,20.6,48.9,4.2,87.5,10.4c24.6,4.2,41.1,3.4,50.3-10.1c27.4-36,56.7-58.9,86.1-59.5c22.3,0.2,75.4-14.3,37.7-35.1
			c-10.6-5.5-17.6-12.6-25.4-23.8c-15.1-23.2-19.1-24.5-40.6-14.1c-40,21.8-132.4,46.8-185,49.9C-366.4,387.5-488.1,349.4-541.9,340
			z M-508.4,369.5c13.6,9.2,56.4,11.2,39.1,33.8c-20.5,22.2-50.1,12.6-84.5,9.1c-9.1-1.4-20.1-0.8-34.1,0.5
			c-29.2,2.6-45.1,0.9-68.2-11c-11.9-6.1-13-12.9-4.4-19.3c16.2-13,81.3-24.3,99.2-28C-545.5,349.1-528.2,358.5-508.4,369.5z
			 M-510.1,371.7c-19-10.5-35.9-20-50.8-14.7c-17.4,3.7-81.9,14.8-97.9,27.4c-6.9,5.1-6.1,9.9,4.3,15.3
			c28.6,19.1,69.2,7.5,101.3,10.2c32.7,3.3,62.3,12.8,81.4-7.8C-455.6,383.2-498.7,379.9-510.1,371.7L-510.1,371.7z M-167,412.1
			c-13.5,9.5-15.9,12.2-23.4,26.4c-11.4,19.3-32.1,37-45.8,26.7c-22.9-9.1-38.8-25.7-18.9-50.9c23-30.1,37.7-40,62.9-47
			c7.1-2,22.3-10.1,27-12.5c38.2-18.8,43.8-15.6,59,11.3c1.9,2.9,24.8,12.1,25.4,15.9c4.7,8.6-19.5,10.6-26.2,12.6
			C-149,403.4-157.9,405.8-167,412.1L-167,412.1z M-168.7,410.3c1.5-5,47.4-15.8,76.6-21.4c7.9-1.8,9.9-3.6,8.7-5.6
			c-0.6-1.8-7.5-5.7-13.5-8.6c-30.6-11.9-8.4-47.2-67-17.7c-5,2.6-20.2,10.7-27.6,12.7c-24.6,6.9-38.6,16.3-61.2,45.9
			c-18.9,23.9-3.6,38.7,18,47.4c12.2,9.5,30.7-7.2,41.7-25.4C-185.3,423.1-182.6,420-168.7,410.3z M-211.3,425.8
			c4.2,10.3,7.1,15.1-7.6,21.1c-18.2,7.6-26.2-4.2-13.5-20.7C-222.7,413.4-215.1,410-211.3,425.8L-211.3,425.8z M-216.9,427.3
			c-1.3-4.8-2.3-6.8-2.8-6.9c-7.4,3.8-24.7,31.1-1.3,22c7.3-3,8.2-4.3,7.1-7.5C-213.9,435-216.3,429.5-216.9,427.3L-216.9,427.3z
			 M529.8,420.1c15.9,0.7,29.6,5.4,45.6,5.4c13.4,0.6,18.2,3.8,15.2,10.4c-25.4,36.3-80.4,71.9-134.5,78.5
			c-32.6,4.5-32.5-8-20.9-35.1c5.6-12.9,12-27.2,16.2-40.5C470,379,480.4,421,529.8,420.1L529.8,420.1z M529.3,422.6
			c-51.6,0.5-57.6-39.6-75.2,16.6c-4,12.8-10.9,28.3-16.3,40.8c-10.3,25.5-12.8,36.2,18,32c53-6.4,107.1-41.5,132-76.8
			c2.1-4.6-1.1-6.6-12.9-7.2C559.3,428,544.8,423.2,529.3,422.6z M507.7,431.3c11.4,2.9,24.5,1.3,36.7,3.9
			c44.4,9.5-32.2,55.6-57.1,57.2c-36.2,5.2-31.4-8.5-22.4-43C473,421.2,485.7,421.7,507.7,431.3L507.7,431.3z M498.9,433.7
			c-16.2-7.4-22.7-3-28.3,16.5c-5.8,20.7-7.2,28.6-5.5,33.7c13.9,19.6,89.1-22.6,87-39.1C543.9,434.5,512.2,441.5,498.9,433.7z
			 M103.1-39.9C80.5-23.6,45.7-21.3,20.9-6.5C-13,11-41.2,9.7-82.6,4.9c-33.5-4-41.3-17.5-37.8-69.1c5.9-33.8-68.2-90.2-52.2-100.8
			c5.4-4.2,19.3-2.2,47,5.9c45.1,13.3,70.5,24.9,100.2,42.7c18,10.8,22.2,13,30.8,15.1c25,4.5,73.8-1.7,85.7,1.4
			C134.9-97.4,149.2-66.3,103.1-39.9L103.1-39.9z M99.8-43.8c27.1-18.3,30.5-24.3,21.6-39.5c-3.8-6.6-14.1-10.3-31.3-11.7
			c-12.2-3.1-61.5,3.3-86.7-1.5c-9.4-2.4-13.8-4.7-32.3-15.8c-29.3-17.5-54.3-29-98.9-42.1c-17.3-4.4-29.4-9.5-41-7.1
			c-1.1,9.2,23.7,32.7,31.5,44.7C-89.2-67.3-144.5-6.9-81.2-0.1c59.9,7.9,74.3,1.4,124-21.5C61.5-28.1,85.1-32.8,99.8-43.8
			L99.8-43.8z M84.6-52.8C44.5-34.9,4.5-28.5-36.5-39.2c-21.7-5.7-28.4-17.1-21.5-29c6-10.3,20.4-16.8,29.3-12.2
			c0.4,4.6,41.5,0.9,65.1-2.3C62-87.9,136.1-75.9,84.6-52.8L84.6-52.8z M83.5-55c30.6-14,13-19.6-12.2-25.2
			c-10.6-2.5-32-0.7-48.1,1.3c-36.8,4.3-45.6,4.7-53.6,0.6c-7.2-3.7-19.8,1.9-25,11c-6.1,10.4-0.2,20.4,20,25.6
			C4.7-31.1,44-37.3,83.5-55z M575.6-139.5c41.5,53.6,94.2,36,150.9,36.5c13,1,22.5,4.4,28.9,11.1c15.3,21.2-75.5,131.2-93.3,141.1
			c-22,15.7-55.3,7.7-77.9-4.5c-13.8-7.1-25.4-5.9-41.7,1.5c-9.2,4.3-21.6,10.7-28.8,8.8c-6.6-1.2-20.9-1.2-28.6-1.8
			c-20.5-1.2-35.8-4.2-48.7-10.9c-13.6-7-27.4-7.9-43.2-4.5c-21.1,5.8-31.3,8.5-55.2,4.8c-44.8-5.2-54.2-9.8-76.2-51.6
			c-2.3-4.9-12.5-11.9-22.4-17.8c-10.7-6.8-16.4-11.9-19.5-19c-17.7-48.2,55-51,94-54.8c21.1,1.4,74.3-13.7,105.6-19.6
			c18.3-0.5,62.3-38.5,80.4-40C533.4-167,545-176.7,575.6-139.5L575.6-139.5z M573.2-137.9c-20.2-22.6-28.7-27.8-41.9-26.3
			c-26.2,4.8-43.6,7-70.7,26.8c-31.3,22.3-46.5,19.1-77.3,27.5c-43.2,10.6-43.4,10.2-69.4,11.8c-37.3,3.6-108.4,6.1-91.3,51.2
			c2.8,6.6,8.2,11.5,18.5,18.1c10.4,6,20.7,13.2,23.2,18.6c21.4,40.8,30.6,45.4,74.3,50.4c23.6,3.7,33,0.9,54-4.8
			c36.5-9.2,53.7,16.2,92.9,15.3c7.6,0.6,22,0.6,28.9,1.8c5.7,2,19.3-5,26.8-8.5c31.5-17.3,48.6,5.5,77.6,10.3
			C668.9,61.8,684,23,722-23c24.3-34.3,37.1-60.8,31-67.1c-18.5-14.9-34.9-10.5-64.6-9C636.7-95,607.9-98,573.2-137.9z M573-76
			c28,15.4,35.9,9.1,71.7,13.2c6.3,2.1,36.7-8.9,44.2-10c14.4-2.7,22.3,1.6,22.3,15.3c0.1,27-13,41.5-44.5,58.6
			c-8.5,4.3-18,11-25.6,15.6c-20.2,9-34.6,7.1-60.4-2.4c-16.2-5-27.3-6-39.2-1.9c-17.8,6.8-41.5,6.3-64.7,3.9
			c-8.2-0.9-16.5-1.2-24.8-1C424.3,14.8,394.9-1,366.9,10c-21.5,5.9-36.9,4-50.7-6c-11.5-8.3-20.4-19.6-40.5-49.6
			c-9.8-14.6-2.5-24.8,18.8-31.2c1.2-3.8,118.4-15.5,137.7-23.4c11-3.3,19.5-7.2,25.5-11.9c43.4-32.9,66.1-32.2,80-5.6
			C548.4-96.2,547.8-88.5,573-76z M569.7-71.6C553.4-80,546.4-86.3,541.5-96c-13.7-36.1-28.6-53.2-80.1-12.6
			c-6.8,5.2-16,9.4-27.7,12.9c-16.4,5-35.2,8.2-65.5,12c-55.5,7.9-103.2,8.4-87.5,35.3C313-4.3,318.1,15.4,365.5,5.2
			c30.4-11.3,57.3,3.8,86.7,5c10.4-0.3,20.8,0.6,31.1,1.5c21.5,2.1,40.7,1.8,56.3-3.9c13.6-4.7,26-3.6,43.4,1.8
			c24.3,8.9,36.8,11.1,55.5,2.9C646.4,7.6,653.9,2.3,664-3c29.8-16.3,41.6-29.2,41.5-54c0-10.4-4.7-12.9-15.8-10.9
			c-8.8,1.6-38.9,12.4-46.1,10.1C607.7-61.8,598.4-55.8,569.7-71.6z M525.2-68.6c8,24.9,44.8,22,63.8,29.3c6,3.1,7.8,8.1,5.1,16.1
			c-4.3,12.8-19.6,15.6-50.3,12.3c-33.3-4.2-90.3-13.8-122.2-9.2c-58.3,4.7-66.2,6.8-80.5-22.2c-27.1-36.9,74.8-9.3,124.5-47.4
			C519.1-126.4,509.1-111,525.2-68.6z M522.5-67.7c-4-8.9-7.1-20.7-9.7-30.1c-7-33.4-48.3,29.8-111.6,32.5
			c-10.8,1.5-43.7,4-48.6,4.8c-17.3,2.2-14,7.8-8.7,17c2.2,4.1,5.3,10.9,7.7,13.6c12.7,21.4,94.2-0.6,132.5,8.6
			c27.4,0.9,98,22,107.3-2.4c2.3-7,0.9-11-4-13.5C566.5-44.4,531.2-41.9,522.5-67.7z"/>
	</g>
	<polygon class="st2" points="883,-89 641,213 1410,603 1410,-90 	"/>
	<polygon class="st3" points="641,213 636,357 1410,749 1410,603 	"/>
	<path class="st4" d="M138,987.9L636,357l774,392v53l-134,188H136c0,0,2-2,2-2C138,988,138,988,138,987.9z"/>
	<polygon class="st5" points="1410,802 1410,990 1276,990 	"/>
	<ellipse class="st6" cx="789.3" cy="672.8" rx="93.4" ry="73.7"/>
	<ellipse class="st6" cx="122.1" cy="223.6" rx="67.9" ry="28.7"/>
	<circle class="st7" cx="721.1" cy="592.1" r="113.8"/>
	<circle class="st8" cx="82.9" cy="179" r="56.9"/>
</g>
</svg>
