<?xml version="1.0" encoding="utf-8"?>
<!-- Generator: Adobe Illustrator 23.0.1, SVG Export Plug-In . SVG Version: 6.00 Build 0)  -->
<svg xmlns="http://www.w3.org/2000/svg" xmlns:xlink="http://www.w3.org/1999/xlink" x="0px" y="0px"
	 viewBox="0 0 467 712" style="enable-background:new 0 0 467 712;" xml:space="preserve">
<style type="text/css">
	.abstract-shapes-12-0{fill:#377DFF;}
	.abstract-shapes-12-1{fill:#00DFFC;}
	.abstract-shapes-12-2{fill:none;stroke:#FFC107;}
</style>
<path class="abstract-shapes-12-0 fill-primary" d="M64.5,583L64.5,583c35.6,0,64.5,28.9,64.5,64.5v0c0,35.6-28.9,64.5-64.5,64.5h0C28.9,712,0,683.1,0,647.5v0
	C0,611.9,28.9,583,64.5,583z"/>
<path class="abstract-shapes-12-1 fill-info" d="M338,428L338,428c71.2,0,129,57.8,129,129v0H338V428z"/>
<line class="abstract-shapes-12-2 fill-none stroke-warning" stroke-width="4" stroke-linecap="round" stroke-miterlimit="10" x1="5" y1="114.5" x2="115.3" y2="4.3"/>
<line class="abstract-shapes-12-2 fill-none stroke-warning" stroke-width="4" stroke-linecap="round" stroke-miterlimit="10" x1="75.8" y1="2.8" x2="2.3" y2="76.3"/>
<line class="abstract-shapes-12-2 fill-none stroke-warning" stroke-width="4" stroke-linecap="round" stroke-miterlimit="10" x1="3.1" y1="34.6" x2="35.4" y2="2.4"/>
<line class="abstract-shapes-12-2 fill-none stroke-warning" stroke-width="4" stroke-linecap="round" stroke-miterlimit="10" x1="3.6" y1="53.1" x2="53.9" y2="2.9"/>
<line class="abstract-shapes-12-2 fill-none stroke-warning" stroke-width="4" stroke-linecap="round" stroke-miterlimit="10" x1="45.2" y1="115.2" x2="116.2" y2="44.2"/>
<line class="abstract-shapes-12-2 fill-none stroke-warning" stroke-width="4" stroke-linecap="round" stroke-miterlimit="10" x1="21.2" y1="118.2" x2="117.2" y2="22.2"/>
<line class="abstract-shapes-12-2 fill-none stroke-warning" stroke-width="4" stroke-linecap="round" stroke-miterlimit="10" x1="2.2" y1="96.2" x2="96.2" y2="2.2"/>
<line class="abstract-shapes-12-2 fill-none stroke-warning" stroke-width="4" stroke-linecap="round" stroke-miterlimit="10" x1="84.4" y1="116.9" x2="117.6" y2="83.6"/>
<line class="abstract-shapes-12-2 fill-none stroke-warning" stroke-width="4" stroke-linecap="round" stroke-miterlimit="10" x1="66.9" y1="116.4" x2="117.1" y2="66.1"/>
</svg>
