<?xml version="1.0" encoding="utf-8"?>
<!-- Generator: Adobe Illustrator 23.0.0, SVG Export Plug-In . SVG Version: 6.00 Build 0)  -->
<svg xmlns="http://www.w3.org/2000/svg" xmlns:xlink="http://www.w3.org/1999/xlink" x="0px" y="0px"
	 viewBox="0 0 67.1 115" style="enable-background:new 0 0 67.1 115;" xml:space="preserve">
<style type="text/css">
	.abstract-shapes-11-0{fill:#00DFFC;}
	.abstract-shapes-11-1{fill:none;stroke:#FFFFFF;}
</style>
<g>
	<defs>
		<rect id="abstractShapes11_1" width="67.1" height="115"/>
	</defs>
	<clipPath id="abstractShapes11_2">
		<use xlink:href="#abstractShapes11_1" style="overflow:visible;"/>
	</clipPath>
	<g clip-path="url(#abstractShapes11_2)">
		<g>
			<path class="abstract-shapes-11-0 fill-info" d="M89.9,31.4c-0.1,12.4-0.2,24.4,6.6,35.6c4.9,8.1,12.6,14.1,21.5,17.3c11.7,4,26.5,2.3,36,11.4
				c5.1,4.8,7.4,11.8,6.3,18.8c-2.7,18.1-20.4,22.7-36.3,22.9c-18.6,0.3-38.3-3.3-52.7,11.4c-8.5,8.8-12.4,23.3-23.9,29.1
				c-16.9,8.6-29.5-12-34.9-25c-4.7-11.8-9.1-23.6-11.5-36.2c-1.3-6.5-1.8-13.4,0.4-19.7c5.2-15.5,21.8-13.2,33.9-19.7
				c6.4-3.5,11.1-9,13.8-15.7c4.9-12.2,4.9-25.9,5.8-38.9C55.8,10.4,65.8-4.9,80.3,1.5c6.6,2.9,9.2,9.9,9.6,16.8
				C90,22.7,90,27.1,89.9,31.4z"/>
		</g>
		<g>
			<g>
				<g>
					<g>
						<defs>
							<path id="abstractShapes11_3" d="M89.9,31.4c-0.1,12.4-0.2,24.4,6.6,35.6c4.9,8.1,12.6,14.1,21.5,17.3c11.7,4,26.5,2.3,36,11.4
								c5.1,4.8,7.4,11.8,6.3,18.8c-2.7,18.1-20.4,22.7-36.3,22.9c-18.6,0.3-38.3-3.3-52.7,11.4c-8.5,8.8-12.4,23.3-23.9,29.1
								c-16.9,8.6-29.5-12-34.9-25c-4.7-11.8-9.1-23.6-11.5-36.2c-1.3-6.5-1.8-13.4,0.4-19.7c5.2-15.5,21.8-13.2,33.9-19.7
								c6.4-3.5,11.1-9,13.8-15.7c4.9-12.2,4.9-25.9,5.8-38.9C55.8,10.4,65.8-4.9,80.3,1.5c6.6,2.9,9.2,9.9,9.6,16.8
								C90,22.7,90,27.1,89.9,31.4z"/>
						</defs>
						<clipPath id="abstractShapes11_4">
							<use xlink:href="#abstractShapes11_3" style="overflow:visible;"/>
						</clipPath>
						<path class="abstract-shapes-11-1 fill-none stroke-white" stroke-width="3" stroke-miterlimit="10" clip-path="url(#abstractShapes11_4)" d="M28.3,72.9c0,0-13.6,17.3,11.5,49s2.8,66.3,2.8,66.3"/>
					</g>
				</g>
			</g>
		</g>
		<g>
			<g>
				<g>
					<g>
						<defs>
							<path id="abstractShapes11_5" d="M89.9,31.4c-0.1,12.4-0.2,24.4,6.6,35.6c4.9,8.1,12.6,14.1,21.5,17.3c11.7,4,26.5,2.3,36,11.4
								c5.1,4.8,7.4,11.8,6.3,18.8c-2.7,18.1-20.4,22.7-36.3,22.9c-18.6,0.3-38.3-3.3-52.7,11.4c-8.5,8.8-12.4,23.3-23.9,29.1
								c-16.9,8.6-29.5-12-34.9-25c-4.7-11.8-9.1-23.6-11.5-36.2c-1.3-6.5-1.8-13.4,0.4-19.7c5.2-15.5,21.8-13.2,33.9-19.7
								c6.4-3.5,11.1-9,13.8-15.7c4.9-12.2,4.9-25.9,5.8-38.9C55.8,10.4,65.8-4.9,80.3,1.5c6.6,2.9,9.2,9.9,9.6,16.8
								C90,22.7,90,27.1,89.9,31.4z"/>
						</defs>
						<clipPath id="abstractShapes11_6">
							<use xlink:href="#abstractShapes11_5" style="overflow:visible;"/>
						</clipPath>
						<path class="abstract-shapes-11-1 fill-none stroke-white" stroke-width="3" stroke-miterlimit="10" clip-path="url(#abstractShapes11_6)" d="M44,62.4c0,0-13.6,17.3,11.5,49s2.8,66.3,2.8,66.3"/>
					</g>
				</g>
			</g>
		</g>
		<g>
			<g>
				<g>
					<g>
						<defs>
							<path id="abstractShapes11_7" d="M89.9,31.4c-0.1,12.4-0.2,24.4,6.6,35.6c4.9,8.1,12.6,14.1,21.5,17.3c11.7,4,26.5,2.3,36,11.4
								c5.1,4.8,7.4,11.8,6.3,18.8c-2.7,18.1-20.4,22.7-36.3,22.9c-18.6,0.3-38.3-3.3-52.7,11.4c-8.5,8.8-12.4,23.3-23.9,29.1
								c-16.9,8.6-29.5-12-34.9-25c-4.7-11.8-9.1-23.6-11.5-36.2c-1.3-6.5-1.8-13.4,0.4-19.7c5.2-15.5,21.8-13.2,33.9-19.7
								c6.4-3.5,11.1-9,13.8-15.7c4.9-12.2,4.9-25.9,5.8-38.9C55.8,10.4,65.8-4.9,80.3,1.5c6.6,2.9,9.2,9.9,9.6,16.8
								C90,22.7,90,27.1,89.9,31.4z"/>
						</defs>
						<clipPath id="abstractShapes11_8">
							<use xlink:href="#abstractShapes11_7" style="overflow:visible;"/>
						</clipPath>
						<path class="abstract-shapes-11-1 fill-none stroke-white" stroke-width="3" stroke-miterlimit="10" clip-path="url(#abstractShapes11_8)" d="M55,14.3c0,0-16.6,21.3,14.6,60.5c31.2,39.4,4.2,81.7,4.2,81.7"/>
					</g>
				</g>
			</g>
		</g>
		<g>
			<g>
				<g>
					<g>
						<defs>
							<path id="abstractShapes11_9" d="M89.9,31.4c-0.1,12.4-0.2,24.4,6.6,35.6c4.9,8.1,12.6,14.1,21.5,17.3c11.7,4,26.5,2.3,36,11.4
								c5.1,4.8,7.4,11.8,6.3,18.8c-2.7,18.1-20.4,22.7-36.3,22.9c-18.6,0.3-38.3-3.3-52.7,11.4c-8.5,8.8-12.4,23.3-23.9,29.1
								c-16.9,8.6-29.5-12-34.9-25c-4.7-11.8-9.1-23.6-11.5-36.2c-1.3-6.5-1.8-13.4,0.4-19.7c5.2-15.5,21.8-13.2,33.9-19.7
								c6.4-3.5,11.1-9,13.8-15.7c4.9-12.2,4.9-25.9,5.8-38.9C55.8,10.4,65.8-4.9,80.3,1.5c6.6,2.9,9.2,9.9,9.6,16.8
								C90,22.7,90,27.1,89.9,31.4z"/>
						</defs>
						<clipPath id="abstractShapes11_10">
							<use xlink:href="#abstractShapes11_9" style="overflow:visible;"/>
						</clipPath>
						<path class="abstract-shapes-11-1 fill-none stroke-white" stroke-width="3" stroke-miterlimit="10" clip-path="url(#abstractShapes11_10)" d="M88.8,5.4c0,0-16.6,21.3,14.6,60.5c31.2,39.3,4.2,81.7,4.2,81.7"/>
					</g>
				</g>
			</g>
		</g>
	</g>
</g>
</svg>
