<?xml version="1.0" encoding="utf-8"?>
<!-- Generator: Adobe Illustrator 22.1.0, SVG Export Plug-In . SVG Version: 6.00 Build 0)  -->
<svg xmlns="http://www.w3.org/2000/svg" xmlns:xlink="http://www.w3.org/1999/xlink" x="0px" y="0px"
	 viewBox="0 0 857 670" style="enable-background:new 0 0 857 670;" xml:space="preserve">
<style type="text/css">
	.borwser-0{fill:#FFFFFF;}
	.borwser-1{fill:#FF4E50;}
	.borwser-2{fill:#FFC107;}
	.borwser-3{fill:#00C9A7;}
</style>
<g>
	<defs>
		<path id="browserID1" d="M833,665H25c-10.5,0-19-8.5-19-19V24.9c0-10.5,8.5-19,19-19h808c10.5,0,19,8.5,19,19V646
			C852,656.5,843.5,665,833,665z"/>
	</defs>
	<clipPath id="browserID2">
		<use xlink:href="#browserID1"  style="overflow:visible;"/>
	</clipPath>
	<use xlink:href="#browserID1" fill="none" stroke="#fff" stroke-width="10" stroke-miterlimit="10" style="overflow:visible;fill:none;stroke:#FFFFFF;stroke-width:10;stroke-miterlimit:10;"/>
</g>
<g>
	<path class="borwser-0 fill-white" d="M856.8,40.2H0.8V19c0-10.5,8.5-19,19-19h818c10.5,0,19,8.5,19,19V40.2z"/>
</g>
<g>
	<ellipse class="borwser-1 fill-danger" cx="28.5" cy="20.1" rx="6" ry="6"/>
	<ellipse class="borwser-2 fill-warning" cx="48.4" cy="20.1" rx="6" ry="6"/>
	<ellipse class="borwser-3 fill-success" cx="68.4" cy="20.1" rx="6" ry="6"/>
</g>
</svg>
