<?xml version="1.0" encoding="utf-8"?>
<!-- Generator: Adobe Illustrator 24.0.2, SVG Export Plug-In . SVG Version: 6.00 Build 0)  -->
<svg version="1.1" id="Layer_1" xmlns="http://www.w3.org/2000/svg" xmlns:xlink="http://www.w3.org/1999/xlink" x="0px" y="0px"
	 viewBox="0 0 19 19" style="enable-background:new 0 0 19 19;" xml:space="preserve">
<path d="M16.5,4.5L4.5,16.5c-0.2,0.2-0.6,0.2-0.9-0.1l-1-1c-0.3-0.3-0.3-0.7-0.1-0.9L14.5,2.5c0.2-0.2,0.6-0.2,0.9,0.1l1,1
	C16.6,3.9,16.7,4.3,16.5,4.5z"/>
<path d="M14.5,16.5L2.5,4.5C2.3,4.3,2.4,3.9,2.6,3.6l1-1c0.3-0.3,0.7-0.3,0.9-0.1l11.9,11.9c0.2,0.2,0.2,0.6-0.1,0.9l-1,1
	C15.1,16.6,14.7,16.7,14.5,16.5z"/>
</svg>
