<?xml version="1.0" encoding="utf-8"?>
<!-- Generator: Adobe Illustrator 23.0.1, SVG Export Plug-In . SVG Version: 6.00 Build 0)  -->
<svg xmlns="http://www.w3.org/2000/svg" xmlns:xlink="http://www.w3.org/1999/xlink" x="0px" y="0px"
	 viewBox="0 0 458 458" style="enable-background:new 0 0 458 458;" xml:space="preserve">
<style type="text/css">
	.dots{fill:#8c98a4;}
</style>
	<circle class="dots fill-indigo" cx="4" cy="4" r="4"/>
	<circle class="dots fill-indigo" cx="94" cy="4" r="4"/>
	<circle class="dots fill-indigo" cx="184" cy="4" r="4"/>
	<circle class="dots fill-indigo" cx="274" cy="4" r="4"/>
	<circle class="dots fill-indigo" cx="364" cy="4" r="4"/>
	<circle class="dots fill-indigo" cx="454" cy="4" r="4"/>
	<circle class="dots fill-indigo" cx="4" cy="94" r="4"/>
	<circle class="dots fill-indigo" cx="94" cy="94" r="4"/>
	<circle class="dots fill-indigo" cx="184" cy="94" r="4"/>
	<circle class="dots fill-indigo" cx="274" cy="94" r="4"/>
	<circle class="dots fill-indigo" cx="364" cy="94" r="4"/>
	<circle class="dots fill-indigo" cx="454" cy="94" r="4"/>
	<circle class="dots fill-indigo" cx="4" cy="184" r="4"/>
	<circle class="dots fill-indigo" cx="94" cy="184" r="4"/>
	<circle class="dots fill-indigo" cx="184" cy="184" r="4"/>
	<circle class="dots fill-indigo" cx="274" cy="184" r="4"/>
	<circle class="dots fill-indigo" cx="364" cy="184" r="4"/>
	<circle class="dots fill-indigo" cx="454" cy="184" r="4"/>
	<circle class="dots fill-indigo" cx="4" cy="274" r="4"/>
	<circle class="dots fill-indigo" cx="94" cy="274" r="4"/>
	<circle class="dots fill-indigo" cx="184" cy="274" r="4"/>
	<circle class="dots fill-indigo" cx="274" cy="274" r="4"/>
	<circle class="dots fill-indigo" cx="364" cy="274" r="4"/>
	<circle class="dots fill-indigo" cx="454" cy="274" r="4"/>
	<circle class="dots fill-indigo" cx="4" cy="364" r="4"/>
	<circle class="dots fill-indigo" cx="94" cy="364" r="4"/>
	<circle class="dots fill-indigo" cx="184" cy="364" r="4"/>
	<circle class="dots fill-indigo" cx="274" cy="364" r="4"/>
	<circle class="dots fill-indigo" cx="364" cy="364" r="4"/>
	<circle class="dots fill-indigo" cx="454" cy="364" r="4"/>
	<circle class="dots fill-indigo" cx="4" cy="454" r="4"/>
	<circle class="dots fill-indigo" cx="94" cy="454" r="4"/>
	<circle class="dots fill-indigo" cx="184" cy="454" r="4"/>
	<circle class="dots fill-indigo" cx="274" cy="454" r="4"/>
	<circle class="dots fill-indigo" cx="364" cy="454" r="4"/>
	<circle class="dots fill-indigo" cx="454" cy="454" r="4"/>
</svg>
