<?xml version="1.0" encoding="utf-8"?>
<!-- Generator: Adobe Illustrator 24.0.1, SVG Export Plug-In . SVG Version: 6.00 Build 0)  -->
<svg version="1.1" id="Layer_1" xmlns="http://www.w3.org/2000/svg" xmlns:xlink="http://www.w3.org/1999/xlink" x="0px" y="0px"
	 viewBox="0 0 225.9 225.9" style="enable-background:new 0 0 225.9 225.9;" xml:space="preserve">
<style type="text/css">
	.st0{opacity:0.7;fill:#BDC5D1;enable-background:new    ;}
</style>
<circle class="st0" cx="1.9" cy="1.9" r="1.9"/>
<circle class="st0" cx="26.6" cy="1.9" r="1.9"/>
<circle class="st0" cx="51.3" cy="1.9" r="1.9"/>
<circle class="st0" cx="1.9" cy="26.6" r="1.9"/>
<circle class="st0" cx="26.6" cy="26.6" r="1.9"/>
<circle class="st0" cx="51.3" cy="26.6" r="1.9"/>
<circle class="st0" cx="1.9" cy="51.3" r="1.9"/>
<circle class="st0" cx="26.6" cy="51.3" r="1.9"/>
<circle class="st0" cx="51.3" cy="51.3" r="1.9"/>
<circle class="st0" cx="1.9" cy="75.9" r="1.9"/>
<circle class="st0" cx="26.6" cy="75.9" r="1.9"/>
<circle class="st0" cx="51.3" cy="75.9" r="1.9"/>
<circle class="st0" cx="1.9" cy="100.6" r="1.9"/>
<circle class="st0" cx="26.6" cy="100.6" r="1.9"/>
<circle class="st0" cx="51.3" cy="100.6" r="1.9"/>
<circle class="st0" cx="1.9" cy="125.3" r="1.9"/>
<circle class="st0" cx="26.6" cy="125.3" r="1.9"/>
<circle class="st0" cx="51.3" cy="125.3" r="1.9"/>
<circle class="st0" cx="1.9" cy="149.9" r="1.9"/>
<circle class="st0" cx="26.6" cy="149.9" r="1.9"/>
<circle class="st0" cx="51.3" cy="149.9" r="1.9"/>
<circle class="st0" cx="1.9" cy="174.6" r="1.9"/>
<circle class="st0" cx="26.6" cy="174.6" r="1.9"/>
<circle class="st0" cx="51.3" cy="174.6" r="1.9"/>
<circle class="st0" cx="1.9" cy="199.3" r="1.9"/>
<circle class="st0" cx="26.6" cy="199.3" r="1.9"/>
<circle class="st0" cx="51.3" cy="199.3" r="1.9"/>
<circle class="st0" cx="1.9" cy="223.9" r="1.9"/>
<circle class="st0" cx="26.6" cy="223.9" r="1.9"/>
<circle class="st0" cx="51.3" cy="223.9" r="1.9"/>
<circle class="st0" cx="75.9" cy="1.9" r="1.9"/>
<circle class="st0" cx="100.6" cy="1.9" r="1.9"/>
<circle class="st0" cx="75.9" cy="26.6" r="1.9"/>
<circle class="st0" cx="100.6" cy="26.6" r="1.9"/>
<circle class="st0" cx="75.9" cy="51.3" r="1.9"/>
<circle class="st0" cx="100.6" cy="51.3" r="1.9"/>
<circle class="st0" cx="75.9" cy="75.9" r="1.9"/>
<circle class="st0" cx="100.6" cy="75.9" r="1.9"/>
<circle class="st0" cx="75.9" cy="100.6" r="1.9"/>
<circle class="st0" cx="100.6" cy="100.6" r="1.9"/>
<circle class="st0" cx="75.9" cy="125.3" r="1.9"/>
<circle class="st0" cx="100.6" cy="125.3" r="1.9"/>
<circle class="st0" cx="75.9" cy="149.9" r="1.9"/>
<circle class="st0" cx="100.6" cy="149.9" r="1.9"/>
<circle class="st0" cx="75.9" cy="174.6" r="1.9"/>
<circle class="st0" cx="100.6" cy="174.6" r="1.9"/>
<circle class="st0" cx="75.9" cy="199.3" r="1.9"/>
<circle class="st0" cx="100.6" cy="199.3" r="1.9"/>
<circle class="st0" cx="75.9" cy="223.9" r="1.9"/>
<circle class="st0" cx="100.6" cy="223.9" r="1.9"/>
<circle class="st0" cx="125.3" cy="1.9" r="1.9"/>
<circle class="st0" cx="149.9" cy="1.9" r="1.9"/>
<circle class="st0" cx="174.6" cy="1.9" r="1.9"/>
<circle class="st0" cx="125.3" cy="26.6" r="1.9"/>
<circle class="st0" cx="149.9" cy="26.6" r="1.9"/>
<circle class="st0" cx="174.6" cy="26.6" r="1.9"/>
<circle class="st0" cx="125.3" cy="51.3" r="1.9"/>
<circle class="st0" cx="149.9" cy="51.3" r="1.9"/>
<circle class="st0" cx="174.6" cy="51.3" r="1.9"/>
<circle class="st0" cx="125.3" cy="75.9" r="1.9"/>
<circle class="st0" cx="149.9" cy="75.9" r="1.9"/>
<circle class="st0" cx="174.6" cy="75.9" r="1.9"/>
<circle class="st0" cx="125.3" cy="100.6" r="1.9"/>
<circle class="st0" cx="149.9" cy="100.6" r="1.9"/>
<circle class="st0" cx="174.6" cy="100.6" r="1.9"/>
<circle class="st0" cx="125.3" cy="125.3" r="1.9"/>
<circle class="st0" cx="149.9" cy="125.3" r="1.9"/>
<circle class="st0" cx="174.6" cy="125.3" r="1.9"/>
<circle class="st0" cx="125.3" cy="149.9" r="1.9"/>
<circle class="st0" cx="149.9" cy="149.9" r="1.9"/>
<circle class="st0" cx="174.6" cy="149.9" r="1.9"/>
<circle class="st0" cx="125.3" cy="174.6" r="1.9"/>
<circle class="st0" cx="149.9" cy="174.6" r="1.9"/>
<circle class="st0" cx="174.6" cy="174.6" r="1.9"/>
<circle class="st0" cx="125.3" cy="199.3" r="1.9"/>
<circle class="st0" cx="149.9" cy="199.3" r="1.9"/>
<circle class="st0" cx="174.6" cy="199.3" r="1.9"/>
<circle class="st0" cx="125.3" cy="223.9" r="1.9"/>
<circle class="st0" cx="149.9" cy="223.9" r="1.9"/>
<circle class="st0" cx="174.6" cy="223.9" r="1.9"/>
<circle class="st0" cx="199.3" cy="1.9" r="1.9"/>
<circle class="st0" cx="223.9" cy="1.9" r="1.9"/>
<circle class="st0" cx="199.3" cy="26.6" r="1.9"/>
<circle class="st0" cx="223.9" cy="26.6" r="1.9"/>
<circle class="st0" cx="199.3" cy="51.3" r="1.9"/>
<circle class="st0" cx="223.9" cy="51.3" r="1.9"/>
<circle class="st0" cx="199.3" cy="75.9" r="1.9"/>
<circle class="st0" cx="223.9" cy="75.9" r="1.9"/>
<circle class="st0" cx="199.3" cy="100.6" r="1.9"/>
<circle class="st0" cx="223.9" cy="100.6" r="1.9"/>
<circle class="st0" cx="199.3" cy="125.3" r="1.9"/>
<circle class="st0" cx="223.9" cy="125.3" r="1.9"/>
<circle class="st0" cx="199.3" cy="149.9" r="1.9"/>
<circle class="st0" cx="223.9" cy="149.9" r="1.9"/>
<circle class="st0" cx="199.3" cy="174.6" r="1.9"/>
<circle class="st0" cx="223.9" cy="174.6" r="1.9"/>
<circle class="st0" cx="199.3" cy="199.3" r="1.9"/>
<circle class="st0" cx="223.9" cy="199.3" r="1.9"/>
<circle class="st0" cx="199.3" cy="223.9" r="1.9"/>
<circle class="st0" cx="223.9" cy="223.9" r="1.9"/>
</svg>
