<?xml version="1.0" encoding="utf-8"?>
<!-- Generator: Adobe Illustrator 23.0.3, SVG Export Plug-In . SVG Version: 6.00 Build 0)  -->
<svg xmlns="http://www.w3.org/2000/svg" xmlns:xlink="http://www.w3.org/1999/xlink" x="0px" y="0px" width="500" height="300"
	 viewBox="0 0 500 300" style="enable-background:new 0 0 500 300;" xml:space="preserve">
<style type="text/css">
	.graphics-2-0{fill:#287793;}
	.graphics-2-1{opacity:0.2;clip-path:url(#SVGID_2_);fill:#86D1F2;enable-background:new    ;}
	.graphics-2-2{opacity:0.4;clip-path:url(#SVGID_2_);fill:none;stroke:#105E5E;stroke-width:3;stroke-linecap:round;stroke-linejoin:round;stroke-miterlimit:10;enable-background:new    ;}
	.graphics-2-3{opacity:0.3;clip-path:url(#SVGID_2_);fill:#105E5E;enable-background:new    ;}
	.graphics-2-4{opacity:0.35;clip-path:url(#SVGID_2_);fill:#105E5E;enable-background:new    ;}
</style>
<rect class="graphics-2-0" width="500" height="300"/>
<g>
	<defs>
		<rect id="SVGID_1_" width="500" height="300"/>
	</defs>
	<clipPath id="SVGID_2_">
		<use xlink:href="#SVGID_1_"  style="overflow:visible;"/>
	</clipPath>
	<path class="graphics-2-1" d="M298.9,174.9v9.3c-0.1,0.5-0.2,1-0.3,1.5c-0.5,4.1-0.8,8.1-1.5,12.2c-2.2,13.1-6.9,25.3-13.9,36.5
		c-10.6,17.1-25,30.1-43.1,39c-10.4,5.2-21.7,8.5-33.2,9.8c-2.6,0.3-5.1,0.6-7.7,0.8H99.8c-0.5-0.1-1-0.2-1.5-0.3
		c-10-0.6-19.7-2.9-28.9-6.9c-20-8.8-35-23-44.8-42.6c-4.3-8.6-7.1-17.9-8.3-27.5c-0.3-2.3-0.6-4.7-0.8-7v-9.1
		c0.1-0.5,0.2-1,0.3-1.5c0.5-8.7,2.3-17.1,5.4-25.3c8.5-21.8,23.2-38,44.1-48.5c10.9-5.4,22.5-8.3,34.6-8.9c5.9-0.3,11.9,0,17.8,0.8
		c0.5,0.1,1.3-0.2,1.7-0.5c8.5-8.7,18.1-15.7,29-21c10.6-5.2,21.7-8.5,33.4-9.8c2.8-0.3,5.5-0.6,8.3-0.9h8.5
		c0.6,0.1,1.1,0.2,1.7,0.2c4.2,0.5,8.4,0.8,12.6,1.5c13,2.2,25.1,6.8,36.3,13.8c17.2,10.6,30.3,25,39.2,43.1
		c5.2,10.4,8.5,21.7,9.8,33.2C298.4,169.5,298.6,172.2,298.9,174.9 M140.4,114.5c0.2,0.2,0.2,0.3,0.3,0.4
		c5.8,2.9,11.4,6.2,16.7,10.1c0.3,0.2,1.2,0.1,1.6-0.1c14.4-9.1,30.1-12.3,46.9-9.3c16.5,2.9,29.9,11.2,40.1,24.3
		c11.6,14.9,16,31.7,12.8,50.4c-2.1,12.5-7.2,23.8-15.7,33.2c-15.6,17.2-35.1,24.3-58.1,21.3c-14.1-1.9-26.3-8-36.5-18.2
		c-13-13.1-26-26.1-39-39.2c-1.7-1.7-3.7-3.1-6.2-3.4c-4.4-0.5-8.3,1.6-10.2,5.6c-1.7,3.5-1.5,7.4,2.2,11
		c14.5,14.2,28.9,28.6,43.3,42.8c2.5,2.5,5.1,4.7,8,6.8c10.6,7.7,22.5,11.9,35.4,13.6c10.1,1.3,20.2,1.1,30.2-1.2
		c19-4.3,34.8-14,47.2-29c10.3-12.4,16.5-26.6,18.6-42.6c1.3-9.1,1-18.4-0.8-27.4c-2.9-14.8-9.1-28-19.1-39.2
		C239,103,215,93.4,186.4,95.5c-11,0.8-21.4,4.1-31.2,9.2C150,107.4,145,110.7,140.4,114.5 M133.4,264.2c-0.4-0.4-0.8-0.7-1.2-1.1
		c-5.9-5.6-11.9-11.2-17.7-16.8c-1.1-1.1-2.2-1.6-3.8-1.6c-5.9,0.1-11.9,0.2-17.7-1.2c-29.1-6.6-45.9-38.2-35.2-66
		c8.4-21.9,31.8-35.3,54.9-31.2c10.3,1.8,19.4,6.2,26.9,13.9c9.1,9.4,18.4,18.5,27.6,27.8c2.1,2.1,4.5,3.1,7.4,2.7
		c3.7-0.5,6.7-2.3,8.1-6c1.3-3.6,0.7-7-2.1-9.8c-9.6-9.8-19-19.8-29.1-29.1c-19.4-18.1-42.4-23.5-67.7-15.8
		c-34.1,10.4-54.1,45.6-46.3,80.3c7.1,31.7,34.8,53.9,67.2,53.9c9,0,18.1,0,27.1,0C132.3,264.3,132.7,264.2,133.4,264.2"/>
	<path class="graphics-2-2" d="M447,116.5L447,116.5c40,0,72.5-32.5,72.5-72.5l0,0c0-40-32.5-72.5-72.5-72.5l0,0c-40,0-72.5,32.5-72.5,72.5
		l0,0C374.5,84,407,116.5,447,116.5z"/>
	<path class="graphics-2-3" d="M447,99.9L447,99.9c31,0,55.9-25.1,55.9-55.9l0,0c0-31-25.1-55.9-55.9-55.9l0,0c-31,0-55.9,25.1-55.9,55.9l0,0
		C391.1,75,416,99.9,447,99.9z"/>
	<path class="graphics-2-4" d="M447,64.4L447,64.4c11.3,0,20.4-9.1,20.4-20.4l0,0c0-11.3-9.1-20.4-20.4-20.4l0,0c-11.3,0-20.4,9.1-20.4,20.4
		l0,0C426.6,55.3,435.7,64.4,447,64.4z"/>
</g>
</svg>
