<?xml version="1.0" encoding="utf-8"?>
<!-- Generator: Adobe Illustrator 23.0.3, SVG Export Plug-In . SVG Version: 6.00 Build 0)  -->
<svg xmlns="http://www.w3.org/2000/svg" xmlns:xlink="http://www.w3.org/1999/xlink" x="0px" y="0px" width="500" height="300"
	 viewBox="0 0 500 300" style="enable-background:new 0 0 500 300;" xml:space="preserve">
<style type="text/css">
	.graphics-5-0{clip-path:url(#SVGID_2_);fill:#4571F8;}
	.graphics-5-1{clip-path:url(#SVGID_2_);fill:#FFFFFF;}
	.graphics-5-2{clip-path:url(#SVGID_2_);fill:#8582FB;}
	.graphics-5-3{clip-path:url(#SVGID_2_);fill:#46B5F9;}
	.graphics-5-4{clip-path:url(#SVGID_2_);}
	.graphics-5-5{fill:none;stroke:#4571F8;stroke-width:5;stroke-linecap:round;stroke-miterlimit:10;}
</style>
<g>
	<defs>
		<rect id="SVGID_1_" width="500" height="300"/>
	</defs>
	<clipPath id="SVGID_2_">
		<use xlink:href="#SVGID_1_"  style="overflow:visible;"/>
	</clipPath>
	<rect class="graphics-5-0" width="500" height="300"/>
	<path class="graphics-5-1" d="M518.3,8.1l18.3,154c1.3,10.9-6.5,20.9-17.5,22.2l-154,18.3c-10.9,1.3-20.9-6.5-22.2-17.5l-18.3-154
		c-1.3-10.9,6.5-20.9,17.5-22.2l154-18.3C507-10.6,517-2.8,518.3,8.1z"/>
	<path class="graphics-5-2" d="M506.5-17.5l-14.6,154.4c-1,11-10.8,19-21.7,18l-154.4-14.6c-11-1-19-10.8-18-21.7l14.6-154.4
		c1-11,10.8-19,21.7-18l154.4,14.6C499.5-38.2,507.5-28.5,506.5-17.5z"/>
	<path class="graphics-5-3" d="M506.4-20.1l-71.5,137.6c-5.1,9.8-17.1,13.6-26.9,8.5L270.4,54.5c-9.8-5.1-13.6-17.1-8.5-26.9L333.4-110
		c5.1-9.8,17.1-13.6,26.9-8.5L497.9-47C507.7-41.9,511.5-29.9,506.4-20.1z"/>
	<ellipse class="graphics-5-3" cx="62.1" cy="190.3" rx="34.1" ry="34.1"/>
	<g class="graphics-5-4">
		<line class="graphics-5-5" x1="93.8" y1="172.1" x2="61.9" y2="208"/>
		<line class="graphics-5-5" x1="93.8" y1="153.9" x2="61.9" y2="189.9"/>
		<line class="graphics-5-5" x1="93.8" y1="135.8" x2="61.9" y2="171.7"/>
	</g>
</g>
</svg>
