<?xml version="1.0" encoding="utf-8"?>
<!-- Generator: Adobe Illustrator 23.0.6, SVG Export Plug-In . SVG Version: 6.00 Build 0)  -->
<svg preserveAspectRatio="none" version="1.1" id="Layer_1" xmlns="http://www.w3.org/2000/svg" xmlns:xlink="http://www.w3.org/1999/xlink" x="0px" y="0px" width="400" height="400"
	 viewBox="0 0 400 400" style="enable-background:new 0 0 400 400;" xml:space="preserve">
<style type="text/css">
	.st0{clip-path:url(#SVGID_2_);fill:#4571F8;}
	.st1{clip-path:url(#SVGID_2_);fill:#FFFFFF;}
	.st2{clip-path:url(#SVGID_2_);fill:#8582FB;}
	.st3{clip-path:url(#SVGID_2_);fill:#46B5F9;}
	.st4{clip-path:url(#SVGID_2_);}
	.st5{fill:none;stroke:#4571F8;stroke-width:5;stroke-linecap:round;stroke-miterlimit:10;}
</style>
<g>
	<defs>
		<rect id="SVGID_1_" width="400" height="400"/>
	</defs>
	<clipPath id="SVGID_2_">
		<use xlink:href="#SVGID_1_"  style="overflow:visible;"/>
	</clipPath>
	<rect class="st0" width="400" height="400"/>
	<path class="st1" d="M468.3,58.1l18.3,154c1.3,10.9-6.5,20.9-17.5,22.2l-154,18.3c-10.9,1.3-20.9-6.5-22.2-17.5l-18.3-154
		c-1.3-10.9,6.5-20.9,17.5-22.2l154-18.3C457,39.4,467,47.2,468.3,58.1z"/>
	<path class="st2" d="M456.5,32.5l-14.6,154.4c-1,11-10.8,19-21.7,18l-154.4-14.6c-11-1-19-10.8-18-21.7l14.6-154.4
		c1-11,10.8-19,21.7-18l154.4,14.6C449.5,11.8,457.5,21.5,456.5,32.5z"/>
	<path class="st3" d="M456.4,29.9l-71.5,137.6c-5.1,9.8-17.1,13.6-26.9,8.5l-137.6-71.5c-9.8-5.1-13.6-17.1-8.5-26.9L283.4-60
		c5.1-9.8,17.1-13.6,26.9-8.5L447.9,3C457.7,8.1,461.5,20.1,456.4,29.9z"/>
	<ellipse class="st3" cx="72.1" cy="320.3" rx="34.1" ry="34.1"/>
	<g class="st4">
		<line class="st5" x1="113.8" y1="302.1" x2="81.9" y2="338"/>
		<line class="st5" x1="113.8" y1="283.9" x2="81.9" y2="319.9"/>
		<line class="st5" x1="113.8" y1="265.8" x2="81.9" y2="301.7"/>
	</g>
</g>
</svg>
