<?xml version="1.0" encoding="utf-8"?>
<!-- Generator: Adobe Illustrator 23.0.3, SVG Export Plug-In . SVG Version: 6.00 Build 0)  -->
<svg xmlns="http://www.w3.org/2000/svg" xmlns:xlink="http://www.w3.org/1999/xlink" x="0px" y="0px" width="500" height="300"
	 viewBox="0 0 500 300" style="enable-background:new 0 0 500 300;" xml:space="preserve">
<style type="text/css">
	.graphics-3-0{clip-path:url(#SVGID_2_);}
	.graphics-3-1{fill:#39AEB7;}
	.graphics-3-2{opacity:0.4;fill:none;stroke:#105A6B;stroke-width:2;stroke-miterlimit:10;}
</style>
<g>
	<defs>
		<rect id="SVGID_1_" width="500" height="300"/>
	</defs>
	<clipPath id="SVGID_2_">
		<use xlink:href="#SVGID_1_"  style="overflow:visible;"/>
	</clipPath>
	<g class="graphics-3-0">
		<rect class="graphics-3-1" width="500" height="300"/>
	</g>
	<g class="graphics-3-0">
		<path class="graphics-3-2" d="M119.2,202.5C66.4,171.2,94.5,89.4,155.4,97.6c0.9,0.1,1.8,0.2,2.6,0.4c71,11,124-20,124-20
			s100.3-50.6,125,60C426,223,227.6,267.1,119.2,202.5z"/>
		<path class="graphics-3-2" d="M93,213.1C29.7,175.4,63.4,77.3,136.4,87.1c1,0.1,2.1,0.3,3.2,0.5c85.2,13.2,148.8-24,148.8-24
			s120.3-60.8,150,72C461.3,237.6,223.2,290.5,93,213.1z"/>
		<path class="graphics-3-2" d="M65,224.4C-9.7,180,30.1,64.3,116.2,75.9c1.2,0.2,2.5,0.3,3.7,0.5C220.4,92,295.3,48.2,295.3,48.2
			s141.9-71.6,176.9,84.9C499.1,253.3,218.4,315.7,65,224.4z"/>
		<path class="graphics-3-2" d="M140.4,194c-44.2-26.3-20.6-94.8,30.3-87.9c0.7,0.1,1.5,0.2,2.2,0.3c59.5,9.2,103.9-16.8,103.9-16.8
			s84-42.4,104.7,50.3C397.4,211.1,231.2,248,140.4,194z"/>
		<path class="graphics-3-2" d="M168.6,182.6c-32.8-19.5-15.3-70.4,22.5-65.3c0.5,0.1,1.1,0.2,1.6,0.2c44.2,6.8,77.1-12.4,77.1-12.4
			s62.4-31.5,77.7,37.3C359.4,195.4,236,222.8,168.6,182.6z"/>
		<path class="graphics-3-2" d="M196.1,171.6C174.4,158.7,186,125,211,128.4c0.4,0,0.7,0.1,1.1,0.2c29.2,4.5,51-8.2,51-8.2
			s41.2-20.8,51.4,24.7C322.3,180,240.7,198.1,196.1,171.6z"/>
		<path class="graphics-3-2" d="M217.1,163.1c-13.2-7.9-6.2-28.3,9.1-26.3c0.2,0,0.4,0.1,0.7,0.1c17.8,2.8,31.1-5,31.1-5s25.1-12.7,31.3,15
			C294,168.2,244.3,179.3,217.1,163.1z"/>
		<path class="graphics-3-2" d="M232.8,156.8c-6.9-4.1-3.2-14.8,4.7-13.7c0.1,0,0.2,0,0.3,0.1c9.3,1.4,16.2-2.6,16.2-2.6s13.1-6.6,16.3,7.8
			C272.8,159.5,246.9,165.2,232.8,156.8z"/>
	</g>
</g>
</svg>
