<?xml version="1.0" encoding="utf-8"?>
<!-- Generator: Adobe Illustrator 23.0.6, SVG Export Plug-In . SVG Version: 6.00 Build 0)  -->
<svg version="1.1" id="Layer_1" xmlns="http://www.w3.org/2000/svg" xmlns:xlink="http://www.w3.org/1999/xlink" x="0px" y="0px" width="400" height="400"
	 viewBox="0 0 400 400" style="enable-background:new 0 0 400 400;" xml:space="preserve">
<style type="text/css">
	.st0{clip-path:url(#SVGID_2_);fill:#287793;}
	.st1{opacity:0.2;clip-path:url(#SVGID_2_);fill:#86D1F2;enable-background:new    ;}

		.st2{opacity:0.4;clip-path:url(#SVGID_2_);fill:none;stroke:#105E5E;stroke-width:3;stroke-linecap:round;stroke-linejoin:round;stroke-miterlimit:10;enable-background:new    ;}
	.st3{opacity:0.3;clip-path:url(#SVGID_2_);fill:#105E5E;enable-background:new    ;}
	.st4{opacity:0.35;clip-path:url(#SVGID_2_);fill:#105E5E;enable-background:new    ;}
</style>
<g>
	<defs>
		<rect id="SVGID_1_" width="400" height="400"/>
	</defs>
	<clipPath id="SVGID_2_">
		<use xlink:href="#SVGID_1_"  style="overflow:visible;"/>
	</clipPath>
	<rect class="st0" width="400" height="400"/>
	<path class="st1" d="M248.9,224.9v9.3c-0.1,0.5-0.2,1-0.3,1.5c-0.5,4.1-0.8,8.1-1.5,12.2c-2.2,13.1-6.9,25.3-13.9,36.5
		c-10.6,17.1-25,30.1-43.1,39c-10.4,5.2-21.7,8.5-33.2,9.8c-2.6,0.3-5.1,0.6-7.7,0.8H49.8c-0.5-0.1-1-0.2-1.5-0.3
		c-10-0.6-19.7-2.9-28.9-6.9c-20-8.8-35-23-44.8-42.6c-4.3-8.6-7.1-17.9-8.3-27.5c-0.3-2.3-0.6-4.7-0.8-7v-9.1
		c0.1-0.5,0.2-1,0.3-1.5c0.5-8.7,2.3-17.1,5.4-25.3c8.5-21.8,23.2-38,44.1-48.5c10.9-5.4,22.5-8.3,34.6-8.9c5.9-0.3,11.9,0,17.8,0.8
		c0.5,0.1,1.3-0.2,1.7-0.5c8.5-8.7,18.1-15.7,29-21c10.6-5.2,21.7-8.5,33.4-9.8c2.8-0.3,5.5-0.6,8.3-0.9h8.5
		c0.6,0.1,1.1,0.2,1.7,0.2c4.2,0.5,8.4,0.8,12.6,1.5c13,2.2,25.1,6.8,36.3,13.8c17.2,10.6,30.3,25,39.2,43.1
		c5.2,10.4,8.5,21.7,9.8,33.2C248.4,219.5,248.6,222.2,248.9,224.9 M90.4,164.5c0.2,0.2,0.2,0.3,0.3,0.4c5.8,2.9,11.4,6.2,16.7,10.1
		c0.3,0.2,1.2,0.1,1.6-0.1c14.4-9.1,30.1-12.3,46.9-9.3c16.5,2.9,29.9,11.2,40.1,24.3c11.6,14.9,16,31.7,12.8,50.4
		c-2.1,12.5-7.2,23.8-15.7,33.2c-15.6,17.2-35.1,24.3-58.1,21.3c-14.1-1.9-26.3-8-36.5-18.2c-13-13.1-26-26.1-39-39.2
		c-1.7-1.7-3.7-3.1-6.2-3.4c-4.4-0.5-8.3,1.6-10.2,5.6c-1.7,3.5-1.5,7.4,2.2,11c14.5,14.2,28.9,28.6,43.3,42.8
		c2.5,2.5,5.1,4.7,8,6.8c10.6,7.7,22.5,11.9,35.4,13.6c10.1,1.3,20.2,1.1,30.2-1.2c19-4.3,34.8-14,47.2-29
		c10.3-12.4,16.5-26.6,18.6-42.6c1.3-9.1,1-18.4-0.8-27.4c-2.9-14.8-9.1-28-19.1-39.2c-19.1-21.4-43.1-31-71.7-28.9
		c-11,0.8-21.4,4.1-31.2,9.2C100,157.4,95,160.7,90.4,164.5 M83.4,314.2c-0.4-0.4-0.8-0.7-1.2-1.1c-5.9-5.6-11.9-11.2-17.7-16.8
		c-1.1-1.1-2.2-1.6-3.8-1.6c-5.9,0.1-11.9,0.2-17.7-1.2c-29.1-6.6-45.9-38.2-35.2-66c8.4-21.9,31.8-35.3,54.9-31.2
		c10.3,1.8,19.4,6.2,26.9,13.9c9.1,9.4,18.4,18.5,27.6,27.8c2.1,2.1,4.5,3.1,7.4,2.7c3.7-0.5,6.7-2.3,8.1-6c1.3-3.6,0.7-7-2.1-9.8
		c-9.6-9.8-19-19.8-29.1-29.1c-19.4-18.1-42.4-23.5-67.7-15.8c-34.1,10.4-54.1,45.6-46.3,80.3c7.1,31.7,34.8,53.9,67.2,53.9
		c9,0,18.1,0,27.1,0C82.3,314.3,82.7,314.2,83.4,314.2"/>
	<path class="st2" d="M397,166.5L397,166.5c40,0,72.5-32.5,72.5-72.5l0,0c0-40-32.5-72.5-72.5-72.5l0,0c-40,0-72.5,32.5-72.5,72.5
		l0,0C324.5,134,357,166.5,397,166.5z"/>
	<path class="st3" d="M397,149.9L397,149.9c31,0,55.9-25.1,55.9-55.9l0,0c0-31-25.1-55.9-55.9-55.9l0,0c-31,0-55.9,25.1-55.9,55.9
		l0,0C341.1,125,366,149.9,397,149.9z"/>
	<path class="st4" d="M397,114.4L397,114.4c11.3,0,20.4-9.1,20.4-20.4l0,0c0-11.3-9.1-20.4-20.4-20.4l0,0
		c-11.3,0-20.4,9.1-20.4,20.4l0,0C376.6,105.3,385.7,114.4,397,114.4z"/>
</g>
</svg>
