<?xml version="1.0" encoding="utf-8"?>
<!-- Generator: Adobe Illustrator 24.0.1, SVG Export Plug-In . SVG Version: 6.00 Build 0)  -->
<svg version="1.1" id="Layer_1" xmlns="http://www.w3.org/2000/svg" xmlns:xlink="http://www.w3.org/1999/xlink" x="0px" y="0px" width="400" height="500"
	 viewBox="0 0 400 500" style="enable-background:new 0 0 400 500;" xml:space="preserve">
<style type="text/css">
	.st0{fill:#F8FAFD;}
	.st1{fill:#055669;}
	.st2{fill:#058190;}
	.st3{fill:#FA4A19;}
	.st4{fill:#FBC103;}
	.st5{fill:#FCD845;}
	.st6{fill:#423781;}
	.st7{fill:#F4B8B8;}
</style>
<rect class="st0" width="400" height="500"/>
<path class="st1" d="M73.9,0c0,0,24.9,15.5,12,43.9c-9.3,20.4-19.8,43-1.1,68.1c11.3,15.2,27.6,20,43.2,29.2c2.6,1.5,5.2,3.3,7,5.8
	c12.9,17.3-19.3,36.1-31,42.2C55,215-28.4,199.5-31,172V0H73.9z"/>
<path class="st2" d="M50.1,0c6.4,0,11.6,18.4,12,22.5c1.9,17.7-9.8,34-11,51.6c-1.6,24.4,14.2,41.1,33.9,52.8
	c3.6,2.2,7.4,4.3,10.3,7.4c5.4,5.9,4.7,14.5,0.8,20.9c-13.1,21.6-37.9,31.7-62.3,33c-18.8,1-60.6-2.4-64.6-26.6
	c-0.1-0.5-0.2-1.1-0.2-1.6c0,0,0-160,0-160S49.9,0,50.1,0z"/>
<path class="st3" d="M140.2,320.9c-5.1-9.1,0.5-20.4,10.8-21.8c20.1-2.7,48.2-13.7,24.8-56.2c-34.3-62.1,61.9-63.8,74.8-43.2
	S237.2,227,287,265.1s-54.3,23.9-44.8,83.3C250.4,399.5,164.1,363.8,140.2,320.9z"/>
<path class="st4" d="M256.4,500c0,0-14.2-57.7,52.2-90.2c21.2-10.4,39-27.2,50.8-47.6c6.2-10.8,10.6-22.5,13.3-34.6
	c5.5-24.8,12-58.7,44.3-58.7v231H256.4z"/>
<path class="st5" d="M417,336.8V500H269.9c0,0-2-40.8,62.2-58.2c16.3-4.4,33.9-9.8,45-23.5c13.1-16.3,11.9-39.4,17.4-58.7
	C397.8,347.9,404.3,338.7,417,336.8z"/>
<path class="st6" d="M254,0c0,0,5.5,46.7,68.7,40.3c40.3-4.1,41.5,19.3,37.1,36.9c-2.7,10.9,6.4,21.1,17.5,19.7
	c11.2-1.5,24.8-6.3,37-19C441.9,49.5,444.6,0,444.6,0H254z"/>
<path class="st7" d="M-51,449c0,0,36-19,69,12c24.1,22.7,61.2,20.7,91.1,13.5c8.4-2,17.4-7.1,26.6-5.4c8.7,1.6,13.8,8.7,17.7,16.1
	c1.2,2.3,8.3,14.9,1.6,14.9c0,0-206,0-206,0V449z"/>
<g>
</g>
<g>
</g>
<g>
</g>
<g>
</g>
<g>
</g>
<g>
</g>
<g>
</g>
<g>
</g>
<g>
</g>
<g>
</g>
<g>
</g>
<g>
</g>
<g>
</g>
<g>
</g>
<g>
</g>
</svg>
