<?xml version="1.0" encoding="utf-8"?>
<!-- Generator: Adobe Illustrator 23.0.3, SVG Export Plug-In . SVG Version: 6.00 Build 0)  -->
<svg version="1.1" id="Layer_1" xmlns="http://www.w3.org/2000/svg" xmlns:xlink="http://www.w3.org/1999/xlink" x="0px" y="0px"
	 viewBox="0 0 443.4 456.2" style="enable-background:new 0 0 443.4 456.2;" xml:space="preserve">
<style type="text/css">
	.half-iphone-x-0{clip-path:url(#SVGID_2_);fill:#FFFFFF;stroke:#E7EAF3;stroke-miterlimit:10;}
	.half-iphone-x-1{clip-path:url(#SVGID_2_);fill:none;stroke:#F7F7F7;stroke-width:4;stroke-miterlimit:10;}
</style>
<g>
	<defs>
		<rect id="SVGID_1_" width="443.4" height="456.2"/>
	</defs>
	<clipPath id="SVGID_2_">
		<use xlink:href="#SVGID_1_"  style="overflow:visible;"/>
	</clipPath>
	<path class="half-iphone-x-0" d="M378.3,0H65.1C29.1,0,0,29.1,0,65.1v777.4c0,35.9,29.1,65.1,65.1,65.1h313.2c35.9,0,65.1-29.1,65.1-65.1V65.1
		C443.4,29.1,414.2,0,378.3,0z M424.8,838.8c0,28-21.8,50.7-48.8,50.7H67.4c-26.9,0-48.8-22.7-48.8-50.7V73.6
		c0-28,21.8-50.7,48.8-50.7h35.3c4,0,7.2,3.4,7.2,7.5c0,14.9,11.6,27,26,27h171.5c14.4,0.1,26-12,26-27c0-4.1,3.2-7.5,7.2-7.5H376
		c26.9,0,48.8,22.7,48.8,50.7V838.8z"/>
	<path class="half-iphone-x-1" d="M242.8,36.8h-46.4c-2,0-3.6-1.6-3.6-3.6l0,0c0-2,1.6-3.6,3.6-3.6h46.4c2,0,3.6,1.6,3.6,3.6l0,0
		C246.4,35.2,244.8,36.8,242.8,36.8z"/>
	<circle class="half-iphone-x-1" cx="269.5" cy="33.2" r="5.5"/>
</g>
</svg>
