<?xml version="1.0" encoding="utf-8"?>
<!-- Generator: Adobe Illustrator 23.0.3, SVG Export Plug-In . SVG Version: 6.00 Build 0)  -->
<svg xmlns="http://www.w3.org/2000/svg" xmlns:xlink="http://www.w3.org/1999/xlink" x="0px" y="0px"
	 viewBox="0 0 1096.9 841.7" style="enable-background:new 0 0 1096.9 841.7;" xml:space="preserve">
<style type="text/css">
	.ipad-horizontal-0{fill:#FFFFFF;stroke:#E7EAF3;stroke-miterlimit:10;}
	.ipad-horizontal-1{fill:#E7EAF3;}
</style>
<path class="ipad-horizontal-0" d="M0.5,44.4v752.9c0,24.2,19.7,43.9,43.9,43.9h1008.1c24.2,0,43.9-19.7,43.9-43.9V44.4
	c0-24.2-19.7-43.9-43.9-43.9H44.4C20.2,0.5,0.5,20.1,0.5,44.4z M1047.4,37.2c7.1,0,12.8,5.7,12.8,12.8v741.7
	c0,7.1-5.7,12.8-12.8,12.8H49.5c-7.1,0-12.8-5.7-12.8-12.8V50c0-7.1,5.7-12.8,12.8-12.8H1047.4z"/>
<circle class="ipad-horizontal-1" cx="18.8" cy="420.8" r="6.2"/>
</svg>
