<?xml version="1.0" encoding="utf-8"?>
<!-- Generator: Adobe Illustrator 23.0.3, SVG Export Plug-In . SVG Version: 6.00 Build 0)  -->
<svg xmlns="http://www.w3.org/2000/svg" xmlns:xlink="http://www.w3.org/1999/xlink" x="0px"
	 y="0px" viewBox="0 0 841.7 1096.9" style="enable-background:new 0 0 841.7 1096.9;" xml:space="preserve">
<style type="text/css">
	.ipad-0{fill:#FFFFFF;stroke:#E7EAF3;stroke-miterlimit:10;}
	.ipad-1{fill:#E7EAF3;}
</style>
<path class="ipad-0" d="M797.3,0.5H44.4C20.2,0.5,0.5,20.2,0.5,44.4v1008.1c0,24.2,19.7,43.9,43.9,43.9h752.9
	c24.2,0,43.9-19.7,43.9-43.9V44.4C841.2,20.2,821.6,0.5,797.3,0.5z M804.5,1047.4c0,7.1-5.7,12.8-12.8,12.8H50
	c-7.1,0-12.8-5.7-12.8-12.8V49.5c0-7.1,5.7-12.8,12.8-12.8h741.7c7.1,0,12.8,5.7,12.8,12.8V1047.4z"/>
<circle class="ipad-1" cx="420.9" cy="18.8" r="6.2"/>
</svg>
