<?xml version="1.0" encoding="utf-8"?>
<!-- Generator: Adobe Illustrator 23.0.3, SVG Export Plug-In . SVG Version: 6.00 Build 0)  -->
<svg xmlns="http://www.w3.org/2000/svg" xmlns:xlink="http://www.w3.org/1999/xlink" x="0px" y="0px"
	 viewBox="0 0 444.4 908.6" style="enable-background:new 0 0 444.4 908.6;" xml:space="preserve">
<style type="text/css">
	.iphone-x-0{fill:#FFFFFF;stroke:#E7EAF3;stroke-miterlimit:10;}
	.iphone-x-1{fill:none;stroke:#F7F7F7;stroke-width:4;stroke-miterlimit:10;}
	.iphone-x-2{fill:#F7F7F7;}
</style>
<path class="iphone-x-0" d="M378.8,0.5H65.6c-36,0-65.1,29.1-65.1,65.1V843c0,35.9,29.1,65.1,65.1,65.1h313.2c35.9,0,65.1-29.1,65.1-65.1
	V65.6C443.9,29.6,414.7,0.5,378.8,0.5z M425.3,839.3c0,28-21.8,50.7-48.8,50.7H67.9c-26.9,0-48.8-22.7-48.8-50.7V74.1
	c0-28,21.8-50.7,48.8-50.7h35.3c4,0,7.2,3.4,7.2,7.5c0,14.9,11.6,27,26,27h171.5c14.4,0.1,26-12,26-27c0-4.1,3.2-7.5,7.2-7.5h35.4
	c26.9,0,48.8,22.7,48.8,50.7V839.3z"/>
<path class="iphone-x-1" d="M243.3,37.3h-46.4c-2,0-3.6-1.6-3.6-3.6l0,0c0-2,1.6-3.6,3.6-3.6h46.4c2,0,3.6,1.6,3.6,3.6l0,0
	C246.9,35.7,245.3,37.3,243.3,37.3z"/>
<circle class="iphone-x-1" cx="270" cy="33.7" r="5.5"/>
<path class="iphone-x-2" d="M285.7,880.3h-127c-1.4,0-2.6-1.2-2.6-2.6l0,0c0-1.4,1.2-2.6,2.6-2.6h127c1.4,0,2.6,1.2,2.6,2.6l0,0
	C288.3,879.2,287.1,880.3,285.7,880.3z"/>
</svg>
