<?xml version="1.0" encoding="utf-8"?>
<!-- Generator: Adobe Illustrator 23.0.3, SVG Export Plug-In . SVG Version: 6.00 Build 0)  -->
<svg xmlns="http://www.w3.org/2000/svg" xmlns:xlink="http://www.w3.org/1999/xlink" x="0px" y="0px"
	 viewBox="0 0 999.1 577.5" style="enable-background:new 0 0 999.1 577.5;" xml:space="preserve">
<style type="text/css">
	.macbook-0{fill:#FFFFFF;stroke:#E7EAF3;stroke-miterlimit:10;}
	.macbook-1{fill:#F7F7F7;}
	.macbook-2{fill:#FFFFFF;}
	.macbook-3{fill:#EFEFEF;}
	.macbook-4{fill:url(#macbookID1);}
	.macbook-5{fill:none;stroke:#E7EAF3;stroke-miterlimit:10;}
</style>
<path class="macbook-0" d="M881.3,577H117.5c-14.4,0-26.2-11.8-26.2-26.2V26.7c0-14.4,11.8-26.2,26.2-26.2h763.9
	c14.4,0,26.2,11.8,26.2,26.2v524.2C907.5,565.2,895.7,577,881.3,577z"/>
<circle class="macbook-1" cx="498" cy="23.8" r="3"/>
<path class="macbook-2" d="M996.3,561.2H2.9c-1.5,0-2.8-1.3-2.8-2.8l0,0c0-1.5,1.3-2.8,2.8-2.8h993.4c1.5,0,2.8,1.3,2.8,2.8l0,0
	C999.1,559.9,997.9,561.2,996.3,561.2z"/>
<path class="macbook-3" d="M499.6,563L0,561.2c0,0,24.1,11.3,117.8,15.8H498h3.1h380.2c93.7-4.5,117.8-15.8,117.8-15.8L499.6,563z"/>
<linearGradient id="macbookID1" gradientUnits="userSpaceOnUse" x1="403.9" y1="16.8" x2="595" y2="16.8" gradientTransform="matrix(1 0 0 -1 0 576)">
	<stop  offset="5.908129e-07" style="stop-color:#F0F1F2"/>
	<stop  offset="5.235744e-02" style="stop-color:#F6F7F8"/>
	<stop  offset="0.1708" style="stop-color:#FDFDFD"/>
	<stop  offset="0.5" style="stop-color:#FFFFFF"/>
	<stop  offset="0.8292" style="stop-color:#FDFDFD"/>
	<stop  offset="0.9476" style="stop-color:#F6F7F8"/>
	<stop  offset="1" style="stop-color:#F0F1F2"/>
</linearGradient>
<path class="macbook-4" d="M591.4,562.7h-184c-1.9,0-3.5-1.6-3.5-3.5v-3.5H595v3.5C595,561.1,593.4,562.7,591.4,562.7z"/>
<g>

		<image style="overflow:visible;enable-background:new    ;" width="1618" height="1010" id="SVGmacbookImg1" xlink:href="../../img/1618x1010/img3.jpg"  transform="matrix(0.4651 0 0 0.4651 121.7472 37.9679)">
	</image>
	<rect id="macbookID2" x="121.7" y="38" class="macbook-5" width="752.5" height="469.7"/>
</g>
</svg>
